ISO-10303-21;
HEADER;
/* Generated by software containing ST-Developer
 * from STEP Tools, Inc. (www.steptools.com) 
 */

FILE_DESCRIPTION(
/* description */ (''),
/* implementation_level */ '2;1');

FILE_NAME(
/* name */ 'W3 Left.step',
/* time_stamp */ '2026-07-02T23:18:54-07:00',
/* author */ (''),
/* organization */ (''),
/* preprocessor_version */ 'ST-DEVELOPER v20.1',
/* originating_system */ 'Autodesk Translation Framework v15.8.0.0',
/* authorisation */ '');

FILE_SCHEMA (('AUTOMOTIVE_DESIGN { 1 0 10303 214 3 1 1 }'));
ENDSEC;

DATA;
#10=MECHANICAL_DESIGN_GEOMETRIC_PRESENTATION_REPRESENTATION('',(#13),#628);
#11=SHAPE_REPRESENTATION_RELATIONSHIP('SRR','None',#635,#12);
#12=ADVANCED_BREP_SHAPE_REPRESENTATION('',(#14),#627);
#13=STYLED_ITEM('',(#645),#14);
#14=MANIFOLD_SOLID_BREP('Wing3',#33);
#15=B_SPLINE_SURFACE_WITH_KNOTS('',3,3,((#381,#382,#383,#384),(#385,#386,
#387,#388),(#389,#390,#391,#392),(#393,#394,#395,#396),(#397,#398,#399,
#400),(#401,#402,#403,#404),(#405,#406,#407,#408),(#409,#410,#411,#412),
(#413,#414,#415,#416),(#417,#418,#419,#420),(#421,#422,#423,#424),(#425,
#426,#427,#428),(#429,#430,#431,#432),(#433,#434,#435,#436),(#437,#438,
#439,#440),(#441,#442,#443,#444),(#445,#446,#447,#448),(#449,#450,#451,
#452),(#453,#454,#455,#456),(#457,#458,#459,#460),(#461,#462,#463,#464),
(#465,#466,#467,#468),(#469,#470,#471,#472),(#473,#474,#475,#476),(#477,
#478,#479,#480),(#481,#482,#483,#484),(#485,#486,#487,#488),(#489,#490,
#491,#492),(#493,#494,#495,#496),(#497,#498,#499,#500),(#501,#502,#503,
#504),(#505,#506,#507,#508),(#509,#510,#511,#512),(#513,#514,#515,#516),
(#517,#518,#519,#520),(#521,#522,#523,#524),(#525,#526,#527,#528),(#529,
#530,#531,#532),(#533,#534,#535,#536),(#537,#538,#539,#540),(#541,#542,
#543,#544),(#545,#546,#547,#548),(#549,#550,#551,#552),(#553,#554,#555,
#556),(#557,#558,#559,#560),(#561,#562,#563,#564),(#565,#566,#567,#568),
(#569,#570,#571,#572),(#573,#574,#575,#576),(#577,#578,#579,#580),(#581,
#582,#583,#584),(#585,#586,#587,#588),(#589,#590,#591,#592),(#593,#594,
#595,#596),(#597,#598,#599,#600),(#601,#602,#603,#604),(#605,#606,#607,
#608),(#609,#610,#611,#612),(#613,#614,#615,#616),(#617,#618,#619,#620),
(#621,#622,#623,#624)),.UNSPECIFIED.,.F.,.F.,.F.,(4,1,1,1,1,1,1,1,1,1,1,
1,1,1,1,1,1,1,1,1,1,1,1,1,1,1,1,1,1,1,1,1,1,1,1,1,1,1,1,1,1,1,1,1,1,1,1,
1,1,1,1,1,1,1,1,1,2,4),(4,4),(0.,0.0124106552757371,0.0248213105514743,
0.0496426211029485,0.0744639316544227,0.099285242205897,0.124106552757371,
0.148927863308845,0.161338518584583,0.17374917386032,0.186159829136057,
0.198570484411794,0.223391794963268,0.248213105514743,0.26062376079048,
0.273034416066217,0.297855726617691,0.310266381893428,0.322677037169165,
0.335087692444902,0.347498347720639,0.359909002996377,0.372319658272114,
0.397140968823588,0.421962279375062,0.446783589926537,0.471604900478011,
0.496426211029485,0.521247521580959,0.546068832132434,0.570890142683908,
0.595711453235382,0.620532763786856,0.632943419062593,0.64535407433833,
0.657764729614068,0.670175384889805,0.694996695441279,0.719818005992753,
0.744639316544228,0.769460627095702,0.794281937647176,0.806692592922913,
0.81910324819865,0.831513903474387,0.843924558750125,0.856335214025862,
0.868745869301599,0.881156524577336,0.893567179853073,0.899772507490942,
0.90597783512881,0.918388490404547,0.930799145680284,0.943209800956022,
0.968031111507496,0.99285242205897,1.),(0.,1.),.UNSPECIFIED.);
#16=FACE_OUTER_BOUND('',#18,.T.);
#17=FACE_OUTER_BOUND('',#19,.T.);
#18=EDGE_LOOP('',(#26,#27));
#19=EDGE_LOOP('',(#28,#29));
#20=(
BOUNDED_CURVE()
B_SPLINE_CURVE(5,(#56,#57,#58,#59,#60,#61,#62,#63,#64,#65,#66,#67,#68,#69,
#70,#71,#72,#73,#74,#75,#76,#77,#78,#79,#80,#81,#82,#83,#84,#85,#86,#87,
#88,#89,#90,#91,#92,#93,#94,#95,#96,#97,#98,#99,#100,#101,#102,#103,#104,
#105,#106,#107,#108,#109,#110,#111,#112,#113,#114,#115,#116,#117,#118,#119,
#120,#121,#122,#123,#124,#125,#126,#127,#128,#129,#130,#131,#132,#133,#134,
#135,#136,#137,#138,#139,#140,#141,#142,#143,#144,#145,#146,#147,#148,#149,
#150,#151,#152,#153,#154,#155,#156,#157,#158,#159,#160,#161,#162,#163,#164,
#165,#166,#167,#168,#169,#170,#171,#172,#173,#174,#175,#176,#177,#178,#179,
#180,#181,#182,#183,#184,#185,#186,#187,#188,#189,#190,#191,#192,#193,#194,
#195,#196,#197,#198,#199,#200,#201,#202,#203,#204,#205,#206,#207,#208,#209,
#210,#211,#212,#213,#214,#215,#216,#217,#218,#219,#220),.UNSPECIFIED.,.F.,
 .F.)
B_SPLINE_CURVE_WITH_KNOTS((6,1,1,1,1,1,1,1,1,1,1,1,1,1,1,1,1,1,1,1,1,1,
1,1,1,1,1,1,1,1,1,1,1,1,1,1,1,1,1,1,1,1,1,1,1,1,1,1,1,1,1,1,1,1,1,1,1,1,
1,1,1,1,1,1,1,1,1,1,1,1,1,1,1,1,1,1,1,1,1,1,1,1,1,1,1,1,1,1,1,1,1,1,1,1,
1,1,1,1,1,1,1,1,1,1,1,1,1,1,1,1,1,1,1,1,1,1,1,1,1,1,1,1,1,1,1,1,1,1,1,1,
1,1,1,1,1,1,1,1,1,1,1,1,1,1,1,1,1,1,1,1,1,1,1,1,1,1,1,1,1,1,6),(-1.,-0.993749999999997,
-0.987499999999997,-0.981249999999998,-0.974999999999998,-0.968749999999998,
-0.962499999999998,-0.956249999999998,-0.949999999999998,-0.943749999999998,
-0.937499999999998,-0.931249999999998,-0.924999999999998,-0.918749999999998,
-0.912499999999998,-0.906249999999998,-0.899999999999998,-0.893749999999998,
-0.887499999999998,-0.881249999999998,-0.874999999999998,-0.868749999999998,
-0.862499999999998,-0.856249999999998,-0.849999999999998,-0.843749999999998,
-0.837499999999998,-0.831249999999998,-0.824999999999998,-0.818749999999998,
-0.812499999999998,-0.806249999999998,-0.799999999999998,-0.793749999999998,
-0.787499999999998,-0.781249999999998,-0.774999999999998,-0.768749999999998,
-0.762499999999998,-0.756249999999998,-0.749999999999998,-0.743749999999998,
-0.737499999999998,-0.731249999999998,-0.724999999999998,-0.718749999999998,
-0.712499999999998,-0.706249999999998,-0.699999999999999,-0.693749999999999,
-0.687499999999999,-0.681249999999999,-0.674999999999999,-0.668749999999999,
-0.662499999999999,-0.656249999999999,-0.649999999999999,-0.643749999999999,
-0.637499999999999,-0.631249999999999,-0.624999999999999,-0.618749999999999,
-0.612499999999999,-0.606249999999999,-0.599999999999999,-0.593749999999999,
-0.587499999999999,-0.581249999999999,-0.574999999999999,-0.568749999999999,
-0.562499999999999,-0.556249999999999,-0.549999999999999,-0.543749999999999,
-0.537499999999999,-0.531249999999999,-0.524999999999999,-0.518749999999999,
-0.512499999999999,-0.506249999999999,-0.499999999999999,-0.493749999999999,
-0.487499999999999,-0.481249999999999,-0.474999999999999,-0.468749999999999,
-0.462499999999999,-0.456249999999999,-0.449999999999999,-0.443749999999999,
-0.437499999999999,-0.431249999999999,-0.424999999999999,-0.41875,-0.4125,
-0.40625,-0.4,-0.39375,-0.3875,-0.38125,-0.375,-0.36875,-0.3625,-0.35625,
-0.35,-0.34375,-0.3375,-0.33125,-0.325,-0.31875,-0.3125,-0.30625,-0.3,-0.29375,
-0.2875,-0.28125,-0.275,-0.26875,-0.2625,-0.25625,-0.25,-0.24375,-0.2375,
-0.23125,-0.225,-0.21875,-0.2125,-0.20625,-0.2,-0.19375,-0.1875,-0.18125,
-0.175,-0.16875,-0.1625,-0.15625,-0.15,-0.14375,-0.1375,-0.13125,-0.125,
-0.11875,-0.1125,-0.10625,-0.1,-0.09375,-0.0875,-0.08125,-0.075,-0.06875,
-0.0625,-0.05625,-0.05,-0.04375,-0.0375,-0.03125,-0.025,-0.01875,-0.0125,
-0.00625,0.),.UNSPECIFIED.)
CURVE()
GEOMETRIC_REPRESENTATION_ITEM()
RATIONAL_B_SPLINE_CURVE((1.,1.,1.,1.,1.,1.,1.,1.,1.,1.,1.,1.,1.,1.,1.,1.,
1.,1.,1.,1.,1.,1.,1.,1.,1.,1.,1.,1.,1.,1.,1.,1.,1.,1.,1.,1.,1.,1.,1.,1.,
1.,1.,1.,1.,1.,1.,1.,1.,1.,1.,1.,1.,1.,1.,1.,1.,1.,1.,1.,1.,1.,1.,1.,1.,
1.,1.,1.,1.,1.,1.,1.,1.,1.,1.,1.,1.,1.,1.,1.,1.,1.,1.,1.,1.,1.,1.,1.,1.,
1.,1.,1.,1.,1.,1.,1.,1.,1.,1.,1.,1.,1.,1.,1.,1.,1.,1.,1.,1.,1.,1.,1.,1.,
1.,1.,1.,1.,1.,1.,1.,1.,1.,1.,1.,1.,1.,1.,1.,1.,1.,1.,1.,1.,1.,1.,1.,1.,
1.,1.,1.,1.,1.,1.,1.,1.,1.,1.,1.,1.,1.,1.,1.,1.,1.,1.,1.,1.,1.,1.,1.,1.,
1.,1.,1.,1.,1.))
REPRESENTATION_ITEM('')
);
#21=(
BOUNDED_CURVE()
B_SPLINE_CURVE(5,(#221,#222,#223,#224,#225,#226,#227,#228,#229,#230,#231,
#232,#233,#234,#235,#236,#237,#238,#239,#240,#241,#242,#243,#244,#245,#246,
#247,#248,#249,#250,#251,#252,#253,#254,#255,#256,#257,#258,#259,#260,#261,
#262,#263,#264,#265,#266,#267,#268,#269,#270,#271,#272,#273,#274,#275,#276,
#277,#278,#279,#280,#281,#282,#283,#284,#285,#286,#287,#288,#289,#290,#291,
#292,#293,#294,#295,#296,#297,#298,#299,#300,#301,#302,#303,#304,#305,#306,
#307,#308,#309,#310,#311,#312,#313,#314,#315,#316,#317,#318,#319,#320,#321,
#322,#323,#324,#325,#326,#327,#328,#329,#330,#331,#332,#333,#334,#335,#336,
#337,#338,#339,#340,#341,#342,#343,#344,#345,#346,#347,#348,#349,#350,#351,
#352,#353,#354,#355,#356,#357,#358,#359,#360,#361,#362,#363,#364,#365,#366,
#367,#368,#369,#370,#371,#372,#373,#374,#375,#376,#377,#378,#379,#380),
 .UNSPECIFIED.,.F.,.F.)
B_SPLINE_CURVE_WITH_KNOTS((6,1,1,1,1,1,1,1,1,1,1,1,1,1,1,1,1,1,1,1,1,1,
1,1,1,1,1,1,1,1,1,1,1,1,1,1,1,1,1,1,1,1,1,1,1,1,1,1,1,1,1,1,1,1,1,1,1,1,
1,1,1,1,1,1,1,1,1,1,1,1,1,1,1,1,1,1,1,1,1,1,1,1,1,1,1,1,1,1,1,1,1,1,1,1,
1,1,1,1,1,1,1,1,1,1,1,1,1,1,1,1,1,1,1,1,1,1,1,1,1,1,1,1,1,1,1,1,1,1,1,1,
1,1,1,1,1,1,1,1,1,1,1,1,1,1,1,1,1,1,1,1,1,1,1,1,1,6),(-1.,-0.993548387096776,
-0.98709677419355,-0.980645161290324,-0.974193548387098,-0.967741935483873,
-0.961290322580647,-0.954838709677421,-0.948387096774195,-0.941935483870969,
-0.935483870967743,-0.929032258064518,-0.922580645161292,-0.916129032258066,
-0.90967741935484,-0.903225806451614,-0.896774193548388,-0.890322580645163,
-0.883870967741937,-0.877419354838711,-0.870967741935485,-0.864516129032259,
-0.858064516129034,-0.851612903225808,-0.845161290322582,-0.838709677419356,
-0.83225806451613,-0.825806451612904,-0.819354838709679,-0.812903225806453,
-0.806451612903227,-0.800000000000001,-0.793548387096775,-0.78709677419355,
-0.780645161290324,-0.774193548387098,-0.767741935483872,-0.761290322580646,
-0.75483870967742,-0.748387096774195,-0.741935483870969,-0.735483870967743,
-0.729032258064517,-0.722580645161291,-0.716129032258065,-0.70967741935484,
-0.703225806451614,-0.696774193548388,-0.690322580645162,-0.683870967741936,
-0.677419354838711,-0.670967741935485,-0.664516129032259,-0.658064516129033,
-0.651612903225807,-0.645161290322581,-0.638709677419356,-0.63225806451613,
-0.625806451612904,-0.619354838709678,-0.612903225806452,-0.606451612903226,
-0.600000000000001,-0.593548387096775,-0.587096774193549,-0.580645161290323,
-0.574193548387097,-0.567741935483872,-0.561290322580646,-0.55483870967742,
-0.548387096774194,-0.541935483870968,-0.535483870967742,-0.529032258064517,
-0.522580645161291,-0.516129032258065,-0.509677419354839,-0.503225806451613,
-0.496774193548388,-0.490322580645162,-0.483870967741936,-0.47741935483871,
-0.470967741935484,-0.464516129032258,-0.458064516129033,-0.451612903225807,
-0.445161290322581,-0.438709677419355,-0.432258064516129,-0.425806451612903,
-0.419354838709678,-0.412903225806452,-0.406451612903226,-0.4,-0.393548387096774,
-0.387096774193549,-0.380645161290323,-0.374193548387097,-0.367741935483871,
-0.361290322580645,-0.354838709677419,-0.348387096774194,-0.341935483870968,
-0.335483870967742,-0.329032258064516,-0.32258064516129,-0.316129032258064,
-0.309677419354839,-0.303225806451613,-0.296774193548387,-0.290322580645161,
-0.283870967741935,-0.27741935483871,-0.270967741935484,-0.264516129032258,
-0.258064516129032,-0.251612903225806,-0.24516129032258,-0.238709677419355,
-0.232258064516129,-0.225806451612903,-0.219354838709677,-0.212903225806451,
-0.206451612903226,-0.2,-0.193548387096774,-0.187096774193548,-0.180645161290323,
-0.174193548387097,-0.167741935483871,-0.161290322580645,-0.154838709677419,
-0.148387096774194,-0.141935483870968,-0.135483870967742,-0.129032258064516,
-0.12258064516129,-0.116129032258065,-0.109677419354839,-0.103225806451613,
-0.0967741935483871,-0.0903225806451613,-0.0838709677419355,-0.0774193548387097,
-0.0709677419354839,-0.0645161290322581,-0.0580645161290323,-0.0516129032258065,
-0.0451612903225806,-0.0387096774193548,-0.032258064516129,-0.0258064516129032,
-0.0193548387096774,-0.0129032258064516,-0.00645161290322581,0.),
 .UNSPECIFIED.)
CURVE()
GEOMETRIC_REPRESENTATION_ITEM()
RATIONAL_B_SPLINE_CURVE((1.,1.,1.,1.,1.,1.,1.,1.,1.,1.,1.,1.,1.,1.,1.,1.,
1.,1.,1.,1.,1.,1.,1.,1.,1.,1.,1.,1.,1.,1.,1.,1.,1.,1.,1.,1.,1.,1.,1.,1.,
1.,1.,1.,1.,1.,1.,1.,1.,1.,1.,1.,1.,1.,1.,1.,1.,1.,1.,1.,1.,1.,1.,1.,1.,
1.,1.,1.,1.,1.,1.,1.,1.,1.,1.,1.,1.,1.,1.,1.,1.,1.,1.,1.,1.,1.,1.,1.,1.,
1.,1.,1.,1.,1.,1.,1.,1.,1.,1.,1.,1.,1.,1.,1.,1.,1.,1.,1.,1.,1.,1.,1.,1.,
1.,1.,1.,1.,1.,1.,1.,1.,1.,1.,1.,1.,1.,1.,1.,1.,1.,1.,1.,1.,1.,1.,1.,1.,
1.,1.,1.,1.,1.,1.,1.,1.,1.,1.,1.,1.,1.,1.,1.,1.,1.,1.,1.,1.,1.,1.,1.,1.))
REPRESENTATION_ITEM('')
);
#22=VERTEX_POINT('',#54);
#23=VERTEX_POINT('',#55);
#24=EDGE_CURVE('',#22,#23,#20,.T.);
#25=EDGE_CURVE('',#22,#23,#21,.T.);
#26=ORIENTED_EDGE('',*,*,#24,.T.);
#27=ORIENTED_EDGE('',*,*,#25,.F.);
#28=ORIENTED_EDGE('',*,*,#25,.T.);
#29=ORIENTED_EDGE('',*,*,#24,.F.);
#30=PLANE('',#47);
#31=ADVANCED_FACE('',(#16),#30,.F.);
#32=ADVANCED_FACE('',(#17),#15,.T.);
#33=CLOSED_SHELL('',(#31,#32));
#34=DERIVED_UNIT_ELEMENT(#36,1.);
#35=DERIVED_UNIT_ELEMENT(#630,-3.);
#36=(
MASS_UNIT()
NAMED_UNIT(*)
SI_UNIT(.KILO.,.GRAM.)
);
#37=DERIVED_UNIT((#34,#35));
#38=MEASURE_REPRESENTATION_ITEM('density measure',
POSITIVE_RATIO_MEASURE(7850.),#37);
#39=PROPERTY_DEFINITION_REPRESENTATION(#44,#41);
#40=PROPERTY_DEFINITION_REPRESENTATION(#45,#42);
#41=REPRESENTATION('material name',(#43),#627);
#42=REPRESENTATION('density',(#38),#627);
#43=DESCRIPTIVE_REPRESENTATION_ITEM('Steel','Steel');
#44=PROPERTY_DEFINITION('material property','material name',#637);
#45=PROPERTY_DEFINITION('material property','density of part',#637);
#46=AXIS2_PLACEMENT_3D('',#52,#48,#49);
#47=AXIS2_PLACEMENT_3D('',#53,#50,#51);
#48=DIRECTION('axis',(0.,0.,1.));
#49=DIRECTION('refdir',(1.,0.,0.));
#50=DIRECTION('center_axis',(-1.,0.,0.));
#51=DIRECTION('ref_axis',(0.,0.,1.));
#52=CARTESIAN_POINT('',(0.,0.,0.));
#53=CARTESIAN_POINT('Origin',(-250.,63.4781310553753,1.39969582659772));
#54=CARTESIAN_POINT('',(-250.,130.,0.));
#55=CARTESIAN_POINT('',(-250.,0.,0.));
#56=CARTESIAN_POINT('Ctrl Pts',(-250.,130.,-3.08086889333481E-14));
#57=CARTESIAN_POINT('Ctrl Pts',(-250.,129.878728014518,0.000872461847696571));
#58=CARTESIAN_POINT('Ctrl Pts',(-250.,129.631760520356,0.00285432130259028));
#59=CARTESIAN_POINT('Ctrl Pts',(-250.,129.248038460525,0.00653795931864681));
#60=CARTESIAN_POINT('Ctrl Pts',(-250.,128.709867881344,0.0128709044516076));
#61=CARTESIAN_POINT('Ctrl Pts',(-250.,127.993540234265,0.0230927623473723));
#62=CARTESIAN_POINT('Ctrl Pts',(-250.,127.235517974636,0.0354225543450729));
#63=CARTESIAN_POINT('Ctrl Pts',(-250.,126.439582426227,0.0494759813960902));
#64=CARTESIAN_POINT('Ctrl Pts',(-250.,125.6122153294,0.0645839853853805));
#65=CARTESIAN_POINT('Ctrl Pts',(-250.,124.762283897689,0.0798848997425997));
#66=CARTESIAN_POINT('Ctrl Pts',(-250.,123.899968713395,0.094534526019108));
#67=CARTESIAN_POINT('Ctrl Pts',(-250.,123.035921967274,0.107891407876406));
#68=CARTESIAN_POINT('Ctrl Pts',(-250.,122.180322869939,0.119689365131817));
#69=CARTESIAN_POINT('Ctrl Pts',(-250.,121.341995760198,0.130270921704754));
#70=CARTESIAN_POINT('Ctrl Pts',(-250.,120.527447032151,0.140610074959189));
#71=CARTESIAN_POINT('Ctrl Pts',(-250.,119.739885819145,0.151922558235005));
#72=CARTESIAN_POINT('Ctrl Pts',(-250.,118.978127981961,0.165348251227546));
#73=CARTESIAN_POINT('Ctrl Pts',(-250.,118.235796333118,0.181639069367212));
#74=CARTESIAN_POINT('Ctrl Pts',(-250.,117.499792788457,0.200762114365714));
#75=CARTESIAN_POINT('Ctrl Pts',(-250.,116.751122103834,0.221819889874948));
#76=CARTESIAN_POINT('Ctrl Pts',(-250.,115.969709574293,0.243532976834158));
#77=CARTESIAN_POINT('Ctrl Pts',(-250.,115.138542485807,0.264613981225179));
#78=CARTESIAN_POINT('Ctrl Pts',(-250.,114.247618013152,0.284147093366767));
#79=CARTESIAN_POINT('Ctrl Pts',(-250.,113.299104561074,0.302057591486116));
#80=CARTESIAN_POINT('Ctrl Pts',(-250.,112.307754950483,0.319197280215495));
#81=CARTESIAN_POINT('Ctrl Pts',(-250.,111.295371300684,0.336942493380979));
#82=CARTESIAN_POINT('Ctrl Pts',(-250.,110.286883059207,0.35692408447027));
#83=CARTESIAN_POINT('Ctrl Pts',(-250.,109.305589336158,0.380690034459019));
#84=CARTESIAN_POINT('Ctrl Pts',(-250.,108.369176739707,0.409428748429304));
#85=CARTESIAN_POINT('Ctrl Pts',(-250.,107.484382483461,0.44358845834513));
#86=CARTESIAN_POINT('Ctrl Pts',(-250.,106.645874445115,0.482817993670009));
#87=CARTESIAN_POINT('Ctrl Pts',(-250.,105.84117232653,0.526365240996332));
#88=CARTESIAN_POINT('Ctrl Pts',(-250.,105.054201915101,0.573374859963178));
#89=CARTESIAN_POINT('Ctrl Pts',(-250.,104.269223888212,0.623207357262215));
#90=CARTESIAN_POINT('Ctrl Pts',(-250.,103.475019701241,0.675794717206384));
#91=CARTESIAN_POINT('Ctrl Pts',(-250.,102.667686555711,0.731840413751894));
#92=CARTESIAN_POINT('Ctrl Pts',(-250.,101.847703547872,0.792397075112672));
#93=CARTESIAN_POINT('Ctrl Pts',(-250.,101.017862570882,0.858535781488788));
#94=CARTESIAN_POINT('Ctrl Pts',(-250.,100.180919970099,0.930989759002405));
#95=CARTESIAN_POINT('Ctrl Pts',(-250.,99.3372288036659,1.00978483125371));
#96=CARTESIAN_POINT('Ctrl Pts',(-250.,98.4827836762551,1.09394573915026));
#97=CARTESIAN_POINT('Ctrl Pts',(-250.,97.6113112397963,1.18190414095594));
#98=CARTESIAN_POINT('Ctrl Pts',(-250.,96.7159365563477,1.27183340232798));
#99=CARTESIAN_POINT('Ctrl Pts',(-250.,95.7911016761113,1.36202735008134));
#100=CARTESIAN_POINT('Ctrl Pts',(-250.,94.8341720328973,1.45122375325265));
#101=CARTESIAN_POINT('Ctrl Pts',(-250.,93.8476911105971,1.53904320394734));
#102=CARTESIAN_POINT('Ctrl Pts',(-250.,92.8390144843267,1.62596091788565));
#103=CARTESIAN_POINT('Ctrl Pts',(-250.,91.8181928541736,1.71296690514414));
#104=CARTESIAN_POINT('Ctrl Pts',(-250.,90.7964047623191,1.80132314277263));
#105=CARTESIAN_POINT('Ctrl Pts',(-250.,89.7841023189625,1.8922718604831));
#106=CARTESIAN_POINT('Ctrl Pts',(-250.,88.7894200415702,1.98678549958597));
#107=CARTESIAN_POINT('Ctrl Pts',(-250.,87.8161296968025,2.08524842697206));
#108=CARTESIAN_POINT('Ctrl Pts',(-250.,86.8629483135403,2.18733901208136));
#109=CARTESIAN_POINT('Ctrl Pts',(-250.,85.9253532881963,2.29228140350831));
#110=CARTESIAN_POINT('Ctrl Pts',(-250.,84.9968257200027,2.39901342306947));
#111=CARTESIAN_POINT('Ctrl Pts',(-250.,84.0703709988877,2.50639436859992));
#112=CARTESIAN_POINT('Ctrl Pts',(-250.,83.1398083026057,2.61338100477577));
#113=CARTESIAN_POINT('Ctrl Pts',(-250.,82.2014350480679,2.71925333075214));
#114=CARTESIAN_POINT('Ctrl Pts',(-250.,81.2545081648488,2.82368511629902));
#115=CARTESIAN_POINT('Ctrl Pts',(-250.,80.3002554501066,2.92662239415801));
#116=CARTESIAN_POINT('Ctrl Pts',(-250.,79.3412685592352,3.02821135554453));
#117=CARTESIAN_POINT('Ctrl Pts',(-250.,78.3807188585986,3.12870423845251));
#118=CARTESIAN_POINT('Ctrl Pts',(-250.,77.4217018048934,3.22837934932768));
#119=CARTESIAN_POINT('Ctrl Pts',(-250.,76.4663962666289,3.32744345441004));
#120=CARTESIAN_POINT('Ctrl Pts',(-250.,75.51582214302,3.42598786821633));
#121=CARTESIAN_POINT('Ctrl Pts',(-250.,74.5701575124154,3.52399350423902));
#122=CARTESIAN_POINT('Ctrl Pts',(-250.,73.6289049786708,3.62132358840626));
#123=CARTESIAN_POINT('Ctrl Pts',(-250.,72.6911157836531,3.7177192550464));
#124=CARTESIAN_POINT('Ctrl Pts',(-250.,71.7555975599922,3.81279880591873));
#125=CARTESIAN_POINT('Ctrl Pts',(-250.,70.8211075706406,3.90604298621878));
#126=CARTESIAN_POINT('Ctrl Pts',(-250.,69.8866535449528,3.99684337971003));
#127=CARTESIAN_POINT('Ctrl Pts',(-250.,68.9518807720421,4.08459375350728));
#128=CARTESIAN_POINT('Ctrl Pts',(-250.,68.0174166091991,4.16876657571802));
#129=CARTESIAN_POINT('Ctrl Pts',(-250.,67.0852693259853,4.24899994622014));
#130=CARTESIAN_POINT('Ctrl Pts',(-250.,66.1591189532514,4.32517014467166));
#131=CARTESIAN_POINT('Ctrl Pts',(-250.,65.2448751471203,4.39749622318893));
#132=CARTESIAN_POINT('Ctrl Pts',(-250.,64.349580398383,4.46644942350119));
#133=CARTESIAN_POINT('Ctrl Pts',(-250.,63.4798946501054,4.53261195228671));
#134=CARTESIAN_POINT('Ctrl Pts',(-250.,62.6406568975114,4.59654797632347));
#135=CARTESIAN_POINT('Ctrl Pts',(-250.,61.8335576833023,4.65868042893459));
#136=CARTESIAN_POINT('Ctrl Pts',(-250.,61.055418373265,4.71913905415665));
#137=CARTESIAN_POINT('Ctrl Pts',(-250.,60.2977588789512,4.77770592987572));
#138=CARTESIAN_POINT('Ctrl Pts',(-250.,59.5493842155108,4.83398952260043));
#139=CARTESIAN_POINT('Ctrl Pts',(-250.,58.7984467711429,4.88756029682034));
#140=CARTESIAN_POINT('Ctrl Pts',(-250.,58.0345617887986,4.93808714668891));
#141=CARTESIAN_POINT('Ctrl Pts',(-250.,57.2512790753849,4.98550876426123));
#142=CARTESIAN_POINT('Ctrl Pts',(-250.,56.4468612594876,5.03004761721698));
#143=CARTESIAN_POINT('Ctrl Pts',(-250.,55.6234041723727,5.07207671118903));
#144=CARTESIAN_POINT('Ctrl Pts',(-250.,54.786474487305,5.11202382787002));
#145=CARTESIAN_POINT('Ctrl Pts',(-250.,53.9444175981143,5.1502681766873));
#146=CARTESIAN_POINT('Ctrl Pts',(-250.,53.1080957981631,5.18702141434439));
#147=CARTESIAN_POINT('Ctrl Pts',(-250.,52.2893777732793,5.22228651759175));
#148=CARTESIAN_POINT('Ctrl Pts',(-250.,51.4983648306382,5.25591340717977));
#149=CARTESIAN_POINT('Ctrl Pts',(-250.,50.7407295472079,5.28762942464646));
#150=CARTESIAN_POINT('Ctrl Pts',(-250.,50.0154657281734,5.31707975663331));
#151=CARTESIAN_POINT('Ctrl Pts',(-250.,49.3113436110896,5.34386420948988));
#152=CARTESIAN_POINT('Ctrl Pts',(-250.,48.6082510677638,5.36757306133371));
#153=CARTESIAN_POINT('Ctrl Pts',(-250.,47.8836674091871,5.38781904900553));
#154=CARTESIAN_POINT('Ctrl Pts',(-250.,47.117861324363,5.40427063850207));
#155=CARTESIAN_POINT('Ctrl Pts',(-250.,46.299397595186,5.41668452492129));
#156=CARTESIAN_POINT('Ctrl Pts',(-250.,45.4310781328864,5.42493919552229));
#157=CARTESIAN_POINT('Ctrl Pts',(-250.,44.5260459654769,5.4290522141854));
#158=CARTESIAN_POINT('Ctrl Pts',(-250.,43.6031267396487,5.4291946861865));
#159=CARTESIAN_POINT('Ctrl Pts',(-250.,42.6822845311939,5.42570975299193));
#160=CARTESIAN_POINT('Ctrl Pts',(-250.,41.7804038490494,5.4191227022896));
#161=CARTESIAN_POINT('Ctrl Pts',(-250.,40.9060216823333,5.41017109226225));
#162=CARTESIAN_POINT('Ctrl Pts',(-250.,40.0577260274849,5.39976852909331));
#163=CARTESIAN_POINT('Ctrl Pts',(-250.,39.2281777121322,5.38886836337366));
#164=CARTESIAN_POINT('Ctrl Pts',(-250.,38.4068328459613,5.37834948796722));
#165=CARTESIAN_POINT('Ctrl Pts',(-250.,37.5831114445699,5.36889666536585));
#166=CARTESIAN_POINT('Ctrl Pts',(-250.,36.7495567418619,5.36087500618703));
#167=CARTESIAN_POINT('Ctrl Pts',(-250.,35.9044655374682,5.35423077518609));
#168=CARTESIAN_POINT('Ctrl Pts',(-250.,35.0500359422571,5.34859087814713));
#169=CARTESIAN_POINT('Ctrl Pts',(-250.,34.1910036249576,5.34334150009717));
#170=CARTESIAN_POINT('Ctrl Pts',(-250.,33.3330639818938,5.33771492555939));
#171=CARTESIAN_POINT('Ctrl Pts',(-250.,32.4814463322711,5.33087231037119));
#172=CARTESIAN_POINT('Ctrl Pts',(-250.,31.639262851883,5.32198958954912));
#173=CARTESIAN_POINT('Ctrl Pts',(-250.,30.8075374496356,5.31032510599701));
#174=CARTESIAN_POINT('Ctrl Pts',(-250.,29.9855230770829,5.29528171941948));
#175=CARTESIAN_POINT('Ctrl Pts',(-250.,29.1708938851253,5.27647604586978));
#176=CARTESIAN_POINT('Ctrl Pts',(-250.,28.3600445313778,5.2537930262983));
#177=CARTESIAN_POINT('Ctrl Pts',(-250.,27.5482047790591,5.22747648110102));
#178=CARTESIAN_POINT('Ctrl Pts',(-250.,26.7303376781638,5.19804976499451));
#179=CARTESIAN_POINT('Ctrl Pts',(-250.,25.9023440714719,5.166158479237));
#180=CARTESIAN_POINT('Ctrl Pts',(-250.,25.0622740850424,5.13243236605935));
#181=CARTESIAN_POINT('Ctrl Pts',(-250.,24.2113069464086,5.09735138842431));
#182=CARTESIAN_POINT('Ctrl Pts',(-250.,23.3553945855176,5.0610800696914));
#183=CARTESIAN_POINT('Ctrl Pts',(-250.,22.5043518642425,5.02343706089392));
#184=CARTESIAN_POINT('Ctrl Pts',(-250.,21.6686932969084,4.98399249308371));
#185=CARTESIAN_POINT('Ctrl Pts',(-250.,20.8569446692448,4.94212825899269));
#186=CARTESIAN_POINT('Ctrl Pts',(-250.,20.0730882172598,4.89711661535463));
#187=CARTESIAN_POINT('Ctrl Pts',(-250.,19.3131623353332,4.84818330460361));
#188=CARTESIAN_POINT('Ctrl Pts',(-250.,18.5648196549222,4.79460154818427));
#189=CARTESIAN_POINT('Ctrl Pts',(-250.,17.8129398290381,4.73583104313079));
#190=CARTESIAN_POINT('Ctrl Pts',(-250.,17.044284160226,4.67166237607007));
#191=CARTESIAN_POINT('Ctrl Pts',(-250.,16.2518739008494,4.60232847047426));
#192=CARTESIAN_POINT('Ctrl Pts',(-250.,15.4411027938489,4.52870580882554));
#193=CARTESIAN_POINT('Ctrl Pts',(-250.,14.6283824118657,4.45216299070979));
#194=CARTESIAN_POINT('Ctrl Pts',(-250.,13.8337345695458,4.37413034454995));
#195=CARTESIAN_POINT('Ctrl Pts',(-250.,13.0747271133147,4.295727392112));
#196=CARTESIAN_POINT('Ctrl Pts',(-250.,12.3607020274554,4.21741377897682));
#197=CARTESIAN_POINT('Ctrl Pts',(-250.,11.684766421589,4.13851200426589));
#198=CARTESIAN_POINT('Ctrl Pts',(-250.,11.0268149800082,4.05734435664727));
#199=CARTESIAN_POINT('Ctrl Pts',(-250.,10.3639492753858,3.97176665523074));
#200=CARTESIAN_POINT('Ctrl Pts',(-250.,9.67785917615953,3.87955934600254));
#201=CARTESIAN_POINT('Ctrl Pts',(-250.,8.96526704395129,3.77892790657125));
#202=CARTESIAN_POINT('Ctrl Pts',(-250.,8.24113485335753,3.66878971812789));
#203=CARTESIAN_POINT('Ctrl Pts',(-250.,7.52762670880682,3.54864670627642));
#204=CARTESIAN_POINT('Ctrl Pts',(-250.,6.84570901484165,3.41855441047614));
#205=CARTESIAN_POINT('Ctrl Pts',(-250.,6.20629004422304,3.27902581335));
#206=CARTESIAN_POINT('Ctrl Pts',(-250.,5.60000307799049,3.1310352218835));
#207=CARTESIAN_POINT('Ctrl Pts',(-250.,5.00553177684148,2.97508761188049));
#208=CARTESIAN_POINT('Ctrl Pts',(-250.,4.40089970145497,2.81010470065965));
#209=CARTESIAN_POINT('Ctrl Pts',(-250.,3.77318857199613,2.63248309018973));
#210=CARTESIAN_POINT('Ctrl Pts',(-250.,3.13025699885565,2.43479632496655));
#211=CARTESIAN_POINT('Ctrl Pts',(-250.,2.49458278573994,2.20849709535952));
#212=CARTESIAN_POINT('Ctrl Pts',(-250.,1.89470238944398,1.94733881246279));
#213=CARTESIAN_POINT('Ctrl Pts',(-250.,1.35807117628186,1.65010460110974));
#214=CARTESIAN_POINT('Ctrl Pts',(-250.,0.901902358595871,1.32471489463747));
#215=CARTESIAN_POINT('Ctrl Pts',(-250.,0.534137351984283,0.984886851441656));
#216=CARTESIAN_POINT('Ctrl Pts',(-250.,0.257257234630324,0.645028110492807));
#217=CARTESIAN_POINT('Ctrl Pts',(-250.,0.108665737111606,0.380813807648797));
#218=CARTESIAN_POINT('Ctrl Pts',(-250.,0.0383479513676968,0.18822331909004));
#219=CARTESIAN_POINT('Ctrl Pts',(-250.,0.00973761543283685,0.0623258647802463));
#220=CARTESIAN_POINT('Ctrl Pts',(-250.,0.,-3.08086889333481E-14));
#221=CARTESIAN_POINT('Ctrl Pts',(-250.,130.,0.));
#222=CARTESIAN_POINT('Ctrl Pts',(-250.,129.94570980101,-0.0291360314206202));
#223=CARTESIAN_POINT('Ctrl Pts',(-250.,129.828364637852,-0.0867641364328264));
#224=CARTESIAN_POINT('Ctrl Pts',(-250.,129.62604878301,-0.17127348451254));
#225=CARTESIAN_POINT('Ctrl Pts',(-250.,129.303727661386,-0.280094864983802));
#226=CARTESIAN_POINT('Ctrl Pts',(-250.,128.816676553762,-0.410393151204289));
#227=CARTESIAN_POINT('Ctrl Pts',(-250.,128.256536789996,-0.537226474851593));
#228=CARTESIAN_POINT('Ctrl Pts',(-250.,127.643846388927,-0.664726033724818));
#229=CARTESIAN_POINT('Ctrl Pts',(-250.,127.002110133114,-0.797082685657955));
#230=CARTESIAN_POINT('Ctrl Pts',(-250.,126.35293750759,-0.937191365253831));
#231=CARTESIAN_POINT('Ctrl Pts',(-250.,125.70983055605,-1.08486070992985));
#232=CARTESIAN_POINT('Ctrl Pts',(-250.,125.074681479573,-1.23598746037565));
#233=CARTESIAN_POINT('Ctrl Pts',(-250.,124.443396648775,-1.38507469016361));
#234=CARTESIAN_POINT('Ctrl Pts',(-250.,123.810111463693,-1.52723122028629));
#235=CARTESIAN_POINT('Ctrl Pts',(-250.,123.17196729752,-1.66037788192444));
#236=CARTESIAN_POINT('Ctrl Pts',(-250.,122.53362142159,-1.78735736279581));
#237=CARTESIAN_POINT('Ctrl Pts',(-250.,121.90275313405,-1.913786412055));
#238=CARTESIAN_POINT('Ctrl Pts',(-250.,121.285327797087,-2.0458270028589));
#239=CARTESIAN_POINT('Ctrl Pts',(-250.,120.681343834001,-2.18811672279937));
#240=CARTESIAN_POINT('Ctrl Pts',(-250.,120.079360829768,-2.34130202460449));
#241=CARTESIAN_POINT('Ctrl Pts',(-250.,119.461697724017,-2.50292849011895));
#242=CARTESIAN_POINT('Ctrl Pts',(-250.,118.811967124599,-2.66895948754854));
#243=CARTESIAN_POINT('Ctrl Pts',(-250.,118.120924038391,-2.83499799098454));
#244=CARTESIAN_POINT('Ctrl Pts',(-250.,117.395153908042,-2.99782174327291));
#245=CARTESIAN_POINT('Ctrl Pts',(-250.,116.653512070995,-3.15580104872449));
#246=CARTESIAN_POINT('Ctrl Pts',(-250.,115.917808176677,-3.30880197016306));
#247=CARTESIAN_POINT('Ctrl Pts',(-250.,115.205150707876,-3.45825960649154));
#248=CARTESIAN_POINT('Ctrl Pts',(-250.,114.519934326707,-3.60716012756164));
#249=CARTESIAN_POINT('Ctrl Pts',(-250.,113.845080291137,-3.7601197085166));
#250=CARTESIAN_POINT('Ctrl Pts',(-250.,113.150723274552,-3.92229761277655));
#251=CARTESIAN_POINT('Ctrl Pts',(-250.,112.404436700915,-4.09820507553079));
#252=CARTESIAN_POINT('Ctrl Pts',(-250.,111.58058648144,-4.29059536202974));
#253=CARTESIAN_POINT('Ctrl Pts',(-250.,110.670771150602,-4.49921750100472));
#254=CARTESIAN_POINT('Ctrl Pts',(-250.,109.691709495432,-4.7199240373897));
#255=CARTESIAN_POINT('Ctrl Pts',(-250.,108.675242753022,-4.94631372043887));
#256=CARTESIAN_POINT('Ctrl Pts',(-250.,107.660054543085,-5.1711314973085));
#257=CARTESIAN_POINT('Ctrl Pts',(-250.,106.682849875047,-5.38774113969204));
#258=CARTESIAN_POINT('Ctrl Pts',(-250.,105.769502260702,-5.59161288034886));
#259=CARTESIAN_POINT('Ctrl Pts',(-250.,104.926828325906,-5.78169730320752));
#260=CARTESIAN_POINT('Ctrl Pts',(-250.,104.132450368721,-5.96213542947631));
#261=CARTESIAN_POINT('Ctrl Pts',(-250.,103.343996743062,-6.14058667657474));
#262=CARTESIAN_POINT('Ctrl Pts',(-250.,102.510896229322,-6.32610424999566));
#263=CARTESIAN_POINT('Ctrl Pts',(-250.,101.585422161676,-6.52714005022517));
#264=CARTESIAN_POINT('Ctrl Pts',(-250.,100.533669985997,-6.74956478411737));
#265=CARTESIAN_POINT('Ctrl Pts',(-250.,99.347475435923,-6.99451517499472));
#266=CARTESIAN_POINT('Ctrl Pts',(-250.,98.0532522097438,-7.25680362215957));
#267=CARTESIAN_POINT('Ctrl Pts',(-250.,96.7001630711561,-7.52709769162045));
#268=CARTESIAN_POINT('Ctrl Pts',(-250.,95.3506083094453,-7.79367670069831));
#269=CARTESIAN_POINT('Ctrl Pts',(-250.,94.0697090794951,-8.04437227760335));
#270=CARTESIAN_POINT('Ctrl Pts',(-250.,92.9154851138884,-8.26838074650951));
#271=CARTESIAN_POINT('Ctrl Pts',(-250.,91.9281183327592,-8.45824584297876));
#272=CARTESIAN_POINT('Ctrl Pts',(-250.,91.121040260695,-8.61150041337364));
#273=CARTESIAN_POINT('Ctrl Pts',(-250.,90.4677028719305,-8.73311588024102));
#274=CARTESIAN_POINT('Ctrl Pts',(-250.,89.903327675346,-8.83514802031094));
#275=CARTESIAN_POINT('Ctrl Pts',(-250.,89.346381126477,-8.9326877268293));
#276=CARTESIAN_POINT('Ctrl Pts',(-250.,88.7141491730184,-9.04092024347413));
#277=CARTESIAN_POINT('Ctrl Pts',(-250.,87.9427641943334,-9.17134198526135));
#278=CARTESIAN_POINT('Ctrl Pts',(-250.,86.9987300485853,-9.32959620643203));
#279=CARTESIAN_POINT('Ctrl Pts',(-250.,85.8717768225572,-9.51687155289036));
#280=CARTESIAN_POINT('Ctrl Pts',(-250.,84.5712386463806,-9.73062797211988));
#281=CARTESIAN_POINT('Ctrl Pts',(-250.,83.121039972102,-9.96558835377321));
#282=CARTESIAN_POINT('Ctrl Pts',(-250.,81.5552894125272,-10.2146140962485));
#283=CARTESIAN_POINT('Ctrl Pts',(-250.,79.9135947620382,-10.4696341148541));
#284=CARTESIAN_POINT('Ctrl Pts',(-250.,78.2365486215687,-10.7225408665513));
#285=CARTESIAN_POINT('Ctrl Pts',(-250.,76.5610259485707,-10.9661233466132));
#286=CARTESIAN_POINT('Ctrl Pts',(-250.,74.9158913772418,-11.1949190377734));
#287=CARTESIAN_POINT('Ctrl Pts',(-250.,73.3230121004622,-11.4050141269698));
#288=CARTESIAN_POINT('Ctrl Pts',(-250.,71.7979475960787,-11.5939078281438));
#289=CARTESIAN_POINT('Ctrl Pts',(-250.,70.3507598039981,-11.7603528853502));
#290=CARTESIAN_POINT('Ctrl Pts',(-250.,68.9867702521188,-11.9042065531791));
#291=CARTESIAN_POINT('Ctrl Pts',(-250.,67.707339052605,-12.0262774580769));
#292=CARTESIAN_POINT('Ctrl Pts',(-250.,66.5106320145272,-12.1281744253717));
#293=CARTESIAN_POINT('Ctrl Pts',(-250.,65.3923946970078,-12.2121549558309));
#294=CARTESIAN_POINT('Ctrl Pts',(-250.,64.3467159527681,-12.2809734877319));
#295=CARTESIAN_POINT('Ctrl Pts',(-250.,63.3668137195555,-12.3377314490421));
#296=CARTESIAN_POINT('Ctrl Pts',(-250.,62.4447688129094,-12.3856477173669));
#297=CARTESIAN_POINT('Ctrl Pts',(-250.,61.5712442951533,-12.4278290221455));
#298=CARTESIAN_POINT('Ctrl Pts',(-250.,60.7351954731119,-12.4670372806766));
#299=CARTESIAN_POINT('Ctrl Pts',(-250.,59.9236156927461,-12.5054651193858));
#300=CARTESIAN_POINT('Ctrl Pts',(-250.,59.1211893314145,-12.5444911790141));
#301=CARTESIAN_POINT('Ctrl Pts',(-250.,58.3102104914059,-12.5844923897449));
#302=CARTESIAN_POINT('Ctrl Pts',(-250.,57.4726394571005,-12.6251010663223));
#303=CARTESIAN_POINT('Ctrl Pts',(-250.,56.5919064141103,-12.6654158336776));
#304=CARTESIAN_POINT('Ctrl Pts',(-250.,55.6549067889758,-12.7042364658375));
#305=CARTESIAN_POINT('Ctrl Pts',(-250.,54.6536996937823,-12.7402738459368));
#306=CARTESIAN_POINT('Ctrl Pts',(-250.,53.5878752418067,-12.7724070357968));
#307=CARTESIAN_POINT('Ctrl Pts',(-250.,52.4642325515204,-12.7997577328877));
#308=CARTESIAN_POINT('Ctrl Pts',(-250.,51.2945721189438,-12.8216374331877));
#309=CARTESIAN_POINT('Ctrl Pts',(-250.,50.0940369945523,-12.8375319228717));
#310=CARTESIAN_POINT('Ctrl Pts',(-250.,48.8792458787313,-12.8470707651687));
#311=CARTESIAN_POINT('Ctrl Pts',(-250.,47.6664767854689,-12.8500025124133));
#312=CARTESIAN_POINT('Ctrl Pts',(-250.,46.4699203661098,-12.8461692458309));
#313=CARTESIAN_POINT('Ctrl Pts',(-250.,45.2996829271215,-12.8354772193534));
#314=CARTESIAN_POINT('Ctrl Pts',(-250.,44.1605885683196,-12.8178824368164));
#315=CARTESIAN_POINT('Ctrl Pts',(-250.,43.0534636529006,-12.79342302246));
#316=CARTESIAN_POINT('Ctrl Pts',(-250.,41.975994124493,-12.7622443412271));
#317=CARTESIAN_POINT('Ctrl Pts',(-250.,40.9237410637974,-12.7246251601086));
#318=CARTESIAN_POINT('Ctrl Pts',(-250.,39.8911090842802,-12.6810076316211));
#319=CARTESIAN_POINT('Ctrl Pts',(-250.,38.8722855684663,-12.6320158393496));
#320=CARTESIAN_POINT('Ctrl Pts',(-250.,37.8623107721416,-12.5785030992071));
#321=CARTESIAN_POINT('Ctrl Pts',(-250.,36.8577055826853,-12.5215095410076));
#322=CARTESIAN_POINT('Ctrl Pts',(-250.,35.8560270980414,-12.4620066522603));
#323=CARTESIAN_POINT('Ctrl Pts',(-250.,34.8556338274972,-12.4006817462778));
#324=CARTESIAN_POINT('Ctrl Pts',(-250.,33.8553717768953,-12.3377105795946));
#325=CARTESIAN_POINT('Ctrl Pts',(-250.,32.8542852999455,-12.272525545624));
#326=CARTESIAN_POINT('Ctrl Pts',(-250.,31.8513390225899,-12.2036076195603));
#327=CARTESIAN_POINT('Ctrl Pts',(-250.,30.8450766712753,-12.1282084856757));
#328=CARTESIAN_POINT('Ctrl Pts',(-250.,29.8341446255354,-12.0429492790842));
#329=CARTESIAN_POINT('Ctrl Pts',(-250.,28.8179235576486,-11.9445244785299));
#330=CARTESIAN_POINT('Ctrl Pts',(-250.,27.7970946189213,-11.8303466174421));
#331=CARTESIAN_POINT('Ctrl Pts',(-250.,26.7742940498594,-11.6992646040108));
#332=CARTESIAN_POINT('Ctrl Pts',(-250.,25.754589670052,-11.5521380209231));
#333=CARTESIAN_POINT('Ctrl Pts',(-250.,24.7463785428176,-11.392749583087));
#334=CARTESIAN_POINT('Ctrl Pts',(-250.,23.7608708268081,-11.2275848624073));
#335=CARTESIAN_POINT('Ctrl Pts',(-250.,22.8094291798733,-11.0639010181983));
#336=CARTESIAN_POINT('Ctrl Pts',(-250.,21.9014934784522,-10.9082544129119));
#337=CARTESIAN_POINT('Ctrl Pts',(-250.,21.0421162533546,-10.7647388282935));
#338=CARTESIAN_POINT('Ctrl Pts',(-250.,20.230014966773,-10.6335865153802));
#339=CARTESIAN_POINT('Ctrl Pts',(-250.,19.4545464199148,-10.5090299799436));
#340=CARTESIAN_POINT('Ctrl Pts',(-250.,18.6960789998167,-10.3794815960142));
#341=CARTESIAN_POINT('Ctrl Pts',(-250.,17.9320582506705,-10.2315835940742));
#342=CARTESIAN_POINT('Ctrl Pts',(-250.,17.1419359134022,-10.0534970142527));
#343=CARTESIAN_POINT('Ctrl Pts',(-250.,16.3122316106364,-9.83825195706146));
#344=CARTESIAN_POINT('Ctrl Pts',(-250.,15.4423087275896,-9.5876534834618));
#345=CARTESIAN_POINT('Ctrl Pts',(-250.,14.5474460485828,-9.31413428816619));
#346=CARTESIAN_POINT('Ctrl Pts',(-250.,13.6523680007515,-9.03530104561085));
#347=CARTESIAN_POINT('Ctrl Pts',(-250.,12.7864492382632,-8.7698412308464));
#348=CARTESIAN_POINT('Ctrl Pts',(-250.,11.9780842342346,-8.53259334050549));
#349=CARTESIAN_POINT('Ctrl Pts',(-250.,11.2498221618927,-8.33066803719227));
#350=CARTESIAN_POINT('Ctrl Pts',(-250.,10.612157515973,-8.15737904009385));
#351=CARTESIAN_POINT('Ctrl Pts',(-250.,10.0621494609563,-7.99477329775865));
#352=CARTESIAN_POINT('Ctrl Pts',(-250.,9.58511960555452,-7.82339939388244));
#353=CARTESIAN_POINT('Ctrl Pts',(-250.,9.15632366678549,-7.62891098588533));
#354=CARTESIAN_POINT('Ctrl Pts',(-250.,8.74059288730771,-7.41252322422604));
#355=CARTESIAN_POINT('Ctrl Pts',(-250.,8.30272780090215,-7.18661261621872));
#356=CARTESIAN_POINT('Ctrl Pts',(-250.,7.82029125482578,-6.96501411791154));
#357=CARTESIAN_POINT('Ctrl Pts',(-250.,7.30031058571709,-6.75298369013305));
#358=CARTESIAN_POINT('Ctrl Pts',(-250.,6.7774587255429,-6.54451491710674));
#359=CARTESIAN_POINT('Ctrl Pts',(-250.,6.28809150321064,-6.32997195339946));
#360=CARTESIAN_POINT('Ctrl Pts',(-250.,5.8520101584946,-6.10070530319121));
#361=CARTESIAN_POINT('Ctrl Pts',(-250.,5.44751241644699,-5.85562924302412));
#362=CARTESIAN_POINT('Ctrl Pts',(-250.,5.03467080665156,-5.59748543742309));
#363=CARTESIAN_POINT('Ctrl Pts',(-250.,4.57958121691029,-5.32890284237812));
#364=CARTESIAN_POINT('Ctrl Pts',(-250.,4.08517969743341,-5.04730001707127));
#365=CARTESIAN_POINT('Ctrl Pts',(-250.,3.58486137363038,-4.74636963448869));
#366=CARTESIAN_POINT('Ctrl Pts',(-250.,3.11685644007895,-4.42099660154987));
#367=CARTESIAN_POINT('Ctrl Pts',(-250.,2.70490205111262,-4.07100754931658));
#368=CARTESIAN_POINT('Ctrl Pts',(-250.,2.33579466723029,-3.70559796326965));
#369=CARTESIAN_POINT('Ctrl Pts',(-250.,1.98122723142426,-3.33649746289854));
#370=CARTESIAN_POINT('Ctrl Pts',(-250.,1.61625139789706,-2.97237833022994));
#371=CARTESIAN_POINT('Ctrl Pts',(-250.,1.24522722514277,-2.61034205725618));
#372=CARTESIAN_POINT('Ctrl Pts',(-250.,0.898840546208775,-2.23875354487877));
#373=CARTESIAN_POINT('Ctrl Pts',(-250.,0.611174270560603,-1.84757207236558));
#374=CARTESIAN_POINT('Ctrl Pts',(-250.,0.399520076128415,-1.43824984472229));
#375=CARTESIAN_POINT('Ctrl Pts',(-250.,0.251915114351455,-1.02876462507052));
#376=CARTESIAN_POINT('Ctrl Pts',(-250.,0.145518001067819,-0.64169800168056));
#377=CARTESIAN_POINT('Ctrl Pts',(-250.,0.0785335870995385,-0.363190796303847));
#378=CARTESIAN_POINT('Ctrl Pts',(-250.,0.0362294362163351,-0.17393107394728));
#379=CARTESIAN_POINT('Ctrl Pts',(-250.,0.0114960758366539,-0.056518493710449));
#380=CARTESIAN_POINT('Ctrl Pts',(-250.,0.,0.));
#381=CARTESIAN_POINT('Ctrl Pts',(-250.,130.,0.));
#382=CARTESIAN_POINT('Ctrl Pts',(-250.,130.,1.03304747077751E-14));
#383=CARTESIAN_POINT('Ctrl Pts',(-250.,130.,6.09117299924349E-17));
#384=CARTESIAN_POINT('Ctrl Pts',(-250.,130.,-3.08086889333481E-14));
#385=CARTESIAN_POINT('Ctrl Pts',(-250.,129.825940955999,-0.0934126208666508));
#386=CARTESIAN_POINT('Ctrl Pts',(-250.819061887018,129.973532522013,-0.0041260676426242));
#387=CARTESIAN_POINT('Ctrl Pts',(-250.819061887018,129.892757432419,0.030492423885202));
#388=CARTESIAN_POINT('Ctrl Pts',(-250.,129.598649384953,0.0028874195288686));
#389=CARTESIAN_POINT('Ctrl Pts',(-250.,129.375474967306,-0.274749075939969));
#390=CARTESIAN_POINT('Ctrl Pts',(-252.424134366226,129.844165480742,-0.00203783566599489));
#391=CARTESIAN_POINT('Ctrl Pts',(-252.424134366226,129.635387649621,0.0912953250854797));
#392=CARTESIAN_POINT('Ctrl Pts',(-250.,128.737197183775,0.0121204039608994));
#393=CARTESIAN_POINT('Ctrl Pts',(-250.,128.019857858438,-0.594116898388301));
#394=CARTESIAN_POINT('Ctrl Pts',(-255.502290026543,129.451075119167,-0.0174100880410943));
#395=CARTESIAN_POINT('Ctrl Pts',(-255.502290026543,129.036226736058,0.196602548223773));
#396=CARTESIAN_POINT('Ctrl Pts',(-250.,126.786948299613,0.0410333191484899));
#397=CARTESIAN_POINT('Ctrl Pts',(-250.,125.882077998212,-1.02775483759173));
#398=CARTESIAN_POINT('Ctrl Pts',(-259.102631008609,128.586732061342,-0.0341177623011436));
#399=CARTESIAN_POINT('Ctrl Pts',(-259.102631008609,127.94749378995,0.34031720396825));
#400=CARTESIAN_POINT('Ctrl Pts',(-250.,123.960432365623,0.0990988993411096));
#401=CARTESIAN_POINT('Ctrl Pts',(-250.,123.472116247468,-1.62528104748651));
#402=CARTESIAN_POINT('Ctrl Pts',(-263.031107440223,126.896248949725,-0.0491306880063919));
#403=CARTESIAN_POINT('Ctrl Pts',(-263.031107440223,125.907590231266,0.538475704489915));
#404=CARTESIAN_POINT('Ctrl Pts',(-249.999999999999,120.507014818655,0.137038257779929));
#405=CARTESIAN_POINT('Ctrl Pts',(-250.,121.016148064546,-2.06774149326796));
#406=CARTESIAN_POINT('Ctrl Pts',(-266.577543375397,124.399665683701,-0.0686130724007172));
#407=CARTESIAN_POINT('Ctrl Pts',(-266.577543375397,123.263597927704,0.684893286768501));
#408=CARTESIAN_POINT('Ctrl Pts',(-250.,117.60799122405,0.191790346420514));
#409=CARTESIAN_POINT('Ctrl Pts',(-250.,118.764762151952,-2.71102946766558));
#410=CARTESIAN_POINT('Ctrl Pts',(-269.760744189621,121.438309658463,-0.101038064322495));
#411=CARTESIAN_POINT('Ctrl Pts',(-269.760744189621,120.033565864564,0.89773732367022));
#412=CARTESIAN_POINT('Ctrl Pts',(-250.,114.552143444757,0.288179080500005));
#413=CARTESIAN_POINT('Ctrl Pts',(-250.,116.291312704734,-3.23152797363066));
#414=CARTESIAN_POINT('Ctrl Pts',(-272.135686967143,118.9444694685,-0.118734044585661));
#415=CARTESIAN_POINT('Ctrl Pts',(-272.135686967143,117.212461970055,1.07066189215876));
#416=CARTESIAN_POINT('Ctrl Pts',(-250.,111.090489263815,0.335042060498764));
#417=CARTESIAN_POINT('Ctrl Pts',(-250.,114.508641552778,-3.60696779119318));
#418=CARTESIAN_POINT('Ctrl Pts',(-273.891742753084,116.712008652766,-0.143249290721736));
#419=CARTESIAN_POINT('Ctrl Pts',(-273.891742753084,114.714053998128,1.19354059692077));
#420=CARTESIAN_POINT('Ctrl Pts',(-249.999999999999,108.516957469044,0.40136563518477));
#421=CARTESIAN_POINT('Ctrl Pts',(-250.,113.218459606868,-3.90673456472915));
#422=CARTESIAN_POINT('Ctrl Pts',(-275.144336439716,114.909910733763,-0.166474421622618));
#423=CARTESIAN_POINT('Ctrl Pts',(-275.144336439716,112.769492439884,1.29365501844183));
#424=CARTESIAN_POINT('Ctrl Pts',(-250.,106.794715286256,0.472622020805946));
#425=CARTESIAN_POINT('Ctrl Pts',(-250.,111.740218770055,-4.25545870624637));
#426=CARTESIAN_POINT('Ctrl Pts',(-276.340247255226,112.994024157229,-0.197687849216124));
#427=CARTESIAN_POINT('Ctrl Pts',(-276.340247255225,110.820652326349,1.40856926305236));
#428=CARTESIAN_POINT('Ctrl Pts',(-249.999999999999,105.220675285153,0.561954873618896));
#429=CARTESIAN_POINT('Ctrl Pts',(-250.,109.323863184519,-4.80658095731285));
#430=CARTESIAN_POINT('Ctrl Pts',(-277.870997134831,110.363419095058,-0.243321559102795));
#431=CARTESIAN_POINT('Ctrl Pts',(-277.87099713483,108.305611968585,1.59113565531061));
#432=CARTESIAN_POINT('Ctrl Pts',(-249.999999999999,103.146074618261,0.695410911487061));
#433=CARTESIAN_POINT('Ctrl Pts',(-250.,105.902895638229,-5.55573254271743));
#434=CARTESIAN_POINT('Ctrl Pts',(-279.687300130843,107.022160715333,-0.310984872439596));
#435=CARTESIAN_POINT('Ctrl Pts',(-279.687300130843,105.188395129989,1.83924200300727));
#436=CARTESIAN_POINT('Ctrl Pts',(-249.999999999999,100.408228108965,0.895021018006049));
#437=CARTESIAN_POINT('Ctrl Pts',(-250.,103.551288607792,-6.09848404356957));
#438=CARTESIAN_POINT('Ctrl Pts',(-281.435322773871,103.606634157551,-0.409214809138222));
#439=CARTESIAN_POINT('Ctrl Pts',(-281.435322773872,101.621128526134,2.01868158127517));
#440=CARTESIAN_POINT('Ctrl Pts',(-250.,97.5999222440818,1.18550074933941));
#441=CARTESIAN_POINT('Ctrl Pts',(-250.,101.243053287704,-6.60284331891195));
#442=CARTESIAN_POINT('Ctrl Pts',(-282.826723786845,100.896963743465,-0.491353609342424));
#443=CARTESIAN_POINT('Ctrl Pts',(-282.826723786845,98.8619650182238,2.18495250815849));
#444=CARTESIAN_POINT('Ctrl Pts',(-250.,95.1385971212682,1.42548121495267));
#445=CARTESIAN_POINT('Ctrl Pts',(-250.,98.2260917989637,-7.22742899890778));
#446=CARTESIAN_POINT('Ctrl Pts',(-284.222564440496,98.2299478398387,-0.568990238440213));
#447=CARTESIAN_POINT('Ctrl Pts',(-284.222564440496,96.3201523582567,2.39202605034622));
#448=CARTESIAN_POINT('Ctrl Pts',(-250.,92.5040778413272,1.6564165859344));
#449=CARTESIAN_POINT('Ctrl Pts',(-250.,94.4943671410471,-7.96382560563005));
#450=CARTESIAN_POINT('Ctrl Pts',(-285.638921117281,95.5530264937568,-0.648789821667914));
#451=CARTESIAN_POINT('Ctrl Pts',(-285.638921117281,93.975861988385,2.63500135028929));
#452=CARTESIAN_POINT('Ctrl Pts',(-250.,89.7584262969694,1.88639772370321));
#453=CARTESIAN_POINT('Ctrl Pts',(-250.,91.7762225966428,-8.48816769886965));
#454=CARTESIAN_POINT('Ctrl Pts',(-287.09241109196,92.7988605024133,-0.737348273431885));
#455=CARTESIAN_POINT('Ctrl Pts',(-287.09241109196,91.2700875891096,2.80840281302214));
#456=CARTESIAN_POINT('Ctrl Pts',(-250.,87.1938471005376,2.14915915362769));
#457=CARTESIAN_POINT('Ctrl Pts',(-250.,90.4232522802933,-8.74262407135088));
#458=CARTESIAN_POINT('Ctrl Pts',(-288.202019597018,90.6921407468997,-0.808370116659306));
#459=CARTESIAN_POINT('Ctrl Pts',(-288.202019597018,88.997504309388,2.89225794835323));
#460=CARTESIAN_POINT('Ctrl Pts',(-250.,85.3385612403186,2.35872966956247));
#461=CARTESIAN_POINT('Ctrl Pts',(-250.,89.4107168627791,-8.92249912992497));
#462=CARTESIAN_POINT('Ctrl Pts',(-289.331038119268,88.5655922029663,-0.880184437754815));
#463=CARTESIAN_POINT('Ctrl Pts',(-289.331038119268,86.5950648919438,2.95149841387597));
#464=CARTESIAN_POINT('Ctrl Pts',(-250.,83.5023364958776,2.57258336272375));
#465=CARTESIAN_POINT('Ctrl Pts',(-250.,88.1246990666366,-9.14121049012943));
#466=CARTESIAN_POINT('Ctrl Pts',(-290.476555685432,86.4270745886464,-0.951242111944663));
#467=CARTESIAN_POINT('Ctrl Pts',(-290.476555685432,84.2644354145201,3.02350409014302));
#468=CARTESIAN_POINT('Ctrl Pts',(-250.,81.6371057611082,2.78266611074141));
#469=CARTESIAN_POINT('Ctrl Pts',(-250.,86.1949277884141,-9.46417821108634));
#470=CARTESIAN_POINT('Ctrl Pts',(-291.634054584712,84.2776749365145,-1.02000737452456));
#471=CARTESIAN_POINT('Ctrl Pts',(-291.634054584711,82.1245880892626,3.1302182190592));
#472=CARTESIAN_POINT('Ctrl Pts',(-250.,79.7399285035247,2.98673258526572));
#473=CARTESIAN_POINT('Ctrl Pts',(-250.,82.7391692230991,-10.031441157654));
#474=CARTESIAN_POINT('Ctrl Pts',(-293.184204676523,81.3788182044296,-1.1106983334667));
#475=CARTESIAN_POINT('Ctrl Pts',(-293.184204676522,79.5304826385924,3.31745440744682));
#476=CARTESIAN_POINT('Ctrl Pts',(-250.,77.1930080947574,3.2522740808048));
#477=CARTESIAN_POINT('Ctrl Pts',(-250.,77.2446062397453,-10.8913794516828));
#478=CARTESIAN_POINT('Ctrl Pts',(-295.115594207317,77.6704064260133,-1.22108714656177));
#479=CARTESIAN_POINT('Ctrl Pts',(-295.115594207316,76.6042649466161,3.60206657820197));
#480=CARTESIAN_POINT('Ctrl Pts',(-249.999999999999,74.0477735842092,3.57827808291858));
#481=CARTESIAN_POINT('Ctrl Pts',(-250.,71.0093442318936,-11.7174863029252));
#482=CARTESIAN_POINT('Ctrl Pts',(-297.34514060807,73.0491172498759,-1.350809793332));
#483=CARTESIAN_POINT('Ctrl Pts',(-297.34514060807,72.8263409447339,3.87493130341091));
#484=CARTESIAN_POINT('Ctrl Pts',(-250.000000000001,70.3434979298978,3.959611826272));
#485=CARTESIAN_POINT('Ctrl Pts',(-250.,66.0491757409905,-12.1908095562429));
#486=CARTESIAN_POINT('Ctrl Pts',(-299.396285462086,68.2584500912254,-1.46512716470824));
#487=CARTESIAN_POINT('Ctrl Pts',(-299.396285462086,68.4494512810581,4.03107968332244));
#488=CARTESIAN_POINT('Ctrl Pts',(-250.,66.6214680645367,4.29733671828832));
#489=CARTESIAN_POINT('Ctrl Pts',(-250.,62.2441385932644,-12.4005067812466));
#490=CARTESIAN_POINT('Ctrl Pts',(-301.176149706283,63.2507049086072,-1.55509751439636));
#491=CARTESIAN_POINT('Ctrl Pts',(-301.176149706284,63.5018119199784,4.10017788930224));
#492=CARTESIAN_POINT('Ctrl Pts',(-250.,62.9994368973582,4.56567593766453));
#493=CARTESIAN_POINT('Ctrl Pts',(-249.999999999999,59.178468129884,-12.5376566188056));
#494=CARTESIAN_POINT('Ctrl Pts',(-302.59681896504,57.8530912121939,-1.63695259002843));
#495=CARTESIAN_POINT('Ctrl Pts',(-302.596818965041,58.1144276722289,4.14503275853049));
#496=CARTESIAN_POINT('Ctrl Pts',(-250.,59.9641276528291,4.80811833981748));
#497=CARTESIAN_POINT('Ctrl Pts',(-250.,56.0143997716305,-12.7023208668521));
#498=CARTESIAN_POINT('Ctrl Pts',(-303.584133091097,52.2616109565077,-1.70505963510365));
#499=CARTESIAN_POINT('Ctrl Pts',(-303.584133091097,52.5890988718714,4.1991353264674));
#500=CARTESIAN_POINT('Ctrl Pts',(-250.,57.0021590035771,5.01082657272962));
#501=CARTESIAN_POINT('Ctrl Pts',(-250.,51.8090127017325,-12.8279441863255));
#502=CARTESIAN_POINT('Ctrl Pts',(-304.086676488174,46.6918561986182,-1.75758969639932));
#503=CARTESIAN_POINT('Ctrl Pts',(-304.086676488174,47.2880362982104,4.24068394550597));
#504=CARTESIAN_POINT('Ctrl Pts',(-250.,53.6002999512178,5.16668116388168));
#505=CARTESIAN_POINT('Ctrl Pts',(-250.,47.0191385824442,-12.8639505521221));
#506=CARTESIAN_POINT('Ctrl Pts',(-304.079931606575,41.0226467695322,-1.80351923550608));
#507=CARTESIAN_POINT('Ctrl Pts',(-304.079931606575,42.1477137706529,4.25224945980767));
#508=CARTESIAN_POINT('Ctrl Pts',(-250.,50.3949475565908,5.30373136074147));
#509=CARTESIAN_POINT('Ctrl Pts',(-250.,42.6194917226433,-12.7988979654831));
#510=CARTESIAN_POINT('Ctrl Pts',(-303.563106855323,35.2043066053635,-1.83660134374098));
#511=CARTESIAN_POINT('Ctrl Pts',(-303.563106855323,36.9255091363039,4.23059829071432));
#512=CARTESIAN_POINT('Ctrl Pts',(-250.,47.7816374248436,5.40300240046607));
#513=CARTESIAN_POINT('Ctrl Pts',(-250.000000000001,39.3300266875692,-12.6602410733895));
#514=CARTESIAN_POINT('Ctrl Pts',(-302.721318612538,30.744698343895,-1.84675549019534));
#515=CARTESIAN_POINT('Ctrl Pts',(-302.721318612538,32.5999453950015,4.18440819013835));
#516=CARTESIAN_POINT('Ctrl Pts',(-250.,44.8971908607063,5.43321245557806));
#517=CARTESIAN_POINT('Ctrl Pts',(-250.,36.7492385952161,-12.5160269089666));
#518=CARTESIAN_POINT('Ctrl Pts',(-301.816539152577,27.3778033271709,-1.84342856856149));
#519=CARTESIAN_POINT('Ctrl Pts',(-301.816539152577,29.2733173641444,4.13691295287868));
#520=CARTESIAN_POINT('Ctrl Pts',(-250.000000000001,42.4234955167856,5.42543334119278));
#521=CARTESIAN_POINT('Ctrl Pts',(-250.000000000001,34.8254056612784,-12.3991600321822));
#522=CARTESIAN_POINT('Ctrl Pts',(-301.027156349989,24.8975506869081,-1.83848756872271));
#523=CARTESIAN_POINT('Ctrl Pts',(-301.027156349989,26.8496899432997,4.09779703756746));
#524=CARTESIAN_POINT('Ctrl Pts',(-250.,40.6807723768023,5.40815762701693));
#525=CARTESIAN_POINT('Ctrl Pts',(-250.,32.9011304519691,-12.2769586171911));
#526=CARTESIAN_POINT('Ctrl Pts',(-300.13193159009,22.4850558443291,-1.82842172041471));
#527=CARTESIAN_POINT('Ctrl Pts',(-300.13193159009,24.5321252150517,4.05815657097903));
#528=CARTESIAN_POINT('Ctrl Pts',(-250.,39.027810715984,5.38611817145186));
#529=CARTESIAN_POINT('Ctrl Pts',(-250.,30.3258956049025,-12.0952402476105));
#530=CARTESIAN_POINT('Ctrl Pts',(-298.804375158615,19.4069752780851,-1.8235835380277));
#531=CARTESIAN_POINT('Ctrl Pts',(-298.804375158615,21.5848839734272,3.99653298879139));
#532=CARTESIAN_POINT('Ctrl Pts',(-250.,36.86387068488,5.3595121088549));
#533=CARTESIAN_POINT('Ctrl Pts',(-250.,27.0664774074268,-11.7850025588137));
#534=CARTESIAN_POINT('Ctrl Pts',(-296.907536745411,15.8987185340112,-1.81323559280652));
#535=CARTESIAN_POINT('Ctrl Pts',(-296.907536745411,18.2155021996427,3.89552387744413));
#536=CARTESIAN_POINT('Ctrl Pts',(-250.,34.013620268882,5.3434049272831));
#537=CARTESIAN_POINT('Ctrl Pts',(-250.,23.108026645733,-11.1127303303353));
#538=CARTESIAN_POINT('Ctrl Pts',(-294.294791310489,12.2316525763042,-1.80585996697431));
#539=CARTESIAN_POINT('Ctrl Pts',(-294.294791310489,14.7399728673858,3.67176150954493));
#540=CARTESIAN_POINT('Ctrl Pts',(-250.,30.6328586404109,5.31772342072238));
#541=CARTESIAN_POINT('Ctrl Pts',(-250.,19.8200008441461,-10.5663412028761));
#542=CARTESIAN_POINT('Ctrl Pts',(-291.383777412123,9.06091730674962,-1.77564840203198));
#543=CARTESIAN_POINT('Ctrl Pts',(-291.383777412123,11.606151542358,3.49106729309005));
#544=CARTESIAN_POINT('Ctrl Pts',(-250.,27.4574813719629,5.23136548319544));
#545=CARTESIAN_POINT('Ctrl Pts',(-250.,17.0496967686702,-10.1047194976437));
#546=CARTESIAN_POINT('Ctrl Pts',(-288.206169036466,6.49540747921476,-1.7273813421607));
#547=CARTESIAN_POINT('Ctrl Pts',(-288.206169036466,8.85558394544305,3.33908066675637));
#548=CARTESIAN_POINT('Ctrl Pts',(-250.,24.1300566726443,5.09543353268026));
#549=CARTESIAN_POINT('Ctrl Pts',(-250.,14.0892248675297,-9.16500711192402));
#550=CARTESIAN_POINT('Ctrl Pts',(-285.357943018601,4.81715200213285,-1.68602591704004));
#551=CARTESIAN_POINT('Ctrl Pts',(-285.357943018601,7.2142610026377,3.02718207768339));
#552=CARTESIAN_POINT('Ctrl Pts',(-250.,21.2770474988753,4.97127461841414));
#553=CARTESIAN_POINT('Ctrl Pts',(-250.,11.9156231219566,-8.5092331687777));
#554=CARTESIAN_POINT('Ctrl Pts',(-282.970691366513,3.61402595744959,-1.64190859250108));
#555=CARTESIAN_POINT('Ctrl Pts',(-282.970691366512,6.05938501832264,2.81071610565223));
#556=CARTESIAN_POINT('Ctrl Pts',(-249.999999999999,19.2568590993423,4.8470980615996));
#557=CARTESIAN_POINT('Ctrl Pts',(-250.,10.6028849012018,-8.15973678858949));
#558=CARTESIAN_POINT('Ctrl Pts',(-281.128501104866,2.8101302599742,-1.6041591324876));
#559=CARTESIAN_POINT('Ctrl Pts',(-281.128501104866,5.20296153998734,2.69500070951048));
#560=CARTESIAN_POINT('Ctrl Pts',(-250.,17.7776735845178,4.73531344230206));
#561=CARTESIAN_POINT('Ctrl Pts',(-250.,9.61652903112439,-7.85439299670033));
#562=CARTESIAN_POINT('Ctrl Pts',(-279.237157781053,2.13219542089129,-1.55883291549832));
#563=CARTESIAN_POINT('Ctrl Pts',(-279.237157781053,4.33487128775921,2.59417805087555));
#564=CARTESIAN_POINT('Ctrl Pts',(-250.,16.2270026747527,4.60187639253074));
#565=CARTESIAN_POINT('Ctrl Pts',(-250.,8.82858553339913,-7.46097217372182));
#566=CARTESIAN_POINT('Ctrl Pts',(-277.299173685231,1.57662627647046,-1.50758125449548));
#567=CARTESIAN_POINT('Ctrl Pts',(-277.299173685231,3.49983571771658,2.46423694774679));
#568=CARTESIAN_POINT('Ctrl Pts',(-250.,14.5974926701218,4.45142530748179));
#569=CARTESIAN_POINT('Ctrl Pts',(-250.,7.974009821739,-7.01912407127456));
#570=CARTESIAN_POINT('Ctrl Pts',(-275.317114638883,1.08546235561982,-1.45445556079015));
#571=CARTESIAN_POINT('Ctrl Pts',(-275.317114638882,2.77499086888104,2.31815743117549));
#572=CARTESIAN_POINT('Ctrl Pts',(-250.,13.0443688926515,4.29550684325997));
#573=CARTESIAN_POINT('Ctrl Pts',(-250.,6.94453161060673,-6.6185638802702));
#574=CARTESIAN_POINT('Ctrl Pts',(-273.293579284841,0.618141830522938,-1.40173899066056));
#575=CARTESIAN_POINT('Ctrl Pts',(-273.29357928484,2.19544688056929,2.18600432299474));
#576=CARTESIAN_POINT('Ctrl Pts',(-250.,11.6763502530281,4.14052316024293));
#577=CARTESIAN_POINT('Ctrl Pts',(-250.,6.00987247815621,-6.20667426936138));
#578=CARTESIAN_POINT('Ctrl Pts',(-271.231251540332,0.20930516798998,-1.34622972369322));
#579=CARTESIAN_POINT('Ctrl Pts',(-271.231251540332,1.66753394752788,2.04967980668566));
#580=CARTESIAN_POINT('Ctrl Pts',(-250.,10.3856512429566,3.9772254641979));
#581=CARTESIAN_POINT('Ctrl Pts',(-250.,5.38084898150654,-5.81134389064331));
#582=CARTESIAN_POINT('Ctrl Pts',(-269.482595549636,-0.0341839720884018,
-1.29262678766477));
#583=CARTESIAN_POINT('Ctrl Pts',(-269.482595549636,1.24741957337233,1.9196058526941));
#584=CARTESIAN_POINT('Ctrl Pts',(-250.,9.22515539666789,3.81904326087456));
#585=CARTESIAN_POINT('Ctrl Pts',(-250.,4.82470739310331,-5.47408215366735));
#586=CARTESIAN_POINT('Ctrl Pts',(-268.066984177231,-0.176040399633776,-1.24289946958138));
#587=CARTESIAN_POINT('Ctrl Pts',(-268.066984177231,0.971080283397986,1.80758003822624));
#588=CARTESIAN_POINT('Ctrl Pts',(-250.,8.26828591612357,3.6738039702958));
#589=CARTESIAN_POINT('Ctrl Pts',(-250.,4.21893805559435,-5.12202994244322));
#590=CARTESIAN_POINT('Ctrl Pts',(-266.640695483695,-0.297439044200101,-1.18947108108882));
#591=CARTESIAN_POINT('Ctrl Pts',(-266.640695483695,0.737843544584882,1.69244862013609));
#592=CARTESIAN_POINT('Ctrl Pts',(-250.,7.32421548724267,3.51489030552069));
#593=CARTESIAN_POINT('Ctrl Pts',(-250.,3.39630941364367,-4.64799090488978));
#594=CARTESIAN_POINT('Ctrl Pts',(-264.838588210074,-0.421830857742484,-1.11430642548674));
#595=CARTESIAN_POINT('Ctrl Pts',(-264.838588210073,0.521328536812367,1.53417632387899));
#596=CARTESIAN_POINT('Ctrl Pts',(-249.999999999999,6.22531689808924,3.29458648230917));
#597=CARTESIAN_POINT('Ctrl Pts',(-250.,2.58511202703037,-3.97654436131908));
#598=CARTESIAN_POINT('Ctrl Pts',(-262.647789539037,-0.535340471206299,-1.01087106174074));
#599=CARTESIAN_POINT('Ctrl Pts',(-262.647789539037,0.288077189595508,1.31476105644221));
#600=CARTESIAN_POINT('Ctrl Pts',(-250.,5.05575864346523,2.98877091205376));
#601=CARTESIAN_POINT('Ctrl Pts',(-250.,1.69639283589513,-3.02795743049967));
#602=CARTESIAN_POINT('Ctrl Pts',(-259.691887477829,-0.550029835036348,-0.863367170369579));
#603=CARTESIAN_POINT('Ctrl Pts',(-259.691887477828,0.0300654068888961,0.998041581585276));
#604=CARTESIAN_POINT('Ctrl Pts',(-250.,3.43139952291226,2.55446075226492));
#605=CARTESIAN_POINT('Ctrl Pts',(-250.,0.42689896350378,-1.87519367962303));
#606=CARTESIAN_POINT('Ctrl Pts',(-255.936965437532,-0.280299067184394,-0.595552979595538));
#607=CARTESIAN_POINT('Ctrl Pts',(-255.936965437532,-0.0173285601800613,
0.616134252312644));
#608=CARTESIAN_POINT('Ctrl Pts',(-250.,1.21693365635022,1.76765647003989));
#609=CARTESIAN_POINT('Ctrl Pts',(-250.,0.17430040166707,-0.761258851220697));
#610=CARTESIAN_POINT('Ctrl Pts',(-252.876748578982,-0.108075863408204,-0.271091943614343));
#611=CARTESIAN_POINT('Ctrl Pts',(-252.876748578982,-0.0577332286180206,
0.256218870557404));
#612=CARTESIAN_POINT('Ctrl Pts',(-250.,0.317466895783832,0.792324294952112));
#613=CARTESIAN_POINT('Ctrl Pts',(-250.,0.0457930881953484,-0.218179013188616));
#614=CARTESIAN_POINT('Ctrl Pts',(-250.888902310938,-0.0186418187334956,
-0.0801055628122663));
#615=CARTESIAN_POINT('Ctrl Pts',(-250.888902310938,-0.0154633411522318,
0.0700682935217083));
#616=CARTESIAN_POINT('Ctrl Pts',(-250.,0.0571577493082284,0.240875772803491));
#617=CARTESIAN_POINT('Ctrl Pts',(-250.,0.0212270169984393,-0.104359004217137));
#618=CARTESIAN_POINT('Ctrl Pts',(-250.444444600136,-0.00657373432469442,
-0.0410309123596728));
#619=CARTESIAN_POINT('Ctrl Pts',(-250.444444600136,-0.00690581239541168,
0.0359390172213876));
#620=CARTESIAN_POINT('Ctrl Pts',(-250.,0.0185600974042606,0.118794393669069));
#621=CARTESIAN_POINT('Ctrl Pts',(-250.,0.,0.));
#622=CARTESIAN_POINT('Ctrl Pts',(-250.,0.,1.03304747077751E-14));
#623=CARTESIAN_POINT('Ctrl Pts',(-250.,0.,6.09117299924349E-17));
#624=CARTESIAN_POINT('Ctrl Pts',(-250.,0.,-3.08086889333481E-14));
#625=UNCERTAINTY_MEASURE_WITH_UNIT(LENGTH_MEASURE(0.01),#629,
'DISTANCE_ACCURACY_VALUE',
'Maximum model space distance between geometric entities at asserted c
onnectivities');
#626=UNCERTAINTY_MEASURE_WITH_UNIT(LENGTH_MEASURE(0.01),#629,
'DISTANCE_ACCURACY_VALUE',
'Maximum model space distance between geometric entities at asserted c
onnectivities');
#627=(
GEOMETRIC_REPRESENTATION_CONTEXT(3)
GLOBAL_UNCERTAINTY_ASSIGNED_CONTEXT((#625))
GLOBAL_UNIT_ASSIGNED_CONTEXT((#629,#631,#632))
REPRESENTATION_CONTEXT('','3D')
);
#628=(
GEOMETRIC_REPRESENTATION_CONTEXT(3)
GLOBAL_UNCERTAINTY_ASSIGNED_CONTEXT((#626))
GLOBAL_UNIT_ASSIGNED_CONTEXT((#629,#631,#632))
REPRESENTATION_CONTEXT('','3D')
);
#629=(
LENGTH_UNIT()
NAMED_UNIT(*)
SI_UNIT(.MILLI.,.METRE.)
);
#630=(
LENGTH_UNIT()
NAMED_UNIT(*)
SI_UNIT($,.METRE.)
);
#631=(
NAMED_UNIT(*)
PLANE_ANGLE_UNIT()
SI_UNIT($,.RADIAN.)
);
#632=(
NAMED_UNIT(*)
SI_UNIT($,.STERADIAN.)
SOLID_ANGLE_UNIT()
);
#633=SHAPE_DEFINITION_REPRESENTATION(#634,#635);
#634=PRODUCT_DEFINITION_SHAPE('',$,#637);
#635=SHAPE_REPRESENTATION('',(#46),#627);
#636=PRODUCT_DEFINITION_CONTEXT('part definition',#641,'design');
#637=PRODUCT_DEFINITION('Wing3(Mirror)','Wing3(Mirror)',#638,#636);
#638=PRODUCT_DEFINITION_FORMATION('',$,#643);
#639=PRODUCT_RELATED_PRODUCT_CATEGORY('Wing3(Mirror)','Wing3(Mirror)',(#643));
#640=APPLICATION_PROTOCOL_DEFINITION('international standard',
'automotive_design',2009,#641);
#641=APPLICATION_CONTEXT(
'Core Data for Automotive Mechanical Design Process');
#642=PRODUCT_CONTEXT('part definition',#641,'mechanical');
#643=PRODUCT('Wing3(Mirror)','Wing3(Mirror)',$,(#642));
#644=PRESENTATION_STYLE_ASSIGNMENT((#646));
#645=PRESENTATION_STYLE_ASSIGNMENT((#647));
#646=SURFACE_STYLE_USAGE(.BOTH.,#648);
#647=SURFACE_STYLE_USAGE(.BOTH.,#649);
#648=SURFACE_SIDE_STYLE('',(#650));
#649=SURFACE_SIDE_STYLE('',(#651));
#650=SURFACE_STYLE_FILL_AREA(#652);
#651=SURFACE_STYLE_FILL_AREA(#653);
#652=FILL_AREA_STYLE('Steel - Satin',(#654));
#653=FILL_AREA_STYLE('Paint - Enamel Glossy (Dark Grey)',(#655));
#654=FILL_AREA_STYLE_COLOUR('Steel - Satin',#656);
#655=FILL_AREA_STYLE_COLOUR('Paint - Enamel Glossy (Dark Grey)',#657);
#656=COLOUR_RGB('Steel - Satin',0.627450980392157,0.627450980392157,0.627450980392157);
#657=COLOUR_RGB('Paint - Enamel Glossy (Dark Grey)',0.349019607843137,0.349019607843137,
0.349019607843137);
ENDSEC;
END-ISO-10303-21;
