ISO-10303-21;
HEADER;
/* Generated by software containing ST-Developer
 * from STEP Tools, Inc. (www.steptools.com) 
 */

FILE_DESCRIPTION(
/* description */ (''),
/* implementation_level */ '2;1');

FILE_NAME(
/* name */ 'Front Motor Mount.step',
/* time_stamp */ '2026-07-02T23:13:08-07:00',
/* author */ (''),
/* organization */ (''),
/* preprocessor_version */ 'ST-DEVELOPER v20.1',
/* originating_system */ 'Autodesk Translation Framework v15.8.0.0',
/* authorisation */ '');

FILE_SCHEMA (('AUTOMOTIVE_DESIGN { 1 0 10303 214 3 1 1 }'));
ENDSEC;

DATA;
#10=MECHANICAL_DESIGN_GEOMETRIC_PRESENTATION_REPRESENTATION('',(#13),#1420);
#11=SHAPE_REPRESENTATION_RELATIONSHIP('SRR','None',#1427,#12);
#12=ADVANCED_BREP_SHAPE_REPRESENTATION('',(#14),#1419);
#13=STYLED_ITEM('',(#1437),#14);
#14=MANIFOLD_SOLID_BREP('Body1',#814);
#15=FACE_BOUND('',#100,.T.);
#16=FACE_BOUND('',#108,.T.);
#17=FACE_BOUND('',#109,.T.);
#18=FACE_BOUND('',#110,.T.);
#19=FACE_BOUND('',#111,.T.);
#20=FACE_BOUND('',#112,.T.);
#21=FACE_BOUND('',#115,.T.);
#22=FACE_BOUND('',#119,.T.);
#23=FACE_BOUND('',#120,.T.);
#24=FACE_BOUND('',#121,.T.);
#25=FACE_BOUND('',#122,.T.);
#26=FACE_BOUND('',#123,.T.);
#27=FACE_BOUND('',#147,.T.);
#28=B_SPLINE_CURVE_WITH_KNOTS('',3,(#1194,#1195,#1196,#1197,#1198,#1199,
#1200,#1201,#1202,#1203,#1204,#1205,#1206,#1207,#1208,#1209,#1210,#1211),
 .UNSPECIFIED.,.F.,.F.,(4,2,2,2,2,2,2,2,4),(0.407715867233692,0.480888880297551,
0.576549237290342,0.672700920381138,0.768852603471934,0.86500428656273,
0.961155969653526,1.05681632664632,1.1299893397101),.UNSPECIFIED.);
#29=ELLIPSE('',#834,5.02079011046403,5.);
#30=ELLIPSE('',#835,5.02079011046399,5.);
#31=CYLINDRICAL_SURFACE('',#832,5.);
#32=CYLINDRICAL_SURFACE('',#838,5.);
#33=CYLINDRICAL_SURFACE('',#845,5.);
#34=CYLINDRICAL_SURFACE('',#847,5.);
#35=CYLINDRICAL_SURFACE('',#850,5.);
#36=CYLINDRICAL_SURFACE('',#852,3.);
#37=CYLINDRICAL_SURFACE('',#867,3.);
#38=CYLINDRICAL_SURFACE('',#872,3.);
#39=CYLINDRICAL_SURFACE('',#875,5.);
#40=CYLINDRICAL_SURFACE('',#891,5.);
#41=CYLINDRICAL_SURFACE('',#895,5.);
#42=CYLINDRICAL_SURFACE('',#896,5.);
#43=CYLINDRICAL_SURFACE('',#897,14.);
#44=CYLINDRICAL_SURFACE('',#898,5.);
#45=CYLINDRICAL_SURFACE('',#899,14.);
#46=CYLINDRICAL_SURFACE('',#900,5.);
#47=CYLINDRICAL_SURFACE('',#903,2.325);
#48=CYLINDRICAL_SURFACE('',#905,2.50000000000062);
#49=CYLINDRICAL_SURFACE('',#908,3.84999999999907);
#50=CYLINDRICAL_SURFACE('',#910,1.65);
#51=CYLINDRICAL_SURFACE('',#911,4.);
#52=CYLINDRICAL_SURFACE('',#912,1.65);
#53=CYLINDRICAL_SURFACE('',#913,1.65);
#54=CYLINDRICAL_SURFACE('',#914,1.65);
#55=FACE_OUTER_BOUND('',#95,.T.);
#56=FACE_OUTER_BOUND('',#96,.T.);
#57=FACE_OUTER_BOUND('',#97,.T.);
#58=FACE_OUTER_BOUND('',#98,.T.);
#59=FACE_OUTER_BOUND('',#99,.T.);
#60=FACE_OUTER_BOUND('',#101,.T.);
#61=FACE_OUTER_BOUND('',#102,.T.);
#62=FACE_OUTER_BOUND('',#103,.T.);
#63=FACE_OUTER_BOUND('',#104,.T.);
#64=FACE_OUTER_BOUND('',#105,.T.);
#65=FACE_OUTER_BOUND('',#106,.T.);
#66=FACE_OUTER_BOUND('',#107,.T.);
#67=FACE_OUTER_BOUND('',#113,.T.);
#68=FACE_OUTER_BOUND('',#114,.T.);
#69=FACE_OUTER_BOUND('',#116,.T.);
#70=FACE_OUTER_BOUND('',#117,.T.);
#71=FACE_OUTER_BOUND('',#118,.T.);
#72=FACE_OUTER_BOUND('',#124,.T.);
#73=FACE_OUTER_BOUND('',#125,.T.);
#74=FACE_OUTER_BOUND('',#126,.T.);
#75=FACE_OUTER_BOUND('',#127,.T.);
#76=FACE_OUTER_BOUND('',#128,.T.);
#77=FACE_OUTER_BOUND('',#129,.T.);
#78=FACE_OUTER_BOUND('',#130,.T.);
#79=FACE_OUTER_BOUND('',#131,.T.);
#80=FACE_OUTER_BOUND('',#132,.T.);
#81=FACE_OUTER_BOUND('',#133,.T.);
#82=FACE_OUTER_BOUND('',#134,.T.);
#83=FACE_OUTER_BOUND('',#135,.T.);
#84=FACE_OUTER_BOUND('',#136,.T.);
#85=FACE_OUTER_BOUND('',#137,.T.);
#86=FACE_OUTER_BOUND('',#138,.T.);
#87=FACE_OUTER_BOUND('',#139,.T.);
#88=FACE_OUTER_BOUND('',#140,.T.);
#89=FACE_OUTER_BOUND('',#141,.T.);
#90=FACE_OUTER_BOUND('',#142,.T.);
#91=FACE_OUTER_BOUND('',#143,.T.);
#92=FACE_OUTER_BOUND('',#144,.T.);
#93=FACE_OUTER_BOUND('',#145,.T.);
#94=FACE_OUTER_BOUND('',#146,.T.);
#95=EDGE_LOOP('',(#524,#525,#526,#527,#528,#529,#530,#531,#532,#533));
#96=EDGE_LOOP('',(#534,#535,#536,#537,#538,#539,#540,#541));
#97=EDGE_LOOP('',(#542,#543,#544,#545));
#98=EDGE_LOOP('',(#546,#547,#548,#549));
#99=EDGE_LOOP('',(#550,#551,#552,#553,#554,#555));
#100=EDGE_LOOP('',(#556));
#101=EDGE_LOOP('',(#557,#558,#559,#560));
#102=EDGE_LOOP('',(#561,#562,#563,#564));
#103=EDGE_LOOP('',(#565,#566,#567,#568));
#104=EDGE_LOOP('',(#569,#570,#571,#572));
#105=EDGE_LOOP('',(#573,#574,#575,#576));
#106=EDGE_LOOP('',(#577,#578,#579,#580));
#107=EDGE_LOOP('',(#581,#582,#583,#584,#585,#586,#587,#588,#589,#590,#591,
#592));
#108=EDGE_LOOP('',(#593));
#109=EDGE_LOOP('',(#594));
#110=EDGE_LOOP('',(#595));
#111=EDGE_LOOP('',(#596));
#112=EDGE_LOOP('',(#597));
#113=EDGE_LOOP('',(#598,#599,#600,#601));
#114=EDGE_LOOP('',(#602,#603,#604,#605,#606,#607));
#115=EDGE_LOOP('',(#608));
#116=EDGE_LOOP('',(#609,#610,#611,#612));
#117=EDGE_LOOP('',(#613,#614,#615,#616));
#118=EDGE_LOOP('',(#617,#618,#619,#620,#621,#622,#623,#624,#625,#626,#627,
#628));
#119=EDGE_LOOP('',(#629));
#120=EDGE_LOOP('',(#630));
#121=EDGE_LOOP('',(#631));
#122=EDGE_LOOP('',(#632));
#123=EDGE_LOOP('',(#633));
#124=EDGE_LOOP('',(#634,#635,#636,#637,#638,#639,#640,#641,#642,#643));
#125=EDGE_LOOP('',(#644,#645,#646,#647));
#126=EDGE_LOOP('',(#648,#649,#650,#651,#652,#653,#654,#655,#656,#657));
#127=EDGE_LOOP('',(#658,#659,#660,#661));
#128=EDGE_LOOP('',(#662,#663,#664,#665));
#129=EDGE_LOOP('',(#666,#667,#668,#669));
#130=EDGE_LOOP('',(#670,#671,#672,#673));
#131=EDGE_LOOP('',(#674,#675,#676,#677));
#132=EDGE_LOOP('',(#678,#679,#680,#681));
#133=EDGE_LOOP('',(#682,#683,#684,#685,#686,#687,#688,#689,#690,#691));
#134=EDGE_LOOP('',(#692,#693,#694,#695));
#135=EDGE_LOOP('',(#696,#697,#698,#699));
#136=EDGE_LOOP('',(#700,#701,#702,#703,#704));
#137=EDGE_LOOP('',(#705,#706,#707,#708));
#138=EDGE_LOOP('',(#709,#710,#711,#712,#713));
#139=EDGE_LOOP('',(#714,#715,#716,#717));
#140=EDGE_LOOP('',(#718,#719,#720,#721));
#141=EDGE_LOOP('',(#722,#723,#724,#725));
#142=EDGE_LOOP('',(#726,#727,#728,#729));
#143=EDGE_LOOP('',(#730,#731,#732,#733));
#144=EDGE_LOOP('',(#734,#735,#736,#737));
#145=EDGE_LOOP('',(#738,#739,#740,#741,#742,#743,#744,#745,#746,#747));
#146=EDGE_LOOP('',(#748,#749,#750,#751,#752,#753));
#147=EDGE_LOOP('',(#754,#755,#756,#757));
#148=CIRCLE('',#829,3.84999999999907);
#149=CIRCLE('',#830,5.);
#150=CIRCLE('',#831,5.);
#151=CIRCLE('',#833,5.);
#152=CIRCLE('',#836,5.);
#153=CIRCLE('',#839,5.);
#154=CIRCLE('',#840,5.);
#155=CIRCLE('',#842,5.);
#156=CIRCLE('',#843,2.325);
#157=CIRCLE('',#846,5.);
#158=CIRCLE('',#848,5.);
#159=CIRCLE('',#851,5.);
#160=CIRCLE('',#853,3.);
#161=CIRCLE('',#854,3.);
#162=CIRCLE('',#856,5.);
#163=CIRCLE('',#857,14.);
#164=CIRCLE('',#858,5.);
#165=CIRCLE('',#859,5.);
#166=CIRCLE('',#860,14.);
#167=CIRCLE('',#861,5.);
#168=CIRCLE('',#862,1.65);
#169=CIRCLE('',#863,1.65);
#170=CIRCLE('',#864,1.65);
#171=CIRCLE('',#865,4.);
#172=CIRCLE('',#866,1.65);
#173=CIRCLE('',#868,3.);
#174=CIRCLE('',#869,3.);
#175=CIRCLE('',#871,2.325);
#176=CIRCLE('',#873,3.);
#177=CIRCLE('',#874,3.);
#178=CIRCLE('',#876,5.);
#179=CIRCLE('',#877,5.);
#180=CIRCLE('',#879,5.);
#181=CIRCLE('',#880,14.);
#182=CIRCLE('',#881,5.);
#183=CIRCLE('',#882,5.);
#184=CIRCLE('',#883,14.);
#185=CIRCLE('',#884,5.);
#186=CIRCLE('',#885,1.65);
#187=CIRCLE('',#886,4.);
#188=CIRCLE('',#887,1.65);
#189=CIRCLE('',#888,1.65);
#190=CIRCLE('',#889,1.65);
#191=CIRCLE('',#892,5.);
#192=CIRCLE('',#893,5.);
#193=CIRCLE('',#906,2.50000000000062);
#194=CIRCLE('',#909,3.84999999999907);
#195=LINE('',#1168,#262);
#196=LINE('',#1170,#263);
#197=LINE('',#1174,#264);
#198=LINE('',#1176,#265);
#199=LINE('',#1178,#266);
#200=LINE('',#1182,#267);
#201=LINE('',#1185,#268);
#202=LINE('',#1189,#269);
#203=LINE('',#1216,#270);
#204=LINE('',#1218,#271);
#205=LINE('',#1219,#272);
#206=LINE('',#1225,#273);
#207=LINE('',#1228,#274);
#208=LINE('',#1231,#275);
#209=LINE('',#1235,#276);
#210=LINE('',#1237,#277);
#211=LINE('',#1238,#278);
#212=LINE('',#1243,#279);
#213=LINE('',#1244,#280);
#214=LINE('',#1248,#281);
#215=LINE('',#1253,#282);
#216=LINE('',#1254,#283);
#217=LINE('',#1257,#284);
#218=LINE('',#1258,#285);
#219=LINE('',#1262,#286);
#220=LINE('',#1268,#287);
#221=LINE('',#1271,#288);
#222=LINE('',#1274,#289);
#223=LINE('',#1282,#290);
#224=LINE('',#1284,#291);
#225=LINE('',#1286,#292);
#226=LINE('',#1293,#293);
#227=LINE('',#1309,#294);
#228=LINE('',#1312,#295);
#229=LINE('',#1314,#296);
#230=LINE('',#1315,#297);
#231=LINE('',#1326,#298);
#232=LINE('',#1329,#299);
#233=LINE('',#1332,#300);
#234=LINE('',#1340,#301);
#235=LINE('',#1342,#302);
#236=LINE('',#1344,#303);
#237=LINE('',#1351,#304);
#238=LINE('',#1363,#305);
#239=LINE('',#1364,#306);
#240=LINE('',#1369,#307);
#241=LINE('',#1370,#308);
#242=LINE('',#1372,#309);
#243=LINE('',#1374,#310);
#244=LINE('',#1377,#311);
#245=LINE('',#1378,#312);
#246=LINE('',#1380,#313);
#247=LINE('',#1382,#314);
#248=LINE('',#1384,#315);
#249=LINE('',#1387,#316);
#250=LINE('',#1390,#317);
#251=LINE('',#1392,#318);
#252=LINE('',#1393,#319);
#253=LINE('',#1397,#320);
#254=LINE('',#1400,#321);
#255=LINE('',#1401,#322);
#256=LINE('',#1405,#323);
#257=LINE('',#1407,#324);
#258=LINE('',#1409,#325);
#259=LINE('',#1411,#326);
#260=LINE('',#1413,#327);
#261=LINE('',#1415,#328);
#262=VECTOR('',#921,10.);
#263=VECTOR('',#922,10.);
#264=VECTOR('',#925,10.);
#265=VECTOR('',#926,10.);
#266=VECTOR('',#927,10.);
#267=VECTOR('',#930,10.);
#268=VECTOR('',#933,10.);
#269=VECTOR('',#936,10.);
#270=VECTOR('',#947,10.);
#271=VECTOR('',#948,10.);
#272=VECTOR('',#949,10.);
#273=VECTOR('',#954,10.);
#274=VECTOR('',#957,10.);
#275=VECTOR('',#960,10.);
#276=VECTOR('',#963,10.);
#277=VECTOR('',#964,10.);
#278=VECTOR('',#965,10.);
#279=VECTOR('',#970,10.);
#280=VECTOR('',#971,10.);
#281=VECTOR('',#976,10.);
#282=VECTOR('',#981,10.);
#283=VECTOR('',#982,10.);
#284=VECTOR('',#985,10.);
#285=VECTOR('',#986,10.);
#286=VECTOR('',#991,10.);
#287=VECTOR('',#996,10.);
#288=VECTOR('',#999,10.);
#289=VECTOR('',#1002,10.);
#290=VECTOR('',#1009,10.);
#291=VECTOR('',#1010,10.);
#292=VECTOR('',#1011,10.);
#293=VECTOR('',#1018,10.);
#294=VECTOR('',#1033,10.);
#295=VECTOR('',#1036,10.);
#296=VECTOR('',#1039,10.);
#297=VECTOR('',#1040,10.);
#298=VECTOR('',#1053,10.);
#299=VECTOR('',#1056,10.);
#300=VECTOR('',#1059,10.);
#301=VECTOR('',#1066,10.);
#302=VECTOR('',#1067,10.);
#303=VECTOR('',#1068,10.);
#304=VECTOR('',#1075,10.);
#305=VECTOR('',#1088,10.);
#306=VECTOR('',#1089,10.);
#307=VECTOR('',#1098,10.);
#308=VECTOR('',#1099,10.);
#309=VECTOR('',#1102,10.);
#310=VECTOR('',#1105,10.);
#311=VECTOR('',#1110,10.);
#312=VECTOR('',#1111,10.);
#313=VECTOR('',#1114,10.);
#314=VECTOR('',#1117,10.);
#315=VECTOR('',#1120,10.);
#316=VECTOR('',#1125,2.325);
#317=VECTOR('',#1128,10.);
#318=VECTOR('',#1129,10.);
#319=VECTOR('',#1130,10.);
#320=VECTOR('',#1135,10.);
#321=VECTOR('',#1138,10.);
#322=VECTOR('',#1139,10.);
#323=VECTOR('',#1146,1.65);
#324=VECTOR('',#1149,4.);
#325=VECTOR('',#1152,1.65);
#326=VECTOR('',#1155,1.65);
#327=VECTOR('',#1158,1.65);
#328=VECTOR('',#1161,10.);
#329=VERTEX_POINT('',#1166);
#330=VERTEX_POINT('',#1167);
#331=VERTEX_POINT('',#1169);
#332=VERTEX_POINT('',#1171);
#333=VERTEX_POINT('',#1173);
#334=VERTEX_POINT('',#1175);
#335=VERTEX_POINT('',#1177);
#336=VERTEX_POINT('',#1179);
#337=VERTEX_POINT('',#1181);
#338=VERTEX_POINT('',#1183);
#339=VERTEX_POINT('',#1187);
#340=VERTEX_POINT('',#1188);
#341=VERTEX_POINT('',#1191);
#342=VERTEX_POINT('',#1193);
#343=VERTEX_POINT('',#1215);
#344=VERTEX_POINT('',#1217);
#345=VERTEX_POINT('',#1221);
#346=VERTEX_POINT('',#1222);
#347=VERTEX_POINT('',#1224);
#348=VERTEX_POINT('',#1226);
#349=VERTEX_POINT('',#1230);
#350=VERTEX_POINT('',#1232);
#351=VERTEX_POINT('',#1234);
#352=VERTEX_POINT('',#1236);
#353=VERTEX_POINT('',#1239);
#354=VERTEX_POINT('',#1242);
#355=VERTEX_POINT('',#1246);
#356=VERTEX_POINT('',#1250);
#357=VERTEX_POINT('',#1251);
#358=VERTEX_POINT('',#1256);
#359=VERTEX_POINT('',#1260);
#360=VERTEX_POINT('',#1264);
#361=VERTEX_POINT('',#1265);
#362=VERTEX_POINT('',#1267);
#363=VERTEX_POINT('',#1269);
#364=VERTEX_POINT('',#1273);
#365=VERTEX_POINT('',#1275);
#366=VERTEX_POINT('',#1277);
#367=VERTEX_POINT('',#1279);
#368=VERTEX_POINT('',#1281);
#369=VERTEX_POINT('',#1283);
#370=VERTEX_POINT('',#1285);
#371=VERTEX_POINT('',#1287);
#372=VERTEX_POINT('',#1289);
#373=VERTEX_POINT('',#1291);
#374=VERTEX_POINT('',#1294);
#375=VERTEX_POINT('',#1296);
#376=VERTEX_POINT('',#1298);
#377=VERTEX_POINT('',#1300);
#378=VERTEX_POINT('',#1302);
#379=VERTEX_POINT('',#1305);
#380=VERTEX_POINT('',#1306);
#381=VERTEX_POINT('',#1308);
#382=VERTEX_POINT('',#1310);
#383=VERTEX_POINT('',#1316);
#384=VERTEX_POINT('',#1322);
#385=VERTEX_POINT('',#1323);
#386=VERTEX_POINT('',#1325);
#387=VERTEX_POINT('',#1327);
#388=VERTEX_POINT('',#1331);
#389=VERTEX_POINT('',#1333);
#390=VERTEX_POINT('',#1335);
#391=VERTEX_POINT('',#1337);
#392=VERTEX_POINT('',#1339);
#393=VERTEX_POINT('',#1341);
#394=VERTEX_POINT('',#1343);
#395=VERTEX_POINT('',#1345);
#396=VERTEX_POINT('',#1347);
#397=VERTEX_POINT('',#1349);
#398=VERTEX_POINT('',#1352);
#399=VERTEX_POINT('',#1354);
#400=VERTEX_POINT('',#1356);
#401=VERTEX_POINT('',#1358);
#402=VERTEX_POINT('',#1360);
#403=VERTEX_POINT('',#1389);
#404=VERTEX_POINT('',#1391);
#405=VERTEX_POINT('',#1395);
#406=VERTEX_POINT('',#1399);
#407=EDGE_CURVE('',#329,#330,#195,.T.);
#408=EDGE_CURVE('',#329,#331,#196,.T.);
#409=EDGE_CURVE('',#331,#332,#148,.T.);
#410=EDGE_CURVE('',#332,#333,#197,.T.);
#411=EDGE_CURVE('',#334,#333,#198,.T.);
#412=EDGE_CURVE('',#334,#335,#199,.T.);
#413=EDGE_CURVE('',#336,#335,#149,.T.);
#414=EDGE_CURVE('',#337,#336,#200,.T.);
#415=EDGE_CURVE('',#338,#337,#150,.T.);
#416=EDGE_CURVE('',#330,#338,#201,.T.);
#417=EDGE_CURVE('',#339,#340,#202,.T.);
#418=EDGE_CURVE('',#340,#334,#151,.T.);
#419=EDGE_CURVE('',#341,#333,#29,.F.);
#420=EDGE_CURVE('',#342,#341,#28,.F.);
#421=EDGE_CURVE('',#342,#329,#30,.T.);
#422=EDGE_CURVE('',#330,#339,#152,.T.);
#423=EDGE_CURVE('',#339,#343,#203,.T.);
#424=EDGE_CURVE('',#344,#343,#204,.T.);
#425=EDGE_CURVE('',#344,#340,#205,.T.);
#426=EDGE_CURVE('',#345,#346,#153,.T.);
#427=EDGE_CURVE('',#346,#347,#206,.T.);
#428=EDGE_CURVE('',#347,#348,#154,.T.);
#429=EDGE_CURVE('',#348,#345,#207,.T.);
#430=EDGE_CURVE('',#349,#347,#208,.T.);
#431=EDGE_CURVE('',#350,#349,#155,.T.);
#432=EDGE_CURVE('',#351,#350,#209,.T.);
#433=EDGE_CURVE('',#352,#351,#210,.T.);
#434=EDGE_CURVE('',#352,#348,#211,.T.);
#435=EDGE_CURVE('',#353,#353,#156,.T.);
#436=EDGE_CURVE('',#346,#354,#212,.T.);
#437=EDGE_CURVE('',#349,#354,#213,.T.);
#438=EDGE_CURVE('',#354,#355,#157,.T.);
#439=EDGE_CURVE('',#355,#350,#214,.T.);
#440=EDGE_CURVE('',#356,#357,#158,.T.);
#441=EDGE_CURVE('',#357,#336,#215,.T.);
#442=EDGE_CURVE('',#335,#356,#216,.T.);
#443=EDGE_CURVE('',#357,#358,#217,.T.);
#444=EDGE_CURVE('',#337,#358,#218,.T.);
#445=EDGE_CURVE('',#358,#359,#159,.T.);
#446=EDGE_CURVE('',#359,#338,#219,.T.);
#447=EDGE_CURVE('',#360,#361,#160,.T.);
#448=EDGE_CURVE('',#361,#362,#220,.T.);
#449=EDGE_CURVE('',#362,#363,#161,.T.);
#450=EDGE_CURVE('',#363,#360,#221,.T.);
#451=EDGE_CURVE('',#361,#364,#222,.T.);
#452=EDGE_CURVE('',#365,#364,#162,.T.);
#453=EDGE_CURVE('',#365,#366,#163,.T.);
#454=EDGE_CURVE('',#367,#366,#164,.T.);
#455=EDGE_CURVE('',#367,#368,#223,.T.);
#456=EDGE_CURVE('',#369,#368,#224,.T.);
#457=EDGE_CURVE('',#369,#370,#225,.T.);
#458=EDGE_CURVE('',#371,#370,#165,.T.);
#459=EDGE_CURVE('',#371,#372,#166,.T.);
#460=EDGE_CURVE('',#373,#372,#167,.T.);
#461=EDGE_CURVE('',#373,#362,#226,.T.);
#462=EDGE_CURVE('',#374,#374,#168,.T.);
#463=EDGE_CURVE('',#375,#375,#169,.T.);
#464=EDGE_CURVE('',#376,#376,#170,.T.);
#465=EDGE_CURVE('',#377,#377,#171,.T.);
#466=EDGE_CURVE('',#378,#378,#172,.T.);
#467=EDGE_CURVE('',#379,#380,#173,.T.);
#468=EDGE_CURVE('',#380,#381,#227,.T.);
#469=EDGE_CURVE('',#381,#382,#174,.T.);
#470=EDGE_CURVE('',#382,#379,#228,.T.);
#471=EDGE_CURVE('',#381,#345,#229,.T.);
#472=EDGE_CURVE('',#380,#355,#230,.T.);
#473=EDGE_CURVE('',#383,#383,#175,.T.);
#474=EDGE_CURVE('',#343,#369,#176,.T.);
#475=EDGE_CURVE('',#368,#344,#177,.T.);
#476=EDGE_CURVE('',#384,#385,#178,.T.);
#477=EDGE_CURVE('',#385,#386,#231,.T.);
#478=EDGE_CURVE('',#386,#387,#179,.T.);
#479=EDGE_CURVE('',#387,#384,#232,.T.);
#480=EDGE_CURVE('',#388,#387,#233,.T.);
#481=EDGE_CURVE('',#389,#388,#180,.T.);
#482=EDGE_CURVE('',#390,#389,#181,.T.);
#483=EDGE_CURVE('',#391,#390,#182,.T.);
#484=EDGE_CURVE('',#392,#391,#234,.T.);
#485=EDGE_CURVE('',#393,#392,#235,.T.);
#486=EDGE_CURVE('',#394,#393,#236,.T.);
#487=EDGE_CURVE('',#395,#394,#183,.T.);
#488=EDGE_CURVE('',#396,#395,#184,.T.);
#489=EDGE_CURVE('',#397,#396,#185,.T.);
#490=EDGE_CURVE('',#384,#397,#237,.T.);
#491=EDGE_CURVE('',#398,#398,#186,.T.);
#492=EDGE_CURVE('',#399,#399,#187,.T.);
#493=EDGE_CURVE('',#400,#400,#188,.T.);
#494=EDGE_CURVE('',#401,#401,#189,.T.);
#495=EDGE_CURVE('',#402,#402,#190,.T.);
#496=EDGE_CURVE('',#388,#367,#238,.T.);
#497=EDGE_CURVE('',#386,#356,#239,.T.);
#498=EDGE_CURVE('',#392,#352,#191,.T.);
#499=EDGE_CURVE('',#351,#393,#192,.T.);
#500=EDGE_CURVE('',#364,#391,#240,.T.);
#501=EDGE_CURVE('',#382,#360,#241,.T.);
#502=EDGE_CURVE('',#366,#389,#242,.T.);
#503=EDGE_CURVE('',#390,#365,#243,.T.);
#504=EDGE_CURVE('',#396,#371,#244,.T.);
#505=EDGE_CURVE('',#370,#397,#245,.T.);
#506=EDGE_CURVE('',#372,#395,#246,.T.);
#507=EDGE_CURVE('',#394,#373,#247,.T.);
#508=EDGE_CURVE('',#363,#379,#248,.T.);
#509=EDGE_CURVE('',#353,#383,#249,.T.);
#510=EDGE_CURVE('',#341,#403,#250,.T.);
#511=EDGE_CURVE('',#404,#332,#251,.T.);
#512=EDGE_CURVE('',#403,#404,#252,.T.);
#513=EDGE_CURVE('',#405,#403,#193,.T.);
#514=EDGE_CURVE('',#405,#342,#253,.F.);
#515=EDGE_CURVE('',#406,#405,#254,.T.);
#516=EDGE_CURVE('',#406,#331,#255,.T.);
#517=EDGE_CURVE('',#404,#406,#194,.T.);
#518=EDGE_CURVE('',#378,#398,#256,.T.);
#519=EDGE_CURVE('',#377,#399,#257,.T.);
#520=EDGE_CURVE('',#376,#400,#258,.T.);
#521=EDGE_CURVE('',#375,#401,#259,.T.);
#522=EDGE_CURVE('',#374,#402,#260,.T.);
#523=EDGE_CURVE('',#385,#359,#261,.T.);
#524=ORIENTED_EDGE('',*,*,#407,.F.);
#525=ORIENTED_EDGE('',*,*,#408,.T.);
#526=ORIENTED_EDGE('',*,*,#409,.T.);
#527=ORIENTED_EDGE('',*,*,#410,.T.);
#528=ORIENTED_EDGE('',*,*,#411,.F.);
#529=ORIENTED_EDGE('',*,*,#412,.T.);
#530=ORIENTED_EDGE('',*,*,#413,.F.);
#531=ORIENTED_EDGE('',*,*,#414,.F.);
#532=ORIENTED_EDGE('',*,*,#415,.F.);
#533=ORIENTED_EDGE('',*,*,#416,.F.);
#534=ORIENTED_EDGE('',*,*,#417,.T.);
#535=ORIENTED_EDGE('',*,*,#418,.T.);
#536=ORIENTED_EDGE('',*,*,#411,.T.);
#537=ORIENTED_EDGE('',*,*,#419,.F.);
#538=ORIENTED_EDGE('',*,*,#420,.F.);
#539=ORIENTED_EDGE('',*,*,#421,.T.);
#540=ORIENTED_EDGE('',*,*,#407,.T.);
#541=ORIENTED_EDGE('',*,*,#422,.T.);
#542=ORIENTED_EDGE('',*,*,#417,.F.);
#543=ORIENTED_EDGE('',*,*,#423,.T.);
#544=ORIENTED_EDGE('',*,*,#424,.F.);
#545=ORIENTED_EDGE('',*,*,#425,.T.);
#546=ORIENTED_EDGE('',*,*,#426,.T.);
#547=ORIENTED_EDGE('',*,*,#427,.T.);
#548=ORIENTED_EDGE('',*,*,#428,.T.);
#549=ORIENTED_EDGE('',*,*,#429,.T.);
#550=ORIENTED_EDGE('',*,*,#428,.F.);
#551=ORIENTED_EDGE('',*,*,#430,.F.);
#552=ORIENTED_EDGE('',*,*,#431,.F.);
#553=ORIENTED_EDGE('',*,*,#432,.F.);
#554=ORIENTED_EDGE('',*,*,#433,.F.);
#555=ORIENTED_EDGE('',*,*,#434,.T.);
#556=ORIENTED_EDGE('',*,*,#435,.T.);
#557=ORIENTED_EDGE('',*,*,#427,.F.);
#558=ORIENTED_EDGE('',*,*,#436,.T.);
#559=ORIENTED_EDGE('',*,*,#437,.F.);
#560=ORIENTED_EDGE('',*,*,#430,.T.);
#561=ORIENTED_EDGE('',*,*,#431,.T.);
#562=ORIENTED_EDGE('',*,*,#437,.T.);
#563=ORIENTED_EDGE('',*,*,#438,.T.);
#564=ORIENTED_EDGE('',*,*,#439,.T.);
#565=ORIENTED_EDGE('',*,*,#440,.T.);
#566=ORIENTED_EDGE('',*,*,#441,.T.);
#567=ORIENTED_EDGE('',*,*,#413,.T.);
#568=ORIENTED_EDGE('',*,*,#442,.T.);
#569=ORIENTED_EDGE('',*,*,#441,.F.);
#570=ORIENTED_EDGE('',*,*,#443,.T.);
#571=ORIENTED_EDGE('',*,*,#444,.F.);
#572=ORIENTED_EDGE('',*,*,#414,.T.);
#573=ORIENTED_EDGE('',*,*,#415,.T.);
#574=ORIENTED_EDGE('',*,*,#444,.T.);
#575=ORIENTED_EDGE('',*,*,#445,.T.);
#576=ORIENTED_EDGE('',*,*,#446,.T.);
#577=ORIENTED_EDGE('',*,*,#447,.T.);
#578=ORIENTED_EDGE('',*,*,#448,.T.);
#579=ORIENTED_EDGE('',*,*,#449,.T.);
#580=ORIENTED_EDGE('',*,*,#450,.T.);
#581=ORIENTED_EDGE('',*,*,#448,.F.);
#582=ORIENTED_EDGE('',*,*,#451,.T.);
#583=ORIENTED_EDGE('',*,*,#452,.F.);
#584=ORIENTED_EDGE('',*,*,#453,.T.);
#585=ORIENTED_EDGE('',*,*,#454,.F.);
#586=ORIENTED_EDGE('',*,*,#455,.T.);
#587=ORIENTED_EDGE('',*,*,#456,.F.);
#588=ORIENTED_EDGE('',*,*,#457,.T.);
#589=ORIENTED_EDGE('',*,*,#458,.F.);
#590=ORIENTED_EDGE('',*,*,#459,.T.);
#591=ORIENTED_EDGE('',*,*,#460,.F.);
#592=ORIENTED_EDGE('',*,*,#461,.T.);
#593=ORIENTED_EDGE('',*,*,#462,.T.);
#594=ORIENTED_EDGE('',*,*,#463,.T.);
#595=ORIENTED_EDGE('',*,*,#464,.T.);
#596=ORIENTED_EDGE('',*,*,#465,.T.);
#597=ORIENTED_EDGE('',*,*,#466,.T.);
#598=ORIENTED_EDGE('',*,*,#467,.T.);
#599=ORIENTED_EDGE('',*,*,#468,.T.);
#600=ORIENTED_EDGE('',*,*,#469,.T.);
#601=ORIENTED_EDGE('',*,*,#470,.T.);
#602=ORIENTED_EDGE('',*,*,#426,.F.);
#603=ORIENTED_EDGE('',*,*,#471,.F.);
#604=ORIENTED_EDGE('',*,*,#468,.F.);
#605=ORIENTED_EDGE('',*,*,#472,.T.);
#606=ORIENTED_EDGE('',*,*,#438,.F.);
#607=ORIENTED_EDGE('',*,*,#436,.F.);
#608=ORIENTED_EDGE('',*,*,#473,.T.);
#609=ORIENTED_EDGE('',*,*,#474,.T.);
#610=ORIENTED_EDGE('',*,*,#456,.T.);
#611=ORIENTED_EDGE('',*,*,#475,.T.);
#612=ORIENTED_EDGE('',*,*,#424,.T.);
#613=ORIENTED_EDGE('',*,*,#476,.T.);
#614=ORIENTED_EDGE('',*,*,#477,.T.);
#615=ORIENTED_EDGE('',*,*,#478,.T.);
#616=ORIENTED_EDGE('',*,*,#479,.T.);
#617=ORIENTED_EDGE('',*,*,#479,.F.);
#618=ORIENTED_EDGE('',*,*,#480,.F.);
#619=ORIENTED_EDGE('',*,*,#481,.F.);
#620=ORIENTED_EDGE('',*,*,#482,.F.);
#621=ORIENTED_EDGE('',*,*,#483,.F.);
#622=ORIENTED_EDGE('',*,*,#484,.F.);
#623=ORIENTED_EDGE('',*,*,#485,.F.);
#624=ORIENTED_EDGE('',*,*,#486,.F.);
#625=ORIENTED_EDGE('',*,*,#487,.F.);
#626=ORIENTED_EDGE('',*,*,#488,.F.);
#627=ORIENTED_EDGE('',*,*,#489,.F.);
#628=ORIENTED_EDGE('',*,*,#490,.F.);
#629=ORIENTED_EDGE('',*,*,#491,.F.);
#630=ORIENTED_EDGE('',*,*,#492,.F.);
#631=ORIENTED_EDGE('',*,*,#493,.F.);
#632=ORIENTED_EDGE('',*,*,#494,.F.);
#633=ORIENTED_EDGE('',*,*,#495,.F.);
#634=ORIENTED_EDGE('',*,*,#442,.F.);
#635=ORIENTED_EDGE('',*,*,#412,.F.);
#636=ORIENTED_EDGE('',*,*,#418,.F.);
#637=ORIENTED_EDGE('',*,*,#425,.F.);
#638=ORIENTED_EDGE('',*,*,#475,.F.);
#639=ORIENTED_EDGE('',*,*,#455,.F.);
#640=ORIENTED_EDGE('',*,*,#496,.F.);
#641=ORIENTED_EDGE('',*,*,#480,.T.);
#642=ORIENTED_EDGE('',*,*,#478,.F.);
#643=ORIENTED_EDGE('',*,*,#497,.T.);
#644=ORIENTED_EDGE('',*,*,#498,.T.);
#645=ORIENTED_EDGE('',*,*,#433,.T.);
#646=ORIENTED_EDGE('',*,*,#499,.T.);
#647=ORIENTED_EDGE('',*,*,#485,.T.);
#648=ORIENTED_EDGE('',*,*,#429,.F.);
#649=ORIENTED_EDGE('',*,*,#434,.F.);
#650=ORIENTED_EDGE('',*,*,#498,.F.);
#651=ORIENTED_EDGE('',*,*,#484,.T.);
#652=ORIENTED_EDGE('',*,*,#500,.F.);
#653=ORIENTED_EDGE('',*,*,#451,.F.);
#654=ORIENTED_EDGE('',*,*,#447,.F.);
#655=ORIENTED_EDGE('',*,*,#501,.F.);
#656=ORIENTED_EDGE('',*,*,#469,.F.);
#657=ORIENTED_EDGE('',*,*,#471,.T.);
#658=ORIENTED_EDGE('',*,*,#481,.T.);
#659=ORIENTED_EDGE('',*,*,#496,.T.);
#660=ORIENTED_EDGE('',*,*,#454,.T.);
#661=ORIENTED_EDGE('',*,*,#502,.T.);
#662=ORIENTED_EDGE('',*,*,#483,.T.);
#663=ORIENTED_EDGE('',*,*,#503,.T.);
#664=ORIENTED_EDGE('',*,*,#452,.T.);
#665=ORIENTED_EDGE('',*,*,#500,.T.);
#666=ORIENTED_EDGE('',*,*,#502,.F.);
#667=ORIENTED_EDGE('',*,*,#453,.F.);
#668=ORIENTED_EDGE('',*,*,#503,.F.);
#669=ORIENTED_EDGE('',*,*,#482,.T.);
#670=ORIENTED_EDGE('',*,*,#489,.T.);
#671=ORIENTED_EDGE('',*,*,#504,.T.);
#672=ORIENTED_EDGE('',*,*,#458,.T.);
#673=ORIENTED_EDGE('',*,*,#505,.T.);
#674=ORIENTED_EDGE('',*,*,#504,.F.);
#675=ORIENTED_EDGE('',*,*,#488,.T.);
#676=ORIENTED_EDGE('',*,*,#506,.F.);
#677=ORIENTED_EDGE('',*,*,#459,.F.);
#678=ORIENTED_EDGE('',*,*,#487,.T.);
#679=ORIENTED_EDGE('',*,*,#507,.T.);
#680=ORIENTED_EDGE('',*,*,#460,.T.);
#681=ORIENTED_EDGE('',*,*,#506,.T.);
#682=ORIENTED_EDGE('',*,*,#439,.F.);
#683=ORIENTED_EDGE('',*,*,#472,.F.);
#684=ORIENTED_EDGE('',*,*,#467,.F.);
#685=ORIENTED_EDGE('',*,*,#508,.F.);
#686=ORIENTED_EDGE('',*,*,#449,.F.);
#687=ORIENTED_EDGE('',*,*,#461,.F.);
#688=ORIENTED_EDGE('',*,*,#507,.F.);
#689=ORIENTED_EDGE('',*,*,#486,.T.);
#690=ORIENTED_EDGE('',*,*,#499,.F.);
#691=ORIENTED_EDGE('',*,*,#432,.T.);
#692=ORIENTED_EDGE('',*,*,#450,.F.);
#693=ORIENTED_EDGE('',*,*,#508,.T.);
#694=ORIENTED_EDGE('',*,*,#470,.F.);
#695=ORIENTED_EDGE('',*,*,#501,.T.);
#696=ORIENTED_EDGE('',*,*,#435,.F.);
#697=ORIENTED_EDGE('',*,*,#509,.T.);
#698=ORIENTED_EDGE('',*,*,#473,.F.);
#699=ORIENTED_EDGE('',*,*,#509,.F.);
#700=ORIENTED_EDGE('',*,*,#510,.F.);
#701=ORIENTED_EDGE('',*,*,#419,.T.);
#702=ORIENTED_EDGE('',*,*,#410,.F.);
#703=ORIENTED_EDGE('',*,*,#511,.F.);
#704=ORIENTED_EDGE('',*,*,#512,.F.);
#705=ORIENTED_EDGE('',*,*,#513,.F.);
#706=ORIENTED_EDGE('',*,*,#514,.T.);
#707=ORIENTED_EDGE('',*,*,#420,.T.);
#708=ORIENTED_EDGE('',*,*,#510,.T.);
#709=ORIENTED_EDGE('',*,*,#515,.F.);
#710=ORIENTED_EDGE('',*,*,#516,.T.);
#711=ORIENTED_EDGE('',*,*,#408,.F.);
#712=ORIENTED_EDGE('',*,*,#421,.F.);
#713=ORIENTED_EDGE('',*,*,#514,.F.);
#714=ORIENTED_EDGE('',*,*,#517,.F.);
#715=ORIENTED_EDGE('',*,*,#511,.T.);
#716=ORIENTED_EDGE('',*,*,#409,.F.);
#717=ORIENTED_EDGE('',*,*,#516,.F.);
#718=ORIENTED_EDGE('',*,*,#466,.F.);
#719=ORIENTED_EDGE('',*,*,#518,.T.);
#720=ORIENTED_EDGE('',*,*,#491,.T.);
#721=ORIENTED_EDGE('',*,*,#518,.F.);
#722=ORIENTED_EDGE('',*,*,#465,.F.);
#723=ORIENTED_EDGE('',*,*,#519,.T.);
#724=ORIENTED_EDGE('',*,*,#492,.T.);
#725=ORIENTED_EDGE('',*,*,#519,.F.);
#726=ORIENTED_EDGE('',*,*,#464,.F.);
#727=ORIENTED_EDGE('',*,*,#520,.T.);
#728=ORIENTED_EDGE('',*,*,#493,.T.);
#729=ORIENTED_EDGE('',*,*,#520,.F.);
#730=ORIENTED_EDGE('',*,*,#463,.F.);
#731=ORIENTED_EDGE('',*,*,#521,.T.);
#732=ORIENTED_EDGE('',*,*,#494,.T.);
#733=ORIENTED_EDGE('',*,*,#521,.F.);
#734=ORIENTED_EDGE('',*,*,#462,.F.);
#735=ORIENTED_EDGE('',*,*,#522,.T.);
#736=ORIENTED_EDGE('',*,*,#495,.T.);
#737=ORIENTED_EDGE('',*,*,#522,.F.);
#738=ORIENTED_EDGE('',*,*,#446,.F.);
#739=ORIENTED_EDGE('',*,*,#523,.F.);
#740=ORIENTED_EDGE('',*,*,#476,.F.);
#741=ORIENTED_EDGE('',*,*,#490,.T.);
#742=ORIENTED_EDGE('',*,*,#505,.F.);
#743=ORIENTED_EDGE('',*,*,#457,.F.);
#744=ORIENTED_EDGE('',*,*,#474,.F.);
#745=ORIENTED_EDGE('',*,*,#423,.F.);
#746=ORIENTED_EDGE('',*,*,#422,.F.);
#747=ORIENTED_EDGE('',*,*,#416,.T.);
#748=ORIENTED_EDGE('',*,*,#440,.F.);
#749=ORIENTED_EDGE('',*,*,#497,.F.);
#750=ORIENTED_EDGE('',*,*,#477,.F.);
#751=ORIENTED_EDGE('',*,*,#523,.T.);
#752=ORIENTED_EDGE('',*,*,#445,.F.);
#753=ORIENTED_EDGE('',*,*,#443,.F.);
#754=ORIENTED_EDGE('',*,*,#512,.T.);
#755=ORIENTED_EDGE('',*,*,#517,.T.);
#756=ORIENTED_EDGE('',*,*,#515,.T.);
#757=ORIENTED_EDGE('',*,*,#513,.T.);
#758=PLANE('',#828);
#759=PLANE('',#837);
#760=PLANE('',#841);
#761=PLANE('',#844);
#762=PLANE('',#849);
#763=PLANE('',#855);
#764=PLANE('',#870);
#765=PLANE('',#878);
#766=PLANE('',#890);
#767=PLANE('',#894);
#768=PLANE('',#901);
#769=PLANE('',#902);
#770=PLANE('',#904);
#771=PLANE('',#907);
#772=PLANE('',#915);
#773=PLANE('',#916);
#774=ADVANCED_FACE('',(#55),#758,.T.);
#775=ADVANCED_FACE('',(#56),#31,.F.);
#776=ADVANCED_FACE('',(#57),#759,.T.);
#777=ADVANCED_FACE('',(#58),#32,.T.);
#778=ADVANCED_FACE('',(#59,#15),#760,.T.);
#779=ADVANCED_FACE('',(#60),#761,.T.);
#780=ADVANCED_FACE('',(#61),#33,.T.);
#781=ADVANCED_FACE('',(#62),#34,.T.);
#782=ADVANCED_FACE('',(#63),#762,.T.);
#783=ADVANCED_FACE('',(#64),#35,.T.);
#784=ADVANCED_FACE('',(#65),#36,.F.);
#785=ADVANCED_FACE('',(#66,#16,#17,#18,#19,#20),#763,.T.);
#786=ADVANCED_FACE('',(#67),#37,.F.);
#787=ADVANCED_FACE('',(#68,#21),#764,.T.);
#788=ADVANCED_FACE('',(#69),#38,.F.);
#789=ADVANCED_FACE('',(#70),#39,.T.);
#790=ADVANCED_FACE('',(#71,#22,#23,#24,#25,#26),#765,.F.);
#791=ADVANCED_FACE('',(#72),#766,.T.);
#792=ADVANCED_FACE('',(#73),#40,.T.);
#793=ADVANCED_FACE('',(#74),#767,.T.);
#794=ADVANCED_FACE('',(#75),#41,.F.);
#795=ADVANCED_FACE('',(#76),#42,.F.);
#796=ADVANCED_FACE('',(#77),#43,.T.);
#797=ADVANCED_FACE('',(#78),#44,.F.);
#798=ADVANCED_FACE('',(#79),#45,.T.);
#799=ADVANCED_FACE('',(#80),#46,.F.);
#800=ADVANCED_FACE('',(#81),#768,.T.);
#801=ADVANCED_FACE('',(#82),#769,.T.);
#802=ADVANCED_FACE('',(#83),#47,.F.);
#803=ADVANCED_FACE('',(#84),#770,.F.);
#804=ADVANCED_FACE('',(#85),#48,.F.);
#805=ADVANCED_FACE('',(#86),#771,.F.);
#806=ADVANCED_FACE('',(#87),#49,.F.);
#807=ADVANCED_FACE('',(#88),#50,.F.);
#808=ADVANCED_FACE('',(#89),#51,.F.);
#809=ADVANCED_FACE('',(#90),#52,.F.);
#810=ADVANCED_FACE('',(#91),#53,.F.);
#811=ADVANCED_FACE('',(#92),#54,.F.);
#812=ADVANCED_FACE('',(#93),#772,.T.);
#813=ADVANCED_FACE('',(#94,#27),#773,.T.);
#814=CLOSED_SHELL('',(#774,#775,#776,#777,#778,#779,#780,#781,#782,#783,
#784,#785,#786,#787,#788,#789,#790,#791,#792,#793,#794,#795,#796,#797,#798,
#799,#800,#801,#802,#803,#804,#805,#806,#807,#808,#809,#810,#811,#812,#813));
#815=DERIVED_UNIT_ELEMENT(#817,1.);
#816=DERIVED_UNIT_ELEMENT(#1422,-3.);
#817=(
MASS_UNIT()
NAMED_UNIT(*)
SI_UNIT(.KILO.,.GRAM.)
);
#818=DERIVED_UNIT((#815,#816));
#819=MEASURE_REPRESENTATION_ITEM('density measure',
POSITIVE_RATIO_MEASURE(7850.),#818);
#820=PROPERTY_DEFINITION_REPRESENTATION(#825,#822);
#821=PROPERTY_DEFINITION_REPRESENTATION(#826,#823);
#822=REPRESENTATION('material name',(#824),#1419);
#823=REPRESENTATION('density',(#819),#1419);
#824=DESCRIPTIVE_REPRESENTATION_ITEM('Steel','Steel');
#825=PROPERTY_DEFINITION('material property','material name',#1429);
#826=PROPERTY_DEFINITION('material property','density of part',#1429);
#827=AXIS2_PLACEMENT_3D('',#1164,#917,#918);
#828=AXIS2_PLACEMENT_3D('',#1165,#919,#920);
#829=AXIS2_PLACEMENT_3D('',#1172,#923,#924);
#830=AXIS2_PLACEMENT_3D('',#1180,#928,#929);
#831=AXIS2_PLACEMENT_3D('',#1184,#931,#932);
#832=AXIS2_PLACEMENT_3D('',#1186,#934,#935);
#833=AXIS2_PLACEMENT_3D('',#1190,#937,#938);
#834=AXIS2_PLACEMENT_3D('',#1192,#939,#940);
#835=AXIS2_PLACEMENT_3D('',#1212,#941,#942);
#836=AXIS2_PLACEMENT_3D('',#1213,#943,#944);
#837=AXIS2_PLACEMENT_3D('',#1214,#945,#946);
#838=AXIS2_PLACEMENT_3D('',#1220,#950,#951);
#839=AXIS2_PLACEMENT_3D('',#1223,#952,#953);
#840=AXIS2_PLACEMENT_3D('',#1227,#955,#956);
#841=AXIS2_PLACEMENT_3D('',#1229,#958,#959);
#842=AXIS2_PLACEMENT_3D('',#1233,#961,#962);
#843=AXIS2_PLACEMENT_3D('',#1240,#966,#967);
#844=AXIS2_PLACEMENT_3D('',#1241,#968,#969);
#845=AXIS2_PLACEMENT_3D('',#1245,#972,#973);
#846=AXIS2_PLACEMENT_3D('',#1247,#974,#975);
#847=AXIS2_PLACEMENT_3D('',#1249,#977,#978);
#848=AXIS2_PLACEMENT_3D('',#1252,#979,#980);
#849=AXIS2_PLACEMENT_3D('',#1255,#983,#984);
#850=AXIS2_PLACEMENT_3D('',#1259,#987,#988);
#851=AXIS2_PLACEMENT_3D('',#1261,#989,#990);
#852=AXIS2_PLACEMENT_3D('',#1263,#992,#993);
#853=AXIS2_PLACEMENT_3D('',#1266,#994,#995);
#854=AXIS2_PLACEMENT_3D('',#1270,#997,#998);
#855=AXIS2_PLACEMENT_3D('',#1272,#1000,#1001);
#856=AXIS2_PLACEMENT_3D('',#1276,#1003,#1004);
#857=AXIS2_PLACEMENT_3D('',#1278,#1005,#1006);
#858=AXIS2_PLACEMENT_3D('',#1280,#1007,#1008);
#859=AXIS2_PLACEMENT_3D('',#1288,#1012,#1013);
#860=AXIS2_PLACEMENT_3D('',#1290,#1014,#1015);
#861=AXIS2_PLACEMENT_3D('',#1292,#1016,#1017);
#862=AXIS2_PLACEMENT_3D('',#1295,#1019,#1020);
#863=AXIS2_PLACEMENT_3D('',#1297,#1021,#1022);
#864=AXIS2_PLACEMENT_3D('',#1299,#1023,#1024);
#865=AXIS2_PLACEMENT_3D('',#1301,#1025,#1026);
#866=AXIS2_PLACEMENT_3D('',#1303,#1027,#1028);
#867=AXIS2_PLACEMENT_3D('',#1304,#1029,#1030);
#868=AXIS2_PLACEMENT_3D('',#1307,#1031,#1032);
#869=AXIS2_PLACEMENT_3D('',#1311,#1034,#1035);
#870=AXIS2_PLACEMENT_3D('',#1313,#1037,#1038);
#871=AXIS2_PLACEMENT_3D('',#1317,#1041,#1042);
#872=AXIS2_PLACEMENT_3D('',#1318,#1043,#1044);
#873=AXIS2_PLACEMENT_3D('',#1319,#1045,#1046);
#874=AXIS2_PLACEMENT_3D('',#1320,#1047,#1048);
#875=AXIS2_PLACEMENT_3D('',#1321,#1049,#1050);
#876=AXIS2_PLACEMENT_3D('',#1324,#1051,#1052);
#877=AXIS2_PLACEMENT_3D('',#1328,#1054,#1055);
#878=AXIS2_PLACEMENT_3D('',#1330,#1057,#1058);
#879=AXIS2_PLACEMENT_3D('',#1334,#1060,#1061);
#880=AXIS2_PLACEMENT_3D('',#1336,#1062,#1063);
#881=AXIS2_PLACEMENT_3D('',#1338,#1064,#1065);
#882=AXIS2_PLACEMENT_3D('',#1346,#1069,#1070);
#883=AXIS2_PLACEMENT_3D('',#1348,#1071,#1072);
#884=AXIS2_PLACEMENT_3D('',#1350,#1073,#1074);
#885=AXIS2_PLACEMENT_3D('',#1353,#1076,#1077);
#886=AXIS2_PLACEMENT_3D('',#1355,#1078,#1079);
#887=AXIS2_PLACEMENT_3D('',#1357,#1080,#1081);
#888=AXIS2_PLACEMENT_3D('',#1359,#1082,#1083);
#889=AXIS2_PLACEMENT_3D('',#1361,#1084,#1085);
#890=AXIS2_PLACEMENT_3D('',#1362,#1086,#1087);
#891=AXIS2_PLACEMENT_3D('',#1365,#1090,#1091);
#892=AXIS2_PLACEMENT_3D('',#1366,#1092,#1093);
#893=AXIS2_PLACEMENT_3D('',#1367,#1094,#1095);
#894=AXIS2_PLACEMENT_3D('',#1368,#1096,#1097);
#895=AXIS2_PLACEMENT_3D('',#1371,#1100,#1101);
#896=AXIS2_PLACEMENT_3D('',#1373,#1103,#1104);
#897=AXIS2_PLACEMENT_3D('',#1375,#1106,#1107);
#898=AXIS2_PLACEMENT_3D('',#1376,#1108,#1109);
#899=AXIS2_PLACEMENT_3D('',#1379,#1112,#1113);
#900=AXIS2_PLACEMENT_3D('',#1381,#1115,#1116);
#901=AXIS2_PLACEMENT_3D('',#1383,#1118,#1119);
#902=AXIS2_PLACEMENT_3D('',#1385,#1121,#1122);
#903=AXIS2_PLACEMENT_3D('',#1386,#1123,#1124);
#904=AXIS2_PLACEMENT_3D('',#1388,#1126,#1127);
#905=AXIS2_PLACEMENT_3D('',#1394,#1131,#1132);
#906=AXIS2_PLACEMENT_3D('',#1396,#1133,#1134);
#907=AXIS2_PLACEMENT_3D('',#1398,#1136,#1137);
#908=AXIS2_PLACEMENT_3D('',#1402,#1140,#1141);
#909=AXIS2_PLACEMENT_3D('',#1403,#1142,#1143);
#910=AXIS2_PLACEMENT_3D('',#1404,#1144,#1145);
#911=AXIS2_PLACEMENT_3D('',#1406,#1147,#1148);
#912=AXIS2_PLACEMENT_3D('',#1408,#1150,#1151);
#913=AXIS2_PLACEMENT_3D('',#1410,#1153,#1154);
#914=AXIS2_PLACEMENT_3D('',#1412,#1156,#1157);
#915=AXIS2_PLACEMENT_3D('',#1414,#1159,#1160);
#916=AXIS2_PLACEMENT_3D('',#1416,#1162,#1163);
#917=DIRECTION('axis',(0.,0.,1.));
#918=DIRECTION('refdir',(1.,0.,0.));
#919=DIRECTION('center_axis',(1.,0.,0.));
#920=DIRECTION('ref_axis',(0.,0.,-1.));
#921=DIRECTION('',(0.,0.,1.));
#922=DIRECTION('',(0.,0.995859195463944,0.0909090909090279));
#923=DIRECTION('center_axis',(-1.,0.,0.));
#924=DIRECTION('ref_axis',(0.,-0.0909090909090672,0.995859195463941));
#925=DIRECTION('',(0.,-0.995859195463936,0.0909090909091133));
#926=DIRECTION('',(0.,0.,1.));
#927=DIRECTION('',(0.,1.,0.));
#928=DIRECTION('center_axis',(-1.,0.,0.));
#929=DIRECTION('ref_axis',(0.,0.707106781186547,-0.707106781186547));
#930=DIRECTION('',(0.,0.,-1.));
#931=DIRECTION('center_axis',(-1.,0.,0.));
#932=DIRECTION('ref_axis',(0.,0.707106781186547,0.707106781186547));
#933=DIRECTION('',(0.,1.,0.));
#934=DIRECTION('center_axis',(0.,0.,1.));
#935=DIRECTION('ref_axis',(-0.923879532511287,-0.38268343236509,0.));
#936=DIRECTION('',(0.,0.,-1.));
#937=DIRECTION('center_axis',(0.,0.,-1.));
#938=DIRECTION('ref_axis',(-0.923879532511287,-0.38268343236509,0.));
#939=DIRECTION('center_axis',(0.,0.0909090909091133,0.995859195463936));
#940=DIRECTION('ref_axis',(7.73938065662123E-16,-0.995859195463936,0.0909090909091133));
#941=DIRECTION('center_axis',(0.,0.0909090909090279,-0.995859195463944));
#942=DIRECTION('ref_axis',(3.81440903790621E-15,-0.995859195463944,-0.0909090909090279));
#943=DIRECTION('center_axis',(0.,0.,1.));
#944=DIRECTION('ref_axis',(-0.923879532511287,-0.38268343236509,0.));
#945=DIRECTION('center_axis',(0.707106781186548,0.707106781186547,0.));
#946=DIRECTION('ref_axis',(0.,0.,-1.));
#947=DIRECTION('',(0.707106781186547,-0.707106781186548,0.));
#948=DIRECTION('',(0.,0.,1.));
#949=DIRECTION('',(-0.707106781186547,0.707106781186548,0.));
#950=DIRECTION('center_axis',(-1.,0.,0.));
#951=DIRECTION('ref_axis',(0.,0.707106781186547,-0.707106781186547));
#952=DIRECTION('center_axis',(1.,0.,0.));
#953=DIRECTION('ref_axis',(0.,0.707106781186547,-0.707106781186547));
#954=DIRECTION('',(1.,0.,0.));
#955=DIRECTION('center_axis',(-1.,0.,0.));
#956=DIRECTION('ref_axis',(0.,0.707106781186547,-0.707106781186547));
#957=DIRECTION('',(-1.,0.,0.));
#958=DIRECTION('center_axis',(1.,0.,0.));
#959=DIRECTION('ref_axis',(0.,0.,-1.));
#960=DIRECTION('',(0.,0.,-1.));
#961=DIRECTION('center_axis',(-1.,0.,0.));
#962=DIRECTION('ref_axis',(0.,0.707106781186547,0.707106781186547));
#963=DIRECTION('',(0.,1.,0.));
#964=DIRECTION('',(0.,0.,1.));
#965=DIRECTION('',(0.,1.,0.));
#966=DIRECTION('center_axis',(-1.,0.,0.));
#967=DIRECTION('ref_axis',(0.,1.,0.));
#968=DIRECTION('center_axis',(0.,1.,0.));
#969=DIRECTION('ref_axis',(0.,0.,1.));
#970=DIRECTION('',(0.,0.,1.));
#971=DIRECTION('',(-1.,0.,0.));
#972=DIRECTION('center_axis',(1.,0.,0.));
#973=DIRECTION('ref_axis',(0.,0.707106781186547,0.707106781186547));
#974=DIRECTION('center_axis',(1.,0.,0.));
#975=DIRECTION('ref_axis',(0.,0.707106781186547,0.707106781186547));
#976=DIRECTION('',(1.,0.,0.));
#977=DIRECTION('center_axis',(-1.,0.,0.));
#978=DIRECTION('ref_axis',(0.,0.707106781186547,-0.707106781186547));
#979=DIRECTION('center_axis',(1.,0.,0.));
#980=DIRECTION('ref_axis',(0.,0.707106781186547,-0.707106781186547));
#981=DIRECTION('',(1.,0.,0.));
#982=DIRECTION('',(-1.,0.,0.));
#983=DIRECTION('center_axis',(0.,1.,0.));
#984=DIRECTION('ref_axis',(0.,0.,1.));
#985=DIRECTION('',(0.,0.,1.));
#986=DIRECTION('',(-1.,0.,0.));
#987=DIRECTION('center_axis',(1.,0.,0.));
#988=DIRECTION('ref_axis',(0.,0.707106781186547,0.707106781186547));
#989=DIRECTION('center_axis',(1.,0.,0.));
#990=DIRECTION('ref_axis',(0.,0.707106781186547,0.707106781186547));
#991=DIRECTION('',(1.,0.,0.));
#992=DIRECTION('center_axis',(0.,0.,1.));
#993=DIRECTION('ref_axis',(0.38268343236509,-0.923879532511287,0.));
#994=DIRECTION('center_axis',(0.,0.,-1.));
#995=DIRECTION('ref_axis',(0.38268343236509,-0.923879532511287,0.));
#996=DIRECTION('',(0.,0.,1.));
#997=DIRECTION('center_axis',(0.,0.,1.));
#998=DIRECTION('ref_axis',(0.38268343236509,-0.923879532511287,0.));
#999=DIRECTION('',(0.,0.,-1.));
#1000=DIRECTION('center_axis',(0.,1.,0.));
#1001=DIRECTION('ref_axis',(1.,0.,0.));
#1002=DIRECTION('',(-1.,0.,0.));
#1003=DIRECTION('center_axis',(0.,1.,0.));
#1004=DIRECTION('ref_axis',(-0.280975743474508,0.,0.959714869937393));
#1005=DIRECTION('center_axis',(0.,1.,0.));
#1006=DIRECTION('ref_axis',(1.,0.,0.));
#1007=DIRECTION('center_axis',(0.,1.,0.));
#1008=DIRECTION('ref_axis',(0.280975743474508,0.,0.959714869937393));
#1009=DIRECTION('',(-1.,0.,0.));
#1010=DIRECTION('',(0.,0.,-1.));
#1011=DIRECTION('',(1.,0.,0.));
#1012=DIRECTION('center_axis',(0.,1.,0.));
#1013=DIRECTION('ref_axis',(0.280975743474508,0.,-0.959714869937393));
#1014=DIRECTION('center_axis',(0.,1.,0.));
#1015=DIRECTION('ref_axis',(1.,0.,0.));
#1016=DIRECTION('center_axis',(0.,1.,0.));
#1017=DIRECTION('ref_axis',(-0.280975743474508,0.,-0.959714869937393));
#1018=DIRECTION('',(1.,0.,0.));
#1019=DIRECTION('center_axis',(0.,-1.,0.));
#1020=DIRECTION('ref_axis',(1.,0.,0.));
#1021=DIRECTION('center_axis',(0.,-1.,0.));
#1022=DIRECTION('ref_axis',(1.,0.,0.));
#1023=DIRECTION('center_axis',(0.,-1.,0.));
#1024=DIRECTION('ref_axis',(1.,0.,0.));
#1025=DIRECTION('center_axis',(0.,-1.,0.));
#1026=DIRECTION('ref_axis',(1.,0.,0.));
#1027=DIRECTION('center_axis',(0.,-1.,0.));
#1028=DIRECTION('ref_axis',(1.,0.,0.));
#1029=DIRECTION('center_axis',(0.,0.,-1.));
#1030=DIRECTION('ref_axis',(0.923879532511287,-0.38268343236509,0.));
#1031=DIRECTION('center_axis',(0.,0.,1.));
#1032=DIRECTION('ref_axis',(0.923879532511287,-0.38268343236509,0.));
#1033=DIRECTION('',(0.,0.,-1.));
#1034=DIRECTION('center_axis',(0.,0.,-1.));
#1035=DIRECTION('ref_axis',(0.923879532511287,-0.38268343236509,0.));
#1036=DIRECTION('',(0.,0.,1.));
#1037=DIRECTION('center_axis',(-1.,0.,0.));
#1038=DIRECTION('ref_axis',(0.,0.,1.));
#1039=DIRECTION('',(0.,1.,0.));
#1040=DIRECTION('',(0.,1.,0.));
#1041=DIRECTION('center_axis',(1.,0.,0.));
#1042=DIRECTION('ref_axis',(0.,1.,0.));
#1043=DIRECTION('center_axis',(0.,0.,-1.));
#1044=DIRECTION('ref_axis',(-0.38268343236509,-0.923879532511287,0.));
#1045=DIRECTION('center_axis',(0.,0.,1.));
#1046=DIRECTION('ref_axis',(-0.38268343236509,-0.923879532511287,0.));
#1047=DIRECTION('center_axis',(0.,0.,-1.));
#1048=DIRECTION('ref_axis',(-0.38268343236509,-0.923879532511287,0.));
#1049=DIRECTION('center_axis',(0.,0.,1.));
#1050=DIRECTION('ref_axis',(-0.707106781186547,-0.707106781186547,0.));
#1051=DIRECTION('center_axis',(0.,0.,-1.));
#1052=DIRECTION('ref_axis',(-0.707106781186547,-0.707106781186547,0.));
#1053=DIRECTION('',(0.,0.,-1.));
#1054=DIRECTION('center_axis',(0.,0.,1.));
#1055=DIRECTION('ref_axis',(-0.707106781186547,-0.707106781186547,0.));
#1056=DIRECTION('',(0.,0.,1.));
#1057=DIRECTION('center_axis',(0.,1.,0.));
#1058=DIRECTION('ref_axis',(1.,0.,0.));
#1059=DIRECTION('',(-1.,0.,0.));
#1060=DIRECTION('center_axis',(0.,-1.,0.));
#1061=DIRECTION('ref_axis',(0.280975743474508,0.,0.959714869937393));
#1062=DIRECTION('center_axis',(0.,1.,0.));
#1063=DIRECTION('ref_axis',(1.,0.,0.));
#1064=DIRECTION('center_axis',(0.,-1.,0.));
#1065=DIRECTION('ref_axis',(-0.280975743474508,0.,0.959714869937393));
#1066=DIRECTION('',(-1.,0.,0.));
#1067=DIRECTION('',(0.,0.,-1.));
#1068=DIRECTION('',(1.,0.,0.));
#1069=DIRECTION('center_axis',(0.,-1.,0.));
#1070=DIRECTION('ref_axis',(-0.280975743474508,0.,-0.959714869937393));
#1071=DIRECTION('center_axis',(0.,1.,0.));
#1072=DIRECTION('ref_axis',(1.,0.,0.));
#1073=DIRECTION('center_axis',(0.,-1.,0.));
#1074=DIRECTION('ref_axis',(0.280975743474508,0.,-0.959714869937393));
#1075=DIRECTION('',(1.,0.,0.));
#1076=DIRECTION('center_axis',(0.,-1.,0.));
#1077=DIRECTION('ref_axis',(1.,0.,0.));
#1078=DIRECTION('center_axis',(0.,-1.,0.));
#1079=DIRECTION('ref_axis',(1.,0.,0.));
#1080=DIRECTION('center_axis',(0.,-1.,0.));
#1081=DIRECTION('ref_axis',(1.,0.,0.));
#1082=DIRECTION('center_axis',(0.,-1.,0.));
#1083=DIRECTION('ref_axis',(1.,0.,0.));
#1084=DIRECTION('center_axis',(0.,-1.,0.));
#1085=DIRECTION('ref_axis',(1.,0.,0.));
#1086=DIRECTION('center_axis',(0.,0.,-1.));
#1087=DIRECTION('ref_axis',(-1.,0.,0.));
#1088=DIRECTION('',(0.,1.,0.));
#1089=DIRECTION('',(0.,1.,0.));
#1090=DIRECTION('center_axis',(0.,0.,-1.));
#1091=DIRECTION('ref_axis',(0.707106781186547,-0.707106781186547,0.));
#1092=DIRECTION('center_axis',(0.,0.,1.));
#1093=DIRECTION('ref_axis',(0.707106781186547,-0.707106781186547,0.));
#1094=DIRECTION('center_axis',(0.,0.,-1.));
#1095=DIRECTION('ref_axis',(0.707106781186547,-0.707106781186547,0.));
#1096=DIRECTION('center_axis',(0.,0.,-1.));
#1097=DIRECTION('ref_axis',(-1.,0.,0.));
#1098=DIRECTION('',(0.,-1.,0.));
#1099=DIRECTION('',(-0.707106781186547,-0.707106781186548,0.));
#1100=DIRECTION('center_axis',(0.,1.,0.));
#1101=DIRECTION('ref_axis',(0.280975743474508,0.,0.959714869937393));
#1102=DIRECTION('',(0.,-1.,0.));
#1103=DIRECTION('center_axis',(0.,1.,0.));
#1104=DIRECTION('ref_axis',(-0.280975743474508,0.,0.959714869937393));
#1105=DIRECTION('',(0.,1.,0.));
#1106=DIRECTION('center_axis',(0.,1.,0.));
#1107=DIRECTION('ref_axis',(1.,0.,0.));
#1108=DIRECTION('center_axis',(0.,1.,0.));
#1109=DIRECTION('ref_axis',(0.280975743474508,0.,-0.959714869937393));
#1110=DIRECTION('',(0.,1.,0.));
#1111=DIRECTION('',(0.,-1.,0.));
#1112=DIRECTION('center_axis',(0.,1.,0.));
#1113=DIRECTION('ref_axis',(1.,0.,0.));
#1114=DIRECTION('',(0.,-1.,0.));
#1115=DIRECTION('center_axis',(0.,1.,0.));
#1116=DIRECTION('ref_axis',(-0.280975743474508,0.,-0.959714869937393));
#1117=DIRECTION('',(0.,1.,0.));
#1118=DIRECTION('center_axis',(0.,0.,1.));
#1119=DIRECTION('ref_axis',(1.,0.,0.));
#1120=DIRECTION('',(0.707106781186547,0.707106781186548,0.));
#1121=DIRECTION('center_axis',(-0.707106781186548,0.707106781186547,0.));
#1122=DIRECTION('ref_axis',(0.,0.,1.));
#1123=DIRECTION('center_axis',(-1.,0.,0.));
#1124=DIRECTION('ref_axis',(0.,1.,0.));
#1125=DIRECTION('',(-1.,0.,0.));
#1126=DIRECTION('center_axis',(0.,-0.0909090909091133,-0.995859195463936));
#1127=DIRECTION('ref_axis',(0.,0.995859195463936,-0.0909090909091133));
#1128=DIRECTION('',(-1.,0.,0.));
#1129=DIRECTION('',(1.,0.,0.));
#1130=DIRECTION('',(0.,0.995859195463936,-0.0909090909091133));
#1131=DIRECTION('center_axis',(1.,0.,0.));
#1132=DIRECTION('ref_axis',(0.,-0.0909090909090675,-0.995859195463941));
#1133=DIRECTION('center_axis',(1.,0.,0.));
#1134=DIRECTION('ref_axis',(0.,-0.0909090909090675,-0.995859195463941));
#1135=DIRECTION('',(-1.,0.,0.));
#1136=DIRECTION('center_axis',(0.,-0.0909090909090279,0.995859195463944));
#1137=DIRECTION('ref_axis',(0.,-0.995859195463944,-0.0909090909090279));
#1138=DIRECTION('',(0.,-0.995859195463944,-0.0909090909090279));
#1139=DIRECTION('',(1.,0.,0.));
#1140=DIRECTION('center_axis',(1.,0.,0.));
#1141=DIRECTION('ref_axis',(0.,1.,-3.78485122031395E-16));
#1142=DIRECTION('center_axis',(1.,0.,0.));
#1143=DIRECTION('ref_axis',(0.,-0.0909090909090672,0.995859195463941));
#1144=DIRECTION('center_axis',(0.,1.,0.));
#1145=DIRECTION('ref_axis',(1.,0.,0.));
#1146=DIRECTION('',(0.,-1.,0.));
#1147=DIRECTION('center_axis',(0.,1.,0.));
#1148=DIRECTION('ref_axis',(1.,0.,0.));
#1149=DIRECTION('',(0.,-1.,0.));
#1150=DIRECTION('center_axis',(0.,1.,0.));
#1151=DIRECTION('ref_axis',(1.,0.,0.));
#1152=DIRECTION('',(0.,-1.,0.));
#1153=DIRECTION('center_axis',(0.,1.,0.));
#1154=DIRECTION('ref_axis',(1.,0.,0.));
#1155=DIRECTION('',(0.,-1.,0.));
#1156=DIRECTION('center_axis',(0.,1.,0.));
#1157=DIRECTION('ref_axis',(1.,0.,0.));
#1158=DIRECTION('',(0.,-1.,0.));
#1159=DIRECTION('center_axis',(0.,0.,1.));
#1160=DIRECTION('ref_axis',(1.,0.,0.));
#1161=DIRECTION('',(0.,1.,0.));
#1162=DIRECTION('center_axis',(-1.,0.,0.));
#1163=DIRECTION('ref_axis',(0.,0.,1.));
#1164=CARTESIAN_POINT('',(0.,0.,0.));
#1165=CARTESIAN_POINT('Origin',(-17.,-24.,11.));
#1166=CARTESIAN_POINT('',(-17.,-14.9289321881345,2.50318956523959));
#1167=CARTESIAN_POINT('',(-17.,-14.9289321881345,11.));
#1168=CARTESIAN_POINT('',(-17.,-14.9289321881345,8.25));
#1169=CARTESIAN_POINT('',(-17.,-0.349999999999833,3.83405790253524));
#1170=CARTESIAN_POINT('',(-17.,-11.7528968485493,2.79312059839345));
#1171=CARTESIAN_POINT('',(-17.,-0.349999999999837,-3.83405790253524));
#1172=CARTESIAN_POINT('Origin',(-17.,-8.88178419700125E-15,4.60916781223331E-31));
#1173=CARTESIAN_POINT('',(-17.,-14.9289321881345,-2.50318956524022));
#1174=CARTESIAN_POINT('',(-17.,-20.1123924076495,-2.03000655054693));
#1175=CARTESIAN_POINT('',(-17.,-14.9289321881345,-11.));
#1176=CARTESIAN_POINT('',(-17.,-14.9289321881345,8.25));
#1177=CARTESIAN_POINT('',(-17.,0.999999999999996,-11.));
#1178=CARTESIAN_POINT('',(-17.,-24.,-11.));
#1179=CARTESIAN_POINT('',(-17.,6.,-6.));
#1180=CARTESIAN_POINT('Origin',(-17.,0.999999999999996,-6.));
#1181=CARTESIAN_POINT('',(-17.,6.,6.));
#1182=CARTESIAN_POINT('',(-17.,6.,11.));
#1183=CARTESIAN_POINT('',(-17.,0.999999999999996,11.));
#1184=CARTESIAN_POINT('Origin',(-17.,0.999999999999996,6.));
#1185=CARTESIAN_POINT('',(-17.,-24.,11.));
#1186=CARTESIAN_POINT('Origin',(-12.,-14.9289321881345,8.25));
#1187=CARTESIAN_POINT('',(-15.5355339059327,-18.4644660940673,11.));
#1188=CARTESIAN_POINT('',(-15.5355339059327,-18.4644660940673,-11.));
#1189=CARTESIAN_POINT('',(-15.5355339059327,-18.4644660940673,8.25));
#1190=CARTESIAN_POINT('Origin',(-12.,-14.9289321881345,-11.));
#1191=CARTESIAN_POINT('',(-16.9977990240153,-15.0772727272729,-2.48964798866046));
#1192=CARTESIAN_POINT('Origin',(-12.,-14.9289321881345,-2.50318956524022));
#1193=CARTESIAN_POINT('',(-16.9977990240153,-15.0772727272726,2.48964798865986));
#1194=CARTESIAN_POINT('Ctrl Pts',(-16.9977990240153,-15.0772727272729,-2.48964798866045));
#1195=CARTESIAN_POINT('Ctrl Pts',(-16.9904250419053,-15.3257124377278,-2.46696864972774));
#1196=CARTESIAN_POINT('Ctrl Pts',(-16.9634341160059,-15.5780019680442,-2.40516448415459));
#1197=CARTESIAN_POINT('Ctrl Pts',(-16.8660678278249,-16.1200450030346,-2.17893068142498));
#1198=CARTESIAN_POINT('Ctrl Pts',(-16.7850644818529,-16.3976547582912,-1.98753422351304));
#1199=CARTESIAN_POINT('Ctrl Pts',(-16.6278284411133,-16.8362203177509,-1.54965809059188));
#1200=CARTESIAN_POINT('Ctrl Pts',(-16.5404001781004,-17.0278275093592,-1.27197029817556));
#1201=CARTESIAN_POINT('Ctrl Pts',(-16.4125357494864,-17.284802660594,-0.657704004722569));
#1202=CARTESIAN_POINT('Ctrl Pts',(-16.3747492099943,-17.3500000000006,-0.320505610302652));
#1203=CARTESIAN_POINT('Ctrl Pts',(-16.3747492099943,-17.3500000000006,0.320505610302654));
#1204=CARTESIAN_POINT('Ctrl Pts',(-16.4125357494864,-17.284802660594,0.65770400472257));
#1205=CARTESIAN_POINT('Ctrl Pts',(-16.5404001781004,-17.0278275093592,1.27197029817556));
#1206=CARTESIAN_POINT('Ctrl Pts',(-16.6278284411133,-16.8362203177509,1.54965809059188));
#1207=CARTESIAN_POINT('Ctrl Pts',(-16.7850644818529,-16.3976547582912,1.98753422351305));
#1208=CARTESIAN_POINT('Ctrl Pts',(-16.8660678278249,-16.1200450030346,2.17893068142499));
#1209=CARTESIAN_POINT('Ctrl Pts',(-16.9634341160058,-15.5780019680445,2.40516448415448));
#1210=CARTESIAN_POINT('Ctrl Pts',(-16.9904250419053,-15.3257124377284,2.46696864972761));
#1211=CARTESIAN_POINT('Ctrl Pts',(-16.9977990240153,-15.0772727272737,2.48964798866038));
#1212=CARTESIAN_POINT('Origin',(-12.,-14.9289321881345,2.50318956523958));
#1213=CARTESIAN_POINT('Origin',(-12.,-14.9289321881345,11.));
#1214=CARTESIAN_POINT('Origin',(-15.5,-18.5,5.5));
#1215=CARTESIAN_POINT('',(-14.8786796564404,-19.1213203435596,11.));
#1216=CARTESIAN_POINT('',(-15.5,-18.5,11.));
#1217=CARTESIAN_POINT('',(-14.8786796564404,-19.1213203435596,-11.));
#1218=CARTESIAN_POINT('',(-14.8786796564404,-19.1213203435596,2.75));
#1219=CARTESIAN_POINT('',(-12.4150635094611,-21.5849364905389,-11.));
#1220=CARTESIAN_POINT('Origin',(20.,0.999999999999996,-6.));
#1221=CARTESIAN_POINT('',(17.,0.999999999999996,-11.));
#1222=CARTESIAN_POINT('',(17.,6.,-6.));
#1223=CARTESIAN_POINT('Origin',(17.,0.999999999999996,-6.));
#1224=CARTESIAN_POINT('',(21.,6.,-6.));
#1225=CARTESIAN_POINT('',(20.,6.,-6.));
#1226=CARTESIAN_POINT('',(21.,0.999999999999996,-11.));
#1227=CARTESIAN_POINT('Origin',(21.,0.999999999999996,-6.));
#1228=CARTESIAN_POINT('',(20.,0.999999999999996,-11.));
#1229=CARTESIAN_POINT('Origin',(21.,-24.,11.));
#1230=CARTESIAN_POINT('',(21.,6.,6.));
#1231=CARTESIAN_POINT('',(21.,6.,11.));
#1232=CARTESIAN_POINT('',(21.,0.999999999999996,11.));
#1233=CARTESIAN_POINT('Origin',(21.,0.999999999999996,6.));
#1234=CARTESIAN_POINT('',(21.,-19.,11.));
#1235=CARTESIAN_POINT('',(21.,-24.,11.));
#1236=CARTESIAN_POINT('',(21.,-19.,-11.));
#1237=CARTESIAN_POINT('',(21.,-19.,5.5));
#1238=CARTESIAN_POINT('',(21.,-24.,-11.));
#1239=CARTESIAN_POINT('',(21.,-2.325,-2.8473038080176E-16));
#1240=CARTESIAN_POINT('Origin',(21.,0.,0.));
#1241=CARTESIAN_POINT('Origin',(19.,6.,0.));
#1242=CARTESIAN_POINT('',(17.,6.,6.));
#1243=CARTESIAN_POINT('',(17.,6.,11.));
#1244=CARTESIAN_POINT('',(13.8301270189222,6.,6.));
#1245=CARTESIAN_POINT('Origin',(13.8301270189222,0.999999999999996,6.));
#1246=CARTESIAN_POINT('',(17.,0.999999999999996,11.));
#1247=CARTESIAN_POINT('Origin',(17.,0.999999999999996,6.));
#1248=CARTESIAN_POINT('',(13.8301270189222,0.999999999999996,11.));
#1249=CARTESIAN_POINT('Origin',(-13.8301270189222,0.999999999999996,-6.));
#1250=CARTESIAN_POINT('',(-21.,0.999999999999996,-11.));
#1251=CARTESIAN_POINT('',(-21.,6.,-6.));
#1252=CARTESIAN_POINT('Origin',(-21.,0.999999999999996,-6.));
#1253=CARTESIAN_POINT('',(-13.8301270189222,6.,-6.));
#1254=CARTESIAN_POINT('',(-13.8301270189222,0.999999999999996,-11.));
#1255=CARTESIAN_POINT('Origin',(-19.,6.,0.));
#1256=CARTESIAN_POINT('',(-21.,6.,6.));
#1257=CARTESIAN_POINT('',(-21.,6.,-11.));
#1258=CARTESIAN_POINT('',(-20.,6.,6.));
#1259=CARTESIAN_POINT('Origin',(-20.,0.999999999999996,6.));
#1260=CARTESIAN_POINT('',(-21.,0.999999999999996,11.));
#1261=CARTESIAN_POINT('Origin',(-21.,0.999999999999996,6.));
#1262=CARTESIAN_POINT('',(-20.,0.999999999999996,11.));
#1263=CARTESIAN_POINT('Origin',(12.7573593128807,-17.,-2.75));
#1264=CARTESIAN_POINT('',(14.8786796564404,-19.1213203435596,-11.));
#1265=CARTESIAN_POINT('',(12.7573593128807,-20.,-11.));
#1266=CARTESIAN_POINT('Origin',(12.7573593128807,-17.,-11.));
#1267=CARTESIAN_POINT('',(12.7573593128807,-20.,11.));
#1268=CARTESIAN_POINT('',(12.7573593128807,-20.,-2.75));
#1269=CARTESIAN_POINT('',(14.8786796564404,-19.1213203435596,11.));
#1270=CARTESIAN_POINT('Origin',(12.7573593128807,-17.,11.));
#1271=CARTESIAN_POINT('',(14.8786796564404,-19.1213203435596,-2.75));
#1272=CARTESIAN_POINT('Origin',(0.,-20.,0.));
#1273=CARTESIAN_POINT('',(10.2469507659596,-20.,-11.));
#1274=CARTESIAN_POINT('',(21.,-20.,-11.));
#1275=CARTESIAN_POINT('',(7.5503847749176,-20.,-11.7894736842105));
#1276=CARTESIAN_POINT('Origin',(10.2469507659596,-20.,-16.));
#1277=CARTESIAN_POINT('',(-7.5503847749176,-20.,-11.7894736842105));
#1278=CARTESIAN_POINT('Origin',(0.,-20.,0.));
#1279=CARTESIAN_POINT('',(-10.2469507659596,-20.,-11.));
#1280=CARTESIAN_POINT('Origin',(-10.2469507659596,-20.,-16.));
#1281=CARTESIAN_POINT('',(-12.7573593128807,-20.,-11.));
#1282=CARTESIAN_POINT('',(21.,-20.,-11.));
#1283=CARTESIAN_POINT('',(-12.7573593128807,-20.,11.));
#1284=CARTESIAN_POINT('',(-12.7573593128807,-20.,2.75));
#1285=CARTESIAN_POINT('',(-10.2469507659596,-20.,11.));
#1286=CARTESIAN_POINT('',(-21.,-20.,11.));
#1287=CARTESIAN_POINT('',(-7.5503847749176,-20.,11.7894736842105));
#1288=CARTESIAN_POINT('Origin',(-10.2469507659596,-20.,16.));
#1289=CARTESIAN_POINT('',(7.5503847749176,-20.,11.7894736842105));
#1290=CARTESIAN_POINT('Origin',(0.,-20.,0.));
#1291=CARTESIAN_POINT('',(10.2469507659596,-20.,11.));
#1292=CARTESIAN_POINT('Origin',(10.2469507659596,-20.,16.));
#1293=CARTESIAN_POINT('',(-21.,-20.,11.));
#1294=CARTESIAN_POINT('',(5.0675144212722,-20.,-6.7175144212722));
#1295=CARTESIAN_POINT('Origin',(6.7175144212722,-20.,-6.7175144212722));
#1296=CARTESIAN_POINT('',(-8.3675144212722,-20.,6.7175144212722));
#1297=CARTESIAN_POINT('Origin',(-6.7175144212722,-20.,6.7175144212722));
#1298=CARTESIAN_POINT('',(4.00685424949238,-20.,5.65685424949238));
#1299=CARTESIAN_POINT('Origin',(5.65685424949238,-20.,5.65685424949238));
#1300=CARTESIAN_POINT('',(-4.,-20.,0.));
#1301=CARTESIAN_POINT('Origin',(0.,-20.,0.));
#1302=CARTESIAN_POINT('',(-7.30685424949238,-20.,-5.65685424949238));
#1303=CARTESIAN_POINT('Origin',(-5.65685424949238,-20.,-5.65685424949238));
#1304=CARTESIAN_POINT('Origin',(14.,-15.7573593128807,-8.25));
#1305=CARTESIAN_POINT('',(16.1213203435596,-17.8786796564404,11.));
#1306=CARTESIAN_POINT('',(17.,-15.7573593128807,11.));
#1307=CARTESIAN_POINT('Origin',(14.,-15.7573593128807,11.));
#1308=CARTESIAN_POINT('',(17.,-15.7573593128807,-11.));
#1309=CARTESIAN_POINT('',(17.,-15.7573593128807,-8.25));
#1310=CARTESIAN_POINT('',(16.1213203435596,-17.8786796564404,-11.));
#1311=CARTESIAN_POINT('Origin',(14.,-15.7573593128807,-11.));
#1312=CARTESIAN_POINT('',(16.1213203435596,-17.8786796564404,-8.25));
#1313=CARTESIAN_POINT('Origin',(17.,-24.,-11.));
#1314=CARTESIAN_POINT('',(17.,-24.,-11.));
#1315=CARTESIAN_POINT('',(17.,-24.,11.));
#1316=CARTESIAN_POINT('',(17.,-2.325,-2.8473038080176E-16));
#1317=CARTESIAN_POINT('Origin',(17.,0.,0.));
#1318=CARTESIAN_POINT('Origin',(-12.7573593128807,-17.,2.75));
#1319=CARTESIAN_POINT('Origin',(-12.7573593128807,-17.,11.));
#1320=CARTESIAN_POINT('Origin',(-12.7573593128807,-17.,-11.));
#1321=CARTESIAN_POINT('Origin',(-16.,-19.,-5.5));
#1322=CARTESIAN_POINT('',(-16.,-24.,11.));
#1323=CARTESIAN_POINT('',(-21.,-19.,11.));
#1324=CARTESIAN_POINT('Origin',(-16.,-19.,11.));
#1325=CARTESIAN_POINT('',(-21.,-19.,-11.));
#1326=CARTESIAN_POINT('',(-21.,-19.,-5.5));
#1327=CARTESIAN_POINT('',(-16.,-24.,-11.));
#1328=CARTESIAN_POINT('Origin',(-16.,-19.,-11.));
#1329=CARTESIAN_POINT('',(-16.,-24.,-5.5));
#1330=CARTESIAN_POINT('Origin',(0.,-24.,0.));
#1331=CARTESIAN_POINT('',(-10.2469507659596,-24.,-11.));
#1332=CARTESIAN_POINT('',(21.,-24.,-11.));
#1333=CARTESIAN_POINT('',(-7.5503847749176,-24.,-11.7894736842105));
#1334=CARTESIAN_POINT('Origin',(-10.2469507659596,-24.,-16.));
#1335=CARTESIAN_POINT('',(7.5503847749176,-24.,-11.7894736842105));
#1336=CARTESIAN_POINT('Origin',(0.,-24.,0.));
#1337=CARTESIAN_POINT('',(10.2469507659596,-24.,-11.));
#1338=CARTESIAN_POINT('Origin',(10.2469507659596,-24.,-16.));
#1339=CARTESIAN_POINT('',(16.,-24.,-11.));
#1340=CARTESIAN_POINT('',(21.,-24.,-11.));
#1341=CARTESIAN_POINT('',(16.,-24.,11.));
#1342=CARTESIAN_POINT('',(16.,-24.,5.5));
#1343=CARTESIAN_POINT('',(10.2469507659596,-24.,11.));
#1344=CARTESIAN_POINT('',(-21.,-24.,11.));
#1345=CARTESIAN_POINT('',(7.5503847749176,-24.,11.7894736842105));
#1346=CARTESIAN_POINT('Origin',(10.2469507659596,-24.,16.));
#1347=CARTESIAN_POINT('',(-7.5503847749176,-24.,11.7894736842105));
#1348=CARTESIAN_POINT('Origin',(0.,-24.,0.));
#1349=CARTESIAN_POINT('',(-10.2469507659596,-24.,11.));
#1350=CARTESIAN_POINT('Origin',(-10.2469507659596,-24.,16.));
#1351=CARTESIAN_POINT('',(-21.,-24.,11.));
#1352=CARTESIAN_POINT('',(-7.30685424949238,-24.,-5.65685424949238));
#1353=CARTESIAN_POINT('Origin',(-5.65685424949238,-24.,-5.65685424949238));
#1354=CARTESIAN_POINT('',(-4.,-24.,4.89858719658941E-16));
#1355=CARTESIAN_POINT('Origin',(0.,-24.,0.));
#1356=CARTESIAN_POINT('',(4.00685424949238,-24.,5.65685424949238));
#1357=CARTESIAN_POINT('Origin',(5.65685424949238,-24.,5.65685424949238));
#1358=CARTESIAN_POINT('',(-8.3675144212722,-24.,6.7175144212722));
#1359=CARTESIAN_POINT('Origin',(-6.7175144212722,-24.,6.7175144212722));
#1360=CARTESIAN_POINT('',(5.0675144212722,-24.,-6.7175144212722));
#1361=CARTESIAN_POINT('Origin',(6.7175144212722,-24.,-6.7175144212722));
#1362=CARTESIAN_POINT('Origin',(-8.66025403784439,-24.,-11.));
#1363=CARTESIAN_POINT('',(-10.2469507659596,-24.,-11.));
#1364=CARTESIAN_POINT('',(-21.,-24.,-11.));
#1365=CARTESIAN_POINT('Origin',(16.,-19.,5.5));
#1366=CARTESIAN_POINT('Origin',(16.,-19.,-11.));
#1367=CARTESIAN_POINT('Origin',(16.,-19.,11.));
#1368=CARTESIAN_POINT('Origin',(21.,-24.,-11.));
#1369=CARTESIAN_POINT('',(10.2469507659596,-24.,-11.));
#1370=CARTESIAN_POINT('',(15.5,-18.5,-11.));
#1371=CARTESIAN_POINT('Origin',(-10.2469507659596,-24.,-16.));
#1372=CARTESIAN_POINT('',(-7.5503847749176,-24.,-11.7894736842105));
#1373=CARTESIAN_POINT('Origin',(10.2469507659596,-24.,-16.));
#1374=CARTESIAN_POINT('',(7.5503847749176,-24.,-11.7894736842105));
#1375=CARTESIAN_POINT('Origin',(0.,-24.,0.));
#1376=CARTESIAN_POINT('Origin',(-10.2469507659596,-24.,16.));
#1377=CARTESIAN_POINT('',(-7.5503847749176,-24.,11.7894736842105));
#1378=CARTESIAN_POINT('',(-10.2469507659596,-24.,11.));
#1379=CARTESIAN_POINT('Origin',(0.,-24.,0.));
#1380=CARTESIAN_POINT('',(7.5503847749176,-24.,11.7894736842105));
#1381=CARTESIAN_POINT('Origin',(10.2469507659596,-24.,16.));
#1382=CARTESIAN_POINT('',(10.2469507659596,-24.,11.));
#1383=CARTESIAN_POINT('Origin',(8.66025403784438,-24.,11.));
#1384=CARTESIAN_POINT('',(12.4150635094611,-21.5849364905389,11.));
#1385=CARTESIAN_POINT('Origin',(15.5,-18.5,-5.5));
#1386=CARTESIAN_POINT('Origin',(21.,0.,0.));
#1387=CARTESIAN_POINT('',(21.,-2.325,2.8473038080176E-16));
#1388=CARTESIAN_POINT('Origin',(-21.,-15.0772727272727,-2.48964798866047));
#1389=CARTESIAN_POINT('',(-21.,-15.0772727272727,-2.48964798866047));
#1390=CARTESIAN_POINT('',(-21.,-15.0772727272729,-2.48964798866045));
#1391=CARTESIAN_POINT('',(-21.,-0.349999999999837,-3.83405790253524));
#1392=CARTESIAN_POINT('',(-21.,-0.349999999999837,-3.83405790253524));
#1393=CARTESIAN_POINT('',(-21.,-19.1165332121853,-2.12091564145606));
#1394=CARTESIAN_POINT('Origin',(-21.,-14.85,1.2490009027033E-15));
#1395=CARTESIAN_POINT('',(-21.,-15.0772727272726,2.48964798865986));
#1396=CARTESIAN_POINT('Origin',(-21.,-14.85,1.2490009027033E-15));
#1397=CARTESIAN_POINT('',(-21.,-15.0772727272726,2.48964798865986));
#1398=CARTESIAN_POINT('Origin',(-21.,-0.349999999999833,3.83405790253524));
#1399=CARTESIAN_POINT('',(-21.,-0.349999999999833,3.83405790253524));
#1400=CARTESIAN_POINT('',(-21.,-12.7487560440125,2.70221150748449));
#1401=CARTESIAN_POINT('',(-21.,-0.349999999999833,3.83405790253524));
#1402=CARTESIAN_POINT('Origin',(-21.,-8.88178419700125E-15,4.60916781223331E-31));
#1403=CARTESIAN_POINT('Origin',(-21.,-8.88178419700125E-15,4.60916781223331E-31));
#1404=CARTESIAN_POINT('Origin',(-5.65685424949238,-24.,-5.65685424949238));
#1405=CARTESIAN_POINT('',(-7.30685424949238,-24.,-5.65685424949238));
#1406=CARTESIAN_POINT('Origin',(0.,-24.,0.));
#1407=CARTESIAN_POINT('',(-4.,-24.,4.89858719658941E-16));
#1408=CARTESIAN_POINT('Origin',(5.65685424949238,-24.,5.65685424949238));
#1409=CARTESIAN_POINT('',(4.00685424949238,-24.,5.65685424949238));
#1410=CARTESIAN_POINT('Origin',(-6.7175144212722,-24.,6.7175144212722));
#1411=CARTESIAN_POINT('',(-8.3675144212722,-24.,6.7175144212722));
#1412=CARTESIAN_POINT('Origin',(6.7175144212722,-24.,-6.7175144212722));
#1413=CARTESIAN_POINT('',(5.0675144212722,-24.,-6.7175144212722));
#1414=CARTESIAN_POINT('Origin',(-21.,-24.,11.));
#1415=CARTESIAN_POINT('',(-21.,-24.,11.));
#1416=CARTESIAN_POINT('Origin',(-21.,-24.,-11.));
#1417=UNCERTAINTY_MEASURE_WITH_UNIT(LENGTH_MEASURE(0.01),#1421,
'DISTANCE_ACCURACY_VALUE',
'Maximum model space distance between geometric entities at asserted c
onnectivities');
#1418=UNCERTAINTY_MEASURE_WITH_UNIT(LENGTH_MEASURE(0.01),#1421,
'DISTANCE_ACCURACY_VALUE',
'Maximum model space distance between geometric entities at asserted c
onnectivities');
#1419=(
GEOMETRIC_REPRESENTATION_CONTEXT(3)
GLOBAL_UNCERTAINTY_ASSIGNED_CONTEXT((#1417))
GLOBAL_UNIT_ASSIGNED_CONTEXT((#1421,#1423,#1424))
REPRESENTATION_CONTEXT('','3D')
);
#1420=(
GEOMETRIC_REPRESENTATION_CONTEXT(3)
GLOBAL_UNCERTAINTY_ASSIGNED_CONTEXT((#1418))
GLOBAL_UNIT_ASSIGNED_CONTEXT((#1421,#1423,#1424))
REPRESENTATION_CONTEXT('','3D')
);
#1421=(
LENGTH_UNIT()
NAMED_UNIT(*)
SI_UNIT(.MILLI.,.METRE.)
);
#1422=(
LENGTH_UNIT()
NAMED_UNIT(*)
SI_UNIT($,.METRE.)
);
#1423=(
NAMED_UNIT(*)
PLANE_ANGLE_UNIT()
SI_UNIT($,.RADIAN.)
);
#1424=(
NAMED_UNIT(*)
SI_UNIT($,.STERADIAN.)
SOLID_ANGLE_UNIT()
);
#1425=SHAPE_DEFINITION_REPRESENTATION(#1426,#1427);
#1426=PRODUCT_DEFINITION_SHAPE('',$,#1429);
#1427=SHAPE_REPRESENTATION('',(#827),#1419);
#1428=PRODUCT_DEFINITION_CONTEXT('part definition',#1433,'design');
#1429=PRODUCT_DEFINITION('motor mount','motor mount',#1430,#1428);
#1430=PRODUCT_DEFINITION_FORMATION('',$,#1435);
#1431=PRODUCT_RELATED_PRODUCT_CATEGORY('motor mount','motor mount',(#1435));
#1432=APPLICATION_PROTOCOL_DEFINITION('international standard',
'automotive_design',2009,#1433);
#1433=APPLICATION_CONTEXT(
'Core Data for Automotive Mechanical Design Process');
#1434=PRODUCT_CONTEXT('part definition',#1433,'mechanical');
#1435=PRODUCT('motor mount','motor mount',$,(#1434));
#1436=PRESENTATION_STYLE_ASSIGNMENT((#1438));
#1437=PRESENTATION_STYLE_ASSIGNMENT((#1439));
#1438=SURFACE_STYLE_USAGE(.BOTH.,#1440);
#1439=SURFACE_STYLE_USAGE(.BOTH.,#1441);
#1440=SURFACE_SIDE_STYLE('',(#1442));
#1441=SURFACE_SIDE_STYLE('',(#1443));
#1442=SURFACE_STYLE_FILL_AREA(#1444);
#1443=SURFACE_STYLE_FILL_AREA(#1445);
#1444=FILL_AREA_STYLE('Steel - Satin',(#1446));
#1445=FILL_AREA_STYLE('Paint - Enamel Glossy (Red)',(#1447));
#1446=FILL_AREA_STYLE_COLOUR('Steel - Satin',#1448);
#1447=FILL_AREA_STYLE_COLOUR('Paint - Enamel Glossy (Red)',#1449);
#1448=COLOUR_RGB('Steel - Satin',0.627450980392157,0.627450980392157,0.627450980392157);
#1449=COLOUR_RGB('Paint - Enamel Glossy (Red)',0.768627450980392,0.207843137254902,
0.152941176470588);
ENDSEC;
END-ISO-10303-21;
