ISO-10303-21;
HEADER;
/* Generated by software containing ST-Developer
 * from STEP Tools, Inc. (www.steptools.com) 
 */

FILE_DESCRIPTION(
/* description */ (''),
/* implementation_level */ '2;1');

FILE_NAME(
/* name */ 'C3.step',
/* time_stamp */ '2026-08-30T19:24:52-07:00',
/* author */ (''),
/* organization */ (''),
/* preprocessor_version */ 'ST-DEVELOPER v20.1',
/* originating_system */ 'Autodesk Translation Framework v15.8.0.0',
/* authorisation */ '');

FILE_SCHEMA (('AUTOMOTIVE_DESIGN { 1 0 10303 214 3 1 1 }'));
ENDSEC;

DATA;
#10=MECHANICAL_DESIGN_GEOMETRIC_PRESENTATION_REPRESENTATION('',(#13),#773);
#11=SHAPE_REPRESENTATION_RELATIONSHIP('SRR','None',#780,#12);
#12=ADVANCED_BREP_SHAPE_REPRESENTATION('',(#14),#772);
#13=STYLED_ITEM('',(#790),#14);
#14=MANIFOLD_SOLID_BREP('C3',#285);
#15=B_SPLINE_SURFACE_WITH_KNOTS('',3,3,((#448,#449,#450,#451,#452,#453),
(#454,#455,#456,#457,#458,#459),(#460,#461,#462,#463,#464,#465),(#466,#467,
#468,#469,#470,#471)),.UNSPECIFIED.,.F.,.F.,.F.,(4,4),(4,2,4),(0.106311710360222,
1.),(0.589232430656278,0.690924119680174,0.70215785058148),
 .UNSPECIFIED.);
#16=B_SPLINE_SURFACE_WITH_KNOTS('',3,3,((#510,#511,#512,#513,#514,#515),
(#516,#517,#518,#519,#520,#521),(#522,#523,#524,#525,#526,#527),(#528,#529,
#530,#531,#532,#533)),.UNSPECIFIED.,.F.,.F.,.F.,(4,4),(4,2,4),(0.106311710360221,
1.),(0.589232431084024,0.690924119680174,0.70215785058148),
 .UNSPECIFIED.);
#17=B_SPLINE_SURFACE_WITH_KNOTS('',3,3,((#574,#575,#576,#577,#578,#579),
(#580,#581,#582,#583,#584,#585),(#586,#587,#588,#589,#590,#591),(#592,#593,
#594,#595,#596,#597)),.UNSPECIFIED.,.F.,.F.,.F.,(4,4),(4,2,4),(0.106311710360222,
1.),(0.589232430656278,0.690924119680174,0.70215785058148),
 .UNSPECIFIED.);
#18=B_SPLINE_SURFACE_WITH_KNOTS('',3,3,((#645,#646,#647,#648,#649,#650),
(#651,#652,#653,#654,#655,#656),(#657,#658,#659,#660,#661,#662),(#663,#664,
#665,#666,#667,#668)),.UNSPECIFIED.,.F.,.F.,.F.,(4,4),(4,2,4),(0.106311710360221,
1.),(0.589232431084024,0.690924119680174,0.70215785058148),
 .UNSPECIFIED.);
#19=B_SPLINE_SURFACE_WITH_KNOTS('',3,1,((#683,#684),(#685,#686),(#687,#688),
(#689,#690),(#691,#692),(#693,#694),(#695,#696),(#697,#698),(#699,#700),
(#701,#702),(#703,#704),(#705,#706)),.UNSPECIFIED.,.F.,.F.,.F.,(4,2,2,2,
2,4),(2,2),(-15.8238784647869,-11.8255865560315,-7.83627433721037,-5.98128178669816,
-4.11192512384652,0.),(0.,0.3),.UNSPECIFIED.);
#20=B_SPLINE_SURFACE_WITH_KNOTS('',3,1,((#713,#714),(#715,#716),(#717,#718),
(#719,#720),(#721,#722),(#723,#724),(#725,#726),(#727,#728),(#729,#730),
(#731,#732),(#733,#734),(#735,#736),(#737,#738),(#739,#740),(#741,#742),
(#743,#744),(#745,#746),(#747,#748),(#749,#750),(#751,#752),(#753,#754),
(#755,#756),(#757,#758),(#759,#760),(#761,#762)),.UNSPECIFIED.,.F.,.F.,
 .F.,(4,3,3,3,3,3,3,3,4),(2,2),(-12.5557534702862,-11.1166767222862,-9.96075821292983,
-9.94521527208248,-9.81462883621717,-9.6902305390348,-5.01635338074762,
-1.98045762710186,0.),(0.,0.3),.UNSPECIFIED.);
#21=FACE_OUTER_BOUND('',#35,.T.);
#22=FACE_OUTER_BOUND('',#36,.T.);
#23=FACE_OUTER_BOUND('',#37,.T.);
#24=FACE_OUTER_BOUND('',#38,.T.);
#25=FACE_OUTER_BOUND('',#39,.T.);
#26=FACE_OUTER_BOUND('',#40,.T.);
#27=FACE_OUTER_BOUND('',#41,.T.);
#28=FACE_OUTER_BOUND('',#42,.T.);
#29=FACE_OUTER_BOUND('',#43,.T.);
#30=FACE_OUTER_BOUND('',#44,.T.);
#31=FACE_OUTER_BOUND('',#45,.T.);
#32=FACE_OUTER_BOUND('',#46,.T.);
#33=FACE_OUTER_BOUND('',#47,.T.);
#34=FACE_OUTER_BOUND('',#48,.T.);
#35=EDGE_LOOP('',(#175,#176,#177,#178,#179,#180,#181,#182));
#36=EDGE_LOOP('',(#183,#184,#185,#186));
#37=EDGE_LOOP('',(#187,#188,#189,#190));
#38=EDGE_LOOP('',(#191,#192,#193,#194,#195,#196));
#39=EDGE_LOOP('',(#197,#198,#199,#200,#201,#202,#203,#204,#205));
#40=EDGE_LOOP('',(#206,#207,#208,#209,#210,#211,#212,#213,#214,#215));
#41=EDGE_LOOP('',(#216,#217,#218,#219,#220,#221,#222,#223,#224,#225));
#42=EDGE_LOOP('',(#226,#227,#228,#229));
#43=EDGE_LOOP('',(#230,#231,#232,#233));
#44=EDGE_LOOP('',(#234,#235,#236,#237,#238,#239));
#45=EDGE_LOOP('',(#240,#241,#242,#243,#244,#245,#246,#247,#248));
#46=EDGE_LOOP('',(#249,#250,#251,#252));
#47=EDGE_LOOP('',(#253,#254,#255,#256));
#48=EDGE_LOOP('',(#257,#258,#259,#260,#261,#262));
#49=LINE('',#342,#57);
#50=LINE('',#364,#58);
#51=LINE('',#385,#59);
#52=LINE('',#428,#60);
#53=LINE('',#625,#61);
#54=LINE('',#626,#62);
#55=LINE('',#629,#63);
#56=LINE('',#639,#64);
#57=VECTOR('',#311,10.);
#58=VECTOR('',#312,10.);
#59=VECTOR('',#315,10.);
#60=VECTOR('',#318,10.);
#61=VECTOR('',#323,10.);
#62=VECTOR('',#324,10.);
#63=VECTOR('',#327,10.);
#64=VECTOR('',#328,10.);
#65=B_SPLINE_CURVE_WITH_KNOTS('',3,(#337,#338,#339,#340),.UNSPECIFIED.,
 .F.,.F.,(4,4),(-0.210000000000006,0.),.UNSPECIFIED.);
#66=B_SPLINE_CURVE_WITH_KNOTS('',3,(#344,#345,#346,#347),.UNSPECIFIED.,
 .F.,.F.,(4,4),(-0.1,-0.05),.UNSPECIFIED.);
#67=B_SPLINE_CURVE_WITH_KNOTS('',3,(#349,#350,#351,#352),.UNSPECIFIED.,
 .F.,.F.,(4,4),(4.31363079117551,4.47363079117552),.UNSPECIFIED.);
#68=B_SPLINE_CURVE_WITH_KNOTS('',3,(#354,#355,#356,#357),.UNSPECIFIED.,
 .F.,.F.,(4,4),(0.,0.160000000000005),.UNSPECIFIED.);
#69=B_SPLINE_CURVE_WITH_KNOTS('',3,(#359,#360,#361,#362),.UNSPECIFIED.,
 .F.,.F.,(4,4),(-0.210000000000005,-0.160000000000005),.UNSPECIFIED.);
#70=B_SPLINE_CURVE_WITH_KNOTS('',3,(#365,#366,#367,#368),.UNSPECIFIED.,
 .F.,.F.,(4,4),(-0.260000000000006,-0.0500000000000002),.UNSPECIFIED.);
#71=B_SPLINE_CURVE_WITH_KNOTS('',3,(#371,#372,#373,#374,#375,#376,#377,
#378,#379,#380,#381,#382,#383),.UNSPECIFIED.,.F.,.F.,(4,3,3,3,4),(-2.16492892459565,
-1.56729071058644,-0.935609483131309,-0.329918081893974,-0.0591278778182559),
 .UNSPECIFIED.);
#72=B_SPLINE_CURVE_WITH_KNOTS('',3,(#386,#387,#388,#389,#390,#391,#392,
#393,#394,#395,#396,#397,#398),.UNSPECIFIED.,.F.,.F.,(4,3,3,3,4),(-2.14047848201851,
-1.52976232031896,-0.899021025066577,-0.316620326384474,-0.0627550995842836),
 .UNSPECIFIED.);
#73=B_SPLINE_CURVE_WITH_KNOTS('',3,(#401,#402,#403,#404,#405,#406,#407,
#408,#409,#410,#411,#412,#413),.UNSPECIFIED.,.F.,.F.,(4,3,3,3,4),(-2.15480400422253,
-1.54963330852423,-0.923027122729395,-0.342631994249312,-0.0777740531219915),
 .UNSPECIFIED.);
#74=B_SPLINE_CURVE_WITH_KNOTS('',3,(#415,#416,#417,#418,#419,#420,#421,
#422,#423,#424,#425,#426,#427),.UNSPECIFIED.,.F.,.F.,(4,3,3,3,4),(-2.18385053342586,
-1.58379964556571,-0.948566242606968,-0.33761083236509,-0.0778111299679616),
 .UNSPECIFIED.);
#75=B_SPLINE_CURVE_WITH_KNOTS('',3,(#431,#432,#433,#434),.UNSPECIFIED.,
 .F.,.F.,(4,4),(-0.260000000000006,-0.0499999999999996),.UNSPECIFIED.);
#76=B_SPLINE_CURVE_WITH_KNOTS('',3,(#435,#436,#437,#438),.UNSPECIFIED.,
 .F.,.F.,(4,4),(-0.210000000000006,0.),.UNSPECIFIED.);
#77=B_SPLINE_CURVE_WITH_KNOTS('',3,(#440,#441,#442,#443),.UNSPECIFIED.,
 .F.,.F.,(4,4),(-0.260000000000006,-0.0500000000000002),.UNSPECIFIED.);
#78=B_SPLINE_CURVE_WITH_KNOTS('',3,(#444,#445,#446,#447),.UNSPECIFIED.,
 .F.,.F.,(4,4),(-0.210000000000006,0.),.UNSPECIFIED.);
#79=B_SPLINE_CURVE_WITH_KNOTS('',3,(#473,#474,#475,#476),.UNSPECIFIED.,
 .F.,.F.,(4,4),(0.589232439610038,0.62150600547759),.UNSPECIFIED.);
#80=B_SPLINE_CURVE_WITH_KNOTS('',3,(#478,#479,#480,#481,#482,#483),
 .UNSPECIFIED.,.F.,.F.,(4,2,4),(-4.54385441581405,-2.27534582778547,0.),
 .UNSPECIFIED.);
#81=B_SPLINE_CURVE_WITH_KNOTS('',3,(#485,#486,#487,#488,#489,#490,#491),
 .UNSPECIFIED.,.F.,.F.,(4,3,4),(-1.16969551737881,-0.438081059999864,0.),
 .UNSPECIFIED.);
#82=B_SPLINE_CURVE_WITH_KNOTS('',3,(#493,#494,#495,#496,#497,#498),
 .UNSPECIFIED.,.F.,.F.,(4,2,4),(-3.77190741466975,-1.33997553502865,-0.0517267708667985),
 .UNSPECIFIED.);
#83=B_SPLINE_CURVE_WITH_KNOTS('',3,(#500,#501,#502,#503),.UNSPECIFIED.,
 .F.,.F.,(4,4),(-0.983431457505082,0.),.UNSPECIFIED.);
#84=B_SPLINE_CURVE_WITH_KNOTS('',3,(#504,#505,#506,#507,#508,#509),
 .UNSPECIFIED.,.F.,.F.,(4,2,4),(0.672323846733275,0.690924119680174,0.70215785058148),
 .UNSPECIFIED.);
#85=B_SPLINE_CURVE_WITH_KNOTS('',3,(#535,#536,#537,#538),.UNSPECIFIED.,
 .F.,.F.,(4,4),(0.589232439610039,0.622009791805909),.UNSPECIFIED.);
#86=B_SPLINE_CURVE_WITH_KNOTS('',3,(#540,#541,#542,#543,#544,#545),
 .UNSPECIFIED.,.F.,.F.,(4,2,4),(-4.54385441581405,-2.27548313120986,0.),
 .UNSPECIFIED.);
#87=B_SPLINE_CURVE_WITH_KNOTS('',3,(#547,#548,#549,#550,#551,#552,#553),
 .UNSPECIFIED.,.F.,.F.,(4,3,4),(-15.8238784647869,-15.14478330712,-14.736520594289),
 .UNSPECIFIED.);
#88=B_SPLINE_CURVE_WITH_KNOTS('',3,(#555,#556,#557,#558,#559,#560,#561,
#562),.UNSPECIFIED.,.F.,.F.,(4,2,2,4),(-5.83494872042026,-3.84401883204197,
-2.5948177467355,-0.0500776911293416),.UNSPECIFIED.);
#89=B_SPLINE_CURVE_WITH_KNOTS('',3,(#564,#565,#566,#567),.UNSPECIFIED.,
 .F.,.F.,(4,4),(-1.03343145750508,-0.0499999999999992),.UNSPECIFIED.);
#90=B_SPLINE_CURVE_WITH_KNOTS('',3,(#568,#569,#570,#571,#572,#573),
 .UNSPECIFIED.,.F.,.F.,(4,2,4),(0.672831328993795,0.690924119680174,0.702157850581497),
 .UNSPECIFIED.);
#91=B_SPLINE_CURVE_WITH_KNOTS('',3,(#599,#600,#601,#602),.UNSPECIFIED.,
 .F.,.F.,(4,4),(-0.983431457505082,0.),.UNSPECIFIED.);
#92=B_SPLINE_CURVE_WITH_KNOTS('',3,(#604,#605,#606,#607,#608,#609),
 .UNSPECIFIED.,.F.,.F.,(4,2,4),(-3.77190741466975,-1.33997553502865,-0.0517267708667985),
 .UNSPECIFIED.);
#93=B_SPLINE_CURVE_WITH_KNOTS('',3,(#611,#612,#613,#614,#615,#616,#617),
 .UNSPECIFIED.,.F.,.F.,(4,3,4),(-1.16969551737881,-0.438081059999677,0.),
 .UNSPECIFIED.);
#94=B_SPLINE_CURVE_WITH_KNOTS('',3,(#618,#619,#620,#621,#622,#623),
 .UNSPECIFIED.,.F.,.F.,(4,2,4),(-4.55069165557094,-2.27534582778547,-0.00683723975688721),
 .UNSPECIFIED.);
#95=B_SPLINE_CURVE_WITH_KNOTS('',3,(#631,#632,#633,#634,#635,#636,#637,
#638),.UNSPECIFIED.,.F.,.F.,(4,2,2,4),(-5.83494872042026,-3.84401883204197,
-2.5948177467355,-0.0500776911293416),.UNSPECIFIED.);
#96=B_SPLINE_CURVE_WITH_KNOTS('',3,(#641,#642,#643,#644),.UNSPECIFIED.,
 .F.,.F.,(4,4),(-1.03343145750508,-0.0499999999999992),.UNSPECIFIED.);
#97=B_SPLINE_CURVE_WITH_KNOTS('',3,(#670,#671,#672,#673,#674,#675,#676),
 .UNSPECIFIED.,.F.,.F.,(4,3,4),(-15.8238784647869,-15.1447833071197,-14.736520594289),
 .UNSPECIFIED.);
#98=B_SPLINE_CURVE_WITH_KNOTS('',3,(#677,#678,#679,#680,#681,#682),
 .UNSPECIFIED.,.F.,.F.,(4,2,4),(-4.55096626241973,-2.27548313120986,-0.0071118466056781),
 .UNSPECIFIED.);
#99=B_SPLINE_CURVE_WITH_KNOTS('',3,(#707,#708,#709,#710,#711,#712),
 .UNSPECIFIED.,.F.,.F.,(4,2,4),(-0.3,-0.15,0.),.UNSPECIFIED.);
#100=B_SPLINE_CURVE_WITH_KNOTS('',3,(#763,#764,#765,#766,#767,#768),
 .UNSPECIFIED.,.F.,.F.,(4,2,4),(-0.3,-0.15,0.),.UNSPECIFIED.);
#101=VERTEX_POINT('',#335);
#102=VERTEX_POINT('',#336);
#103=VERTEX_POINT('',#341);
#104=VERTEX_POINT('',#343);
#105=VERTEX_POINT('',#348);
#106=VERTEX_POINT('',#353);
#107=VERTEX_POINT('',#358);
#108=VERTEX_POINT('',#363);
#109=VERTEX_POINT('',#370);
#110=VERTEX_POINT('',#384);
#111=VERTEX_POINT('',#400);
#112=VERTEX_POINT('',#414);
#113=VERTEX_POINT('',#430);
#114=VERTEX_POINT('',#439);
#115=VERTEX_POINT('',#472);
#116=VERTEX_POINT('',#477);
#117=VERTEX_POINT('',#484);
#118=VERTEX_POINT('',#492);
#119=VERTEX_POINT('',#499);
#120=VERTEX_POINT('',#534);
#121=VERTEX_POINT('',#539);
#122=VERTEX_POINT('',#546);
#123=VERTEX_POINT('',#554);
#124=VERTEX_POINT('',#563);
#125=VERTEX_POINT('',#598);
#126=VERTEX_POINT('',#603);
#127=VERTEX_POINT('',#610);
#128=VERTEX_POINT('',#628);
#129=VERTEX_POINT('',#630);
#130=VERTEX_POINT('',#669);
#131=EDGE_CURVE('',#101,#102,#65,.T.);
#132=EDGE_CURVE('',#101,#103,#49,.T.);
#133=EDGE_CURVE('',#104,#103,#66,.T.);
#134=EDGE_CURVE('',#104,#105,#67,.T.);
#135=EDGE_CURVE('',#105,#106,#68,.T.);
#136=EDGE_CURVE('',#107,#106,#69,.T.);
#137=EDGE_CURVE('',#108,#107,#50,.T.);
#138=EDGE_CURVE('',#102,#108,#70,.T.);
#139=EDGE_CURVE('',#109,#101,#71,.T.);
#140=EDGE_CURVE('',#109,#110,#51,.T.);
#141=EDGE_CURVE('',#103,#110,#72,.T.);
#142=EDGE_CURVE('',#108,#111,#73,.T.);
#143=EDGE_CURVE('',#112,#107,#74,.T.);
#144=EDGE_CURVE('',#111,#112,#52,.T.);
#145=EDGE_CURVE('',#113,#109,#75,.T.);
#146=EDGE_CURVE('',#111,#113,#76,.T.);
#147=EDGE_CURVE('',#114,#112,#77,.T.);
#148=EDGE_CURVE('',#110,#114,#78,.T.);
#149=EDGE_CURVE('',#115,#102,#79,.T.);
#150=EDGE_CURVE('',#116,#115,#80,.T.);
#151=EDGE_CURVE('',#116,#117,#81,.T.);
#152=EDGE_CURVE('',#117,#118,#82,.T.);
#153=EDGE_CURVE('',#118,#119,#83,.T.);
#154=EDGE_CURVE('',#113,#119,#84,.T.);
#155=EDGE_CURVE('',#120,#105,#85,.T.);
#156=EDGE_CURVE('',#121,#120,#86,.T.);
#157=EDGE_CURVE('',#122,#121,#87,.T.);
#158=EDGE_CURVE('',#123,#122,#88,.T.);
#159=EDGE_CURVE('',#124,#123,#89,.T.);
#160=EDGE_CURVE('',#114,#124,#90,.T.);
#161=EDGE_CURVE('',#125,#124,#91,.T.);
#162=EDGE_CURVE('',#126,#125,#92,.T.);
#163=EDGE_CURVE('',#127,#126,#93,.T.);
#164=EDGE_CURVE('',#120,#127,#94,.T.);
#165=EDGE_CURVE('',#125,#118,#53,.T.);
#166=EDGE_CURVE('',#126,#117,#54,.T.);
#167=EDGE_CURVE('',#122,#128,#55,.T.);
#168=EDGE_CURVE('',#129,#128,#95,.T.);
#169=EDGE_CURVE('',#123,#129,#56,.T.);
#170=EDGE_CURVE('',#119,#129,#96,.T.);
#171=EDGE_CURVE('',#128,#130,#97,.T.);
#172=EDGE_CURVE('',#115,#130,#98,.T.);
#173=EDGE_CURVE('',#130,#121,#99,.T.);
#174=EDGE_CURVE('',#127,#116,#100,.T.);
#175=ORIENTED_EDGE('',*,*,#131,.F.);
#176=ORIENTED_EDGE('',*,*,#132,.T.);
#177=ORIENTED_EDGE('',*,*,#133,.F.);
#178=ORIENTED_EDGE('',*,*,#134,.T.);
#179=ORIENTED_EDGE('',*,*,#135,.T.);
#180=ORIENTED_EDGE('',*,*,#136,.F.);
#181=ORIENTED_EDGE('',*,*,#137,.F.);
#182=ORIENTED_EDGE('',*,*,#138,.F.);
#183=ORIENTED_EDGE('',*,*,#139,.F.);
#184=ORIENTED_EDGE('',*,*,#140,.T.);
#185=ORIENTED_EDGE('',*,*,#141,.F.);
#186=ORIENTED_EDGE('',*,*,#132,.F.);
#187=ORIENTED_EDGE('',*,*,#142,.F.);
#188=ORIENTED_EDGE('',*,*,#137,.T.);
#189=ORIENTED_EDGE('',*,*,#143,.F.);
#190=ORIENTED_EDGE('',*,*,#144,.F.);
#191=ORIENTED_EDGE('',*,*,#145,.F.);
#192=ORIENTED_EDGE('',*,*,#146,.F.);
#193=ORIENTED_EDGE('',*,*,#144,.T.);
#194=ORIENTED_EDGE('',*,*,#147,.F.);
#195=ORIENTED_EDGE('',*,*,#148,.F.);
#196=ORIENTED_EDGE('',*,*,#140,.F.);
#197=ORIENTED_EDGE('',*,*,#145,.T.);
#198=ORIENTED_EDGE('',*,*,#139,.T.);
#199=ORIENTED_EDGE('',*,*,#131,.T.);
#200=ORIENTED_EDGE('',*,*,#149,.F.);
#201=ORIENTED_EDGE('',*,*,#150,.F.);
#202=ORIENTED_EDGE('',*,*,#151,.T.);
#203=ORIENTED_EDGE('',*,*,#152,.T.);
#204=ORIENTED_EDGE('',*,*,#153,.T.);
#205=ORIENTED_EDGE('',*,*,#154,.F.);
#206=ORIENTED_EDGE('',*,*,#147,.T.);
#207=ORIENTED_EDGE('',*,*,#143,.T.);
#208=ORIENTED_EDGE('',*,*,#136,.T.);
#209=ORIENTED_EDGE('',*,*,#135,.F.);
#210=ORIENTED_EDGE('',*,*,#155,.F.);
#211=ORIENTED_EDGE('',*,*,#156,.F.);
#212=ORIENTED_EDGE('',*,*,#157,.F.);
#213=ORIENTED_EDGE('',*,*,#158,.F.);
#214=ORIENTED_EDGE('',*,*,#159,.F.);
#215=ORIENTED_EDGE('',*,*,#160,.F.);
#216=ORIENTED_EDGE('',*,*,#148,.T.);
#217=ORIENTED_EDGE('',*,*,#160,.T.);
#218=ORIENTED_EDGE('',*,*,#161,.F.);
#219=ORIENTED_EDGE('',*,*,#162,.F.);
#220=ORIENTED_EDGE('',*,*,#163,.F.);
#221=ORIENTED_EDGE('',*,*,#164,.F.);
#222=ORIENTED_EDGE('',*,*,#155,.T.);
#223=ORIENTED_EDGE('',*,*,#134,.F.);
#224=ORIENTED_EDGE('',*,*,#133,.T.);
#225=ORIENTED_EDGE('',*,*,#141,.T.);
#226=ORIENTED_EDGE('',*,*,#162,.T.);
#227=ORIENTED_EDGE('',*,*,#165,.T.);
#228=ORIENTED_EDGE('',*,*,#152,.F.);
#229=ORIENTED_EDGE('',*,*,#166,.F.);
#230=ORIENTED_EDGE('',*,*,#158,.T.);
#231=ORIENTED_EDGE('',*,*,#167,.T.);
#232=ORIENTED_EDGE('',*,*,#168,.F.);
#233=ORIENTED_EDGE('',*,*,#169,.F.);
#234=ORIENTED_EDGE('',*,*,#159,.T.);
#235=ORIENTED_EDGE('',*,*,#169,.T.);
#236=ORIENTED_EDGE('',*,*,#170,.F.);
#237=ORIENTED_EDGE('',*,*,#153,.F.);
#238=ORIENTED_EDGE('',*,*,#165,.F.);
#239=ORIENTED_EDGE('',*,*,#161,.T.);
#240=ORIENTED_EDGE('',*,*,#146,.T.);
#241=ORIENTED_EDGE('',*,*,#154,.T.);
#242=ORIENTED_EDGE('',*,*,#170,.T.);
#243=ORIENTED_EDGE('',*,*,#168,.T.);
#244=ORIENTED_EDGE('',*,*,#171,.T.);
#245=ORIENTED_EDGE('',*,*,#172,.F.);
#246=ORIENTED_EDGE('',*,*,#149,.T.);
#247=ORIENTED_EDGE('',*,*,#138,.T.);
#248=ORIENTED_EDGE('',*,*,#142,.T.);
#249=ORIENTED_EDGE('',*,*,#173,.F.);
#250=ORIENTED_EDGE('',*,*,#171,.F.);
#251=ORIENTED_EDGE('',*,*,#167,.F.);
#252=ORIENTED_EDGE('',*,*,#157,.T.);
#253=ORIENTED_EDGE('',*,*,#174,.F.);
#254=ORIENTED_EDGE('',*,*,#163,.T.);
#255=ORIENTED_EDGE('',*,*,#166,.T.);
#256=ORIENTED_EDGE('',*,*,#151,.F.);
#257=ORIENTED_EDGE('',*,*,#164,.T.);
#258=ORIENTED_EDGE('',*,*,#174,.T.);
#259=ORIENTED_EDGE('',*,*,#150,.T.);
#260=ORIENTED_EDGE('',*,*,#172,.T.);
#261=ORIENTED_EDGE('',*,*,#173,.T.);
#262=ORIENTED_EDGE('',*,*,#156,.T.);
#263=PLANE('',#299);
#264=PLANE('',#300);
#265=PLANE('',#301);
#266=PLANE('',#302);
#267=PLANE('',#303);
#268=PLANE('',#304);
#269=PLANE('',#305);
#270=PLANE('',#306);
#271=ADVANCED_FACE('',(#21),#263,.F.);
#272=ADVANCED_FACE('',(#22),#264,.F.);
#273=ADVANCED_FACE('',(#23),#265,.F.);
#274=ADVANCED_FACE('',(#24),#266,.F.);
#275=ADVANCED_FACE('',(#25),#15,.F.);
#276=ADVANCED_FACE('',(#26),#16,.F.);
#277=ADVANCED_FACE('',(#27),#17,.T.);
#278=ADVANCED_FACE('',(#28),#267,.T.);
#279=ADVANCED_FACE('',(#29),#268,.T.);
#280=ADVANCED_FACE('',(#30),#269,.T.);
#281=ADVANCED_FACE('',(#31),#18,.T.);
#282=ADVANCED_FACE('',(#32),#19,.T.);
#283=ADVANCED_FACE('',(#33),#20,.T.);
#284=ADVANCED_FACE('',(#34),#270,.T.);
#285=CLOSED_SHELL('',(#271,#272,#273,#274,#275,#276,#277,#278,#279,#280,
#281,#282,#283,#284));
#286=DERIVED_UNIT_ELEMENT(#288,1.);
#287=DERIVED_UNIT_ELEMENT(#775,-3.);
#288=(
MASS_UNIT()
NAMED_UNIT(*)
SI_UNIT(.KILO.,.GRAM.)
);
#289=DERIVED_UNIT((#286,#287));
#290=MEASURE_REPRESENTATION_ITEM('density measure',
POSITIVE_RATIO_MEASURE(7850.),#289);
#291=PROPERTY_DEFINITION_REPRESENTATION(#296,#293);
#292=PROPERTY_DEFINITION_REPRESENTATION(#297,#294);
#293=REPRESENTATION('material name',(#295),#772);
#294=REPRESENTATION('density',(#290),#772);
#295=DESCRIPTIVE_REPRESENTATION_ITEM('Steel','Steel');
#296=PROPERTY_DEFINITION('material property','material name',#782);
#297=PROPERTY_DEFINITION('material property','density of part',#782);
#298=AXIS2_PLACEMENT_3D('',#333,#307,#308);
#299=AXIS2_PLACEMENT_3D('',#334,#309,#310);
#300=AXIS2_PLACEMENT_3D('',#369,#313,#314);
#301=AXIS2_PLACEMENT_3D('',#399,#316,#317);
#302=AXIS2_PLACEMENT_3D('',#429,#319,#320);
#303=AXIS2_PLACEMENT_3D('',#624,#321,#322);
#304=AXIS2_PLACEMENT_3D('',#627,#325,#326);
#305=AXIS2_PLACEMENT_3D('',#640,#329,#330);
#306=AXIS2_PLACEMENT_3D('',#769,#331,#332);
#307=DIRECTION('axis',(0.,0.,1.));
#308=DIRECTION('refdir',(1.,0.,0.));
#309=DIRECTION('center_axis',(-2.8965986363584E-31,-0.997564050259824,0.0697564737441259));
#310=DIRECTION('ref_axis',(1.,3.45737693157983E-17,4.94427936221779E-16));
#311=DIRECTION('',(-4.85722573273506E-16,0.0697564737441259,0.997564050259824));
#312=DIRECTION('',(-4.85722573273506E-16,0.0697564737441259,0.997564050259824));
#313=DIRECTION('center_axis',(-1.,-3.38822939294823E-17,-4.84539377497343E-16));
#314=DIRECTION('ref_axis',(0.,-0.997564050259824,0.0697564737441253));
#315=DIRECTION('',(-4.85722573273506E-16,0.0697564737441259,0.997564050259824));
#316=DIRECTION('center_axis',(1.,3.38822939294824E-17,4.84539377497343E-16));
#317=DIRECTION('ref_axis',(0.,0.997564050259824,-0.0697564737441254));
#318=DIRECTION('',(-4.85722573273506E-16,0.0697564737441259,0.997564050259824));
#319=DIRECTION('center_axis',(0.,0.997564050259824,-0.0697564737441259));
#320=DIRECTION('ref_axis',(-1.,0.,0.));
#321=DIRECTION('center_axis',(-0.707106781186548,0.707106781186547,0.));
#322=DIRECTION('ref_axis',(0.706096476214639,0.706096476214641,-0.0534371832578855));
#323=DIRECTION('',(0.,0.,-1.));
#324=DIRECTION('',(0.,0.,-1.));
#325=DIRECTION('center_axis',(0.707106781186548,0.707106781186547,0.));
#326=DIRECTION('ref_axis',(0.7059232369094,-0.705923236909401,0.0578339621909866));
#327=DIRECTION('',(0.,0.,-1.));
#328=DIRECTION('',(0.,0.,-1.));
#329=DIRECTION('center_axis',(0.,1.,0.));
#330=DIRECTION('ref_axis',(1.,0.,0.));
#331=DIRECTION('center_axis',(0.,-1.,0.));
#332=DIRECTION('ref_axis',(0.,0.,-1.));
#333=CARTESIAN_POINT('',(0.,0.,0.));
#334=CARTESIAN_POINT('Origin',(-2.1,16.3691554185134,33.9408235802165));
#335=CARTESIAN_POINT('',(-2.1,16.3913338371179,34.2579897427803));
#336=CARTESIAN_POINT('',(5.17946384379181E-14,16.3913338371178,34.2579897427803));
#337=CARTESIAN_POINT('Ctrl Pts',(-2.1,16.3913338371179,34.2579897427803));
#338=CARTESIAN_POINT('Ctrl Pts',(-1.39999999999998,16.3913338371179,34.2579897427803));
#339=CARTESIAN_POINT('Ctrl Pts',(-0.699999999999963,16.3913338371179,34.2579897427803));
#340=CARTESIAN_POINT('Ctrl Pts',(5.55384711377355E-14,16.3913338371179,
34.2579897427803));
#341=CARTESIAN_POINT('',(-2.1,16.6,37.2420548972265));
#342=CARTESIAN_POINT('',(-2.1,16.3691554185134,33.9408235802165));
#343=CARTESIAN_POINT('',(-1.6,16.6,37.2420548972265));
#344=CARTESIAN_POINT('Ctrl Pts',(-1.6,16.6,37.2420548972265));
#345=CARTESIAN_POINT('Ctrl Pts',(-1.76666666666667,16.6,37.2420548972265));
#346=CARTESIAN_POINT('Ctrl Pts',(-1.93333333333333,16.6,37.2420548972265));
#347=CARTESIAN_POINT('Ctrl Pts',(-2.1,16.6,37.2420548972265));
#348=CARTESIAN_POINT('',(-5.56253482298056E-14,16.6,37.2420548972265));
#349=CARTESIAN_POINT('Ctrl Pts',(-1.6,16.6,37.2420548972265));
#350=CARTESIAN_POINT('Ctrl Pts',(-1.06666666666665,16.6,37.2420548972265));
#351=CARTESIAN_POINT('Ctrl Pts',(-0.533333333333296,16.6,37.2420548972265));
#352=CARTESIAN_POINT('Ctrl Pts',(5.56253482298056E-14,16.6,37.2420548972265));
#353=CARTESIAN_POINT('',(1.6,16.6,37.2420548972265));
#354=CARTESIAN_POINT('Ctrl Pts',(-5.56253482298056E-14,16.6,37.2420548972265));
#355=CARTESIAN_POINT('Ctrl Pts',(0.533333333333296,16.6,37.2420548972265));
#356=CARTESIAN_POINT('Ctrl Pts',(1.06666666666665,16.6,37.2420548972265));
#357=CARTESIAN_POINT('Ctrl Pts',(1.6,16.6,37.2420548972265));
#358=CARTESIAN_POINT('',(2.1,16.6,37.2420548972265));
#359=CARTESIAN_POINT('Ctrl Pts',(2.1,16.6,37.2420548972265));
#360=CARTESIAN_POINT('Ctrl Pts',(1.93333333333333,16.6,37.2420548972265));
#361=CARTESIAN_POINT('Ctrl Pts',(1.76666666666667,16.6,37.2420548972265));
#362=CARTESIAN_POINT('Ctrl Pts',(1.6,16.6,37.2420548972265));
#363=CARTESIAN_POINT('',(2.1,16.3913338371179,34.2579897427803));
#364=CARTESIAN_POINT('',(2.1,16.3691554185134,33.9408235802165));
#365=CARTESIAN_POINT('Ctrl Pts',(-5.55384711377355E-14,16.3913338371179,
34.2579897427803));
#366=CARTESIAN_POINT('Ctrl Pts',(0.699999999999963,16.3913338371179,34.2579897427803));
#367=CARTESIAN_POINT('Ctrl Pts',(1.39999999999998,16.3913338371179,34.2579897427803));
#368=CARTESIAN_POINT('Ctrl Pts',(2.1,16.3913338371179,34.2579897427803));
#369=CARTESIAN_POINT('Origin',(-2.1,37.3571374221354,32.4732009095755));
#370=CARTESIAN_POINT('',(-2.1,37.3664680893073,32.6066356667531));
#371=CARTESIAN_POINT('Ctrl Pts',(-2.1,37.3664680893072,32.6066356667531));
#372=CARTESIAN_POINT('Ctrl Pts',(-2.10000022116337,35.4045829465765,32.7631423247887));
#373=CARTESIAN_POINT('Ctrl Pts',(-2.10000097942893,33.4308919677702,32.9207730545695));
#374=CARTESIAN_POINT('Ctrl Pts',(-2.10000128907579,31.4500126279279,33.0785070510926));
#375=CARTESIAN_POINT('Ctrl Pts',(-2.10000161636093,29.3562972939669,33.245225982713));
#376=CARTESIAN_POINT('Ctrl Pts',(-2.10000151760077,27.2545515942268,33.4120579992717));
#377=CARTESIAN_POINT('Ctrl Pts',(-2.10000119373921,25.1502855643386,33.5777804393187));
#378=CARTESIAN_POINT('Ctrl Pts',(-2.10000088320258,23.1325972354423,33.7366844126613));
#379=CARTESIAN_POINT('Ctrl Pts',(-2.10000042622359,21.112592761211,33.8945660552891));
#380=CARTESIAN_POINT('Ctrl Pts',(-2.10000018929052,19.0951699382861,34.0503656952895));
#381=CARTESIAN_POINT('Ctrl Pts',(-2.10000008336339,18.1932282286781,34.1200200047687));
#382=CARTESIAN_POINT('Ctrl Pts',(-2.10000001877192,17.2918029896445,34.1892586103756));
#383=CARTESIAN_POINT('Ctrl Pts',(-2.1,16.3913338371178,34.2579897427803));
#384=CARTESIAN_POINT('',(-2.1,37.5750848447597,35.5899942620372));
#385=CARTESIAN_POINT('',(-2.1,37.3571374221354,32.4732009095755));
#386=CARTESIAN_POINT('Ctrl Pts',(-2.1,16.6,37.2420548972265));
#387=CARTESIAN_POINT('Ctrl Pts',(-2.09999995350127,18.6587747721451,37.0847598737455));
#388=CARTESIAN_POINT('Ctrl Pts',(-2.09999984907335,20.7222499292263,36.9248549598643));
#389=CARTESIAN_POINT('Ctrl Pts',(-2.09999993961873,22.7853135006228,36.7634439049523));
#390=CARTESIAN_POINT('Ctrl Pts',(-2.10000003313305,24.9160240840622,36.5967402474629));
#391=CARTESIAN_POINT('Ctrl Pts',(-2.10000028382034,27.0462945348774,36.4284324885279));
#392=CARTESIAN_POINT('Ctrl Pts',(-2.10000039109104,29.1705350533594,36.259773207597));
#393=CARTESIAN_POINT('Ctrl Pts',(-2.10000049014042,31.1319718126851,36.1040401300378));
#394=CARTESIAN_POINT('Ctrl Pts',(-2.10000040960318,33.0882674054204,35.9480094097242));
#395=CARTESIAN_POINT('Ctrl Pts',(-2.10000021752166,35.0350634232938,35.7926649948461));
#396=CARTESIAN_POINT('Ctrl Pts',(-2.10000013379439,35.8836609846111,35.724951228011));
#397=CARTESIAN_POINT('Ctrl Pts',(-2.10000003782346,36.7304541646315,35.6573676607701));
#398=CARTESIAN_POINT('Ctrl Pts',(-2.09999999999999,37.5750848447598,35.5899942620371));
#399=CARTESIAN_POINT('Origin',(2.1,16.3691554185134,33.9408235802165));
#400=CARTESIAN_POINT('',(2.1,37.3664680893073,32.6066356667531));
#401=CARTESIAN_POINT('Ctrl Pts',(2.09999999999999,16.3913338371179,34.2579897427803));
#402=CARTESIAN_POINT('Ctrl Pts',(2.10000004303974,18.4316069493048,34.1022594981384));
#403=CARTESIAN_POINT('Ctrl Pts',(2.10000035877679,20.4767864866504,33.9439204405485));
#404=CARTESIAN_POINT('Ctrl Pts',(2.10000073409606,22.5217670703137,33.7840549879951));
#405=CARTESIAN_POINT('Ctrl Pts',(2.10000112270934,24.6391820288736,33.6185270102247));
#406=CARTESIAN_POINT('Ctrl Pts',(2.10000151835982,26.7563825694902,33.4513649734462));
#407=CARTESIAN_POINT('Ctrl Pts',(2.10000150242981,28.8677425931914,33.2838084572151));
#408=CARTESIAN_POINT('Ctrl Pts',(2.1000014876746,30.8233936863407,33.1286089268398));
#409=CARTESIAN_POINT('Ctrl Pts',(2.10000106344636,32.7740338301408,32.9730730482081));
#410=CARTESIAN_POINT('Ctrl Pts',(2.10000056047084,34.7152343810455,32.8181849652884));
#411=CARTESIAN_POINT('Ctrl Pts',(2.10000033094262,35.6010832726003,32.7475032232575));
#412=CARTESIAN_POINT('Ctrl Pts',(2.10000009939917,36.4849670157962,32.676956188615));
#413=CARTESIAN_POINT('Ctrl Pts',(2.09999999999999,37.3664680893073,32.6066356667531));
#414=CARTESIAN_POINT('',(2.1,37.5750848447597,35.5899942620372));
#415=CARTESIAN_POINT('Ctrl Pts',(2.09999999999999,37.5750848447597,35.5899942620372));
#416=CARTESIAN_POINT('Ctrl Pts',(2.10000008801565,35.6055078966919,35.7471009077931));
#417=CARTESIAN_POINT('Ctrl Pts',(2.10000040195989,33.6241684333853,35.9053525275572));
#418=CARTESIAN_POINT('Ctrl Pts',(2.10000043632605,31.6356224471057,36.0637259035522));
#419=CARTESIAN_POINT('Ctrl Pts',(2.10000047270718,29.5304829341738,36.231385114807));
#420=CARTESIAN_POINT('Ctrl Pts',(2.10000027087663,27.4172672900804,36.3991785112512));
#421=CARTESIAN_POINT('Ctrl Pts',(2.10000010179488,25.3014384892788,36.5658740833203));
#422=CARTESIAN_POINT('Ctrl Pts',(2.09999993917528,23.2664745736937,36.7261987154077));
#423=CARTESIAN_POINT('Ctrl Pts',(2.09999986112607,21.2290944784097,36.8855056141028));
#424=CARTESIAN_POINT('Ctrl Pts',(2.09999991628459,19.1941991685012,37.0427164522217));
#425=CARTESIAN_POINT('Ctrl Pts',(2.09999993973993,18.3288901998578,37.1095680231746));
#426=CARTESIAN_POINT('Ctrl Pts',(2.0999999803687,17.4640309687932,37.1760409877093));
#427=CARTESIAN_POINT('Ctrl Pts',(2.09999999999999,16.6,37.2420548972265));
#428=CARTESIAN_POINT('',(2.1,37.3571374221354,32.4732009095755));
#429=CARTESIAN_POINT('Origin',(2.1,37.3571374221354,32.4732009095755));
#430=CARTESIAN_POINT('',(5.72909411111954E-14,37.3664680893072,32.6066356667531));
#431=CARTESIAN_POINT('Ctrl Pts',(6.15844492294359E-14,37.3664680893073,
32.6066356667531));
#432=CARTESIAN_POINT('Ctrl Pts',(-0.69999999999996,37.3664680893073,32.6066356667531));
#433=CARTESIAN_POINT('Ctrl Pts',(-1.39999999999998,37.3664680893073,32.6066356667531));
#434=CARTESIAN_POINT('Ctrl Pts',(-2.1,37.3664680893073,32.6066356667531));
#435=CARTESIAN_POINT('Ctrl Pts',(2.1,37.3664680893073,32.6066356667531));
#436=CARTESIAN_POINT('Ctrl Pts',(1.39999999999998,37.3664680893073,32.6066356667531));
#437=CARTESIAN_POINT('Ctrl Pts',(0.699999999999959,37.3664680893073,32.6066356667531));
#438=CARTESIAN_POINT('Ctrl Pts',(-6.15844492294359E-14,37.3664680893073,
32.6066356667531));
#439=CARTESIAN_POINT('',(-6.16133855899638E-14,37.5750848447597,35.5899942620372));
#440=CARTESIAN_POINT('Ctrl Pts',(-6.16133855899638E-14,37.5750848447597,
35.5899942620372));
#441=CARTESIAN_POINT('Ctrl Pts',(0.699999999999959,37.5750848447597,35.5899942620372));
#442=CARTESIAN_POINT('Ctrl Pts',(1.39999999999998,37.5750848447597,35.5899942620372));
#443=CARTESIAN_POINT('Ctrl Pts',(2.1,37.5750848447597,35.5899942620372));
#444=CARTESIAN_POINT('Ctrl Pts',(-2.1,37.5750848447597,35.5899942620372));
#445=CARTESIAN_POINT('Ctrl Pts',(-1.39999999999998,37.5750848447597,35.5899942620372));
#446=CARTESIAN_POINT('Ctrl Pts',(-0.699999999999959,37.5750848447597,35.5899942620372));
#447=CARTESIAN_POINT('Ctrl Pts',(6.16133855899638E-14,37.5750848447597,
35.5899942620372));
#448=CARTESIAN_POINT('Ctrl Pts',(-45.4385443046895,2.99999627902037,35.2408584689925));
#449=CARTESIAN_POINT('Ctrl Pts',(-44.8837416380794,17.0869156605433,34.2558480480302));
#450=CARTESIAN_POINT('Ctrl Pts',(-43.8248718187662,31.1132706054935,33.0967777893471));
#451=CARTESIAN_POINT('Ctrl Pts',(-41.802128741571,46.5340465146614,31.8788405752494));
#452=CARTESIAN_POINT('Ctrl Pts',(-41.5948413152961,48.0673798479947,31.7554796061525));
#453=CARTESIAN_POINT('Ctrl Pts',(-41.3814873342449,49.6,31.6299170927095));
#454=CARTESIAN_POINT('Ctrl Pts',(-30.292362869793,2.99999627902037,35.2408584689925));
#455=CARTESIAN_POINT('Ctrl Pts',(-29.9224944253863,17.0869156605433,34.2558480480302));
#456=CARTESIAN_POINT('Ctrl Pts',(-29.2165812125107,31.1132706054935,33.0967777893471));
#457=CARTESIAN_POINT('Ctrl Pts',(-27.868085827714,46.5340465146614,31.8788405752494));
#458=CARTESIAN_POINT('Ctrl Pts',(-27.7298942101974,48.0673798479947,31.7554796061525));
#459=CARTESIAN_POINT('Ctrl Pts',(-27.5876582228299,49.6,31.6299170927095));
#460=CARTESIAN_POINT('Ctrl Pts',(-15.1461814348965,2.99999627902037,35.2408584689925));
#461=CARTESIAN_POINT('Ctrl Pts',(-14.9612472126931,17.0869156605433,34.2558480480302));
#462=CARTESIAN_POINT('Ctrl Pts',(-14.6082906062554,31.1132706054935,33.0967777893471));
#463=CARTESIAN_POINT('Ctrl Pts',(-13.9340429138569,46.5340465146614,31.8788405752494));
#464=CARTESIAN_POINT('Ctrl Pts',(-13.8649471050987,48.0673798479947,31.7554796061525));
#465=CARTESIAN_POINT('Ctrl Pts',(-13.7938291114149,49.6,31.6299170927095));
#466=CARTESIAN_POINT('Ctrl Pts',(4.90981664712708E-14,2.99999627902037,
35.2408584689926));
#467=CARTESIAN_POINT('Ctrl Pts',(5.66653571658652E-14,17.0869156605433,
34.2558480480302));
#468=CARTESIAN_POINT('Ctrl Pts',(6.20185329066655E-14,31.1132706054935,
33.0967777893471));
#469=CARTESIAN_POINT('Ctrl Pts',(6.2189496723438E-14,46.5340465146614,31.8788405752494));
#470=CARTESIAN_POINT('Ctrl Pts',(6.21804638918434E-14,48.0673798479947,
31.7554796061525));
#471=CARTESIAN_POINT('Ctrl Pts',(6.21453908842249E-14,49.6,31.6299170927095));
#472=CARTESIAN_POINT('',(4.57923025128992E-14,2.99999999999999,35.2408582088077));
#473=CARTESIAN_POINT('Ctrl Pts',(4.57923025128992E-14,2.99999999999998,
35.2408582088077));
#474=CARTESIAN_POINT('Ctrl Pts',(4.80388015060867E-14,7.47072051364435,
34.9282485944378));
#475=CARTESIAN_POINT('Ctrl Pts',(5.0070448316219E-14,11.9353408744644,34.5981073819589));
#476=CARTESIAN_POINT('Ctrl Pts',(5.17946384379181E-14,16.3913338371178,
34.2579897427803));
#477=CARTESIAN_POINT('',(-45.4385441581404,2.99999999999999,35.2408582088076));
#478=CARTESIAN_POINT('Ctrl Pts',(-45.4385441581404,2.99999999999999,35.2408582088076));
#479=CARTESIAN_POINT('Ctrl Pts',(-37.8768488647118,2.99999999999999,35.2408582088076));
#480=CARTESIAN_POINT('Ctrl Pts',(-30.3151535712832,2.99999999999998,35.2408582088076));
#481=CARTESIAN_POINT('Ctrl Pts',(-15.1689721852364,2.99999999999998,35.2408582088076));
#482=CARTESIAN_POINT('Ctrl Pts',(-7.58448609261818,2.99999999999998,35.2408582088077));
#483=CARTESIAN_POINT('Ctrl Pts',(4.90981684701012E-14,2.99999999999998,
35.2408582088077));
#484=CARTESIAN_POINT('',(-44.781978033627,14.6523365414237,34.390168327343));
#485=CARTESIAN_POINT('Ctrl Pts',(-45.4385441581416,2.99999999999999,35.2408582088076));
#486=CARTESIAN_POINT('Ctrl Pts',(-45.330229523068,5.43234005249959,35.0707798325129));
#487=CARTESIAN_POINT('Ctrl Pts',(-45.2048778533513,7.86313542486844,34.8954935587735));
#488=CARTESIAN_POINT('Ctrl Pts',(-45.0609192414278,10.2918483377087,34.7162235227591));
#489=CARTESIAN_POINT('Ctrl Pts',(-44.9747187287514,11.7461295052846,34.6088789964019));
#490=CARTESIAN_POINT('Ctrl Pts',(-44.881847640648,13.1996640229064,34.5001061760657));
#491=CARTESIAN_POINT('Ctrl Pts',(-44.7819780336295,14.6523365413869,34.3901683273458));
#492=CARTESIAN_POINT('',(-9.83431457505076,49.6,31.6299170927095));
#493=CARTESIAN_POINT('Ctrl Pts',(-44.781978033627,14.6523365414237,34.390168327343));
#494=CARTESIAN_POINT('Ctrl Pts',(-35.8280205758259,23.6062939992248,33.7125353385468));
#495=CARTESIAN_POINT('Ctrl Pts',(-26.8387749701133,32.5955396049375,32.9851732875677));
#496=CARTESIAN_POINT('Ctrl Pts',(-13.2901929565303,46.1441216185204,31.9082280430474));
#497=CARTESIAN_POINT('Ctrl Pts',(-12.6765171906823,46.7577973843684,31.8627693775148));
#498=CARTESIAN_POINT('Ctrl Pts',(-9.83431457505076,49.6,31.6299170927095));
#499=CARTESIAN_POINT('',(0.,49.6,31.6299170927095));
#500=CARTESIAN_POINT('Ctrl Pts',(-9.83431457505076,49.6,31.6299170927095));
#501=CARTESIAN_POINT('Ctrl Pts',(-6.55620971670049,49.6,31.6299170927095));
#502=CARTESIAN_POINT('Ctrl Pts',(-3.27810485835021,49.6,31.6299170927095));
#503=CARTESIAN_POINT('Ctrl Pts',(6.21453908842249E-14,49.6,31.6299170927095));
#504=CARTESIAN_POINT('Ctrl Pts',(5.72909411111954E-14,37.3664680893072,
32.6066356667531));
#505=CARTESIAN_POINT('Ctrl Pts',(5.75942934205491E-14,39.9153274385129,
32.4033039579499));
#506=CARTESIAN_POINT('Ctrl Pts',(5.77470880003344E-14,42.45999934157,32.2006099656695));
#507=CARTESIAN_POINT('Ctrl Pts',(5.77222415802723E-14,46.5340465146614,
31.8788405752494));
#508=CARTESIAN_POINT('Ctrl Pts',(5.76878039002627E-14,48.0673798479947,
31.7554796061525));
#509=CARTESIAN_POINT('Ctrl Pts',(5.76282842404794E-14,49.6,31.6299170927095));
#510=CARTESIAN_POINT('Ctrl Pts',(45.4385442976886,2.9999964567821,38.2408584565628));
#511=CARTESIAN_POINT('Ctrl Pts',(44.8837416291716,17.0869157785416,37.2558480382794));
#512=CARTESIAN_POINT('Ctrl Pts',(43.8248718111044,31.1132706639053,36.0967777847337));
#513=CARTESIAN_POINT('Ctrl Pts',(41.802128741571,46.5340465146614,34.8788405752494));
#514=CARTESIAN_POINT('Ctrl Pts',(41.5948413152962,48.0673798479947,34.7554796061525));
#515=CARTESIAN_POINT('Ctrl Pts',(41.381487334245,49.6,34.6299170927095));
#516=CARTESIAN_POINT('Ctrl Pts',(30.2923628651257,2.9999964567821,38.2408584565628));
#517=CARTESIAN_POINT('Ctrl Pts',(29.9224944194477,17.0869157785416,37.2558480382794));
#518=CARTESIAN_POINT('Ctrl Pts',(29.2165812074029,31.1132706639053,36.0967777847337));
#519=CARTESIAN_POINT('Ctrl Pts',(27.868085827714,46.5340465146614,34.8788405752494));
#520=CARTESIAN_POINT('Ctrl Pts',(27.7298942101974,48.0673798479947,34.7554796061525));
#521=CARTESIAN_POINT('Ctrl Pts',(27.58765822283,49.6,34.6299170927095));
#522=CARTESIAN_POINT('Ctrl Pts',(15.1461814325628,2.9999964567821,38.2408584565628));
#523=CARTESIAN_POINT('Ctrl Pts',(14.9612472097238,17.0869157785416,37.2558480382794));
#524=CARTESIAN_POINT('Ctrl Pts',(14.6082906037014,31.1132706639053,36.0967777847337));
#525=CARTESIAN_POINT('Ctrl Pts',(13.934042913857,46.5340465146614,34.8788405752494));
#526=CARTESIAN_POINT('Ctrl Pts',(13.8649471050987,48.0673798479947,34.7554796061525));
#527=CARTESIAN_POINT('Ctrl Pts',(13.7938291114149,49.6,34.6299170927095));
#528=CARTESIAN_POINT('Ctrl Pts',(-4.90981665667606E-14,2.9999964567821,
38.2408584565628));
#529=CARTESIAN_POINT('Ctrl Pts',(-5.66653572108994E-14,17.0869157785416,
37.2558480382794));
#530=CARTESIAN_POINT('Ctrl Pts',(-6.20185329073131E-14,31.1132706639053,
36.0967777847337));
#531=CARTESIAN_POINT('Ctrl Pts',(-6.2189496723438E-14,46.5340465146614,
34.8788405752494));
#532=CARTESIAN_POINT('Ctrl Pts',(-6.21804638918434E-14,48.0673798479947,
34.7554796061525));
#533=CARTESIAN_POINT('Ctrl Pts',(-6.21453908842249E-14,49.6,34.6299170927095));
#534=CARTESIAN_POINT('',(4.57923025128992E-14,2.99999999999999,38.2408582088077));
#535=CARTESIAN_POINT('Ctrl Pts',(-4.90981684701012E-14,3.00000000000017,
38.2408582088076));
#536=CARTESIAN_POINT('Ctrl Pts',(-5.15372317222863E-14,7.54050790192846,
37.9233687974402));
#537=CARTESIAN_POINT('Ctrl Pts',(-5.37462793088768E-14,12.0747237193733,
37.5877961839616));
#538=CARTESIAN_POINT('Ctrl Pts',(-5.56253482298057E-14,16.6000000000003,
37.2420548972265));
#539=CARTESIAN_POINT('',(45.4385441581404,2.99999999999999,38.2408582088076));
#540=CARTESIAN_POINT('Ctrl Pts',(45.4385441581404,2.99999999999999,38.2408582088076));
#541=CARTESIAN_POINT('Ctrl Pts',(37.8773065427931,2.99999999999999,38.2408582088076));
#542=CARTESIAN_POINT('Ctrl Pts',(30.3160689274459,2.99999999999998,38.2408582088076));
#543=CARTESIAN_POINT('Ctrl Pts',(15.169887541399,2.99999999999998,38.2408582088076));
#544=CARTESIAN_POINT('Ctrl Pts',(7.58494377069949,2.99999999999998,38.2408582088077));
#545=CARTESIAN_POINT('Ctrl Pts',(-4.90981684701012E-14,2.99999999999998,
38.2408582088077));
#546=CARTESIAN_POINT('',(44.781978033627,14.6523365414237,37.390168327343));
#547=CARTESIAN_POINT('Ctrl Pts',(44.7819780336295,14.6523365413869,37.3901683273458));
#548=CARTESIAN_POINT('Ctrl Pts',(44.9485111061727,12.2299978026671,37.5734902436193));
#549=CARTESIAN_POINT('Ctrl Pts',(45.09558092719,9.80522983331007,37.7535750527904));
#550=CARTESIAN_POINT('Ctrl Pts',(45.2247226344827,7.37856717467681,37.929202218146));
#551=CARTESIAN_POINT('Ctrl Pts',(45.3023608611196,5.91969080226558,38.0347868658429));
#552=CARTESIAN_POINT('Ctrl Pts',(45.3735205560341,4.46012965905936,38.1387604444192));
#553=CARTESIAN_POINT('Ctrl Pts',(45.4385441581416,2.99999999999998,38.2408582088076));
#554=CARTESIAN_POINT('',(9.83431457505076,49.6,34.6299170927095));
#555=CARTESIAN_POINT('Ctrl Pts',(9.83431457505076,49.6,34.6299170927095));
#556=CARTESIAN_POINT('Ctrl Pts',(12.6765491317403,46.7577654433104,34.8627719943404));
#557=CARTESIAN_POINT('Ctrl Pts',(13.2901560356981,46.1441585393663,34.9082250505796));
#558=CARTESIAN_POINT('Ctrl Pts',(20.9258764705791,38.5084381044852,35.5151707866876));
#559=CARTESIAN_POINT('Ctrl Pts',(23.87178775761,35.5625268229121,35.7507489685513));
#560=CARTESIAN_POINT('Ctrl Pts',(32.8436586634016,26.5906559171204,36.4658828164638));
#561=CARTESIAN_POINT('Ctrl Pts',(38.7940268153802,20.6402877596705,36.9370018587832));
#562=CARTESIAN_POINT('Ctrl Pts',(44.781978033627,14.6523365414237,37.390168327343));
#563=CARTESIAN_POINT('',(0.,49.6,34.6299170927095));
#564=CARTESIAN_POINT('Ctrl Pts',(-6.21453908842249E-14,49.6,34.6299170927095));
#565=CARTESIAN_POINT('Ctrl Pts',(3.27810485835021,49.6,34.6299170927095));
#566=CARTESIAN_POINT('Ctrl Pts',(6.55620971670048,49.6,34.6299170927095));
#567=CARTESIAN_POINT('Ctrl Pts',(9.83431457505076,49.6,34.6299170927095));
#568=CARTESIAN_POINT('Ctrl Pts',(-6.16133855899638E-14,37.5750848447597,
35.5899942620372));
#569=CARTESIAN_POINT('Ctrl Pts',(-6.19531256151982E-14,40.0541795418608,
35.392245068864));
#570=CARTESIAN_POINT('Ctrl Pts',(-6.21450977381022E-14,42.5292996835351,
35.1951366051897));
#571=CARTESIAN_POINT('Ctrl Pts',(-6.2189496723438E-14,46.5340465146638,
34.8788405752492));
#572=CARTESIAN_POINT('Ctrl Pts',(-6.21804638918433E-14,48.0673798479995,
34.7554796061522));
#573=CARTESIAN_POINT('Ctrl Pts',(-6.21453908842247E-14,49.6000000000071,
34.6299170927089));
#574=CARTESIAN_POINT('Ctrl Pts',(-45.4385443046895,2.99999627902037,38.2408584689925));
#575=CARTESIAN_POINT('Ctrl Pts',(-44.8837416380794,17.0869156605433,37.2558480480302));
#576=CARTESIAN_POINT('Ctrl Pts',(-43.8248718187662,31.1132706054935,36.0967777893471));
#577=CARTESIAN_POINT('Ctrl Pts',(-41.802128741571,46.5340465146614,34.8788405752494));
#578=CARTESIAN_POINT('Ctrl Pts',(-41.5948413152961,48.0673798479947,34.7554796061525));
#579=CARTESIAN_POINT('Ctrl Pts',(-41.3814873342449,49.6,34.6299170927095));
#580=CARTESIAN_POINT('Ctrl Pts',(-30.292362869793,2.99999627902037,38.2408584689925));
#581=CARTESIAN_POINT('Ctrl Pts',(-29.9224944253863,17.0869156605433,37.2558480480302));
#582=CARTESIAN_POINT('Ctrl Pts',(-29.2165812125107,31.1132706054935,36.0967777893471));
#583=CARTESIAN_POINT('Ctrl Pts',(-27.868085827714,46.5340465146614,34.8788405752494));
#584=CARTESIAN_POINT('Ctrl Pts',(-27.7298942101974,48.0673798479947,34.7554796061525));
#585=CARTESIAN_POINT('Ctrl Pts',(-27.5876582228299,49.6,34.6299170927095));
#586=CARTESIAN_POINT('Ctrl Pts',(-15.1461814348965,2.99999627902037,38.2408584689925));
#587=CARTESIAN_POINT('Ctrl Pts',(-14.9612472126931,17.0869156605433,37.2558480480302));
#588=CARTESIAN_POINT('Ctrl Pts',(-14.6082906062554,31.1132706054935,36.0967777893471));
#589=CARTESIAN_POINT('Ctrl Pts',(-13.9340429138569,46.5340465146614,34.8788405752494));
#590=CARTESIAN_POINT('Ctrl Pts',(-13.8649471050987,48.0673798479947,34.7554796061525));
#591=CARTESIAN_POINT('Ctrl Pts',(-13.7938291114149,49.6,34.6299170927095));
#592=CARTESIAN_POINT('Ctrl Pts',(4.90981664712708E-14,2.99999627902037,
38.2408584689926));
#593=CARTESIAN_POINT('Ctrl Pts',(5.66653571658652E-14,17.0869156605433,
37.2558480480302));
#594=CARTESIAN_POINT('Ctrl Pts',(6.20185329066655E-14,31.1132706054935,
36.0967777893471));
#595=CARTESIAN_POINT('Ctrl Pts',(6.2189496723438E-14,46.5340465146614,34.8788405752494));
#596=CARTESIAN_POINT('Ctrl Pts',(6.21804638918434E-14,48.0673798479947,
34.7554796061525));
#597=CARTESIAN_POINT('Ctrl Pts',(6.21453908842249E-14,49.6,34.6299170927095));
#598=CARTESIAN_POINT('',(-9.83431457505076,49.6,34.6299170927095));
#599=CARTESIAN_POINT('Ctrl Pts',(-9.83431457505076,49.6,34.6299170927095));
#600=CARTESIAN_POINT('Ctrl Pts',(-6.55620971670049,49.6,34.6299170927095));
#601=CARTESIAN_POINT('Ctrl Pts',(-3.27810485835021,49.6,34.6299170927095));
#602=CARTESIAN_POINT('Ctrl Pts',(6.21453908842249E-14,49.6,34.6299170927095));
#603=CARTESIAN_POINT('',(-44.781978033627,14.6523365414237,37.390168327343));
#604=CARTESIAN_POINT('Ctrl Pts',(-44.781978033627,14.6523365414237,37.390168327343));
#605=CARTESIAN_POINT('Ctrl Pts',(-35.8280205758259,23.6062939992248,36.7125353385468));
#606=CARTESIAN_POINT('Ctrl Pts',(-26.8387749701133,32.5955396049375,35.9851732875677));
#607=CARTESIAN_POINT('Ctrl Pts',(-13.2901929565303,46.1441216185204,34.9082280430474));
#608=CARTESIAN_POINT('Ctrl Pts',(-12.6765171906823,46.7577973843684,34.8627693775148));
#609=CARTESIAN_POINT('Ctrl Pts',(-9.83431457505076,49.6,34.6299170927095));
#610=CARTESIAN_POINT('',(-45.4385441581404,2.99999999999999,38.2408582088076));
#611=CARTESIAN_POINT('Ctrl Pts',(-45.4385441581416,2.99999999999999,38.2408582088076));
#612=CARTESIAN_POINT('Ctrl Pts',(-45.3302295230679,5.43234005250021,38.0707798325128));
#613=CARTESIAN_POINT('Ctrl Pts',(-45.2048778533512,7.86313542486969,37.8954935587734));
#614=CARTESIAN_POINT('Ctrl Pts',(-45.0609192414277,10.2918483377106,37.716223522759));
#615=CARTESIAN_POINT('Ctrl Pts',(-44.9747187287513,11.7461295052859,37.6088789964018));
#616=CARTESIAN_POINT('Ctrl Pts',(-44.8818476406479,13.199664022907,37.5001061760656));
#617=CARTESIAN_POINT('Ctrl Pts',(-44.7819780336295,14.6523365413869,37.3901683273458));
#618=CARTESIAN_POINT('Ctrl Pts',(4.90981684701012E-14,2.99999999999998,
38.2408582088077));
#619=CARTESIAN_POINT('Ctrl Pts',(-7.58448609261818,2.99999999999998,38.2408582088077));
#620=CARTESIAN_POINT('Ctrl Pts',(-15.1689721852364,2.99999999999998,38.2408582088076));
#621=CARTESIAN_POINT('Ctrl Pts',(-30.3151535712833,2.99999999999998,38.2408582088076));
#622=CARTESIAN_POINT('Ctrl Pts',(-37.8768488647118,2.99999999999999,38.2408582088076));
#623=CARTESIAN_POINT('Ctrl Pts',(-45.4385441581404,2.99999999999999,38.2408582088076));
#624=CARTESIAN_POINT('Origin',(-44.781978033627,14.6523365414237,37.390168327343));
#625=CARTESIAN_POINT('',(-9.83431457505076,49.6,34.6299170927095));
#626=CARTESIAN_POINT('',(-44.781978033627,14.6523365414237,37.390168327343));
#627=CARTESIAN_POINT('Origin',(9.83431457505076,49.6,34.6299170927095));
#628=CARTESIAN_POINT('',(44.781978033627,14.6523365414237,34.390168327343));
#629=CARTESIAN_POINT('',(44.781978033627,14.6523365414237,37.390168327343));
#630=CARTESIAN_POINT('',(9.83431457505076,49.6,31.6299170927095));
#631=CARTESIAN_POINT('Ctrl Pts',(9.83431457505076,49.6,31.6299170927095));
#632=CARTESIAN_POINT('Ctrl Pts',(12.6765491317403,46.7577654433104,31.8627719943404));
#633=CARTESIAN_POINT('Ctrl Pts',(13.2901560356981,46.1441585393663,31.9082250505796));
#634=CARTESIAN_POINT('Ctrl Pts',(20.9258764705791,38.5084381044852,32.5151707866876));
#635=CARTESIAN_POINT('Ctrl Pts',(23.87178775761,35.5625268229121,32.7507489685513));
#636=CARTESIAN_POINT('Ctrl Pts',(32.8436586634016,26.5906559171204,33.4658828164638));
#637=CARTESIAN_POINT('Ctrl Pts',(38.7940268153802,20.6402877596705,33.9370018587832));
#638=CARTESIAN_POINT('Ctrl Pts',(44.781978033627,14.6523365414237,34.390168327343));
#639=CARTESIAN_POINT('',(9.83431457505076,49.6,34.6299170927095));
#640=CARTESIAN_POINT('Origin',(-6.21453908842249E-14,49.6,34.6299170927095));
#641=CARTESIAN_POINT('Ctrl Pts',(-6.21453908842249E-14,49.6,31.6299170927095));
#642=CARTESIAN_POINT('Ctrl Pts',(3.27810485835021,49.6,31.6299170927095));
#643=CARTESIAN_POINT('Ctrl Pts',(6.55620971670048,49.6,31.6299170927095));
#644=CARTESIAN_POINT('Ctrl Pts',(9.83431457505076,49.6,31.6299170927095));
#645=CARTESIAN_POINT('Ctrl Pts',(45.4385442976886,2.9999964567821,35.2408584565628));
#646=CARTESIAN_POINT('Ctrl Pts',(44.8837416291716,17.0869157785416,34.2558480382794));
#647=CARTESIAN_POINT('Ctrl Pts',(43.8248718111043,31.1132706639053,33.0967777847337));
#648=CARTESIAN_POINT('Ctrl Pts',(41.802128741571,46.5340465146614,31.8788405752494));
#649=CARTESIAN_POINT('Ctrl Pts',(41.5948413152962,48.0673798479947,31.7554796061525));
#650=CARTESIAN_POINT('Ctrl Pts',(41.381487334245,49.6,31.6299170927095));
#651=CARTESIAN_POINT('Ctrl Pts',(30.2923628651257,2.9999964567821,35.2408584565628));
#652=CARTESIAN_POINT('Ctrl Pts',(29.9224944194477,17.0869157785416,34.2558480382794));
#653=CARTESIAN_POINT('Ctrl Pts',(29.2165812074029,31.1132706639053,33.0967777847337));
#654=CARTESIAN_POINT('Ctrl Pts',(27.868085827714,46.5340465146614,31.8788405752494));
#655=CARTESIAN_POINT('Ctrl Pts',(27.7298942101974,48.0673798479947,31.7554796061525));
#656=CARTESIAN_POINT('Ctrl Pts',(27.58765822283,49.6,31.6299170927095));
#657=CARTESIAN_POINT('Ctrl Pts',(15.1461814325628,2.9999964567821,35.2408584565628));
#658=CARTESIAN_POINT('Ctrl Pts',(14.9612472097238,17.0869157785416,34.2558480382794));
#659=CARTESIAN_POINT('Ctrl Pts',(14.6082906037014,31.1132706639053,33.0967777847337));
#660=CARTESIAN_POINT('Ctrl Pts',(13.934042913857,46.5340465146614,31.8788405752494));
#661=CARTESIAN_POINT('Ctrl Pts',(13.8649471050987,48.0673798479947,31.7554796061525));
#662=CARTESIAN_POINT('Ctrl Pts',(13.7938291114149,49.6,31.6299170927095));
#663=CARTESIAN_POINT('Ctrl Pts',(-4.90981665667606E-14,2.9999964567821,
35.2408584565628));
#664=CARTESIAN_POINT('Ctrl Pts',(-5.66653572108994E-14,17.0869157785416,
34.2558480382794));
#665=CARTESIAN_POINT('Ctrl Pts',(-6.20185329073131E-14,31.1132706639053,
33.0967777847337));
#666=CARTESIAN_POINT('Ctrl Pts',(-6.2189496723438E-14,46.5340465146614,
31.8788405752494));
#667=CARTESIAN_POINT('Ctrl Pts',(-6.21804638918434E-14,48.0673798479947,
31.7554796061525));
#668=CARTESIAN_POINT('Ctrl Pts',(-6.21453908842249E-14,49.6,31.6299170927095));
#669=CARTESIAN_POINT('',(45.4385441581404,2.99999999999999,35.2408582088076));
#670=CARTESIAN_POINT('Ctrl Pts',(44.7819780336295,14.6523365413869,34.3901683273458));
#671=CARTESIAN_POINT('Ctrl Pts',(44.9485111061727,12.2299978026662,34.5734902436194));
#672=CARTESIAN_POINT('Ctrl Pts',(45.0955809271901,9.80522983330827,34.7535750527906));
#673=CARTESIAN_POINT('Ctrl Pts',(45.2247226344829,7.37856717467409,34.9292022181462));
#674=CARTESIAN_POINT('Ctrl Pts',(45.3023608611197,5.91969080226372,35.034786865843));
#675=CARTESIAN_POINT('Ctrl Pts',(45.3735205560341,4.46012965905848,35.1387604444193));
#676=CARTESIAN_POINT('Ctrl Pts',(45.4385441581416,2.99999999999998,35.2408582088076));
#677=CARTESIAN_POINT('Ctrl Pts',(-4.90981684701012E-14,2.99999999999998,
35.2408582088077));
#678=CARTESIAN_POINT('Ctrl Pts',(7.58494377069949,2.99999999999998,35.2408582088077));
#679=CARTESIAN_POINT('Ctrl Pts',(15.169887541399,2.99999999999998,35.2408582088076));
#680=CARTESIAN_POINT('Ctrl Pts',(30.3160689274459,2.99999999999998,35.2408582088076));
#681=CARTESIAN_POINT('Ctrl Pts',(37.8773065427931,2.99999999999999,35.2408582088076));
#682=CARTESIAN_POINT('Ctrl Pts',(45.4385441581404,2.99999999999999,35.2408582088076));
#683=CARTESIAN_POINT('Ctrl Pts',(44.7819780336295,14.6523365413869,37.3901683273458));
#684=CARTESIAN_POINT('Ctrl Pts',(44.7819780336295,14.6523365413869,34.3901683273458));
#685=CARTESIAN_POINT('Ctrl Pts',(45.7624885994171,0.39013209778644,38.469527959049));
#686=CARTESIAN_POINT('Ctrl Pts',(45.7624885994171,0.39013209778644,35.469527959049));
#687=CARTESIAN_POINT('Ctrl Pts',(46.0685293209851,-13.9543876447822,39.4362220519454));
#688=CARTESIAN_POINT('Ctrl Pts',(46.0685293209851,-13.9543876447822,36.4362220519454));
#689=CARTESIAN_POINT('Ctrl Pts',(45.9573249059463,-42.5784407647966,40.6492302658366));
#690=CARTESIAN_POINT('Ctrl Pts',(45.9573249059463,-42.5784407647966,37.6492302658366));
#691=CARTESIAN_POINT('Ctrl Pts',(45.5406318900409,-56.9160297050184,40.9004703766613));
#692=CARTESIAN_POINT('Ctrl Pts',(45.5406318900409,-56.9160297050184,37.9004703766613));
#693=CARTESIAN_POINT('Ctrl Pts',(44.8436864491087,-77.8488233457523,40.3773811985672));
#694=CARTESIAN_POINT('Ctrl Pts',(44.8436864491087,-77.8488233457523,37.3773811985672));
#695=CARTESIAN_POINT('Ctrl Pts',(44.6425201972409,-84.1460771472875,40.0734628515183));
#696=CARTESIAN_POINT('Ctrl Pts',(44.6425201972409,-84.1460771472875,37.0734628515183));
#697=CARTESIAN_POINT('Ctrl Pts',(44.1629840680023,-96.5274253189845,39.3040370801807));
#698=CARTESIAN_POINT('Ctrl Pts',(44.1629840680023,-96.5274253189845,36.3040370801807));
#699=CARTESIAN_POINT('Ctrl Pts',(43.8710770038739,-102.733285557825,38.8346235969102));
#700=CARTESIAN_POINT('Ctrl Pts',(43.8710770038739,-102.733285557825,35.8346235969102));
#701=CARTESIAN_POINT('Ctrl Pts',(42.7738722077873,-122.562090837875,37.0674859877332));
#702=CARTESIAN_POINT('Ctrl Pts',(42.7738722077873,-122.562090837875,34.0674859877332));
#703=CARTESIAN_POINT('Ctrl Pts',(41.7740526758104,-136.12883711142,35.4536802166303));
#704=CARTESIAN_POINT('Ctrl Pts',(41.7740526758104,-136.12883711142,32.4536802166303));
#705=CARTESIAN_POINT('Ctrl Pts',(40.5334178355088,-149.630923137666,33.4485948593972));
#706=CARTESIAN_POINT('Ctrl Pts',(40.5334178355088,-149.630923137666,30.4485948593972));
#707=CARTESIAN_POINT('Ctrl Pts',(45.4385441581404,2.99999999999999,35.2408582088076));
#708=CARTESIAN_POINT('Ctrl Pts',(45.4385441581404,2.99999999999999,35.7408582088076));
#709=CARTESIAN_POINT('Ctrl Pts',(45.4385441581404,2.99999999999999,36.2408582088076));
#710=CARTESIAN_POINT('Ctrl Pts',(45.4385441581404,2.99999999999999,37.2408582088076));
#711=CARTESIAN_POINT('Ctrl Pts',(45.4385441581404,2.99999999999999,37.7408582088076));
#712=CARTESIAN_POINT('Ctrl Pts',(45.4385441581404,2.99999999999999,38.2408582088076));
#713=CARTESIAN_POINT('Ctrl Pts',(-40.5334178355088,-149.630923137666,33.4485948593972));
#714=CARTESIAN_POINT('Ctrl Pts',(-40.5334178355088,-149.630923137666,30.4485948593972));
#715=CARTESIAN_POINT('Ctrl Pts',(-42.0694424301352,-132.914049210416,35.9310823109721));
#716=CARTESIAN_POINT('Ctrl Pts',(-42.0694424301352,-132.914049210416,32.9310823109721));
#717=CARTESIAN_POINT('Ctrl Pts',(-43.0498484589213,-118.014687104619,37.512311936877));
#718=CARTESIAN_POINT('Ctrl Pts',(-43.0498484589213,-118.014687104619,34.512311936877));
#719=CARTESIAN_POINT('Ctrl Pts',(-43.670166716259,-106.30865565841,38.5109978802263));
#720=CARTESIAN_POINT('Ctrl Pts',(-43.670166716259,-106.30865565841,35.5109978802263));
#721=CARTESIAN_POINT('Ctrl Pts',(-44.1684287834801,-96.9059476801271,39.3131785620808));
#722=CARTESIAN_POINT('Ctrl Pts',(-44.1684287834801,-96.9059476801271,36.3131785620808));
#723=CARTESIAN_POINT('Ctrl Pts',(-44.441651094943,-89.5651872009697,39.7513465943514));
#724=CARTESIAN_POINT('Ctrl Pts',(-44.441651094943,-89.5651872009697,36.7513465943514));
#725=CARTESIAN_POINT('Ctrl Pts',(-44.5968935485512,-85.,40.));
#726=CARTESIAN_POINT('Ctrl Pts',(-44.5968935485512,-85.,37.));
#727=CARTESIAN_POINT('Ctrl Pts',(-44.5989810004381,-84.9386146739174,40.0033434927672));
#728=CARTESIAN_POINT('Ctrl Pts',(-44.5989810004381,-84.9386146739174,37.0033434927672));
#729=CARTESIAN_POINT('Ctrl Pts',(-44.6010463750108,-84.877730853855,40.0066467555126));
#730=CARTESIAN_POINT('Ctrl Pts',(-44.6010463750108,-84.877730853855,37.0066467555126));
#731=CARTESIAN_POINT('Ctrl Pts',(-44.6030898579173,-84.8173502852878,40.0099103442371));
#732=CARTESIAN_POINT('Ctrl Pts',(-44.6030898579173,-84.8173502852878,37.0099103442371));
#733=CARTESIAN_POINT('Ctrl Pts',(-44.6202584975026,-84.3100535438183,40.0373298926898));
#734=CARTESIAN_POINT('Ctrl Pts',(-44.6202584975026,-84.3100535438183,37.0373298926898));
#735=CARTESIAN_POINT('Ctrl Pts',(-44.6362686567394,-83.8382937914267,40.0619522465972));
#736=CARTESIAN_POINT('Ctrl Pts',(-44.6362686567394,-83.8382937914267,37.0619522465972));
#737=CARTESIAN_POINT('Ctrl Pts',(-44.6510591412321,-83.4030976423477,40.0840803706063));
#738=CARTESIAN_POINT('Ctrl Pts',(-44.6510591412321,-83.4030976423477,37.0840803706063));
#739=CARTESIAN_POINT('Ctrl Pts',(-44.665148744591,-82.9885242639795,40.1051599025526));
#740=CARTESIAN_POINT('Ctrl Pts',(-44.665148744591,-82.9885242639795,37.1051599025526));
#741=CARTESIAN_POINT('Ctrl Pts',(-44.679211802468,-82.5753686857261,40.1255892916479));
#742=CARTESIAN_POINT('Ctrl Pts',(-44.679211802468,-82.5753686857261,37.1255892916479));
#743=CARTESIAN_POINT('Ctrl Pts',(-44.693314912906,-82.1614535403745,40.1454858909202));
#744=CARTESIAN_POINT('Ctrl Pts',(-44.693314912906,-82.1614535403745,37.1454858909202));
#745=CARTESIAN_POINT('Ctrl Pts',(-45.2231952025072,-66.6098858168074,40.8930384135273));
#746=CARTESIAN_POINT('Ctrl Pts',(-45.2231952025072,-66.6098858168074,37.8930384135273));
#747=CARTESIAN_POINT('Ctrl Pts',(-45.7740859902146,-51.0147757087808,40.8388827775554));
#748=CARTESIAN_POINT('Ctrl Pts',(-45.7740859902146,-51.0147757087808,37.8388827775554));
#749=CARTESIAN_POINT('Ctrl Pts',(-45.9564409755546,-35.4319825318391,40.3155180987983));
#750=CARTESIAN_POINT('Ctrl Pts',(-45.9564409755546,-35.4319825318391,37.3155180987983));
#751=CARTESIAN_POINT('Ctrl Pts',(-46.074888830922,-25.3102497533178,39.9755689405219));
#752=CARTESIAN_POINT('Ctrl Pts',(-46.074888830922,-25.3102497533178,36.9755689405219));
#753=CARTESIAN_POINT('Ctrl Pts',(-46.0383341075947,-15.1966756673496,39.4371211136319));
#754=CARTESIAN_POINT('Ctrl Pts',(-46.0383341075947,-15.1966756673496,36.4371211136319));
#755=CARTESIAN_POINT('Ctrl Pts',(-45.7378840201618,-5.09154146116419,38.7854536305053));
#756=CARTESIAN_POINT('Ctrl Pts',(-45.7378840201618,-5.09154146116419,35.7854536305053));
#757=CARTESIAN_POINT('Ctrl Pts',(-45.5418862931301,1.50051298849693,38.3603402728603));
#758=CARTESIAN_POINT('Ctrl Pts',(-45.5418862931301,1.50051298849693,35.3603402728603));
#759=CARTESIAN_POINT('Ctrl Pts',(-45.2334717221451,8.0850485229945,37.887178842435));
#760=CARTESIAN_POINT('Ctrl Pts',(-45.2334717221451,8.0850485229945,34.887178842435));
#761=CARTESIAN_POINT('Ctrl Pts',(-44.7819780336295,14.6523365413869,37.3901683273458));
#762=CARTESIAN_POINT('Ctrl Pts',(-44.7819780336295,14.6523365413869,34.3901683273458));
#763=CARTESIAN_POINT('Ctrl Pts',(-45.4385441581404,2.99999999999999,38.2408582088076));
#764=CARTESIAN_POINT('Ctrl Pts',(-45.4385441581404,2.99999999999999,37.7408582088076));
#765=CARTESIAN_POINT('Ctrl Pts',(-45.4385441581404,2.99999999999999,37.2408582088076));
#766=CARTESIAN_POINT('Ctrl Pts',(-45.4385441581404,2.99999999999999,36.2408582088076));
#767=CARTESIAN_POINT('Ctrl Pts',(-45.4385441581404,2.99999999999999,35.7408582088076));
#768=CARTESIAN_POINT('Ctrl Pts',(-45.4385441581404,2.99999999999999,35.2408582088076));
#769=CARTESIAN_POINT('Origin',(0.00143879006058167,2.99999999999999,40.9275718733402));
#770=UNCERTAINTY_MEASURE_WITH_UNIT(LENGTH_MEASURE(0.01),#774,
'DISTANCE_ACCURACY_VALUE',
'Maximum model space distance between geometric entities at asserted c
onnectivities');
#771=UNCERTAINTY_MEASURE_WITH_UNIT(LENGTH_MEASURE(0.01),#774,
'DISTANCE_ACCURACY_VALUE',
'Maximum model space distance between geometric entities at asserted c
onnectivities');
#772=(
GEOMETRIC_REPRESENTATION_CONTEXT(3)
GLOBAL_UNCERTAINTY_ASSIGNED_CONTEXT((#770))
GLOBAL_UNIT_ASSIGNED_CONTEXT((#774,#776,#777))
REPRESENTATION_CONTEXT('','3D')
);
#773=(
GEOMETRIC_REPRESENTATION_CONTEXT(3)
GLOBAL_UNCERTAINTY_ASSIGNED_CONTEXT((#771))
GLOBAL_UNIT_ASSIGNED_CONTEXT((#774,#776,#777))
REPRESENTATION_CONTEXT('','3D')
);
#774=(
LENGTH_UNIT()
NAMED_UNIT(*)
SI_UNIT(.MILLI.,.METRE.)
);
#775=(
LENGTH_UNIT()
NAMED_UNIT(*)
SI_UNIT($,.METRE.)
);
#776=(
NAMED_UNIT(*)
PLANE_ANGLE_UNIT()
SI_UNIT($,.RADIAN.)
);
#777=(
NAMED_UNIT(*)
SI_UNIT($,.STERADIAN.)
SOLID_ANGLE_UNIT()
);
#778=SHAPE_DEFINITION_REPRESENTATION(#779,#780);
#779=PRODUCT_DEFINITION_SHAPE('',$,#782);
#780=SHAPE_REPRESENTATION('',(#298),#772);
#781=PRODUCT_DEFINITION_CONTEXT('part definition',#786,'design');
#782=PRODUCT_DEFINITION('C3','C3',#783,#781);
#783=PRODUCT_DEFINITION_FORMATION('',$,#788);
#784=PRODUCT_RELATED_PRODUCT_CATEGORY('C3','C3',(#788));
#785=APPLICATION_PROTOCOL_DEFINITION('international standard',
'automotive_design',2009,#786);
#786=APPLICATION_CONTEXT(
'Core Data for Automotive Mechanical Design Process');
#787=PRODUCT_CONTEXT('part definition',#786,'mechanical');
#788=PRODUCT('C3','C3',$,(#787));
#789=PRESENTATION_STYLE_ASSIGNMENT((#791));
#790=PRESENTATION_STYLE_ASSIGNMENT((#792));
#791=SURFACE_STYLE_USAGE(.BOTH.,#793);
#792=SURFACE_STYLE_USAGE(.BOTH.,#794);
#793=SURFACE_SIDE_STYLE('',(#795));
#794=SURFACE_SIDE_STYLE('',(#796));
#795=SURFACE_STYLE_FILL_AREA(#797);
#796=SURFACE_STYLE_FILL_AREA(#798);
#797=FILL_AREA_STYLE('Steel - Satin',(#799));
#798=FILL_AREA_STYLE('Paint - Enamel Glossy (Red)',(#800));
#799=FILL_AREA_STYLE_COLOUR('Steel - Satin',#801);
#800=FILL_AREA_STYLE_COLOUR('Paint - Enamel Glossy (Red)',#802);
#801=COLOUR_RGB('Steel - Satin',0.627450980392157,0.627450980392157,0.627450980392157);
#802=COLOUR_RGB('Paint - Enamel Glossy (Red)',0.768627450980392,0.207843137254902,
0.152941176470588);
ENDSEC;
END-ISO-10303-21;
