ISO-10303-21;
HEADER;
/* Generated by software containing ST-Developer
 * from STEP Tools, Inc. (www.steptools.com) 
 */

FILE_DESCRIPTION(
/* description */ (''),
/* implementation_level */ '2;1');

FILE_NAME(
/* name */ 'ESC Mount.step',
/* time_stamp */ '2026-08-30T15:32:29-07:00',
/* author */ (''),
/* organization */ (''),
/* preprocessor_version */ 'ST-DEVELOPER v20.1',
/* originating_system */ 'Autodesk Translation Framework v15.8.0.0',
/* authorisation */ '');

FILE_SCHEMA (('AUTOMOTIVE_DESIGN { 1 0 10303 214 3 1 1 }'));
ENDSEC;

DATA;
#10=MECHANICAL_DESIGN_GEOMETRIC_PRESENTATION_REPRESENTATION('',(#13),#1531);
#11=SHAPE_REPRESENTATION_RELATIONSHIP('SRR','None',#1538,#12);
#12=ADVANCED_BREP_SHAPE_REPRESENTATION('',(#14),#1530);
#13=STYLED_ITEM('',(#1548),#14);
#14=MANIFOLD_SOLID_BREP('Body1',#893);
#15=FACE_BOUND('',#129,.T.);
#16=FACE_BOUND('',#133,.T.);
#17=FACE_BOUND('',#137,.T.);
#18=FACE_BOUND('',#141,.T.);
#19=FACE_BOUND('',#144,.T.);
#20=FACE_BOUND('',#145,.T.);
#21=FACE_BOUND('',#146,.T.);
#22=FACE_BOUND('',#147,.T.);
#23=FACE_BOUND('',#149,.T.);
#24=FACE_BOUND('',#150,.T.);
#25=FACE_BOUND('',#151,.T.);
#26=FACE_BOUND('',#152,.T.);
#27=FACE_BOUND('',#153,.T.);
#28=FACE_BOUND('',#154,.T.);
#29=FACE_BOUND('',#155,.T.);
#30=FACE_BOUND('',#156,.T.);
#31=CONICAL_SURFACE('',#955,1.7,0.785398163397448);
#32=CONICAL_SURFACE('',#962,1.7,0.785398163397449);
#33=CONICAL_SURFACE('',#969,1.7,0.785398163397449);
#34=CONICAL_SURFACE('',#976,1.7,0.785398163397448);
#35=PLANE('',#910);
#36=PLANE('',#914);
#37=PLANE('',#918);
#38=PLANE('',#922);
#39=PLANE('',#926);
#40=PLANE('',#930);
#41=PLANE('',#934);
#42=PLANE('',#938);
#43=PLANE('',#942);
#44=PLANE('',#946);
#45=PLANE('',#950);
#46=PLANE('',#954);
#47=PLANE('',#958);
#48=PLANE('',#965);
#49=PLANE('',#972);
#50=PLANE('',#979);
#51=PLANE('',#983);
#52=PLANE('',#990);
#53=PLANE('',#995);
#54=PLANE('',#997);
#55=PLANE('',#999);
#56=PLANE('',#1001);
#57=FACE_OUTER_BOUND('',#103,.T.);
#58=FACE_OUTER_BOUND('',#104,.T.);
#59=FACE_OUTER_BOUND('',#105,.T.);
#60=FACE_OUTER_BOUND('',#106,.T.);
#61=FACE_OUTER_BOUND('',#107,.T.);
#62=FACE_OUTER_BOUND('',#108,.T.);
#63=FACE_OUTER_BOUND('',#109,.T.);
#64=FACE_OUTER_BOUND('',#110,.T.);
#65=FACE_OUTER_BOUND('',#111,.T.);
#66=FACE_OUTER_BOUND('',#112,.T.);
#67=FACE_OUTER_BOUND('',#113,.T.);
#68=FACE_OUTER_BOUND('',#114,.T.);
#69=FACE_OUTER_BOUND('',#115,.T.);
#70=FACE_OUTER_BOUND('',#116,.T.);
#71=FACE_OUTER_BOUND('',#117,.T.);
#72=FACE_OUTER_BOUND('',#118,.T.);
#73=FACE_OUTER_BOUND('',#119,.T.);
#74=FACE_OUTER_BOUND('',#120,.T.);
#75=FACE_OUTER_BOUND('',#121,.T.);
#76=FACE_OUTER_BOUND('',#122,.T.);
#77=FACE_OUTER_BOUND('',#123,.T.);
#78=FACE_OUTER_BOUND('',#124,.T.);
#79=FACE_OUTER_BOUND('',#125,.T.);
#80=FACE_OUTER_BOUND('',#126,.T.);
#81=FACE_OUTER_BOUND('',#127,.T.);
#82=FACE_OUTER_BOUND('',#128,.T.);
#83=FACE_OUTER_BOUND('',#130,.T.);
#84=FACE_OUTER_BOUND('',#131,.T.);
#85=FACE_OUTER_BOUND('',#132,.T.);
#86=FACE_OUTER_BOUND('',#134,.T.);
#87=FACE_OUTER_BOUND('',#135,.T.);
#88=FACE_OUTER_BOUND('',#136,.T.);
#89=FACE_OUTER_BOUND('',#138,.T.);
#90=FACE_OUTER_BOUND('',#139,.T.);
#91=FACE_OUTER_BOUND('',#140,.T.);
#92=FACE_OUTER_BOUND('',#142,.T.);
#93=FACE_OUTER_BOUND('',#143,.T.);
#94=FACE_OUTER_BOUND('',#148,.T.);
#95=FACE_OUTER_BOUND('',#157,.T.);
#96=FACE_OUTER_BOUND('',#158,.T.);
#97=FACE_OUTER_BOUND('',#159,.T.);
#98=FACE_OUTER_BOUND('',#160,.T.);
#99=FACE_OUTER_BOUND('',#161,.T.);
#100=FACE_OUTER_BOUND('',#162,.T.);
#101=FACE_OUTER_BOUND('',#163,.T.);
#102=FACE_OUTER_BOUND('',#164,.T.);
#103=EDGE_LOOP('',(#575,#576,#577,#578));
#104=EDGE_LOOP('',(#579,#580,#581,#582));
#105=EDGE_LOOP('',(#583,#584,#585,#586));
#106=EDGE_LOOP('',(#587,#588,#589,#590));
#107=EDGE_LOOP('',(#591,#592,#593,#594));
#108=EDGE_LOOP('',(#595,#596,#597,#598));
#109=EDGE_LOOP('',(#599,#600,#601,#602));
#110=EDGE_LOOP('',(#603,#604,#605,#606));
#111=EDGE_LOOP('',(#607,#608,#609,#610));
#112=EDGE_LOOP('',(#611,#612,#613,#614));
#113=EDGE_LOOP('',(#615,#616,#617,#618));
#114=EDGE_LOOP('',(#619,#620,#621,#622));
#115=EDGE_LOOP('',(#623,#624,#625,#626));
#116=EDGE_LOOP('',(#627,#628,#629,#630));
#117=EDGE_LOOP('',(#631,#632,#633,#634));
#118=EDGE_LOOP('',(#635,#636,#637,#638));
#119=EDGE_LOOP('',(#639,#640,#641,#642));
#120=EDGE_LOOP('',(#643,#644,#645,#646));
#121=EDGE_LOOP('',(#647,#648,#649,#650));
#122=EDGE_LOOP('',(#651,#652,#653,#654));
#123=EDGE_LOOP('',(#655,#656,#657,#658));
#124=EDGE_LOOP('',(#659,#660,#661,#662));
#125=EDGE_LOOP('',(#663,#664,#665,#666));
#126=EDGE_LOOP('',(#667,#668,#669,#670));
#127=EDGE_LOOP('',(#671,#672,#673,#674));
#128=EDGE_LOOP('',(#675));
#129=EDGE_LOOP('',(#676));
#130=EDGE_LOOP('',(#677,#678,#679,#680));
#131=EDGE_LOOP('',(#681,#682,#683,#684));
#132=EDGE_LOOP('',(#685));
#133=EDGE_LOOP('',(#686));
#134=EDGE_LOOP('',(#687,#688,#689,#690));
#135=EDGE_LOOP('',(#691,#692,#693,#694));
#136=EDGE_LOOP('',(#695));
#137=EDGE_LOOP('',(#696));
#138=EDGE_LOOP('',(#697,#698,#699,#700));
#139=EDGE_LOOP('',(#701,#702,#703,#704));
#140=EDGE_LOOP('',(#705));
#141=EDGE_LOOP('',(#706));
#142=EDGE_LOOP('',(#707,#708,#709,#710));
#143=EDGE_LOOP('',(#711,#712,#713,#714,#715,#716,#717,#718,#719,#720));
#144=EDGE_LOOP('',(#721,#722,#723,#724,#725,#726));
#145=EDGE_LOOP('',(#727,#728,#729,#730,#731,#732));
#146=EDGE_LOOP('',(#733,#734,#735,#736,#737,#738));
#147=EDGE_LOOP('',(#739,#740,#741,#742,#743,#744));
#148=EDGE_LOOP('',(#745,#746,#747,#748,#749,#750,#751,#752));
#149=EDGE_LOOP('',(#753));
#150=EDGE_LOOP('',(#754));
#151=EDGE_LOOP('',(#755,#756,#757,#758,#759,#760));
#152=EDGE_LOOP('',(#761,#762,#763,#764,#765,#766));
#153=EDGE_LOOP('',(#767,#768,#769,#770,#771,#772));
#154=EDGE_LOOP('',(#773,#774,#775,#776,#777,#778));
#155=EDGE_LOOP('',(#779));
#156=EDGE_LOOP('',(#780));
#157=EDGE_LOOP('',(#781,#782,#783,#784));
#158=EDGE_LOOP('',(#785,#786,#787,#788,#789,#790,#791,#792));
#159=EDGE_LOOP('',(#793,#794,#795,#796));
#160=EDGE_LOOP('',(#797,#798,#799,#800,#801,#802,#803,#804));
#161=EDGE_LOOP('',(#805,#806,#807,#808));
#162=EDGE_LOOP('',(#809,#810,#811,#812,#813,#814,#815));
#163=EDGE_LOOP('',(#816,#817,#818,#819));
#164=EDGE_LOOP('',(#820,#821,#822,#823,#824,#825,#826));
#165=LINE('',#1279,#241);
#166=LINE('',#1282,#242);
#167=LINE('',#1285,#243);
#168=LINE('',#1287,#244);
#169=LINE('',#1288,#245);
#170=LINE('',#1294,#246);
#171=LINE('',#1297,#247);
#172=LINE('',#1300,#248);
#173=LINE('',#1302,#249);
#174=LINE('',#1303,#250);
#175=LINE('',#1309,#251);
#176=LINE('',#1312,#252);
#177=LINE('',#1315,#253);
#178=LINE('',#1317,#254);
#179=LINE('',#1318,#255);
#180=LINE('',#1324,#256);
#181=LINE('',#1327,#257);
#182=LINE('',#1329,#258);
#183=LINE('',#1330,#259);
#184=LINE('',#1335,#260);
#185=LINE('',#1339,#261);
#186=LINE('',#1341,#262);
#187=LINE('',#1342,#263);
#188=LINE('',#1348,#264);
#189=LINE('',#1351,#265);
#190=LINE('',#1354,#266);
#191=LINE('',#1356,#267);
#192=LINE('',#1357,#268);
#193=LINE('',#1363,#269);
#194=LINE('',#1366,#270);
#195=LINE('',#1368,#271);
#196=LINE('',#1369,#272);
#197=LINE('',#1374,#273);
#198=LINE('',#1377,#274);
#199=LINE('',#1378,#275);
#200=LINE('',#1383,#276);
#201=LINE('',#1386,#277);
#202=LINE('',#1387,#278);
#203=LINE('',#1392,#279);
#204=LINE('',#1396,#280);
#205=LINE('',#1398,#281);
#206=LINE('',#1399,#282);
#207=LINE('',#1404,#283);
#208=LINE('',#1407,#284);
#209=LINE('',#1408,#285);
#210=LINE('',#1413,#286);
#211=LINE('',#1416,#287);
#212=LINE('',#1417,#288);
#213=LINE('',#1422,#289);
#214=LINE('',#1429,#290);
#215=LINE('',#1435,#291);
#216=LINE('',#1442,#292);
#217=LINE('',#1448,#293);
#218=LINE('',#1455,#294);
#219=LINE('',#1461,#295);
#220=LINE('',#1468,#296);
#221=LINE('',#1475,#297);
#222=LINE('',#1481,#298);
#223=LINE('',#1487,#299);
#224=LINE('',#1490,#300);
#225=LINE('',#1494,#301);
#226=LINE('',#1498,#302);
#227=LINE('',#1502,#303);
#228=LINE('',#1506,#304);
#229=LINE('',#1509,#305);
#230=LINE('',#1510,#306);
#231=LINE('',#1512,#307);
#232=LINE('',#1513,#308);
#233=LINE('',#1515,#309);
#234=LINE('',#1517,#310);
#235=LINE('',#1518,#311);
#236=LINE('',#1520,#312);
#237=LINE('',#1522,#313);
#238=LINE('',#1523,#314);
#239=LINE('',#1525,#315);
#240=LINE('',#1527,#316);
#241=VECTOR('',#1009,10.);
#242=VECTOR('',#1012,10.);
#243=VECTOR('',#1015,10.);
#244=VECTOR('',#1016,10.);
#245=VECTOR('',#1017,10.);
#246=VECTOR('',#1022,10.);
#247=VECTOR('',#1025,10.);
#248=VECTOR('',#1028,10.);
#249=VECTOR('',#1029,10.);
#250=VECTOR('',#1030,10.);
#251=VECTOR('',#1035,10.);
#252=VECTOR('',#1038,10.);
#253=VECTOR('',#1041,10.);
#254=VECTOR('',#1042,10.);
#255=VECTOR('',#1043,10.);
#256=VECTOR('',#1048,10.);
#257=VECTOR('',#1051,10.);
#258=VECTOR('',#1054,10.);
#259=VECTOR('',#1055,10.);
#260=VECTOR('',#1060,10.);
#261=VECTOR('',#1065,10.);
#262=VECTOR('',#1066,10.);
#263=VECTOR('',#1067,10.);
#264=VECTOR('',#1072,10.);
#265=VECTOR('',#1075,10.);
#266=VECTOR('',#1078,10.);
#267=VECTOR('',#1079,10.);
#268=VECTOR('',#1080,10.);
#269=VECTOR('',#1085,10.);
#270=VECTOR('',#1088,10.);
#271=VECTOR('',#1091,10.);
#272=VECTOR('',#1092,10.);
#273=VECTOR('',#1097,10.);
#274=VECTOR('',#1102,10.);
#275=VECTOR('',#1103,10.);
#276=VECTOR('',#1108,10.);
#277=VECTOR('',#1113,10.);
#278=VECTOR('',#1114,10.);
#279=VECTOR('',#1119,10.);
#280=VECTOR('',#1124,10.);
#281=VECTOR('',#1125,10.);
#282=VECTOR('',#1126,10.);
#283=VECTOR('',#1131,10.);
#284=VECTOR('',#1136,10.);
#285=VECTOR('',#1137,10.);
#286=VECTOR('',#1142,10.);
#287=VECTOR('',#1147,10.);
#288=VECTOR('',#1148,10.);
#289=VECTOR('',#1153,1.7);
#290=VECTOR('',#1162,1.4);
#291=VECTOR('',#1169,1.7);
#292=VECTOR('',#1178,1.4);
#293=VECTOR('',#1185,1.7);
#294=VECTOR('',#1194,1.4);
#295=VECTOR('',#1201,1.7);
#296=VECTOR('',#1210,1.4);
#297=VECTOR('',#1217,10.);
#298=VECTOR('',#1222,10.);
#299=VECTOR('',#1227,10.);
#300=VECTOR('',#1230,10.);
#301=VECTOR('',#1233,10.);
#302=VECTOR('',#1236,10.);
#303=VECTOR('',#1239,10.);
#304=VECTOR('',#1242,10.);
#305=VECTOR('',#1247,10.);
#306=VECTOR('',#1248,10.);
#307=VECTOR('',#1251,4.);
#308=VECTOR('',#1252,10.);
#309=VECTOR('',#1255,10.);
#310=VECTOR('',#1258,4.);
#311=VECTOR('',#1259,10.);
#312=VECTOR('',#1262,10.);
#313=VECTOR('',#1265,4.);
#314=VECTOR('',#1266,10.);
#315=VECTOR('',#1269,10.);
#316=VECTOR('',#1272,4.);
#317=CIRCLE('',#908,1.);
#318=CIRCLE('',#909,1.);
#319=CIRCLE('',#912,1.);
#320=CIRCLE('',#913,1.);
#321=CIRCLE('',#916,1.);
#322=CIRCLE('',#917,1.);
#323=CIRCLE('',#920,1.);
#324=CIRCLE('',#921,1.);
#325=CIRCLE('',#924,1.);
#326=CIRCLE('',#925,1.);
#327=CIRCLE('',#928,1.);
#328=CIRCLE('',#929,1.);
#329=CIRCLE('',#932,1.);
#330=CIRCLE('',#933,1.);
#331=CIRCLE('',#936,1.);
#332=CIRCLE('',#937,1.);
#333=CIRCLE('',#940,1.);
#334=CIRCLE('',#941,1.);
#335=CIRCLE('',#944,1.);
#336=CIRCLE('',#945,1.);
#337=CIRCLE('',#948,1.);
#338=CIRCLE('',#949,1.);
#339=CIRCLE('',#952,1.);
#340=CIRCLE('',#953,1.);
#341=CIRCLE('',#956,2.);
#342=CIRCLE('',#957,1.4);
#343=CIRCLE('',#959,4.);
#344=CIRCLE('',#961,1.4);
#345=CIRCLE('',#963,2.);
#346=CIRCLE('',#964,1.4);
#347=CIRCLE('',#966,4.);
#348=CIRCLE('',#968,1.4);
#349=CIRCLE('',#970,2.);
#350=CIRCLE('',#971,1.4);
#351=CIRCLE('',#973,4.);
#352=CIRCLE('',#975,1.4);
#353=CIRCLE('',#977,2.);
#354=CIRCLE('',#978,1.4);
#355=CIRCLE('',#980,4.);
#356=CIRCLE('',#982,1.4);
#357=CIRCLE('',#984,4.);
#358=CIRCLE('',#985,4.);
#359=CIRCLE('',#986,4.);
#360=CIRCLE('',#987,4.);
#361=CIRCLE('',#988,4.);
#362=CIRCLE('',#989,4.);
#363=CIRCLE('',#991,4.);
#364=CIRCLE('',#992,4.);
#365=CIRCLE('',#993,4.);
#366=CIRCLE('',#994,4.);
#367=VERTEX_POINT('',#1275);
#368=VERTEX_POINT('',#1276);
#369=VERTEX_POINT('',#1278);
#370=VERTEX_POINT('',#1280);
#371=VERTEX_POINT('',#1284);
#372=VERTEX_POINT('',#1286);
#373=VERTEX_POINT('',#1290);
#374=VERTEX_POINT('',#1291);
#375=VERTEX_POINT('',#1293);
#376=VERTEX_POINT('',#1295);
#377=VERTEX_POINT('',#1299);
#378=VERTEX_POINT('',#1301);
#379=VERTEX_POINT('',#1305);
#380=VERTEX_POINT('',#1306);
#381=VERTEX_POINT('',#1308);
#382=VERTEX_POINT('',#1310);
#383=VERTEX_POINT('',#1314);
#384=VERTEX_POINT('',#1316);
#385=VERTEX_POINT('',#1320);
#386=VERTEX_POINT('',#1321);
#387=VERTEX_POINT('',#1323);
#388=VERTEX_POINT('',#1325);
#389=VERTEX_POINT('',#1332);
#390=VERTEX_POINT('',#1334);
#391=VERTEX_POINT('',#1338);
#392=VERTEX_POINT('',#1340);
#393=VERTEX_POINT('',#1344);
#394=VERTEX_POINT('',#1345);
#395=VERTEX_POINT('',#1347);
#396=VERTEX_POINT('',#1349);
#397=VERTEX_POINT('',#1353);
#398=VERTEX_POINT('',#1355);
#399=VERTEX_POINT('',#1359);
#400=VERTEX_POINT('',#1360);
#401=VERTEX_POINT('',#1362);
#402=VERTEX_POINT('',#1364);
#403=VERTEX_POINT('',#1371);
#404=VERTEX_POINT('',#1373);
#405=VERTEX_POINT('',#1380);
#406=VERTEX_POINT('',#1382);
#407=VERTEX_POINT('',#1389);
#408=VERTEX_POINT('',#1391);
#409=VERTEX_POINT('',#1395);
#410=VERTEX_POINT('',#1397);
#411=VERTEX_POINT('',#1401);
#412=VERTEX_POINT('',#1403);
#413=VERTEX_POINT('',#1410);
#414=VERTEX_POINT('',#1412);
#415=VERTEX_POINT('',#1419);
#416=VERTEX_POINT('',#1421);
#417=VERTEX_POINT('',#1425);
#418=VERTEX_POINT('',#1428);
#419=VERTEX_POINT('',#1432);
#420=VERTEX_POINT('',#1434);
#421=VERTEX_POINT('',#1438);
#422=VERTEX_POINT('',#1441);
#423=VERTEX_POINT('',#1445);
#424=VERTEX_POINT('',#1447);
#425=VERTEX_POINT('',#1451);
#426=VERTEX_POINT('',#1454);
#427=VERTEX_POINT('',#1458);
#428=VERTEX_POINT('',#1460);
#429=VERTEX_POINT('',#1464);
#430=VERTEX_POINT('',#1467);
#431=VERTEX_POINT('',#1471);
#432=VERTEX_POINT('',#1472);
#433=VERTEX_POINT('',#1474);
#434=VERTEX_POINT('',#1476);
#435=VERTEX_POINT('',#1478);
#436=VERTEX_POINT('',#1480);
#437=VERTEX_POINT('',#1482);
#438=VERTEX_POINT('',#1484);
#439=VERTEX_POINT('',#1486);
#440=VERTEX_POINT('',#1488);
#441=VERTEX_POINT('',#1492);
#442=VERTEX_POINT('',#1493);
#443=VERTEX_POINT('',#1495);
#444=VERTEX_POINT('',#1497);
#445=VERTEX_POINT('',#1499);
#446=VERTEX_POINT('',#1501);
#447=VERTEX_POINT('',#1503);
#448=VERTEX_POINT('',#1505);
#449=EDGE_CURVE('',#367,#368,#317,.T.);
#450=EDGE_CURVE('',#368,#369,#165,.T.);
#451=EDGE_CURVE('',#369,#370,#318,.T.);
#452=EDGE_CURVE('',#370,#367,#166,.T.);
#453=EDGE_CURVE('',#368,#371,#167,.T.);
#454=EDGE_CURVE('',#372,#371,#168,.T.);
#455=EDGE_CURVE('',#369,#372,#169,.T.);
#456=EDGE_CURVE('',#373,#374,#319,.T.);
#457=EDGE_CURVE('',#374,#375,#170,.T.);
#458=EDGE_CURVE('',#375,#376,#320,.T.);
#459=EDGE_CURVE('',#376,#373,#171,.T.);
#460=EDGE_CURVE('',#374,#377,#172,.T.);
#461=EDGE_CURVE('',#378,#377,#173,.T.);
#462=EDGE_CURVE('',#375,#378,#174,.T.);
#463=EDGE_CURVE('',#379,#380,#321,.T.);
#464=EDGE_CURVE('',#380,#381,#175,.T.);
#465=EDGE_CURVE('',#381,#382,#322,.T.);
#466=EDGE_CURVE('',#382,#379,#176,.T.);
#467=EDGE_CURVE('',#380,#383,#177,.T.);
#468=EDGE_CURVE('',#384,#383,#178,.T.);
#469=EDGE_CURVE('',#381,#384,#179,.T.);
#470=EDGE_CURVE('',#385,#386,#323,.T.);
#471=EDGE_CURVE('',#386,#387,#180,.T.);
#472=EDGE_CURVE('',#387,#388,#324,.T.);
#473=EDGE_CURVE('',#388,#385,#181,.T.);
#474=EDGE_CURVE('',#387,#376,#182,.T.);
#475=EDGE_CURVE('',#386,#373,#183,.T.);
#476=EDGE_CURVE('',#371,#389,#325,.T.);
#477=EDGE_CURVE('',#389,#390,#184,.T.);
#478=EDGE_CURVE('',#390,#372,#326,.T.);
#479=EDGE_CURVE('',#389,#391,#185,.T.);
#480=EDGE_CURVE('',#392,#391,#186,.T.);
#481=EDGE_CURVE('',#390,#392,#187,.T.);
#482=EDGE_CURVE('',#393,#394,#327,.T.);
#483=EDGE_CURVE('',#394,#395,#188,.T.);
#484=EDGE_CURVE('',#395,#396,#328,.T.);
#485=EDGE_CURVE('',#396,#393,#189,.T.);
#486=EDGE_CURVE('',#394,#397,#190,.T.);
#487=EDGE_CURVE('',#398,#397,#191,.T.);
#488=EDGE_CURVE('',#395,#398,#192,.T.);
#489=EDGE_CURVE('',#399,#400,#329,.T.);
#490=EDGE_CURVE('',#400,#401,#193,.T.);
#491=EDGE_CURVE('',#401,#402,#330,.T.);
#492=EDGE_CURVE('',#402,#399,#194,.T.);
#493=EDGE_CURVE('',#401,#382,#195,.T.);
#494=EDGE_CURVE('',#400,#379,#196,.T.);
#495=EDGE_CURVE('',#377,#403,#331,.T.);
#496=EDGE_CURVE('',#403,#404,#197,.T.);
#497=EDGE_CURVE('',#404,#378,#332,.T.);
#498=EDGE_CURVE('',#404,#388,#198,.T.);
#499=EDGE_CURVE('',#403,#385,#199,.T.);
#500=EDGE_CURVE('',#391,#405,#333,.T.);
#501=EDGE_CURVE('',#405,#406,#200,.T.);
#502=EDGE_CURVE('',#406,#392,#334,.T.);
#503=EDGE_CURVE('',#406,#370,#201,.T.);
#504=EDGE_CURVE('',#405,#367,#202,.T.);
#505=EDGE_CURVE('',#397,#407,#335,.T.);
#506=EDGE_CURVE('',#407,#408,#203,.T.);
#507=EDGE_CURVE('',#408,#398,#336,.T.);
#508=EDGE_CURVE('',#407,#409,#204,.T.);
#509=EDGE_CURVE('',#410,#409,#205,.T.);
#510=EDGE_CURVE('',#408,#410,#206,.T.);
#511=EDGE_CURVE('',#383,#411,#337,.T.);
#512=EDGE_CURVE('',#411,#412,#207,.T.);
#513=EDGE_CURVE('',#412,#384,#338,.T.);
#514=EDGE_CURVE('',#412,#402,#208,.T.);
#515=EDGE_CURVE('',#411,#399,#209,.T.);
#516=EDGE_CURVE('',#409,#413,#339,.T.);
#517=EDGE_CURVE('',#413,#414,#210,.T.);
#518=EDGE_CURVE('',#414,#410,#340,.T.);
#519=EDGE_CURVE('',#414,#396,#211,.T.);
#520=EDGE_CURVE('',#413,#393,#212,.T.);
#521=EDGE_CURVE('',#415,#415,#341,.T.);
#522=EDGE_CURVE('',#415,#416,#213,.T.);
#523=EDGE_CURVE('',#416,#416,#342,.T.);
#524=EDGE_CURVE('',#417,#417,#343,.T.);
#525=EDGE_CURVE('',#416,#418,#214,.T.);
#526=EDGE_CURVE('',#418,#418,#344,.T.);
#527=EDGE_CURVE('',#419,#419,#345,.T.);
#528=EDGE_CURVE('',#419,#420,#215,.T.);
#529=EDGE_CURVE('',#420,#420,#346,.T.);
#530=EDGE_CURVE('',#421,#421,#347,.T.);
#531=EDGE_CURVE('',#420,#422,#216,.T.);
#532=EDGE_CURVE('',#422,#422,#348,.T.);
#533=EDGE_CURVE('',#423,#423,#349,.T.);
#534=EDGE_CURVE('',#423,#424,#217,.T.);
#535=EDGE_CURVE('',#424,#424,#350,.T.);
#536=EDGE_CURVE('',#425,#425,#351,.T.);
#537=EDGE_CURVE('',#424,#426,#218,.T.);
#538=EDGE_CURVE('',#426,#426,#352,.T.);
#539=EDGE_CURVE('',#427,#427,#353,.T.);
#540=EDGE_CURVE('',#427,#428,#219,.T.);
#541=EDGE_CURVE('',#428,#428,#354,.T.);
#542=EDGE_CURVE('',#429,#429,#355,.T.);
#543=EDGE_CURVE('',#428,#430,#220,.T.);
#544=EDGE_CURVE('',#430,#430,#356,.T.);
#545=EDGE_CURVE('',#431,#432,#357,.T.);
#546=EDGE_CURVE('',#432,#433,#221,.T.);
#547=EDGE_CURVE('',#433,#434,#358,.T.);
#548=EDGE_CURVE('',#434,#435,#359,.T.);
#549=EDGE_CURVE('',#435,#436,#222,.T.);
#550=EDGE_CURVE('',#436,#437,#360,.T.);
#551=EDGE_CURVE('',#437,#438,#361,.T.);
#552=EDGE_CURVE('',#438,#439,#223,.T.);
#553=EDGE_CURVE('',#439,#440,#362,.T.);
#554=EDGE_CURVE('',#440,#431,#224,.T.);
#555=EDGE_CURVE('',#441,#442,#225,.T.);
#556=EDGE_CURVE('',#443,#442,#363,.T.);
#557=EDGE_CURVE('',#443,#444,#226,.T.);
#558=EDGE_CURVE('',#445,#444,#364,.T.);
#559=EDGE_CURVE('',#445,#446,#227,.T.);
#560=EDGE_CURVE('',#447,#446,#365,.T.);
#561=EDGE_CURVE('',#447,#448,#228,.T.);
#562=EDGE_CURVE('',#441,#448,#366,.T.);
#563=EDGE_CURVE('',#443,#439,#229,.T.);
#564=EDGE_CURVE('',#444,#438,#230,.T.);
#565=EDGE_CURVE('',#421,#437,#231,.T.);
#566=EDGE_CURVE('',#445,#436,#232,.T.);
#567=EDGE_CURVE('',#446,#435,#233,.T.);
#568=EDGE_CURVE('',#425,#434,#234,.T.);
#569=EDGE_CURVE('',#447,#433,#235,.T.);
#570=EDGE_CURVE('',#448,#432,#236,.T.);
#571=EDGE_CURVE('',#429,#431,#237,.T.);
#572=EDGE_CURVE('',#441,#431,#238,.T.);
#573=EDGE_CURVE('',#442,#440,#239,.T.);
#574=EDGE_CURVE('',#417,#440,#240,.T.);
#575=ORIENTED_EDGE('',*,*,#449,.T.);
#576=ORIENTED_EDGE('',*,*,#450,.T.);
#577=ORIENTED_EDGE('',*,*,#451,.T.);
#578=ORIENTED_EDGE('',*,*,#452,.T.);
#579=ORIENTED_EDGE('',*,*,#450,.F.);
#580=ORIENTED_EDGE('',*,*,#453,.T.);
#581=ORIENTED_EDGE('',*,*,#454,.F.);
#582=ORIENTED_EDGE('',*,*,#455,.F.);
#583=ORIENTED_EDGE('',*,*,#456,.T.);
#584=ORIENTED_EDGE('',*,*,#457,.T.);
#585=ORIENTED_EDGE('',*,*,#458,.T.);
#586=ORIENTED_EDGE('',*,*,#459,.T.);
#587=ORIENTED_EDGE('',*,*,#457,.F.);
#588=ORIENTED_EDGE('',*,*,#460,.T.);
#589=ORIENTED_EDGE('',*,*,#461,.F.);
#590=ORIENTED_EDGE('',*,*,#462,.F.);
#591=ORIENTED_EDGE('',*,*,#463,.T.);
#592=ORIENTED_EDGE('',*,*,#464,.T.);
#593=ORIENTED_EDGE('',*,*,#465,.T.);
#594=ORIENTED_EDGE('',*,*,#466,.T.);
#595=ORIENTED_EDGE('',*,*,#464,.F.);
#596=ORIENTED_EDGE('',*,*,#467,.T.);
#597=ORIENTED_EDGE('',*,*,#468,.F.);
#598=ORIENTED_EDGE('',*,*,#469,.F.);
#599=ORIENTED_EDGE('',*,*,#470,.T.);
#600=ORIENTED_EDGE('',*,*,#471,.T.);
#601=ORIENTED_EDGE('',*,*,#472,.T.);
#602=ORIENTED_EDGE('',*,*,#473,.T.);
#603=ORIENTED_EDGE('',*,*,#459,.F.);
#604=ORIENTED_EDGE('',*,*,#474,.F.);
#605=ORIENTED_EDGE('',*,*,#471,.F.);
#606=ORIENTED_EDGE('',*,*,#475,.T.);
#607=ORIENTED_EDGE('',*,*,#476,.T.);
#608=ORIENTED_EDGE('',*,*,#477,.T.);
#609=ORIENTED_EDGE('',*,*,#478,.T.);
#610=ORIENTED_EDGE('',*,*,#454,.T.);
#611=ORIENTED_EDGE('',*,*,#477,.F.);
#612=ORIENTED_EDGE('',*,*,#479,.T.);
#613=ORIENTED_EDGE('',*,*,#480,.F.);
#614=ORIENTED_EDGE('',*,*,#481,.F.);
#615=ORIENTED_EDGE('',*,*,#482,.T.);
#616=ORIENTED_EDGE('',*,*,#483,.T.);
#617=ORIENTED_EDGE('',*,*,#484,.T.);
#618=ORIENTED_EDGE('',*,*,#485,.T.);
#619=ORIENTED_EDGE('',*,*,#483,.F.);
#620=ORIENTED_EDGE('',*,*,#486,.T.);
#621=ORIENTED_EDGE('',*,*,#487,.F.);
#622=ORIENTED_EDGE('',*,*,#488,.F.);
#623=ORIENTED_EDGE('',*,*,#489,.T.);
#624=ORIENTED_EDGE('',*,*,#490,.T.);
#625=ORIENTED_EDGE('',*,*,#491,.T.);
#626=ORIENTED_EDGE('',*,*,#492,.T.);
#627=ORIENTED_EDGE('',*,*,#466,.F.);
#628=ORIENTED_EDGE('',*,*,#493,.F.);
#629=ORIENTED_EDGE('',*,*,#490,.F.);
#630=ORIENTED_EDGE('',*,*,#494,.T.);
#631=ORIENTED_EDGE('',*,*,#495,.T.);
#632=ORIENTED_EDGE('',*,*,#496,.T.);
#633=ORIENTED_EDGE('',*,*,#497,.T.);
#634=ORIENTED_EDGE('',*,*,#461,.T.);
#635=ORIENTED_EDGE('',*,*,#473,.F.);
#636=ORIENTED_EDGE('',*,*,#498,.F.);
#637=ORIENTED_EDGE('',*,*,#496,.F.);
#638=ORIENTED_EDGE('',*,*,#499,.T.);
#639=ORIENTED_EDGE('',*,*,#500,.T.);
#640=ORIENTED_EDGE('',*,*,#501,.T.);
#641=ORIENTED_EDGE('',*,*,#502,.T.);
#642=ORIENTED_EDGE('',*,*,#480,.T.);
#643=ORIENTED_EDGE('',*,*,#452,.F.);
#644=ORIENTED_EDGE('',*,*,#503,.F.);
#645=ORIENTED_EDGE('',*,*,#501,.F.);
#646=ORIENTED_EDGE('',*,*,#504,.T.);
#647=ORIENTED_EDGE('',*,*,#505,.T.);
#648=ORIENTED_EDGE('',*,*,#506,.T.);
#649=ORIENTED_EDGE('',*,*,#507,.T.);
#650=ORIENTED_EDGE('',*,*,#487,.T.);
#651=ORIENTED_EDGE('',*,*,#506,.F.);
#652=ORIENTED_EDGE('',*,*,#508,.T.);
#653=ORIENTED_EDGE('',*,*,#509,.F.);
#654=ORIENTED_EDGE('',*,*,#510,.F.);
#655=ORIENTED_EDGE('',*,*,#511,.T.);
#656=ORIENTED_EDGE('',*,*,#512,.T.);
#657=ORIENTED_EDGE('',*,*,#513,.T.);
#658=ORIENTED_EDGE('',*,*,#468,.T.);
#659=ORIENTED_EDGE('',*,*,#492,.F.);
#660=ORIENTED_EDGE('',*,*,#514,.F.);
#661=ORIENTED_EDGE('',*,*,#512,.F.);
#662=ORIENTED_EDGE('',*,*,#515,.T.);
#663=ORIENTED_EDGE('',*,*,#516,.T.);
#664=ORIENTED_EDGE('',*,*,#517,.T.);
#665=ORIENTED_EDGE('',*,*,#518,.T.);
#666=ORIENTED_EDGE('',*,*,#509,.T.);
#667=ORIENTED_EDGE('',*,*,#485,.F.);
#668=ORIENTED_EDGE('',*,*,#519,.F.);
#669=ORIENTED_EDGE('',*,*,#517,.F.);
#670=ORIENTED_EDGE('',*,*,#520,.T.);
#671=ORIENTED_EDGE('',*,*,#521,.T.);
#672=ORIENTED_EDGE('',*,*,#522,.T.);
#673=ORIENTED_EDGE('',*,*,#523,.T.);
#674=ORIENTED_EDGE('',*,*,#522,.F.);
#675=ORIENTED_EDGE('',*,*,#524,.T.);
#676=ORIENTED_EDGE('',*,*,#521,.F.);
#677=ORIENTED_EDGE('',*,*,#523,.F.);
#678=ORIENTED_EDGE('',*,*,#525,.T.);
#679=ORIENTED_EDGE('',*,*,#526,.T.);
#680=ORIENTED_EDGE('',*,*,#525,.F.);
#681=ORIENTED_EDGE('',*,*,#527,.T.);
#682=ORIENTED_EDGE('',*,*,#528,.T.);
#683=ORIENTED_EDGE('',*,*,#529,.T.);
#684=ORIENTED_EDGE('',*,*,#528,.F.);
#685=ORIENTED_EDGE('',*,*,#530,.T.);
#686=ORIENTED_EDGE('',*,*,#527,.F.);
#687=ORIENTED_EDGE('',*,*,#529,.F.);
#688=ORIENTED_EDGE('',*,*,#531,.T.);
#689=ORIENTED_EDGE('',*,*,#532,.T.);
#690=ORIENTED_EDGE('',*,*,#531,.F.);
#691=ORIENTED_EDGE('',*,*,#533,.T.);
#692=ORIENTED_EDGE('',*,*,#534,.T.);
#693=ORIENTED_EDGE('',*,*,#535,.T.);
#694=ORIENTED_EDGE('',*,*,#534,.F.);
#695=ORIENTED_EDGE('',*,*,#536,.T.);
#696=ORIENTED_EDGE('',*,*,#533,.F.);
#697=ORIENTED_EDGE('',*,*,#535,.F.);
#698=ORIENTED_EDGE('',*,*,#537,.T.);
#699=ORIENTED_EDGE('',*,*,#538,.T.);
#700=ORIENTED_EDGE('',*,*,#537,.F.);
#701=ORIENTED_EDGE('',*,*,#539,.T.);
#702=ORIENTED_EDGE('',*,*,#540,.T.);
#703=ORIENTED_EDGE('',*,*,#541,.T.);
#704=ORIENTED_EDGE('',*,*,#540,.F.);
#705=ORIENTED_EDGE('',*,*,#542,.T.);
#706=ORIENTED_EDGE('',*,*,#539,.F.);
#707=ORIENTED_EDGE('',*,*,#541,.F.);
#708=ORIENTED_EDGE('',*,*,#543,.T.);
#709=ORIENTED_EDGE('',*,*,#544,.T.);
#710=ORIENTED_EDGE('',*,*,#543,.F.);
#711=ORIENTED_EDGE('',*,*,#545,.T.);
#712=ORIENTED_EDGE('',*,*,#546,.T.);
#713=ORIENTED_EDGE('',*,*,#547,.T.);
#714=ORIENTED_EDGE('',*,*,#548,.T.);
#715=ORIENTED_EDGE('',*,*,#549,.T.);
#716=ORIENTED_EDGE('',*,*,#550,.T.);
#717=ORIENTED_EDGE('',*,*,#551,.T.);
#718=ORIENTED_EDGE('',*,*,#552,.T.);
#719=ORIENTED_EDGE('',*,*,#553,.T.);
#720=ORIENTED_EDGE('',*,*,#554,.T.);
#721=ORIENTED_EDGE('',*,*,#469,.T.);
#722=ORIENTED_EDGE('',*,*,#513,.F.);
#723=ORIENTED_EDGE('',*,*,#514,.T.);
#724=ORIENTED_EDGE('',*,*,#491,.F.);
#725=ORIENTED_EDGE('',*,*,#493,.T.);
#726=ORIENTED_EDGE('',*,*,#465,.F.);
#727=ORIENTED_EDGE('',*,*,#474,.T.);
#728=ORIENTED_EDGE('',*,*,#458,.F.);
#729=ORIENTED_EDGE('',*,*,#462,.T.);
#730=ORIENTED_EDGE('',*,*,#497,.F.);
#731=ORIENTED_EDGE('',*,*,#498,.T.);
#732=ORIENTED_EDGE('',*,*,#472,.F.);
#733=ORIENTED_EDGE('',*,*,#455,.T.);
#734=ORIENTED_EDGE('',*,*,#478,.F.);
#735=ORIENTED_EDGE('',*,*,#481,.T.);
#736=ORIENTED_EDGE('',*,*,#502,.F.);
#737=ORIENTED_EDGE('',*,*,#503,.T.);
#738=ORIENTED_EDGE('',*,*,#451,.F.);
#739=ORIENTED_EDGE('',*,*,#519,.T.);
#740=ORIENTED_EDGE('',*,*,#484,.F.);
#741=ORIENTED_EDGE('',*,*,#488,.T.);
#742=ORIENTED_EDGE('',*,*,#507,.F.);
#743=ORIENTED_EDGE('',*,*,#510,.T.);
#744=ORIENTED_EDGE('',*,*,#518,.F.);
#745=ORIENTED_EDGE('',*,*,#555,.T.);
#746=ORIENTED_EDGE('',*,*,#556,.F.);
#747=ORIENTED_EDGE('',*,*,#557,.T.);
#748=ORIENTED_EDGE('',*,*,#558,.F.);
#749=ORIENTED_EDGE('',*,*,#559,.T.);
#750=ORIENTED_EDGE('',*,*,#560,.F.);
#751=ORIENTED_EDGE('',*,*,#561,.T.);
#752=ORIENTED_EDGE('',*,*,#562,.F.);
#753=ORIENTED_EDGE('',*,*,#544,.F.);
#754=ORIENTED_EDGE('',*,*,#538,.F.);
#755=ORIENTED_EDGE('',*,*,#463,.F.);
#756=ORIENTED_EDGE('',*,*,#494,.F.);
#757=ORIENTED_EDGE('',*,*,#489,.F.);
#758=ORIENTED_EDGE('',*,*,#515,.F.);
#759=ORIENTED_EDGE('',*,*,#511,.F.);
#760=ORIENTED_EDGE('',*,*,#467,.F.);
#761=ORIENTED_EDGE('',*,*,#470,.F.);
#762=ORIENTED_EDGE('',*,*,#499,.F.);
#763=ORIENTED_EDGE('',*,*,#495,.F.);
#764=ORIENTED_EDGE('',*,*,#460,.F.);
#765=ORIENTED_EDGE('',*,*,#456,.F.);
#766=ORIENTED_EDGE('',*,*,#475,.F.);
#767=ORIENTED_EDGE('',*,*,#449,.F.);
#768=ORIENTED_EDGE('',*,*,#504,.F.);
#769=ORIENTED_EDGE('',*,*,#500,.F.);
#770=ORIENTED_EDGE('',*,*,#479,.F.);
#771=ORIENTED_EDGE('',*,*,#476,.F.);
#772=ORIENTED_EDGE('',*,*,#453,.F.);
#773=ORIENTED_EDGE('',*,*,#516,.F.);
#774=ORIENTED_EDGE('',*,*,#508,.F.);
#775=ORIENTED_EDGE('',*,*,#505,.F.);
#776=ORIENTED_EDGE('',*,*,#486,.F.);
#777=ORIENTED_EDGE('',*,*,#482,.F.);
#778=ORIENTED_EDGE('',*,*,#520,.F.);
#779=ORIENTED_EDGE('',*,*,#532,.F.);
#780=ORIENTED_EDGE('',*,*,#526,.F.);
#781=ORIENTED_EDGE('',*,*,#557,.F.);
#782=ORIENTED_EDGE('',*,*,#563,.T.);
#783=ORIENTED_EDGE('',*,*,#552,.F.);
#784=ORIENTED_EDGE('',*,*,#564,.F.);
#785=ORIENTED_EDGE('',*,*,#530,.F.);
#786=ORIENTED_EDGE('',*,*,#565,.T.);
#787=ORIENTED_EDGE('',*,*,#550,.F.);
#788=ORIENTED_EDGE('',*,*,#566,.F.);
#789=ORIENTED_EDGE('',*,*,#558,.T.);
#790=ORIENTED_EDGE('',*,*,#564,.T.);
#791=ORIENTED_EDGE('',*,*,#551,.F.);
#792=ORIENTED_EDGE('',*,*,#565,.F.);
#793=ORIENTED_EDGE('',*,*,#559,.F.);
#794=ORIENTED_EDGE('',*,*,#566,.T.);
#795=ORIENTED_EDGE('',*,*,#549,.F.);
#796=ORIENTED_EDGE('',*,*,#567,.F.);
#797=ORIENTED_EDGE('',*,*,#536,.F.);
#798=ORIENTED_EDGE('',*,*,#568,.T.);
#799=ORIENTED_EDGE('',*,*,#547,.F.);
#800=ORIENTED_EDGE('',*,*,#569,.F.);
#801=ORIENTED_EDGE('',*,*,#560,.T.);
#802=ORIENTED_EDGE('',*,*,#567,.T.);
#803=ORIENTED_EDGE('',*,*,#548,.F.);
#804=ORIENTED_EDGE('',*,*,#568,.F.);
#805=ORIENTED_EDGE('',*,*,#561,.F.);
#806=ORIENTED_EDGE('',*,*,#569,.T.);
#807=ORIENTED_EDGE('',*,*,#546,.F.);
#808=ORIENTED_EDGE('',*,*,#570,.F.);
#809=ORIENTED_EDGE('',*,*,#542,.F.);
#810=ORIENTED_EDGE('',*,*,#571,.T.);
#811=ORIENTED_EDGE('',*,*,#572,.F.);
#812=ORIENTED_EDGE('',*,*,#562,.T.);
#813=ORIENTED_EDGE('',*,*,#570,.T.);
#814=ORIENTED_EDGE('',*,*,#545,.F.);
#815=ORIENTED_EDGE('',*,*,#571,.F.);
#816=ORIENTED_EDGE('',*,*,#555,.F.);
#817=ORIENTED_EDGE('',*,*,#572,.T.);
#818=ORIENTED_EDGE('',*,*,#554,.F.);
#819=ORIENTED_EDGE('',*,*,#573,.F.);
#820=ORIENTED_EDGE('',*,*,#524,.F.);
#821=ORIENTED_EDGE('',*,*,#574,.T.);
#822=ORIENTED_EDGE('',*,*,#553,.F.);
#823=ORIENTED_EDGE('',*,*,#563,.F.);
#824=ORIENTED_EDGE('',*,*,#556,.T.);
#825=ORIENTED_EDGE('',*,*,#573,.T.);
#826=ORIENTED_EDGE('',*,*,#574,.F.);
#827=CYLINDRICAL_SURFACE('',#907,1.);
#828=CYLINDRICAL_SURFACE('',#911,1.);
#829=CYLINDRICAL_SURFACE('',#915,1.);
#830=CYLINDRICAL_SURFACE('',#919,1.);
#831=CYLINDRICAL_SURFACE('',#923,1.);
#832=CYLINDRICAL_SURFACE('',#927,1.);
#833=CYLINDRICAL_SURFACE('',#931,1.);
#834=CYLINDRICAL_SURFACE('',#935,1.);
#835=CYLINDRICAL_SURFACE('',#939,1.);
#836=CYLINDRICAL_SURFACE('',#943,1.);
#837=CYLINDRICAL_SURFACE('',#947,1.);
#838=CYLINDRICAL_SURFACE('',#951,1.);
#839=CYLINDRICAL_SURFACE('',#960,1.4);
#840=CYLINDRICAL_SURFACE('',#967,1.4);
#841=CYLINDRICAL_SURFACE('',#974,1.4);
#842=CYLINDRICAL_SURFACE('',#981,1.4);
#843=CYLINDRICAL_SURFACE('',#996,4.);
#844=CYLINDRICAL_SURFACE('',#998,4.);
#845=CYLINDRICAL_SURFACE('',#1000,4.);
#846=CYLINDRICAL_SURFACE('',#1002,4.);
#847=ADVANCED_FACE('',(#57),#827,.F.);
#848=ADVANCED_FACE('',(#58),#35,.T.);
#849=ADVANCED_FACE('',(#59),#828,.F.);
#850=ADVANCED_FACE('',(#60),#36,.T.);
#851=ADVANCED_FACE('',(#61),#829,.F.);
#852=ADVANCED_FACE('',(#62),#37,.T.);
#853=ADVANCED_FACE('',(#63),#830,.F.);
#854=ADVANCED_FACE('',(#64),#38,.T.);
#855=ADVANCED_FACE('',(#65),#831,.F.);
#856=ADVANCED_FACE('',(#66),#39,.T.);
#857=ADVANCED_FACE('',(#67),#832,.F.);
#858=ADVANCED_FACE('',(#68),#40,.T.);
#859=ADVANCED_FACE('',(#69),#833,.F.);
#860=ADVANCED_FACE('',(#70),#41,.T.);
#861=ADVANCED_FACE('',(#71),#834,.F.);
#862=ADVANCED_FACE('',(#72),#42,.T.);
#863=ADVANCED_FACE('',(#73),#835,.F.);
#864=ADVANCED_FACE('',(#74),#43,.T.);
#865=ADVANCED_FACE('',(#75),#836,.F.);
#866=ADVANCED_FACE('',(#76),#44,.T.);
#867=ADVANCED_FACE('',(#77),#837,.F.);
#868=ADVANCED_FACE('',(#78),#45,.T.);
#869=ADVANCED_FACE('',(#79),#838,.F.);
#870=ADVANCED_FACE('',(#80),#46,.T.);
#871=ADVANCED_FACE('',(#81),#31,.F.);
#872=ADVANCED_FACE('',(#82,#15),#47,.T.);
#873=ADVANCED_FACE('',(#83),#839,.F.);
#874=ADVANCED_FACE('',(#84),#32,.F.);
#875=ADVANCED_FACE('',(#85,#16),#48,.T.);
#876=ADVANCED_FACE('',(#86),#840,.F.);
#877=ADVANCED_FACE('',(#87),#33,.F.);
#878=ADVANCED_FACE('',(#88,#17),#49,.T.);
#879=ADVANCED_FACE('',(#89),#841,.F.);
#880=ADVANCED_FACE('',(#90),#34,.F.);
#881=ADVANCED_FACE('',(#91,#18),#50,.T.);
#882=ADVANCED_FACE('',(#92),#842,.F.);
#883=ADVANCED_FACE('',(#93,#19,#20,#21,#22),#51,.T.);
#884=ADVANCED_FACE('',(#94,#23,#24,#25,#26,#27,#28,#29,#30),#52,.F.);
#885=ADVANCED_FACE('',(#95),#53,.T.);
#886=ADVANCED_FACE('',(#96),#843,.T.);
#887=ADVANCED_FACE('',(#97),#54,.T.);
#888=ADVANCED_FACE('',(#98),#844,.T.);
#889=ADVANCED_FACE('',(#99),#55,.T.);
#890=ADVANCED_FACE('',(#100),#845,.T.);
#891=ADVANCED_FACE('',(#101),#56,.T.);
#892=ADVANCED_FACE('',(#102),#846,.T.);
#893=CLOSED_SHELL('',(#847,#848,#849,#850,#851,#852,#853,#854,#855,#856,
#857,#858,#859,#860,#861,#862,#863,#864,#865,#866,#867,#868,#869,#870,#871,
#872,#873,#874,#875,#876,#877,#878,#879,#880,#881,#882,#883,#884,#885,#886,
#887,#888,#889,#890,#891,#892));
#894=DERIVED_UNIT_ELEMENT(#896,1.);
#895=DERIVED_UNIT_ELEMENT(#1533,-3.);
#896=(
MASS_UNIT()
NAMED_UNIT(*)
SI_UNIT(.KILO.,.GRAM.)
);
#897=DERIVED_UNIT((#894,#895));
#898=MEASURE_REPRESENTATION_ITEM('density measure',
POSITIVE_RATIO_MEASURE(7850.),#897);
#899=PROPERTY_DEFINITION_REPRESENTATION(#904,#901);
#900=PROPERTY_DEFINITION_REPRESENTATION(#905,#902);
#901=REPRESENTATION('material name',(#903),#1530);
#902=REPRESENTATION('density',(#898),#1530);
#903=DESCRIPTIVE_REPRESENTATION_ITEM('Steel','Steel');
#904=PROPERTY_DEFINITION('material property','material name',#1540);
#905=PROPERTY_DEFINITION('material property','density of part',#1540);
#906=AXIS2_PLACEMENT_3D('',#1273,#1003,#1004);
#907=AXIS2_PLACEMENT_3D('',#1274,#1005,#1006);
#908=AXIS2_PLACEMENT_3D('',#1277,#1007,#1008);
#909=AXIS2_PLACEMENT_3D('',#1281,#1010,#1011);
#910=AXIS2_PLACEMENT_3D('',#1283,#1013,#1014);
#911=AXIS2_PLACEMENT_3D('',#1289,#1018,#1019);
#912=AXIS2_PLACEMENT_3D('',#1292,#1020,#1021);
#913=AXIS2_PLACEMENT_3D('',#1296,#1023,#1024);
#914=AXIS2_PLACEMENT_3D('',#1298,#1026,#1027);
#915=AXIS2_PLACEMENT_3D('',#1304,#1031,#1032);
#916=AXIS2_PLACEMENT_3D('',#1307,#1033,#1034);
#917=AXIS2_PLACEMENT_3D('',#1311,#1036,#1037);
#918=AXIS2_PLACEMENT_3D('',#1313,#1039,#1040);
#919=AXIS2_PLACEMENT_3D('',#1319,#1044,#1045);
#920=AXIS2_PLACEMENT_3D('',#1322,#1046,#1047);
#921=AXIS2_PLACEMENT_3D('',#1326,#1049,#1050);
#922=AXIS2_PLACEMENT_3D('',#1328,#1052,#1053);
#923=AXIS2_PLACEMENT_3D('',#1331,#1056,#1057);
#924=AXIS2_PLACEMENT_3D('',#1333,#1058,#1059);
#925=AXIS2_PLACEMENT_3D('',#1336,#1061,#1062);
#926=AXIS2_PLACEMENT_3D('',#1337,#1063,#1064);
#927=AXIS2_PLACEMENT_3D('',#1343,#1068,#1069);
#928=AXIS2_PLACEMENT_3D('',#1346,#1070,#1071);
#929=AXIS2_PLACEMENT_3D('',#1350,#1073,#1074);
#930=AXIS2_PLACEMENT_3D('',#1352,#1076,#1077);
#931=AXIS2_PLACEMENT_3D('',#1358,#1081,#1082);
#932=AXIS2_PLACEMENT_3D('',#1361,#1083,#1084);
#933=AXIS2_PLACEMENT_3D('',#1365,#1086,#1087);
#934=AXIS2_PLACEMENT_3D('',#1367,#1089,#1090);
#935=AXIS2_PLACEMENT_3D('',#1370,#1093,#1094);
#936=AXIS2_PLACEMENT_3D('',#1372,#1095,#1096);
#937=AXIS2_PLACEMENT_3D('',#1375,#1098,#1099);
#938=AXIS2_PLACEMENT_3D('',#1376,#1100,#1101);
#939=AXIS2_PLACEMENT_3D('',#1379,#1104,#1105);
#940=AXIS2_PLACEMENT_3D('',#1381,#1106,#1107);
#941=AXIS2_PLACEMENT_3D('',#1384,#1109,#1110);
#942=AXIS2_PLACEMENT_3D('',#1385,#1111,#1112);
#943=AXIS2_PLACEMENT_3D('',#1388,#1115,#1116);
#944=AXIS2_PLACEMENT_3D('',#1390,#1117,#1118);
#945=AXIS2_PLACEMENT_3D('',#1393,#1120,#1121);
#946=AXIS2_PLACEMENT_3D('',#1394,#1122,#1123);
#947=AXIS2_PLACEMENT_3D('',#1400,#1127,#1128);
#948=AXIS2_PLACEMENT_3D('',#1402,#1129,#1130);
#949=AXIS2_PLACEMENT_3D('',#1405,#1132,#1133);
#950=AXIS2_PLACEMENT_3D('',#1406,#1134,#1135);
#951=AXIS2_PLACEMENT_3D('',#1409,#1138,#1139);
#952=AXIS2_PLACEMENT_3D('',#1411,#1140,#1141);
#953=AXIS2_PLACEMENT_3D('',#1414,#1143,#1144);
#954=AXIS2_PLACEMENT_3D('',#1415,#1145,#1146);
#955=AXIS2_PLACEMENT_3D('',#1418,#1149,#1150);
#956=AXIS2_PLACEMENT_3D('',#1420,#1151,#1152);
#957=AXIS2_PLACEMENT_3D('',#1423,#1154,#1155);
#958=AXIS2_PLACEMENT_3D('',#1424,#1156,#1157);
#959=AXIS2_PLACEMENT_3D('',#1426,#1158,#1159);
#960=AXIS2_PLACEMENT_3D('',#1427,#1160,#1161);
#961=AXIS2_PLACEMENT_3D('',#1430,#1163,#1164);
#962=AXIS2_PLACEMENT_3D('',#1431,#1165,#1166);
#963=AXIS2_PLACEMENT_3D('',#1433,#1167,#1168);
#964=AXIS2_PLACEMENT_3D('',#1436,#1170,#1171);
#965=AXIS2_PLACEMENT_3D('',#1437,#1172,#1173);
#966=AXIS2_PLACEMENT_3D('',#1439,#1174,#1175);
#967=AXIS2_PLACEMENT_3D('',#1440,#1176,#1177);
#968=AXIS2_PLACEMENT_3D('',#1443,#1179,#1180);
#969=AXIS2_PLACEMENT_3D('',#1444,#1181,#1182);
#970=AXIS2_PLACEMENT_3D('',#1446,#1183,#1184);
#971=AXIS2_PLACEMENT_3D('',#1449,#1186,#1187);
#972=AXIS2_PLACEMENT_3D('',#1450,#1188,#1189);
#973=AXIS2_PLACEMENT_3D('',#1452,#1190,#1191);
#974=AXIS2_PLACEMENT_3D('',#1453,#1192,#1193);
#975=AXIS2_PLACEMENT_3D('',#1456,#1195,#1196);
#976=AXIS2_PLACEMENT_3D('',#1457,#1197,#1198);
#977=AXIS2_PLACEMENT_3D('',#1459,#1199,#1200);
#978=AXIS2_PLACEMENT_3D('',#1462,#1202,#1203);
#979=AXIS2_PLACEMENT_3D('',#1463,#1204,#1205);
#980=AXIS2_PLACEMENT_3D('',#1465,#1206,#1207);
#981=AXIS2_PLACEMENT_3D('',#1466,#1208,#1209);
#982=AXIS2_PLACEMENT_3D('',#1469,#1211,#1212);
#983=AXIS2_PLACEMENT_3D('',#1470,#1213,#1214);
#984=AXIS2_PLACEMENT_3D('',#1473,#1215,#1216);
#985=AXIS2_PLACEMENT_3D('',#1477,#1218,#1219);
#986=AXIS2_PLACEMENT_3D('',#1479,#1220,#1221);
#987=AXIS2_PLACEMENT_3D('',#1483,#1223,#1224);
#988=AXIS2_PLACEMENT_3D('',#1485,#1225,#1226);
#989=AXIS2_PLACEMENT_3D('',#1489,#1228,#1229);
#990=AXIS2_PLACEMENT_3D('',#1491,#1231,#1232);
#991=AXIS2_PLACEMENT_3D('',#1496,#1234,#1235);
#992=AXIS2_PLACEMENT_3D('',#1500,#1237,#1238);
#993=AXIS2_PLACEMENT_3D('',#1504,#1240,#1241);
#994=AXIS2_PLACEMENT_3D('',#1507,#1243,#1244);
#995=AXIS2_PLACEMENT_3D('',#1508,#1245,#1246);
#996=AXIS2_PLACEMENT_3D('',#1511,#1249,#1250);
#997=AXIS2_PLACEMENT_3D('',#1514,#1253,#1254);
#998=AXIS2_PLACEMENT_3D('',#1516,#1256,#1257);
#999=AXIS2_PLACEMENT_3D('',#1519,#1260,#1261);
#1000=AXIS2_PLACEMENT_3D('',#1521,#1263,#1264);
#1001=AXIS2_PLACEMENT_3D('',#1524,#1267,#1268);
#1002=AXIS2_PLACEMENT_3D('',#1526,#1270,#1271);
#1003=DIRECTION('axis',(0.,0.,1.));
#1004=DIRECTION('refdir',(1.,0.,0.));
#1005=DIRECTION('center_axis',(0.,0.,1.));
#1006=DIRECTION('ref_axis',(-0.923879532511288,0.382683432365088,0.));
#1007=DIRECTION('center_axis',(0.,0.,-1.));
#1008=DIRECTION('ref_axis',(-0.923879532511288,0.382683432365088,0.));
#1009=DIRECTION('',(0.,0.,1.));
#1010=DIRECTION('center_axis',(0.,0.,1.));
#1011=DIRECTION('ref_axis',(-0.923879532511288,0.382683432365088,0.));
#1012=DIRECTION('',(0.,0.,-1.));
#1013=DIRECTION('center_axis',(0.,-1.,0.));
#1014=DIRECTION('ref_axis',(1.,0.,0.));
#1015=DIRECTION('',(1.,0.,0.));
#1016=DIRECTION('',(0.,0.,-1.));
#1017=DIRECTION('',(1.,0.,0.));
#1018=DIRECTION('center_axis',(0.,0.,1.));
#1019=DIRECTION('ref_axis',(0.382683432365084,0.923879532511289,0.));
#1020=DIRECTION('center_axis',(0.,0.,-1.));
#1021=DIRECTION('ref_axis',(0.382683432365084,0.923879532511289,0.));
#1022=DIRECTION('',(0.,0.,1.));
#1023=DIRECTION('center_axis',(0.,0.,1.));
#1024=DIRECTION('ref_axis',(0.382683432365084,0.923879532511289,0.));
#1025=DIRECTION('',(0.,0.,-1.));
#1026=DIRECTION('center_axis',(-1.,0.,0.));
#1027=DIRECTION('ref_axis',(0.,-1.,0.));
#1028=DIRECTION('',(0.,-1.,0.));
#1029=DIRECTION('',(0.,0.,-1.));
#1030=DIRECTION('',(0.,-1.,0.));
#1031=DIRECTION('center_axis',(0.,0.,1.));
#1032=DIRECTION('ref_axis',(-0.923879532511287,-0.382683432365091,0.));
#1033=DIRECTION('center_axis',(0.,0.,-1.));
#1034=DIRECTION('ref_axis',(-0.923879532511287,-0.382683432365091,0.));
#1035=DIRECTION('',(0.,0.,1.));
#1036=DIRECTION('center_axis',(0.,0.,1.));
#1037=DIRECTION('ref_axis',(-0.923879532511287,-0.382683432365091,0.));
#1038=DIRECTION('',(0.,0.,-1.));
#1039=DIRECTION('center_axis',(0.707106781186547,-0.707106781186548,0.));
#1040=DIRECTION('ref_axis',(0.707106781186548,0.707106781186547,0.));
#1041=DIRECTION('',(0.707106781186548,0.707106781186547,0.));
#1042=DIRECTION('',(0.,0.,-1.));
#1043=DIRECTION('',(0.707106781186548,0.707106781186547,0.));
#1044=DIRECTION('center_axis',(0.,0.,1.));
#1045=DIRECTION('ref_axis',(-1.,0.,0.));
#1046=DIRECTION('center_axis',(0.,0.,-1.));
#1047=DIRECTION('ref_axis',(-1.,0.,0.));
#1048=DIRECTION('',(0.,0.,1.));
#1049=DIRECTION('center_axis',(0.,0.,1.));
#1050=DIRECTION('ref_axis',(-1.,0.,0.));
#1051=DIRECTION('',(0.,0.,-1.));
#1052=DIRECTION('center_axis',(0.707106781186547,-0.707106781186548,0.));
#1053=DIRECTION('ref_axis',(0.707106781186548,0.707106781186547,0.));
#1054=DIRECTION('',(0.707106781186548,0.707106781186547,0.));
#1055=DIRECTION('',(0.707106781186548,0.707106781186547,0.));
#1056=DIRECTION('center_axis',(0.,0.,1.));
#1057=DIRECTION('ref_axis',(0.923879532511288,0.382683432365088,0.));
#1058=DIRECTION('center_axis',(0.,0.,-1.));
#1059=DIRECTION('ref_axis',(0.923879532511288,0.382683432365088,0.));
#1060=DIRECTION('',(0.,0.,1.));
#1061=DIRECTION('center_axis',(0.,0.,1.));
#1062=DIRECTION('ref_axis',(0.923879532511288,0.382683432365088,0.));
#1063=DIRECTION('center_axis',(-0.707106781186548,0.707106781186547,0.));
#1064=DIRECTION('ref_axis',(-0.707106781186547,-0.707106781186548,0.));
#1065=DIRECTION('',(-0.707106781186547,-0.707106781186548,0.));
#1066=DIRECTION('',(0.,0.,-1.));
#1067=DIRECTION('',(-0.707106781186547,-0.707106781186548,0.));
#1068=DIRECTION('center_axis',(0.,0.,1.));
#1069=DIRECTION('ref_axis',(1.,0.,0.));
#1070=DIRECTION('center_axis',(0.,0.,-1.));
#1071=DIRECTION('ref_axis',(1.,0.,0.));
#1072=DIRECTION('',(0.,0.,1.));
#1073=DIRECTION('center_axis',(0.,0.,1.));
#1074=DIRECTION('ref_axis',(1.,0.,0.));
#1075=DIRECTION('',(0.,0.,-1.));
#1076=DIRECTION('center_axis',(-0.707106781186548,0.707106781186547,0.));
#1077=DIRECTION('ref_axis',(-0.707106781186547,-0.707106781186548,0.));
#1078=DIRECTION('',(-0.707106781186547,-0.707106781186548,0.));
#1079=DIRECTION('',(0.,0.,-1.));
#1080=DIRECTION('',(-0.707106781186547,-0.707106781186548,0.));
#1081=DIRECTION('center_axis',(0.,0.,1.));
#1082=DIRECTION('ref_axis',(0.923879532511287,-0.382683432365091,0.));
#1083=DIRECTION('center_axis',(0.,0.,-1.));
#1084=DIRECTION('ref_axis',(0.923879532511287,-0.382683432365091,0.));
#1085=DIRECTION('',(0.,0.,1.));
#1086=DIRECTION('center_axis',(0.,0.,1.));
#1087=DIRECTION('ref_axis',(0.923879532511287,-0.382683432365091,0.));
#1088=DIRECTION('',(0.,0.,-1.));
#1089=DIRECTION('center_axis',(-1.04738021191053E-16,1.,0.));
#1090=DIRECTION('ref_axis',(-1.,-1.04738021191053E-16,0.));
#1091=DIRECTION('',(-1.,-1.04738021191053E-16,0.));
#1092=DIRECTION('',(-1.,-1.04738021191053E-16,0.));
#1093=DIRECTION('center_axis',(0.,0.,1.));
#1094=DIRECTION('ref_axis',(0.382683432365087,-0.923879532511288,0.));
#1095=DIRECTION('center_axis',(0.,0.,-1.));
#1096=DIRECTION('ref_axis',(0.382683432365087,-0.923879532511288,0.));
#1097=DIRECTION('',(0.,0.,1.));
#1098=DIRECTION('center_axis',(0.,0.,1.));
#1099=DIRECTION('ref_axis',(0.382683432365087,-0.923879532511288,0.));
#1100=DIRECTION('center_axis',(0.707106781186548,0.707106781186548,0.));
#1101=DIRECTION('ref_axis',(-0.707106781186548,0.707106781186548,0.));
#1102=DIRECTION('',(-0.707106781186547,0.707106781186547,0.));
#1103=DIRECTION('',(-0.707106781186547,0.707106781186547,0.));
#1104=DIRECTION('center_axis',(0.,0.,1.));
#1105=DIRECTION('ref_axis',(0.,-1.,0.));
#1106=DIRECTION('center_axis',(0.,0.,-1.));
#1107=DIRECTION('ref_axis',(0.,-1.,0.));
#1108=DIRECTION('',(0.,0.,1.));
#1109=DIRECTION('center_axis',(0.,0.,1.));
#1110=DIRECTION('ref_axis',(0.,-1.,0.));
#1111=DIRECTION('center_axis',(0.707106781186548,0.707106781186548,0.));
#1112=DIRECTION('ref_axis',(-0.707106781186548,0.707106781186548,0.));
#1113=DIRECTION('',(-0.707106781186547,0.707106781186547,0.));
#1114=DIRECTION('',(-0.707106781186547,0.707106781186547,0.));
#1115=DIRECTION('center_axis',(0.,0.,1.));
#1116=DIRECTION('ref_axis',(-0.38268343236509,-0.923879532511287,0.));
#1117=DIRECTION('center_axis',(0.,0.,-1.));
#1118=DIRECTION('ref_axis',(-0.38268343236509,-0.923879532511287,0.));
#1119=DIRECTION('',(0.,0.,1.));
#1120=DIRECTION('center_axis',(0.,0.,1.));
#1121=DIRECTION('ref_axis',(-0.38268343236509,-0.923879532511287,0.));
#1122=DIRECTION('center_axis',(1.,8.3790416952842E-17,0.));
#1123=DIRECTION('ref_axis',(-8.3790416952842E-17,1.,0.));
#1124=DIRECTION('',(-8.3790416952842E-17,1.,0.));
#1125=DIRECTION('',(0.,0.,-1.));
#1126=DIRECTION('',(-8.3790416952842E-17,1.,0.));
#1127=DIRECTION('center_axis',(0.,0.,1.));
#1128=DIRECTION('ref_axis',(0.,1.,0.));
#1129=DIRECTION('center_axis',(0.,0.,-1.));
#1130=DIRECTION('ref_axis',(0.,1.,0.));
#1131=DIRECTION('',(0.,0.,1.));
#1132=DIRECTION('center_axis',(0.,0.,1.));
#1133=DIRECTION('ref_axis',(0.,1.,0.));
#1134=DIRECTION('center_axis',(-0.707106781186548,-0.707106781186548,0.));
#1135=DIRECTION('ref_axis',(0.707106781186548,-0.707106781186548,0.));
#1136=DIRECTION('',(0.707106781186548,-0.707106781186548,0.));
#1137=DIRECTION('',(0.707106781186548,-0.707106781186548,0.));
#1138=DIRECTION('center_axis',(0.,0.,1.));
#1139=DIRECTION('ref_axis',(-0.382683432365092,0.923879532511286,0.));
#1140=DIRECTION('center_axis',(0.,0.,-1.));
#1141=DIRECTION('ref_axis',(-0.382683432365092,0.923879532511286,0.));
#1142=DIRECTION('',(0.,0.,1.));
#1143=DIRECTION('center_axis',(0.,0.,1.));
#1144=DIRECTION('ref_axis',(-0.382683432365092,0.923879532511286,0.));
#1145=DIRECTION('center_axis',(-0.707106781186548,-0.707106781186548,0.));
#1146=DIRECTION('ref_axis',(0.707106781186548,-0.707106781186548,0.));
#1147=DIRECTION('',(0.707106781186548,-0.707106781186548,0.));
#1148=DIRECTION('',(0.707106781186548,-0.707106781186548,0.));
#1149=DIRECTION('center_axis',(0.,0.,1.));
#1150=DIRECTION('ref_axis',(1.,0.,0.));
#1151=DIRECTION('center_axis',(0.,0.,1.));
#1152=DIRECTION('ref_axis',(1.,0.,0.));
#1153=DIRECTION('',(0.707106781186548,8.65956056235494E-17,-0.707106781186548));
#1154=DIRECTION('center_axis',(0.,0.,-1.));
#1155=DIRECTION('ref_axis',(1.,0.,0.));
#1156=DIRECTION('center_axis',(0.,0.,1.));
#1157=DIRECTION('ref_axis',(1.,0.,0.));
#1158=DIRECTION('center_axis',(0.,0.,1.));
#1159=DIRECTION('ref_axis',(1.,0.,0.));
#1160=DIRECTION('center_axis',(0.,0.,1.));
#1161=DIRECTION('ref_axis',(1.,0.,0.));
#1162=DIRECTION('',(0.,0.,-1.));
#1163=DIRECTION('center_axis',(0.,0.,-1.));
#1164=DIRECTION('ref_axis',(1.,0.,0.));
#1165=DIRECTION('center_axis',(0.,0.,1.));
#1166=DIRECTION('ref_axis',(1.,0.,0.));
#1167=DIRECTION('center_axis',(0.,0.,1.));
#1168=DIRECTION('ref_axis',(1.,0.,0.));
#1169=DIRECTION('',(0.707106781186548,8.65956056235494E-17,-0.707106781186547));
#1170=DIRECTION('center_axis',(0.,0.,-1.));
#1171=DIRECTION('ref_axis',(1.,0.,0.));
#1172=DIRECTION('center_axis',(0.,0.,1.));
#1173=DIRECTION('ref_axis',(1.,0.,0.));
#1174=DIRECTION('center_axis',(0.,0.,1.));
#1175=DIRECTION('ref_axis',(1.,0.,0.));
#1176=DIRECTION('center_axis',(0.,0.,1.));
#1177=DIRECTION('ref_axis',(1.,0.,0.));
#1178=DIRECTION('',(0.,0.,-1.));
#1179=DIRECTION('center_axis',(0.,0.,-1.));
#1180=DIRECTION('ref_axis',(1.,0.,0.));
#1181=DIRECTION('center_axis',(0.,0.,1.));
#1182=DIRECTION('ref_axis',(1.,0.,0.));
#1183=DIRECTION('center_axis',(0.,0.,1.));
#1184=DIRECTION('ref_axis',(1.,0.,0.));
#1185=DIRECTION('',(0.707106781186548,8.65956056235494E-17,-0.707106781186547));
#1186=DIRECTION('center_axis',(0.,0.,-1.));
#1187=DIRECTION('ref_axis',(1.,0.,0.));
#1188=DIRECTION('center_axis',(0.,0.,1.));
#1189=DIRECTION('ref_axis',(1.,0.,0.));
#1190=DIRECTION('center_axis',(0.,0.,1.));
#1191=DIRECTION('ref_axis',(1.,0.,0.));
#1192=DIRECTION('center_axis',(0.,0.,1.));
#1193=DIRECTION('ref_axis',(1.,0.,0.));
#1194=DIRECTION('',(0.,0.,-1.));
#1195=DIRECTION('center_axis',(0.,0.,-1.));
#1196=DIRECTION('ref_axis',(1.,0.,0.));
#1197=DIRECTION('center_axis',(0.,0.,1.));
#1198=DIRECTION('ref_axis',(1.,0.,0.));
#1199=DIRECTION('center_axis',(0.,0.,1.));
#1200=DIRECTION('ref_axis',(1.,0.,0.));
#1201=DIRECTION('',(0.707106781186548,8.65956056235493E-17,-0.707106781186548));
#1202=DIRECTION('center_axis',(0.,0.,-1.));
#1203=DIRECTION('ref_axis',(1.,0.,0.));
#1204=DIRECTION('center_axis',(0.,0.,1.));
#1205=DIRECTION('ref_axis',(1.,0.,0.));
#1206=DIRECTION('center_axis',(0.,0.,1.));
#1207=DIRECTION('ref_axis',(1.,0.,0.));
#1208=DIRECTION('center_axis',(0.,0.,1.));
#1209=DIRECTION('ref_axis',(1.,0.,0.));
#1210=DIRECTION('',(0.,0.,-1.));
#1211=DIRECTION('center_axis',(0.,0.,-1.));
#1212=DIRECTION('ref_axis',(1.,0.,0.));
#1213=DIRECTION('center_axis',(0.,0.,1.));
#1214=DIRECTION('ref_axis',(1.,0.,0.));
#1215=DIRECTION('center_axis',(0.,0.,-1.));
#1216=DIRECTION('ref_axis',(1.,0.,0.));
#1217=DIRECTION('',(1.,0.,0.));
#1218=DIRECTION('center_axis',(0.,0.,-1.));
#1219=DIRECTION('ref_axis',(1.,0.,0.));
#1220=DIRECTION('center_axis',(0.,0.,-1.));
#1221=DIRECTION('ref_axis',(1.,0.,0.));
#1222=DIRECTION('',(0.,1.,0.));
#1223=DIRECTION('center_axis',(0.,0.,-1.));
#1224=DIRECTION('ref_axis',(1.,0.,0.));
#1225=DIRECTION('center_axis',(0.,0.,-1.));
#1226=DIRECTION('ref_axis',(1.,0.,0.));
#1227=DIRECTION('',(-1.,0.,0.));
#1228=DIRECTION('center_axis',(0.,0.,-1.));
#1229=DIRECTION('ref_axis',(1.,0.,0.));
#1230=DIRECTION('',(0.,-1.,0.));
#1231=DIRECTION('center_axis',(0.,0.,1.));
#1232=DIRECTION('ref_axis',(1.,0.,0.));
#1233=DIRECTION('',(0.,1.,0.));
#1234=DIRECTION('center_axis',(0.,0.,1.));
#1235=DIRECTION('ref_axis',(1.,0.,0.));
#1236=DIRECTION('',(1.,0.,0.));
#1237=DIRECTION('center_axis',(0.,0.,1.));
#1238=DIRECTION('ref_axis',(1.,0.,0.));
#1239=DIRECTION('',(0.,-1.,0.));
#1240=DIRECTION('center_axis',(0.,0.,1.));
#1241=DIRECTION('ref_axis',(1.,0.,0.));
#1242=DIRECTION('',(-1.,0.,0.));
#1243=DIRECTION('center_axis',(0.,0.,1.));
#1244=DIRECTION('ref_axis',(1.,0.,0.));
#1245=DIRECTION('center_axis',(0.,1.,0.));
#1246=DIRECTION('ref_axis',(-1.,0.,0.));
#1247=DIRECTION('',(0.,0.,1.));
#1248=DIRECTION('',(0.,0.,1.));
#1249=DIRECTION('center_axis',(0.,0.,1.));
#1250=DIRECTION('ref_axis',(1.,0.,0.));
#1251=DIRECTION('',(0.,0.,-1.));
#1252=DIRECTION('',(0.,0.,1.));
#1253=DIRECTION('center_axis',(1.,0.,0.));
#1254=DIRECTION('ref_axis',(0.,1.,0.));
#1255=DIRECTION('',(0.,0.,1.));
#1256=DIRECTION('center_axis',(0.,0.,1.));
#1257=DIRECTION('ref_axis',(1.,0.,0.));
#1258=DIRECTION('',(0.,0.,-1.));
#1259=DIRECTION('',(0.,0.,1.));
#1260=DIRECTION('center_axis',(0.,-1.,0.));
#1261=DIRECTION('ref_axis',(1.,0.,0.));
#1262=DIRECTION('',(0.,0.,1.));
#1263=DIRECTION('center_axis',(0.,0.,1.));
#1264=DIRECTION('ref_axis',(1.,0.,0.));
#1265=DIRECTION('',(0.,0.,-1.));
#1266=DIRECTION('',(0.,0.,1.));
#1267=DIRECTION('center_axis',(-1.,0.,0.));
#1268=DIRECTION('ref_axis',(0.,-1.,0.));
#1269=DIRECTION('',(0.,0.,1.));
#1270=DIRECTION('center_axis',(0.,0.,1.));
#1271=DIRECTION('ref_axis',(1.,0.,0.));
#1272=DIRECTION('',(0.,0.,-1.));
#1273=CARTESIAN_POINT('',(0.,0.,0.));
#1274=CARTESIAN_POINT('Origin',(6.53553390593274,27.5,0.));
#1275=CARTESIAN_POINT('',(5.8284271247462,26.7928932188135,0.));
#1276=CARTESIAN_POINT('',(6.53553390593274,28.5,0.));
#1277=CARTESIAN_POINT('Origin',(6.53553390593274,27.5,0.));
#1278=CARTESIAN_POINT('',(6.53553390593274,28.5,2.));
#1279=CARTESIAN_POINT('',(6.53553390593274,28.5,0.));
#1280=CARTESIAN_POINT('',(5.8284271247462,26.7928932188135,2.));
#1281=CARTESIAN_POINT('Origin',(6.53553390593274,27.5,2.));
#1282=CARTESIAN_POINT('',(5.8284271247462,26.7928932188135,0.));
#1283=CARTESIAN_POINT('Origin',(4.12132034355965,28.5,0.));
#1284=CARTESIAN_POINT('',(23.9644660940673,28.5,0.));
#1285=CARTESIAN_POINT('',(28.5,28.5,0.));
#1286=CARTESIAN_POINT('',(23.9644660940673,28.5,2.));
#1287=CARTESIAN_POINT('',(23.9644660940673,28.5,0.));
#1288=CARTESIAN_POINT('',(28.5,28.5,2.));
#1289=CARTESIAN_POINT('Origin',(27.5,23.9644660940673,0.));
#1290=CARTESIAN_POINT('',(26.7928932188135,24.6715728752538,0.));
#1291=CARTESIAN_POINT('',(28.5,23.9644660940673,0.));
#1292=CARTESIAN_POINT('Origin',(27.5,23.9644660940673,0.));
#1293=CARTESIAN_POINT('',(28.5,23.9644660940673,2.));
#1294=CARTESIAN_POINT('',(28.5,23.9644660940673,0.));
#1295=CARTESIAN_POINT('',(26.7928932188135,24.6715728752538,2.));
#1296=CARTESIAN_POINT('Origin',(27.5,23.9644660940673,2.));
#1297=CARTESIAN_POINT('',(26.7928932188135,24.6715728752538,0.));
#1298=CARTESIAN_POINT('Origin',(28.5,26.3786796564404,0.));
#1299=CARTESIAN_POINT('',(28.5,6.53553390593274,0.));
#1300=CARTESIAN_POINT('',(28.5,2.,0.));
#1301=CARTESIAN_POINT('',(28.5,6.53553390593274,2.));
#1302=CARTESIAN_POINT('',(28.5,6.53553390593274,0.));
#1303=CARTESIAN_POINT('',(28.5,2.,2.));
#1304=CARTESIAN_POINT('Origin',(6.53553390593274,3.,0.));
#1305=CARTESIAN_POINT('',(6.53553390593274,2.,0.));
#1306=CARTESIAN_POINT('',(5.82842712474619,3.70710678118655,0.));
#1307=CARTESIAN_POINT('Origin',(6.53553390593274,3.,0.));
#1308=CARTESIAN_POINT('',(5.82842712474619,3.70710678118655,2.));
#1309=CARTESIAN_POINT('',(5.82842712474619,3.70710678118655,0.));
#1310=CARTESIAN_POINT('',(6.53553390593274,2.,2.));
#1311=CARTESIAN_POINT('Origin',(6.53553390593274,3.,2.));
#1312=CARTESIAN_POINT('',(6.53553390593274,2.,0.));
#1313=CARTESIAN_POINT('Origin',(4.12132034355964,2.,0.));
#1314=CARTESIAN_POINT('',(14.5428932188135,12.4215728752538,0.));
#1315=CARTESIAN_POINT('',(31.5606601717798,29.4393398282202,0.));
#1316=CARTESIAN_POINT('',(14.5428932188135,12.4215728752538,2.));
#1317=CARTESIAN_POINT('',(14.5428932188135,12.4215728752538,0.));
#1318=CARTESIAN_POINT('',(31.5606601717798,29.4393398282202,2.));
#1319=CARTESIAN_POINT('Origin',(18.7855339059327,15.25,0.));
#1320=CARTESIAN_POINT('',(18.0784271247462,14.5428932188135,0.));
#1321=CARTESIAN_POINT('',(18.0784271247462,15.9571067811866,0.));
#1322=CARTESIAN_POINT('Origin',(18.7855339059327,15.25,0.));
#1323=CARTESIAN_POINT('',(18.0784271247462,15.9571067811866,2.));
#1324=CARTESIAN_POINT('',(18.0784271247462,15.9571067811865,0.));
#1325=CARTESIAN_POINT('',(18.0784271247462,14.5428932188135,2.));
#1326=CARTESIAN_POINT('Origin',(18.7855339059327,15.25,2.));
#1327=CARTESIAN_POINT('',(18.0784271247462,14.5428932188135,0.));
#1328=CARTESIAN_POINT('Origin',(17.3713203435596,15.25,0.));
#1329=CARTESIAN_POINT('',(31.5606601717798,29.4393398282202,2.));
#1330=CARTESIAN_POINT('',(31.5606601717798,29.4393398282202,0.));
#1331=CARTESIAN_POINT('Origin',(23.9644660940673,27.5,0.));
#1332=CARTESIAN_POINT('',(24.6715728752538,26.7928932188135,0.));
#1333=CARTESIAN_POINT('Origin',(23.9644660940673,27.5,0.));
#1334=CARTESIAN_POINT('',(24.6715728752538,26.7928932188135,2.));
#1335=CARTESIAN_POINT('',(24.6715728752538,26.7928932188135,0.));
#1336=CARTESIAN_POINT('Origin',(23.9644660940673,27.5,2.));
#1337=CARTESIAN_POINT('Origin',(26.3786796564404,28.5,0.));
#1338=CARTESIAN_POINT('',(15.9571067811865,18.0784271247462,0.));
#1339=CARTESIAN_POINT('',(29.4393398282202,31.5606601717798,0.));
#1340=CARTESIAN_POINT('',(15.9571067811865,18.0784271247462,2.));
#1341=CARTESIAN_POINT('',(15.9571067811865,18.0784271247462,0.));
#1342=CARTESIAN_POINT('',(29.4393398282202,31.5606601717798,2.));
#1343=CARTESIAN_POINT('Origin',(11.7144660940673,15.25,0.));
#1344=CARTESIAN_POINT('',(12.4215728752538,15.9571067811865,0.));
#1345=CARTESIAN_POINT('',(12.4215728752538,14.5428932188135,0.));
#1346=CARTESIAN_POINT('Origin',(11.7144660940673,15.25,0.));
#1347=CARTESIAN_POINT('',(12.4215728752538,14.5428932188135,2.));
#1348=CARTESIAN_POINT('',(12.4215728752538,14.5428932188135,0.));
#1349=CARTESIAN_POINT('',(12.4215728752538,15.9571067811865,2.));
#1350=CARTESIAN_POINT('Origin',(11.7144660940673,15.25,2.));
#1351=CARTESIAN_POINT('',(12.4215728752538,15.9571067811865,0.));
#1352=CARTESIAN_POINT('Origin',(13.1286796564404,15.25,0.));
#1353=CARTESIAN_POINT('',(3.70710678118655,5.8284271247462,0.));
#1354=CARTESIAN_POINT('',(29.4393398282202,31.5606601717798,0.));
#1355=CARTESIAN_POINT('',(3.70710678118655,5.8284271247462,2.));
#1356=CARTESIAN_POINT('',(3.70710678118655,5.82842712474619,0.));
#1357=CARTESIAN_POINT('',(29.4393398282202,31.5606601717798,2.));
#1358=CARTESIAN_POINT('Origin',(23.9644660940673,3.,0.));
#1359=CARTESIAN_POINT('',(24.6715728752538,3.70710678118655,0.));
#1360=CARTESIAN_POINT('',(23.9644660940673,2.,0.));
#1361=CARTESIAN_POINT('Origin',(23.9644660940673,3.,0.));
#1362=CARTESIAN_POINT('',(23.9644660940673,2.,2.));
#1363=CARTESIAN_POINT('',(23.9644660940673,2.,0.));
#1364=CARTESIAN_POINT('',(24.6715728752538,3.70710678118655,2.));
#1365=CARTESIAN_POINT('Origin',(23.9644660940673,3.,2.));
#1366=CARTESIAN_POINT('',(24.6715728752538,3.70710678118655,0.));
#1367=CARTESIAN_POINT('Origin',(26.3786796564404,2.,0.));
#1368=CARTESIAN_POINT('',(2.,2.,2.));
#1369=CARTESIAN_POINT('',(2.,2.,0.));
#1370=CARTESIAN_POINT('Origin',(27.5,6.53553390593274,0.));
#1371=CARTESIAN_POINT('',(26.7928932188135,5.8284271247462,0.));
#1372=CARTESIAN_POINT('Origin',(27.5,6.53553390593274,0.));
#1373=CARTESIAN_POINT('',(26.7928932188135,5.8284271247462,2.));
#1374=CARTESIAN_POINT('',(26.7928932188135,5.82842712474619,0.));
#1375=CARTESIAN_POINT('Origin',(27.5,6.53553390593274,2.));
#1376=CARTESIAN_POINT('Origin',(28.5,4.12132034355965,0.));
#1377=CARTESIAN_POINT('',(1.06066017177982,31.5606601717798,2.));
#1378=CARTESIAN_POINT('',(1.06066017177982,31.5606601717798,0.));
#1379=CARTESIAN_POINT('Origin',(15.25,18.7855339059327,0.));
#1380=CARTESIAN_POINT('',(14.5428932188135,18.0784271247462,0.));
#1381=CARTESIAN_POINT('Origin',(15.25,18.7855339059327,0.));
#1382=CARTESIAN_POINT('',(14.5428932188135,18.0784271247462,2.));
#1383=CARTESIAN_POINT('',(14.5428932188135,18.0784271247462,0.));
#1384=CARTESIAN_POINT('Origin',(15.25,18.7855339059327,2.));
#1385=CARTESIAN_POINT('Origin',(15.25,17.3713203435596,0.));
#1386=CARTESIAN_POINT('',(1.06066017177982,31.5606601717798,2.));
#1387=CARTESIAN_POINT('',(1.06066017177982,31.5606601717798,0.));
#1388=CARTESIAN_POINT('Origin',(3.,6.53553390593274,0.));
#1389=CARTESIAN_POINT('',(2.,6.53553390593274,0.));
#1390=CARTESIAN_POINT('Origin',(3.,6.53553390593274,0.));
#1391=CARTESIAN_POINT('',(2.,6.53553390593274,2.));
#1392=CARTESIAN_POINT('',(2.,6.53553390593274,0.));
#1393=CARTESIAN_POINT('Origin',(3.,6.53553390593274,2.));
#1394=CARTESIAN_POINT('Origin',(2.,4.12132034355965,0.));
#1395=CARTESIAN_POINT('',(2.,23.9644660940673,0.));
#1396=CARTESIAN_POINT('',(2.,28.5,0.));
#1397=CARTESIAN_POINT('',(2.,23.9644660940673,2.));
#1398=CARTESIAN_POINT('',(2.,23.9644660940673,0.));
#1399=CARTESIAN_POINT('',(2.,28.5,2.));
#1400=CARTESIAN_POINT('Origin',(15.25,11.7144660940673,0.));
#1401=CARTESIAN_POINT('',(15.9571067811865,12.4215728752538,0.));
#1402=CARTESIAN_POINT('Origin',(15.25,11.7144660940673,0.));
#1403=CARTESIAN_POINT('',(15.9571067811865,12.4215728752538,2.));
#1404=CARTESIAN_POINT('',(15.9571067811865,12.4215728752538,0.));
#1405=CARTESIAN_POINT('Origin',(15.25,11.7144660940673,2.));
#1406=CARTESIAN_POINT('Origin',(15.25,13.1286796564404,0.));
#1407=CARTESIAN_POINT('',(-1.06066017177982,29.4393398282202,2.));
#1408=CARTESIAN_POINT('',(-1.06066017177982,29.4393398282202,0.));
#1409=CARTESIAN_POINT('Origin',(3.,23.9644660940673,0.));
#1410=CARTESIAN_POINT('',(3.70710678118655,24.6715728752538,0.));
#1411=CARTESIAN_POINT('Origin',(3.,23.9644660940673,0.));
#1412=CARTESIAN_POINT('',(3.70710678118655,24.6715728752538,2.));
#1413=CARTESIAN_POINT('',(3.70710678118655,24.6715728752538,0.));
#1414=CARTESIAN_POINT('Origin',(3.,23.9644660940673,2.));
#1415=CARTESIAN_POINT('Origin',(2.,26.3786796564404,0.));
#1416=CARTESIAN_POINT('',(-1.06066017177982,29.4393398282202,2.));
#1417=CARTESIAN_POINT('',(-1.06066017177982,29.4393398282202,0.));
#1418=CARTESIAN_POINT('Origin',(0.,30.5,4.7));
#1419=CARTESIAN_POINT('',(-2.,30.5,5.));
#1420=CARTESIAN_POINT('Origin',(0.,30.5,5.));
#1421=CARTESIAN_POINT('',(-1.4,30.5,4.4));
#1422=CARTESIAN_POINT('',(-1.7,30.5,4.7));
#1423=CARTESIAN_POINT('Origin',(0.,30.5,4.4));
#1424=CARTESIAN_POINT('Origin',(0.,30.5,5.));
#1425=CARTESIAN_POINT('',(-4.,30.5,5.));
#1426=CARTESIAN_POINT('Origin',(0.,30.5,5.));
#1427=CARTESIAN_POINT('Origin',(0.,30.5,0.));
#1428=CARTESIAN_POINT('',(-1.4,30.5,0.));
#1429=CARTESIAN_POINT('',(-1.4,30.5,0.));
#1430=CARTESIAN_POINT('Origin',(0.,30.5,0.));
#1431=CARTESIAN_POINT('Origin',(30.5,30.5,4.7));
#1432=CARTESIAN_POINT('',(28.5,30.5,5.));
#1433=CARTESIAN_POINT('Origin',(30.5,30.5,5.));
#1434=CARTESIAN_POINT('',(29.1,30.5,4.4));
#1435=CARTESIAN_POINT('',(28.8,30.5,4.7));
#1436=CARTESIAN_POINT('Origin',(30.5,30.5,4.4));
#1437=CARTESIAN_POINT('Origin',(30.5,30.5,5.));
#1438=CARTESIAN_POINT('',(26.5,30.5,5.));
#1439=CARTESIAN_POINT('Origin',(30.5,30.5,5.));
#1440=CARTESIAN_POINT('Origin',(30.5,30.5,0.));
#1441=CARTESIAN_POINT('',(29.1,30.5,0.));
#1442=CARTESIAN_POINT('',(29.1,30.5,0.));
#1443=CARTESIAN_POINT('Origin',(30.5,30.5,0.));
#1444=CARTESIAN_POINT('Origin',(30.5,0.,4.7));
#1445=CARTESIAN_POINT('',(28.5,-2.44929359829471E-16,5.));
#1446=CARTESIAN_POINT('Origin',(30.5,0.,5.));
#1447=CARTESIAN_POINT('',(29.1,1.7145055188063E-16,4.4));
#1448=CARTESIAN_POINT('',(28.8,-2.0818995585505E-16,4.7));
#1449=CARTESIAN_POINT('Origin',(30.5,0.,4.4));
#1450=CARTESIAN_POINT('Origin',(30.5,0.,5.));
#1451=CARTESIAN_POINT('',(26.5,-4.89858719658941E-16,5.));
#1452=CARTESIAN_POINT('Origin',(30.5,0.,5.));
#1453=CARTESIAN_POINT('Origin',(30.5,0.,0.));
#1454=CARTESIAN_POINT('',(29.1,-1.7145055188063E-16,0.));
#1455=CARTESIAN_POINT('',(29.1,-1.7145055188063E-16,0.));
#1456=CARTESIAN_POINT('Origin',(30.5,0.,0.));
#1457=CARTESIAN_POINT('Origin',(0.,0.,4.7));
#1458=CARTESIAN_POINT('',(-2.,-2.44929359829471E-16,5.));
#1459=CARTESIAN_POINT('Origin',(0.,0.,5.));
#1460=CARTESIAN_POINT('',(-1.4,1.71450551880629E-16,4.4));
#1461=CARTESIAN_POINT('',(-1.7,-2.0818995585505E-16,4.7));
#1462=CARTESIAN_POINT('Origin',(0.,0.,4.4));
#1463=CARTESIAN_POINT('Origin',(0.,0.,5.));
#1464=CARTESIAN_POINT('',(-4.,-4.89858719658941E-16,5.));
#1465=CARTESIAN_POINT('Origin',(0.,0.,5.));
#1466=CARTESIAN_POINT('Origin',(0.,0.,0.));
#1467=CARTESIAN_POINT('',(-1.4,-1.71450551880629E-16,0.));
#1468=CARTESIAN_POINT('',(-1.4,-1.71450551880629E-16,0.));
#1469=CARTESIAN_POINT('Origin',(0.,0.,0.));
#1470=CARTESIAN_POINT('Origin',(15.25,15.25,2.));
#1471=CARTESIAN_POINT('',(-4.,0.,2.));
#1472=CARTESIAN_POINT('',(2.44929359829471E-16,-4.,2.));
#1473=CARTESIAN_POINT('Origin',(0.,0.,2.));
#1474=CARTESIAN_POINT('',(30.5,-4.,2.));
#1475=CARTESIAN_POINT('',(34.5,-4.,2.));
#1476=CARTESIAN_POINT('',(26.5,-4.89858719658941E-16,2.));
#1477=CARTESIAN_POINT('Origin',(30.5,0.,2.));
#1478=CARTESIAN_POINT('',(34.5,0.,2.));
#1479=CARTESIAN_POINT('Origin',(30.5,0.,2.));
#1480=CARTESIAN_POINT('',(34.5,30.5,2.));
#1481=CARTESIAN_POINT('',(34.5,34.5,2.));
#1482=CARTESIAN_POINT('',(26.5,30.5,2.));
#1483=CARTESIAN_POINT('Origin',(30.5,30.5,2.));
#1484=CARTESIAN_POINT('',(30.5,34.5,2.));
#1485=CARTESIAN_POINT('Origin',(30.5,30.5,2.));
#1486=CARTESIAN_POINT('',(1.22464679914735E-15,34.5,2.));
#1487=CARTESIAN_POINT('',(-4.,34.5,2.));
#1488=CARTESIAN_POINT('',(-4.,30.5,2.));
#1489=CARTESIAN_POINT('Origin',(0.,30.5,2.));
#1490=CARTESIAN_POINT('',(-4.,-4.,2.));
#1491=CARTESIAN_POINT('Origin',(15.25,15.25,0.));
#1492=CARTESIAN_POINT('',(-4.,4.89858719658941E-16,0.));
#1493=CARTESIAN_POINT('',(-4.,30.5,0.));
#1494=CARTESIAN_POINT('',(-4.,-4.,0.));
#1495=CARTESIAN_POINT('',(1.22464679914735E-15,34.5,0.));
#1496=CARTESIAN_POINT('Origin',(0.,30.5,0.));
#1497=CARTESIAN_POINT('',(30.5,34.5,0.));
#1498=CARTESIAN_POINT('',(-4.,34.5,0.));
#1499=CARTESIAN_POINT('',(34.5,30.5,0.));
#1500=CARTESIAN_POINT('Origin',(30.5,30.5,0.));
#1501=CARTESIAN_POINT('',(34.5,0.,0.));
#1502=CARTESIAN_POINT('',(34.5,34.5,0.));
#1503=CARTESIAN_POINT('',(30.5,-4.,0.));
#1504=CARTESIAN_POINT('Origin',(30.5,0.,0.));
#1505=CARTESIAN_POINT('',(2.44929359829471E-16,-4.,0.));
#1506=CARTESIAN_POINT('',(34.5,-4.,0.));
#1507=CARTESIAN_POINT('Origin',(0.,0.,0.));
#1508=CARTESIAN_POINT('Origin',(30.5,34.5,0.));
#1509=CARTESIAN_POINT('',(1.22464679914735E-15,34.5,0.));
#1510=CARTESIAN_POINT('',(30.5,34.5,0.));
#1511=CARTESIAN_POINT('Origin',(30.5,30.5,0.));
#1512=CARTESIAN_POINT('',(26.5,30.5,0.));
#1513=CARTESIAN_POINT('',(34.5,30.5,0.));
#1514=CARTESIAN_POINT('Origin',(34.5,0.,0.));
#1515=CARTESIAN_POINT('',(34.5,0.,0.));
#1516=CARTESIAN_POINT('Origin',(30.5,0.,0.));
#1517=CARTESIAN_POINT('',(26.5,-4.89858719658941E-16,0.));
#1518=CARTESIAN_POINT('',(30.5,-4.,0.));
#1519=CARTESIAN_POINT('Origin',(0.,-4.,0.));
#1520=CARTESIAN_POINT('',(2.44929359829471E-16,-4.,0.));
#1521=CARTESIAN_POINT('Origin',(0.,0.,0.));
#1522=CARTESIAN_POINT('',(-4.,-4.89858719658941E-16,0.));
#1523=CARTESIAN_POINT('',(-4.,4.89858719658941E-16,0.));
#1524=CARTESIAN_POINT('Origin',(-4.,30.5,0.));
#1525=CARTESIAN_POINT('',(-4.,30.5,0.));
#1526=CARTESIAN_POINT('Origin',(0.,30.5,0.));
#1527=CARTESIAN_POINT('',(-4.,30.5,0.));
#1528=UNCERTAINTY_MEASURE_WITH_UNIT(LENGTH_MEASURE(0.01),#1532,
'DISTANCE_ACCURACY_VALUE',
'Maximum model space distance between geometric entities at asserted c
onnectivities');
#1529=UNCERTAINTY_MEASURE_WITH_UNIT(LENGTH_MEASURE(0.01),#1532,
'DISTANCE_ACCURACY_VALUE',
'Maximum model space distance between geometric entities at asserted c
onnectivities');
#1530=(
GEOMETRIC_REPRESENTATION_CONTEXT(3)
GLOBAL_UNCERTAINTY_ASSIGNED_CONTEXT((#1528))
GLOBAL_UNIT_ASSIGNED_CONTEXT((#1532,#1534,#1535))
REPRESENTATION_CONTEXT('','3D')
);
#1531=(
GEOMETRIC_REPRESENTATION_CONTEXT(3)
GLOBAL_UNCERTAINTY_ASSIGNED_CONTEXT((#1529))
GLOBAL_UNIT_ASSIGNED_CONTEXT((#1532,#1534,#1535))
REPRESENTATION_CONTEXT('','3D')
);
#1532=(
LENGTH_UNIT()
NAMED_UNIT(*)
SI_UNIT(.MILLI.,.METRE.)
);
#1533=(
LENGTH_UNIT()
NAMED_UNIT(*)
SI_UNIT($,.METRE.)
);
#1534=(
NAMED_UNIT(*)
PLANE_ANGLE_UNIT()
SI_UNIT($,.RADIAN.)
);
#1535=(
NAMED_UNIT(*)
SI_UNIT($,.STERADIAN.)
SOLID_ANGLE_UNIT()
);
#1536=SHAPE_DEFINITION_REPRESENTATION(#1537,#1538);
#1537=PRODUCT_DEFINITION_SHAPE('',$,#1540);
#1538=SHAPE_REPRESENTATION('',(#906),#1530);
#1539=PRODUCT_DEFINITION_CONTEXT('part definition',#1544,'design');
#1540=PRODUCT_DEFINITION('ESC mount','ESC mount v1',#1541,#1539);
#1541=PRODUCT_DEFINITION_FORMATION('',$,#1546);
#1542=PRODUCT_RELATED_PRODUCT_CATEGORY('ESC mount v1','ESC mount v1',(#1546));
#1543=APPLICATION_PROTOCOL_DEFINITION('international standard',
'automotive_design',2009,#1544);
#1544=APPLICATION_CONTEXT(
'Core Data for Automotive Mechanical Design Process');
#1545=PRODUCT_CONTEXT('part definition',#1544,'mechanical');
#1546=PRODUCT('ESC mount','ESC mount v1',$,(#1545));
#1547=PRESENTATION_STYLE_ASSIGNMENT((#1549));
#1548=PRESENTATION_STYLE_ASSIGNMENT((#1550));
#1549=SURFACE_STYLE_USAGE(.BOTH.,#1551);
#1550=SURFACE_STYLE_USAGE(.BOTH.,#1552);
#1551=SURFACE_SIDE_STYLE('',(#1553));
#1552=SURFACE_SIDE_STYLE('',(#1554));
#1553=SURFACE_STYLE_FILL_AREA(#1555);
#1554=SURFACE_STYLE_FILL_AREA(#1556);
#1555=FILL_AREA_STYLE('Steel - Satin',(#1557));
#1556=FILL_AREA_STYLE('PLA (White)',(#1558));
#1557=FILL_AREA_STYLE_COLOUR('Steel - Satin',#1559);
#1558=FILL_AREA_STYLE_COLOUR('PLA (White)',#1560);
#1559=COLOUR_RGB('Steel - Satin',0.627450980392157,0.627450980392157,0.627450980392157);
#1560=COLOUR_RGB('PLA (White)',0.964705882352941,0.964705882352941,0.952941176470588);
ENDSEC;
END-ISO-10303-21;
