ISO-10303-21;
HEADER;
/* Generated by software containing ST-Developer
 * from STEP Tools, Inc. (www.steptools.com) 
 */

FILE_DESCRIPTION(
/* description */ (''),
/* implementation_level */ '2;1');

FILE_NAME(
/* name */ 'Front Latch.step',
/* time_stamp */ '2026-08-30T19:24:37-07:00',
/* author */ (''),
/* organization */ (''),
/* preprocessor_version */ 'ST-DEVELOPER v20.1',
/* originating_system */ 'Autodesk Translation Framework v15.8.0.0',
/* authorisation */ '');

FILE_SCHEMA (('AUTOMOTIVE_DESIGN { 1 0 10303 214 3 1 1 }'));
ENDSEC;

DATA;
#10=MECHANICAL_DESIGN_GEOMETRIC_PRESENTATION_REPRESENTATION('',(#13),#506);
#11=SHAPE_REPRESENTATION_RELATIONSHIP('SRR','None',#513,#12);
#12=ADVANCED_BREP_SHAPE_REPRESENTATION('',(#14),#505);
#13=STYLED_ITEM('',(#523),#14);
#14=MANIFOLD_SOLID_BREP('front latch',#258);
#15=B_SPLINE_SURFACE_WITH_KNOTS('',3,3,((#464,#465,#466,#467),(#468,#469,
#470,#471),(#472,#473,#474,#475),(#476,#477,#478,#479)),.UNSPECIFIED.,.F.,
 .F.,.F.,(4,4),(4,4),(0.91847168145917,1.),(0.175506656711631,0.193524655030819),
 .UNSPECIFIED.);
#16=B_SPLINE_SURFACE_WITH_KNOTS('',3,3,((#484,#485,#486,#487),(#488,#489,
#490,#491),(#492,#493,#494,#495),(#496,#497,#498,#499)),.UNSPECIFIED.,.F.,
 .F.,.F.,(4,4),(4,4),(0.918471681459171,1.),(0.175506656711631,0.193524655030819),
 .UNSPECIFIED.);
#17=B_SPLINE_CURVE_WITH_KNOTS('',3,(#367,#368,#369,#370),.UNSPECIFIED.,
 .F.,.F.,(4,4),(-0.409563077654808,-0.0499999999999994),.UNSPECIFIED.);
#18=B_SPLINE_CURVE_WITH_KNOTS('',3,(#372,#373,#374,#375),.UNSPECIFIED.,
 .F.,.F.,(4,4),(-0.359563077654807,0.),.UNSPECIFIED.);
#19=B_SPLINE_CURVE_WITH_KNOTS('',3,(#380,#381,#382,#383,#384,#385,#386,
#387,#388,#389,#390,#391,#392,#393),.UNSPECIFIED.,.F.,.F.,(4,2,2,2,2,2,
4),(0.,0.0279865674578681,0.0576110941346157,0.0975156158215145,0.128781920298167,
0.150617097865425,0.157400471313502),.UNSPECIFIED.);
#20=B_SPLINE_CURVE_WITH_KNOTS('',3,(#405,#406,#407,#408),.UNSPECIFIED.,
 .F.,.F.,(4,4),(-0.409563077654807,-0.15),.UNSPECIFIED.);
#21=B_SPLINE_CURVE_WITH_KNOTS('',3,(#409,#410,#411,#412),.UNSPECIFIED.,
 .F.,.F.,(4,4),(-0.259563077654806,0.),.UNSPECIFIED.);
#22=B_SPLINE_CURVE_WITH_KNOTS('',3,(#427,#428,#429,#430,#431,#432,#433,
#434,#435,#436,#437,#438),.UNSPECIFIED.,.F.,.F.,(4,2,2,2,2,4),(-0.157494693614742,
-0.141784313001483,-0.117054362166453,-0.0793148234385841,-0.0398576497012621,
0.),.UNSPECIFIED.);
#23=B_SPLINE_CURVE_WITH_KNOTS('',3,(#444,#445,#446,#447),.UNSPECIFIED.,
 .F.,.F.,(4,4),(-0.95042657725728,-0.300354772659758),.UNSPECIFIED.);
#24=B_SPLINE_CURVE_WITH_KNOTS('',3,(#455,#456,#457,#458),.UNSPECIFIED.,
 .F.,.F.,(4,4),(-0.902405618978669,-0.252333813911944),.UNSPECIFIED.);
#25=B_SPLINE_CURVE_WITH_KNOTS('',3,(#480,#481,#482,#483),.UNSPECIFIED.,
 .F.,.F.,(4,4),(0.175506656711631,0.193524655030819),.UNSPECIFIED.);
#26=PLANE('',#275);
#27=PLANE('',#278);
#28=PLANE('',#279);
#29=PLANE('',#284);
#30=PLANE('',#287);
#31=PLANE('',#290);
#32=PLANE('',#291);
#33=FACE_OUTER_BOUND('',#47,.T.);
#34=FACE_OUTER_BOUND('',#48,.T.);
#35=FACE_OUTER_BOUND('',#49,.T.);
#36=FACE_OUTER_BOUND('',#50,.T.);
#37=FACE_OUTER_BOUND('',#51,.T.);
#38=FACE_OUTER_BOUND('',#52,.T.);
#39=FACE_OUTER_BOUND('',#53,.T.);
#40=FACE_OUTER_BOUND('',#54,.T.);
#41=FACE_OUTER_BOUND('',#55,.T.);
#42=FACE_OUTER_BOUND('',#56,.T.);
#43=FACE_OUTER_BOUND('',#57,.T.);
#44=FACE_OUTER_BOUND('',#58,.T.);
#45=FACE_OUTER_BOUND('',#59,.T.);
#46=FACE_OUTER_BOUND('',#60,.T.);
#47=EDGE_LOOP('',(#167,#168,#169,#170));
#48=EDGE_LOOP('',(#171,#172,#173,#174,#175));
#49=EDGE_LOOP('',(#176,#177,#178,#179));
#50=EDGE_LOOP('',(#180,#181,#182,#183,#184));
#51=EDGE_LOOP('',(#185,#186,#187,#188,#189,#190,#191,#192));
#52=EDGE_LOOP('',(#193,#194,#195,#196));
#53=EDGE_LOOP('',(#197,#198,#199,#200,#201,#202,#203));
#54=EDGE_LOOP('',(#204,#205,#206,#207));
#55=EDGE_LOOP('',(#208,#209,#210,#211,#212,#213,#214));
#56=EDGE_LOOP('',(#215,#216,#217,#218));
#57=EDGE_LOOP('',(#219,#220,#221,#222,#223));
#58=EDGE_LOOP('',(#224,#225,#226,#227,#228));
#59=EDGE_LOOP('',(#229,#230,#231,#232));
#60=EDGE_LOOP('',(#233,#234,#235,#236,#237,#238));
#61=LINE('',#359,#80);
#62=LINE('',#362,#81);
#63=LINE('',#365,#82);
#64=LINE('',#376,#83);
#65=LINE('',#395,#84);
#66=LINE('',#398,#85);
#67=LINE('',#401,#86);
#68=LINE('',#403,#87);
#69=LINE('',#415,#88);
#70=LINE('',#419,#89);
#71=LINE('',#423,#90);
#72=LINE('',#439,#91);
#73=LINE('',#442,#92);
#74=LINE('',#443,#93);
#75=LINE('',#450,#94);
#76=LINE('',#453,#95);
#77=LINE('',#459,#96);
#78=LINE('',#462,#97);
#79=LINE('',#501,#98);
#80=VECTOR('',#298,10.);
#81=VECTOR('',#301,10.);
#82=VECTOR('',#304,10.);
#83=VECTOR('',#305,10.);
#84=VECTOR('',#308,10.);
#85=VECTOR('',#311,10.);
#86=VECTOR('',#314,10.);
#87=VECTOR('',#315,10.);
#88=VECTOR('',#318,10.);
#89=VECTOR('',#321,10.);
#90=VECTOR('',#324,10.);
#91=VECTOR('',#329,10.);
#92=VECTOR('',#332,10.);
#93=VECTOR('',#333,10.);
#94=VECTOR('',#336,10.);
#95=VECTOR('',#339,10.);
#96=VECTOR('',#342,10.);
#97=VECTOR('',#345,10.);
#98=VECTOR('',#350,10.);
#99=CIRCLE('',#273,1.);
#100=CIRCLE('',#274,1.);
#101=CIRCLE('',#277,1.);
#102=CIRCLE('',#280,1.);
#103=CIRCLE('',#281,1.);
#104=CIRCLE('',#282,1.);
#105=CIRCLE('',#286,1.);
#106=CIRCLE('',#289,1.);
#107=VERTEX_POINT('',#355);
#108=VERTEX_POINT('',#356);
#109=VERTEX_POINT('',#358);
#110=VERTEX_POINT('',#360);
#111=VERTEX_POINT('',#364);
#112=VERTEX_POINT('',#366);
#113=VERTEX_POINT('',#371);
#114=VERTEX_POINT('',#378);
#115=VERTEX_POINT('',#379);
#116=VERTEX_POINT('',#394);
#117=VERTEX_POINT('',#396);
#118=VERTEX_POINT('',#400);
#119=VERTEX_POINT('',#402);
#120=VERTEX_POINT('',#404);
#121=VERTEX_POINT('',#414);
#122=VERTEX_POINT('',#416);
#123=VERTEX_POINT('',#418);
#124=VERTEX_POINT('',#420);
#125=VERTEX_POINT('',#422);
#126=VERTEX_POINT('',#426);
#127=VERTEX_POINT('',#441);
#128=VERTEX_POINT('',#449);
#129=VERTEX_POINT('',#451);
#130=VERTEX_POINT('',#461);
#131=EDGE_CURVE('',#107,#108,#99,.T.);
#132=EDGE_CURVE('',#108,#109,#61,.T.);
#133=EDGE_CURVE('',#109,#110,#100,.T.);
#134=EDGE_CURVE('',#110,#107,#62,.T.);
#135=EDGE_CURVE('',#108,#111,#63,.T.);
#136=EDGE_CURVE('',#112,#111,#17,.T.);
#137=EDGE_CURVE('',#113,#112,#18,.T.);
#138=EDGE_CURVE('',#109,#113,#64,.T.);
#139=EDGE_CURVE('',#114,#115,#19,.T.);
#140=EDGE_CURVE('',#115,#116,#65,.T.);
#141=EDGE_CURVE('',#116,#117,#101,.T.);
#142=EDGE_CURVE('',#117,#114,#66,.T.);
#143=EDGE_CURVE('',#118,#117,#67,.T.);
#144=EDGE_CURVE('',#119,#118,#68,.T.);
#145=EDGE_CURVE('',#120,#119,#20,.T.);
#146=EDGE_CURVE('',#114,#120,#21,.T.);
#147=EDGE_CURVE('',#116,#121,#69,.T.);
#148=EDGE_CURVE('',#122,#121,#102,.T.);
#149=EDGE_CURVE('',#122,#123,#70,.T.);
#150=EDGE_CURVE('',#124,#123,#103,.T.);
#151=EDGE_CURVE('',#124,#125,#71,.T.);
#152=EDGE_CURVE('',#118,#125,#104,.T.);
#153=EDGE_CURVE('',#126,#119,#22,.T.);
#154=EDGE_CURVE('',#125,#126,#72,.T.);
#155=EDGE_CURVE('',#127,#124,#73,.T.);
#156=EDGE_CURVE('',#110,#127,#74,.T.);
#157=EDGE_CURVE('',#126,#113,#23,.T.);
#158=EDGE_CURVE('',#121,#128,#75,.T.);
#159=EDGE_CURVE('',#128,#129,#105,.T.);
#160=EDGE_CURVE('',#129,#122,#76,.T.);
#161=EDGE_CURVE('',#111,#115,#24,.T.);
#162=EDGE_CURVE('',#128,#107,#77,.T.);
#163=EDGE_CURVE('',#123,#130,#78,.T.);
#164=EDGE_CURVE('',#130,#127,#106,.T.);
#165=EDGE_CURVE('',#112,#120,#25,.T.);
#166=EDGE_CURVE('',#130,#129,#79,.T.);
#167=ORIENTED_EDGE('',*,*,#131,.T.);
#168=ORIENTED_EDGE('',*,*,#132,.T.);
#169=ORIENTED_EDGE('',*,*,#133,.T.);
#170=ORIENTED_EDGE('',*,*,#134,.T.);
#171=ORIENTED_EDGE('',*,*,#132,.F.);
#172=ORIENTED_EDGE('',*,*,#135,.T.);
#173=ORIENTED_EDGE('',*,*,#136,.F.);
#174=ORIENTED_EDGE('',*,*,#137,.F.);
#175=ORIENTED_EDGE('',*,*,#138,.F.);
#176=ORIENTED_EDGE('',*,*,#139,.T.);
#177=ORIENTED_EDGE('',*,*,#140,.T.);
#178=ORIENTED_EDGE('',*,*,#141,.T.);
#179=ORIENTED_EDGE('',*,*,#142,.T.);
#180=ORIENTED_EDGE('',*,*,#142,.F.);
#181=ORIENTED_EDGE('',*,*,#143,.F.);
#182=ORIENTED_EDGE('',*,*,#144,.F.);
#183=ORIENTED_EDGE('',*,*,#145,.F.);
#184=ORIENTED_EDGE('',*,*,#146,.F.);
#185=ORIENTED_EDGE('',*,*,#141,.F.);
#186=ORIENTED_EDGE('',*,*,#147,.T.);
#187=ORIENTED_EDGE('',*,*,#148,.F.);
#188=ORIENTED_EDGE('',*,*,#149,.T.);
#189=ORIENTED_EDGE('',*,*,#150,.F.);
#190=ORIENTED_EDGE('',*,*,#151,.T.);
#191=ORIENTED_EDGE('',*,*,#152,.F.);
#192=ORIENTED_EDGE('',*,*,#143,.T.);
#193=ORIENTED_EDGE('',*,*,#153,.T.);
#194=ORIENTED_EDGE('',*,*,#144,.T.);
#195=ORIENTED_EDGE('',*,*,#152,.T.);
#196=ORIENTED_EDGE('',*,*,#154,.T.);
#197=ORIENTED_EDGE('',*,*,#154,.F.);
#198=ORIENTED_EDGE('',*,*,#151,.F.);
#199=ORIENTED_EDGE('',*,*,#155,.F.);
#200=ORIENTED_EDGE('',*,*,#156,.F.);
#201=ORIENTED_EDGE('',*,*,#133,.F.);
#202=ORIENTED_EDGE('',*,*,#138,.T.);
#203=ORIENTED_EDGE('',*,*,#157,.F.);
#204=ORIENTED_EDGE('',*,*,#148,.T.);
#205=ORIENTED_EDGE('',*,*,#158,.T.);
#206=ORIENTED_EDGE('',*,*,#159,.T.);
#207=ORIENTED_EDGE('',*,*,#160,.T.);
#208=ORIENTED_EDGE('',*,*,#140,.F.);
#209=ORIENTED_EDGE('',*,*,#161,.F.);
#210=ORIENTED_EDGE('',*,*,#135,.F.);
#211=ORIENTED_EDGE('',*,*,#131,.F.);
#212=ORIENTED_EDGE('',*,*,#162,.F.);
#213=ORIENTED_EDGE('',*,*,#158,.F.);
#214=ORIENTED_EDGE('',*,*,#147,.F.);
#215=ORIENTED_EDGE('',*,*,#150,.T.);
#216=ORIENTED_EDGE('',*,*,#163,.T.);
#217=ORIENTED_EDGE('',*,*,#164,.T.);
#218=ORIENTED_EDGE('',*,*,#155,.T.);
#219=ORIENTED_EDGE('',*,*,#139,.F.);
#220=ORIENTED_EDGE('',*,*,#146,.T.);
#221=ORIENTED_EDGE('',*,*,#165,.F.);
#222=ORIENTED_EDGE('',*,*,#136,.T.);
#223=ORIENTED_EDGE('',*,*,#161,.T.);
#224=ORIENTED_EDGE('',*,*,#153,.F.);
#225=ORIENTED_EDGE('',*,*,#157,.T.);
#226=ORIENTED_EDGE('',*,*,#137,.T.);
#227=ORIENTED_EDGE('',*,*,#165,.T.);
#228=ORIENTED_EDGE('',*,*,#145,.T.);
#229=ORIENTED_EDGE('',*,*,#160,.F.);
#230=ORIENTED_EDGE('',*,*,#166,.F.);
#231=ORIENTED_EDGE('',*,*,#163,.F.);
#232=ORIENTED_EDGE('',*,*,#149,.F.);
#233=ORIENTED_EDGE('',*,*,#134,.F.);
#234=ORIENTED_EDGE('',*,*,#156,.T.);
#235=ORIENTED_EDGE('',*,*,#164,.F.);
#236=ORIENTED_EDGE('',*,*,#166,.T.);
#237=ORIENTED_EDGE('',*,*,#159,.F.);
#238=ORIENTED_EDGE('',*,*,#162,.T.);
#239=CYLINDRICAL_SURFACE('',#272,1.);
#240=CYLINDRICAL_SURFACE('',#276,1.);
#241=CYLINDRICAL_SURFACE('',#283,1.);
#242=CYLINDRICAL_SURFACE('',#285,1.);
#243=CYLINDRICAL_SURFACE('',#288,1.);
#244=ADVANCED_FACE('',(#33),#239,.F.);
#245=ADVANCED_FACE('',(#34),#26,.T.);
#246=ADVANCED_FACE('',(#35),#240,.T.);
#247=ADVANCED_FACE('',(#36),#27,.T.);
#248=ADVANCED_FACE('',(#37),#28,.T.);
#249=ADVANCED_FACE('',(#38),#241,.T.);
#250=ADVANCED_FACE('',(#39),#29,.T.);
#251=ADVANCED_FACE('',(#40),#242,.T.);
#252=ADVANCED_FACE('',(#41),#30,.T.);
#253=ADVANCED_FACE('',(#42),#243,.T.);
#254=ADVANCED_FACE('',(#43),#15,.F.);
#255=ADVANCED_FACE('',(#44),#16,.T.);
#256=ADVANCED_FACE('',(#45),#31,.T.);
#257=ADVANCED_FACE('',(#46),#32,.T.);
#258=CLOSED_SHELL('',(#244,#245,#246,#247,#248,#249,#250,#251,#252,#253,
#254,#255,#256,#257));
#259=DERIVED_UNIT_ELEMENT(#261,1.);
#260=DERIVED_UNIT_ELEMENT(#508,-3.);
#261=(
MASS_UNIT()
NAMED_UNIT(*)
SI_UNIT(.KILO.,.GRAM.)
);
#262=DERIVED_UNIT((#259,#260));
#263=MEASURE_REPRESENTATION_ITEM('density measure',
POSITIVE_RATIO_MEASURE(7850.),#262);
#264=PROPERTY_DEFINITION_REPRESENTATION(#269,#266);
#265=PROPERTY_DEFINITION_REPRESENTATION(#270,#267);
#266=REPRESENTATION('material name',(#268),#505);
#267=REPRESENTATION('density',(#263),#505);
#268=DESCRIPTIVE_REPRESENTATION_ITEM('Steel','Steel');
#269=PROPERTY_DEFINITION('material property','material name',#515);
#270=PROPERTY_DEFINITION('material property','density of part',#515);
#271=AXIS2_PLACEMENT_3D('',#353,#292,#293);
#272=AXIS2_PLACEMENT_3D('',#354,#294,#295);
#273=AXIS2_PLACEMENT_3D('',#357,#296,#297);
#274=AXIS2_PLACEMENT_3D('',#361,#299,#300);
#275=AXIS2_PLACEMENT_3D('',#363,#302,#303);
#276=AXIS2_PLACEMENT_3D('',#377,#306,#307);
#277=AXIS2_PLACEMENT_3D('',#397,#309,#310);
#278=AXIS2_PLACEMENT_3D('',#399,#312,#313);
#279=AXIS2_PLACEMENT_3D('',#413,#316,#317);
#280=AXIS2_PLACEMENT_3D('',#417,#319,#320);
#281=AXIS2_PLACEMENT_3D('',#421,#322,#323);
#282=AXIS2_PLACEMENT_3D('',#424,#325,#326);
#283=AXIS2_PLACEMENT_3D('',#425,#327,#328);
#284=AXIS2_PLACEMENT_3D('',#440,#330,#331);
#285=AXIS2_PLACEMENT_3D('',#448,#334,#335);
#286=AXIS2_PLACEMENT_3D('',#452,#337,#338);
#287=AXIS2_PLACEMENT_3D('',#454,#340,#341);
#288=AXIS2_PLACEMENT_3D('',#460,#343,#344);
#289=AXIS2_PLACEMENT_3D('',#463,#346,#347);
#290=AXIS2_PLACEMENT_3D('',#500,#348,#349);
#291=AXIS2_PLACEMENT_3D('',#502,#351,#352);
#292=DIRECTION('axis',(0.,0.,1.));
#293=DIRECTION('refdir',(1.,0.,0.));
#294=DIRECTION('center_axis',(-1.,0.,0.));
#295=DIRECTION('ref_axis',(0.,0.809016994374942,-0.58778525229248));
#296=DIRECTION('center_axis',(1.,1.04172662003842E-15,1.64993287685957E-16));
#297=DIRECTION('ref_axis',(0.,0.809016994374942,-0.58778525229248));
#298=DIRECTION('',(-1.,0.,0.));
#299=DIRECTION('center_axis',(-1.,0.,0.));
#300=DIRECTION('ref_axis',(0.,0.809016994374942,-0.58778525229248));
#301=DIRECTION('',(1.,0.,0.));
#302=DIRECTION('center_axis',(0.,-0.987688340595138,-0.156434465040231));
#303=DIRECTION('ref_axis',(1.,0.,0.));
#304=DIRECTION('',(0.,-0.156434465040231,0.987688340595138));
#305=DIRECTION('',(0.,-0.156434465040231,0.987688340595138));
#306=DIRECTION('center_axis',(0.,-0.156434465040232,0.987688340595138));
#307=DIRECTION('ref_axis',(0.707106781186552,0.698401123333706,0.110615871041237));
#308=DIRECTION('',(0.,0.156434465040232,-0.987688340595138));
#309=DIRECTION('center_axis',(0.,-0.156434465040232,0.987688340595138));
#310=DIRECTION('ref_axis',(0.707106781186552,0.698401123333706,0.110615871041237));
#311=DIRECTION('',(0.,-0.156434465040232,0.987688340595138));
#312=DIRECTION('center_axis',(0.,0.987688340595138,0.156434465040232));
#313=DIRECTION('ref_axis',(1.,0.,0.));
#314=DIRECTION('',(1.,0.,0.));
#315=DIRECTION('',(0.,0.156434465040232,-0.987688340595138));
#316=DIRECTION('center_axis',(0.,0.156434465040232,-0.987688340595138));
#317=DIRECTION('ref_axis',(-1.,0.,0.));
#318=DIRECTION('',(1.05471187339391E-15,-0.987688340595138,-0.156434465040231));
#319=DIRECTION('center_axis',(0.,-0.156434465040232,0.987688340595138));
#320=DIRECTION('ref_axis',(0.707106781186552,-0.698401123333706,-0.110615871041237));
#321=DIRECTION('',(-1.,0.,0.));
#322=DIRECTION('center_axis',(0.,-0.156434465040232,0.987688340595138));
#323=DIRECTION('ref_axis',(-0.707106781186551,-0.698401123333707,-0.110615871041237));
#324=DIRECTION('',(0.,0.987688340595138,0.156434465040231));
#325=DIRECTION('center_axis',(0.,-0.156434465040232,0.987688340595138));
#326=DIRECTION('ref_axis',(-0.707106781186551,0.698401123333707,0.110615871041237));
#327=DIRECTION('center_axis',(0.,-0.156434465040232,0.987688340595138));
#328=DIRECTION('ref_axis',(-0.707106781186551,0.698401123333707,0.110615871041237));
#329=DIRECTION('',(0.,-0.156434465040232,0.987688340595138));
#330=DIRECTION('center_axis',(-1.,0.,0.));
#331=DIRECTION('ref_axis',(0.,0.987688340595138,0.156434465040231));
#332=DIRECTION('',(0.,0.156434465040232,-0.987688340595138));
#333=DIRECTION('',(0.,-0.987688340595138,-0.156434465040231));
#334=DIRECTION('center_axis',(0.,0.156434465040232,-0.987688340595138));
#335=DIRECTION('ref_axis',(0.707106781186552,-0.698401123333706,-0.110615871041237));
#336=DIRECTION('',(0.,-0.156434465040232,0.987688340595138));
#337=DIRECTION('center_axis',(0.,0.156434465040231,-0.987688340595138));
#338=DIRECTION('ref_axis',(0.707106781186552,-0.698401123333706,-0.110615871041237));
#339=DIRECTION('',(0.,0.156434465040232,-0.987688340595138));
#340=DIRECTION('center_axis',(1.,1.04172662003842E-15,1.64993287685957E-16));
#341=DIRECTION('ref_axis',(1.05471187339391E-15,-0.987688340595138,-0.156434465040231));
#342=DIRECTION('',(-1.05471187339391E-15,0.987688340595138,0.156434465040231));
#343=DIRECTION('center_axis',(0.,0.156434465040232,-0.987688340595138));
#344=DIRECTION('ref_axis',(-0.707106781186551,-0.698401123333707,-0.110615871041237));
#345=DIRECTION('',(0.,-0.156434465040232,0.987688340595138));
#346=DIRECTION('center_axis',(0.,0.156434465040231,-0.987688340595138));
#347=DIRECTION('ref_axis',(-0.707106781186551,-0.698401123333707,-0.110615871041237));
#348=DIRECTION('center_axis',(0.,-0.987688340595138,-0.156434465040232));
#349=DIRECTION('ref_axis',(-1.,0.,0.));
#350=DIRECTION('',(1.,0.,0.));
#351=DIRECTION('center_axis',(0.,-0.156434465040231,0.987688340595138));
#352=DIRECTION('ref_axis',(-1.,0.,0.));
#353=CARTESIAN_POINT('',(0.,0.,0.));
#354=CARTESIAN_POINT('Origin',(-1.79781538827404,-168.63583694559,23.7850133276213));
#355=CARTESIAN_POINT('',(3.59563077654808,-168.47940248055,22.7973249870262));
#356=CARTESIAN_POINT('',(3.59563077654809,-167.648148604995,23.9414477926616));
#357=CARTESIAN_POINT('Origin',(3.59563077654808,-168.63583694559,23.7850133276213));
#358=CARTESIAN_POINT('',(-3.59563077654808,-167.648148604995,23.9414477926616));
#359=CARTESIAN_POINT('',(-1.79781538827404,-167.648148604995,23.9414477926616));
#360=CARTESIAN_POINT('',(-3.59563077654808,-168.47940248055,22.7973249870262));
#361=CARTESIAN_POINT('Origin',(-3.59563077654808,-168.63583694559,23.7850133276213));
#362=CARTESIAN_POINT('',(-1.79781538827404,-168.47940248055,22.7973249870262));
#363=CARTESIAN_POINT('Origin',(-3.59563077654808,-167.491714139955,22.9537594520664));
#364=CARTESIAN_POINT('',(3.59563077654809,-168.201886692896,27.4376124838789));
#365=CARTESIAN_POINT('',(3.59563077654809,-167.491714139955,22.9537594520664));
#366=CARTESIAN_POINT('',(-9.46324378101504E-15,-168.201886692896,27.4376124838789));
#367=CARTESIAN_POINT('Ctrl Pts',(1.19644640837734E-14,-168.201886692896,
27.4376124838789));
#368=CARTESIAN_POINT('Ctrl Pts',(1.19854359218271,-168.201886692896,27.4376124838789));
#369=CARTESIAN_POINT('Ctrl Pts',(2.3970871843654,-168.201886692896,27.4376124838789));
#370=CARTESIAN_POINT('Ctrl Pts',(3.59563077654809,-168.201886692896,27.4376124838789));
#371=CARTESIAN_POINT('',(-3.59563077654808,-168.201886692896,27.4376124838789));
#372=CARTESIAN_POINT('Ctrl Pts',(-3.59563077654808,-168.201886692896,27.4376124838789));
#373=CARTESIAN_POINT('Ctrl Pts',(-2.39708718436539,-168.201886692896,27.4376124838789));
#374=CARTESIAN_POINT('Ctrl Pts',(-1.1985435921827,-168.201886692896,27.4376124838789));
#375=CARTESIAN_POINT('Ctrl Pts',(-1.19644640837734E-14,-168.201886692896,
27.4376124838789));
#376=CARTESIAN_POINT('',(-3.59563077654808,-167.491714139955,22.9537594520664));
#377=CARTESIAN_POINT('Origin',(2.59563077654808,-161.071739926086,23.9705834748279));
#378=CARTESIAN_POINT('',(2.59563077654808,-160.807888868607,28.6971466825182));
#379=CARTESIAN_POINT('',(3.59563077654809,-161.794472188935,28.5337353940942));
#380=CARTESIAN_POINT('Ctrl Pts',(2.59563077654807,-160.807888868607,28.6971466825182));
#381=CARTESIAN_POINT('Ctrl Pts',(2.68891933474097,-160.807888868607,28.6971466825182));
#382=CARTESIAN_POINT('Ctrl Pts',(2.78175059410934,-160.820769355379,28.6950229332477));
#383=CARTESIAN_POINT('Ctrl Pts',(2.96633968116069,-160.873026034261,28.6864024268896));
#384=CARTESIAN_POINT('Ctrl Pts',(3.05670276446355,-160.913621751973,28.6797042861675));
#385=CARTESIAN_POINT('Ctrl Pts',(3.25118078409318,-161.038003108633,28.6591637321532));
#386=CARTESIAN_POINT('Ctrl Pts',(3.34724700576994,-161.130647113097,28.6438532116859));
#387=CARTESIAN_POINT('Ctrl Pts',(3.48079549700406,-161.324090536865,28.6118301459105));
#388=CARTESIAN_POINT('Ctrl Pts',(3.52564021833482,-161.417598789852,28.5963343121584));
#389=CARTESIAN_POINT('Ctrl Pts',(3.57556122848887,-161.58512724761,28.5685330200444));
#390=CARTESIAN_POINT('Ctrl Pts',(3.5884040612146,-161.656018132674,28.556758111887));
#391=CARTESIAN_POINT('Ctrl Pts',(3.59486559417923,-161.749905507651,28.5411483533073));
#392=CARTESIAN_POINT('Ctrl Pts',(3.59563077654808,-161.772191819622,28.5374419273791));
#393=CARTESIAN_POINT('Ctrl Pts',(3.59563077654808,-161.794472188935,28.5337353940952));
#394=CARTESIAN_POINT('',(3.59563077654808,-160.602436530965,21.0075184530425));
#395=CARTESIAN_POINT('',(3.59563077654808,-161.071739926086,23.9705834748279));
#396=CARTESIAN_POINT('',(2.59563077654808,-159.61474819037,21.1639529180828));
#397=CARTESIAN_POINT('Origin',(2.59563077654808,-160.602436530965,21.0075184530425));
#398=CARTESIAN_POINT('',(2.59563077654808,-160.084051585491,24.1270179398682));
#399=CARTESIAN_POINT('Origin',(-3.59563077654808,-160.084051585491,24.1270179398682));
#400=CARTESIAN_POINT('',(-2.59563077654808,-159.61474819037,21.1639529180828));
#401=CARTESIAN_POINT('',(-3.59563077654808,-159.61474819037,21.1639529180828));
#402=CARTESIAN_POINT('',(-2.59563077654808,-160.807888868607,28.6971466825182));
#403=CARTESIAN_POINT('',(-2.59563077654808,-160.084051585491,24.1270179398682));
#404=CARTESIAN_POINT('',(-9.50470295100532E-15,-160.807888868607,28.6971466825181));
#405=CARTESIAN_POINT('Ctrl Pts',(-1.17945928193046E-14,-160.807888868607,
28.6971466825182));
#406=CARTESIAN_POINT('Ctrl Pts',(-0.865210258849369,-160.807888868607,28.6971466825182));
#407=CARTESIAN_POINT('Ctrl Pts',(-1.73042051769873,-160.807888868607,28.6971466825182));
#408=CARTESIAN_POINT('Ctrl Pts',(-2.59563077654808,-160.807888868607,28.6971466825182));
#409=CARTESIAN_POINT('Ctrl Pts',(2.59563077654808,-160.807888868607,28.6971466825182));
#410=CARTESIAN_POINT('Ctrl Pts',(1.73042051769872,-160.807888868607,28.6971466825182));
#411=CARTESIAN_POINT('Ctrl Pts',(0.865210258849367,-160.807888868607,28.6971466825182));
#412=CARTESIAN_POINT('Ctrl Pts',(1.17945928193046E-14,-160.807888868607,
28.6971466825182));
#413=CARTESIAN_POINT('Origin',(6.66133814775094E-15,-169.491631596322,19.5996082676804));
#414=CARTESIAN_POINT('',(3.5956307765481,-178.380826661678,18.1916980823184));
#415=CARTESIAN_POINT('',(3.5956307765481,-179.368515002273,18.0352636172781));
#416=CARTESIAN_POINT('',(2.59563077654809,-179.368515002273,18.0352636172781));
#417=CARTESIAN_POINT('Origin',(2.59563077654809,-178.380826661678,18.1916980823183));
#418=CARTESIAN_POINT('',(-2.59563077654808,-179.368515002273,18.0352636172781));
#419=CARTESIAN_POINT('',(-3.59563077654808,-179.368515002273,18.0352636172781));
#420=CARTESIAN_POINT('',(-3.59563077654808,-178.380826661678,18.1916980823184));
#421=CARTESIAN_POINT('Origin',(-2.59563077654808,-178.380826661678,18.1916980823183));
#422=CARTESIAN_POINT('',(-3.59563077654808,-160.602436530965,21.0075184530425));
#423=CARTESIAN_POINT('',(-3.59563077654808,-169.491631596322,19.5996082676804));
#424=CARTESIAN_POINT('Origin',(-2.59563077654808,-160.602436530965,21.0075184530425));
#425=CARTESIAN_POINT('Origin',(-2.59563077654808,-161.071739926086,23.970583474828));
#426=CARTESIAN_POINT('',(-3.59563077654808,-161.794472188935,28.5337353940941));
#427=CARTESIAN_POINT('Ctrl Pts',(-3.59563077654808,-161.794472188935,28.5337353940952));
#428=CARTESIAN_POINT('Ctrl Pts',(-3.59563077654808,-161.742857356535,28.5423219705359));
#429=CARTESIAN_POINT('Ctrl Pts',(-3.59152427101835,-161.69129921914,28.5508932044234));
#430=CARTESIAN_POINT('Ctrl Pts',(-3.57045412110457,-161.55995505441,28.5727136744385));
#431=CARTESIAN_POINT('Ctrl Pts',(-3.547551612036,-161.481512351427,28.5857311014265));
#432=CARTESIAN_POINT('Ctrl Pts',(-3.46571034626035,-161.292616204055,28.6170479462426));
#433=CARTESIAN_POINT('Ctrl Pts',(-3.39488204343776,-161.188715939735,28.6342442187733));
#434=CARTESIAN_POINT('Ctrl Pts',(-3.21387496310706,-161.008268741755,28.6640790942595));
#435=CARTESIAN_POINT('Ctrl Pts',(-3.10381744462848,-160.934942158564,28.6761845124131));
#436=CARTESIAN_POINT('Ctrl Pts',(-2.86002581485476,-160.834013977884,28.6928398205038));
#437=CARTESIAN_POINT('Ctrl Pts',(-2.72848960888562,-160.807888868607,28.6971466825182));
#438=CARTESIAN_POINT('Ctrl Pts',(-2.59563077654808,-160.807888868607,28.6971466825182));
#439=CARTESIAN_POINT('',(-3.59563077654808,-161.071739926086,23.970583474828));
#440=CARTESIAN_POINT('Origin',(-3.59563077654808,-179.837818397394,20.9983286390636));
#441=CARTESIAN_POINT('',(-3.59563077654808,-178.850130056799,21.1547631041038));
#442=CARTESIAN_POINT('',(-3.59563077654808,-178.850130056799,21.1547631041038));
#443=CARTESIAN_POINT('',(-3.59563077654808,-169.960934991442,22.5626732894659));
#444=CARTESIAN_POINT('Ctrl Pts',(-3.59563077654808,-161.794472188935,28.5337353940941));
#445=CARTESIAN_POINT('Ctrl Pts',(-3.59563077654808,-163.931953410922,28.178146795822));
#446=CARTESIAN_POINT('Ctrl Pts',(-3.59563077654808,-166.067757977615,27.8127617908316));
#447=CARTESIAN_POINT('Ctrl Pts',(-3.59563077654808,-168.201886692896,27.4376124838789));
#448=CARTESIAN_POINT('Origin',(2.59563077654809,-178.850130056799,21.1547631041038));
#449=CARTESIAN_POINT('',(3.5956307765481,-178.850130056799,21.1547631041038));
#450=CARTESIAN_POINT('',(3.5956307765481,-178.850130056799,21.1547631041038));
#451=CARTESIAN_POINT('',(2.59563077654809,-179.837818397394,20.9983286390636));
#452=CARTESIAN_POINT('Origin',(2.59563077654809,-178.850130056799,21.1547631041038));
#453=CARTESIAN_POINT('',(2.59563077654809,-179.837818397394,20.9983286390635));
#454=CARTESIAN_POINT('Origin',(3.59563077654808,-160.084051585491,24.1270179398682));
#455=CARTESIAN_POINT('Ctrl Pts',(3.59563077654809,-168.201886692896,27.4376124838789));
#456=CARTESIAN_POINT('Ctrl Pts',(3.59563077654809,-166.067757977615,27.8127617908313));
#457=CARTESIAN_POINT('Ctrl Pts',(3.59563077654809,-163.931953410922,28.1781467958221));
#458=CARTESIAN_POINT('Ctrl Pts',(3.59563077654809,-161.794472188935,28.5337353940942));
#459=CARTESIAN_POINT('',(3.5956307765481,-179.837818397394,20.9983286390636));
#460=CARTESIAN_POINT('Origin',(-2.59563077654808,-178.850130056799,21.1547631041038));
#461=CARTESIAN_POINT('',(-2.59563077654808,-179.837818397394,20.9983286390636));
#462=CARTESIAN_POINT('',(-2.59563077654808,-179.837818397394,20.9983286390636));
#463=CARTESIAN_POINT('Origin',(-2.59563077654808,-178.850130056799,21.1547631041038));
#464=CARTESIAN_POINT('Ctrl Pts',(3.5956307765481,-168.201886692896,27.4376124838789));
#465=CARTESIAN_POINT('Ctrl Pts',(3.6173566987995,-165.737934711048,27.8707400041354));
#466=CARTESIAN_POINT('Ctrl Pts',(3.63841934224598,-163.273268769619,28.2905847370152));
#467=CARTESIAN_POINT('Ctrl Pts',(3.65881870688753,-160.807888868607,28.6971466825182));
#468=CARTESIAN_POINT('Ctrl Pts',(2.3970871843654,-168.201886692896,27.4376124838789));
#469=CARTESIAN_POINT('Ctrl Pts',(2.411571132533,-165.737934711048,27.8707400041354));
#470=CARTESIAN_POINT('Ctrl Pts',(2.42561289483066,-163.273268769619,28.2905847370152));
#471=CARTESIAN_POINT('Ctrl Pts',(2.43921247125836,-160.807888868607,28.6971466825182));
#472=CARTESIAN_POINT('Ctrl Pts',(1.19854359218271,-168.201886692896,27.4376124838789));
#473=CARTESIAN_POINT('Ctrl Pts',(1.20578556626651,-165.737934711048,27.8707400041354));
#474=CARTESIAN_POINT('Ctrl Pts',(1.21280644741533,-163.273268769619,28.2905847370152));
#475=CARTESIAN_POINT('Ctrl Pts',(1.21960623562918,-160.807888868607,28.6971466825182));
#476=CARTESIAN_POINT('Ctrl Pts',(1.19644640837734E-14,-168.201886692896,
27.4376124838789));
#477=CARTESIAN_POINT('Ctrl Pts',(1.19370832425199E-14,-165.737934711048,
27.8707400041354));
#478=CARTESIAN_POINT('Ctrl Pts',(1.1880459487697E-14,-163.273268769619,
28.2905847370152));
#479=CARTESIAN_POINT('Ctrl Pts',(1.17945928193046E-14,-160.807888868607,
28.6971466825182));
#480=CARTESIAN_POINT('Ctrl Pts',(-9.46324378101504E-15,-168.201886692896,
27.4376124838789));
#481=CARTESIAN_POINT('Ctrl Pts',(-9.50592784396049E-15,-165.737934711048,
27.8707400041354));
#482=CARTESIAN_POINT('Ctrl Pts',(-9.51974756729058E-15,-163.273268769619,
28.2905847370152));
#483=CARTESIAN_POINT('Ctrl Pts',(-9.50470295100532E-15,-160.807888868607,
28.6971466825182));
#484=CARTESIAN_POINT('Ctrl Pts',(-3.59563077654809,-168.201886692896,27.4376124838789));
#485=CARTESIAN_POINT('Ctrl Pts',(-3.61735669879949,-165.737934711048,27.8707400041354));
#486=CARTESIAN_POINT('Ctrl Pts',(-3.63841934224597,-163.273268769619,28.2905847370152));
#487=CARTESIAN_POINT('Ctrl Pts',(-3.65881870688752,-160.807888868607,28.6971466825182));
#488=CARTESIAN_POINT('Ctrl Pts',(-2.3970871843654,-168.201886692896,27.4376124838789));
#489=CARTESIAN_POINT('Ctrl Pts',(-2.411571132533,-165.737934711048,27.8707400041354));
#490=CARTESIAN_POINT('Ctrl Pts',(-2.42561289483065,-163.273268769619,28.2905847370152));
#491=CARTESIAN_POINT('Ctrl Pts',(-2.43921247125835,-160.807888868607,28.6971466825182));
#492=CARTESIAN_POINT('Ctrl Pts',(-1.1985435921827,-168.201886692896,27.4376124838789));
#493=CARTESIAN_POINT('Ctrl Pts',(-1.2057855662665,-165.737934711048,27.8707400041354));
#494=CARTESIAN_POINT('Ctrl Pts',(-1.21280644741533,-163.273268769619,28.2905847370152));
#495=CARTESIAN_POINT('Ctrl Pts',(-1.21960623562918,-160.807888868607,28.6971466825182));
#496=CARTESIAN_POINT('Ctrl Pts',(-1.19644640837734E-14,-168.201886692896,
27.4376124838789));
#497=CARTESIAN_POINT('Ctrl Pts',(-1.19370832425199E-14,-165.737934711048,
27.8707400041354));
#498=CARTESIAN_POINT('Ctrl Pts',(-1.1880459487697E-14,-163.273268769619,
28.2905847370152));
#499=CARTESIAN_POINT('Ctrl Pts',(-1.17945928193046E-14,-160.807888868607,
28.6971466825182));
#500=CARTESIAN_POINT('Origin',(3.5956307765481,-179.837818397394,20.9983286390636));
#501=CARTESIAN_POINT('',(-3.59563077654808,-179.837818397394,20.9983286390636));
#502=CARTESIAN_POINT('Origin',(6.66133814775094E-15,-169.960934991442,22.5626732894659));
#503=UNCERTAINTY_MEASURE_WITH_UNIT(LENGTH_MEASURE(0.01),#507,
'DISTANCE_ACCURACY_VALUE',
'Maximum model space distance between geometric entities at asserted c
onnectivities');
#504=UNCERTAINTY_MEASURE_WITH_UNIT(LENGTH_MEASURE(0.01),#507,
'DISTANCE_ACCURACY_VALUE',
'Maximum model space distance between geometric entities at asserted c
onnectivities');
#505=(
GEOMETRIC_REPRESENTATION_CONTEXT(3)
GLOBAL_UNCERTAINTY_ASSIGNED_CONTEXT((#503))
GLOBAL_UNIT_ASSIGNED_CONTEXT((#507,#509,#510))
REPRESENTATION_CONTEXT('','3D')
);
#506=(
GEOMETRIC_REPRESENTATION_CONTEXT(3)
GLOBAL_UNCERTAINTY_ASSIGNED_CONTEXT((#504))
GLOBAL_UNIT_ASSIGNED_CONTEXT((#507,#509,#510))
REPRESENTATION_CONTEXT('','3D')
);
#507=(
LENGTH_UNIT()
NAMED_UNIT(*)
SI_UNIT(.MILLI.,.METRE.)
);
#508=(
LENGTH_UNIT()
NAMED_UNIT(*)
SI_UNIT($,.METRE.)
);
#509=(
NAMED_UNIT(*)
PLANE_ANGLE_UNIT()
SI_UNIT($,.RADIAN.)
);
#510=(
NAMED_UNIT(*)
SI_UNIT($,.STERADIAN.)
SOLID_ANGLE_UNIT()
);
#511=SHAPE_DEFINITION_REPRESENTATION(#512,#513);
#512=PRODUCT_DEFINITION_SHAPE('',$,#515);
#513=SHAPE_REPRESENTATION('',(#271),#505);
#514=PRODUCT_DEFINITION_CONTEXT('part definition',#519,'design');
#515=PRODUCT_DEFINITION('front latch','front latch',#516,#514);
#516=PRODUCT_DEFINITION_FORMATION('',$,#521);
#517=PRODUCT_RELATED_PRODUCT_CATEGORY('front latch','front latch',(#521));
#518=APPLICATION_PROTOCOL_DEFINITION('international standard',
'automotive_design',2009,#519);
#519=APPLICATION_CONTEXT(
'Core Data for Automotive Mechanical Design Process');
#520=PRODUCT_CONTEXT('part definition',#519,'mechanical');
#521=PRODUCT('front latch','front latch',$,(#520));
#522=PRESENTATION_STYLE_ASSIGNMENT((#524));
#523=PRESENTATION_STYLE_ASSIGNMENT((#525));
#524=SURFACE_STYLE_USAGE(.BOTH.,#526);
#525=SURFACE_STYLE_USAGE(.BOTH.,#527);
#526=SURFACE_SIDE_STYLE('',(#528));
#527=SURFACE_SIDE_STYLE('',(#529));
#528=SURFACE_STYLE_FILL_AREA(#530);
#529=SURFACE_STYLE_FILL_AREA(#531);
#530=FILL_AREA_STYLE('Steel - Satin',(#532));
#531=FILL_AREA_STYLE('PLA (White)',(#533));
#532=FILL_AREA_STYLE_COLOUR('Steel - Satin',#534);
#533=FILL_AREA_STYLE_COLOUR('PLA (White)',#535);
#534=COLOUR_RGB('Steel - Satin',0.627450980392157,0.627450980392157,0.627450980392157);
#535=COLOUR_RGB('PLA (White)',0.964705882352941,0.964705882352941,0.952941176470588);
ENDSEC;
END-ISO-10303-21;
