ISO-10303-21;
HEADER;
/* Generated by software containing ST-Developer
 * from STEP Tools, Inc. (www.steptools.com) 
 */

FILE_DESCRIPTION(
/* description */ (''),
/* implementation_level */ '2;1');

FILE_NAME(
/* name */ 'L1.step',
/* time_stamp */ '2026-08-30T19:25:07-07:00',
/* author */ (''),
/* organization */ (''),
/* preprocessor_version */ 'ST-DEVELOPER v20.1',
/* originating_system */ 'Autodesk Translation Framework v15.8.0.0',
/* authorisation */ '');

FILE_SCHEMA (('AUTOMOTIVE_DESIGN { 1 0 10303 214 3 1 1 }'));
ENDSEC;

DATA;
#10=MECHANICAL_DESIGN_GEOMETRIC_PRESENTATION_REPRESENTATION('',(#13),#451);
#11=SHAPE_REPRESENTATION_RELATIONSHIP('SRR','None',#458,#12);
#12=ADVANCED_BREP_SHAPE_REPRESENTATION('',(#14),#450);
#13=STYLED_ITEM('',(#468),#14);
#14=MANIFOLD_SOLID_BREP('latch top',#271);
#15=CIRCLE('',#287,2.);
#16=CIRCLE('',#288,2.);
#17=CIRCLE('',#290,2.);
#18=CIRCLE('',#291,2.);
#19=CYLINDRICAL_SURFACE('',#286,2.);
#20=CYLINDRICAL_SURFACE('',#289,2.);
#21=FACE_OUTER_BOUND('',#35,.T.);
#22=FACE_OUTER_BOUND('',#36,.T.);
#23=FACE_OUTER_BOUND('',#37,.T.);
#24=FACE_OUTER_BOUND('',#38,.T.);
#25=FACE_OUTER_BOUND('',#39,.T.);
#26=FACE_OUTER_BOUND('',#40,.T.);
#27=FACE_OUTER_BOUND('',#41,.T.);
#28=FACE_OUTER_BOUND('',#42,.T.);
#29=FACE_OUTER_BOUND('',#43,.T.);
#30=FACE_OUTER_BOUND('',#44,.T.);
#31=FACE_OUTER_BOUND('',#45,.T.);
#32=FACE_OUTER_BOUND('',#46,.T.);
#33=FACE_OUTER_BOUND('',#47,.T.);
#34=FACE_OUTER_BOUND('',#48,.T.);
#35=EDGE_LOOP('',(#173,#174,#175,#176,#177,#178,#179,#180));
#36=EDGE_LOOP('',(#181,#182,#183,#184));
#37=EDGE_LOOP('',(#185,#186,#187,#188));
#38=EDGE_LOOP('',(#189,#190,#191,#192));
#39=EDGE_LOOP('',(#193,#194,#195,#196,#197,#198,#199,#200));
#40=EDGE_LOOP('',(#201,#202,#203,#204,#205,#206));
#41=EDGE_LOOP('',(#207,#208,#209,#210,#211,#212));
#42=EDGE_LOOP('',(#213,#214,#215,#216));
#43=EDGE_LOOP('',(#217,#218,#219,#220,#221,#222));
#44=EDGE_LOOP('',(#223,#224,#225,#226));
#45=EDGE_LOOP('',(#227,#228,#229,#230,#231,#232));
#46=EDGE_LOOP('',(#233,#234,#235,#236));
#47=EDGE_LOOP('',(#237,#238,#239,#240));
#48=EDGE_LOOP('',(#241,#242,#243,#244));
#49=LINE('',#377,#81);
#50=LINE('',#379,#82);
#51=LINE('',#381,#83);
#52=LINE('',#383,#84);
#53=LINE('',#385,#85);
#54=LINE('',#387,#86);
#55=LINE('',#389,#87);
#56=LINE('',#390,#88);
#57=LINE('',#396,#89);
#58=LINE('',#399,#90);
#59=LINE('',#405,#91);
#60=LINE('',#407,#92);
#61=LINE('',#408,#93);
#62=LINE('',#411,#94);
#63=LINE('',#413,#95);
#64=LINE('',#415,#96);
#65=LINE('',#417,#97);
#66=LINE('',#419,#98);
#67=LINE('',#421,#99);
#68=LINE('',#422,#100);
#69=LINE('',#424,#101);
#70=LINE('',#426,#102);
#71=LINE('',#430,#103);
#72=LINE('',#431,#104);
#73=LINE('',#432,#105);
#74=LINE('',#435,#106);
#75=LINE('',#436,#107);
#76=LINE('',#437,#108);
#77=LINE('',#439,#109);
#78=LINE('',#442,#110);
#79=LINE('',#443,#111);
#80=LINE('',#446,#112);
#81=VECTOR('',#307,10.);
#82=VECTOR('',#308,10.);
#83=VECTOR('',#309,10.);
#84=VECTOR('',#310,10.);
#85=VECTOR('',#311,10.);
#86=VECTOR('',#312,10.);
#87=VECTOR('',#313,10.);
#88=VECTOR('',#314,10.);
#89=VECTOR('',#319,10.);
#90=VECTOR('',#322,10.);
#91=VECTOR('',#329,10.);
#92=VECTOR('',#332,10.);
#93=VECTOR('',#333,10.);
#94=VECTOR('',#336,10.);
#95=VECTOR('',#337,10.);
#96=VECTOR('',#338,10.);
#97=VECTOR('',#339,10.);
#98=VECTOR('',#340,10.);
#99=VECTOR('',#341,10.);
#100=VECTOR('',#342,10.);
#101=VECTOR('',#345,10.);
#102=VECTOR('',#348,10.);
#103=VECTOR('',#351,10.);
#104=VECTOR('',#352,10.);
#105=VECTOR('',#353,10.);
#106=VECTOR('',#356,10.);
#107=VECTOR('',#357,10.);
#108=VECTOR('',#358,10.);
#109=VECTOR('',#361,10.);
#110=VECTOR('',#364,10.);
#111=VECTOR('',#365,10.);
#112=VECTOR('',#370,10.);
#113=VERTEX_POINT('',#375);
#114=VERTEX_POINT('',#376);
#115=VERTEX_POINT('',#378);
#116=VERTEX_POINT('',#380);
#117=VERTEX_POINT('',#382);
#118=VERTEX_POINT('',#384);
#119=VERTEX_POINT('',#386);
#120=VERTEX_POINT('',#388);
#121=VERTEX_POINT('',#392);
#122=VERTEX_POINT('',#393);
#123=VERTEX_POINT('',#395);
#124=VERTEX_POINT('',#397);
#125=VERTEX_POINT('',#401);
#126=VERTEX_POINT('',#403);
#127=VERTEX_POINT('',#410);
#128=VERTEX_POINT('',#412);
#129=VERTEX_POINT('',#414);
#130=VERTEX_POINT('',#416);
#131=VERTEX_POINT('',#418);
#132=VERTEX_POINT('',#420);
#133=VERTEX_POINT('',#428);
#134=VERTEX_POINT('',#429);
#135=VERTEX_POINT('',#434);
#136=VERTEX_POINT('',#441);
#137=EDGE_CURVE('',#113,#114,#49,.T.);
#138=EDGE_CURVE('',#115,#113,#50,.T.);
#139=EDGE_CURVE('',#116,#115,#51,.T.);
#140=EDGE_CURVE('',#116,#117,#52,.T.);
#141=EDGE_CURVE('',#118,#117,#53,.T.);
#142=EDGE_CURVE('',#118,#119,#54,.T.);
#143=EDGE_CURVE('',#120,#119,#55,.T.);
#144=EDGE_CURVE('',#120,#114,#56,.T.);
#145=EDGE_CURVE('',#121,#122,#15,.T.);
#146=EDGE_CURVE('',#122,#123,#57,.T.);
#147=EDGE_CURVE('',#123,#124,#16,.T.);
#148=EDGE_CURVE('',#124,#121,#58,.T.);
#149=EDGE_CURVE('',#125,#115,#17,.T.);
#150=EDGE_CURVE('',#113,#126,#18,.T.);
#151=EDGE_CURVE('',#126,#125,#59,.T.);
#152=EDGE_CURVE('',#125,#122,#60,.T.);
#153=EDGE_CURVE('',#123,#126,#61,.T.);
#154=EDGE_CURVE('',#121,#127,#62,.T.);
#155=EDGE_CURVE('',#128,#124,#63,.T.);
#156=EDGE_CURVE('',#129,#128,#64,.T.);
#157=EDGE_CURVE('',#130,#129,#65,.T.);
#158=EDGE_CURVE('',#130,#131,#66,.T.);
#159=EDGE_CURVE('',#132,#131,#67,.T.);
#160=EDGE_CURVE('',#127,#132,#68,.T.);
#161=EDGE_CURVE('',#127,#116,#69,.T.);
#162=EDGE_CURVE('',#114,#128,#70,.T.);
#163=EDGE_CURVE('',#133,#134,#71,.T.);
#164=EDGE_CURVE('',#119,#133,#72,.T.);
#165=EDGE_CURVE('',#134,#118,#73,.T.);
#166=EDGE_CURVE('',#131,#135,#74,.T.);
#167=EDGE_CURVE('',#135,#134,#75,.T.);
#168=EDGE_CURVE('',#117,#132,#76,.T.);
#169=EDGE_CURVE('',#129,#120,#77,.T.);
#170=EDGE_CURVE('',#136,#130,#78,.T.);
#171=EDGE_CURVE('',#133,#136,#79,.T.);
#172=EDGE_CURVE('',#135,#136,#80,.T.);
#173=ORIENTED_EDGE('',*,*,#137,.F.);
#174=ORIENTED_EDGE('',*,*,#138,.F.);
#175=ORIENTED_EDGE('',*,*,#139,.F.);
#176=ORIENTED_EDGE('',*,*,#140,.T.);
#177=ORIENTED_EDGE('',*,*,#141,.F.);
#178=ORIENTED_EDGE('',*,*,#142,.T.);
#179=ORIENTED_EDGE('',*,*,#143,.F.);
#180=ORIENTED_EDGE('',*,*,#144,.T.);
#181=ORIENTED_EDGE('',*,*,#145,.T.);
#182=ORIENTED_EDGE('',*,*,#146,.T.);
#183=ORIENTED_EDGE('',*,*,#147,.T.);
#184=ORIENTED_EDGE('',*,*,#148,.T.);
#185=ORIENTED_EDGE('',*,*,#149,.T.);
#186=ORIENTED_EDGE('',*,*,#138,.T.);
#187=ORIENTED_EDGE('',*,*,#150,.T.);
#188=ORIENTED_EDGE('',*,*,#151,.T.);
#189=ORIENTED_EDGE('',*,*,#146,.F.);
#190=ORIENTED_EDGE('',*,*,#152,.F.);
#191=ORIENTED_EDGE('',*,*,#151,.F.);
#192=ORIENTED_EDGE('',*,*,#153,.F.);
#193=ORIENTED_EDGE('',*,*,#154,.F.);
#194=ORIENTED_EDGE('',*,*,#148,.F.);
#195=ORIENTED_EDGE('',*,*,#155,.F.);
#196=ORIENTED_EDGE('',*,*,#156,.F.);
#197=ORIENTED_EDGE('',*,*,#157,.F.);
#198=ORIENTED_EDGE('',*,*,#158,.T.);
#199=ORIENTED_EDGE('',*,*,#159,.F.);
#200=ORIENTED_EDGE('',*,*,#160,.F.);
#201=ORIENTED_EDGE('',*,*,#161,.T.);
#202=ORIENTED_EDGE('',*,*,#139,.T.);
#203=ORIENTED_EDGE('',*,*,#149,.F.);
#204=ORIENTED_EDGE('',*,*,#152,.T.);
#205=ORIENTED_EDGE('',*,*,#145,.F.);
#206=ORIENTED_EDGE('',*,*,#154,.T.);
#207=ORIENTED_EDGE('',*,*,#162,.T.);
#208=ORIENTED_EDGE('',*,*,#155,.T.);
#209=ORIENTED_EDGE('',*,*,#147,.F.);
#210=ORIENTED_EDGE('',*,*,#153,.T.);
#211=ORIENTED_EDGE('',*,*,#150,.F.);
#212=ORIENTED_EDGE('',*,*,#137,.T.);
#213=ORIENTED_EDGE('',*,*,#163,.F.);
#214=ORIENTED_EDGE('',*,*,#164,.F.);
#215=ORIENTED_EDGE('',*,*,#142,.F.);
#216=ORIENTED_EDGE('',*,*,#165,.F.);
#217=ORIENTED_EDGE('',*,*,#166,.T.);
#218=ORIENTED_EDGE('',*,*,#167,.T.);
#219=ORIENTED_EDGE('',*,*,#165,.T.);
#220=ORIENTED_EDGE('',*,*,#141,.T.);
#221=ORIENTED_EDGE('',*,*,#168,.T.);
#222=ORIENTED_EDGE('',*,*,#159,.T.);
#223=ORIENTED_EDGE('',*,*,#162,.F.);
#224=ORIENTED_EDGE('',*,*,#144,.F.);
#225=ORIENTED_EDGE('',*,*,#169,.F.);
#226=ORIENTED_EDGE('',*,*,#156,.T.);
#227=ORIENTED_EDGE('',*,*,#170,.T.);
#228=ORIENTED_EDGE('',*,*,#157,.T.);
#229=ORIENTED_EDGE('',*,*,#169,.T.);
#230=ORIENTED_EDGE('',*,*,#143,.T.);
#231=ORIENTED_EDGE('',*,*,#164,.T.);
#232=ORIENTED_EDGE('',*,*,#171,.T.);
#233=ORIENTED_EDGE('',*,*,#161,.F.);
#234=ORIENTED_EDGE('',*,*,#160,.T.);
#235=ORIENTED_EDGE('',*,*,#168,.F.);
#236=ORIENTED_EDGE('',*,*,#140,.F.);
#237=ORIENTED_EDGE('',*,*,#163,.T.);
#238=ORIENTED_EDGE('',*,*,#167,.F.);
#239=ORIENTED_EDGE('',*,*,#172,.T.);
#240=ORIENTED_EDGE('',*,*,#171,.F.);
#241=ORIENTED_EDGE('',*,*,#172,.F.);
#242=ORIENTED_EDGE('',*,*,#166,.F.);
#243=ORIENTED_EDGE('',*,*,#158,.F.);
#244=ORIENTED_EDGE('',*,*,#170,.F.);
#245=PLANE('',#285);
#246=PLANE('',#292);
#247=PLANE('',#293);
#248=PLANE('',#294);
#249=PLANE('',#295);
#250=PLANE('',#296);
#251=PLANE('',#297);
#252=PLANE('',#298);
#253=PLANE('',#299);
#254=PLANE('',#300);
#255=PLANE('',#301);
#256=PLANE('',#302);
#257=ADVANCED_FACE('',(#21),#245,.T.);
#258=ADVANCED_FACE('',(#22),#19,.T.);
#259=ADVANCED_FACE('',(#23),#20,.T.);
#260=ADVANCED_FACE('',(#24),#246,.T.);
#261=ADVANCED_FACE('',(#25),#247,.T.);
#262=ADVANCED_FACE('',(#26),#248,.T.);
#263=ADVANCED_FACE('',(#27),#249,.F.);
#264=ADVANCED_FACE('',(#28),#250,.T.);
#265=ADVANCED_FACE('',(#29),#251,.T.);
#266=ADVANCED_FACE('',(#30),#252,.T.);
#267=ADVANCED_FACE('',(#31),#253,.T.);
#268=ADVANCED_FACE('',(#32),#254,.T.);
#269=ADVANCED_FACE('',(#33),#255,.T.);
#270=ADVANCED_FACE('',(#34),#256,.T.);
#271=CLOSED_SHELL('',(#257,#258,#259,#260,#261,#262,#263,#264,#265,#266,
#267,#268,#269,#270));
#272=DERIVED_UNIT_ELEMENT(#274,1.);
#273=DERIVED_UNIT_ELEMENT(#453,-3.);
#274=(
MASS_UNIT()
NAMED_UNIT(*)
SI_UNIT(.KILO.,.GRAM.)
);
#275=DERIVED_UNIT((#272,#273));
#276=MEASURE_REPRESENTATION_ITEM('density measure',
POSITIVE_RATIO_MEASURE(7850.),#275);
#277=PROPERTY_DEFINITION_REPRESENTATION(#282,#279);
#278=PROPERTY_DEFINITION_REPRESENTATION(#283,#280);
#279=REPRESENTATION('material name',(#281),#450);
#280=REPRESENTATION('density',(#276),#450);
#281=DESCRIPTIVE_REPRESENTATION_ITEM('Steel','Steel');
#282=PROPERTY_DEFINITION('material property','material name',#460);
#283=PROPERTY_DEFINITION('material property','density of part',#460);
#284=AXIS2_PLACEMENT_3D('',#373,#303,#304);
#285=AXIS2_PLACEMENT_3D('',#374,#305,#306);
#286=AXIS2_PLACEMENT_3D('',#391,#315,#316);
#287=AXIS2_PLACEMENT_3D('',#394,#317,#318);
#288=AXIS2_PLACEMENT_3D('',#398,#320,#321);
#289=AXIS2_PLACEMENT_3D('',#400,#323,#324);
#290=AXIS2_PLACEMENT_3D('',#402,#325,#326);
#291=AXIS2_PLACEMENT_3D('',#404,#327,#328);
#292=AXIS2_PLACEMENT_3D('',#406,#330,#331);
#293=AXIS2_PLACEMENT_3D('',#409,#334,#335);
#294=AXIS2_PLACEMENT_3D('',#423,#343,#344);
#295=AXIS2_PLACEMENT_3D('',#425,#346,#347);
#296=AXIS2_PLACEMENT_3D('',#427,#349,#350);
#297=AXIS2_PLACEMENT_3D('',#433,#354,#355);
#298=AXIS2_PLACEMENT_3D('',#438,#359,#360);
#299=AXIS2_PLACEMENT_3D('',#440,#362,#363);
#300=AXIS2_PLACEMENT_3D('',#444,#366,#367);
#301=AXIS2_PLACEMENT_3D('',#445,#368,#369);
#302=AXIS2_PLACEMENT_3D('',#447,#371,#372);
#303=DIRECTION('axis',(0.,0.,1.));
#304=DIRECTION('refdir',(1.,0.,0.));
#305=DIRECTION('center_axis',(0.,1.,0.));
#306=DIRECTION('ref_axis',(0.,0.,1.));
#307=DIRECTION('',(0.,0.,-1.));
#308=DIRECTION('',(-1.,0.,0.));
#309=DIRECTION('',(0.,0.,1.));
#310=DIRECTION('',(1.,0.,0.));
#311=DIRECTION('',(0.,0.,1.));
#312=DIRECTION('',(-1.,0.,-4.86908658293165E-16));
#313=DIRECTION('',(0.,0.,-1.));
#314=DIRECTION('',(1.,0.,0.));
#315=DIRECTION('center_axis',(1.,0.,0.));
#316=DIRECTION('ref_axis',(0.,-0.487556620786755,0.873091370663461));
#317=DIRECTION('center_axis',(-1.,0.,0.));
#318=DIRECTION('ref_axis',(0.,-0.487556620786755,0.873091370663461));
#319=DIRECTION('',(-1.,0.,0.));
#320=DIRECTION('center_axis',(1.,0.,0.));
#321=DIRECTION('ref_axis',(0.,-0.487556620786755,0.873091370663461));
#322=DIRECTION('',(1.,0.,0.));
#323=DIRECTION('center_axis',(1.,0.,0.));
#324=DIRECTION('ref_axis',(0.,0.707106781186549,0.707106781186546));
#325=DIRECTION('center_axis',(-1.,0.,0.));
#326=DIRECTION('ref_axis',(0.,0.707106781186549,0.707106781186546));
#327=DIRECTION('center_axis',(1.,0.,0.));
#328=DIRECTION('ref_axis',(0.,0.707106781186549,0.707106781186546));
#329=DIRECTION('',(1.,0.,0.));
#330=DIRECTION('center_axis',(0.,0.,1.));
#331=DIRECTION('ref_axis',(0.,-1.,0.));
#332=DIRECTION('',(0.,-1.,0.));
#333=DIRECTION('',(0.,1.,0.));
#334=DIRECTION('center_axis',(0.,-0.851362956637509,0.524577083053997));
#335=DIRECTION('ref_axis',(0.,-0.524577083053997,-0.851362956637508));
#336=DIRECTION('',(0.,-0.524577083053997,-0.851362956637508));
#337=DIRECTION('',(0.,0.524577083053997,0.851362956637508));
#338=DIRECTION('',(1.,0.,0.));
#339=DIRECTION('',(0.,0.524577083053997,0.851362956637508));
#340=DIRECTION('',(1.,2.87621838172359E-16,4.66796180104439E-16));
#341=DIRECTION('',(0.,-0.524577083053997,-0.851362956637508));
#342=DIRECTION('',(1.,0.,0.));
#343=DIRECTION('center_axis',(1.,0.,0.));
#344=DIRECTION('ref_axis',(0.,1.,0.));
#345=DIRECTION('',(0.,0.997564050259824,-0.0697564737441262));
#346=DIRECTION('center_axis',(1.,0.,0.));
#347=DIRECTION('ref_axis',(0.,1.,0.));
#348=DIRECTION('',(0.,-0.997564050259824,0.0697564737441262));
#349=DIRECTION('center_axis',(3.39650310380147E-17,0.997564050259824,-0.069756473744126));
#350=DIRECTION('ref_axis',(1.,0.,4.86908658293165E-16));
#351=DIRECTION('',(1.,-3.38822939294826E-17,2.36928079582169E-18));
#352=DIRECTION('',(0.,-0.069756473744126,-0.997564050259824));
#353=DIRECTION('',(0.,0.069756473744126,0.997564050259824));
#354=DIRECTION('center_axis',(1.,0.,0.));
#355=DIRECTION('ref_axis',(0.,0.,-1.));
#356=DIRECTION('',(0.,-0.0697564737441257,-0.997564050259824));
#357=DIRECTION('',(0.,0.997564050259824,-0.0697564737441258));
#358=DIRECTION('',(0.,-0.997564050259824,0.0697564737441262));
#359=DIRECTION('center_axis',(0.,0.0697564737441262,0.997564050259824));
#360=DIRECTION('ref_axis',(0.,-0.997564050259824,0.0697564737441262));
#361=DIRECTION('',(0.,0.997564050259824,-0.0697564737441262));
#362=DIRECTION('center_axis',(-1.,0.,0.));
#363=DIRECTION('ref_axis',(0.,0.,1.));
#364=DIRECTION('',(0.,0.0697564737441257,0.997564050259824));
#365=DIRECTION('',(0.,-0.997564050259824,0.0697564737441258));
#366=DIRECTION('center_axis',(0.,0.0697564737441262,0.997564050259824));
#367=DIRECTION('ref_axis',(0.,-0.997564050259824,0.0697564737441262));
#368=DIRECTION('center_axis',(0.,-0.0697564737441258,-0.997564050259824));
#369=DIRECTION('ref_axis',(0.,0.997564050259824,-0.0697564737441258));
#370=DIRECTION('',(-1.,-2.53739544242877E-16,1.77431973929038E-17));
#371=DIRECTION('center_axis',(2.54359150349081E-16,-0.997564050259824,0.069756473744126));
#372=DIRECTION('ref_axis',(-1.,-2.87621838172359E-16,-4.66796180104439E-16));
#373=CARTESIAN_POINT('',(0.,0.,0.));
#374=CARTESIAN_POINT('Origin',(0.,29.6,35.1260469501008));
#375=CARTESIAN_POINT('',(-1.6,29.6,48.2256637377961));
#376=CARTESIAN_POINT('',(-1.6,29.6,37.3761096950746));
#377=CARTESIAN_POINT('',(-1.6,29.6,36.2256637377961));
#378=CARTESIAN_POINT('',(1.6,29.6,48.2256637377961));
#379=CARTESIAN_POINT('',(0.,29.6,48.2256637377961));
#380=CARTESIAN_POINT('',(1.6,29.6,37.3761096950746));
#381=CARTESIAN_POINT('',(1.6,29.6,36.2256637377961));
#382=CARTESIAN_POINT('',(2.6,29.6,37.3761096950746));
#383=CARTESIAN_POINT('',(1.6,29.6,37.3761096950746));
#384=CARTESIAN_POINT('',(2.6,29.6,37.0254003916378));
#385=CARTESIAN_POINT('',(2.6,29.6,37.0254003916378));
#386=CARTESIAN_POINT('',(-2.6,29.6,37.0254003916378));
#387=CARTESIAN_POINT('',(-1.53078682068607E-15,29.6,37.0254003916378));
#388=CARTESIAN_POINT('',(-2.6,29.6,37.3761096950746));
#389=CARTESIAN_POINT('',(-2.6,29.6,37.0254003916378));
#390=CARTESIAN_POINT('',(1.6,29.6,37.3761096950746));
#391=CARTESIAN_POINT('Origin',(0.,25.7168513105708,48.2256637377961));
#392=CARTESIAN_POINT('',(1.6,24.0141253972958,49.2748179039041));
#393=CARTESIAN_POINT('',(1.6,25.7168513105708,50.2256637377961));
#394=CARTESIAN_POINT('Origin',(1.6,25.7168513105708,48.2256637377961));
#395=CARTESIAN_POINT('',(-1.6,25.7168513105708,50.2256637377961));
#396=CARTESIAN_POINT('',(0.,25.7168513105708,50.2256637377961));
#397=CARTESIAN_POINT('',(-1.6,24.0141253972958,49.2748179039041));
#398=CARTESIAN_POINT('Origin',(-1.6,25.7168513105708,48.2256637377961));
#399=CARTESIAN_POINT('',(0.,24.0141253972958,49.2748179039041));
#400=CARTESIAN_POINT('Origin',(0.,27.6,48.2256637377961));
#401=CARTESIAN_POINT('',(1.6,27.6,50.2256637377961));
#402=CARTESIAN_POINT('Origin',(1.6,27.6,48.2256637377961));
#403=CARTESIAN_POINT('',(-1.6,27.6,50.2256637377961));
#404=CARTESIAN_POINT('Origin',(-1.6,27.6,48.2256637377961));
#405=CARTESIAN_POINT('',(0.,27.6,50.2256637377961));
#406=CARTESIAN_POINT('Origin',(0.,29.6,50.2256637377961));
#407=CARTESIAN_POINT('',(1.6,24.6,50.2256637377961));
#408=CARTESIAN_POINT('',(-1.6,24.6,50.2256637377961));
#409=CARTESIAN_POINT('Origin',(0.,24.6,50.2256637377961));
#410=CARTESIAN_POINT('',(1.6,17.2161716344869,38.2420713323306));
#411=CARTESIAN_POINT('',(1.6,16.6,37.2420548972265));
#412=CARTESIAN_POINT('',(-1.6,17.2161716344869,38.2420713323306));
#413=CARTESIAN_POINT('',(-1.6,16.6,37.2420548972265));
#414=CARTESIAN_POINT('',(-2.6,17.2161716344869,38.2420713323306));
#415=CARTESIAN_POINT('',(1.6,17.2161716344869,38.2420713323306));
#416=CARTESIAN_POINT('',(-2.6,17.0090041241119,37.9058485924325));
#417=CARTESIAN_POINT('',(-2.6,24.0141253972958,49.2748179039041));
#418=CARTESIAN_POINT('',(2.6,17.0090041241119,37.9058485924325));
#419=CARTESIAN_POINT('',(4.14874537177832E-15,17.0090041241119,37.9058485924325));
#420=CARTESIAN_POINT('',(2.6,17.2161716344869,38.2420713323306));
#421=CARTESIAN_POINT('',(2.6,24.0141253972958,49.2748179039041));
#422=CARTESIAN_POINT('',(1.6,17.2161716344869,38.2420713323306));
#423=CARTESIAN_POINT('Origin',(1.6,22.7868694453411,42.6758553439484));
#424=CARTESIAN_POINT('',(1.6,26.0256154431604,37.6260550117945));
#425=CARTESIAN_POINT('Origin',(-1.6,22.7868694453411,42.6758553439484));
#426=CARTESIAN_POINT('',(-1.6,26.0256154431604,37.6260550117945));
#427=CARTESIAN_POINT('Origin',(-1.6,29.6,37.0254003916378));
#428=CARTESIAN_POINT('',(-2.6,29.5685994716521,36.5763519154504));
#429=CARTESIAN_POINT('',(2.6,29.5685994716521,36.5763519154504));
#430=CARTESIAN_POINT('',(-0.800000000001321,29.5685994716521,36.5763519154504));
#431=CARTESIAN_POINT('',(-2.6,29.3209741050235,33.0351441905985));
#432=CARTESIAN_POINT('',(2.6,29.3209741050235,33.0351441905985));
#433=CARTESIAN_POINT('Origin',(2.6,23.288801797882,37.4092116238905));
#434=CARTESIAN_POINT('',(2.6,16.977603595764,37.4568001162451));
#435=CARTESIAN_POINT('',(2.6,17.0090041241119,37.9058485924325));
#436=CARTESIAN_POINT('',(2.6,29.5685994716521,36.5763519154504));
#437=CARTESIAN_POINT('',(2.6,17.2161716344869,38.2420713323306));
#438=CARTESIAN_POINT('Origin',(1.6,29.6,37.3761096950746));
#439=CARTESIAN_POINT('',(-2.6,17.2161716344869,38.2420713323306));
#440=CARTESIAN_POINT('Origin',(-2.6,23.288801797882,37.4092116238905));
#441=CARTESIAN_POINT('',(-2.6,16.977603595764,37.4568001162451));
#442=CARTESIAN_POINT('',(-2.6,17.0090041241119,37.9058485924325));
#443=CARTESIAN_POINT('',(-2.6,29.5685994716521,36.5763519154504));
#444=CARTESIAN_POINT('Origin',(1.6,29.6,37.3761096950746));
#445=CARTESIAN_POINT('Origin',(1.6,16.977603595764,37.4568001162451));
#446=CARTESIAN_POINT('',(0.799999999998681,16.977603595764,37.4568001162451));
#447=CARTESIAN_POINT('Origin',(1.6,17.0090041241119,37.9058485924325));
#448=UNCERTAINTY_MEASURE_WITH_UNIT(LENGTH_MEASURE(0.01),#452,
'DISTANCE_ACCURACY_VALUE',
'Maximum model space distance between geometric entities at asserted c
onnectivities');
#449=UNCERTAINTY_MEASURE_WITH_UNIT(LENGTH_MEASURE(0.01),#452,
'DISTANCE_ACCURACY_VALUE',
'Maximum model space distance between geometric entities at asserted c
onnectivities');
#450=(
GEOMETRIC_REPRESENTATION_CONTEXT(3)
GLOBAL_UNCERTAINTY_ASSIGNED_CONTEXT((#448))
GLOBAL_UNIT_ASSIGNED_CONTEXT((#452,#454,#455))
REPRESENTATION_CONTEXT('','3D')
);
#451=(
GEOMETRIC_REPRESENTATION_CONTEXT(3)
GLOBAL_UNCERTAINTY_ASSIGNED_CONTEXT((#449))
GLOBAL_UNIT_ASSIGNED_CONTEXT((#452,#454,#455))
REPRESENTATION_CONTEXT('','3D')
);
#452=(
LENGTH_UNIT()
NAMED_UNIT(*)
SI_UNIT(.MILLI.,.METRE.)
);
#453=(
LENGTH_UNIT()
NAMED_UNIT(*)
SI_UNIT($,.METRE.)
);
#454=(
NAMED_UNIT(*)
PLANE_ANGLE_UNIT()
SI_UNIT($,.RADIAN.)
);
#455=(
NAMED_UNIT(*)
SI_UNIT($,.STERADIAN.)
SOLID_ANGLE_UNIT()
);
#456=SHAPE_DEFINITION_REPRESENTATION(#457,#458);
#457=PRODUCT_DEFINITION_SHAPE('',$,#460);
#458=SHAPE_REPRESENTATION('',(#284),#450);
#459=PRODUCT_DEFINITION_CONTEXT('part definition',#464,'design');
#460=PRODUCT_DEFINITION('latch top','latch top',#461,#459);
#461=PRODUCT_DEFINITION_FORMATION('',$,#466);
#462=PRODUCT_RELATED_PRODUCT_CATEGORY('latch top','latch top',(#466));
#463=APPLICATION_PROTOCOL_DEFINITION('international standard',
'automotive_design',2009,#464);
#464=APPLICATION_CONTEXT(
'Core Data for Automotive Mechanical Design Process');
#465=PRODUCT_CONTEXT('part definition',#464,'mechanical');
#466=PRODUCT('latch top','latch top',$,(#465));
#467=PRESENTATION_STYLE_ASSIGNMENT((#469));
#468=PRESENTATION_STYLE_ASSIGNMENT((#470));
#469=SURFACE_STYLE_USAGE(.BOTH.,#471);
#470=SURFACE_STYLE_USAGE(.BOTH.,#472);
#471=SURFACE_SIDE_STYLE('',(#473));
#472=SURFACE_SIDE_STYLE('',(#474));
#473=SURFACE_STYLE_FILL_AREA(#475);
#474=SURFACE_STYLE_FILL_AREA(#476);
#475=FILL_AREA_STYLE('Steel - Satin',(#477));
#476=FILL_AREA_STYLE('PLA (White)',(#478));
#477=FILL_AREA_STYLE_COLOUR('Steel - Satin',#479);
#478=FILL_AREA_STYLE_COLOUR('PLA (White)',#480);
#479=COLOUR_RGB('Steel - Satin',0.627450980392157,0.627450980392157,0.627450980392157);
#480=COLOUR_RGB('PLA (White)',0.964705882352941,0.964705882352941,0.952941176470588);
ENDSEC;
END-ISO-10303-21;
