ISO-10303-21;
HEADER;
/* Generated by software containing ST-Developer
 * from STEP Tools, Inc. (www.steptools.com) 
 */

FILE_DESCRIPTION(
/* description */ (''),
/* implementation_level */ '2;1');

FILE_NAME(
/* name */ 'L2.step',
/* time_stamp */ '2026-08-30T19:25:11-07:00',
/* author */ (''),
/* organization */ (''),
/* preprocessor_version */ 'ST-DEVELOPER v20.1',
/* originating_system */ 'Autodesk Translation Framework v15.8.0.0',
/* authorisation */ '');

FILE_SCHEMA (('AUTOMOTIVE_DESIGN { 1 0 10303 214 3 1 1 }'));
ENDSEC;

DATA;
#10=MECHANICAL_DESIGN_GEOMETRIC_PRESENTATION_REPRESENTATION('',(#13),#892);
#11=SHAPE_REPRESENTATION_RELATIONSHIP('SRR','None',#899,#12);
#12=ADVANCED_BREP_SHAPE_REPRESENTATION('',(#14),#891);
#13=STYLED_ITEM('',(#909),#14);
#14=MANIFOLD_SOLID_BREP('latch bottom',#536);
#15=FACE_BOUND('',#80,.T.);
#16=ELLIPSE('',#561,2.23606797749979,2.);
#17=ELLIPSE('',#562,2.23606797749979,2.);
#18=ELLIPSE('',#564,3.35410196624969,3.);
#19=ELLIPSE('',#565,3.35410196624969,3.);
#20=CYLINDRICAL_SURFACE('',#560,2.);
#21=CYLINDRICAL_SURFACE('',#563,3.);
#22=CYLINDRICAL_SURFACE('',#573,1.);
#23=CYLINDRICAL_SURFACE('',#575,1.);
#24=CYLINDRICAL_SURFACE('',#578,1.);
#25=CYLINDRICAL_SURFACE('',#580,1.);
#26=FACE_OUTER_BOUND('',#56,.T.);
#27=FACE_OUTER_BOUND('',#57,.T.);
#28=FACE_OUTER_BOUND('',#58,.T.);
#29=FACE_OUTER_BOUND('',#59,.T.);
#30=FACE_OUTER_BOUND('',#60,.T.);
#31=FACE_OUTER_BOUND('',#61,.T.);
#32=FACE_OUTER_BOUND('',#62,.T.);
#33=FACE_OUTER_BOUND('',#63,.T.);
#34=FACE_OUTER_BOUND('',#64,.T.);
#35=FACE_OUTER_BOUND('',#65,.T.);
#36=FACE_OUTER_BOUND('',#66,.T.);
#37=FACE_OUTER_BOUND('',#67,.T.);
#38=FACE_OUTER_BOUND('',#68,.T.);
#39=FACE_OUTER_BOUND('',#69,.T.);
#40=FACE_OUTER_BOUND('',#70,.T.);
#41=FACE_OUTER_BOUND('',#71,.T.);
#42=FACE_OUTER_BOUND('',#72,.T.);
#43=FACE_OUTER_BOUND('',#73,.T.);
#44=FACE_OUTER_BOUND('',#74,.T.);
#45=FACE_OUTER_BOUND('',#75,.T.);
#46=FACE_OUTER_BOUND('',#76,.T.);
#47=FACE_OUTER_BOUND('',#77,.T.);
#48=FACE_OUTER_BOUND('',#78,.T.);
#49=FACE_OUTER_BOUND('',#79,.T.);
#50=FACE_OUTER_BOUND('',#81,.T.);
#51=FACE_OUTER_BOUND('',#82,.T.);
#52=FACE_OUTER_BOUND('',#83,.T.);
#53=FACE_OUTER_BOUND('',#84,.T.);
#54=FACE_OUTER_BOUND('',#85,.T.);
#55=FACE_OUTER_BOUND('',#86,.T.);
#56=EDGE_LOOP('',(#336,#337,#338,#339,#340,#341,#342,#343));
#57=EDGE_LOOP('',(#344,#345,#346,#347,#348,#349,#350,#351));
#58=EDGE_LOOP('',(#352,#353,#354,#355));
#59=EDGE_LOOP('',(#356,#357,#358,#359));
#60=EDGE_LOOP('',(#360,#361,#362,#363));
#61=EDGE_LOOP('',(#364,#365,#366,#367,#368,#369));
#62=EDGE_LOOP('',(#370,#371,#372,#373));
#63=EDGE_LOOP('',(#374,#375,#376));
#64=EDGE_LOOP('',(#377,#378,#379,#380));
#65=EDGE_LOOP('',(#381,#382,#383,#384,#385,#386,#387,#388));
#66=EDGE_LOOP('',(#389,#390,#391,#392));
#67=EDGE_LOOP('',(#393,#394,#395,#396,#397,#398,#399,#400));
#68=EDGE_LOOP('',(#401,#402,#403,#404));
#69=EDGE_LOOP('',(#405,#406,#407,#408,#409));
#70=EDGE_LOOP('',(#410,#411,#412,#413));
#71=EDGE_LOOP('',(#414,#415,#416,#417));
#72=EDGE_LOOP('',(#418,#419,#420,#421));
#73=EDGE_LOOP('',(#422,#423,#424,#425));
#74=EDGE_LOOP('',(#426,#427,#428,#429));
#75=EDGE_LOOP('',(#430,#431,#432));
#76=EDGE_LOOP('',(#433,#434,#435,#436,#437));
#77=EDGE_LOOP('',(#438,#439,#440,#441));
#78=EDGE_LOOP('',(#442,#443,#444,#445));
#79=EDGE_LOOP('',(#446,#447,#448,#449));
#80=EDGE_LOOP('',(#450,#451,#452,#453));
#81=EDGE_LOOP('',(#454,#455,#456,#457,#458,#459));
#82=EDGE_LOOP('',(#460,#461,#462,#463));
#83=EDGE_LOOP('',(#464,#465,#466,#467,#468,#469));
#84=EDGE_LOOP('',(#470,#471,#472,#473));
#85=EDGE_LOOP('',(#474,#475,#476,#477));
#86=EDGE_LOOP('',(#478,#479,#480,#481));
#87=LINE('',#745,#148);
#88=LINE('',#749,#149);
#89=LINE('',#753,#150);
#90=LINE('',#756,#151);
#91=LINE('',#762,#152);
#92=LINE('',#764,#153);
#93=LINE('',#766,#154);
#94=LINE('',#768,#155);
#95=LINE('',#770,#156);
#96=LINE('',#773,#157);
#97=LINE('',#777,#158);
#98=LINE('',#779,#159);
#99=LINE('',#781,#160);
#100=LINE('',#782,#161);
#101=LINE('',#785,#162);
#102=LINE('',#787,#163);
#103=LINE('',#788,#164);
#104=LINE('',#794,#165);
#105=LINE('',#797,#166);
#106=LINE('',#803,#167);
#107=LINE('',#807,#168);
#108=LINE('',#809,#169);
#109=LINE('',#810,#170);
#110=LINE('',#813,#171);
#111=LINE('',#815,#172);
#112=LINE('',#816,#173);
#113=LINE('',#820,#174);
#114=LINE('',#823,#175);
#115=LINE('',#825,#176);
#116=LINE('',#826,#177);
#117=LINE('',#828,#178);
#118=LINE('',#830,#179);
#119=LINE('',#831,#180);
#120=LINE('',#832,#181);
#121=LINE('',#835,#182);
#122=LINE('',#837,#183);
#123=LINE('',#838,#184);
#124=LINE('',#840,#185);
#125=LINE('',#841,#186);
#126=LINE('',#842,#187);
#127=LINE('',#844,#188);
#128=LINE('',#845,#189);
#129=LINE('',#847,#190);
#130=LINE('',#849,#191);
#131=LINE('',#852,#192);
#132=LINE('',#854,#193);
#133=LINE('',#855,#194);
#134=LINE('',#858,#195);
#135=LINE('',#864,#196);
#136=LINE('',#865,#197);
#137=LINE('',#869,#198);
#138=LINE('',#871,#199);
#139=LINE('',#873,#200);
#140=LINE('',#874,#201);
#141=LINE('',#876,#202);
#142=LINE('',#877,#203);
#143=LINE('',#879,#204);
#144=LINE('',#880,#205);
#145=LINE('',#882,#206);
#146=LINE('',#884,#207);
#147=LINE('',#887,#208);
#148=VECTOR('',#598,10.);
#149=VECTOR('',#601,10.);
#150=VECTOR('',#604,10.);
#151=VECTOR('',#607,10.);
#152=VECTOR('',#612,10.);
#153=VECTOR('',#613,10.);
#154=VECTOR('',#614,10.);
#155=VECTOR('',#615,10.);
#156=VECTOR('',#616,10.);
#157=VECTOR('',#619,10.);
#158=VECTOR('',#622,10.);
#159=VECTOR('',#623,10.);
#160=VECTOR('',#624,10.);
#161=VECTOR('',#625,10.);
#162=VECTOR('',#628,10.);
#163=VECTOR('',#629,10.);
#164=VECTOR('',#630,10.);
#165=VECTOR('',#635,2.);
#166=VECTOR('',#638,10.);
#167=VECTOR('',#643,10.);
#168=VECTOR('',#646,10.);
#169=VECTOR('',#647,10.);
#170=VECTOR('',#648,10.);
#171=VECTOR('',#651,10.);
#172=VECTOR('',#652,10.);
#173=VECTOR('',#653,10.);
#174=VECTOR('',#658,10.);
#175=VECTOR('',#661,10.);
#176=VECTOR('',#662,10.);
#177=VECTOR('',#663,10.);
#178=VECTOR('',#666,10.);
#179=VECTOR('',#667,10.);
#180=VECTOR('',#668,10.);
#181=VECTOR('',#669,10.);
#182=VECTOR('',#672,10.);
#183=VECTOR('',#673,10.);
#184=VECTOR('',#674,10.);
#185=VECTOR('',#677,10.);
#186=VECTOR('',#678,10.);
#187=VECTOR('',#679,10.);
#188=VECTOR('',#682,10.);
#189=VECTOR('',#683,10.);
#190=VECTOR('',#686,10.);
#191=VECTOR('',#689,10.);
#192=VECTOR('',#694,10.);
#193=VECTOR('',#697,10.);
#194=VECTOR('',#698,10.);
#195=VECTOR('',#703,10.);
#196=VECTOR('',#712,10.);
#197=VECTOR('',#713,10.);
#198=VECTOR('',#716,10.);
#199=VECTOR('',#717,10.);
#200=VECTOR('',#718,10.);
#201=VECTOR('',#719,10.);
#202=VECTOR('',#720,10.);
#203=VECTOR('',#721,10.);
#204=VECTOR('',#724,10.);
#205=VECTOR('',#725,10.);
#206=VECTOR('',#728,10.);
#207=VECTOR('',#731,10.);
#208=VECTOR('',#736,10.);
#209=CIRCLE('',#551,1.);
#210=CIRCLE('',#552,1.);
#211=CIRCLE('',#553,1.);
#212=CIRCLE('',#554,1.);
#213=CIRCLE('',#556,1.);
#214=CIRCLE('',#557,1.);
#215=CIRCLE('',#568,1.);
#216=CIRCLE('',#576,1.);
#217=VERTEX_POINT('',#741);
#218=VERTEX_POINT('',#742);
#219=VERTEX_POINT('',#744);
#220=VERTEX_POINT('',#746);
#221=VERTEX_POINT('',#748);
#222=VERTEX_POINT('',#750);
#223=VERTEX_POINT('',#752);
#224=VERTEX_POINT('',#754);
#225=VERTEX_POINT('',#758);
#226=VERTEX_POINT('',#759);
#227=VERTEX_POINT('',#761);
#228=VERTEX_POINT('',#763);
#229=VERTEX_POINT('',#765);
#230=VERTEX_POINT('',#767);
#231=VERTEX_POINT('',#769);
#232=VERTEX_POINT('',#771);
#233=VERTEX_POINT('',#775);
#234=VERTEX_POINT('',#776);
#235=VERTEX_POINT('',#778);
#236=VERTEX_POINT('',#780);
#237=VERTEX_POINT('',#784);
#238=VERTEX_POINT('',#786);
#239=VERTEX_POINT('',#790);
#240=VERTEX_POINT('',#791);
#241=VERTEX_POINT('',#793);
#242=VERTEX_POINT('',#795);
#243=VERTEX_POINT('',#799);
#244=VERTEX_POINT('',#800);
#245=VERTEX_POINT('',#802);
#246=VERTEX_POINT('',#804);
#247=VERTEX_POINT('',#806);
#248=VERTEX_POINT('',#808);
#249=VERTEX_POINT('',#812);
#250=VERTEX_POINT('',#814);
#251=VERTEX_POINT('',#818);
#252=VERTEX_POINT('',#822);
#253=VERTEX_POINT('',#824);
#254=VERTEX_POINT('',#829);
#255=VERTEX_POINT('',#834);
#256=VERTEX_POINT('',#836);
#257=VERTEX_POINT('',#863);
#258=VERTEX_POINT('',#867);
#259=VERTEX_POINT('',#868);
#260=VERTEX_POINT('',#870);
#261=VERTEX_POINT('',#872);
#262=VERTEX_POINT('',#875);
#263=EDGE_CURVE('',#217,#218,#209,.T.);
#264=EDGE_CURVE('',#218,#219,#87,.T.);
#265=EDGE_CURVE('',#219,#220,#210,.T.);
#266=EDGE_CURVE('',#220,#221,#88,.T.);
#267=EDGE_CURVE('',#221,#222,#211,.T.);
#268=EDGE_CURVE('',#222,#223,#89,.T.);
#269=EDGE_CURVE('',#223,#224,#212,.T.);
#270=EDGE_CURVE('',#224,#217,#90,.T.);
#271=EDGE_CURVE('',#225,#226,#213,.T.);
#272=EDGE_CURVE('',#226,#227,#91,.T.);
#273=EDGE_CURVE('',#227,#228,#92,.T.);
#274=EDGE_CURVE('',#228,#229,#93,.T.);
#275=EDGE_CURVE('',#229,#230,#94,.T.);
#276=EDGE_CURVE('',#230,#231,#95,.T.);
#277=EDGE_CURVE('',#231,#232,#214,.T.);
#278=EDGE_CURVE('',#232,#225,#96,.T.);
#279=EDGE_CURVE('',#233,#234,#97,.T.);
#280=EDGE_CURVE('',#235,#233,#98,.T.);
#281=EDGE_CURVE('',#236,#235,#99,.T.);
#282=EDGE_CURVE('',#234,#236,#100,.T.);
#283=EDGE_CURVE('',#235,#237,#101,.T.);
#284=EDGE_CURVE('',#237,#238,#102,.T.);
#285=EDGE_CURVE('',#236,#238,#103,.T.);
#286=EDGE_CURVE('',#239,#240,#16,.T.);
#287=EDGE_CURVE('',#240,#241,#104,.T.);
#288=EDGE_CURVE('',#242,#241,#17,.F.);
#289=EDGE_CURVE('',#239,#242,#105,.T.);
#290=EDGE_CURVE('',#243,#244,#18,.F.);
#291=EDGE_CURVE('',#243,#245,#106,.T.);
#292=EDGE_CURVE('',#245,#246,#19,.T.);
#293=EDGE_CURVE('',#246,#247,#107,.T.);
#294=EDGE_CURVE('',#248,#247,#108,.T.);
#295=EDGE_CURVE('',#248,#244,#109,.T.);
#296=EDGE_CURVE('',#243,#249,#110,.T.);
#297=EDGE_CURVE('',#249,#250,#111,.T.);
#298=EDGE_CURVE('',#250,#245,#112,.T.);
#299=EDGE_CURVE('',#251,#248,#215,.F.);
#300=EDGE_CURVE('',#244,#251,#113,.T.);
#301=EDGE_CURVE('',#252,#242,#114,.F.);
#302=EDGE_CURVE('',#252,#253,#115,.T.);
#303=EDGE_CURVE('',#239,#253,#116,.F.);
#304=EDGE_CURVE('',#241,#228,#117,.T.);
#305=EDGE_CURVE('',#254,#227,#118,.T.);
#306=EDGE_CURVE('',#254,#246,#119,.T.);
#307=EDGE_CURVE('',#245,#252,#120,.T.);
#308=EDGE_CURVE('',#252,#255,#121,.T.);
#309=EDGE_CURVE('',#255,#256,#122,.T.);
#310=EDGE_CURVE('',#256,#253,#123,.T.);
#311=EDGE_CURVE('',#253,#243,#124,.T.);
#312=EDGE_CURVE('',#251,#230,#125,.T.);
#313=EDGE_CURVE('',#240,#229,#126,.F.);
#314=EDGE_CURVE('',#225,#218,#127,.T.);
#315=EDGE_CURVE('',#226,#217,#128,.T.);
#316=EDGE_CURVE('',#254,#224,#129,.T.);
#317=EDGE_CURVE('',#247,#223,#130,.T.);
#318=EDGE_CURVE('',#247,#254,#216,.F.);
#319=EDGE_CURVE('',#248,#222,#131,.T.);
#320=EDGE_CURVE('',#232,#219,#132,.T.);
#321=EDGE_CURVE('',#231,#220,#133,.T.);
#322=EDGE_CURVE('',#251,#221,#134,.T.);
#323=EDGE_CURVE('',#233,#257,#135,.T.);
#324=EDGE_CURVE('',#257,#237,#136,.T.);
#325=EDGE_CURVE('',#258,#259,#137,.T.);
#326=EDGE_CURVE('',#259,#260,#138,.T.);
#327=EDGE_CURVE('',#261,#260,#139,.T.);
#328=EDGE_CURVE('',#258,#261,#140,.T.);
#329=EDGE_CURVE('',#262,#257,#141,.T.);
#330=EDGE_CURVE('',#238,#262,#142,.T.);
#331=EDGE_CURVE('',#259,#255,#143,.T.);
#332=EDGE_CURVE('',#260,#250,#144,.T.);
#333=EDGE_CURVE('',#261,#249,#145,.T.);
#334=EDGE_CURVE('',#258,#256,#146,.T.);
#335=EDGE_CURVE('',#234,#262,#147,.T.);
#336=ORIENTED_EDGE('',*,*,#263,.T.);
#337=ORIENTED_EDGE('',*,*,#264,.T.);
#338=ORIENTED_EDGE('',*,*,#265,.T.);
#339=ORIENTED_EDGE('',*,*,#266,.T.);
#340=ORIENTED_EDGE('',*,*,#267,.T.);
#341=ORIENTED_EDGE('',*,*,#268,.T.);
#342=ORIENTED_EDGE('',*,*,#269,.T.);
#343=ORIENTED_EDGE('',*,*,#270,.T.);
#344=ORIENTED_EDGE('',*,*,#271,.T.);
#345=ORIENTED_EDGE('',*,*,#272,.T.);
#346=ORIENTED_EDGE('',*,*,#273,.T.);
#347=ORIENTED_EDGE('',*,*,#274,.T.);
#348=ORIENTED_EDGE('',*,*,#275,.T.);
#349=ORIENTED_EDGE('',*,*,#276,.T.);
#350=ORIENTED_EDGE('',*,*,#277,.T.);
#351=ORIENTED_EDGE('',*,*,#278,.T.);
#352=ORIENTED_EDGE('',*,*,#279,.F.);
#353=ORIENTED_EDGE('',*,*,#280,.F.);
#354=ORIENTED_EDGE('',*,*,#281,.F.);
#355=ORIENTED_EDGE('',*,*,#282,.F.);
#356=ORIENTED_EDGE('',*,*,#281,.T.);
#357=ORIENTED_EDGE('',*,*,#283,.T.);
#358=ORIENTED_EDGE('',*,*,#284,.T.);
#359=ORIENTED_EDGE('',*,*,#285,.F.);
#360=ORIENTED_EDGE('',*,*,#286,.T.);
#361=ORIENTED_EDGE('',*,*,#287,.T.);
#362=ORIENTED_EDGE('',*,*,#288,.F.);
#363=ORIENTED_EDGE('',*,*,#289,.F.);
#364=ORIENTED_EDGE('',*,*,#290,.F.);
#365=ORIENTED_EDGE('',*,*,#291,.T.);
#366=ORIENTED_EDGE('',*,*,#292,.T.);
#367=ORIENTED_EDGE('',*,*,#293,.T.);
#368=ORIENTED_EDGE('',*,*,#294,.F.);
#369=ORIENTED_EDGE('',*,*,#295,.T.);
#370=ORIENTED_EDGE('',*,*,#291,.F.);
#371=ORIENTED_EDGE('',*,*,#296,.T.);
#372=ORIENTED_EDGE('',*,*,#297,.T.);
#373=ORIENTED_EDGE('',*,*,#298,.T.);
#374=ORIENTED_EDGE('',*,*,#295,.F.);
#375=ORIENTED_EDGE('',*,*,#299,.F.);
#376=ORIENTED_EDGE('',*,*,#300,.F.);
#377=ORIENTED_EDGE('',*,*,#301,.F.);
#378=ORIENTED_EDGE('',*,*,#302,.T.);
#379=ORIENTED_EDGE('',*,*,#303,.F.);
#380=ORIENTED_EDGE('',*,*,#289,.T.);
#381=ORIENTED_EDGE('',*,*,#304,.T.);
#382=ORIENTED_EDGE('',*,*,#273,.F.);
#383=ORIENTED_EDGE('',*,*,#305,.F.);
#384=ORIENTED_EDGE('',*,*,#306,.T.);
#385=ORIENTED_EDGE('',*,*,#292,.F.);
#386=ORIENTED_EDGE('',*,*,#307,.T.);
#387=ORIENTED_EDGE('',*,*,#301,.T.);
#388=ORIENTED_EDGE('',*,*,#288,.T.);
#389=ORIENTED_EDGE('',*,*,#302,.F.);
#390=ORIENTED_EDGE('',*,*,#308,.T.);
#391=ORIENTED_EDGE('',*,*,#309,.T.);
#392=ORIENTED_EDGE('',*,*,#310,.T.);
#393=ORIENTED_EDGE('',*,*,#303,.T.);
#394=ORIENTED_EDGE('',*,*,#311,.T.);
#395=ORIENTED_EDGE('',*,*,#290,.T.);
#396=ORIENTED_EDGE('',*,*,#300,.T.);
#397=ORIENTED_EDGE('',*,*,#312,.T.);
#398=ORIENTED_EDGE('',*,*,#275,.F.);
#399=ORIENTED_EDGE('',*,*,#313,.F.);
#400=ORIENTED_EDGE('',*,*,#286,.F.);
#401=ORIENTED_EDGE('',*,*,#314,.T.);
#402=ORIENTED_EDGE('',*,*,#263,.F.);
#403=ORIENTED_EDGE('',*,*,#315,.F.);
#404=ORIENTED_EDGE('',*,*,#271,.F.);
#405=ORIENTED_EDGE('',*,*,#305,.T.);
#406=ORIENTED_EDGE('',*,*,#272,.F.);
#407=ORIENTED_EDGE('',*,*,#315,.T.);
#408=ORIENTED_EDGE('',*,*,#270,.F.);
#409=ORIENTED_EDGE('',*,*,#316,.F.);
#410=ORIENTED_EDGE('',*,*,#317,.F.);
#411=ORIENTED_EDGE('',*,*,#318,.T.);
#412=ORIENTED_EDGE('',*,*,#316,.T.);
#413=ORIENTED_EDGE('',*,*,#269,.F.);
#414=ORIENTED_EDGE('',*,*,#317,.T.);
#415=ORIENTED_EDGE('',*,*,#268,.F.);
#416=ORIENTED_EDGE('',*,*,#319,.F.);
#417=ORIENTED_EDGE('',*,*,#294,.T.);
#418=ORIENTED_EDGE('',*,*,#320,.F.);
#419=ORIENTED_EDGE('',*,*,#277,.F.);
#420=ORIENTED_EDGE('',*,*,#321,.T.);
#421=ORIENTED_EDGE('',*,*,#265,.F.);
#422=ORIENTED_EDGE('',*,*,#314,.F.);
#423=ORIENTED_EDGE('',*,*,#278,.F.);
#424=ORIENTED_EDGE('',*,*,#320,.T.);
#425=ORIENTED_EDGE('',*,*,#264,.F.);
#426=ORIENTED_EDGE('',*,*,#322,.F.);
#427=ORIENTED_EDGE('',*,*,#299,.T.);
#428=ORIENTED_EDGE('',*,*,#319,.T.);
#429=ORIENTED_EDGE('',*,*,#267,.F.);
#430=ORIENTED_EDGE('',*,*,#293,.F.);
#431=ORIENTED_EDGE('',*,*,#306,.F.);
#432=ORIENTED_EDGE('',*,*,#318,.F.);
#433=ORIENTED_EDGE('',*,*,#312,.F.);
#434=ORIENTED_EDGE('',*,*,#322,.T.);
#435=ORIENTED_EDGE('',*,*,#266,.F.);
#436=ORIENTED_EDGE('',*,*,#321,.F.);
#437=ORIENTED_EDGE('',*,*,#276,.F.);
#438=ORIENTED_EDGE('',*,*,#287,.F.);
#439=ORIENTED_EDGE('',*,*,#313,.T.);
#440=ORIENTED_EDGE('',*,*,#274,.F.);
#441=ORIENTED_EDGE('',*,*,#304,.F.);
#442=ORIENTED_EDGE('',*,*,#280,.T.);
#443=ORIENTED_EDGE('',*,*,#323,.T.);
#444=ORIENTED_EDGE('',*,*,#324,.T.);
#445=ORIENTED_EDGE('',*,*,#283,.F.);
#446=ORIENTED_EDGE('',*,*,#325,.T.);
#447=ORIENTED_EDGE('',*,*,#326,.T.);
#448=ORIENTED_EDGE('',*,*,#327,.F.);
#449=ORIENTED_EDGE('',*,*,#328,.F.);
#450=ORIENTED_EDGE('',*,*,#284,.F.);
#451=ORIENTED_EDGE('',*,*,#324,.F.);
#452=ORIENTED_EDGE('',*,*,#329,.F.);
#453=ORIENTED_EDGE('',*,*,#330,.F.);
#454=ORIENTED_EDGE('',*,*,#326,.F.);
#455=ORIENTED_EDGE('',*,*,#331,.T.);
#456=ORIENTED_EDGE('',*,*,#308,.F.);
#457=ORIENTED_EDGE('',*,*,#307,.F.);
#458=ORIENTED_EDGE('',*,*,#298,.F.);
#459=ORIENTED_EDGE('',*,*,#332,.F.);
#460=ORIENTED_EDGE('',*,*,#327,.T.);
#461=ORIENTED_EDGE('',*,*,#332,.T.);
#462=ORIENTED_EDGE('',*,*,#297,.F.);
#463=ORIENTED_EDGE('',*,*,#333,.F.);
#464=ORIENTED_EDGE('',*,*,#328,.T.);
#465=ORIENTED_EDGE('',*,*,#333,.T.);
#466=ORIENTED_EDGE('',*,*,#296,.F.);
#467=ORIENTED_EDGE('',*,*,#311,.F.);
#468=ORIENTED_EDGE('',*,*,#310,.F.);
#469=ORIENTED_EDGE('',*,*,#334,.F.);
#470=ORIENTED_EDGE('',*,*,#325,.F.);
#471=ORIENTED_EDGE('',*,*,#334,.T.);
#472=ORIENTED_EDGE('',*,*,#309,.F.);
#473=ORIENTED_EDGE('',*,*,#331,.F.);
#474=ORIENTED_EDGE('',*,*,#279,.T.);
#475=ORIENTED_EDGE('',*,*,#335,.T.);
#476=ORIENTED_EDGE('',*,*,#329,.T.);
#477=ORIENTED_EDGE('',*,*,#323,.F.);
#478=ORIENTED_EDGE('',*,*,#282,.T.);
#479=ORIENTED_EDGE('',*,*,#285,.T.);
#480=ORIENTED_EDGE('',*,*,#330,.T.);
#481=ORIENTED_EDGE('',*,*,#335,.F.);
#482=PLANE('',#550);
#483=PLANE('',#555);
#484=PLANE('',#558);
#485=PLANE('',#559);
#486=PLANE('',#566);
#487=PLANE('',#567);
#488=PLANE('',#569);
#489=PLANE('',#570);
#490=PLANE('',#571);
#491=PLANE('',#572);
#492=PLANE('',#574);
#493=PLANE('',#577);
#494=PLANE('',#579);
#495=PLANE('',#581);
#496=PLANE('',#582);
#497=PLANE('',#583);
#498=PLANE('',#584);
#499=PLANE('',#585);
#500=PLANE('',#586);
#501=PLANE('',#587);
#502=PLANE('',#588);
#503=PLANE('',#589);
#504=PLANE('',#590);
#505=PLANE('',#591);
#506=ADVANCED_FACE('',(#26),#482,.F.);
#507=ADVANCED_FACE('',(#27),#483,.T.);
#508=ADVANCED_FACE('',(#28),#484,.F.);
#509=ADVANCED_FACE('',(#29),#485,.T.);
#510=ADVANCED_FACE('',(#30),#20,.F.);
#511=ADVANCED_FACE('',(#31),#21,.F.);
#512=ADVANCED_FACE('',(#32),#486,.T.);
#513=ADVANCED_FACE('',(#33),#487,.F.);
#514=ADVANCED_FACE('',(#34),#488,.T.);
#515=ADVANCED_FACE('',(#35),#489,.T.);
#516=ADVANCED_FACE('',(#36),#490,.T.);
#517=ADVANCED_FACE('',(#37),#491,.T.);
#518=ADVANCED_FACE('',(#38),#22,.T.);
#519=ADVANCED_FACE('',(#39),#492,.F.);
#520=ADVANCED_FACE('',(#40),#23,.T.);
#521=ADVANCED_FACE('',(#41),#493,.F.);
#522=ADVANCED_FACE('',(#42),#24,.T.);
#523=ADVANCED_FACE('',(#43),#494,.T.);
#524=ADVANCED_FACE('',(#44),#25,.T.);
#525=ADVANCED_FACE('',(#45),#495,.F.);
#526=ADVANCED_FACE('',(#46),#496,.T.);
#527=ADVANCED_FACE('',(#47),#497,.T.);
#528=ADVANCED_FACE('',(#48),#498,.T.);
#529=ADVANCED_FACE('',(#49,#15),#499,.T.);
#530=ADVANCED_FACE('',(#50),#500,.T.);
#531=ADVANCED_FACE('',(#51),#501,.T.);
#532=ADVANCED_FACE('',(#52),#502,.T.);
#533=ADVANCED_FACE('',(#53),#503,.T.);
#534=ADVANCED_FACE('',(#54),#504,.T.);
#535=ADVANCED_FACE('',(#55),#505,.F.);
#536=CLOSED_SHELL('',(#506,#507,#508,#509,#510,#511,#512,#513,#514,#515,
#516,#517,#518,#519,#520,#521,#522,#523,#524,#525,#526,#527,#528,#529,#530,
#531,#532,#533,#534,#535));
#537=DERIVED_UNIT_ELEMENT(#539,1.);
#538=DERIVED_UNIT_ELEMENT(#894,-3.);
#539=(
MASS_UNIT()
NAMED_UNIT(*)
SI_UNIT(.KILO.,.GRAM.)
);
#540=DERIVED_UNIT((#537,#538));
#541=MEASURE_REPRESENTATION_ITEM('density measure',
POSITIVE_RATIO_MEASURE(7850.),#540);
#542=PROPERTY_DEFINITION_REPRESENTATION(#547,#544);
#543=PROPERTY_DEFINITION_REPRESENTATION(#548,#545);
#544=REPRESENTATION('material name',(#546),#891);
#545=REPRESENTATION('density',(#541),#891);
#546=DESCRIPTIVE_REPRESENTATION_ITEM('Steel','Steel');
#547=PROPERTY_DEFINITION('material property','material name',#901);
#548=PROPERTY_DEFINITION('material property','density of part',#901);
#549=AXIS2_PLACEMENT_3D('',#739,#592,#593);
#550=AXIS2_PLACEMENT_3D('',#740,#594,#595);
#551=AXIS2_PLACEMENT_3D('',#743,#596,#597);
#552=AXIS2_PLACEMENT_3D('',#747,#599,#600);
#553=AXIS2_PLACEMENT_3D('',#751,#602,#603);
#554=AXIS2_PLACEMENT_3D('',#755,#605,#606);
#555=AXIS2_PLACEMENT_3D('',#757,#608,#609);
#556=AXIS2_PLACEMENT_3D('',#760,#610,#611);
#557=AXIS2_PLACEMENT_3D('',#772,#617,#618);
#558=AXIS2_PLACEMENT_3D('',#774,#620,#621);
#559=AXIS2_PLACEMENT_3D('',#783,#626,#627);
#560=AXIS2_PLACEMENT_3D('',#789,#631,#632);
#561=AXIS2_PLACEMENT_3D('',#792,#633,#634);
#562=AXIS2_PLACEMENT_3D('',#796,#636,#637);
#563=AXIS2_PLACEMENT_3D('',#798,#639,#640);
#564=AXIS2_PLACEMENT_3D('',#801,#641,#642);
#565=AXIS2_PLACEMENT_3D('',#805,#644,#645);
#566=AXIS2_PLACEMENT_3D('',#811,#649,#650);
#567=AXIS2_PLACEMENT_3D('',#817,#654,#655);
#568=AXIS2_PLACEMENT_3D('',#819,#656,#657);
#569=AXIS2_PLACEMENT_3D('',#821,#659,#660);
#570=AXIS2_PLACEMENT_3D('',#827,#664,#665);
#571=AXIS2_PLACEMENT_3D('',#833,#670,#671);
#572=AXIS2_PLACEMENT_3D('',#839,#675,#676);
#573=AXIS2_PLACEMENT_3D('',#843,#680,#681);
#574=AXIS2_PLACEMENT_3D('',#846,#684,#685);
#575=AXIS2_PLACEMENT_3D('',#848,#687,#688);
#576=AXIS2_PLACEMENT_3D('',#850,#690,#691);
#577=AXIS2_PLACEMENT_3D('',#851,#692,#693);
#578=AXIS2_PLACEMENT_3D('',#853,#695,#696);
#579=AXIS2_PLACEMENT_3D('',#856,#699,#700);
#580=AXIS2_PLACEMENT_3D('',#857,#701,#702);
#581=AXIS2_PLACEMENT_3D('',#859,#704,#705);
#582=AXIS2_PLACEMENT_3D('',#860,#706,#707);
#583=AXIS2_PLACEMENT_3D('',#861,#708,#709);
#584=AXIS2_PLACEMENT_3D('',#862,#710,#711);
#585=AXIS2_PLACEMENT_3D('',#866,#714,#715);
#586=AXIS2_PLACEMENT_3D('',#878,#722,#723);
#587=AXIS2_PLACEMENT_3D('',#881,#726,#727);
#588=AXIS2_PLACEMENT_3D('',#883,#729,#730);
#589=AXIS2_PLACEMENT_3D('',#885,#732,#733);
#590=AXIS2_PLACEMENT_3D('',#886,#734,#735);
#591=AXIS2_PLACEMENT_3D('',#888,#737,#738);
#592=DIRECTION('axis',(0.,0.,1.));
#593=DIRECTION('refdir',(1.,0.,0.));
#594=DIRECTION('center_axis',(0.,0.997564050259824,-0.0697564737441244));
#595=DIRECTION('ref_axis',(0.,0.0697564737441244,0.997564050259824));
#596=DIRECTION('center_axis',(0.,-0.997564050259824,0.0697564737441244));
#597=DIRECTION('ref_axis',(-0.707106781186546,-0.0493252756161319,-0.705384304606641));
#598=DIRECTION('',(1.,3.34422641381899E-17,4.78246658309066E-16));
#599=DIRECTION('center_axis',(0.,-0.997564050259824,0.0697564737441244));
#600=DIRECTION('ref_axis',(0.707106781186547,-0.0493252756161319,-0.70538430460664));
#601=DIRECTION('',(0.,0.0697564737441244,0.997564050259824));
#602=DIRECTION('center_axis',(0.,-0.997564050259824,0.0697564737441244));
#603=DIRECTION('ref_axis',(0.707106781186547,0.0493252756161319,0.705384304606641));
#604=DIRECTION('',(-1.,-2.21503715427357E-16,1.54890486534777E-17));
#605=DIRECTION('center_axis',(0.,-0.997564050259824,0.0697564737441244));
#606=DIRECTION('ref_axis',(-0.707106781186547,0.0493252756161319,0.705384304606641));
#607=DIRECTION('',(0.,-0.0697564737441244,-0.997564050259824));
#608=DIRECTION('center_axis',(0.,0.997564050259824,-0.0697564737441248));
#609=DIRECTION('ref_axis',(1.,0.,0.));
#610=DIRECTION('center_axis',(0.,0.997564050259824,-0.0697564737441248));
#611=DIRECTION('ref_axis',(-0.707106781186546,-0.0493252756161319,-0.705384304606641));
#612=DIRECTION('',(0.,0.0697564737441247,0.997564050259824));
#613=DIRECTION('',(-0.447213595499958,0.0623920868650169,0.892248411316393));
#614=DIRECTION('',(1.,0.,0.));
#615=DIRECTION('',(-0.447213595499958,-0.0623920868650169,-0.892248411316393));
#616=DIRECTION('',(0.,-0.0697564737441247,-0.997564050259824));
#617=DIRECTION('center_axis',(0.,0.997564050259824,-0.0697564737441248));
#618=DIRECTION('ref_axis',(0.707106781186547,-0.0493252756161319,-0.705384304606641));
#619=DIRECTION('',(-1.,0.,0.));
#620=DIRECTION('center_axis',(0.,-0.0697564737441258,-0.997564050259824));
#621=DIRECTION('ref_axis',(-1.,0.,0.));
#622=DIRECTION('',(-1.,-2.53739544242877E-16,1.77431973929038E-17));
#623=DIRECTION('',(0.,-0.997564050259824,0.0697564737441258));
#624=DIRECTION('',(1.,-3.38822939294826E-17,2.36928079582169E-18));
#625=DIRECTION('',(0.,0.997564050259824,-0.0697564737441258));
#626=DIRECTION('center_axis',(3.39650310380147E-17,0.997564050259824,-0.069756473744126));
#627=DIRECTION('ref_axis',(1.,0.,4.86908658293165E-16));
#628=DIRECTION('',(4.79414487906318E-16,-0.069756473744126,-0.997564050259824));
#629=DIRECTION('',(-1.,3.38822939294826E-17,-2.36928079582168E-18));
#630=DIRECTION('',(4.79414487906318E-16,-0.069756473744126,-0.997564050259824));
#631=DIRECTION('center_axis',(1.,-3.38822939294825E-17,2.36928079582314E-18));
#632=DIRECTION('ref_axis',(0.,-0.898794046299169,-0.438371146789074));
#633=DIRECTION('center_axis',(0.894427190999916,-0.0311960434325085,-0.446124205658197));
#634=DIRECTION('ref_axis',(-0.447213595499958,-0.0623920868650172,-0.892248411316393));
#635=DIRECTION('',(-1.,3.38822939294825E-17,-2.36928079582314E-18));
#636=DIRECTION('center_axis',(-0.894427190999916,-0.0311960434325085,-0.446124205658197));
#637=DIRECTION('ref_axis',(0.447213595499958,-0.0623920868650172,-0.892248411316393));
#638=DIRECTION('',(-1.,3.38822939294826E-17,-2.36928079582166E-18));
#639=DIRECTION('center_axis',(1.,2.76879644284196E-16,-1.93613108168469E-17));
#640=DIRECTION('ref_axis',(-1.96261557335472E-16,0.754709580222772,0.656059028990508));
#641=DIRECTION('center_axis',(0.894427190999916,-0.0311960434325085,-0.446124205658197));
#642=DIRECTION('ref_axis',(0.447213595499958,0.0623920868650173,0.892248411316394));
#643=DIRECTION('',(-1.,-2.76879644284196E-16,1.93613108168469E-17));
#644=DIRECTION('center_axis',(-0.894427190999916,-0.0311960434325085,-0.446124205658197));
#645=DIRECTION('ref_axis',(-0.447213595499958,0.0623920868650168,0.892248411316394));
#646=DIRECTION('',(1.,2.76879644284196E-16,-1.93613108168469E-17));
#647=DIRECTION('',(-1.,-2.53739544242877E-16,1.77431973929022E-17));
#648=DIRECTION('',(1.,2.76879644284196E-16,-1.93613108168469E-17));
#649=DIRECTION('center_axis',(0.,-0.0697564737441249,-0.997564050259824));
#650=DIRECTION('ref_axis',(-1.,0.,0.));
#651=DIRECTION('',(-6.93930232409053E-15,-0.997564050259824,0.0697564737441253));
#652=DIRECTION('',(-1.,-2.21503715427357E-16,1.54890486534777E-17));
#653=DIRECTION('',(4.05246741246072E-13,0.997564050259824,-0.0697564737441253));
#654=DIRECTION('center_axis',(-2.77555756156289E-16,0.997564050259824,-0.0697564737441262));
#655=DIRECTION('ref_axis',(0.,0.0697564737441262,0.997564050259824));
#656=DIRECTION('center_axis',(-2.77555756156289E-16,0.997564050259824,-0.0697564737441262));
#657=DIRECTION('ref_axis',(0.707106781186547,0.0493252756161319,0.705384304606641));
#658=DIRECTION('',(-0.447213595499958,-0.0623920868650183,-0.892248411316393));
#659=DIRECTION('center_axis',(3.39521952904704E-17,0.995269482083133,-0.0971527561830917));
#660=DIRECTION('ref_axis',(0.,0.0971527561830917,0.995269482083133));
#661=DIRECTION('',(-0.447078374740647,0.086902634104266,0.890263364979713));
#662=DIRECTION('',(1.,-3.38822939294826E-17,2.36928079582166E-18));
#663=DIRECTION('',(-0.447078374740647,-0.086902634104266,-0.890263364979713));
#664=DIRECTION('center_axis',(-0.894427190999916,-0.0311960434325085,-0.446124205658197));
#665=DIRECTION('ref_axis',(-0.446341446739317,0.,0.894862734123314));
#666=DIRECTION('',(1.16368788433466E-16,0.997564050259824,-0.0697564737441251));
#667=DIRECTION('',(0.,0.997564050259824,-0.0697564737441247));
#668=DIRECTION('',(-0.447213595499958,0.0623920868650181,0.892248411316393));
#669=DIRECTION('',(4.05246741246072E-13,0.997564050259824,-0.0697564737441253));
#670=DIRECTION('center_axis',(0.,-0.0697564737441249,-0.997564050259824));
#671=DIRECTION('ref_axis',(-1.,0.,0.));
#672=DIRECTION('',(4.05246741246072E-13,0.997564050259824,-0.0697564737441253));
#673=DIRECTION('',(1.,1.09120082935295E-11,-7.60433512626806E-13));
#674=DIRECTION('',(-6.93930232409053E-15,-0.997564050259824,0.0697564737441253));
#675=DIRECTION('center_axis',(0.894427190999916,-0.0311960434325085,-0.446124205658197));
#676=DIRECTION('ref_axis',(-0.446341446739317,0.,-0.894862734123314));
#677=DIRECTION('',(-6.93930232409053E-15,-0.997564050259824,0.0697564737441253));
#678=DIRECTION('',(0.,0.997564050259824,-0.0697564737441249));
#679=DIRECTION('',(1.16368788433466E-16,-0.997564050259824,0.0697564737441251));
#680=DIRECTION('center_axis',(0.,0.997564050259824,-0.069756473744126));
#681=DIRECTION('ref_axis',(-0.707106781186546,-0.0493252756161319,-0.705384304606641));
#682=DIRECTION('',(0.,-0.997564050259824,0.0697564737441247));
#683=DIRECTION('',(0.,-0.997564050259824,0.0697564737441247));
#684=DIRECTION('center_axis',(1.,0.,0.));
#685=DIRECTION('ref_axis',(0.,1.,0.));
#686=DIRECTION('',(0.,-0.997564050259824,0.0697564737441247));
#687=DIRECTION('center_axis',(0.,0.997564050259824,-0.0697564737441262));
#688=DIRECTION('ref_axis',(-0.707106781186547,0.0493252756161319,0.705384304606641));
#689=DIRECTION('',(0.,-0.997564050259824,0.0697564737441247));
#690=DIRECTION('center_axis',(-2.77555756156289E-16,0.997564050259824,-0.0697564737441262));
#691=DIRECTION('ref_axis',(-0.707106781186547,0.0493252756161319,0.705384304606641));
#692=DIRECTION('center_axis',(1.76569257301422E-30,-0.0697564737441262,
-0.997564050259824));
#693=DIRECTION('ref_axis',(-1.,-2.53739544242877E-16,1.77431973929022E-17));
#694=DIRECTION('',(0.,-0.997564050259824,0.0697564737441262));
#695=DIRECTION('center_axis',(0.,-0.997564050259824,0.069756473744126));
#696=DIRECTION('ref_axis',(0.707106781186547,-0.0493252756161319,-0.70538430460664));
#697=DIRECTION('',(0.,-0.997564050259824,0.0697564737441247));
#698=DIRECTION('',(0.,-0.997564050259824,0.0697564737441247));
#699=DIRECTION('center_axis',(4.79414487906318E-16,-0.069756473744126,-0.997564050259824));
#700=DIRECTION('ref_axis',(-1.,0.,-4.80585169224422E-16));
#701=DIRECTION('center_axis',(0.,-0.997564050259824,0.0697564737441262));
#702=DIRECTION('ref_axis',(0.707106781186547,0.0493252756161319,0.705384304606641));
#703=DIRECTION('',(0.,-0.997564050259824,0.0697564737441247));
#704=DIRECTION('center_axis',(-2.77555756156289E-16,0.997564050259824,-0.0697564737441262));
#705=DIRECTION('ref_axis',(0.,0.0697564737441262,0.997564050259824));
#706=DIRECTION('center_axis',(1.,0.,0.));
#707=DIRECTION('ref_axis',(0.,1.,0.));
#708=DIRECTION('center_axis',(-1.47702707343762E-30,0.0697564737441251,
0.997564050259824));
#709=DIRECTION('ref_axis',(1.,1.03032200267614E-31,1.47342910972185E-30));
#710=DIRECTION('center_axis',(1.,0.,0.));
#711=DIRECTION('ref_axis',(0.,1.,0.));
#712=DIRECTION('',(4.79414487906318E-16,-0.069756473744126,-0.997564050259824));
#713=DIRECTION('',(0.,0.997564050259824,-0.0697564737441253));
#714=DIRECTION('center_axis',(0.,0.0697564737441253,0.997564050259824));
#715=DIRECTION('ref_axis',(1.,0.,0.));
#716=DIRECTION('',(-1.,-1.09120082935295E-11,7.60433512626806E-13));
#717=DIRECTION('',(-4.05246741246072E-13,-0.997564050259824,0.0697564737441253));
#718=DIRECTION('',(-1.,-2.21503715427357E-16,1.54890486534777E-17));
#719=DIRECTION('',(-6.93930232409053E-15,-0.997564050259824,0.0697564737441253));
#720=DIRECTION('',(1.,2.53739544242877E-16,-1.77431973929037E-17));
#721=DIRECTION('',(0.,-0.997564050259824,0.0697564737441253));
#722=DIRECTION('center_axis',(-1.,4.04259580552026E-13,-2.82685836656238E-14));
#723=DIRECTION('ref_axis',(4.05246741246072E-13,0.997564050259824,-0.0697564737441253));
#724=DIRECTION('',(0.,-0.0697564737441249,-0.997564050259824));
#725=DIRECTION('',(0.,-0.0697564737441249,-0.997564050259824));
#726=DIRECTION('center_axis',(2.22044604925031E-16,-0.997564050259824,0.0697564737441249));
#727=DIRECTION('ref_axis',(-1.,-2.21503715427357E-16,1.54890486534777E-17));
#728=DIRECTION('',(0.,-0.0697564737441249,-0.997564050259824));
#729=DIRECTION('center_axis',(1.,-6.92239853239716E-15,4.84061260372966E-16));
#730=DIRECTION('ref_axis',(-6.93930232409053E-15,-0.997564050259824,0.0697564737441253));
#731=DIRECTION('',(0.,-0.0697564737441249,-0.997564050259824));
#732=DIRECTION('center_axis',(-1.09384723501198E-11,0.997564050259824,-0.0697564737441249));
#733=DIRECTION('ref_axis',(1.,1.09120082935295E-11,-7.60433512626806E-13));
#734=DIRECTION('center_axis',(2.54359150349081E-16,-0.997564050259824,0.069756473744126));
#735=DIRECTION('ref_axis',(-1.,-2.87621838172359E-16,-4.66796180104439E-16));
#736=DIRECTION('',(4.79414487906318E-16,-0.069756473744126,-0.997564050259824));
#737=DIRECTION('center_axis',(1.,0.,0.));
#738=DIRECTION('ref_axis',(0.,1.,0.));
#739=CARTESIAN_POINT('',(0.,0.,0.));
#740=CARTESIAN_POINT('Origin',(1.6,13.4585555589515,30.1345849569142));
#741=CARTESIAN_POINT('',(-1.6,13.3190426114633,28.1394568563946));
#742=CARTESIAN_POINT('',(-0.6,13.2492861377191,27.1418928061348));
#743=CARTESIAN_POINT('Origin',(-0.6,13.3190426114633,28.1394568563946));
#744=CARTESIAN_POINT('',(0.600000000000001,13.2492861377191,27.1418928061348));
#745=CARTESIAN_POINT('',(0.800000000000002,13.2492861377191,27.1418928061348));
#746=CARTESIAN_POINT('',(1.6,13.3190426114633,28.1394568563946));
#747=CARTESIAN_POINT('Origin',(0.6,13.3190426114633,28.1394568563946));
#748=CARTESIAN_POINT('',(1.6,13.3887990852074,29.1370209066544));
#749=CARTESIAN_POINT('',(1.6,13.9176030587619,36.6992700476808));
#750=CARTESIAN_POINT('',(0.600000000000001,13.4585555589515,30.1345849569142));
#751=CARTESIAN_POINT('Origin',(0.6,13.3887990852074,29.1370209066544));
#752=CARTESIAN_POINT('',(-0.600000000000001,13.4585555589515,30.1345849569142));
#753=CARTESIAN_POINT('',(4.99999999999995,13.4585555589515,30.1345849569142));
#754=CARTESIAN_POINT('',(-1.6,13.3887990852074,29.1370209066544));
#755=CARTESIAN_POINT('Origin',(-0.6,13.3887990852074,29.1370209066544));
#756=CARTESIAN_POINT('',(-1.6,13.9176030587619,36.6992700476808));
#757=CARTESIAN_POINT('Origin',(-1.6,45.3298257673685,27.9059286386495));
#758=CARTESIAN_POINT('',(-0.6,45.1205563461361,24.91323648787));
#759=CARTESIAN_POINT('',(-1.6,45.1903128198802,25.9108005381298));
#760=CARTESIAN_POINT('Origin',(-0.6,45.1903128198802,25.9108005381298));
#761=CARTESIAN_POINT('',(-1.6,45.2600692936243,26.9083645883897));
#762=CARTESIAN_POINT('',(-1.6,45.3298257673685,27.9059286386495));
#763=CARTESIAN_POINT('',(-2.09999999999999,45.3298257673685,27.9059286386495));
#764=CARTESIAN_POINT('',(-2.3,45.3577283568661,28.3049542587534));
#765=CARTESIAN_POINT('',(2.09999999999999,45.3298257673685,27.9059286386495));
#766=CARTESIAN_POINT('',(-1.6,45.3298257673685,27.9059286386495));
#767=CARTESIAN_POINT('',(1.6,45.2600692936243,26.9083645883897));
#768=CARTESIAN_POINT('',(1.98,45.3130842136699,27.6665132665871));
#769=CARTESIAN_POINT('',(1.6,45.1903128198802,25.9108005381298));
#770=CARTESIAN_POINT('',(1.6,45.3298257673685,27.9059286386495));
#771=CARTESIAN_POINT('',(0.600000000000001,45.1205563461361,24.91323648787));
#772=CARTESIAN_POINT('Origin',(0.6,45.1903128198802,25.9108005381298));
#773=CARTESIAN_POINT('',(-1.6,45.1205563461361,24.91323648787));
#774=CARTESIAN_POINT('Origin',(-2.64177568709556E-12,28.7157442971709,36.6359893588514));
#775=CARTESIAN_POINT('',(1.6,16.977603595764,37.4568001162451));
#776=CARTESIAN_POINT('',(-1.6,16.977603595764,37.4568001162451));
#777=CARTESIAN_POINT('',(0.799999999998681,16.977603595764,37.4568001162451));
#778=CARTESIAN_POINT('',(1.6,29.5685994716521,36.5763519154504));
#779=CARTESIAN_POINT('',(1.6,19.6865146515447,37.2673746022759));
#780=CARTESIAN_POINT('',(-1.6,29.5685994716521,36.5763519154504));
#781=CARTESIAN_POINT('',(-0.800000000001321,29.5685994716521,36.5763519154504));
#782=CARTESIAN_POINT('',(-1.6,19.6865146515447,37.2673746022759));
#783=CARTESIAN_POINT('Origin',(-1.6,29.6,37.0254003916378));
#784=CARTESIAN_POINT('',(1.6,29.3209741050235,33.0351441905985));
#785=CARTESIAN_POINT('',(1.6,29.6,37.0254003916378));
#786=CARTESIAN_POINT('',(-1.6,29.3209741050235,33.0351441905985));
#787=CARTESIAN_POINT('',(-0.800000000001321,29.3209741050235,33.0351441905985));
#788=CARTESIAN_POINT('',(-1.6,29.6,37.0254003916378));
#789=CARTESIAN_POINT('Origin',(-0.800000000001321,30.9092927763895,30.9191943333972));
#790=CARTESIAN_POINT('',(2.6,29.1117046837911,30.042452039819));
#791=CARTESIAN_POINT('',(2.1,30.7697798289012,28.9240662328775));
#792=CARTESIAN_POINT('Origin',(3.1,30.9092927763895,30.9191943333972));
#793=CARTESIAN_POINT('',(-2.1,30.7697798289012,28.9240662328775));
#794=CARTESIAN_POINT('',(-0.800000000001321,30.7697798289012,28.9240662328775));
#795=CARTESIAN_POINT('',(-2.6,29.1117046837911,30.042452039819));
#796=CARTESIAN_POINT('Origin',(-3.1,30.9092927763895,30.9191943333972));
#797=CARTESIAN_POINT('',(-0.800000000001321,29.1117046837911,30.042452039819));
#798=CARTESIAN_POINT('Origin',(0.79999999999868,16.4509523341589,29.9253361903539));
#799=CARTESIAN_POINT('',(3.59999999999991,16.6602217553912,32.9180283411334));
#800=CARTESIAN_POINT('',(2.1,19.4436444849383,29.7160667691216));
#801=CARTESIAN_POINT('Origin',(2.1,16.4509523341589,29.9253361903539));
#802=CARTESIAN_POINT('',(-3.60000000000514,16.6602217553912,32.9180283411334));
#803=CARTESIAN_POINT('',(0.79999999999868,16.6602217553912,32.9180283411334));
#804=CARTESIAN_POINT('',(-2.1,19.4436444849383,29.7160667691216));
#805=CARTESIAN_POINT('Origin',(-2.1,16.4509523341589,29.9253361903539));
#806=CARTESIAN_POINT('',(-0.6,19.4436444849383,29.7160667691216));
#807=CARTESIAN_POINT('',(0.799999999998679,19.4436444849383,29.7160667691216));
#808=CARTESIAN_POINT('',(0.6,19.4436444849383,29.7160667691216));
#809=CARTESIAN_POINT('',(0.8,19.4436444849383,29.7160667691216));
#810=CARTESIAN_POINT('',(0.799999999998679,19.4436444849383,29.7160667691216));
#811=CARTESIAN_POINT('Origin',(-2.64233079860787E-12,22.8031337455497,32.4884740896121));
#812=CARTESIAN_POINT('',(3.59999999999991,16.2993989447693,32.9432595299567));
#813=CARTESIAN_POINT('',(3.6,29.3068685463301,32.0336886492674));
#814=CARTESIAN_POINT('',(-3.60000000000528,16.2993989447693,32.9432595299567));
#815=CARTESIAN_POINT('',(4.99999999999995,16.2993989447693,32.9432595299567));
#816=CARTESIAN_POINT('',(-3.6,29.3068685463126,32.0336886492687));
#817=CARTESIAN_POINT('Origin',(1.6,20.0016962748914,37.6965791712002));
#818=CARTESIAN_POINT('',(1.6,19.3738880111942,28.7185027188617));
#819=CARTESIAN_POINT('Origin',(0.6,19.3738880111942,28.7185027188617));
#820=CARTESIAN_POINT('',(3.9,19.6947677904172,33.3072973500569));
#821=CARTESIAN_POINT('Origin',(-0.800000000001321,29.2088941689174,31.0380977870509));
#822=CARTESIAN_POINT('',(-3.6,29.3060836540437,32.0337435342827));
#823=CARTESIAN_POINT('',(-2.5826118415603,29.108324791459,30.0078271478137));
#824=CARTESIAN_POINT('',(3.6,29.3060836540437,32.0337435342827));
#825=CARTESIAN_POINT('',(-0.800000000001321,29.3060836540437,32.0337435342827));
#826=CARTESIAN_POINT('',(2.42270858303145,29.0772429607262,29.6894131491681));
#827=CARTESIAN_POINT('Origin',(-2.6,22.301075858763,30.5186976008838));
#828=CARTESIAN_POINT('',(-2.1,25.4730844649759,29.2944472535128));
#829=CARTESIAN_POINT('',(-1.6,19.3738880111942,28.7185027188617));
#830=CARTESIAN_POINT('',(-1.6,41.269813092585,27.1873904833662));
#831=CARTESIAN_POINT('',(-3.58,19.650123647221,32.6688563578907));
#832=CARTESIAN_POINT('',(-3.6,29.3068685463126,32.0336886492687));
#833=CARTESIAN_POINT('Origin',(-2.64233079860787E-12,22.8031337455497,32.4884740896121));
#834=CARTESIAN_POINT('',(-3.6,29.3068685463127,32.0336886492687));
#835=CARTESIAN_POINT('',(-3.6,29.3068685463126,32.0336886492687));
#836=CARTESIAN_POINT('',(3.6,29.3068685463301,32.0336886492674));
#837=CARTESIAN_POINT('',(1.6,29.3068685463301,32.0336886492674));
#838=CARTESIAN_POINT('',(3.6,29.3068685463301,32.0336886492674));
#839=CARTESIAN_POINT('Origin',(2.6,22.301075858763,30.5186976008838));
#840=CARTESIAN_POINT('',(3.6,29.3068685463301,32.0336886492674));
#841=CARTESIAN_POINT('',(1.6,22.1615629112747,28.5235695003642));
#842=CARTESIAN_POINT('',(2.1,25.4730844649759,29.2944472535128));
#843=CARTESIAN_POINT('Origin',(-0.6,24.0869345380458,27.3864925026164));
#844=CARTESIAN_POINT('',(-0.6,16.2419782884986,26.9326233849024));
#845=CARTESIAN_POINT('',(-1.6,16.3117347622427,27.9301874351622));
#846=CARTESIAN_POINT('Origin',(-1.6,22.7868694453411,42.6758553439484));
#847=CARTESIAN_POINT('',(-1.6,16.3814912359869,28.927751485422));
#848=CARTESIAN_POINT('Origin',(-0.6,19.0901069161955,28.7383466261248));
#849=CARTESIAN_POINT('',(-0.600000000000001,16.451247709731,29.9253155356819));
#850=CARTESIAN_POINT('Origin',(-0.6,19.3738880111942,28.7185027188617));
#851=CARTESIAN_POINT('Origin',(1.6,16.4509523341589,29.9253361903539));
#852=CARTESIAN_POINT('',(0.6,19.1598633899396,29.7359106763847));
#853=CARTESIAN_POINT('Origin',(0.6,24.0869345380458,27.3864925026164));
#854=CARTESIAN_POINT('',(0.600000000000001,16.2419782884986,26.9326233849024));
#855=CARTESIAN_POINT('',(1.6,16.3117347622427,27.9301874351622));
#856=CARTESIAN_POINT('Origin',(3.05311331771918E-15,26.3748511041155,26.2240638930772));
#857=CARTESIAN_POINT('Origin',(0.6,19.0901069161955,28.7383466261248));
#858=CARTESIAN_POINT('',(1.6,16.3814912359869,28.927751485422));
#859=CARTESIAN_POINT('Origin',(1.6,20.0016962748914,37.6965791712002));
#860=CARTESIAN_POINT('Origin',(1.6,22.7868694453411,42.6758553439484));
#861=CARTESIAN_POINT('Origin',(-1.38777878078144E-15,28.714849544933,29.0677609564016));
#862=CARTESIAN_POINT('Origin',(1.6,22.7868694453411,42.6758553439484));
#863=CARTESIAN_POINT('',(1.6,16.7299782291354,33.9155923913932));
#864=CARTESIAN_POINT('',(1.6,17.0090041241119,37.9058485924325));
#865=CARTESIAN_POINT('',(1.6,22.5103452799953,33.5113897516633));
#866=CARTESIAN_POINT('Origin',(-2.64233079860787E-12,22.8728902192938,33.4860381398719));
#867=CARTESIAN_POINT('',(3.6,29.3766250200742,33.0312526995273));
#868=CARTESIAN_POINT('',(-3.6,29.3766250200568,33.0312526995285));
#869=CARTESIAN_POINT('',(1.6,29.3766250200742,33.0312526995273));
#870=CARTESIAN_POINT('',(-3.60000000000528,16.3691554185134,33.9408235802165));
#871=CARTESIAN_POINT('',(-3.6,29.3766250200568,33.0312526995285));
#872=CARTESIAN_POINT('',(3.59999999999991,16.3691554185134,33.9408235802165));
#873=CARTESIAN_POINT('',(4.99999999999995,16.3691554185134,33.9408235802165));
#874=CARTESIAN_POINT('',(3.6,29.3766250200742,33.0312526995273));
#875=CARTESIAN_POINT('',(-1.6,16.7299782291354,33.9155923913932));
#876=CARTESIAN_POINT('',(0.79999999999868,16.7299782291354,33.9155923913933));
#877=CARTESIAN_POINT('',(-1.6,22.5103452799953,33.5113897516633));
#878=CARTESIAN_POINT('Origin',(-3.60000000000528,16.3691554185141,33.9408235802165));
#879=CARTESIAN_POINT('',(-3.6,29.3766250200568,33.0312526995285));
#880=CARTESIAN_POINT('',(-3.60000000000528,16.3691554185134,33.9408235802165));
#881=CARTESIAN_POINT('Origin',(3.59999999999991,16.3691554185134,33.9408235802165));
#882=CARTESIAN_POINT('',(3.59999999999991,16.3691554185134,33.9408235802165));
#883=CARTESIAN_POINT('Origin',(3.6,29.3766250200742,33.0312526995273));
#884=CARTESIAN_POINT('',(3.6,29.3766250200742,33.0312526995273));
#885=CARTESIAN_POINT('Origin',(-3.6,29.3766250200175,33.0312526995312));
#886=CARTESIAN_POINT('Origin',(1.6,17.0090041241119,37.9058485924325));
#887=CARTESIAN_POINT('',(-1.6,17.0090041241119,37.9058485924325));
#888=CARTESIAN_POINT('Origin',(-1.6,22.7868694453411,42.6758553439484));
#889=UNCERTAINTY_MEASURE_WITH_UNIT(LENGTH_MEASURE(0.01),#893,
'DISTANCE_ACCURACY_VALUE',
'Maximum model space distance between geometric entities at asserted c
onnectivities');
#890=UNCERTAINTY_MEASURE_WITH_UNIT(LENGTH_MEASURE(0.01),#893,
'DISTANCE_ACCURACY_VALUE',
'Maximum model space distance between geometric entities at asserted c
onnectivities');
#891=(
GEOMETRIC_REPRESENTATION_CONTEXT(3)
GLOBAL_UNCERTAINTY_ASSIGNED_CONTEXT((#889))
GLOBAL_UNIT_ASSIGNED_CONTEXT((#893,#895,#896))
REPRESENTATION_CONTEXT('','3D')
);
#892=(
GEOMETRIC_REPRESENTATION_CONTEXT(3)
GLOBAL_UNCERTAINTY_ASSIGNED_CONTEXT((#890))
GLOBAL_UNIT_ASSIGNED_CONTEXT((#893,#895,#896))
REPRESENTATION_CONTEXT('','3D')
);
#893=(
LENGTH_UNIT()
NAMED_UNIT(*)
SI_UNIT(.MILLI.,.METRE.)
);
#894=(
LENGTH_UNIT()
NAMED_UNIT(*)
SI_UNIT($,.METRE.)
);
#895=(
NAMED_UNIT(*)
PLANE_ANGLE_UNIT()
SI_UNIT($,.RADIAN.)
);
#896=(
NAMED_UNIT(*)
SI_UNIT($,.STERADIAN.)
SOLID_ANGLE_UNIT()
);
#897=SHAPE_DEFINITION_REPRESENTATION(#898,#899);
#898=PRODUCT_DEFINITION_SHAPE('',$,#901);
#899=SHAPE_REPRESENTATION('',(#549),#891);
#900=PRODUCT_DEFINITION_CONTEXT('part definition',#905,'design');
#901=PRODUCT_DEFINITION('latch bottom','latch bottom',#902,#900);
#902=PRODUCT_DEFINITION_FORMATION('',$,#907);
#903=PRODUCT_RELATED_PRODUCT_CATEGORY('latch bottom','latch bottom',(#907));
#904=APPLICATION_PROTOCOL_DEFINITION('international standard',
'automotive_design',2009,#905);
#905=APPLICATION_CONTEXT(
'Core Data for Automotive Mechanical Design Process');
#906=PRODUCT_CONTEXT('part definition',#905,'mechanical');
#907=PRODUCT('latch bottom','latch bottom',$,(#906));
#908=PRESENTATION_STYLE_ASSIGNMENT((#910));
#909=PRESENTATION_STYLE_ASSIGNMENT((#911));
#910=SURFACE_STYLE_USAGE(.BOTH.,#912);
#911=SURFACE_STYLE_USAGE(.BOTH.,#913);
#912=SURFACE_SIDE_STYLE('',(#914));
#913=SURFACE_SIDE_STYLE('',(#915));
#914=SURFACE_STYLE_FILL_AREA(#916);
#915=SURFACE_STYLE_FILL_AREA(#917);
#916=FILL_AREA_STYLE('Steel - Satin',(#918));
#917=FILL_AREA_STYLE('PLA (White)',(#919));
#918=FILL_AREA_STYLE_COLOUR('Steel - Satin',#920);
#919=FILL_AREA_STYLE_COLOUR('PLA (White)',#921);
#920=COLOUR_RGB('Steel - Satin',0.627450980392157,0.627450980392157,0.627450980392157);
#921=COLOUR_RGB('PLA (White)',0.964705882352941,0.964705882352941,0.952941176470588);
ENDSEC;
END-ISO-10303-21;
