ISO-10303-21;
HEADER;
/* Generated by software containing ST-Developer
 * from STEP Tools, Inc. (www.steptools.com) 
 */

FILE_DESCRIPTION(
/* description */ (''),
/* implementation_level */ '2;1');

FILE_NAME(
/* name */ 'Spring Mount.step',
/* time_stamp */ '2026-08-30T19:24:58-07:00',
/* author */ (''),
/* organization */ (''),
/* preprocessor_version */ 'ST-DEVELOPER v20.1',
/* originating_system */ 'Autodesk Translation Framework v15.8.0.0',
/* authorisation */ '');

FILE_SCHEMA (('AUTOMOTIVE_DESIGN { 1 0 10303 214 3 1 1 }'));
ENDSEC;

DATA;
#10=MECHANICAL_DESIGN_GEOMETRIC_PRESENTATION_REPRESENTATION('',(#13),#415);
#11=SHAPE_REPRESENTATION_RELATIONSHIP('SRR','None',#422,#12);
#12=ADVANCED_BREP_SHAPE_REPRESENTATION('',(#14),#414);
#13=STYLED_ITEM('',(#432),#14);
#14=MANIFOLD_SOLID_BREP('spring mount',#215);
#15=FACE_BOUND('',#56,.T.);
#16=B_SPLINE_SURFACE_WITH_KNOTS('',3,3,((#337,#338,#339,#340),(#341,#342,
#343,#344),(#345,#346,#347,#348),(#349,#350,#351,#352)),.UNSPECIFIED.,.F.,
 .F.,.F.,(4,4),(4,4),(0.900145977170634,1.),(0.589232430656278,0.621506005477591),
 .UNSPECIFIED.);
#17=B_SPLINE_SURFACE_WITH_KNOTS('',3,3,((#372,#373,#374,#375),(#376,#377,
#378,#379),(#380,#381,#382,#383),(#384,#385,#386,#387)),.UNSPECIFIED.,.F.,
 .F.,.F.,(4,4),(4,4),(0.900145977170636,1.),(0.589232431084024,0.621506005477591),
 .UNSPECIFIED.);
#18=B_SPLINE_CURVE_WITH_KNOTS('',3,(#325,#326,#327,#328),.UNSPECIFIED.,
 .F.,.F.,(4,4),(-1.34282024204842,-3.73006506793061E-7),.UNSPECIFIED.);
#19=B_SPLINE_CURVE_WITH_KNOTS('',3,(#354,#355,#356,#357),.UNSPECIFIED.,
 .F.,.F.,(4,4),(-0.500000000000011,0.),.UNSPECIFIED.);
#20=B_SPLINE_CURVE_WITH_KNOTS('',3,(#359,#360,#361,#362),.UNSPECIFIED.,
 .F.,.F.,(4,4),(0.589232439610038,0.62150600547759),.UNSPECIFIED.);
#21=B_SPLINE_CURVE_WITH_KNOTS('',3,(#364,#365,#366,#367),.UNSPECIFIED.,
 .F.,.F.,(4,4),(-0.210000000000006,0.),.UNSPECIFIED.);
#22=B_SPLINE_CURVE_WITH_KNOTS('',3,(#368,#369,#370,#371),.UNSPECIFIED.,
 .F.,.F.,(4,4),(-0.340000000000005,-0.0500000000000004),.UNSPECIFIED.);
#23=B_SPLINE_CURVE_WITH_KNOTS('',3,(#390,#391,#392,#393),.UNSPECIFIED.,
 .F.,.F.,(4,4),(-1.44372773213672,-0.100664036034929),.UNSPECIFIED.);
#24=B_SPLINE_CURVE_WITH_KNOTS('',3,(#395,#396,#397,#398),.UNSPECIFIED.,
 .F.,.F.,(4,4),(-0.500000000000001,-0.210000000000005),.UNSPECIFIED.);
#25=B_SPLINE_CURVE_WITH_KNOTS('',3,(#399,#400,#401,#402),.UNSPECIFIED.,
 .F.,.F.,(4,4),(-0.260000000000006,-0.0500000000000002),.UNSPECIFIED.);
#26=B_SPLINE_CURVE_WITH_KNOTS('',3,(#403,#404,#405,#406),.UNSPECIFIED.,
 .F.,.F.,(4,4),(-4.55096626241973,-4.05096626241973),.UNSPECIFIED.);
#27=PLANE('',#232);
#28=PLANE('',#233);
#29=PLANE('',#237);
#30=PLANE('',#241);
#31=PLANE('',#242);
#32=PLANE('',#243);
#33=PLANE('',#244);
#34=FACE_OUTER_BOUND('',#46,.T.);
#35=FACE_OUTER_BOUND('',#47,.T.);
#36=FACE_OUTER_BOUND('',#48,.T.);
#37=FACE_OUTER_BOUND('',#49,.T.);
#38=FACE_OUTER_BOUND('',#50,.T.);
#39=FACE_OUTER_BOUND('',#51,.T.);
#40=FACE_OUTER_BOUND('',#52,.T.);
#41=FACE_OUTER_BOUND('',#53,.T.);
#42=FACE_OUTER_BOUND('',#54,.T.);
#43=FACE_OUTER_BOUND('',#55,.T.);
#44=FACE_OUTER_BOUND('',#57,.T.);
#45=FACE_OUTER_BOUND('',#58,.T.);
#46=EDGE_LOOP('',(#142,#143,#144,#145));
#47=EDGE_LOOP('',(#146,#147,#148,#149));
#48=EDGE_LOOP('',(#150,#151,#152,#153,#154,#155));
#49=EDGE_LOOP('',(#156,#157,#158,#159));
#50=EDGE_LOOP('',(#160,#161,#162,#163,#164));
#51=EDGE_LOOP('',(#165,#166,#167,#168));
#52=EDGE_LOOP('',(#169));
#53=EDGE_LOOP('',(#170,#171,#172,#173,#174));
#54=EDGE_LOOP('',(#175,#176,#177,#178,#179));
#55=EDGE_LOOP('',(#180,#181,#182,#183,#184,#185,#186,#187,#188));
#56=EDGE_LOOP('',(#189));
#57=EDGE_LOOP('',(#190,#191,#192,#193,#194));
#58=EDGE_LOOP('',(#195,#196,#197,#198,#199));
#59=CIRCLE('',#231,3.);
#60=CIRCLE('',#236,3.);
#61=CIRCLE('',#239,3.25);
#62=CIRCLE('',#240,3.25);
#63=LINE('',#299,#77);
#64=LINE('',#302,#78);
#65=LINE('',#305,#79);
#66=LINE('',#307,#80);
#67=LINE('',#308,#81);
#68=LINE('',#311,#82);
#69=LINE('',#313,#83);
#70=LINE('',#315,#84);
#71=LINE('',#320,#85);
#72=LINE('',#323,#86);
#73=LINE('',#329,#87);
#74=LINE('',#334,#88);
#75=LINE('',#408,#89);
#76=LINE('',#410,#90);
#77=VECTOR('',#251,10.);
#78=VECTOR('',#254,10.);
#79=VECTOR('',#257,10.);
#80=VECTOR('',#258,10.);
#81=VECTOR('',#259,10.);
#82=VECTOR('',#262,10.);
#83=VECTOR('',#263,10.);
#84=VECTOR('',#264,10.);
#85=VECTOR('',#271,10.);
#86=VECTOR('',#274,10.);
#87=VECTOR('',#275,10.);
#88=VECTOR('',#280,3.25);
#89=VECTOR('',#287,10.);
#90=VECTOR('',#290,10.);
#91=ELLIPSE('',#230,3.2310988842807,3.);
#92=ELLIPSE('',#234,3.2310988842807,3.);
#93=VERTEX_POINT('',#295);
#94=VERTEX_POINT('',#296);
#95=VERTEX_POINT('',#298);
#96=VERTEX_POINT('',#300);
#97=VERTEX_POINT('',#304);
#98=VERTEX_POINT('',#306);
#99=VERTEX_POINT('',#310);
#100=VERTEX_POINT('',#312);
#101=VERTEX_POINT('',#314);
#102=VERTEX_POINT('',#318);
#103=VERTEX_POINT('',#322);
#104=VERTEX_POINT('',#324);
#105=VERTEX_POINT('',#331);
#106=VERTEX_POINT('',#333);
#107=VERTEX_POINT('',#353);
#108=VERTEX_POINT('',#358);
#109=VERTEX_POINT('',#363);
#110=VERTEX_POINT('',#388);
#111=VERTEX_POINT('',#389);
#112=VERTEX_POINT('',#394);
#113=EDGE_CURVE('',#93,#94,#91,.T.);
#114=EDGE_CURVE('',#94,#95,#63,.T.);
#115=EDGE_CURVE('',#95,#96,#59,.T.);
#116=EDGE_CURVE('',#96,#93,#64,.T.);
#117=EDGE_CURVE('',#97,#94,#65,.T.);
#118=EDGE_CURVE('',#98,#97,#66,.T.);
#119=EDGE_CURVE('',#98,#95,#67,.T.);
#120=EDGE_CURVE('',#93,#99,#68,.T.);
#121=EDGE_CURVE('',#99,#100,#69,.T.);
#122=EDGE_CURVE('',#100,#101,#70,.T.);
#123=EDGE_CURVE('',#97,#101,#92,.T.);
#124=EDGE_CURVE('',#102,#98,#60,.T.);
#125=EDGE_CURVE('',#101,#102,#71,.T.);
#126=EDGE_CURVE('',#100,#103,#72,.T.);
#127=EDGE_CURVE('',#104,#103,#18,.T.);
#128=EDGE_CURVE('',#102,#104,#73,.T.);
#129=EDGE_CURVE('',#105,#105,#61,.T.);
#130=EDGE_CURVE('',#105,#106,#74,.T.);
#131=EDGE_CURVE('',#106,#106,#62,.T.);
#132=EDGE_CURVE('',#103,#107,#19,.T.);
#133=EDGE_CURVE('',#107,#108,#20,.T.);
#134=EDGE_CURVE('',#109,#108,#21,.T.);
#135=EDGE_CURVE('',#109,#104,#22,.T.);
#136=EDGE_CURVE('',#110,#111,#23,.T.);
#137=EDGE_CURVE('',#111,#112,#24,.T.);
#138=EDGE_CURVE('',#108,#112,#25,.T.);
#139=EDGE_CURVE('',#107,#110,#26,.T.);
#140=EDGE_CURVE('',#96,#111,#75,.T.);
#141=EDGE_CURVE('',#110,#99,#76,.T.);
#142=ORIENTED_EDGE('',*,*,#113,.T.);
#143=ORIENTED_EDGE('',*,*,#114,.T.);
#144=ORIENTED_EDGE('',*,*,#115,.T.);
#145=ORIENTED_EDGE('',*,*,#116,.T.);
#146=ORIENTED_EDGE('',*,*,#114,.F.);
#147=ORIENTED_EDGE('',*,*,#117,.F.);
#148=ORIENTED_EDGE('',*,*,#118,.F.);
#149=ORIENTED_EDGE('',*,*,#119,.T.);
#150=ORIENTED_EDGE('',*,*,#113,.F.);
#151=ORIENTED_EDGE('',*,*,#120,.T.);
#152=ORIENTED_EDGE('',*,*,#121,.T.);
#153=ORIENTED_EDGE('',*,*,#122,.T.);
#154=ORIENTED_EDGE('',*,*,#123,.F.);
#155=ORIENTED_EDGE('',*,*,#117,.T.);
#156=ORIENTED_EDGE('',*,*,#124,.T.);
#157=ORIENTED_EDGE('',*,*,#118,.T.);
#158=ORIENTED_EDGE('',*,*,#123,.T.);
#159=ORIENTED_EDGE('',*,*,#125,.T.);
#160=ORIENTED_EDGE('',*,*,#125,.F.);
#161=ORIENTED_EDGE('',*,*,#122,.F.);
#162=ORIENTED_EDGE('',*,*,#126,.T.);
#163=ORIENTED_EDGE('',*,*,#127,.F.);
#164=ORIENTED_EDGE('',*,*,#128,.F.);
#165=ORIENTED_EDGE('',*,*,#129,.F.);
#166=ORIENTED_EDGE('',*,*,#130,.T.);
#167=ORIENTED_EDGE('',*,*,#131,.T.);
#168=ORIENTED_EDGE('',*,*,#130,.F.);
#169=ORIENTED_EDGE('',*,*,#131,.F.);
#170=ORIENTED_EDGE('',*,*,#127,.T.);
#171=ORIENTED_EDGE('',*,*,#132,.T.);
#172=ORIENTED_EDGE('',*,*,#133,.T.);
#173=ORIENTED_EDGE('',*,*,#134,.F.);
#174=ORIENTED_EDGE('',*,*,#135,.T.);
#175=ORIENTED_EDGE('',*,*,#136,.T.);
#176=ORIENTED_EDGE('',*,*,#137,.T.);
#177=ORIENTED_EDGE('',*,*,#138,.F.);
#178=ORIENTED_EDGE('',*,*,#133,.F.);
#179=ORIENTED_EDGE('',*,*,#139,.T.);
#180=ORIENTED_EDGE('',*,*,#115,.F.);
#181=ORIENTED_EDGE('',*,*,#119,.F.);
#182=ORIENTED_EDGE('',*,*,#124,.F.);
#183=ORIENTED_EDGE('',*,*,#128,.T.);
#184=ORIENTED_EDGE('',*,*,#135,.F.);
#185=ORIENTED_EDGE('',*,*,#134,.T.);
#186=ORIENTED_EDGE('',*,*,#138,.T.);
#187=ORIENTED_EDGE('',*,*,#137,.F.);
#188=ORIENTED_EDGE('',*,*,#140,.F.);
#189=ORIENTED_EDGE('',*,*,#129,.T.);
#190=ORIENTED_EDGE('',*,*,#121,.F.);
#191=ORIENTED_EDGE('',*,*,#141,.F.);
#192=ORIENTED_EDGE('',*,*,#139,.F.);
#193=ORIENTED_EDGE('',*,*,#132,.F.);
#194=ORIENTED_EDGE('',*,*,#126,.F.);
#195=ORIENTED_EDGE('',*,*,#116,.F.);
#196=ORIENTED_EDGE('',*,*,#140,.T.);
#197=ORIENTED_EDGE('',*,*,#136,.F.);
#198=ORIENTED_EDGE('',*,*,#141,.T.);
#199=ORIENTED_EDGE('',*,*,#120,.F.);
#200=CYLINDRICAL_SURFACE('',#229,3.);
#201=CYLINDRICAL_SURFACE('',#235,3.);
#202=CYLINDRICAL_SURFACE('',#238,3.25);
#203=ADVANCED_FACE('',(#34),#200,.T.);
#204=ADVANCED_FACE('',(#35),#27,.T.);
#205=ADVANCED_FACE('',(#36),#28,.T.);
#206=ADVANCED_FACE('',(#37),#201,.T.);
#207=ADVANCED_FACE('',(#38),#29,.T.);
#208=ADVANCED_FACE('',(#39),#202,.F.);
#209=ADVANCED_FACE('',(#40),#30,.T.);
#210=ADVANCED_FACE('',(#41),#16,.T.);
#211=ADVANCED_FACE('',(#42),#17,.F.);
#212=ADVANCED_FACE('',(#43,#15),#31,.T.);
#213=ADVANCED_FACE('',(#44),#32,.T.);
#214=ADVANCED_FACE('',(#45),#33,.T.);
#215=CLOSED_SHELL('',(#203,#204,#205,#206,#207,#208,#209,#210,#211,#212,
#213,#214));
#216=DERIVED_UNIT_ELEMENT(#218,1.);
#217=DERIVED_UNIT_ELEMENT(#417,-3.);
#218=(
MASS_UNIT()
NAMED_UNIT(*)
SI_UNIT(.KILO.,.GRAM.)
);
#219=DERIVED_UNIT((#216,#217));
#220=MEASURE_REPRESENTATION_ITEM('density measure',
POSITIVE_RATIO_MEASURE(7850.),#219);
#221=PROPERTY_DEFINITION_REPRESENTATION(#226,#223);
#222=PROPERTY_DEFINITION_REPRESENTATION(#227,#224);
#223=REPRESENTATION('material name',(#225),#414);
#224=REPRESENTATION('density',(#220),#414);
#225=DESCRIPTIVE_REPRESENTATION_ITEM('Steel','Steel');
#226=PROPERTY_DEFINITION('material property','material name',#424);
#227=PROPERTY_DEFINITION('material property','density of part',#424);
#228=AXIS2_PLACEMENT_3D('',#293,#245,#246);
#229=AXIS2_PLACEMENT_3D('',#294,#247,#248);
#230=AXIS2_PLACEMENT_3D('',#297,#249,#250);
#231=AXIS2_PLACEMENT_3D('',#301,#252,#253);
#232=AXIS2_PLACEMENT_3D('',#303,#255,#256);
#233=AXIS2_PLACEMENT_3D('',#309,#260,#261);
#234=AXIS2_PLACEMENT_3D('',#316,#265,#266);
#235=AXIS2_PLACEMENT_3D('',#317,#267,#268);
#236=AXIS2_PLACEMENT_3D('',#319,#269,#270);
#237=AXIS2_PLACEMENT_3D('',#321,#272,#273);
#238=AXIS2_PLACEMENT_3D('',#330,#276,#277);
#239=AXIS2_PLACEMENT_3D('',#332,#278,#279);
#240=AXIS2_PLACEMENT_3D('',#335,#281,#282);
#241=AXIS2_PLACEMENT_3D('',#336,#283,#284);
#242=AXIS2_PLACEMENT_3D('',#407,#285,#286);
#243=AXIS2_PLACEMENT_3D('',#409,#288,#289);
#244=AXIS2_PLACEMENT_3D('',#411,#291,#292);
#245=DIRECTION('axis',(0.,0.,1.));
#246=DIRECTION('refdir',(1.,0.,0.));
#247=DIRECTION('center_axis',(-4.96105003940359E-16,-0.997564050259824,
0.0697564737441253));
#248=DIRECTION('ref_axis',(0.707106781186548,-0.049325275616133,-0.705384304606639));
#249=DIRECTION('center_axis',(0.,0.952121872295246,0.305718727422765));
#250=DIRECTION('ref_axis',(1.28852025006074E-15,0.305718727422765,-0.952121872295246));
#251=DIRECTION('',(4.96105003940359E-16,0.997564050259824,-0.0697564737441253));
#252=DIRECTION('center_axis',(2.22044604925031E-16,-0.997564050259824,0.0697564737441253));
#253=DIRECTION('ref_axis',(0.707106781186548,-0.049325275616133,-0.705384304606639));
#254=DIRECTION('',(-4.96105003940359E-16,-0.997564050259824,0.0697564737441253));
#255=DIRECTION('center_axis',(0.,-0.0697564737441253,-0.997564050259824));
#256=DIRECTION('ref_axis',(-1.,0.,0.));
#257=DIRECTION('',(1.,0.,0.));
#258=DIRECTION('',(-4.96105003940359E-16,-0.997564050259824,0.0697564737441253));
#259=DIRECTION('',(1.,2.21503715427357E-16,-1.54890486534777E-17));
#260=DIRECTION('center_axis',(0.,-0.952121872295246,-0.305718727422765));
#261=DIRECTION('ref_axis',(0.,0.305718727422765,-0.952121872295246));
#262=DIRECTION('',(-1.84248772956065E-16,-0.305718727422765,0.952121872295246));
#263=DIRECTION('',(-1.,0.,0.));
#264=DIRECTION('',(1.84248772956065E-16,0.305718727422765,-0.952121872295246));
#265=DIRECTION('center_axis',(0.,0.952121872295246,0.305718727422765));
#266=DIRECTION('ref_axis',(1.80392835008503E-15,0.305718727422765,-0.952121872295246));
#267=DIRECTION('center_axis',(4.96105003940359E-16,0.997564050259824,-0.0697564737441253));
#268=DIRECTION('ref_axis',(-0.707106781186548,-0.049325275616132,-0.705384304606639));
#269=DIRECTION('center_axis',(2.22044604925031E-16,-0.997564050259824,0.0697564737441253));
#270=DIRECTION('ref_axis',(-0.707106781186548,-0.049325275616132,-0.705384304606639));
#271=DIRECTION('',(4.96105003940359E-16,0.997564050259824,-0.0697564737441253));
#272=DIRECTION('center_axis',(-1.,4.9489651708491E-16,-3.46065356816948E-17));
#273=DIRECTION('ref_axis',(4.96105003940359E-16,0.997564050259824,-0.0697564737441253));
#274=DIRECTION('',(0.,0.0697564737441253,0.997564050259824));
#275=DIRECTION('',(0.,0.0697564737441253,0.997564050259824));
#276=DIRECTION('center_axis',(0.,-0.997564050259824,0.0697564737441256));
#277=DIRECTION('ref_axis',(-1.,0.,0.));
#278=DIRECTION('center_axis',(2.22044604925031E-16,-0.997564050259824,0.0697564737441253));
#279=DIRECTION('ref_axis',(-1.,0.,0.));
#280=DIRECTION('',(0.,-0.997564050259824,0.0697564737441256));
#281=DIRECTION('center_axis',(0.,-0.997564050259824,0.0697564737441253));
#282=DIRECTION('ref_axis',(-1.,0.,0.));
#283=DIRECTION('center_axis',(0.,0.997564050259824,-0.0697564737441253));
#284=DIRECTION('ref_axis',(-1.,0.,0.));
#285=DIRECTION('center_axis',(-2.22044604925031E-16,0.997564050259824,-0.0697564737441253));
#286=DIRECTION('ref_axis',(1.,2.21503715427357E-16,-1.54890486534777E-17));
#287=DIRECTION('',(0.,0.0697564737441253,0.997564050259824));
#288=DIRECTION('center_axis',(0.,-0.997564050259824,0.0697564737441253));
#289=DIRECTION('ref_axis',(-1.,0.,0.));
#290=DIRECTION('',(0.,-0.0697564737441253,-0.997564050259824));
#291=DIRECTION('center_axis',(1.,-4.9489651708491E-16,3.46065356816948E-17));
#292=DIRECTION('ref_axis',(-4.96105003940359E-16,-0.997564050259824,0.0697564737441253));
#293=CARTESIAN_POINT('',(0.,0.,0.));
#294=CARTESIAN_POINT('Origin',(1.99999999999995,12.5322184790387,27.1920350614541));
#295=CARTESIAN_POINT('',(4.99999999999995,5.27947294996848,27.6991964341395));
#296=CARTESIAN_POINT('',(1.99999999999995,6.26728038904789,24.6227965148671));
#297=CARTESIAN_POINT('Origin',(1.99999999999995,5.27947294996848,27.6991964341395));
#298=CARTESIAN_POINT('',(1.99999999999995,15.6715906810722,23.9651830776183));
#299=CARTESIAN_POINT('',(1.99999999999995,12.3229490578063,24.1993429106746));
#300=CARTESIAN_POINT('',(4.99999999999995,15.8808601023046,26.9578752283978));
#301=CARTESIAN_POINT('Origin',(1.99999999999995,15.8808601023045,26.9578752283978));
#302=CARTESIAN_POINT('',(4.99999999999995,12.5322184790387,27.1920350614541));
#303=CARTESIAN_POINT('Origin',(-5.21804821573824E-14,8.97430743454039,24.4335027437309));
#304=CARTESIAN_POINT('',(-2.00000000000005,6.26728038904789,24.6227965148671));
#305=CARTESIAN_POINT('',(2.49999999999995,6.26728038904789,24.6227965148671));
#306=CARTESIAN_POINT('',(-2.00000000000005,15.6715906810722,23.9651830776183));
#307=CARTESIAN_POINT('',(-2.00000000000005,5.62566581127449,24.6676625767873));
#308=CARTESIAN_POINT('',(4.99999999999995,15.6715906810722,23.9651830776183));
#309=CARTESIAN_POINT('Origin',(2.49999999999995,4.62093465724887,29.7501297136545));
#310=CARTESIAN_POINT('',(4.99999999999994,2.97458892544985,34.8774629124418));
#311=CARTESIAN_POINT('',(4.99999999999995,4.56003545772869,29.9397924809872));
#312=CARTESIAN_POINT('',(-5.00000000000006,2.97458892544985,34.8774629124418));
#313=CARTESIAN_POINT('',(2.49999999999995,2.97458892544985,34.8774629124418));
#314=CARTESIAN_POINT('',(-5.00000000000005,5.27947294996848,27.6991964341395));
#315=CARTESIAN_POINT('',(-5.00000000000005,3.79776179134936,32.3137963130482));
#316=CARTESIAN_POINT('Origin',(-2.00000000000005,5.27947294996848,27.6991964341395));
#317=CARTESIAN_POINT('Origin',(-2.00000000000005,5.83493523250687,27.6603547275667));
#318=CARTESIAN_POINT('',(-5.00000000000005,15.8808601023046,26.9578752283978));
#319=CARTESIAN_POINT('Origin',(-2.00000000000005,15.8808601023045,26.9578752283978));
#320=CARTESIAN_POINT('',(-5.00000000000005,5.83493523250687,27.6603547275667));
#321=CARTESIAN_POINT('Origin',(-5.00000000000006,2.97458892544985,34.8774629124418));
#322=CARTESIAN_POINT('',(-5.00000000000006,2.99999999999998,35.2408582088077));
#323=CARTESIAN_POINT('',(-5.00000000000006,2.97458892544985,34.8774629124418));
#324=CARTESIAN_POINT('',(-5.00000000000005,16.3913338371179,34.2579897427803));
#325=CARTESIAN_POINT('Ctrl Pts',(-5.00000000000005,16.3913338371179,34.2579897427803));
#326=CARTESIAN_POINT('Ctrl Pts',(-5.00000000000005,11.9277316186373,34.5986881822764));
#327=CARTESIAN_POINT('Ctrl Pts',(-5.00000000000005,7.46516494454386,34.9286370607507));
#328=CARTESIAN_POINT('Ctrl Pts',(-5.00000000000006,2.99999999999999,35.2408582088077));
#329=CARTESIAN_POINT('',(-5.00000000000005,16.3691554185134,33.9408235802165));
#330=CARTESIAN_POINT('Origin',(8.88178419700126E-15,15.9854948129207,28.4542213037875));
#331=CARTESIAN_POINT('',(3.25000000000001,15.9854948129207,28.4542213037875));
#332=CARTESIAN_POINT('Origin',(8.88178419700126E-15,15.9854948129207,28.4542213037875));
#333=CARTESIAN_POINT('',(3.25000000000001,10.4988925364917,28.8378819093802));
#334=CARTESIAN_POINT('',(3.25000000000001,15.9854948129207,28.4542213037875));
#335=CARTESIAN_POINT('Origin',(8.88178419700126E-15,10.4988925364917,28.8378819093802));
#336=CARTESIAN_POINT('Origin',(8.88178419700125E-15,10.4988925364917,28.8378819093802));
#337=CARTESIAN_POINT('Ctrl Pts',(-5.07696194851385,2.99999627902037,35.2408584689926));
#338=CARTESIAN_POINT('Ctrl Pts',(-5.05728853814107,7.47071803637607,34.9282487776221));
#339=CARTESIAN_POINT('Ctrl Pts',(-5.03194241072225,11.9353396382238,34.5981074763188));
#340=CARTESIAN_POINT('Ctrl Pts',(-5.00000000000005,16.3913338371179,34.2579897427803));
#341=CARTESIAN_POINT('Ctrl Pts',(-3.38464129900922,2.99999627902037,35.2408584689926));
#342=CARTESIAN_POINT('Ctrl Pts',(-3.37152569209403,7.47071803637607,34.9282487776221));
#343=CARTESIAN_POINT('Ctrl Pts',(-3.35462827381482,11.9353396382237,34.5981074763188));
#344=CARTESIAN_POINT('Ctrl Pts',(-3.33333333333335,16.3913338371179,34.2579897427803));
#345=CARTESIAN_POINT('Ctrl Pts',(-1.69232064950458,2.99999627902037,35.2408584689926));
#346=CARTESIAN_POINT('Ctrl Pts',(-1.68576284604699,7.47071803637607,34.9282487776221));
#347=CARTESIAN_POINT('Ctrl Pts',(-1.67731413690738,11.9353396382238,34.5981074763188));
#348=CARTESIAN_POINT('Ctrl Pts',(-1.66666666666665,16.3913338371179,34.2579897427803));
#349=CARTESIAN_POINT('Ctrl Pts',(4.90981664712708E-14,2.99999627902037,
35.2408584689926));
#350=CARTESIAN_POINT('Ctrl Pts',(5.1499742228477E-14,7.47071803637607,34.9282487776221));
#351=CARTESIAN_POINT('Ctrl Pts',(5.36783185444357E-14,11.9353396382238,
34.5981074763188));
#352=CARTESIAN_POINT('Ctrl Pts',(5.55384711377355E-14,16.3913338371179,
34.2579897427803));
#353=CARTESIAN_POINT('',(4.57923025128992E-14,2.99999999999999,35.2408582088077));
#354=CARTESIAN_POINT('Ctrl Pts',(-5.00000000000006,2.99999999999998,35.2408582088077));
#355=CARTESIAN_POINT('Ctrl Pts',(-3.33333333333335,2.99999999999998,35.2408582088077));
#356=CARTESIAN_POINT('Ctrl Pts',(-1.66666666666665,2.99999999999998,35.2408582088077));
#357=CARTESIAN_POINT('Ctrl Pts',(4.90981684701012E-14,2.99999999999998,
35.2408582088077));
#358=CARTESIAN_POINT('',(5.17946384379181E-14,16.3913338371178,34.2579897427803));
#359=CARTESIAN_POINT('Ctrl Pts',(4.57923025128992E-14,2.99999999999998,
35.2408582088077));
#360=CARTESIAN_POINT('Ctrl Pts',(4.80388015060867E-14,7.47072051364435,
34.9282485944378));
#361=CARTESIAN_POINT('Ctrl Pts',(5.0070448316219E-14,11.9353408744644,34.5981073819589));
#362=CARTESIAN_POINT('Ctrl Pts',(5.17946384379181E-14,16.3913338371178,
34.2579897427803));
#363=CARTESIAN_POINT('',(-2.1,16.3913338371179,34.2579897427803));
#364=CARTESIAN_POINT('Ctrl Pts',(-2.1,16.3913338371179,34.2579897427803));
#365=CARTESIAN_POINT('Ctrl Pts',(-1.39999999999998,16.3913338371179,34.2579897427803));
#366=CARTESIAN_POINT('Ctrl Pts',(-0.699999999999963,16.3913338371179,34.2579897427803));
#367=CARTESIAN_POINT('Ctrl Pts',(5.55384711377355E-14,16.3913338371179,
34.2579897427803));
#368=CARTESIAN_POINT('Ctrl Pts',(-2.1,16.3913338371179,34.2579897427803));
#369=CARTESIAN_POINT('Ctrl Pts',(-3.06666666666668,16.3913338371179,34.2579897427803));
#370=CARTESIAN_POINT('Ctrl Pts',(-4.03333333333337,16.3913338371179,34.2579897427803));
#371=CARTESIAN_POINT('Ctrl Pts',(-5.00000000000005,16.3913338371179,34.2579897427803));
#372=CARTESIAN_POINT('Ctrl Pts',(5.07696194773151,2.9999964567821,35.2408584565628));
#373=CARTESIAN_POINT('Ctrl Pts',(5.05728853746911,7.47071815472218,34.9282487688709));
#374=CARTESIAN_POINT('Ctrl Pts',(5.0319424102988,11.9353396972825,34.598107471811));
#375=CARTESIAN_POINT('Ctrl Pts',(4.99999999999996,16.3913338371179,34.2579897427803));
#376=CARTESIAN_POINT('Ctrl Pts',(3.38464129848766,2.9999964567821,35.2408584565628));
#377=CARTESIAN_POINT('Ctrl Pts',(3.37152569164606,7.47071815472217,34.9282487688709));
#378=CARTESIAN_POINT('Ctrl Pts',(3.35462827353252,11.9353396972825,34.598107471811));
#379=CARTESIAN_POINT('Ctrl Pts',(3.33333333333329,16.3913338371179,34.2579897427803));
#380=CARTESIAN_POINT('Ctrl Pts',(1.6923206492438,2.9999964567821,35.2408584565628));
#381=CARTESIAN_POINT('Ctrl Pts',(1.685762845823,7.47071815472219,34.9282487688709));
#382=CARTESIAN_POINT('Ctrl Pts',(1.67731413676623,11.9353396972825,34.598107471811));
#383=CARTESIAN_POINT('Ctrl Pts',(1.66666666666661,16.3913338371179,34.2579897427803));
#384=CARTESIAN_POINT('Ctrl Pts',(-4.90981665667606E-14,2.9999964567821,
35.2408584565628));
#385=CARTESIAN_POINT('Ctrl Pts',(-5.14997422862257E-14,7.47071815472218,
34.9282487688709));
#386=CARTESIAN_POINT('Ctrl Pts',(-5.36783185690897E-14,11.9353396972825,
34.598107471811));
#387=CARTESIAN_POINT('Ctrl Pts',(-5.55384711377355E-14,16.3913338371179,
34.2579897427803));
#388=CARTESIAN_POINT('',(4.99999999999994,2.99999999999998,35.2408582088077));
#389=CARTESIAN_POINT('',(4.99999999999995,16.3913338371179,34.2579897427803));
#390=CARTESIAN_POINT('Ctrl Pts',(4.99999999999994,2.99999999999998,35.2408582088077));
#391=CARTESIAN_POINT('Ctrl Pts',(4.99999999999995,7.46516488528647,34.9286370648942));
#392=CARTESIAN_POINT('Ctrl Pts',(4.99999999999995,11.9277316778946,34.5986881777534));
#393=CARTESIAN_POINT('Ctrl Pts',(4.99999999999995,16.3913338371179,34.2579897427803));
#394=CARTESIAN_POINT('',(2.1,16.3913338371179,34.2579897427803));
#395=CARTESIAN_POINT('Ctrl Pts',(4.99999999999995,16.3913338371179,34.2579897427803));
#396=CARTESIAN_POINT('Ctrl Pts',(4.0333333333333,16.3913338371179,34.2579897427803));
#397=CARTESIAN_POINT('Ctrl Pts',(3.06666666666665,16.3913338371179,34.2579897427803));
#398=CARTESIAN_POINT('Ctrl Pts',(2.1,16.3913338371179,34.2579897427803));
#399=CARTESIAN_POINT('Ctrl Pts',(-5.55384711377355E-14,16.3913338371179,
34.2579897427803));
#400=CARTESIAN_POINT('Ctrl Pts',(0.699999999999963,16.3913338371179,34.2579897427803));
#401=CARTESIAN_POINT('Ctrl Pts',(1.39999999999998,16.3913338371179,34.2579897427803));
#402=CARTESIAN_POINT('Ctrl Pts',(2.1,16.3913338371179,34.2579897427803));
#403=CARTESIAN_POINT('Ctrl Pts',(-4.90981684701012E-14,2.99999999999998,
35.2408582088077));
#404=CARTESIAN_POINT('Ctrl Pts',(1.66666666666662,2.99999999999998,35.2408582088077));
#405=CARTESIAN_POINT('Ctrl Pts',(3.33333333333328,2.99999999999998,35.2408582088077));
#406=CARTESIAN_POINT('Ctrl Pts',(4.99999999999994,2.99999999999998,35.2408582088077));
#407=CARTESIAN_POINT('Origin',(-5.00000000000005,16.3691554185134,33.9408235802165));
#408=CARTESIAN_POINT('',(4.99999999999995,16.3691554185134,33.9408235802165));
#409=CARTESIAN_POINT('Origin',(4.99999999999994,2.97458892544985,34.8774629124418));
#410=CARTESIAN_POINT('',(4.99999999999994,2.97458892544985,34.8774629124418));
#411=CARTESIAN_POINT('Origin',(4.99999999999995,16.3691554185134,33.9408235802165));
#412=UNCERTAINTY_MEASURE_WITH_UNIT(LENGTH_MEASURE(0.01),#416,
'DISTANCE_ACCURACY_VALUE',
'Maximum model space distance between geometric entities at asserted c
onnectivities');
#413=UNCERTAINTY_MEASURE_WITH_UNIT(LENGTH_MEASURE(0.01),#416,
'DISTANCE_ACCURACY_VALUE',
'Maximum model space distance between geometric entities at asserted c
onnectivities');
#414=(
GEOMETRIC_REPRESENTATION_CONTEXT(3)
GLOBAL_UNCERTAINTY_ASSIGNED_CONTEXT((#412))
GLOBAL_UNIT_ASSIGNED_CONTEXT((#416,#418,#419))
REPRESENTATION_CONTEXT('','3D')
);
#415=(
GEOMETRIC_REPRESENTATION_CONTEXT(3)
GLOBAL_UNCERTAINTY_ASSIGNED_CONTEXT((#413))
GLOBAL_UNIT_ASSIGNED_CONTEXT((#416,#418,#419))
REPRESENTATION_CONTEXT('','3D')
);
#416=(
LENGTH_UNIT()
NAMED_UNIT(*)
SI_UNIT(.MILLI.,.METRE.)
);
#417=(
LENGTH_UNIT()
NAMED_UNIT(*)
SI_UNIT($,.METRE.)
);
#418=(
NAMED_UNIT(*)
PLANE_ANGLE_UNIT()
SI_UNIT($,.RADIAN.)
);
#419=(
NAMED_UNIT(*)
SI_UNIT($,.STERADIAN.)
SOLID_ANGLE_UNIT()
);
#420=SHAPE_DEFINITION_REPRESENTATION(#421,#422);
#421=PRODUCT_DEFINITION_SHAPE('',$,#424);
#422=SHAPE_REPRESENTATION('',(#228),#414);
#423=PRODUCT_DEFINITION_CONTEXT('part definition',#428,'design');
#424=PRODUCT_DEFINITION('spring mount','spring mount',#425,#423);
#425=PRODUCT_DEFINITION_FORMATION('',$,#430);
#426=PRODUCT_RELATED_PRODUCT_CATEGORY('spring mount','spring mount',(#430));
#427=APPLICATION_PROTOCOL_DEFINITION('international standard',
'automotive_design',2009,#428);
#428=APPLICATION_CONTEXT(
'Core Data for Automotive Mechanical Design Process');
#429=PRODUCT_CONTEXT('part definition',#428,'mechanical');
#430=PRODUCT('spring mount','spring mount',$,(#429));
#431=PRESENTATION_STYLE_ASSIGNMENT((#433));
#432=PRESENTATION_STYLE_ASSIGNMENT((#434));
#433=SURFACE_STYLE_USAGE(.BOTH.,#435);
#434=SURFACE_STYLE_USAGE(.BOTH.,#436);
#435=SURFACE_SIDE_STYLE('',(#437));
#436=SURFACE_SIDE_STYLE('',(#438));
#437=SURFACE_STYLE_FILL_AREA(#439);
#438=SURFACE_STYLE_FILL_AREA(#440);
#439=FILL_AREA_STYLE('Steel - Satin',(#441));
#440=FILL_AREA_STYLE('PLA (White)',(#442));
#441=FILL_AREA_STYLE_COLOUR('Steel - Satin',#443);
#442=FILL_AREA_STYLE_COLOUR('PLA (White)',#444);
#443=COLOUR_RGB('Steel - Satin',0.627450980392157,0.627450980392157,0.627450980392157);
#444=COLOUR_RGB('PLA (White)',0.964705882352941,0.964705882352941,0.952941176470588);
ENDSEC;
END-ISO-10303-21;
