ISO-10303-21;
HEADER;
/* Generated by software containing ST-Developer
 * from STEP Tools, Inc. (www.steptools.com) 
 */

FILE_DESCRIPTION(
/* description */ (''),
/* implementation_level */ '2;1');

FILE_NAME(
/* name */ 'Ruddervator1 Left.step',
/* time_stamp */ '2026-07-02T23:28:43-07:00',
/* author */ (''),
/* organization */ (''),
/* preprocessor_version */ 'ST-DEVELOPER v20.1',
/* originating_system */ 'Autodesk Translation Framework v15.8.0.0',
/* authorisation */ '');

FILE_SCHEMA (('AUTOMOTIVE_DESIGN { 1 0 10303 214 3 1 1 }'));
ENDSEC;

DATA;
#10=MECHANICAL_DESIGN_GEOMETRIC_PRESENTATION_REPRESENTATION('',(#13),#601);
#11=SHAPE_REPRESENTATION_RELATIONSHIP('SRR','None',#608,#12);
#12=ADVANCED_BREP_SHAPE_REPRESENTATION('',(#14),#600);
#13=STYLED_ITEM('',(#618),#14);
#14=MANIFOLD_SOLID_BREP('l_flap1',#257);
#15=B_SPLINE_SURFACE_WITH_KNOTS('',3,3,((#469,#470,#471,#472),(#473,#474,
#475,#476),(#477,#478,#479,#480),(#481,#482,#483,#484),(#485,#486,#487,
#488),(#489,#490,#491,#492),(#493,#494,#495,#496),(#497,#498,#499,#500),
(#501,#502,#503,#504)),.UNSPECIFIED.,.F.,.F.,.F.,(4,1,1,1,1,1,4),(4,4),
(0.,0.0829636702731036,0.124445505409655,0.165927340546207,0.207409175682759,
0.248891010819311,0.290372845955863),(0.0784615384596995,0.207692307692309),
 .UNSPECIFIED.);
#16=B_SPLINE_SURFACE_WITH_KNOTS('',3,3,((#562,#563,#564,#565),(#566,#567,
#568,#569),(#570,#571,#572,#573),(#574,#575,#576,#577),(#578,#579,#580,
#581),(#582,#583,#584,#585),(#586,#587,#588,#589),(#590,#591,#592,#593),
(#594,#595,#596,#597)),.UNSPECIFIED.,.F.,.F.,.F.,(4,1,1,1,1,1,4),(4,4),
(0.709627154045456,0.75110898918182,0.792590824318183,0.834072659454546,
0.87555449459091,0.917036329727273,1.),(0.0784615384612116,0.207692307692312),
 .UNSPECIFIED.);
#17=CYLINDRICAL_SURFACE('',#275,1.00000000000001);
#18=CYLINDRICAL_SURFACE('',#277,2.5);
#19=CYLINDRICAL_SURFACE('',#284,2.);
#20=CYLINDRICAL_SURFACE('',#287,2.5);
#21=CYLINDRICAL_SURFACE('',#289,2.5);
#22=(
BOUNDED_SURFACE()
B_SPLINE_SURFACE(2,1,((#382,#383),(#384,#385),(#386,#387)),
 .UNSPECIFIED.,.F.,.F.,.F.)
B_SPLINE_SURFACE_WITH_KNOTS((3,3),(2,2),(0.,0.780410367381816),(0.,0.05),
 .UNSPECIFIED.)
GEOMETRIC_REPRESENTATION_ITEM()
RATIONAL_B_SPLINE_SURFACE(((1.,1.),(3.,3.),(1.,1.)))
REPRESENTATION_ITEM('')
SURFACE()
);
#23=FACE_BOUND('',#53,.T.);
#24=FACE_BOUND('',#58,.T.);
#25=CIRCLE('',#273,2.5);
#26=CIRCLE('',#274,1.00000000000001);
#27=CIRCLE('',#276,1.00000000000001);
#28=CIRCLE('',#278,2.5);
#29=CIRCLE('',#280,2.5);
#30=CIRCLE('',#281,2.);
#31=CIRCLE('',#282,2.5);
#32=CIRCLE('',#285,2.);
#33=CIRCLE('',#288,2.5);
#34=CIRCLE('',#290,2.5);
#35=(
BOUNDED_CURVE()
B_SPLINE_CURVE(2,(#376,#377,#378),.UNSPECIFIED.,.F.,.F.)
B_SPLINE_CURVE_WITH_KNOTS((3,3),(2.6050585582843E-5,0.780410367381816),
 .UNSPECIFIED.)
CURVE()
GEOMETRIC_REPRESENTATION_ITEM()
RATIONAL_B_SPLINE_CURVE((1.00013351804172,2.99993323875061,1.))
REPRESENTATION_ITEM('')
);
#36=(
BOUNDED_CURVE()
B_SPLINE_CURVE(2,(#396,#397,#398),.UNSPECIFIED.,.F.,.F.)
B_SPLINE_CURVE_WITH_KNOTS((3,3),(0.,0.780410367381816),.UNSPECIFIED.)
CURVE()
GEOMETRIC_REPRESENTATION_ITEM()
RATIONAL_B_SPLINE_CURVE((1.,3.,1.))
REPRESENTATION_ITEM('')
);
#37=FACE_OUTER_BOUND('',#51,.T.);
#38=FACE_OUTER_BOUND('',#52,.T.);
#39=FACE_OUTER_BOUND('',#54,.T.);
#40=FACE_OUTER_BOUND('',#55,.T.);
#41=FACE_OUTER_BOUND('',#56,.T.);
#42=FACE_OUTER_BOUND('',#57,.T.);
#43=FACE_OUTER_BOUND('',#59,.T.);
#44=FACE_OUTER_BOUND('',#60,.T.);
#45=FACE_OUTER_BOUND('',#61,.T.);
#46=FACE_OUTER_BOUND('',#62,.T.);
#47=FACE_OUTER_BOUND('',#63,.T.);
#48=FACE_OUTER_BOUND('',#64,.T.);
#49=FACE_OUTER_BOUND('',#65,.T.);
#50=FACE_OUTER_BOUND('',#66,.T.);
#51=EDGE_LOOP('',(#165,#166,#167,#168));
#52=EDGE_LOOP('',(#169,#170,#171,#172));
#53=EDGE_LOOP('',(#173));
#54=EDGE_LOOP('',(#174,#175,#176,#177));
#55=EDGE_LOOP('',(#178,#179,#180,#181));
#56=EDGE_LOOP('',(#182,#183,#184,#185));
#57=EDGE_LOOP('',(#186,#187,#188,#189,#190,#191,#192,#193,#194,#195,#196));
#58=EDGE_LOOP('',(#197));
#59=EDGE_LOOP('',(#198,#199,#200,#201));
#60=EDGE_LOOP('',(#202,#203,#204,#205));
#61=EDGE_LOOP('',(#206,#207,#208,#209));
#62=EDGE_LOOP('',(#210,#211,#212,#213));
#63=EDGE_LOOP('',(#214,#215,#216,#217));
#64=EDGE_LOOP('',(#218,#219,#220,#221));
#65=EDGE_LOOP('',(#222,#223,#224,#225,#226,#227,#228));
#66=EDGE_LOOP('',(#229,#230,#231,#232,#233,#234,#235,#236));
#67=LINE('',#359,#81);
#68=LINE('',#361,#82);
#69=LINE('',#362,#83);
#70=LINE('',#399,#84);
#71=LINE('',#402,#85);
#72=LINE('',#418,#86);
#73=LINE('',#422,#87);
#74=LINE('',#457,#88);
#75=LINE('',#459,#89);
#76=LINE('',#460,#90);
#77=LINE('',#463,#91);
#78=LINE('',#467,#92);
#79=LINE('',#468,#93);
#80=LINE('',#532,#94);
#81=VECTOR('',#296,10.);
#82=VECTOR('',#297,10.);
#83=VECTOR('',#298,10.);
#84=VECTOR('',#305,10.);
#85=VECTOR('',#308,1.00000000000001);
#86=VECTOR('',#319,10.);
#87=VECTOR('',#322,10.);
#88=VECTOR('',#327,10.);
#89=VECTOR('',#328,10.);
#90=VECTOR('',#329,10.);
#91=VECTOR('',#332,10.);
#92=VECTOR('',#337,10.);
#93=VECTOR('',#338,10.);
#94=VECTOR('',#339,130.);
#95=B_SPLINE_CURVE_WITH_KNOTS('',3,(#354,#355,#356,#357),.UNSPECIFIED.,
 .F.,.F.,(4,4),(-0.0499991362414897,0.),.UNSPECIFIED.);
#96=B_SPLINE_CURVE_WITH_KNOTS('',3,(#365,#366,#367,#368,#369,#370,#371,
#372,#373,#374),.UNSPECIFIED.,.F.,.F.,(4,3,3,4),(-0.917455798683479,-0.674358265498767,
-0.382019151326252,-0.0985744412883858),.UNSPECIFIED.);
#97=B_SPLINE_CURVE_WITH_KNOTS('',3,(#389,#390,#391,#392,#393,#394),
 .UNSPECIFIED.,.F.,.F.,(4,2,4),(0.,0.0250226691924837,0.0500681244722363),
 .UNSPECIFIED.);
#98=B_SPLINE_CURVE_WITH_KNOTS('',3,(#408,#409,#410,#411,#412,#413,#414),
 .UNSPECIFIED.,.F.,.F.,(4,3,4),(-1.80191054807234,-1.38827513776443,-1.32134456640453),
 .UNSPECIFIED.);
#99=B_SPLINE_CURVE_WITH_KNOTS('',3,(#426,#427,#428,#429,#430,#431,#432,
#433,#434,#435,#436,#437,#438,#439,#440,#441,#442,#443,#444),
 .UNSPECIFIED.,.F.,.F.,(4,3,3,3,3,3,4),(-1.26371236890756,-1.04598595103277,
-0.937122742095379,-0.828259533157985,-0.719396324220591,-0.610533115283197,
-0.501669906374592),.UNSPECIFIED.);
#100=B_SPLINE_CURVE_WITH_KNOTS('',3,(#445,#446,#447,#448,#449,#450,#451,
#452,#453,#454),.UNSPECIFIED.,.F.,.F.,(4,3,3,4),(-0.525936574007287,-0.520029393782952,
-0.346686262521967,0.),.UNSPECIFIED.);
#101=B_SPLINE_CURVE_WITH_KNOTS('',3,(#506,#507,#508,#509,#510,#511),
 .UNSPECIFIED.,.F.,.F.,(4,2,4),(-1.97779390303847,-0.348709042535149,-0.254879363644554),
 .UNSPECIFIED.);
#102=B_SPLINE_CURVE_WITH_KNOTS('',3,(#513,#514,#515,#516,#517,#518,#519,
#520,#521,#522,#523,#524,#525,#526,#527,#528,#529,#530,#531),
 .UNSPECIFIED.,.F.,.F.,(4,3,3,3,3,3,4),(-0.48390771863168,-0.431700689587782,
-0.359750574656485,-0.287800459725188,-0.215850344793891,-0.143900229862594,
0.),.UNSPECIFIED.);
#103=B_SPLINE_CURVE_WITH_KNOTS('',3,(#537,#538,#539,#540),.UNSPECIFIED.,
 .F.,.F.,(4,4),(-11.3730073858493,-9.43861280770044),.UNSPECIFIED.);
#104=B_SPLINE_CURVE_WITH_KNOTS('',3,(#543,#544,#545,#546,#547,#548,#549,
#550,#551,#552,#553,#554,#555,#556,#557,#558,#559,#560,#561),
 .UNSPECIFIED.,.F.,.F.,(4,3,3,3,3,3,4),(-3.84337042036467,-2.81887328716889,
-2.306624720571,-1.79437615397311,-1.28212758737522,-0.769879020777331,
-0.398191278225295),.UNSPECIFIED.);
#105=VERTEX_POINT('',#352);
#106=VERTEX_POINT('',#353);
#107=VERTEX_POINT('',#358);
#108=VERTEX_POINT('',#360);
#109=VERTEX_POINT('',#364);
#110=VERTEX_POINT('',#375);
#111=VERTEX_POINT('',#380);
#112=VERTEX_POINT('',#388);
#113=VERTEX_POINT('',#395);
#114=VERTEX_POINT('',#401);
#115=VERTEX_POINT('',#407);
#116=VERTEX_POINT('',#415);
#117=VERTEX_POINT('',#417);
#118=VERTEX_POINT('',#419);
#119=VERTEX_POINT('',#421);
#120=VERTEX_POINT('',#423);
#121=VERTEX_POINT('',#425);
#122=VERTEX_POINT('',#456);
#123=VERTEX_POINT('',#458);
#124=VERTEX_POINT('',#462);
#125=VERTEX_POINT('',#466);
#126=VERTEX_POINT('',#505);
#127=VERTEX_POINT('',#512);
#128=VERTEX_POINT('',#536);
#129=EDGE_CURVE('',#105,#106,#95,.T.);
#130=EDGE_CURVE('',#107,#105,#67,.T.);
#131=EDGE_CURVE('',#108,#107,#68,.T.);
#132=EDGE_CURVE('',#108,#106,#69,.T.);
#133=EDGE_CURVE('',#109,#105,#96,.T.);
#134=EDGE_CURVE('',#109,#110,#35,.T.);
#135=EDGE_CURVE('',#110,#107,#25,.T.);
#136=EDGE_CURVE('',#111,#111,#26,.T.);
#137=EDGE_CURVE('',#112,#109,#97,.T.);
#138=EDGE_CURVE('',#112,#113,#36,.T.);
#139=EDGE_CURVE('',#113,#110,#70,.T.);
#140=EDGE_CURVE('',#111,#114,#71,.T.);
#141=EDGE_CURVE('',#114,#114,#27,.T.);
#142=EDGE_CURVE('',#108,#113,#28,.T.);
#143=EDGE_CURVE('',#115,#112,#98,.T.);
#144=EDGE_CURVE('',#116,#115,#29,.T.);
#145=EDGE_CURVE('',#117,#116,#72,.T.);
#146=EDGE_CURVE('',#118,#117,#30,.T.);
#147=EDGE_CURVE('',#119,#118,#73,.T.);
#148=EDGE_CURVE('',#120,#119,#31,.T.);
#149=EDGE_CURVE('',#121,#120,#99,.T.);
#150=EDGE_CURVE('',#106,#121,#100,.T.);
#151=EDGE_CURVE('',#122,#118,#74,.T.);
#152=EDGE_CURVE('',#122,#123,#75,.T.);
#153=EDGE_CURVE('',#123,#119,#76,.T.);
#154=EDGE_CURVE('',#124,#117,#77,.T.);
#155=EDGE_CURVE('',#124,#122,#32,.T.);
#156=EDGE_CURVE('',#125,#116,#78,.T.);
#157=EDGE_CURVE('',#125,#124,#79,.T.);
#158=EDGE_CURVE('',#120,#126,#101,.T.);
#159=EDGE_CURVE('',#126,#127,#102,.T.);
#160=EDGE_CURVE('',#127,#121,#80,.T.);
#161=EDGE_CURVE('',#123,#126,#33,.T.);
#162=EDGE_CURVE('',#128,#115,#103,.T.);
#163=EDGE_CURVE('',#128,#125,#34,.T.);
#164=EDGE_CURVE('',#127,#128,#104,.T.);
#165=ORIENTED_EDGE('',*,*,#129,.F.);
#166=ORIENTED_EDGE('',*,*,#130,.F.);
#167=ORIENTED_EDGE('',*,*,#131,.F.);
#168=ORIENTED_EDGE('',*,*,#132,.T.);
#169=ORIENTED_EDGE('',*,*,#133,.F.);
#170=ORIENTED_EDGE('',*,*,#134,.T.);
#171=ORIENTED_EDGE('',*,*,#135,.T.);
#172=ORIENTED_EDGE('',*,*,#130,.T.);
#173=ORIENTED_EDGE('',*,*,#136,.T.);
#174=ORIENTED_EDGE('',*,*,#137,.F.);
#175=ORIENTED_EDGE('',*,*,#138,.T.);
#176=ORIENTED_EDGE('',*,*,#139,.T.);
#177=ORIENTED_EDGE('',*,*,#134,.F.);
#178=ORIENTED_EDGE('',*,*,#136,.F.);
#179=ORIENTED_EDGE('',*,*,#140,.T.);
#180=ORIENTED_EDGE('',*,*,#141,.F.);
#181=ORIENTED_EDGE('',*,*,#140,.F.);
#182=ORIENTED_EDGE('',*,*,#142,.F.);
#183=ORIENTED_EDGE('',*,*,#131,.T.);
#184=ORIENTED_EDGE('',*,*,#135,.F.);
#185=ORIENTED_EDGE('',*,*,#139,.F.);
#186=ORIENTED_EDGE('',*,*,#143,.F.);
#187=ORIENTED_EDGE('',*,*,#144,.F.);
#188=ORIENTED_EDGE('',*,*,#145,.F.);
#189=ORIENTED_EDGE('',*,*,#146,.F.);
#190=ORIENTED_EDGE('',*,*,#147,.F.);
#191=ORIENTED_EDGE('',*,*,#148,.F.);
#192=ORIENTED_EDGE('',*,*,#149,.F.);
#193=ORIENTED_EDGE('',*,*,#150,.F.);
#194=ORIENTED_EDGE('',*,*,#132,.F.);
#195=ORIENTED_EDGE('',*,*,#142,.T.);
#196=ORIENTED_EDGE('',*,*,#138,.F.);
#197=ORIENTED_EDGE('',*,*,#141,.T.);
#198=ORIENTED_EDGE('',*,*,#147,.T.);
#199=ORIENTED_EDGE('',*,*,#151,.F.);
#200=ORIENTED_EDGE('',*,*,#152,.T.);
#201=ORIENTED_EDGE('',*,*,#153,.T.);
#202=ORIENTED_EDGE('',*,*,#146,.T.);
#203=ORIENTED_EDGE('',*,*,#154,.F.);
#204=ORIENTED_EDGE('',*,*,#155,.T.);
#205=ORIENTED_EDGE('',*,*,#151,.T.);
#206=ORIENTED_EDGE('',*,*,#145,.T.);
#207=ORIENTED_EDGE('',*,*,#156,.F.);
#208=ORIENTED_EDGE('',*,*,#157,.T.);
#209=ORIENTED_EDGE('',*,*,#154,.T.);
#210=ORIENTED_EDGE('',*,*,#149,.T.);
#211=ORIENTED_EDGE('',*,*,#158,.T.);
#212=ORIENTED_EDGE('',*,*,#159,.T.);
#213=ORIENTED_EDGE('',*,*,#160,.T.);
#214=ORIENTED_EDGE('',*,*,#148,.T.);
#215=ORIENTED_EDGE('',*,*,#153,.F.);
#216=ORIENTED_EDGE('',*,*,#161,.T.);
#217=ORIENTED_EDGE('',*,*,#158,.F.);
#218=ORIENTED_EDGE('',*,*,#144,.T.);
#219=ORIENTED_EDGE('',*,*,#162,.F.);
#220=ORIENTED_EDGE('',*,*,#163,.T.);
#221=ORIENTED_EDGE('',*,*,#156,.T.);
#222=ORIENTED_EDGE('',*,*,#164,.F.);
#223=ORIENTED_EDGE('',*,*,#159,.F.);
#224=ORIENTED_EDGE('',*,*,#161,.F.);
#225=ORIENTED_EDGE('',*,*,#152,.F.);
#226=ORIENTED_EDGE('',*,*,#155,.F.);
#227=ORIENTED_EDGE('',*,*,#157,.F.);
#228=ORIENTED_EDGE('',*,*,#163,.F.);
#229=ORIENTED_EDGE('',*,*,#129,.T.);
#230=ORIENTED_EDGE('',*,*,#150,.T.);
#231=ORIENTED_EDGE('',*,*,#160,.F.);
#232=ORIENTED_EDGE('',*,*,#164,.T.);
#233=ORIENTED_EDGE('',*,*,#162,.T.);
#234=ORIENTED_EDGE('',*,*,#143,.T.);
#235=ORIENTED_EDGE('',*,*,#137,.T.);
#236=ORIENTED_EDGE('',*,*,#133,.T.);
#237=PLANE('',#271);
#238=PLANE('',#272);
#239=PLANE('',#279);
#240=PLANE('',#283);
#241=PLANE('',#286);
#242=PLANE('',#291);
#243=ADVANCED_FACE('',(#37),#237,.T.);
#244=ADVANCED_FACE('',(#38,#23),#238,.F.);
#245=ADVANCED_FACE('',(#39),#22,.T.);
#246=ADVANCED_FACE('',(#40),#17,.F.);
#247=ADVANCED_FACE('',(#41),#18,.T.);
#248=ADVANCED_FACE('',(#42,#24),#239,.F.);
#249=ADVANCED_FACE('',(#43),#240,.F.);
#250=ADVANCED_FACE('',(#44),#19,.T.);
#251=ADVANCED_FACE('',(#45),#241,.F.);
#252=ADVANCED_FACE('',(#46),#15,.F.);
#253=ADVANCED_FACE('',(#47),#20,.F.);
#254=ADVANCED_FACE('',(#48),#21,.F.);
#255=ADVANCED_FACE('',(#49),#242,.F.);
#256=ADVANCED_FACE('',(#50),#16,.F.);
#257=CLOSED_SHELL('',(#243,#244,#245,#246,#247,#248,#249,#250,#251,#252,
#253,#254,#255,#256));
#258=DERIVED_UNIT_ELEMENT(#260,1.);
#259=DERIVED_UNIT_ELEMENT(#603,-3.);
#260=(
MASS_UNIT()
NAMED_UNIT(*)
SI_UNIT(.KILO.,.GRAM.)
);
#261=DERIVED_UNIT((#258,#259));
#262=MEASURE_REPRESENTATION_ITEM('density measure',
POSITIVE_RATIO_MEASURE(7850.),#261);
#263=PROPERTY_DEFINITION_REPRESENTATION(#268,#265);
#264=PROPERTY_DEFINITION_REPRESENTATION(#269,#266);
#265=REPRESENTATION('material name',(#267),#600);
#266=REPRESENTATION('density',(#262),#600);
#267=DESCRIPTIVE_REPRESENTATION_ITEM('Steel','Steel');
#268=PROPERTY_DEFINITION('material property','material name',#610);
#269=PROPERTY_DEFINITION('material property','density of part',#610);
#270=AXIS2_PLACEMENT_3D('',#350,#292,#293);
#271=AXIS2_PLACEMENT_3D('',#351,#294,#295);
#272=AXIS2_PLACEMENT_3D('',#363,#299,#300);
#273=AXIS2_PLACEMENT_3D('',#379,#301,#302);
#274=AXIS2_PLACEMENT_3D('',#381,#303,#304);
#275=AXIS2_PLACEMENT_3D('',#400,#306,#307);
#276=AXIS2_PLACEMENT_3D('',#403,#309,#310);
#277=AXIS2_PLACEMENT_3D('',#404,#311,#312);
#278=AXIS2_PLACEMENT_3D('',#405,#313,#314);
#279=AXIS2_PLACEMENT_3D('',#406,#315,#316);
#280=AXIS2_PLACEMENT_3D('',#416,#317,#318);
#281=AXIS2_PLACEMENT_3D('',#420,#320,#321);
#282=AXIS2_PLACEMENT_3D('',#424,#323,#324);
#283=AXIS2_PLACEMENT_3D('',#455,#325,#326);
#284=AXIS2_PLACEMENT_3D('',#461,#330,#331);
#285=AXIS2_PLACEMENT_3D('',#464,#333,#334);
#286=AXIS2_PLACEMENT_3D('',#465,#335,#336);
#287=AXIS2_PLACEMENT_3D('',#533,#340,#341);
#288=AXIS2_PLACEMENT_3D('',#534,#342,#343);
#289=AXIS2_PLACEMENT_3D('',#535,#344,#345);
#290=AXIS2_PLACEMENT_3D('',#541,#346,#347);
#291=AXIS2_PLACEMENT_3D('',#542,#348,#349);
#292=DIRECTION('axis',(0.,0.,1.));
#293=DIRECTION('refdir',(1.,0.,0.));
#294=DIRECTION('center_axis',(0.0431217915653897,0.997169937875698,-0.06158430067126));
#295=DIRECTION('ref_axis',(0.571953179403137,-0.0751805493261194,-0.816833793114405));
#296=DIRECTION('',(0.571953179403137,-0.0751805493261194,-0.816833793114405));
#297=DIRECTION('',(-0.81915204428899,0.,-0.573576436351048));
#298=DIRECTION('',(0.571953179403137,-0.0751805493261194,-0.816833793114405));
#299=DIRECTION('center_axis',(0.819152044288992,0.,0.573576436351046));
#300=DIRECTION('ref_axis',(0.,1.,0.));
#301=DIRECTION('center_axis',(-0.819152044288992,0.,-0.573576436351046));
#302=DIRECTION('ref_axis',(0.,1.,0.));
#303=DIRECTION('center_axis',(0.819152044288992,0.,0.573576436351046));
#304=DIRECTION('ref_axis',(0.,1.,0.));
#305=DIRECTION('',(-0.81915204428899,0.,-0.573576436351048));
#306=DIRECTION('center_axis',(-0.81915204428899,0.,-0.573576436351048));
#307=DIRECTION('ref_axis',(0.,1.,0.));
#308=DIRECTION('',(0.81915204428899,0.,0.573576436351048));
#309=DIRECTION('center_axis',(-0.819152044288992,0.,-0.573576436351046));
#310=DIRECTION('ref_axis',(0.,1.,0.));
#311=DIRECTION('center_axis',(-0.81915204428899,0.,-0.573576436351048));
#312=DIRECTION('ref_axis',(0.,1.,0.));
#313=DIRECTION('center_axis',(0.819152044288992,0.,0.573576436351046));
#314=DIRECTION('ref_axis',(0.,1.,0.));
#315=DIRECTION('center_axis',(-0.819152044288992,0.,-0.573576436351046));
#316=DIRECTION('ref_axis',(-0.573576436351046,0.,0.819152044288992));
#317=DIRECTION('center_axis',(0.819152044288992,0.,0.573576436351046));
#318=DIRECTION('ref_axis',(0.573576436351045,-2.07075987620516E-31,-0.819152044288993));
#319=DIRECTION('',(-0.0494181463789859,0.9962814937182,0.0705764272480389));
#320=DIRECTION('center_axis',(-0.819152044288992,0.,-0.573576436351046));
#321=DIRECTION('ref_axis',(0.573576436351045,-2.03378202127292E-31,-0.819152044288993));
#322=DIRECTION('',(-0.0494181463792659,-0.996281493718158,0.0705764272484386));
#323=DIRECTION('center_axis',(0.819152044288992,0.,0.573576436351046));
#324=DIRECTION('ref_axis',(0.573576436351045,-2.07075987620516E-31,-0.819152044288993));
#325=DIRECTION('center_axis',(-0.571443588769357,0.0861579089504654,0.81610602226652));
#326=DIRECTION('ref_axis',(-0.0494181463792696,-0.996281493718158,0.070576427248436));
#327=DIRECTION('',(0.819152044288993,-2.66453525910038E-16,0.573576436351045));
#328=DIRECTION('',(0.049418146379266,0.996281493718158,-0.0705764272484385));
#329=DIRECTION('',(0.819152044288993,-2.66453525910038E-16,0.573576436351045));
#330=DIRECTION('center_axis',(0.819152044288993,-2.66453525910038E-16,0.573576436351045));
#331=DIRECTION('ref_axis',(0.573576436351045,-2.03378202127292E-31,-0.819152044288993));
#332=DIRECTION('',(0.819152044288993,-2.66453525910038E-16,0.573576436351045));
#333=DIRECTION('center_axis',(0.819152044288993,-2.6625822408117E-16,0.573576436351045));
#334=DIRECTION('ref_axis',(0.573576436351045,-2.03378202127292E-31,-0.819152044288993));
#335=DIRECTION('center_axis',(0.571443588769381,0.0861579089499774,-0.816106022266555));
#336=DIRECTION('ref_axis',(-0.0494181463789829,0.9962814937182,0.070576427248041));
#337=DIRECTION('',(0.819152044288993,-2.66453525910038E-16,0.573576436351045));
#338=DIRECTION('',(0.0494181463789856,-0.9962814937182,-0.0705764272480391));
#339=DIRECTION('',(0.819152044288992,0.,0.573576436351046));
#340=DIRECTION('center_axis',(0.819152044288993,-2.66453525910038E-16,0.573576436351045));
#341=DIRECTION('ref_axis',(0.573576436351045,-2.07075987620516E-31,-0.819152044288993));
#342=DIRECTION('center_axis',(-0.819152044288993,2.6625822408117E-16,-0.573576436351045));
#343=DIRECTION('ref_axis',(0.573576436351045,-2.07075987620516E-31,-0.819152044288993));
#344=DIRECTION('center_axis',(0.819152044288993,-2.66453525910038E-16,0.573576436351045));
#345=DIRECTION('ref_axis',(0.573576436351045,-2.07075987620516E-31,-0.819152044288993));
#346=DIRECTION('center_axis',(-0.819152044288993,2.6625822408117E-16,-0.573576436351045));
#347=DIRECTION('ref_axis',(0.573576436351045,-2.07075987620516E-31,-0.819152044288993));
#348=DIRECTION('center_axis',(0.819152044288993,-2.6625822408117E-16,0.573576436351045));
#349=DIRECTION('ref_axis',(0.573576436351045,-2.2186712959341E-31,-0.819152044288993));
#350=CARTESIAN_POINT('',(0.,0.,0.));
#351=CARTESIAN_POINT('Origin',(34.2178614263659,73.5884525698022,33.0738288031494));
#352=CARTESIAN_POINT('',(37.5458128435255,73.0971722060816,27.4492982223876));
#353=CARTESIAN_POINT('',(37.9554596071447,73.0971629074482,27.7359854112671));
#354=CARTESIAN_POINT('Ctrl Pts',(37.5458128435255,73.0971722060816,27.4492982223876));
#355=CARTESIAN_POINT('Ctrl Pts',(37.6823638713104,73.0971691120336,27.5448621827209));
#356=CARTESIAN_POINT('Ctrl Pts',(37.8189130067566,73.0971660124967,27.6404247291483));
#357=CARTESIAN_POINT('Ctrl Pts',(37.9554596071451,73.0971629074482,27.7359854112674));
#358=CARTESIAN_POINT('',(33.8082854042214,73.5884525698022,32.7870405849738));
#359=CARTESIAN_POINT('',(33.8082854042214,73.5884525698022,32.7870405849738));
#360=CARTESIAN_POINT('',(34.2178614263659,73.5884525698022,33.0738288031494));
#361=CARTESIAN_POINT('',(34.2178614263659,73.5884525698022,33.0738288031494));
#362=CARTESIAN_POINT('',(34.2178614263659,73.5884525698022,33.0738288031494));
#363=CARTESIAN_POINT('Origin',(35.1252793695759,68.8001521249056,30.9061782784613));
#364=CARTESIAN_POINT('',(37.0241102075541,64.7006261640382,28.1943668020623));
#365=CARTESIAN_POINT('Ctrl Pts',(37.0239851594839,64.6990529975854,28.1945453892146));
#366=CARTESIAN_POINT('Ctrl Pts',(37.0746724785313,65.5957557157758,28.1221563955499));
#367=CARTESIAN_POINT('Ctrl Pts',(37.1284036365587,66.5241672904425,28.0454203493131));
#368=CARTESIAN_POINT('Ctrl Pts',(37.1820094860662,67.426695903064,27.9688632621894));
#369=CARTESIAN_POINT('Ctrl Pts',(37.2464736801457,68.5120397634997,27.8767988519085));
#370=CARTESIAN_POINT('Ctrl Pts',(37.3107566595562,69.55995302943,27.7849932429961));
#371=CARTESIAN_POINT('Ctrl Pts',(37.3720750119369,70.5157982516838,27.6974215602668));
#372=CARTESIAN_POINT('Ctrl Pts',(37.4315277562601,71.4425619269097,27.6125142419663));
#373=CARTESIAN_POINT('Ctrl Pts',(37.4881935265468,72.2827746651205,27.5315871350808));
#374=CARTESIAN_POINT('Ctrl Pts',(37.5455294481381,73.0939315860105,27.4497029529455));
#375=CARTESIAN_POINT('',(33.3382138738573,68.6766251091554,33.4583723040894));
#376=CARTESIAN_POINT('Ctrl Pts',(37.0241102075541,64.7006261640382,28.1943668020623));
#377=CARTESIAN_POINT('Ctrl Pts',(35.7776196859061,67.5661421368734,29.9745397559769));
#378=CARTESIAN_POINT('Ctrl Pts',(33.3382138738573,68.6766251091554,33.4583723040894));
#379=CARTESIAN_POINT('Origin',(33.7004809253079,71.095527725113,32.941001336652));
#380=CARTESIAN_POINT('',(33.7004809253079,70.095527725113,32.941001336652));
#381=CARTESIAN_POINT('Origin',(33.7004809253079,71.095527725113,32.941001336652));
#382=CARTESIAN_POINT('Ctrl Pts',(37.4339358884969,64.7000522266446,28.4807984705227));
#383=CARTESIAN_POINT('Ctrl Pts',(37.0243598663524,64.7000522266446,28.1940102523472));
#384=CARTESIAN_POINT('Ctrl Pts',(36.18722285192,67.5661297802558,30.2612892086894));
#385=CARTESIAN_POINT('Ctrl Pts',(35.7776468297755,67.5661297802558,29.9745009905139));
#386=CARTESIAN_POINT('Ctrl Pts',(33.7477898960018,68.6766251091554,33.7451605222649));
#387=CARTESIAN_POINT('Ctrl Pts',(33.3382138738573,68.6766251091554,33.4583723040894));
#388=CARTESIAN_POINT('',(37.4339358884969,64.7000522266446,28.4807984705227));
#389=CARTESIAN_POINT('Ctrl Pts',(37.4339358884969,64.7000522266446,28.4807984705227));
#390=CARTESIAN_POINT('Ctrl Pts',(37.36556971196,64.700148042347,28.4330166656671));
#391=CARTESIAN_POINT('Ctrl Pts',(37.297203063763,64.7002438220973,28.3852344976552));
#392=CARTESIAN_POINT('Ctrl Pts',(37.1607808530284,64.7004348735362,28.2898875165532));
#393=CARTESIAN_POINT('Ctrl Pts',(37.0925387166894,64.7005304065767,28.2421923050452));
#394=CARTESIAN_POINT('Ctrl Pts',(37.0241102075541,64.7006261640382,28.1943668020623));
#395=CARTESIAN_POINT('',(33.7477898960018,68.6766251091554,33.7451605222649));
#396=CARTESIAN_POINT('Ctrl Pts',(37.4339358884969,64.7000522266446,28.4807984705227));
#397=CARTESIAN_POINT('Ctrl Pts',(36.18722285192,67.5661297802558,30.2612892086894));
#398=CARTESIAN_POINT('Ctrl Pts',(33.7477898960018,68.6766251091554,33.7451605222649));
#399=CARTESIAN_POINT('',(33.7477898960018,68.6766251091554,33.7451605222649));
#400=CARTESIAN_POINT('Origin',(34.1100569474524,71.095527725113,33.2277895548275));
#401=CARTESIAN_POINT('',(34.1100569474524,70.095527725113,33.2277895548275));
#402=CARTESIAN_POINT('',(34.1100569474524,70.095527725113,33.2277895548275));
#403=CARTESIAN_POINT('Origin',(34.1100569474524,71.095527725113,33.2277895548275));
#404=CARTESIAN_POINT('Origin',(34.1100569474524,71.095527725113,33.2277895548275));
#405=CARTESIAN_POINT('Origin',(34.1100569474524,71.095527725113,33.2277895548275));
#406=CARTESIAN_POINT('Origin',(38.5727381596047,66.9736927188358,26.8544202769666));
#407=CARTESIAN_POINT('',(37.2440518842354,61.2058987058766,28.7519809327209));
#408=CARTESIAN_POINT('Ctrl Pts',(37.2440518842354,61.2058987058766,28.7519809327209));
#409=CARTESIAN_POINT('Ctrl Pts',(37.2915057630488,62.1254209898977,28.6842097702815));
#410=CARTESIAN_POINT('Ctrl Pts',(37.3454214021819,63.1214260078372,28.6072102577213));
#411=CARTESIAN_POINT('Ctrl Pts',(37.4046599428307,64.1800765752998,28.5226088539714));
#412=CARTESIAN_POINT('Ctrl Pts',(37.4142453634049,64.3513774010632,28.5089194546846));
#413=CARTESIAN_POINT('Ctrl Pts',(37.4239701516603,64.524318453488,28.4950310177216));
#414=CARTESIAN_POINT('Ctrl Pts',(37.4338109693872,64.6984757586557,28.4809768735002));
#415=CARTESIAN_POINT('',(37.2831316844753,61.3221064226774,28.6961691939045));
#416=CARTESIAN_POINT('Origin',(38.5001460815825,60.,26.9580925084994));
#417=CARTESIAN_POINT('',(37.3572589040437,59.8276841821001,28.5903045530325));
#418=CARTESIAN_POINT('',(37.1858556012472,63.2832152177797,28.8350938382703));
#419=CARTESIAN_POINT('',(39.6430332591212,59.8276841820991,25.3258804639663));
#420=CARTESIAN_POINT('Origin',(38.5001460815825,60.,26.9580925084994));
#421=CARTESIAN_POINT('',(39.7171604786901,61.3221064226763,25.2200158230937));
#422=CARTESIAN_POINT('',(39.8520390361478,64.0412899724433,25.0273892801082));
#423=CARTESIAN_POINT('',(39.7562402672644,61.2058987057914,25.1642040760524));
#424=CARTESIAN_POINT('Origin',(38.5001460815825,60.,26.9580925084994));
#425=CARTESIAN_POINT('',(38.5001460815826,80.,26.9580925084992));
#426=CARTESIAN_POINT('Ctrl Pts',(38.5001460815826,80.,26.9580925084992));
#427=CARTESIAN_POINT('Ctrl Pts',(38.5931919814207,79.0187995813202,26.8252091921099));
#428=CARTESIAN_POINT('Ctrl Pts',(38.7311820439121,77.291027098313,26.6281389594125));
#429=CARTESIAN_POINT('Ctrl Pts',(38.8570911899209,75.6420842205,26.4483220635096));
#430=CARTESIAN_POINT('Ctrl Pts',(38.9200457629253,74.8176127815935,26.3584136155581));
#431=CARTESIAN_POINT('Ctrl Pts',(38.9799801068091,74.0128487439856,26.2728185018052));
#432=CARTESIAN_POINT('Ctrl Pts',(39.0390783876271,73.1792260403061,26.188417409853));
#433=CARTESIAN_POINT('Ctrl Pts',(39.0981766684451,72.3456033366267,26.1040163179009));
#434=CARTESIAN_POINT('Ctrl Pts',(39.1564388861974,71.4831219668759,26.0208092477496));
#435=CARTESIAN_POINT('Ctrl Pts',(39.2176649436421,70.5286610785894,25.9333693758492));
#436=CARTESIAN_POINT('Ctrl Pts',(39.2788910010869,69.574200190303,25.8459295039487));
#437=CARTESIAN_POINT('Ctrl Pts',(39.3430808982241,68.527759783481,25.7542568302992));
#438=CARTESIAN_POINT('Ctrl Pts',(39.4074565678751,67.4438915215751,25.6623188460045));
#439=CARTESIAN_POINT('Ctrl Pts',(39.471832237526,66.3600232596692,25.5703808617098));
#440=CARTESIAN_POINT('Ctrl Pts',(39.5363936796907,65.2387271426794,25.4781775667698));
#441=CARTESIAN_POINT('Ctrl Pts',(39.5956322203395,64.1800765752147,25.3935761630199));
#442=CARTESIAN_POINT('Ctrl Pts',(39.6548707609726,63.12142600803,25.3089747592924));
#443=CARTESIAN_POINT('Ctrl Pts',(39.7087864000927,62.1254209903372,25.2319752467509));
#444=CARTESIAN_POINT('Ctrl Pts',(39.7562402788967,61.2058987065174,25.1642040843248));
#445=CARTESIAN_POINT('Ctrl Pts',(37.9551746914594,73.0938985185364,27.7363923130352));
#446=CARTESIAN_POINT('Ctrl Pts',(37.9571868488144,73.1223762049229,27.7335186545195));
#447=CARTESIAN_POINT('Ctrl Pts',(37.9591998267145,73.1508178795222,27.7306438241439));
#448=CARTESIAN_POINT('Ctrl Pts',(37.9612137755407,73.1792260403411,27.727767607142));
#449=CARTESIAN_POINT('Ctrl Pts',(38.0203120563584,74.0128487440158,27.6433665151902));
#450=CARTESIAN_POINT('Ctrl Pts',(38.080246400242,74.8176127816202,27.5577714014375));
#451=CARTESIAN_POINT('Ctrl Pts',(38.1432009732461,75.6420842205226,27.4678629534864));
#452=CARTESIAN_POINT('Ctrl Pts',(38.2691101192543,77.2910270983275,27.288046057584));
#453=CARTESIAN_POINT('Ctrl Pts',(38.407100181745,79.0187995813247,27.0909758248878));
#454=CARTESIAN_POINT('Ctrl Pts',(38.5001460815826,80.,26.9580925084992));
#455=CARTESIAN_POINT('Origin',(25.7915757257773,61.3221064226763,15.4692164051259));
#456=CARTESIAN_POINT('',(25.8812789150662,59.8276841820991,15.6897963332688));
#457=CARTESIAN_POINT('',(25.7174485062084,59.8276841820991,15.5750810459986));
#458=CARTESIAN_POINT('',(25.9554061346351,61.3221064226763,15.5839316923961));
#459=CARTESIAN_POINT('',(26.133742957876,64.9174188668108,15.3292403137559));
#460=CARTESIAN_POINT('',(25.7915757257773,61.3221064226763,15.4692164051259));
#461=CARTESIAN_POINT('Origin',(24.5745613286697,60.,17.2072930905316));
#462=CARTESIAN_POINT('',(23.5955045599887,59.8276841821001,18.9542204223349));
#463=CARTESIAN_POINT('',(23.4316741511309,59.8276841821001,18.8395051350647));
#464=CARTESIAN_POINT('Origin',(24.7383917375275,60.,17.3220083778018));
#465=CARTESIAN_POINT('Origin',(23.4316741511309,59.8276841821001,18.8395051350647));
#466=CARTESIAN_POINT('',(23.5213773404202,61.3221064226774,19.060085063207));
#467=CARTESIAN_POINT('',(23.3575469315624,61.3221064226774,18.9453697759368));
#468=CARTESIAN_POINT('',(23.3801041269645,64.1702077465236,19.2618441214098));
#469=CARTESIAN_POINT('Ctrl Pts',(24.7383917373317,80.,17.3220083776645));
#470=CARTESIAN_POINT('Ctrl Pts',(29.3256431854154,80.,20.5340364212761));
#471=CARTESIAN_POINT('Ctrl Pts',(33.9128946334991,80.,23.7460644648877));
#472=CARTESIAN_POINT('Ctrl Pts',(38.5001460815828,80.,26.9580925084993));
#473=CARTESIAN_POINT('Ctrl Pts',(24.8389636876679,78.9394348386224,17.1783767472577));
#474=CARTESIAN_POINT('Ctrl Pts',(29.4236737921167,78.9662302892764,20.394034205716));
#475=CARTESIAN_POINT('Ctrl Pts',(34.0084818769721,78.9920041306663,23.6095517336518));
#476=CARTESIAN_POINT('Ctrl Pts',(38.5931919814209,79.0187995813202,26.82520919211));
#477=CARTESIAN_POINT('Ctrl Pts',(25.0517663772339,76.2677649885408,16.8744630103246));
#478=CARTESIAN_POINT('Ctrl Pts',(29.6345690575562,76.3209041520357,20.0928445527471));
#479=CARTESIAN_POINT('Ctrl Pts',(34.2173743948357,76.3740016933145,23.3112223006415));
#480=CARTESIAN_POINT('Ctrl Pts',(38.800177075158,76.4271408568094,26.529603843064));
#481=CARTESIAN_POINT('Ctrl Pts',(25.3016758588873,72.9098130303856,16.5175552822355));
#482=CARTESIAN_POINT('Ctrl Pts',(29.8810764274748,73.0093564985748,19.7407955437508));
#483=CARTESIAN_POINT('Ctrl Pts',(34.4605138821055,73.1085412381885,22.963983126537));
#484=CARTESIAN_POINT('Ctrl Pts',(39.039914450693,73.2080847063776,26.1872233880523));
#485=CARTESIAN_POINT('Ctrl Pts',(25.4856994540393,70.1916138825074,16.2547423516257));
#486=CARTESIAN_POINT('Ctrl Pts',(30.0620257821255,70.3346921314345,19.482373083585));
#487=CARTESIAN_POINT('Ctrl Pts',(34.6383747758635,70.4775623481978,22.7099714456391));
#488=CARTESIAN_POINT('Ctrl Pts',(39.2147011039498,70.620640597125,25.9376021775984));
#489=CARTESIAN_POINT('Ctrl Pts',(25.6876538679319,66.903831304828,15.9663215579721));
#490=CARTESIAN_POINT('Ctrl Pts',(30.2608526964979,67.0963977109076,19.1984188221374));
#491=CARTESIAN_POINT('Ctrl Pts',(34.8340719667955,67.2887529705795,22.4304868924846));
#492=CARTESIAN_POINT('Ctrl Pts',(39.4072707953615,67.481319376659,25.6625841566498));
#493=CARTESIAN_POINT('Ctrl Pts',(25.88980909123,63.3908358209161,15.6776139787663));
#494=CARTESIAN_POINT('Ctrl Pts',(30.4601868684395,63.6330714837531,18.9137401218034));
#495=CARTESIAN_POINT('Ctrl Pts',(35.0305773446461,63.8751953628527,22.1498481287929));
#496=CARTESIAN_POINT('Ctrl Pts',(39.6009551218555,64.1174310256896,25.38597427183));
#497=CARTESIAN_POINT('Ctrl Pts',(26.0023134847754,61.3102965436868,15.5169410533748));
#498=CARTESIAN_POINT('Ctrl Pts',(30.5711368082594,61.5820387209998,18.7552871864014));
#499=CARTESIAN_POINT('Ctrl Pts',(35.1399630766373,61.8536788124974,21.9936291136837));
#500=CARTESIAN_POINT('Ctrl Pts',(39.7087864001213,62.1254209898104,25.2319752467103));
#501=CARTESIAN_POINT('Ctrl Pts',(26.0518850033578,60.3492929603434,15.4461455879202));
#502=CARTESIAN_POINT('Ctrl Pts',(30.62000342855,60.6348282088249,18.6854984200372));
#503=CARTESIAN_POINT('Ctrl Pts',(35.1881218537422,60.9203634573064,21.9248512521542));
#504=CARTESIAN_POINT('Ctrl Pts',(39.7562402789345,61.2058987057879,25.1642040842711));
#505=CARTESIAN_POINT('',(26.0096635135187,61.1565442123524,15.5064441248925));
#506=CARTESIAN_POINT('Ctrl Pts',(39.7562402672509,61.2058987058337,25.1642040760714));
#507=CARTESIAN_POINT('Ctrl Pts',(35.5317081733433,61.190555155348,22.1958405226648));
#508=CARTESIAN_POINT('Ctrl Pts',(31.2209140917724,61.175117994483,19.167265889088));
#509=CARTESIAN_POINT('Ctrl Pts',(26.5215967708813,61.1583682146503,15.8660664443128));
#510=CARTESIAN_POINT('Ctrl Pts',(26.265638307336,61.1574561390176,15.6862605173604));
#511=CARTESIAN_POINT('Ctrl Pts',(26.0096635135187,61.1565442123524,15.5064441248925));
#512=CARTESIAN_POINT('',(24.7383917375276,80.,17.3220083778016));
#513=CARTESIAN_POINT('Ctrl Pts',(26.0095917354464,61.1580079133156,15.5065466346034));
#514=CARTESIAN_POINT('Ctrl Pts',(25.9710231935621,61.8861174050212,15.5616282208183));
#515=CARTESIAN_POINT('Ctrl Pts',(25.9290982766264,62.653951776043,15.6215032073729));
#516=CARTESIAN_POINT('Ctrl Pts',(25.8842426525952,63.4562002489377,15.6855636774242));
#517=CARTESIAN_POINT('Ctrl Pts',(25.8224240169925,64.561834315563,15.7738498386397));
#518=CARTESIAN_POINT('Ctrl Pts',(25.7550389425598,65.7328328101997,15.8700856983749));
#519=CARTESIAN_POINT('Ctrl Pts',(25.6876873363614,66.8662958204642,15.9662737605181));
#520=CARTESIAN_POINT('Ctrl Pts',(25.620335730163,67.9997588307287,16.0624618226613));
#521=CARTESIAN_POINT('Ctrl Pts',(25.5530175921988,69.0956863566211,16.1586020872124));
#522=CARTESIAN_POINT('Ctrl Pts',(25.4886879240248,70.09668331088,16.2504743745895));
#523=CARTESIAN_POINT('Ctrl Pts',(25.4243582558507,71.097680265139,16.3423466619667));
#524=CARTESIAN_POINT('Ctrl Pts',(25.3630170574668,72.0037466477644,16.4299509721699));
#525=CARTESIAN_POINT('Ctrl Pts',(25.3011077730682,72.8765238338463,16.5183665932826));
#526=CARTESIAN_POINT('Ctrl Pts',(25.2391984886695,73.7493010199282,16.6067822143953));
#527=CARTESIAN_POINT('Ctrl Pts',(25.1767211182562,74.5887890094665,16.6960091464176));
#528=CARTESIAN_POINT('Ctrl Pts',(25.1114247946956,75.4452998747232,16.7892619607583));
#529=CARTESIAN_POINT('Ctrl Pts',(24.9808321475743,77.1583216052366,16.9757675894397));
#530=CARTESIAN_POINT('Ctrl Pts',(24.8389636878637,78.9394348386236,17.178376747395));
#531=CARTESIAN_POINT('Ctrl Pts',(24.7383917375276,80.,17.3220083778016));
#532=CARTESIAN_POINT('',(16.3830408857799,80.,11.4715287270209));
#533=CARTESIAN_POINT('Origin',(24.5745613286697,60.,17.2072930905316));
#534=CARTESIAN_POINT('Origin',(24.7383917375275,60.,17.3220083778018));
#535=CARTESIAN_POINT('Origin',(24.5745613286697,60.,17.2072930905316));
#536=CARTESIAN_POINT('',(23.4671199615191,61.1565442123534,19.1375726306986));
#537=CARTESIAN_POINT('Ctrl Pts',(23.4671199615017,61.1565442123534,19.1375726306864));
#538=CARTESIAN_POINT('Ctrl Pts',(28.098663723899,61.1730092723117,22.3701259733722));
#539=CARTESIAN_POINT('Ctrl Pts',(32.6787790677909,61.1893555359032,25.5664632440943));
#540=CARTESIAN_POINT('Ctrl Pts',(37.2440518842344,61.2058987058766,28.7519809327202));
#541=CARTESIAN_POINT('Origin',(24.7383917375275,60.,17.3220083778018));
#542=CARTESIAN_POINT('Origin',(24.7383917375275,68.75,17.3220083778018));
#543=CARTESIAN_POINT('Ctrl Pts',(24.7383917375276,80.,17.3220083778016));
#544=CARTESIAN_POINT('Ctrl Pts',(24.637819787192,78.9394348386284,17.4656400082075));
#545=CARTESIAN_POINT('Ctrl Pts',(24.4959513274822,77.1583216052515,17.6682491661618));
#546=CARTESIAN_POINT('Ctrl Pts',(24.3653586803614,75.4452998747467,17.8547547948425));
#547=CARTESIAN_POINT('Ctrl Pts',(24.300062356801,74.5887890094943,17.9480076091828));
#548=CARTESIAN_POINT('Ctrl Pts',(24.2375849863879,73.74930101996,18.0372345412048));
#549=CARTESIAN_POINT('Ctrl Pts',(24.1756757019896,72.876523833883,18.1256501623171));
#550=CARTESIAN_POINT('Ctrl Pts',(24.1137664175913,72.0037466478061,18.2140657834295));
#551=CARTESIAN_POINT('Ctrl Pts',(24.0524252192077,71.0976802651867,18.3016700936322));
#552=CARTESIAN_POINT('Ctrl Pts',(23.988095551034,70.0966833109347,18.3935423810088));
#553=CARTESIAN_POINT('Ctrl Pts',(23.9237658828604,69.0956863566827,18.4854146683854));
#554=CARTESIAN_POINT('Ctrl Pts',(23.8564477448966,67.9997588307981,18.5815549329358));
#555=CARTESIAN_POINT('Ctrl Pts',(23.7890961386985,66.8662958205396,18.6777429950785));
#556=CARTESIAN_POINT('Ctrl Pts',(23.7217445325004,65.7328328102811,18.7739310572212));
#557=CARTESIAN_POINT('Ctrl Pts',(23.6543594580679,64.5618343156486,18.8701669169562));
#558=CARTESIAN_POINT('Ctrl Pts',(23.5925408224652,63.4562002490257,18.9584530781716));
#559=CARTESIAN_POINT('Ctrl Pts',(23.5476851984322,62.6539517760997,19.0225135482257));
#560=CARTESIAN_POINT('Ctrl Pts',(23.5057602814947,61.8861174050486,19.0823885347828));
#561=CARTESIAN_POINT('Ctrl Pts',(23.4671917396089,61.1580079133174,19.1374701209998));
#562=CARTESIAN_POINT('Ctrl Pts',(23.424898471472,60.3492929604467,19.1978711675139));
#563=CARTESIAN_POINT('Ctrl Pts',(28.0312829423933,60.6348282089233,22.382574422583));
#564=CARTESIAN_POINT('Ctrl Pts',(32.6376674133146,60.9203634574,25.5672776776521));
#565=CARTESIAN_POINT('Ctrl Pts',(37.2440518842359,61.2058987058766,28.7519809327213));
#566=CARTESIAN_POINT('Ctrl Pts',(23.4744699900547,61.3102965437875,19.1270757020589));
#567=CARTESIAN_POINT('Ctrl Pts',(28.0801495626841,61.5820387210961,22.3127856562185));
#568=CARTESIAN_POINT('Ctrl Pts',(32.6858261904198,61.8536788125892,25.4984998161223));
#569=CARTESIAN_POINT('Ctrl Pts',(37.2915057630493,62.1254209898977,28.6842097702818));
#570=CARTESIAN_POINT('Ctrl Pts',(23.5869743836005,63.3908358210142,18.9664027766669));
#571=CARTESIAN_POINT('Ctrl Pts',(28.1910995025045,63.6330714838475,22.1543327208159));
#572=CARTESIAN_POINT('Ctrl Pts',(32.7952119224114,63.8751953629434,25.3422808010124));
#573=CARTESIAN_POINT('Ctrl Pts',(37.3993370413155,64.1174310257767,28.5302107451614));
#574=CARTESIAN_POINT('Ctrl Pts',(23.7891296068979,66.9038313049121,18.677695197462));
#575=CARTESIAN_POINT('Ctrl Pts',(28.3904336744454,67.0963977109886,21.8696540204828));
#576=CARTESIAN_POINT('Ctrl Pts',(32.9917173002615,67.2887529706574,25.0616420373217));
#577=CARTESIAN_POINT('Ctrl Pts',(37.593021367809,67.4813193767339,28.2536008603425));
#578=CARTESIAN_POINT('Ctrl Pts',(23.9910840207891,70.1916138825661,18.3892744038106));
#579=CARTESIAN_POINT('Ctrl Pts',(28.5892605888165,70.3346921314907,21.5856997590373));
#580=CARTESIAN_POINT('Ctrl Pts',(33.1874144911922,70.4775623482515,24.7821574841692));
#581=CARTESIAN_POINT('Ctrl Pts',(37.7855910592195,70.620640597176,27.9785828393958));
#582=CARTESIAN_POINT('Ctrl Pts',(24.1751076159399,72.9098130304249,18.1264614732025));
#583=CARTESIAN_POINT('Ctrl Pts',(28.7702099434661,73.0093564986122,21.327277298873));
#584=CARTESIAN_POINT('Ctrl Pts',(33.3652753849492,73.1085412382241,24.5281458032727));
#585=CARTESIAN_POINT('Ctrl Pts',(37.9603777124754,73.2080847064115,27.7289616289432));
#586=CARTESIAN_POINT('Ctrl Pts',(24.4250170975924,76.2677649885626,17.7695537451145));
#587=CARTESIAN_POINT('Ctrl Pts',(29.0167173133838,76.3209041520567,20.9752282898778));
#588=CARTESIAN_POINT('Ctrl Pts',(33.608414872218,76.3740016933348,24.1809066291692));
#589=CARTESIAN_POINT('Ctrl Pts',(38.2001150880095,76.4271408568289,27.3865811739325));
#590=CARTESIAN_POINT('Ctrl Pts',(24.6378197871571,78.9394348386282,17.4656400081832));
#591=CARTESIAN_POINT('Ctrl Pts',(29.2276125788221,78.9662302892818,20.6740386369107));
#592=CARTESIAN_POINT('Ctrl Pts',(33.8173073900805,78.9920041306711,23.8825771961606));
#593=CARTESIAN_POINT('Ctrl Pts',(38.4071001817454,79.0187995813247,27.0909758248881));
#594=CARTESIAN_POINT('Ctrl Pts',(24.7383917374928,80.,17.3220083777772));
#595=CARTESIAN_POINT('Ctrl Pts',(29.3256431855229,80.,20.5340364213513));
#596=CARTESIAN_POINT('Ctrl Pts',(33.912894633553,80.,23.7460644649254));
#597=CARTESIAN_POINT('Ctrl Pts',(38.5001460815831,80.,26.9580925084995));
#598=UNCERTAINTY_MEASURE_WITH_UNIT(LENGTH_MEASURE(0.01),#602,
'DISTANCE_ACCURACY_VALUE',
'Maximum model space distance between geometric entities at asserted c
onnectivities');
#599=UNCERTAINTY_MEASURE_WITH_UNIT(LENGTH_MEASURE(0.01),#602,
'DISTANCE_ACCURACY_VALUE',
'Maximum model space distance between geometric entities at asserted c
onnectivities');
#600=(
GEOMETRIC_REPRESENTATION_CONTEXT(3)
GLOBAL_UNCERTAINTY_ASSIGNED_CONTEXT((#598))
GLOBAL_UNIT_ASSIGNED_CONTEXT((#602,#604,#605))
REPRESENTATION_CONTEXT('','3D')
);
#601=(
GEOMETRIC_REPRESENTATION_CONTEXT(3)
GLOBAL_UNCERTAINTY_ASSIGNED_CONTEXT((#599))
GLOBAL_UNIT_ASSIGNED_CONTEXT((#602,#604,#605))
REPRESENTATION_CONTEXT('','3D')
);
#602=(
LENGTH_UNIT()
NAMED_UNIT(*)
SI_UNIT(.MILLI.,.METRE.)
);
#603=(
LENGTH_UNIT()
NAMED_UNIT(*)
SI_UNIT($,.METRE.)
);
#604=(
NAMED_UNIT(*)
PLANE_ANGLE_UNIT()
SI_UNIT($,.RADIAN.)
);
#605=(
NAMED_UNIT(*)
SI_UNIT($,.STERADIAN.)
SOLID_ANGLE_UNIT()
);
#606=SHAPE_DEFINITION_REPRESENTATION(#607,#608);
#607=PRODUCT_DEFINITION_SHAPE('',$,#610);
#608=SHAPE_REPRESENTATION('',(#270),#600);
#609=PRODUCT_DEFINITION_CONTEXT('part definition',#614,'design');
#610=PRODUCT_DEFINITION('l_flap1','l_flap1',#611,#609);
#611=PRODUCT_DEFINITION_FORMATION('',$,#616);
#612=PRODUCT_RELATED_PRODUCT_CATEGORY('l_flap1','l_flap1',(#616));
#613=APPLICATION_PROTOCOL_DEFINITION('international standard',
'automotive_design',2009,#614);
#614=APPLICATION_CONTEXT(
'Core Data for Automotive Mechanical Design Process');
#615=PRODUCT_CONTEXT('part definition',#614,'mechanical');
#616=PRODUCT('l_flap1','l_flap1',$,(#615));
#617=PRESENTATION_STYLE_ASSIGNMENT((#619));
#618=PRESENTATION_STYLE_ASSIGNMENT((#620));
#619=SURFACE_STYLE_USAGE(.BOTH.,#621);
#620=SURFACE_STYLE_USAGE(.BOTH.,#622);
#621=SURFACE_SIDE_STYLE('',(#623));
#622=SURFACE_SIDE_STYLE('',(#624));
#623=SURFACE_STYLE_FILL_AREA(#625);
#624=SURFACE_STYLE_FILL_AREA(#626);
#625=FILL_AREA_STYLE('Steel - Satin',(#627));
#626=FILL_AREA_STYLE('Paint - Enamel Glossy (Yellow)',(#628));
#627=FILL_AREA_STYLE_COLOUR('Steel - Satin',#629);
#628=FILL_AREA_STYLE_COLOUR('Paint - Enamel Glossy (Yellow)',#630);
#629=COLOUR_RGB('Steel - Satin',0.627450980392157,0.627450980392157,0.627450980392157);
#630=COLOUR_RGB('Paint - Enamel Glossy (Yellow)',0.909803921568627,0.67843137254902,
0.137254901960784);
ENDSEC;
END-ISO-10303-21;
