ISO-10303-21;
HEADER;
/* Generated by software containing ST-Developer
 * from STEP Tools, Inc. (www.steptools.com) 
 */

FILE_DESCRIPTION(
/* description */ (''),
/* implementation_level */ '2;1');

FILE_NAME(
/* name */ 'Ruddervator2 Left.step',
/* time_stamp */ '2026-07-02T23:28:52-07:00',
/* author */ (''),
/* organization */ (''),
/* preprocessor_version */ 'ST-DEVELOPER v20.1',
/* originating_system */ 'Autodesk Translation Framework v15.8.0.0',
/* authorisation */ '');

FILE_SCHEMA (('AUTOMOTIVE_DESIGN { 1 0 10303 214 3 1 1 }'));
ENDSEC;

DATA;
#10=MECHANICAL_DESIGN_GEOMETRIC_PRESENTATION_REPRESENTATION('',(#13),#1037);
#11=SHAPE_REPRESENTATION_RELATIONSHIP('SRR','None',#1044,#12);
#12=ADVANCED_BREP_SHAPE_REPRESENTATION('',(#14),#1036);
#13=STYLED_ITEM('',(#1054),#14);
#14=MANIFOLD_SOLID_BREP('l_flap2',#297);
#15=B_SPLINE_SURFACE_WITH_KNOTS('',3,3,((#478,#479,#480,#481),(#482,#483,
#484,#485),(#486,#487,#488,#489),(#490,#491,#492,#493),(#494,#495,#496,
#497),(#498,#499,#500,#501),(#502,#503,#504,#505),(#506,#507,#508,#509),
(#510,#511,#512,#513),(#514,#515,#516,#517),(#518,#519,#520,#521),(#522,
#523,#524,#525),(#526,#527,#528,#529),(#530,#531,#532,#533),(#534,#535,
#536,#537),(#538,#539,#540,#541),(#542,#543,#544,#545),(#546,#547,#548,
#549),(#550,#551,#552,#553),(#554,#555,#556,#557),(#558,#559,#560,#561),
(#562,#563,#564,#565)),.UNSPECIFIED.,.F.,.F.,.F.,(4,1,1,1,1,1,1,1,1,1,1,
1,1,1,1,1,1,1,1,4),(4,4),(0.618270087709339,0.645536510015815,0.67280293232229,
0.727335776935242,0.781868621548194,0.795501832701431,0.809135043854669,
0.836401466161145,0.843218071737764,0.850034677314383,0.856851282891002,
0.863667888467621,0.877301099620859,0.884117705197478,0.887526007985787,
0.889230159379942,0.890934310774097,0.945467155387048,0.972733577693524,
1.),(0.207692307692307,0.844615384615426),.UNSPECIFIED.);
#16=B_SPLINE_SURFACE_WITH_KNOTS('',3,3,((#799,#800,#801,#802),(#803,#804,
#805,#806),(#807,#808,#809,#810),(#811,#812,#813,#814),(#815,#816,#817,
#818),(#819,#820,#821,#822),(#823,#824,#825,#826),(#827,#828,#829,#830),
(#831,#832,#833,#834),(#835,#836,#837,#838),(#839,#840,#841,#842),(#843,
#844,#845,#846),(#847,#848,#849,#850),(#851,#852,#853,#854),(#855,#856,
#857,#858),(#859,#860,#861,#862),(#863,#864,#865,#866),(#867,#868,#869,
#870),(#871,#872,#873,#874),(#875,#876,#877,#878),(#879,#880,#881,#882),
(#883,#884,#885,#886),(#887,#888,#889,#890),(#891,#892,#893,#894),(#895,
#896,#897,#898),(#899,#900,#901,#902),(#903,#904,#905,#906),(#907,#908,
#909,#910),(#911,#912,#913,#914),(#915,#916,#917,#918),(#919,#920,#921,
#922),(#923,#924,#925,#926),(#927,#928,#929,#930),(#931,#932,#933,#934)),
 .UNSPECIFIED.,.F.,.F.,.F.,(4,1,1,1,1,1,1,1,1,1,1,1,1,1,1,1,1,1,1,1,1,1,
1,1,1,1,1,1,1,1,1,4),(4,4),(0.,0.0272664223064762,0.0545328446129524,0.109065689225905,
0.109917764922982,0.11076984062006,0.111621916317137,0.112473992014214,
0.115882294802524,0.122698900379143,0.129515505955762,0.136332111532381,
0.143148717109,0.149965322685619,0.163598533838857,0.177231744992095,0.180640047780405,
0.184048350568714,0.190864956145333,0.197681561721952,0.204498167298572,
0.211314772875191,0.21813137845181,0.245397800758286,0.259031011911524,
0.265847617488143,0.269255920276453,0.270960071670607,0.271812147367685,
0.272664223064762,0.327197067677714,0.381729912290667),(0.20769230758251,
0.844615384615386),.UNSPECIFIED.);
#17=FACE_BOUND('',#62,.T.);
#18=FACE_BOUND('',#65,.T.);
#19=FACE_BOUND('',#75,.T.);
#20=(
BOUNDED_CURVE()
B_SPLINE_CURVE(2,(#426,#427,#428),.UNSPECIFIED.,.F.,.F.)
B_SPLINE_CURVE_WITH_KNOTS((3,3),(0.,0.780410367381816),.UNSPECIFIED.)
CURVE()
GEOMETRIC_REPRESENTATION_ITEM()
RATIONAL_B_SPLINE_CURVE((1.,3.,1.))
REPRESENTATION_ITEM('')
);
#21=(
BOUNDED_CURVE()
B_SPLINE_CURVE(2,(#430,#431,#432),.UNSPECIFIED.,.F.,.F.)
B_SPLINE_CURVE_WITH_KNOTS((3,3),(-0.780410367381816,0.),.UNSPECIFIED.)
CURVE()
GEOMETRIC_REPRESENTATION_ITEM()
RATIONAL_B_SPLINE_CURVE((1.,3.,1.))
REPRESENTATION_ITEM('')
);
#22=(
BOUNDED_SURFACE()
B_SPLINE_SURFACE(2,1,((#419,#420),(#421,#422),(#423,#424)),
 .UNSPECIFIED.,.F.,.F.,.F.)
B_SPLINE_SURFACE_WITH_KNOTS((3,3),(2,2),(-0.780410367381816,0.),(0.,0.05),
 .UNSPECIFIED.)
GEOMETRIC_REPRESENTATION_ITEM()
RATIONAL_B_SPLINE_SURFACE(((1.,1.),(3.,3.),(1.,1.)))
REPRESENTATION_ITEM('')
SURFACE()
);
#23=CIRCLE('',#313,1.00000000000001);
#24=CIRCLE('',#314,1.00000000000001);
#25=CIRCLE('',#316,2.5);
#26=CIRCLE('',#317,2.5);
#27=CIRCLE('',#321,2.);
#28=CIRCLE('',#322,1.025);
#29=CIRCLE('',#324,1.025);
#30=CIRCLE('',#328,2.);
#31=CIRCLE('',#331,2.5);
#32=CIRCLE('',#333,2.5);
#33=CYLINDRICAL_SURFACE('',#312,1.00000000000001);
#34=CYLINDRICAL_SURFACE('',#315,2.5);
#35=CYLINDRICAL_SURFACE('',#323,1.025);
#36=CYLINDRICAL_SURFACE('',#327,2.);
#37=CYLINDRICAL_SURFACE('',#330,2.5);
#38=CYLINDRICAL_SURFACE('',#332,2.5);
#39=FACE_OUTER_BOUND('',#56,.T.);
#40=FACE_OUTER_BOUND('',#57,.T.);
#41=FACE_OUTER_BOUND('',#58,.T.);
#42=FACE_OUTER_BOUND('',#59,.T.);
#43=FACE_OUTER_BOUND('',#60,.T.);
#44=FACE_OUTER_BOUND('',#61,.T.);
#45=FACE_OUTER_BOUND('',#63,.T.);
#46=FACE_OUTER_BOUND('',#64,.T.);
#47=FACE_OUTER_BOUND('',#66,.T.);
#48=FACE_OUTER_BOUND('',#67,.T.);
#49=FACE_OUTER_BOUND('',#68,.T.);
#50=FACE_OUTER_BOUND('',#69,.T.);
#51=FACE_OUTER_BOUND('',#70,.T.);
#52=FACE_OUTER_BOUND('',#71,.T.);
#53=FACE_OUTER_BOUND('',#72,.T.);
#54=FACE_OUTER_BOUND('',#73,.T.);
#55=FACE_OUTER_BOUND('',#74,.T.);
#56=EDGE_LOOP('',(#190,#191,#192));
#57=EDGE_LOOP('',(#193,#194,#195,#196));
#58=EDGE_LOOP('',(#197,#198,#199,#200));
#59=EDGE_LOOP('',(#201,#202,#203,#204));
#60=EDGE_LOOP('',(#205,#206,#207,#208));
#61=EDGE_LOOP('',(#209,#210,#211,#212,#213));
#62=EDGE_LOOP('',(#214));
#63=EDGE_LOOP('',(#215,#216,#217,#218,#219,#220,#221,#222,#223));
#64=EDGE_LOOP('',(#224,#225,#226,#227,#228));
#65=EDGE_LOOP('',(#229));
#66=EDGE_LOOP('',(#230,#231,#232,#233));
#67=EDGE_LOOP('',(#234));
#68=EDGE_LOOP('',(#235,#236,#237,#238,#239));
#69=EDGE_LOOP('',(#240,#241,#242,#243));
#70=EDGE_LOOP('',(#244,#245,#246,#247,#248));
#71=EDGE_LOOP('',(#249,#250,#251));
#72=EDGE_LOOP('',(#252,#253,#254,#255,#256));
#73=EDGE_LOOP('',(#257,#258,#259));
#74=EDGE_LOOP('',(#260,#261,#262,#263,#264,#265,#266,#267,#268,#269,#270));
#75=EDGE_LOOP('',(#271));
#76=LINE('',#411,#93);
#77=LINE('',#412,#94);
#78=LINE('',#417,#95);
#79=LINE('',#433,#96);
#80=LINE('',#439,#97);
#81=LINE('',#442,#98);
#82=LINE('',#444,#99);
#83=LINE('',#644,#100);
#84=LINE('',#767,#101);
#85=LINE('',#770,#102);
#86=LINE('',#775,#103);
#87=LINE('',#781,#104);
#88=LINE('',#782,#105);
#89=LINE('',#783,#106);
#90=LINE('',#787,#107);
#91=LINE('',#790,#108);
#92=LINE('',#792,#109);
#93=VECTOR('',#339,10.);
#94=VECTOR('',#340,10.);
#95=VECTOR('',#345,1.00000000000001);
#96=VECTOR('',#348,10.);
#97=VECTOR('',#355,10.);
#98=VECTOR('',#358,10.);
#99=VECTOR('',#359,10.);
#100=VECTOR('',#362,130.);
#101=VECTOR('',#365,10.);
#102=VECTOR('',#368,10.);
#103=VECTOR('',#373,1.025);
#104=VECTOR('',#380,10.);
#105=VECTOR('',#381,10.);
#106=VECTOR('',#382,10.);
#107=VECTOR('',#387,10.);
#108=VECTOR('',#390,10.);
#109=VECTOR('',#391,10.);
#110=B_SPLINE_CURVE_WITH_KNOTS('',3,(#406,#407,#408,#409),.UNSPECIFIED.,
 .F.,.F.,(4,4),(-0.050082916304227,-8.3435731370235E-5),.UNSPECIFIED.);
#111=B_SPLINE_CURVE_WITH_KNOTS('',3,(#445,#446,#447,#448),.UNSPECIFIED.,
 .F.,.F.,(4,4),(-0.135889213495002,-0.0858894344266833),.UNSPECIFIED.);
#112=B_SPLINE_CURVE_WITH_KNOTS('',3,(#450,#451,#452,#453,#454,#455,#456,
#457,#458,#459,#460,#461,#462,#463,#464,#465,#466,#467,#468,#469,#470,#471,
#472,#473,#474,#475,#476,#477),.UNSPECIFIED.,.F.,.F.,(4,3,3,3,3,3,3,3,3,
4),(-0.730591791582145,-0.675654287872733,-0.63937192586264,-0.603089563852546,
-0.566807201842453,-0.530524839832359,-0.385395391791985,-0.312830667771798,
-0.240265943751611,-0.110801598637366),.UNSPECIFIED.);
#113=B_SPLINE_CURVE_WITH_KNOTS('',3,(#567,#568,#569,#570,#571,#572,#573),
 .UNSPECIFIED.,.F.,.F.,(4,3,4),(-1.80191054807234,-1.62532931749454,-1.32134456640453),
 .UNSPECIFIED.);
#114=B_SPLINE_CURVE_WITH_KNOTS('',3,(#575,#576,#577,#578),.UNSPECIFIED.,
 .F.,.F.,(4,4),(-9.43861280770029,-5.16612220620238),.UNSPECIFIED.);
#115=B_SPLINE_CURVE_WITH_KNOTS('',3,(#580,#581,#582,#583),.UNSPECIFIED.,
 .F.,.F.,(4,4),(-5.08639035606432,-0.0762027072396829),.UNSPECIFIED.);
#116=B_SPLINE_CURVE_WITH_KNOTS('',3,(#585,#586,#587,#588,#589,#590,#591,
#592,#593,#594,#595,#596,#597,#598,#599,#600,#601,#602,#603,#604,#605,#606,
#607,#608,#609,#610,#611,#612,#613,#614,#615,#616,#617,#618,#619,#620,#621,
#622,#623,#624,#625,#626,#627,#628,#629,#630,#631,#632,#633,#634,#635,#636,
#637,#638,#639,#640,#641,#642),.UNSPECIFIED.,.F.,.F.,(4,3,3,3,3,3,3,3,3,
3,3,3,3,3,3,3,3,3,3,4),(-1.1204456483919,-1.04041381636431,-0.960381984336285,
-0.800318320280238,-0.64025465622419,-0.600238740210179,-0.560222824196167,
-0.480190992168143,-0.460183034161137,-0.440175076154131,-0.420167118147125,
-0.400159160140119,-0.360143244126107,-0.340135286119101,-0.330131307115598,
-0.325129317613847,-0.320127328112095,-0.160063664056048,-0.0800318320280238,
0.),.UNSPECIFIED.);
#117=B_SPLINE_CURVE_WITH_KNOTS('',3,(#645,#646,#647,#648,#649,#650,#651,
#652,#653,#654,#655,#656,#657,#658,#659,#660,#661,#662,#663,#664,#665,#666,
#667,#668,#669),.UNSPECIFIED.,.F.,.F.,(4,3,3,3,3,3,3,3,4),(-0.525936574007287,
-0.512730729585182,-0.484245689052672,-0.470003168786417,-0.462881908653289,
-0.455760648520162,-0.227880324260081,-0.11394016213004,0.),
 .UNSPECIFIED.);
#118=B_SPLINE_CURVE_WITH_KNOTS('',3,(#672,#673,#674,#675,#676,#677,#678,
#679,#680,#681,#682,#683,#684,#685,#686,#687,#688,#689,#690,#691,#692,#693,
#694,#695,#696,#697,#698,#699,#700,#701,#702,#703,#704,#705,#706,#707,#708,
#709,#710,#711,#712,#713,#714,#715,#716,#717,#718,#719,#720,#721,#722,#723,
#724,#725,#726,#727,#728,#729,#730,#731,#732,#733,#734,#735,#736,#737,#738,
#739,#740,#741,#742,#743,#744,#745,#746,#747,#748,#749,#750,#751,#752,#753,
#754,#755,#756,#757,#758,#759,#760,#761,#762,#763,#764,#765),
 .UNSPECIFIED.,.F.,.F.,(4,3,3,3,3,3,3,3,3,3,3,3,3,3,3,3,3,3,3,3,3,3,3,3,
3,3,3,3,3,3,3,4),(-2.16894890873885,-2.04268694150542,-1.916424974272,-1.66390103980515,
-1.65995535332911,-1.65600966685306,-1.65206398037702,-1.64811829390098,
-1.6323355479968,-1.60077005618844,-1.56920456438009,-1.53763907257173,
-1.50607358076337,-1.47450808895502,-1.41137710533831,-1.34824612172159,
-1.33246337581742,-1.31668062991324,-1.28511513810488,-1.25354964629653,
-1.22198415448817,-1.19041866267981,-1.15885317087146,-1.03259120363804,
-0.969460220021323,-0.937894728212967,-0.922111982308789,-0.9142206093567,
-0.910274922880656,-0.906329236404611,-0.653805301937764,-0.401281367471606),
 .UNSPECIFIED.);
#119=B_SPLINE_CURVE_WITH_KNOTS('',3,(#793,#794,#795,#796),.UNSPECIFIED.,
 .F.,.F.,(4,4),(-9.45967860589895,-5.43275596971416),.UNSPECIFIED.);
#120=B_SPLINE_CURVE_WITH_KNOTS('',3,(#936,#937,#938,#939,#940,#941,#942,
#943,#944,#945,#946,#947,#948,#949,#950,#951,#952,#953,#954,#955,#956,#957,
#958,#959,#960,#961,#962,#963,#964,#965,#966,#967,#968,#969,#970,#971,#972,
#973,#974,#975,#976,#977,#978,#979,#980,#981,#982,#983,#984,#985,#986,#987,
#988,#989,#990,#991,#992,#993,#994,#995,#996,#997,#998,#999,#1000,#1001,
#1002,#1003,#1004,#1005,#1006,#1007,#1008,#1009,#1010,#1011,#1012,#1013,
#1014,#1015,#1016,#1017,#1018,#1019,#1020,#1021,#1022,#1023,#1024,#1025,
#1026),.UNSPECIFIED.,.F.,.F.,(4,3,3,3,3,3,3,3,3,3,3,3,3,3,3,3,3,3,3,3,3,
3,3,3,3,3,3,3,3,3,4),(-1.26371236890756,-1.19215550025038,-1.1205986315932,
-0.977484894278831,-0.975248742133294,-0.973012589987757,-0.97077643784222,
-0.968540285696683,-0.959595677114535,-0.941706459950239,-0.923817242785944,
-0.905928025621648,-0.888038808457352,-0.870149591293057,-0.834371156964465,
-0.798592722635874,-0.789648114053726,-0.780703505471579,-0.762814288307283,
-0.744925071142987,-0.727035853978692,-0.709146636814396,-0.6912574196501,
-0.619700550992918,-0.583922116664326,-0.566032899500031,-0.557088290917883,
-0.552615986626809,-0.550379834481272,-0.548143682335735,-0.501669906374592),
 .UNSPECIFIED.);
#121=B_SPLINE_CURVE_WITH_KNOTS('',3,(#1027,#1028,#1029,#1030),
 .UNSPECIFIED.,.F.,.F.,(4,4),(-5.99181884078679,-1.97779390303847),
 .UNSPECIFIED.);
#122=VERTEX_POINT('',#404);
#123=VERTEX_POINT('',#405);
#124=VERTEX_POINT('',#410);
#125=VERTEX_POINT('',#414);
#126=VERTEX_POINT('',#416);
#127=VERTEX_POINT('',#425);
#128=VERTEX_POINT('',#429);
#129=VERTEX_POINT('',#435);
#130=VERTEX_POINT('',#437);
#131=VERTEX_POINT('',#441);
#132=VERTEX_POINT('',#443);
#133=VERTEX_POINT('',#566);
#134=VERTEX_POINT('',#574);
#135=VERTEX_POINT('',#579);
#136=VERTEX_POINT('',#584);
#137=VERTEX_POINT('',#643);
#138=VERTEX_POINT('',#671);
#139=VERTEX_POINT('',#766);
#140=VERTEX_POINT('',#768);
#141=VERTEX_POINT('',#771);
#142=VERTEX_POINT('',#774);
#143=VERTEX_POINT('',#779);
#144=VERTEX_POINT('',#780);
#145=VERTEX_POINT('',#785);
#146=VERTEX_POINT('',#789);
#147=VERTEX_POINT('',#791);
#148=VERTEX_POINT('',#935);
#149=EDGE_CURVE('',#122,#123,#110,.T.);
#150=EDGE_CURVE('',#124,#122,#76,.T.);
#151=EDGE_CURVE('',#123,#124,#77,.T.);
#152=EDGE_CURVE('',#125,#125,#23,.T.);
#153=EDGE_CURVE('',#125,#126,#78,.T.);
#154=EDGE_CURVE('',#126,#126,#24,.T.);
#155=EDGE_CURVE('',#123,#127,#20,.T.);
#156=EDGE_CURVE('',#128,#124,#21,.T.);
#157=EDGE_CURVE('',#127,#128,#79,.T.);
#158=EDGE_CURVE('',#129,#127,#25,.T.);
#159=EDGE_CURVE('',#130,#128,#26,.T.);
#160=EDGE_CURVE('',#129,#130,#80,.T.);
#161=EDGE_CURVE('',#129,#131,#81,.T.);
#162=EDGE_CURVE('',#132,#130,#82,.T.);
#163=EDGE_CURVE('',#131,#132,#111,.T.);
#164=EDGE_CURVE('',#132,#122,#112,.T.);
#165=EDGE_CURVE('',#133,#123,#113,.T.);
#166=EDGE_CURVE('',#133,#134,#114,.T.);
#167=EDGE_CURVE('',#134,#135,#115,.T.);
#168=EDGE_CURVE('',#135,#136,#116,.T.);
#169=EDGE_CURVE('',#137,#136,#83,.T.);
#170=EDGE_CURVE('',#131,#137,#117,.T.);
#171=EDGE_CURVE('',#136,#138,#118,.T.);
#172=EDGE_CURVE('',#139,#135,#84,.T.);
#173=EDGE_CURVE('',#140,#139,#27,.T.);
#174=EDGE_CURVE('',#138,#140,#85,.T.);
#175=EDGE_CURVE('',#141,#141,#28,.T.);
#176=EDGE_CURVE('',#141,#142,#86,.T.);
#177=EDGE_CURVE('',#142,#142,#29,.T.);
#178=EDGE_CURVE('',#143,#144,#87,.T.);
#179=EDGE_CURVE('',#143,#139,#88,.T.);
#180=EDGE_CURVE('',#144,#134,#89,.T.);
#181=EDGE_CURVE('',#145,#143,#30,.T.);
#182=EDGE_CURVE('',#145,#140,#90,.T.);
#183=EDGE_CURVE('',#146,#145,#91,.T.);
#184=EDGE_CURVE('',#146,#147,#92,.T.);
#185=EDGE_CURVE('',#138,#147,#119,.T.);
#186=EDGE_CURVE('',#144,#133,#31,.T.);
#187=EDGE_CURVE('',#137,#148,#120,.T.);
#188=EDGE_CURVE('',#147,#148,#121,.T.);
#189=EDGE_CURVE('',#148,#146,#32,.T.);
#190=ORIENTED_EDGE('',*,*,#149,.F.);
#191=ORIENTED_EDGE('',*,*,#150,.F.);
#192=ORIENTED_EDGE('',*,*,#151,.F.);
#193=ORIENTED_EDGE('',*,*,#152,.F.);
#194=ORIENTED_EDGE('',*,*,#153,.T.);
#195=ORIENTED_EDGE('',*,*,#154,.T.);
#196=ORIENTED_EDGE('',*,*,#153,.F.);
#197=ORIENTED_EDGE('',*,*,#155,.F.);
#198=ORIENTED_EDGE('',*,*,#151,.T.);
#199=ORIENTED_EDGE('',*,*,#156,.F.);
#200=ORIENTED_EDGE('',*,*,#157,.F.);
#201=ORIENTED_EDGE('',*,*,#158,.T.);
#202=ORIENTED_EDGE('',*,*,#157,.T.);
#203=ORIENTED_EDGE('',*,*,#159,.F.);
#204=ORIENTED_EDGE('',*,*,#160,.F.);
#205=ORIENTED_EDGE('',*,*,#161,.F.);
#206=ORIENTED_EDGE('',*,*,#160,.T.);
#207=ORIENTED_EDGE('',*,*,#162,.F.);
#208=ORIENTED_EDGE('',*,*,#163,.F.);
#209=ORIENTED_EDGE('',*,*,#162,.T.);
#210=ORIENTED_EDGE('',*,*,#159,.T.);
#211=ORIENTED_EDGE('',*,*,#156,.T.);
#212=ORIENTED_EDGE('',*,*,#150,.T.);
#213=ORIENTED_EDGE('',*,*,#164,.F.);
#214=ORIENTED_EDGE('',*,*,#152,.T.);
#215=ORIENTED_EDGE('',*,*,#163,.T.);
#216=ORIENTED_EDGE('',*,*,#164,.T.);
#217=ORIENTED_EDGE('',*,*,#149,.T.);
#218=ORIENTED_EDGE('',*,*,#165,.F.);
#219=ORIENTED_EDGE('',*,*,#166,.T.);
#220=ORIENTED_EDGE('',*,*,#167,.T.);
#221=ORIENTED_EDGE('',*,*,#168,.T.);
#222=ORIENTED_EDGE('',*,*,#169,.F.);
#223=ORIENTED_EDGE('',*,*,#170,.F.);
#224=ORIENTED_EDGE('',*,*,#171,.F.);
#225=ORIENTED_EDGE('',*,*,#168,.F.);
#226=ORIENTED_EDGE('',*,*,#172,.F.);
#227=ORIENTED_EDGE('',*,*,#173,.F.);
#228=ORIENTED_EDGE('',*,*,#174,.F.);
#229=ORIENTED_EDGE('',*,*,#175,.F.);
#230=ORIENTED_EDGE('',*,*,#175,.T.);
#231=ORIENTED_EDGE('',*,*,#176,.T.);
#232=ORIENTED_EDGE('',*,*,#177,.T.);
#233=ORIENTED_EDGE('',*,*,#176,.F.);
#234=ORIENTED_EDGE('',*,*,#177,.F.);
#235=ORIENTED_EDGE('',*,*,#178,.F.);
#236=ORIENTED_EDGE('',*,*,#179,.T.);
#237=ORIENTED_EDGE('',*,*,#172,.T.);
#238=ORIENTED_EDGE('',*,*,#167,.F.);
#239=ORIENTED_EDGE('',*,*,#180,.F.);
#240=ORIENTED_EDGE('',*,*,#181,.F.);
#241=ORIENTED_EDGE('',*,*,#182,.T.);
#242=ORIENTED_EDGE('',*,*,#173,.T.);
#243=ORIENTED_EDGE('',*,*,#179,.F.);
#244=ORIENTED_EDGE('',*,*,#183,.F.);
#245=ORIENTED_EDGE('',*,*,#184,.T.);
#246=ORIENTED_EDGE('',*,*,#185,.F.);
#247=ORIENTED_EDGE('',*,*,#174,.T.);
#248=ORIENTED_EDGE('',*,*,#182,.F.);
#249=ORIENTED_EDGE('',*,*,#186,.F.);
#250=ORIENTED_EDGE('',*,*,#180,.T.);
#251=ORIENTED_EDGE('',*,*,#166,.F.);
#252=ORIENTED_EDGE('',*,*,#187,.F.);
#253=ORIENTED_EDGE('',*,*,#169,.T.);
#254=ORIENTED_EDGE('',*,*,#171,.T.);
#255=ORIENTED_EDGE('',*,*,#185,.T.);
#256=ORIENTED_EDGE('',*,*,#188,.T.);
#257=ORIENTED_EDGE('',*,*,#189,.F.);
#258=ORIENTED_EDGE('',*,*,#188,.F.);
#259=ORIENTED_EDGE('',*,*,#184,.F.);
#260=ORIENTED_EDGE('',*,*,#170,.T.);
#261=ORIENTED_EDGE('',*,*,#187,.T.);
#262=ORIENTED_EDGE('',*,*,#189,.T.);
#263=ORIENTED_EDGE('',*,*,#183,.T.);
#264=ORIENTED_EDGE('',*,*,#181,.T.);
#265=ORIENTED_EDGE('',*,*,#178,.T.);
#266=ORIENTED_EDGE('',*,*,#186,.T.);
#267=ORIENTED_EDGE('',*,*,#165,.T.);
#268=ORIENTED_EDGE('',*,*,#155,.T.);
#269=ORIENTED_EDGE('',*,*,#158,.F.);
#270=ORIENTED_EDGE('',*,*,#161,.T.);
#271=ORIENTED_EDGE('',*,*,#154,.F.);
#272=PLANE('',#311);
#273=PLANE('',#318);
#274=PLANE('',#319);
#275=PLANE('',#320);
#276=PLANE('',#325);
#277=PLANE('',#326);
#278=PLANE('',#329);
#279=PLANE('',#334);
#280=ADVANCED_FACE('',(#39),#272,.T.);
#281=ADVANCED_FACE('',(#40),#33,.F.);
#282=ADVANCED_FACE('',(#41),#22,.T.);
#283=ADVANCED_FACE('',(#42),#34,.T.);
#284=ADVANCED_FACE('',(#43),#273,.T.);
#285=ADVANCED_FACE('',(#44,#17),#274,.T.);
#286=ADVANCED_FACE('',(#45),#15,.F.);
#287=ADVANCED_FACE('',(#46,#18),#275,.T.);
#288=ADVANCED_FACE('',(#47),#35,.F.);
#289=ADVANCED_FACE('',(#48),#276,.T.);
#290=ADVANCED_FACE('',(#49),#277,.F.);
#291=ADVANCED_FACE('',(#50),#36,.T.);
#292=ADVANCED_FACE('',(#51),#278,.F.);
#293=ADVANCED_FACE('',(#52),#37,.F.);
#294=ADVANCED_FACE('',(#53),#16,.F.);
#295=ADVANCED_FACE('',(#54),#38,.F.);
#296=ADVANCED_FACE('',(#55,#19),#279,.T.);
#297=CLOSED_SHELL('',(#280,#281,#282,#283,#284,#285,#286,#287,#288,#289,
#290,#291,#292,#293,#294,#295,#296));
#298=DERIVED_UNIT_ELEMENT(#300,1.);
#299=DERIVED_UNIT_ELEMENT(#1039,-3.);
#300=(
MASS_UNIT()
NAMED_UNIT(*)
SI_UNIT(.KILO.,.GRAM.)
);
#301=DERIVED_UNIT((#298,#299));
#302=MEASURE_REPRESENTATION_ITEM('density measure',
POSITIVE_RATIO_MEASURE(7850.),#301);
#303=PROPERTY_DEFINITION_REPRESENTATION(#308,#305);
#304=PROPERTY_DEFINITION_REPRESENTATION(#309,#306);
#305=REPRESENTATION('material name',(#307),#1036);
#306=REPRESENTATION('density',(#302),#1036);
#307=DESCRIPTIVE_REPRESENTATION_ITEM('Steel','Steel');
#308=PROPERTY_DEFINITION('material property','material name',#1046);
#309=PROPERTY_DEFINITION('material property','density of part',#1046);
#310=AXIS2_PLACEMENT_3D('',#402,#335,#336);
#311=AXIS2_PLACEMENT_3D('',#403,#337,#338);
#312=AXIS2_PLACEMENT_3D('',#413,#341,#342);
#313=AXIS2_PLACEMENT_3D('',#415,#343,#344);
#314=AXIS2_PLACEMENT_3D('',#418,#346,#347);
#315=AXIS2_PLACEMENT_3D('',#434,#349,#350);
#316=AXIS2_PLACEMENT_3D('',#436,#351,#352);
#317=AXIS2_PLACEMENT_3D('',#438,#353,#354);
#318=AXIS2_PLACEMENT_3D('',#440,#356,#357);
#319=AXIS2_PLACEMENT_3D('',#449,#360,#361);
#320=AXIS2_PLACEMENT_3D('',#670,#363,#364);
#321=AXIS2_PLACEMENT_3D('',#769,#366,#367);
#322=AXIS2_PLACEMENT_3D('',#772,#369,#370);
#323=AXIS2_PLACEMENT_3D('',#773,#371,#372);
#324=AXIS2_PLACEMENT_3D('',#776,#374,#375);
#325=AXIS2_PLACEMENT_3D('',#777,#376,#377);
#326=AXIS2_PLACEMENT_3D('',#778,#378,#379);
#327=AXIS2_PLACEMENT_3D('',#784,#383,#384);
#328=AXIS2_PLACEMENT_3D('',#786,#385,#386);
#329=AXIS2_PLACEMENT_3D('',#788,#388,#389);
#330=AXIS2_PLACEMENT_3D('',#797,#392,#393);
#331=AXIS2_PLACEMENT_3D('',#798,#394,#395);
#332=AXIS2_PLACEMENT_3D('',#1031,#396,#397);
#333=AXIS2_PLACEMENT_3D('',#1032,#398,#399);
#334=AXIS2_PLACEMENT_3D('',#1033,#400,#401);
#335=DIRECTION('axis',(0.,0.,1.));
#336=DIRECTION('refdir',(1.,0.,0.));
#337=DIRECTION('center_axis',(-0.457016150322294,-0.604265094634998,0.652686704131735));
#338=DIRECTION('ref_axis',(0.34659221959207,-0.796783342826491,-0.494984987562739));
#339=DIRECTION('',(0.34659221959207,-0.796783342826491,-0.494984987562739));
#340=DIRECTION('',(0.81915204428899,0.,0.573576436351048));
#341=DIRECTION('center_axis',(0.81915204428899,0.,0.573576436351048));
#342=DIRECTION('ref_axis',(0.,1.,0.));
#343=DIRECTION('center_axis',(-0.819152044288992,0.,-0.573576436351046));
#344=DIRECTION('ref_axis',(0.,1.,0.));
#345=DIRECTION('',(-0.81915204428899,0.,-0.573576436351048));
#346=DIRECTION('center_axis',(-0.819152044288992,0.,-0.573576436351046));
#347=DIRECTION('ref_axis',(0.,1.,0.));
#348=DIRECTION('',(0.81915204428899,0.,0.573576436351048));
#349=DIRECTION('center_axis',(0.81915204428899,0.,0.573576436351048));
#350=DIRECTION('ref_axis',(0.,1.,0.));
#351=DIRECTION('center_axis',(0.819152044288992,0.,0.573576436351046));
#352=DIRECTION('ref_axis',(0.,1.,0.));
#353=DIRECTION('center_axis',(0.819152044288992,0.,0.573576436351046));
#354=DIRECTION('ref_axis',(0.,1.,0.));
#355=DIRECTION('',(0.81915204428899,0.,0.573576436351048));
#356=DIRECTION('center_axis',(0.0431217915653897,0.997169937875698,-0.06158430067126));
#357=DIRECTION('ref_axis',(-0.571953179403137,0.0751805493261194,0.816833793114405));
#358=DIRECTION('',(0.571953179403137,-0.0751805493261194,-0.816833793114405));
#359=DIRECTION('',(-0.571953179403137,0.0751805493261194,0.816833793114405));
#360=DIRECTION('center_axis',(0.819152044288992,0.,0.573576436351046));
#361=DIRECTION('ref_axis',(0.,1.,0.));
#362=DIRECTION('',(0.819152044288992,0.,0.573576436351046));
#363=DIRECTION('center_axis',(0.819152044288993,-2.6625822408117E-16,0.573576436351045));
#364=DIRECTION('ref_axis',(0.573576436351045,-2.2186712959341E-31,-0.819152044288993));
#365=DIRECTION('',(-0.0494181463789856,0.9962814937182,0.0705764272480391));
#366=DIRECTION('center_axis',(-0.819152044288993,2.6625822408117E-16,-0.573576436351045));
#367=DIRECTION('ref_axis',(0.573576436351045,-2.03378202127292E-31,-0.819152044288993));
#368=DIRECTION('',(-0.049418146379266,-0.996281493718158,0.0705764272484385));
#369=DIRECTION('center_axis',(0.819152044288993,-2.6625822408117E-16,0.573576436351045));
#370=DIRECTION('ref_axis',(2.31795654554633E-16,1.,1.30707912576483E-17));
#371=DIRECTION('center_axis',(-0.819152044288993,1.97372982155583E-16,-0.573576436351044));
#372=DIRECTION('ref_axis',(2.31795654554633E-16,1.,1.30707912576483E-17));
#373=DIRECTION('',(-0.819152044288993,1.97372982155583E-16,-0.573576436351044));
#374=DIRECTION('center_axis',(-0.819152044288993,1.74584753021204E-16,-0.573576436351044));
#375=DIRECTION('ref_axis',(2.1312863007348E-16,1.,-3.96991118375499E-32));
#376=DIRECTION('center_axis',(0.819152044288993,-1.74584753021204E-16,0.573576436351044));
#377=DIRECTION('ref_axis',(2.1312863007348E-16,1.,-3.96991118375499E-32));
#378=DIRECTION('center_axis',(0.571443588769381,0.0861579089499774,-0.816106022266555));
#379=DIRECTION('ref_axis',(-0.0494181463789829,0.9962814937182,0.070576427248041));
#380=DIRECTION('',(-0.0494181463789859,0.9962814937182,0.0705764272480389));
#381=DIRECTION('',(0.819152044288993,-2.66453525910038E-16,0.573576436351045));
#382=DIRECTION('',(0.819152044288993,-2.66453525910038E-16,0.573576436351045));
#383=DIRECTION('center_axis',(0.819152044288993,-2.66453525910038E-16,0.573576436351045));
#384=DIRECTION('ref_axis',(0.573576436351045,-2.03378202127292E-31,-0.819152044288993));
#385=DIRECTION('center_axis',(-0.819152044288992,0.,-0.573576436351046));
#386=DIRECTION('ref_axis',(0.573576436351045,-2.03378202127292E-31,-0.819152044288993));
#387=DIRECTION('',(0.819152044288993,-2.66453525910038E-16,0.573576436351045));
#388=DIRECTION('center_axis',(-0.571443588769357,0.0861579089504654,0.81610602226652));
#389=DIRECTION('ref_axis',(-0.0494181463792696,-0.996281493718158,0.070576427248436));
#390=DIRECTION('',(-0.0494181463792659,-0.996281493718158,0.0705764272484386));
#391=DIRECTION('',(0.819152044288993,-2.66453525910038E-16,0.573576436351045));
#392=DIRECTION('center_axis',(0.819152044288993,-2.66453525910038E-16,0.573576436351045));
#393=DIRECTION('ref_axis',(0.573576436351045,-2.07075987620516E-31,-0.819152044288993));
#394=DIRECTION('center_axis',(0.819152044288992,0.,0.573576436351046));
#395=DIRECTION('ref_axis',(0.573576436351045,-2.07075987620516E-31,-0.819152044288993));
#396=DIRECTION('center_axis',(0.819152044288993,-2.66453525910038E-16,0.573576436351045));
#397=DIRECTION('ref_axis',(0.573576436351045,-2.07075987620516E-31,-0.819152044288993));
#398=DIRECTION('center_axis',(0.819152044288992,0.,0.573576436351046));
#399=DIRECTION('ref_axis',(0.573576436351045,-2.07075987620516E-31,-0.819152044288993));
#400=DIRECTION('center_axis',(-0.819152044288992,0.,-0.573576436351046));
#401=DIRECTION('ref_axis',(-0.573576436351046,0.,0.819152044288992));
#402=CARTESIAN_POINT('',(0.,0.,0.));
#403=CARTESIAN_POINT('Origin',(37.4339358884969,64.7000522266446,28.4807984705227));
#404=CARTESIAN_POINT('',(37.8437619457217,64.6994774192027,28.7672296015967));
#405=CARTESIAN_POINT('',(37.4339358884969,64.7000522266446,28.4807984705227));
#406=CARTESIAN_POINT('Ctrl Pts',(37.8437619457217,64.6994774192027,28.7672296015967));
#407=CARTESIAN_POINT('Ctrl Pts',(37.7071522118931,64.6996691677689,28.6717519592747));
#408=CARTESIAN_POINT('Ctrl Pts',(37.5705429573404,64.6998607708267,28.5762745178319));
#409=CARTESIAN_POINT('Ctrl Pts',(37.4339358884969,64.7000522266446,28.4807984705227));
#410=CARTESIAN_POINT('',(37.8435119106414,64.7000522266446,28.7675866886983));
#411=CARTESIAN_POINT('',(37.8435119106414,64.7000522266446,28.7675866886983));
#412=CARTESIAN_POINT('',(37.4339358884969,64.7000522266446,28.4807984705227));
#413=CARTESIAN_POINT('Origin',(34.1100569474524,71.095527725113,33.2277895548275));
#414=CARTESIAN_POINT('',(34.5196329695969,70.095527725113,33.514577773003));
#415=CARTESIAN_POINT('Origin',(34.5196329695969,71.095527725113,33.514577773003));
#416=CARTESIAN_POINT('',(34.1100569474524,70.095527725113,33.2277895548275));
#417=CARTESIAN_POINT('',(34.1100569474524,70.095527725113,33.2277895548275));
#418=CARTESIAN_POINT('Origin',(34.1100569474524,71.095527725113,33.2277895548275));
#419=CARTESIAN_POINT('Ctrl Pts',(33.7477898960018,68.6766251091554,33.7451605222649));
#420=CARTESIAN_POINT('Ctrl Pts',(34.1573659181463,68.6766251091554,34.0319487404405));
#421=CARTESIAN_POINT('Ctrl Pts',(36.18722285192,67.5661297802558,30.2612892086894));
#422=CARTESIAN_POINT('Ctrl Pts',(36.5967988740644,67.5661297802558,30.548077426865));
#423=CARTESIAN_POINT('Ctrl Pts',(37.4339358884969,64.7000522266446,28.4807984705227));
#424=CARTESIAN_POINT('Ctrl Pts',(37.8435119106414,64.7000522266446,28.7675866886983));
#425=CARTESIAN_POINT('',(33.7477898960018,68.6766251091554,33.7451605222649));
#426=CARTESIAN_POINT('Ctrl Pts',(37.4339358884969,64.7000522266446,28.4807984705227));
#427=CARTESIAN_POINT('Ctrl Pts',(36.18722285192,67.5661297802558,30.2612892086894));
#428=CARTESIAN_POINT('Ctrl Pts',(33.7477898960018,68.6766251091554,33.7451605222649));
#429=CARTESIAN_POINT('',(34.1573659181463,68.6766251091554,34.0319487404405));
#430=CARTESIAN_POINT('Ctrl Pts',(34.1573659181463,68.6766251091554,34.0319487404405));
#431=CARTESIAN_POINT('Ctrl Pts',(36.5967988740645,67.5661297802558,30.548077426865));
#432=CARTESIAN_POINT('Ctrl Pts',(37.8435119106414,64.7000522266446,28.7675866886983));
#433=CARTESIAN_POINT('',(33.7477898960018,68.6766251091554,33.7451605222649));
#434=CARTESIAN_POINT('Origin',(34.1100569474524,71.095527725113,33.2277895548275));
#435=CARTESIAN_POINT('',(34.2178614263659,73.5884525698022,33.0738288031494));
#436=CARTESIAN_POINT('Origin',(34.1100569474524,71.095527725113,33.2277895548275));
#437=CARTESIAN_POINT('',(34.6274374485103,73.5884525698022,33.3606170213249));
#438=CARTESIAN_POINT('Origin',(34.5196329695969,71.095527725113,33.514577773003));
#439=CARTESIAN_POINT('',(34.2178614263659,73.5884525698022,33.0738288031494));
#440=CARTESIAN_POINT('Origin',(37.9554596071447,73.0971629074482,27.7359854112671));
#441=CARTESIAN_POINT('',(37.9554596071447,73.0971629074482,27.7359854112671));
#442=CARTESIAN_POINT('',(34.2178614263659,73.5884525698022,33.0738288031494));
#443=CARTESIAN_POINT('',(38.3650788458794,73.0971716086136,28.0227119097554));
#444=CARTESIAN_POINT('',(34.6274374485103,73.5884525698022,33.3606170213249));
#445=CARTESIAN_POINT('Ctrl Pts',(37.9554596071447,73.0971629074482,27.7359854112671));
#446=CARTESIAN_POINT('Ctrl Pts',(38.0920085072981,73.0971677770869,27.8315465033982));
#447=CARTESIAN_POINT('Ctrl Pts',(38.2285582802664,73.0971726554478,27.927108114478));
#448=CARTESIAN_POINT('Ctrl Pts',(38.3651083184027,73.0971775425686,28.02266981863));
#449=CARTESIAN_POINT('Origin',(35.9444314138649,68.8001521249056,31.4797547148124));
#450=CARTESIAN_POINT('Ctrl Pts',(38.3649250968777,73.0943854882134,28.022931486072));
#451=CARTESIAN_POINT('Ctrl Pts',(38.350289221272,72.8872434778838,28.0438336826454));
#452=CARTESIAN_POINT('Ctrl Pts',(38.3356885430849,72.6781126650315,28.0646856120957));
#453=CARTESIAN_POINT('Ctrl Pts',(38.3210558763157,72.4658088359633,28.0855832259756));
#454=CARTESIAN_POINT('Ctrl Pts',(38.3113920278144,72.3255970705521,28.0993846319504));
#455=CARTESIAN_POINT('Ctrl Pts',(38.3017142269344,72.1840013387214,28.1132059639867));
#456=CARTESIAN_POINT('Ctrl Pts',(38.2920076478026,72.0407681886029,28.1270683956261));
#457=CARTESIAN_POINT('Ctrl Pts',(38.2823010686709,71.8975350384843,28.1409308272655));
#458=CARTESIAN_POINT('Ctrl Pts',(38.2725657112872,71.752664470078,28.1548343585079));
#459=CARTESIAN_POINT('Ctrl Pts',(38.2627842443158,71.6058623115722,28.1688037410662));
#460=CARTESIAN_POINT('Ctrl Pts',(38.2530027773444,71.4590601530664,28.1827731236245));
#461=CARTESIAN_POINT('Ctrl Pts',(38.2431752007853,71.3103264044612,28.1968083574986));
#462=CARTESIAN_POINT('Ctrl Pts',(38.233295358535,71.1595728754961,28.2109182345153));
#463=CARTESIAN_POINT('Ctrl Pts',(38.2234155162847,71.008819346531,28.2250281115321));
#464=CARTESIAN_POINT('Ctrl Pts',(38.2134834083432,70.856046037206,28.2392126316915));
#465=CARTESIAN_POINT('Ctrl Pts',(38.203479756718,70.7009281434087,28.2534993268202));
#466=CARTESIAN_POINT('Ctrl Pts',(38.1634651502173,70.0804565682196,28.3106461073351));
#467=CARTESIAN_POINT('Ctrl Pts',(38.1223058447772,69.4224716414747,28.3694276873589));
#468=CARTESIAN_POINT('Ctrl Pts',(38.0804149473072,68.7359432271421,28.4292540890816));
#469=CARTESIAN_POINT('Ctrl Pts',(38.0594694985722,68.3926790199757,28.459167289943));
#470=CARTESIAN_POINT('Ctrl Pts',(38.0383411518297,68.0422789409125,28.4893416962291));
#471=CARTESIAN_POINT('Ctrl Pts',(38.0171801159314,67.6875324700055,28.519562787468));
#472=CARTESIAN_POINT('Ctrl Pts',(37.996019080033,67.3327859990985,28.549783878707));
#473=CARTESIAN_POINT('Ctrl Pts',(37.9748253549787,66.9736931363478,28.5800516548988));
#474=CARTESIAN_POINT('Ctrl Pts',(37.9538040578165,66.6141684891061,28.6100731785403));
#475=CARTESIAN_POINT('Ctrl Pts',(37.9162994919645,65.9727325347072,28.6636352495061));
#476=CARTESIAN_POINT('Ctrl Pts',(37.8793437800458,65.3299221703249,28.7164134758211));
#477=CARTESIAN_POINT('Ctrl Pts',(37.8437687823735,64.7002870575052,28.7672198378373));
#478=CARTESIAN_POINT('Ctrl Pts',(36.9698158957666,55.0812250824848,29.1436305130294));
#479=CARTESIAN_POINT('Ctrl Pts',(59.6935961882314,56.9448916058247,44.8098405418455));
#480=CARTESIAN_POINT('Ctrl Pts',(82.4173764806963,58.8085581291645,60.4760505706616));
#481=CARTESIAN_POINT('Ctrl Pts',(105.141156773161,60.6722246525044,76.1422605994777));
#482=CARTESIAN_POINT('Ctrl Pts',(36.9977742808013,55.7953666169928,29.1037018011705));
#483=CARTESIAN_POINT('Ctrl Pts',(59.7194370078652,57.6067475880715,44.7729360267929));
#484=CARTESIAN_POINT('Ctrl Pts',(82.4410850769637,59.4175710866578,60.4421911861596));
#485=CARTESIAN_POINT('Ctrl Pts',(105.162747804028,61.2289520577365,76.111425411782));
#486=CARTESIAN_POINT('Ctrl Pts',(37.0515332384244,57.1194468082655,29.026926052995));
#487=CARTESIAN_POINT('Ctrl Pts',(59.7690693674723,58.8326666022883,44.7020536713489));
#488=CARTESIAN_POINT('Ctrl Pts',(82.486613693818,60.5463627286115,60.3771695827456));
#489=CARTESIAN_POINT('Ctrl Pts',(105.204149822866,62.2595825226343,76.0522972010995));
#490=CARTESIAN_POINT('Ctrl Pts',(37.1530117560337,59.4309433009192,28.881999710341));
#491=CARTESIAN_POINT('Ctrl Pts',(59.8626345447369,60.9705531951462,44.5684287499347));
#492=CARTESIAN_POINT('Ctrl Pts',(82.5722348566746,62.5099999038277,60.2548898896683));
#493=CARTESIAN_POINT('Ctrl Pts',(105.281857645378,64.0496097980547,75.9413189292619));
#494=CARTESIAN_POINT('Ctrl Pts',(37.295853030733,62.2620081724,28.6780012285978));
#495=CARTESIAN_POINT('Ctrl Pts',(59.9948192951299,63.5894293986442,44.3796493621385));
#496=CARTESIAN_POINT('Ctrl Pts',(82.6937554643985,64.9164844920363,60.0813404759668));
#497=CARTESIAN_POINT('Ctrl Pts',(105.392721728795,66.2439057182805,75.7829886095075));
#498=CARTESIAN_POINT('Ctrl Pts',(37.4790692032944,65.5175176086944,28.4163414169466));
#499=CARTESIAN_POINT('Ctrl Pts',(60.16523471905,66.6107069251308,44.136270914144));
#500=CARTESIAN_POINT('Ctrl Pts',(82.8513279456246,67.7031837247079,59.8563036509735));
#501=CARTESIAN_POINT('Ctrl Pts',(105.53749346138,68.7963730411443,75.5762331481709));
#502=CARTESIAN_POINT('Ctrl Pts',(37.6064049823202,67.674994696963,28.2344870779433));
#503=CARTESIAN_POINT('Ctrl Pts',(60.2829970805124,68.6070028038848,43.9680888323517));
#504=CARTESIAN_POINT('Ctrl Pts',(82.9595423821208,69.5386442526374,59.7017574191886));
#505=CARTESIAN_POINT('Ctrl Pts',(105.636134480313,70.4706523595592,75.4353591735969));
#506=CARTESIAN_POINT('Ctrl Pts',(37.6910371732785,69.0785301152906,28.1136197831196));
#507=CARTESIAN_POINT('Ctrl Pts',(60.3610713797791,69.9037215135472,43.8565871774757));
#508=CARTESIAN_POINT('Ctrl Pts',(83.0310440791241,70.7283923135574,59.599642413134));
#509=CARTESIAN_POINT('Ctrl Pts',(105.701078285625,71.553583711814,75.34260980749));
#510=CARTESIAN_POINT('Ctrl Pts',(37.763173009703,70.2316544780057,28.0105991321142));
#511=CARTESIAN_POINT('Ctrl Pts',(60.4272979156423,70.9657242654164,43.7620058822883));
#512=CARTESIAN_POINT('Ctrl Pts',(83.0913672077173,71.6993919263145,59.51349205727));
#513=CARTESIAN_POINT('Ctrl Pts',(105.755492113657,72.4334617137252,75.2648988074441));
#514=CARTESIAN_POINT('Ctrl Pts',(37.8228562913927,71.1496338888632,27.9253625723329));
#515=CARTESIAN_POINT('Ctrl Pts',(60.4819782342039,71.8097610214984,43.6839142943262));
#516=CARTESIAN_POINT('Ctrl Pts',(83.1410385893811,72.4693569846634,59.4425539725538));
#517=CARTESIAN_POINT('Ctrl Pts',(105.800160532192,73.1294841172985,75.2011056945471));
#518=CARTESIAN_POINT('Ctrl Pts',(37.8523839576244,71.5964898005876,27.8831926946602));
#519=CARTESIAN_POINT('Ctrl Pts',(60.5090254000876,72.2204790952041,43.6452869382812));
#520=CARTESIAN_POINT('Ctrl Pts',(83.1656056792644,72.8439837514139,59.407468532105));
#521=CARTESIAN_POINT('Ctrl Pts',(105.822247121728,73.4679730460303,75.1695627757259));
#522=CARTESIAN_POINT('Ctrl Pts',(37.881634386381,72.0317383871878,27.841418753135));
#523=CARTESIAN_POINT('Ctrl Pts',(60.535827344349,72.6205719733929,43.6070097950072));
#524=CARTESIAN_POINT('Ctrl Pts',(83.1899591166105,73.2088970072004,59.3726882191016));
#525=CARTESIAN_POINT('Ctrl Pts',(105.844152074579,73.7977305934055,75.1382792609737));
#526=CARTESIAN_POINT('Ctrl Pts',(37.9204037081006,72.5989462424869,27.7860504235982));
#527=CARTESIAN_POINT('Ctrl Pts',(60.571388562803,73.142243842898,43.5562231117547));
#528=CARTESIAN_POINT('Ctrl Pts',(83.2223086787869,73.6850264898592,59.3264882563597));
#529=CARTESIAN_POINT('Ctrl Pts',(105.873293533489,74.2283240902703,75.0966609445162));
#530=CARTESIAN_POINT('Ctrl Pts',(37.9590038280024,73.1495083608211,27.7309237392994));
#531=CARTESIAN_POINT('Ctrl Pts',(60.6068784209234,73.6493751470779,43.5055383416195));
#532=CARTESIAN_POINT('Ctrl Pts',(83.254691922031,74.1487459435833,59.2802401920661));
#533=CARTESIAN_POINT('Ctrl Pts',(105.902566514952,74.6486127298401,75.0548547943862));
#534=CARTESIAN_POINT('Ctrl Pts',(37.9930366859909,73.6238467250794,27.6823197809993));
#535=CARTESIAN_POINT('Ctrl Pts',(60.6383096587417,74.0876666147722,43.4606498819795));
#536=CARTESIAN_POINT('Ctrl Pts',(83.2835092419656,74.5509152374271,59.2390847940414));
#537=CARTESIAN_POINT('Ctrl Pts',(105.928782214716,75.0147351271199,75.0174148950216));
#538=CARTESIAN_POINT('Ctrl Pts',(38.0101471599396,73.8597533887171,27.6578834917349));
#539=CARTESIAN_POINT('Ctrl Pts',(60.6541411154043,74.3059690593864,43.438040218703));
#540=CARTESIAN_POINT('Ctrl Pts',(83.2980773438167,74.7517159166311,59.2182793884202));
#541=CARTESIAN_POINT('Ctrl Pts',(105.942071299281,75.1979315873004,74.9984361153883));
#542=CARTESIAN_POINT('Ctrl Pts',(38.019971754549,73.9945353274311,27.6438525165264));
#543=CARTESIAN_POINT('Ctrl Pts',(60.6632563552933,74.4309089016832,43.4250223070245));
#544=CARTESIAN_POINT('Ctrl Pts',(83.3064573439816,74.8666427604637,59.2063115078883));
#545=CARTESIAN_POINT('Ctrl Pts',(105.949741944726,75.3030163347159,74.9874812983864));
#546=CARTESIAN_POINT('Ctrl Pts',(38.1034186084173,75.1348942914356,27.5246780585065));
#547=CARTESIAN_POINT('Ctrl Pts',(60.7405346479766,75.4871095430195,43.3146574673654));
#548=CARTESIAN_POINT('Ctrl Pts',(83.377833669409,75.840458935912,59.1043755510032));
#549=CARTESIAN_POINT('Ctrl Pts',(106.014949708968,76.1926741874959,74.8943549598621));
#550=CARTESIAN_POINT('Ctrl Pts',(38.2334466241514,76.8314670367807,27.3389788070198));
#551=CARTESIAN_POINT('Ctrl Pts',(60.8634923047545,77.0842893123342,43.1390557349289));
#552=CARTESIAN_POINT('Ctrl Pts',(83.4935123033675,77.3368784040593,58.9391693405053));
#553=CARTESIAN_POINT('Ctrl Pts',(106.123557983971,77.5897006796128,74.7392462684143));
#554=CARTESIAN_POINT('Ctrl Pts',(38.4000195503236,78.8899998987511,27.1010880145333));
#555=CARTESIAN_POINT('Ctrl Pts',(61.0196700241943,79.010704961925,42.916010836217));
#556=CARTESIAN_POINT('Ctrl Pts',(83.6393825452729,79.1317917213033,58.7308450452952));
#557=CARTESIAN_POINT('Ctrl Pts',(106.259033019144,79.2524967844771,74.545767866979));
#558=CARTESIAN_POINT('Ctrl Pts',(38.4695660844522,79.6775236088888,27.0017652704469));
#559=CARTESIAN_POINT('Ctrl Pts',(61.082216949742,79.7203247433872,42.8266845691735));
#560=CARTESIAN_POINT('Ctrl Pts',(83.694895178976,79.7632774433138,58.6515647881376));
#561=CARTESIAN_POINT('Ctrl Pts',(106.307546044266,79.8060785778121,74.4764840868642));
#562=CARTESIAN_POINT('Ctrl Pts',(38.5001460815825,80.,26.9580925084991));
#563=CARTESIAN_POINT('Ctrl Pts',(61.1087425039602,80.,42.788802151789));
#564=CARTESIAN_POINT('Ctrl Pts',(83.7173389263379,80.,58.6195117950789));
#565=CARTESIAN_POINT('Ctrl Pts',(106.325935348716,80.,74.4502214383689));
#566=CARTESIAN_POINT('',(37.2440518842354,61.2058987058766,28.7519809327209));
#567=CARTESIAN_POINT('Ctrl Pts',(37.2440767509549,61.2066810433313,28.7519454193597));
#568=CARTESIAN_POINT('Ctrl Pts',(37.264283394824,61.5982318579391,28.7230873411948));
#569=CARTESIAN_POINT('Ctrl Pts',(37.2855010063698,62.0004465311881,28.6927854515576));
#570=CARTESIAN_POINT('Ctrl Pts',(37.3079994808069,62.4192417395026,28.6606543001351));
#571=CARTESIAN_POINT('Ctrl Pts',(37.3467306252738,63.1401980763715,28.6053404933652));
#572=CARTESIAN_POINT('Ctrl Pts',(37.3892576907149,63.9102919136284,28.5446055496219));
#573=CARTESIAN_POINT('Ctrl Pts',(37.4339423838036,64.7008555218902,28.4807891942546));
#574=CARTESIAN_POINT('',(67.6713448603877,61.3221064226774,49.974225132402));
#575=CARTESIAN_POINT('Ctrl Pts',(37.2440518842349,61.205898705875,28.7519809327217));
#576=CARTESIAN_POINT('Ctrl Pts',(47.327354133869,61.2424375480677,35.7878228128122));
#577=CARTESIAN_POINT('Ctrl Pts',(57.3382103617381,61.2799693127824,42.7709389865101));
#578=CARTESIAN_POINT('Ctrl Pts',(67.6713448603882,61.3221064226788,49.9742251324013));
#579=CARTESIAN_POINT('',(105.141156773046,60.6722246525041,76.1422605993984));
#580=CARTESIAN_POINT('Ctrl Pts',(67.6713448603877,61.3221064226773,49.974225132402));
#581=CARTESIAN_POINT('Ctrl Pts',(79.2371581992505,61.1702528689057,58.056663341126));
#582=CARTESIAN_POINT('Ctrl Pts',(91.4909484248504,60.9650140128842,66.6151921612853));
#583=CARTESIAN_POINT('Ctrl Pts',(105.141156772936,60.672224652504,76.1422605993214));
#584=CARTESIAN_POINT('',(106.325935348711,80.,74.4502214383657));
#585=CARTESIAN_POINT('Ctrl Pts',(105.141156773047,60.6722246525041,76.1422605993981));
#586=CARTESIAN_POINT('Ctrl Pts',(105.162747803913,61.2289520577329,76.1114254117025));
#587=CARTESIAN_POINT('Ctrl Pts',(105.183448813332,61.7442672901791,76.0818613063614));
#588=CARTESIAN_POINT('Ctrl Pts',(105.203512795855,62.2256783158287,76.0532069697112));
#589=CARTESIAN_POINT('Ctrl Pts',(105.223576778379,62.707089341481,76.0245526330608));
#590=CARTESIAN_POINT('Ctrl Pts',(105.243003734007,63.1545961603363,75.9968080651014));
#591=CARTESIAN_POINT('Ctrl Pts',(105.263345976654,63.599220434255,75.9677563318115));
#592=CARTESIAN_POINT('Ctrl Pts',(105.304030461947,64.4884689820923,75.9096528652317));
#593=CARTESIAN_POINT('Ctrl Pts',(105.348376095314,65.366187350183,75.8463207373299));
#594=CARTESIAN_POINT('Ctrl Pts',(105.402720408127,66.3722614948651,75.7687090153042));
#595=CARTESIAN_POINT('Ctrl Pts',(105.457064720941,67.3783356395471,75.6910972932785));
#596=CARTESIAN_POINT('Ctrl Pts',(105.521407713201,68.5127655608204,75.5992059771288));
#597=CARTESIAN_POINT('Ctrl Pts',(105.586884855083,69.6326005148968,75.5056949274594));
#598=CARTESIAN_POINT('Ctrl Pts',(105.603254140554,69.9125592534159,75.4823171650421));
#599=CARTESIAN_POINT('Ctrl Pts',(105.619694310376,70.1916058064852,75.4588381692797));
#600=CARTESIAN_POINT('Ctrl Pts',(105.636032370951,70.4664955020518,75.4355050006352));
#601=CARTESIAN_POINT('Ctrl Pts',(105.652370431526,70.7413851976183,75.4121718319907));
#602=CARTESIAN_POINT('Ctrl Pts',(105.668606382854,71.0121180356822,75.388984490464));
#603=CARTESIAN_POINT('Ctrl Pts',(105.684612619743,71.2764044993354,75.366125215156));
#604=CARTESIAN_POINT('Ctrl Pts',(105.716625093519,71.8049774266417,75.3204066645402));
#605=CARTESIAN_POINT('Ctrl Pts',(105.747718709537,72.3077648563055,75.2760003787997));
#606=CARTESIAN_POINT('Ctrl Pts',(105.777760589293,72.7795342908109,75.2330961281064));
#607=CARTESIAN_POINT('Ctrl Pts',(105.785271059232,72.8974766494373,75.2223700654331));
#608=CARTESIAN_POINT('Ctrl Pts',(105.792715795655,73.0134803833662,75.2117378799503));
#609=CARTESIAN_POINT('Ctrl Pts',(105.800119262122,73.1278970717861,75.201164634072));
#610=CARTESIAN_POINT('Ctrl Pts',(105.80752272859,73.2423137602059,75.1905913881937));
#611=CARTESIAN_POINT('Ctrl Pts',(105.814884925101,73.3551434031165,75.18007708192));
#612=CARTESIAN_POINT('Ctrl Pts',(105.822216848832,73.4665178158011,75.1696060096578));
#613=CARTESIAN_POINT('Ctrl Pts',(105.829548772563,73.5778922284856,75.1591349373955));
#614=CARTESIAN_POINT('Ctrl Pts',(105.836850423514,73.6878114109441,75.1487070991448));
#615=CARTESIAN_POINT('Ctrl Pts',(105.844143931353,73.7965951892814,75.1382908904622));
#616=CARTESIAN_POINT('Ctrl Pts',(105.851437439192,73.9053789676188,75.1278746817797));
#617=CARTESIAN_POINT('Ctrl Pts',(105.858722803919,74.0130273418351,75.1174701026653));
#618=CARTESIAN_POINT('Ctrl Pts',(105.86601912886,74.1198169779434,75.1070498707448));
#619=CARTESIAN_POINT('Ctrl Pts',(105.880611778741,74.3333962501601,75.086209406904));
#620=CARTESIAN_POINT('Ctrl Pts',(105.895248269472,74.5435405699451,75.065306331839));
#621=CARTESIAN_POINT('Ctrl Pts',(105.910114032959,74.7530638755039,75.0440758213451));
#622=CARTESIAN_POINT('Ctrl Pts',(105.917546914703,74.8578255282833,75.0334605660981));
#623=CARTESIAN_POINT('Ctrl Pts',(105.925037114636,74.9624319275061,75.022763451994));
#624=CARTESIAN_POINT('Ctrl Pts',(105.932596356352,75.0670898549349,75.0119677360037));
#625=CARTESIAN_POINT('Ctrl Pts',(105.936375977211,75.1194188186493,75.0065698780086));
#626=CARTESIAN_POINT('Ctrl Pts',(105.940172858515,75.1717606644152,75.0011473695419));
#627=CARTESIAN_POINT('Ctrl Pts',(105.943995367431,75.2242361954757,74.9956882610524));
#628=CARTESIAN_POINT('Ctrl Pts',(105.945906621889,75.2504739610059,74.9929587068076));
#629=CARTESIAN_POINT('Ctrl Pts',(105.94782428325,75.2767451478598,74.9902200025571));
#630=CARTESIAN_POINT('Ctrl Pts',(105.94974205164,75.3029639450041,74.9874811454536));
#631=CARTESIAN_POINT('Ctrl Pts',(105.95165982003,75.3291827421484,74.98474228835));
#632=CARTESIAN_POINT('Ctrl Pts',(105.953577695449,75.3553491495831,74.9820032783934));
#633=CARTESIAN_POINT('Ctrl Pts',(105.955504619959,75.3815865975422,74.9792513449961));
#634=CARTESIAN_POINT('Ctrl Pts',(106.017166204262,76.2211849322313,74.8911894762833));
#635=CARTESIAN_POINT('Ctrl Pts',(106.088094057325,77.1335287638181,74.7898940043174));
#636=CARTESIAN_POINT('Ctrl Pts',(106.15689502007,77.9919087426354,74.691636046517));
#637=CARTESIAN_POINT('Ctrl Pts',(106.191295501443,78.421098732044,74.6425070676168));
#638=CARTESIAN_POINT('Ctrl Pts',(106.225164260236,78.8367977582603,74.5941374672579));
#639=CARTESIAN_POINT('Ctrl Pts',(106.254226895913,79.1830427197023,74.5526317220498));
#640=CARTESIAN_POINT('Ctrl Pts',(106.28328953159,79.5292876811442,74.5111259768416));
#641=CARTESIAN_POINT('Ctrl Pts',(106.307546044151,79.8060785778119,74.4764840867842));
#642=CARTESIAN_POINT('Ctrl Pts',(106.325935348601,80.,74.4502214382888));
#643=CARTESIAN_POINT('',(38.5001460815826,80.,26.9580925084992));
#644=CARTESIAN_POINT('',(16.3830408857799,80.,11.4715287270209));
#645=CARTESIAN_POINT('Ctrl Pts',(37.9552762247688,73.0943681575111,27.7362473084278));
#646=CARTESIAN_POINT('Ctrl Pts',(37.9597641739584,73.1578624765716,27.7298378527383));
#647=CARTESIAN_POINT('Ctrl Pts',(37.9642554737406,73.2211712682877,27.7234236119066));
#648=CARTESIAN_POINT('Ctrl Pts',(37.9687520496253,73.2843285135345,27.7170018360196));
#649=CARTESIAN_POINT('Ctrl Pts',(37.9784511754245,73.420558854683,27.7031500488423));
#650=CARTESIAN_POINT('Ctrl Pts',(37.9881748491355,73.5560841016139,27.6892632036136));
#651=CARTESIAN_POINT('Ctrl Pts',(37.9979343494958,73.6911283891195,27.6753251926272));
#652=CARTESIAN_POINT('Ctrl Pts',(38.0028140996759,73.7586505328724,27.668356187134));
#653=CARTESIAN_POINT('Ctrl Pts',(38.0077028065184,73.8260524367688,27.6613743902013));
#654=CARTESIAN_POINT('Ctrl Pts',(38.0126072403357,73.8934470509723,27.6543701328209));
#655=CARTESIAN_POINT('Ctrl Pts',(38.0150594572444,73.9271443580741,27.6508680041307));
#656=CARTESIAN_POINT('Ctrl Pts',(38.0175156058967,73.9608398427526,27.6473602603286));
#657=CARTESIAN_POINT('Ctrl Pts',(38.0199708398386,73.9944575698566,27.6438538228685));
#658=CARTESIAN_POINT('Ctrl Pts',(38.0224260737805,74.0280752969606,27.6403473854083));
#659=CARTESIAN_POINT('Ctrl Pts',(38.0248803930119,74.0616152664902,27.63684225429));
#660=CARTESIAN_POINT('Ctrl Pts',(38.0273407520537,74.0951880834151,27.6333284974286));
#661=CARTESIAN_POINT('Ctrl Pts',(38.1060722413915,75.169518225014,27.520888277864));
#662=CARTESIAN_POINT('Ctrl Pts',(38.1909884965648,76.2774840995251,27.3996152973012));
#663=CARTESIAN_POINT('Ctrl Pts',(38.27481822368,77.3329836783523,27.2798940396181));
#664=CARTESIAN_POINT('Ctrl Pts',(38.3167330872376,77.8607334677659,27.2200334107766));
#665=CARTESIAN_POINT('Ctrl Pts',(38.3583763187806,78.3753666832585,27.160560712655));
#666=CARTESIAN_POINT('Ctrl Pts',(38.3965845680843,78.8295642185392,27.1059936775726));
#667=CARTESIAN_POINT('Ctrl Pts',(38.434792817388,79.28376175382,27.0514266424902));
#668=CARTESIAN_POINT('Ctrl Pts',(38.4695660844523,79.6775236088888,27.001765270447));
#669=CARTESIAN_POINT('Ctrl Pts',(38.5001460815826,80.,26.9580925084992));
#670=CARTESIAN_POINT('Origin',(106.325935348711,68.75,74.4502214383659));
#671=CARTESIAN_POINT('',(107.510713924156,60.6722246525012,72.7581822771794));
#672=CARTESIAN_POINT('Ctrl Pts',(106.325935348711,80.,74.4502214383658));
#673=CARTESIAN_POINT('Ctrl Pts',(106.344324653161,79.8060785778121,74.4239587898705));
#674=CARTESIAN_POINT('Ctrl Pts',(106.368578824639,79.5292647859905,74.3893202432228));
#675=CARTESIAN_POINT('Ctrl Pts',(106.397637282602,79.1830404705414,74.3478204644068));
#676=CARTESIAN_POINT('Ctrl Pts',(106.426695740565,78.8368161550923,74.3063206855908));
#677=CARTESIAN_POINT('Ctrl Pts',(106.460558485013,78.4211813160158,74.2579596746065));
#678=CARTESIAN_POINT('Ctrl Pts',(106.494955943322,77.9920094671356,74.2088350130883));
#679=CARTESIAN_POINT('Ctrl Pts',(106.563750859938,77.1336657693753,74.1105856900519));
#680=CARTESIAN_POINT('Ctrl Pts',(106.634684631998,76.2211740324005,74.00928176488));
#681=CARTESIAN_POINT('Ctrl Pts',(106.696312653226,75.3820147373243,73.9212678292051));
#682=CARTESIAN_POINT('Ctrl Pts',(106.697275591058,75.3689028733388,73.9198926114602));
#683=CARTESIAN_POINT('Ctrl Pts',(106.698236256978,75.3558089127814,73.9185206383416));
#684=CARTESIAN_POINT('Ctrl Pts',(106.699198103358,75.3426855325448,73.9171469793517));
#685=CARTESIAN_POINT('Ctrl Pts',(106.700159949737,75.3295621523082,73.9157733203618));
#686=CARTESIAN_POINT('Ctrl Pts',(106.701122976577,75.3164093523923,73.9143979755005));
#687=CARTESIAN_POINT('Ctrl Pts',(106.702083543443,75.3032768238257,73.9130261438448));
#688=CARTESIAN_POINT('Ctrl Pts',(106.70304411031,75.2901442952591,73.9116543121891));
#689=CARTESIAN_POINT('Ctrl Pts',(106.704002217203,75.2770320380417,73.9102859937389));
#690=CARTESIAN_POINT('Ctrl Pts',(106.704959459269,75.2639181300617,73.9089189103913));
#691=CARTESIAN_POINT('Ctrl Pts',(106.705916701334,75.2508042220816,73.9075518270438));
#692=CARTESIAN_POINT('Ctrl Pts',(106.706873078571,75.237688663339,73.9061859787988));
#693=CARTESIAN_POINT('Ctrl Pts',(106.707828126151,75.2245777043527,73.9048220295009));
#694=CARTESIAN_POINT('Ctrl Pts',(106.711648316472,75.1721338684075,73.8993662323093));
#695=CARTESIAN_POINT('Ctrl Pts',(106.715447232279,75.1197636285631,73.8939408182706));
#696=CARTESIAN_POINT('Ctrl Pts',(106.719227864687,75.0674199275639,73.8885415156333));
#697=CARTESIAN_POINT('Ctrl Pts',(106.726789129503,74.9627325255656,73.8777429103587));
#698=CARTESIAN_POINT('Ctrl Pts',(106.734277260718,74.8581512789484,73.8670487506896));
#699=CARTESIAN_POINT('Ctrl Pts',(106.741710437031,74.7533834214647,73.8564330747543));
#700=CARTESIAN_POINT('Ctrl Pts',(106.749143613344,74.648615563981,73.8458173988191));
#701=CARTESIAN_POINT('Ctrl Pts',(106.756521834755,74.5436610956307,73.8352802066176));
#702=CARTESIAN_POINT('Ctrl Pts',(106.763865843384,74.4381984275264,73.8247918753325));
#703=CARTESIAN_POINT('Ctrl Pts',(106.771209852013,74.332735759422,73.8143035440474));
#704=CARTESIAN_POINT('Ctrl Pts',(106.77851964786,74.2267648915636,73.8038640736787));
#705=CARTESIAN_POINT('Ctrl Pts',(106.785817008673,74.1199577597883,73.7934423623794));
#706=CARTESIAN_POINT('Ctrl Pts',(106.793114369485,74.013150628013,73.7830206510801));
#707=CARTESIAN_POINT('Ctrl Pts',(106.800399295264,73.9055072323209,73.7726166988502));
#708=CARTESIAN_POINT('Ctrl Pts',(106.80769313085,73.7967167075984,73.7622000220967));
#709=CARTESIAN_POINT('Ctrl Pts',(106.814986966436,73.6879261828759,73.7517833453431));
#710=CARTESIAN_POINT('Ctrl Pts',(106.822289711829,73.5779885291232,73.7413539440659));
#711=CARTESIAN_POINT('Ctrl Pts',(106.829621304765,73.4666162889708,73.7308833442286));
#712=CARTESIAN_POINT('Ctrl Pts',(106.844284490636,73.2438718086661,73.709942144554));
#713=CARTESIAN_POINT('Ctrl Pts',(106.859063066677,73.0153889827628,73.6888361506391));
#714=CARTESIAN_POINT('Ctrl Pts',(106.874080684115,72.7795452369023,73.6673887702283));
#715=CARTESIAN_POINT('Ctrl Pts',(106.889098301554,72.5437014910417,73.6459413898175));
#716=CARTESIAN_POINT('Ctrl Pts',(106.90435496039,72.3004968252239,73.6241526229108));
#717=CARTESIAN_POINT('Ctrl Pts',(106.919883701871,72.0497895362901,73.601975281718));
#718=CARTESIAN_POINT('Ctrl Pts',(106.923765887241,71.9871127140567,73.5964309464198));
#719=CARTESIAN_POINT('Ctrl Pts',(106.927665077777,71.9239669778785,73.5908623252288));
#720=CARTESIAN_POINT('Ctrl Pts',(106.931580240431,71.8603742641809,73.5852708934876));
#721=CARTESIAN_POINT('Ctrl Pts',(106.935495403086,71.7967815504834,73.5796794617464));
#722=CARTESIAN_POINT('Ctrl Pts',(106.939426537859,71.7327418592665,73.5740652194551));
#723=CARTESIAN_POINT('Ctrl Pts',(106.943373139158,71.6682679105197,73.568428888677));
#724=CARTESIAN_POINT('Ctrl Pts',(106.951266341755,71.5393200130261,73.5571562271208));
#725=CARTESIAN_POINT('Ctrl Pts',(106.959221410453,71.4086350854128,73.5457952116175));
#726=CARTESIAN_POINT('Ctrl Pts',(106.967229622638,71.2764019703724,73.5343582993481));
#727=CARTESIAN_POINT('Ctrl Pts',(106.975237834823,71.1441688553321,73.5229213870788));
#728=CARTESIAN_POINT('Ctrl Pts',(106.983299190495,71.0103875528646,73.5114085780434));
#729=CARTESIAN_POINT('Ctrl Pts',(106.991401119958,70.8753001665359,73.4998378236305));
#730=CARTESIAN_POINT('Ctrl Pts',(106.999503049421,70.7402127802071,73.4882670692176));
#731=CARTESIAN_POINT('Ctrl Pts',(107.007645552674,70.603819310017,73.4766383694272));
#732=CARTESIAN_POINT('Ctrl Pts',(107.01581289886,70.4664144241881,73.4649741902507));
#733=CARTESIAN_POINT('Ctrl Pts',(107.023980245047,70.3290095383592,73.4533100110741));
#734=CARTESIAN_POINT('Ctrl Pts',(107.032172434167,70.1905932368915,73.4416103525114));
#735=CARTESIAN_POINT('Ctrl Pts',(107.040371585222,70.0514832773043,73.4299007512751));
#736=CARTESIAN_POINT('Ctrl Pts',(107.048570736277,69.9123733177172,73.4181911500388));
#737=CARTESIAN_POINT('Ctrl Pts',(107.056776849268,69.7725697000106,73.4064716061288));
#738=CARTESIAN_POINT('Ctrl Pts',(107.064970325689,69.6324251474199,73.3947701091105));
#739=CARTESIAN_POINT('Ctrl Pts',(107.097744231372,69.0718469370569,73.3479641210371));
#740=CARTESIAN_POINT('Ctrl Pts',(107.130315951946,68.5058137685468,73.3014468832296));
#741=CARTESIAN_POINT('Ctrl Pts',(107.161381350067,67.9564297743653,73.257080896826));
#742=CARTESIAN_POINT('Ctrl Pts',(107.176914049128,67.6817377772746,73.2348979036242));
#743=CARTESIAN_POINT('Ctrl Pts',(107.192070167576,67.411208073766,73.2132527232733));
#744=CARTESIAN_POINT('Ctrl Pts',(107.206733204546,67.1466025199812,73.1923117362523));
#745=CARTESIAN_POINT('Ctrl Pts',(107.214064723031,67.0142997430888,73.1818412427418));
#746=CARTESIAN_POINT('Ctrl Pts',(107.221272971147,66.8834780036274,73.1715467975638));
#747=CARTESIAN_POINT('Ctrl Pts',(107.228346918327,66.7542999495914,73.1614441539982));
#748=CARTESIAN_POINT('Ctrl Pts',(107.231883891918,66.6897109225733,73.1563928322154));
#749=CARTESIAN_POINT('Ctrl Pts',(107.235387290274,66.6255328169117,73.1513894608357));
#750=CARTESIAN_POINT('Ctrl Pts',(107.238857402323,66.5617535922676,73.1464336272306));
#751=CARTESIAN_POINT('Ctrl Pts',(107.240592458347,66.5298639799456,73.1439557104281));
#752=CARTESIAN_POINT('Ctrl Pts',(107.242319192794,66.4980740878779,73.1414896780692));
#753=CARTESIAN_POINT('Ctrl Pts',(107.244035954873,66.4664137693105,73.1390378877277));
#754=CARTESIAN_POINT('Ctrl Pts',(107.244894335913,66.4505836100268,73.1378119925569));
#755=CARTESIAN_POINT('Ctrl Pts',(107.24575022386,66.4347858441182,73.1365896578906));
#756=CARTESIAN_POINT('Ctrl Pts',(107.246605237823,66.4189905281475,73.1353685714038));
#757=CARTESIAN_POINT('Ctrl Pts',(107.247460251786,66.4031952121768,73.1341474849171));
#758=CARTESIAN_POINT('Ctrl Pts',(107.248314391764,66.3874023461441,73.1329276466101));
#759=CARTESIAN_POINT('Ctrl Pts',(107.249165900266,66.3716441275626,73.13171156644));
#760=CARTESIAN_POINT('Ctrl Pts',(107.303662444403,65.3631181383425,73.0538824355531));
#761=CARTESIAN_POINT('Ctrl Pts',(107.347380463579,64.4965081088705,72.9914466336035));
#762=CARTESIAN_POINT('Ctrl Pts',(107.388347818111,63.6021484400276,72.9329391878773));
#763=CARTESIAN_POINT('Ctrl Pts',(107.429315172643,62.7077887711871,72.8744317421512));
#764=CARTESIAN_POINT('Ctrl Pts',(107.467531862532,61.7856794629758,72.8198526526486));
#765=CARTESIAN_POINT('Ctrl Pts',(107.510713924265,60.6722246525102,72.7581822772575));
#766=CARTESIAN_POINT('',(105.183048171172,59.8276841821,76.082433482899));
#767=CARTESIAN_POINT('',(104.967647738148,64.1702077465235,76.3900571819739));
#768=CARTESIAN_POINT('',(107.46882252625,59.8276841820991,72.8180093938329));
#769=CARTESIAN_POINT('Origin',(106.325935348711,60.,74.4502214383659));
#770=CARTESIAN_POINT('',(107.72128656906,64.9174188668108,72.4574533743199));
#771=CARTESIAN_POINT('',(106.325935348711,58.975,74.4502214383658));
#772=CARTESIAN_POINT('Origin',(106.325935348711,60.,74.4502214383658));
#773=CARTESIAN_POINT('Origin',(114.681286200459,60.,80.3007010891465));
#774=CARTESIAN_POINT('',(40.9576022144495,58.975,28.6788218175525));
#775=CARTESIAN_POINT('',(114.681286200459,58.975,80.3007010891465));
#776=CARTESIAN_POINT('Origin',(40.9576022144495,60.,28.6788218175525));
#777=CARTESIAN_POINT('Origin',(40.9576022144495,60.,28.6788218175525));
#778=CARTESIAN_POINT('Origin',(23.4316741511309,59.8276841821001,18.8395051350647));
#779=CARTESIAN_POINT('',(37.3572589040437,59.8276841821001,28.5903045530325));
#780=CARTESIAN_POINT('',(37.2831316844753,61.3221064226774,28.6961691939045));
#781=CARTESIAN_POINT('',(37.1858556012472,63.2832152177797,28.8350938382703));
#782=CARTESIAN_POINT('',(23.4316741511309,59.8276841821001,18.8395051350647));
#783=CARTESIAN_POINT('',(23.3575469315624,61.3221064226774,18.9453697759368));
#784=CARTESIAN_POINT('Origin',(24.5745613286697,60.,17.2072930905316));
#785=CARTESIAN_POINT('',(39.6430332591212,59.8276841820991,25.3258804639663));
#786=CARTESIAN_POINT('Origin',(38.5001460815825,60.,26.9580925084994));
#787=CARTESIAN_POINT('',(25.7174485062084,59.8276841820991,15.5750810459986));
#788=CARTESIAN_POINT('Origin',(25.7915757257773,61.3221064226763,15.4692164051259));
#789=CARTESIAN_POINT('',(39.7171604786901,61.3221064226763,25.2200158230937));
#790=CARTESIAN_POINT('',(39.8520390361478,64.0412899724433,25.0273892801082));
#791=CARTESIAN_POINT('',(70.1053736544438,61.3221064226763,46.4980717614799));
#792=CARTESIAN_POINT('',(25.7915757257773,61.3221064226763,15.4692164051259));
#793=CARTESIAN_POINT('Ctrl Pts',(107.510713924046,60.672224652501,72.7581822771024));
#794=CARTESIAN_POINT('Ctrl Pts',(93.8895518519274,60.9650140117581,63.1896315697202));
#795=CARTESIAN_POINT('Ctrl Pts',(81.6561223314351,61.1702528689259,54.602024533747));
#796=CARTESIAN_POINT('Ctrl Pts',(70.1053736544437,61.3221064226762,46.4980717614799));
#797=CARTESIAN_POINT('Origin',(24.5745613286697,60.,17.2072930905316));
#798=CARTESIAN_POINT('Origin',(38.5001460815825,60.,26.9580925084994));
#799=CARTESIAN_POINT('Ctrl Pts',(38.5001460698903,80.,26.9580925003121));
#800=CARTESIAN_POINT('Ctrl Pts',(61.108742496164,80.,42.7888021463301));
#801=CARTESIAN_POINT('Ctrl Pts',(83.7173389224377,80.,58.619511792348));
#802=CARTESIAN_POINT('Ctrl Pts',(106.325935348711,80.,74.4502214383659));
#803=CARTESIAN_POINT('Ctrl Pts',(38.5307260670228,79.6775236088666,26.9144197383613));
#804=CARTESIAN_POINT('Ctrl Pts',(61.1352672730943,79.7203298955628,42.7509208390277));
#805=CARTESIAN_POINT('Ctrl Pts',(83.7397834470896,79.7632722911159,58.5874576892042));
#806=CARTESIAN_POINT('Ctrl Pts',(106.344324653161,79.8060785778121,74.4239587898706));
#807=CARTESIAN_POINT('Ctrl Pts',(38.6002784015058,78.8898090545187,26.8150887105083));
#808=CARTESIAN_POINT('Ctrl Pts',(61.1978220971325,79.0105053623857,42.6615832917689));
#809=CARTESIAN_POINT('Ctrl Pts',(83.7952893004913,79.1317546863019,58.5081871153146));
#810=CARTESIAN_POINT('Ctrl Pts',(106.392832996118,79.2524509941689,74.3546816965752));
#811=CARTESIAN_POINT('Ctrl Pts',(38.7668390042423,76.8314046058507,26.5772155177105));
#812=CARTESIAN_POINT('Ctrl Pts',(61.3539839213911,77.0842418026842,42.4385610937266));
#813=CARTESIAN_POINT('Ctrl Pts',(83.9411390567598,77.3370744410292,58.299892076622));
#814=CARTESIAN_POINT('Ctrl Pts',(106.528283973909,77.5899116378627,74.161237652638));
#815=CARTESIAN_POINT('Ctrl Pts',(38.8955558105721,75.1518064829877,26.3933888673195));
#816=CARTESIAN_POINT('Ctrl Pts',(61.4757079595607,75.5029863478459,42.2647211512455));
#817=CARTESIAN_POINT('Ctrl Pts',(84.0556408231979,75.855736484152,58.1363666071233));
#818=CARTESIAN_POINT('Ctrl Pts',(106.635792972187,76.2069163490103,74.0076988910493));
#819=CARTESIAN_POINT('Ctrl Pts',(38.9766225539897,74.044828263349,26.2776135592952));
#820=CARTESIAN_POINT('Ctrl Pts',(61.5508001834574,74.4775072937231,42.1574783413661));
#821=CARTESIAN_POINT('Ctrl Pts',(84.1250192934302,74.91003592185,58.0372838831522));
#822=CARTESIAN_POINT('Ctrl Pts',(106.699196922898,75.342714952224,73.9171486652231));
#823=CARTESIAN_POINT('Ctrl Pts',(38.9803142725744,73.9943089878024,26.2723412387571));
#824=CARTESIAN_POINT('Ctrl Pts',(61.5542299970248,74.4306377593281,42.1525800599563));
#825=CARTESIAN_POINT('Ctrl Pts',(84.128170278966,74.8669277809508,58.0327838094401));
#826=CARTESIAN_POINT('Ctrl Pts',(106.702086003416,75.3032565524765,73.9130226306393));
#827=CARTESIAN_POINT('Ctrl Pts',(38.9839960839138,73.9438511809417,26.2670830672316));
#828=CARTESIAN_POINT('Ctrl Pts',(61.5576398798739,74.3839051920811,42.1477102425622));
#829=CARTESIAN_POINT('Ctrl Pts',(84.1313165281367,74.8238657696849,58.0282904999582));
#830=CARTESIAN_POINT('Ctrl Pts',(106.704960324097,75.2639197808243,73.9089176752888));
#831=CARTESIAN_POINT('Ctrl Pts',(38.9913546838315,73.842824334229,26.2565738974266));
#832=CARTESIAN_POINT('Ctrl Pts',(61.5644595502721,74.2903150056128,42.1379707438764));
#833=CARTESIAN_POINT('Ctrl Pts',(84.1375937210793,74.7377357569848,58.0193257393693));
#834=CARTESIAN_POINT('Ctrl Pts',(106.71069858752,75.1852264283686,73.9007225858191));
#835=CARTESIAN_POINT('Ctrl Pts',(39.0072482363028,73.623683710115,26.2338755521446));
#836=CARTESIAN_POINT('Ctrl Pts',(61.5791700551135,74.0874911201711,42.1169619657089));
#837=CARTESIAN_POINT('Ctrl Pts',(84.1511232450845,74.5512157388181,58.000003576629));
#838=CARTESIAN_POINT('Ctrl Pts',(106.723045063895,75.0150231488742,73.8830899901933));
#839=CARTESIAN_POINT('Ctrl Pts',(39.0315540629201,73.2849166388183,26.1991632343089));
#840=CARTESIAN_POINT('Ctrl Pts',(61.6016150623674,73.7744876248892,42.0849071733379));
#841=CARTESIAN_POINT('Ctrl Pts',(84.1717043924855,74.2639990462603,57.9706106519916));
#842=CARTESIAN_POINT('Ctrl Pts',(106.741765391933,74.7535700323312,73.8563545910207));
#843=CARTESIAN_POINT('Ctrl Pts',(39.0605843518627,72.8740033966567,26.1577036850203));
#844=CARTESIAN_POINT('Ctrl Pts',(61.6283469561436,73.3955890603118,42.0467300725248));
#845=CARTESIAN_POINT('Ctrl Pts',(84.1961374518849,73.9171209636253,57.9357166269117));
#846=CARTESIAN_POINT('Ctrl Pts',(106.763900056166,74.4387066272804,73.8247430144162));
#847=CARTESIAN_POINT('Ctrl Pts',(39.0895838887937,72.4567928405239,26.1162880541558));
#848=CARTESIAN_POINT('Ctrl Pts',(61.6549903874313,73.0114723460125,42.0086793092386));
#849=CARTESIAN_POINT('Ctrl Pts',(84.2204229450695,73.5661145182166,57.9010333482273));
#850=CARTESIAN_POINT('Ctrl Pts',(106.785829443707,74.1207940237052,73.79342460331));
#851=CARTESIAN_POINT('Ctrl Pts',(39.1186601657825,72.0313953820576,26.0747628271307));
#852=CARTESIAN_POINT('Ctrl Pts',(61.6816598430252,72.6202273327207,41.9705913793912));
#853=CARTESIAN_POINT('Ctrl Pts',(84.2446845437999,73.2090318859655,57.86638419436));
#854=CARTESIAN_POINT('Ctrl Pts',(106.807684221043,73.7978638366287,73.7622127466205));
#855=CARTESIAN_POINT('Ctrl Pts',(39.157665267186,71.4509803410666,26.0190577693086));
#856=CARTESIAN_POINT('Ctrl Pts',(61.7174005649902,72.086696706582,41.9195483385574));
#857=CARTESIAN_POINT('Ctrl Pts',(84.2771599048118,72.7223968561023,57.8200045722627));
#858=CARTESIAN_POINT('Ctrl Pts',(106.836895202616,73.3581132216177,73.7204951415116));
#859=CARTESIAN_POINT('Ctrl Pts',(39.2070968964898,70.696738903325,25.9484620864485));
#860=CARTESIAN_POINT('Ctrl Pts',(61.7626719457625,71.393451398763,41.854894106345));
#861=CARTESIAN_POINT('Ctrl Pts',(84.3182665934448,72.0901936614216,57.7612981368277));
#862=CARTESIAN_POINT('Ctrl Pts',(106.873841642718,72.7869061568595,73.6677301567243));
#863=CARTESIAN_POINT('Ctrl Pts',(39.2527682156583,69.9775918728552,25.8832366830128));
#864=CARTESIAN_POINT('Ctrl Pts',(61.8045632577905,70.731601674644,41.7950671125726));
#865=CARTESIAN_POINT('Ctrl Pts',(84.3563740829674,71.4856858569807,57.7068750016244));
#866=CARTESIAN_POINT('Ctrl Pts',(106.9081691251,72.2396956587694,73.6187054311842));
#867=CARTESIAN_POINT('Ctrl Pts',(39.2836998596039,69.4818837580585,25.8390617173666));
#868=CARTESIAN_POINT('Ctrl Pts',(61.8329829598842,70.2748364228057,41.7544795716751));
#869=CARTESIAN_POINT('Ctrl Pts',(84.3822811680317,71.0678685769531,57.6698758497293));
#870=CARTESIAN_POINT('Ctrl Pts',(106.931564268312,71.8608212417003,73.5852937040378));
#871=CARTESIAN_POINT('Ctrl Pts',(39.3044380161707,69.1473073847032,25.8094445604022));
#872=CARTESIAN_POINT('Ctrl Pts',(61.8520499763003,69.9663979813916,41.7272490501861));
#873=CARTESIAN_POINT('Ctrl Pts',(84.3996768472774,70.7855718801444,57.6450322450886));
#874=CARTESIAN_POINT('Ctrl Pts',(106.947288807407,71.6046624768328,73.5628367348725));
#875=CARTESIAN_POINT('Ctrl Pts',(39.3305661820526,68.7216737018687,25.7721296723783));
#876=CARTESIAN_POINT('Ctrl Pts',(61.8760982718869,69.573734679865,41.6929045247785));
#877=CARTESIAN_POINT('Ctrl Pts',(84.4216443893157,70.4258891798032,57.613659343714));
#878=CARTESIAN_POINT('Ctrl Pts',(106.96717647915,71.2779501577995,73.5344341961142));
#879=CARTESIAN_POINT('Ctrl Pts',(39.3621708915397,68.2005946539221,25.7269934695208));
#880=CARTESIAN_POINT('Ctrl Pts',(61.9052298509493,69.0925614081486,41.6513003182075));
#881=CARTESIAN_POINT('Ctrl Pts',(84.4483015867583,69.9846394961707,57.5755889203214));
#882=CARTESIAN_POINT('Ctrl Pts',(106.991360546168,70.8766062503972,73.4998957690081));
#883=CARTESIAN_POINT('Ctrl Pts',(39.3939301799948,67.6710358063064,25.6816365050182));
#884=CARTESIAN_POINT('Ctrl Pts',(61.934545315116,68.6031273249937,41.6094334964913));
#885=CARTESIAN_POINT('Ctrl Pts',(84.4751729208056,69.5353343211397,57.5372126781638));
#886=CARTESIAN_POINT('Ctrl Pts',(107.015788055927,70.467425839827,73.4650096696369));
#887=CARTESIAN_POINT('Ctrl Pts',(39.4257287164546,67.1351835864414,25.6362234885561));
#888=CARTESIAN_POINT('Ctrl Pts',(61.9639372030233,68.1074664279111,41.5674575303623));
#889=CARTESIAN_POINT('Ctrl Pts',(84.5021561367187,69.079894093954,57.4986766521426));
#890=CARTESIAN_POINT('Ctrl Pts',(107.040364623287,70.0521769354238,73.4299106939488));
#891=CARTESIAN_POINT('Ctrl Pts',(39.4891570993344,66.0554664264568,25.5456383699758));
#892=CARTESIAN_POINT('Ctrl Pts',(62.0226347065388,67.1080514099262,41.4836288077163));
#893=CARTESIAN_POINT('Ctrl Pts',(84.5561236940244,68.160770245715,57.4216029927485));
#894=CARTESIAN_POINT('Ctrl Pts',(107.089601301229,69.2133552291844,73.3595934304891));
#895=CARTESIAN_POINT('Ctrl Pts',(39.5618749205176,64.787185643471,25.4417865586019));
#896=CARTESIAN_POINT('Ctrl Pts',(62.0901181765591,65.9322682614666,41.3872524245224));
#897=CARTESIAN_POINT('Ctrl Pts',(84.618358556191,67.0777145662962,57.3327223984055));
#898=CARTESIAN_POINT('Ctrl Pts',(107.146601812232,68.2227971842918,73.278188264326));
#899=CARTESIAN_POINT('Ctrl Pts',(39.6293143296236,63.5761675497158,25.3454731009119));
#900=CARTESIAN_POINT('Ctrl Pts',(62.1527609774686,64.8092863360961,41.2977892332672));
#901=CARTESIAN_POINT('Ctrl Pts',(84.6762015789549,66.0428244356314,57.2501140007427));
#902=CARTESIAN_POINT('Ctrl Pts',(107.1996482268,67.2759432220117,73.202430133098));
#903=CARTESIAN_POINT('Ctrl Pts',(39.6614071430777,62.9900985077326,25.299639813347));
#904=CARTESIAN_POINT('Ctrl Pts',(62.1825657251124,64.2659506924741,41.2552236423288));
#905=CARTESIAN_POINT('Ctrl Pts',(84.7037185131698,65.5422149491552,57.2108157459932));
#906=CARTESIAN_POINT('Ctrl Pts',(107.224877095204,66.8180671338967,73.1663995749749));
#907=CARTESIAN_POINT('Ctrl Pts',(39.6770170647213,62.7024076797746,25.2773465348665));
#908=CARTESIAN_POINT('Ctrl Pts',(62.1970603430696,63.9992664228437,41.2345231825848));
#909=CARTESIAN_POINT('Ctrl Pts',(84.7170957111043,65.2965850210118,57.1917111274276));
#910=CARTESIAN_POINT('Ctrl Pts',(107.237138989453,66.5934437640808,73.1488877751459));
#911=CARTESIAN_POINT('Ctrl Pts',(39.6847144923824,62.5598536246738,25.2663534688953));
#912=CARTESIAN_POINT('Ctrl Pts',(62.2042055707953,63.8671656982514,41.2243187398506));
#913=CARTESIAN_POINT('Ctrl Pts',(84.7236914816047,65.1748670682665,57.1822913909345));
#914=CARTESIAN_POINT('Ctrl Pts',(107.243182560018,66.4821791418441,73.1402566618898));
#915=CARTESIAN_POINT('Ctrl Pts',(39.689076606267,62.4788714349977,25.2601237246458));
#916=CARTESIAN_POINT('Ctrl Pts',(62.2082563426832,63.7920737843939,41.2185336380531));
#917=CARTESIAN_POINT('Ctrl Pts',(84.727426375392,65.1057857288133,57.176957409817));
#918=CARTESIAN_POINT('Ctrl Pts',(107.246606111808,66.4189880782095,73.1353673232243));
#919=CARTESIAN_POINT('Ctrl Pts',(39.7608989631412,61.1431181935468,25.1575507688352));
#920=CARTESIAN_POINT('Ctrl Pts',(62.2749074794512,62.5547260644987,41.1233459499297));
#921=CARTESIAN_POINT('Ctrl Pts',(84.7889708340436,63.9650510491011,57.0890628138641));
#922=CARTESIAN_POINT('Ctrl Pts',(107.302979350354,65.376658920053,73.0548579949587));
#923=CARTESIAN_POINT('Ctrl Pts',(39.8746356607704,58.887552869403,24.9951179308186));
#924=CARTESIAN_POINT('Ctrl Pts',(62.3801134260798,60.4684792722651,40.9730962869504));
#925=CARTESIAN_POINT('Ctrl Pts',(84.8856207174449,62.0489716765364,56.9510324755221));
#926=CARTESIAN_POINT('Ctrl Pts',(107.391098482754,63.6298980793985,72.9290108316539));
#927=CARTESIAN_POINT('Ctrl Pts',(39.9745594856943,56.509508150589,24.8524119194179));
#928=CARTESIAN_POINT('Ctrl Pts',(62.4722475181982,58.2675857497291,40.8415151669291));
#929=CARTESIAN_POINT('Ctrl Pts',(84.9698438300285,60.0276018638307,56.8307494051373));
#930=CARTESIAN_POINT('Ctrl Pts',(107.467531862532,61.7856794629708,72.8198526526484));
#931=CARTESIAN_POINT('Ctrl Pts',(40.0304762557659,55.0812250815212,24.7725544956967));
#932=CARTESIAN_POINT('Ctrl Pts',(62.5238888119325,56.9448916051812,40.7677637562168));
#933=CARTESIAN_POINT('Ctrl Pts',(85.0173013680991,58.8085581288411,56.7629730167369));
#934=CARTESIAN_POINT('Ctrl Pts',(107.510713924266,60.6722246525011,72.7581822772571));
#935=CARTESIAN_POINT('',(39.7562402672644,61.2058987057914,25.1642040760524));
#936=CARTESIAN_POINT('Ctrl Pts',(38.5001460815826,80.,26.9580925084992));
#937=CARTESIAN_POINT('Ctrl Pts',(38.5307260787129,79.6775236088887,26.9144197465513));
#938=CARTESIAN_POINT('Ctrl Pts',(38.5655022459526,79.2836663317349,26.8647542326274));
#939=CARTESIAN_POINT('Ctrl Pts',(38.6037104049139,78.8294371370831,26.8101873265667));
#940=CARTESIAN_POINT('Ctrl Pts',(38.6419185638751,78.3752079424312,26.755620420506));
#941=CARTESIAN_POINT('Ctrl Pts',(38.6835587145579,77.8606068302813,26.6961521223085));
#942=CARTESIAN_POINT('Ctrl Pts',(38.725473240451,77.3328413468206,26.6362919757014));
#943=CARTESIAN_POINT('Ctrl Pts',(38.8093022922373,76.2773103798991,26.5165716824871));
#944=CARTESIAN_POINT('Ctrl Pts',(38.8942288448649,75.1691219277344,26.3952839956346));
#945=CARTESIAN_POINT('Ctrl Pts',(38.9729361953309,74.0951538099465,26.2828782499512));
#946=CARTESIAN_POINT('Ctrl Pts',(38.974165997682,74.078373058106,26.2811219101749));
#947=CARTESIAN_POINT('Ctrl Pts',(38.9753942816731,74.0616006608394,26.2793677388413));
#948=CARTESIAN_POINT('Ctrl Pts',(38.9766237100994,74.0447945829486,26.2776119330848));
#949=CARTESIAN_POINT('Ctrl Pts',(38.9778531385257,74.0279885050579,26.2758561273284));
#950=CARTESIAN_POINT('Ctrl Pts',(38.9790837113872,74.011148746543,26.274098687149));
#951=CARTESIAN_POINT('Ctrl Pts',(38.9803126330412,73.9943192328091,26.2723436051385));
#952=CARTESIAN_POINT('Ctrl Pts',(38.9815415546951,73.9774897190752,26.270588523128));
#953=CARTESIAN_POINT('Ctrl Pts',(38.9827688251415,73.9606704501222,26.2688357992862));
#954=CARTESIAN_POINT('Ctrl Pts',(38.9839956770245,73.9438419117533,26.2670836732149));
#955=CARTESIAN_POINT('Ctrl Pts',(38.9852225289075,73.9270133733845,26.2653315471437));
#956=CARTESIAN_POINT('Ctrl Pts',(38.9864489622271,73.9101755655997,26.2635800188429));
#957=CARTESIAN_POINT('Ctrl Pts',(38.9876746250746,73.8933339251548,26.2618295908903));
#958=CARTESIAN_POINT('Ctrl Pts',(38.9925772764647,73.8259673633754,26.2548278790797));
#959=CARTESIAN_POINT('Ctrl Pts',(38.9974676003019,73.7585394790352,26.2478437728394));
#960=CARTESIAN_POINT('Ctrl Pts',(39.0023482046344,73.6910030847229,26.2408735474902));
#961=CARTESIAN_POINT('Ctrl Pts',(39.0121094132994,73.5559302960982,26.2269330967919));
#962=CARTESIAN_POINT('Ctrl Pts',(39.0218317439459,73.4204234675848,26.2130481696581));
#963=CARTESIAN_POINT('Ctrl Pts',(39.0315312907594,73.2841845129706,26.1991957812101));
#964=CARTESIAN_POINT('Ctrl Pts',(39.0412308375729,73.1479455583565,26.1853433927621));
#965=CARTESIAN_POINT('Ctrl Pts',(39.0509076005534,73.0109744776415,26.1715235429998));
#966=CARTESIAN_POINT('Ctrl Pts',(39.0605792381986,72.872953844598,26.1577110129748));
#967=CARTESIAN_POINT('Ctrl Pts',(39.0702508758438,72.7349332115545,26.1438984829499));
#968=CARTESIAN_POINT('Ctrl Pts',(39.0799173881537,72.5958630261827,26.1300932726623));
#969=CARTESIAN_POINT('Ctrl Pts',(39.0895966904733,72.4554283570886,26.116269796348));
#970=CARTESIAN_POINT('Ctrl Pts',(39.0992759927929,72.3149936879946,26.1024463200336));
#971=CARTESIAN_POINT('Ctrl Pts',(39.1089680851221,72.1731945351783,26.0886045776925));
#972=CARTESIAN_POINT('Ctrl Pts',(39.1186897689619,72.0297430786494,26.0747205742945));
#973=CARTESIAN_POINT('Ctrl Pts',(39.1284114528017,71.8862916221204,26.0608365708965));
#974=CARTESIAN_POINT('Ctrl Pts',(39.1381627281522,71.7411878618787,26.0469103064415));
#975=CARTESIAN_POINT('Ctrl Pts',(39.1479590203392,71.5941692592036,26.0329197512811));
#976=CARTESIAN_POINT('Ctrl Pts',(39.1675516047134,71.3001320538534,26.0049386409603));
#977=CARTESIAN_POINT('Ctrl Pts',(39.187324256434,70.9984354787693,25.9767003678175));
#978=CARTESIAN_POINT('Ctrl Pts',(39.2073597643313,70.6877767400184,25.9480866971499));
#979=CARTESIAN_POINT('Ctrl Pts',(39.2273952722286,70.3771180012675,25.9194730264823));
#980=CARTESIAN_POINT('Ctrl Pts',(39.2476936363027,70.0574970988496,25.8904839582899));
#981=CARTESIAN_POINT('Ctrl Pts',(39.2682501858878,69.7291952571519,25.8611261629744));
#982=CARTESIAN_POINT('Ctrl Pts',(39.273389323284,69.6471197967275,25.8537867141456));
#983=CARTESIAN_POINT('Ctrl Pts',(39.2785445972748,69.564501777598,25.8464242198715));
#984=CARTESIAN_POINT('Ctrl Pts',(39.2837145038409,69.4813707213656,25.8390408281141));
#985=CARTESIAN_POINT('Ctrl Pts',(39.288884410407,69.3982396651331,25.8316574363567));
#986=CARTESIAN_POINT('Ctrl Pts',(39.2940689495485,69.3145955717977,25.8242531471159));
#987=CARTESIAN_POINT('Ctrl Pts',(39.2992671867015,69.2304572640529,25.8168292950872));
#988=CARTESIAN_POINT('Ctrl Pts',(39.3096636610076,69.0621806485633,25.8019815910298));
#989=CARTESIAN_POINT('Ctrl Pts',(39.3201149273599,68.8919271754363,25.7870556358208));
#990=CARTESIAN_POINT('Ctrl Pts',(39.3306080121171,68.7199539308852,25.7720699577404));
#991=CARTESIAN_POINT('Ctrl Pts',(39.3411010968742,68.547980686334,25.75708427966));
#992=CARTESIAN_POINT('Ctrl Pts',(39.3516360000361,68.3742876703587,25.7420388787081));
#993=CARTESIAN_POINT('Ctrl Pts',(39.3621966663594,68.1991813544386,25.7269566841487));
#994=CARTESIAN_POINT('Ctrl Pts',(39.3727573326827,68.0240750385184,25.7118744895893));
#995=CARTESIAN_POINT('Ctrl Pts',(39.3833437621673,67.8475554226534,25.6967555014224));
#996=CARTESIAN_POINT('Ctrl Pts',(39.393936732986,67.6699869114136,25.6816271712622));
#997=CARTESIAN_POINT('Ctrl Pts',(39.4045297038048,67.4924184001737,25.666498841102));
#998=CARTESIAN_POINT('Ctrl Pts',(39.4151292159576,67.313800993559,25.6513611689486));
#999=CARTESIAN_POINT('Ctrl Pts',(39.4257146706071,67.1345158602563,25.6362435729904));
#1000=CARTESIAN_POINT('Ctrl Pts',(39.4363001252567,66.9552307269537,25.6211259770323));
#1001=CARTESIAN_POINT('Ctrl Pts',(39.4468715224029,66.7752778669632,25.6060284572695));
#1002=CARTESIAN_POINT('Ctrl Pts',(39.4574062921536,66.5950789851726,25.5909832468487));
#1003=CARTESIAN_POINT('Ctrl Pts',(39.4995453711565,65.87428345801,25.5308024051654));
#1004=CARTESIAN_POINT('Ctrl Pts',(39.5410984118311,65.1495515820454,25.471458512954));
#1005=CARTESIAN_POINT('Ctrl Pts',(39.5806406288572,64.4466340638822,25.4149863745267));
#1006=CARTESIAN_POINT('Ctrl Pts',(39.6004117373703,64.0951753048006,25.3867503053131));
#1007=CARTESIAN_POINT('Ctrl Pts',(39.6196801399713,63.7491701351692,25.3592321745456));
#1008=CARTESIAN_POINT('Ctrl Pts',(39.6383287745347,63.4105706816879,25.3325991642657));
#1009=CARTESIAN_POINT('Ctrl Pts',(39.6476530918164,63.2412709549472,25.3192826591257));
#1010=CARTESIAN_POINT('Ctrl Pts',(39.6568224670886,63.073822657244,25.3061874341077));
#1011=CARTESIAN_POINT('Ctrl Pts',(39.6658255623291,62.908410052125,25.2933296815856));
#1012=CARTESIAN_POINT('Ctrl Pts',(39.6703271099494,62.8257037495655,25.2869008053245));
#1013=CARTESIAN_POINT('Ctrl Pts',(39.6747870875616,62.7435063701521,25.2805312971874));
#1014=CARTESIAN_POINT('Ctrl Pts',(39.6792061001603,62.6618009369779,25.2742202931529));
#1015=CARTESIAN_POINT('Ctrl Pts',(39.6814156064597,62.6209482203908,25.2710647911356));
#1016=CARTESIAN_POINT('Ctrl Pts',(39.6836148715056,62.5802184903635,25.267923915144));
#1017=CARTESIAN_POINT('Ctrl Pts',(39.6858019978157,62.5396478504634,25.2648003750637));
#1018=CARTESIAN_POINT('Ctrl Pts',(39.6868955609708,62.5193625305133,25.2632386050235));
#1019=CARTESIAN_POINT('Ctrl Pts',(39.6879860894419,62.4991169830951,25.2616811689612));
#1020=CARTESIAN_POINT('Ctrl Pts',(39.6890754624416,62.478874866648,25.260125383083));
#1021=CARTESIAN_POINT('Ctrl Pts',(39.6901648354414,62.458632750201,25.2585695972048));
#1022=CARTESIAN_POINT('Ctrl Pts',(39.6912530529697,62.4383940647253,25.2570154615108));
#1023=CARTESIAN_POINT('Ctrl Pts',(39.692338092995,62.4181977436028,25.2554658637615));
#1024=CARTESIAN_POINT('Ctrl Pts',(39.7148883953718,61.9984591739539,25.2232606943702));
#1025=CARTESIAN_POINT('Ctrl Pts',(39.7360662392991,61.5970190332008,25.1930155987779));
#1026=CARTESIAN_POINT('Ctrl Pts',(39.7562066047689,61.2067369921561,25.1642521759765));
#1027=CARTESIAN_POINT('Ctrl Pts',(70.1053736544438,61.3221064226763,46.4980717614799));
#1028=CARTESIAN_POINT('Ctrl Pts',(60.0508554835491,61.2809856111476,39.4265428915567));
#1029=CARTESIAN_POINT('Ctrl Pts',(50.1653832077997,61.2437048359968,32.4781786986062));
#1030=CARTESIAN_POINT('Ctrl Pts',(39.7562402672509,61.2058987058337,25.1642040760714));
#1031=CARTESIAN_POINT('Origin',(24.5745613286697,60.,17.2072930905316));
#1032=CARTESIAN_POINT('Origin',(38.5001460815825,60.,26.9580925084994));
#1033=CARTESIAN_POINT('Origin',(38.5727381596047,66.9736927188358,26.8544202769666));
#1034=UNCERTAINTY_MEASURE_WITH_UNIT(LENGTH_MEASURE(0.01),#1038,
'DISTANCE_ACCURACY_VALUE',
'Maximum model space distance between geometric entities at asserted c
onnectivities');
#1035=UNCERTAINTY_MEASURE_WITH_UNIT(LENGTH_MEASURE(0.01),#1038,
'DISTANCE_ACCURACY_VALUE',
'Maximum model space distance between geometric entities at asserted c
onnectivities');
#1036=(
GEOMETRIC_REPRESENTATION_CONTEXT(3)
GLOBAL_UNCERTAINTY_ASSIGNED_CONTEXT((#1034))
GLOBAL_UNIT_ASSIGNED_CONTEXT((#1038,#1040,#1041))
REPRESENTATION_CONTEXT('','3D')
);
#1037=(
GEOMETRIC_REPRESENTATION_CONTEXT(3)
GLOBAL_UNCERTAINTY_ASSIGNED_CONTEXT((#1035))
GLOBAL_UNIT_ASSIGNED_CONTEXT((#1038,#1040,#1041))
REPRESENTATION_CONTEXT('','3D')
);
#1038=(
LENGTH_UNIT()
NAMED_UNIT(*)
SI_UNIT(.MILLI.,.METRE.)
);
#1039=(
LENGTH_UNIT()
NAMED_UNIT(*)
SI_UNIT($,.METRE.)
);
#1040=(
NAMED_UNIT(*)
PLANE_ANGLE_UNIT()
SI_UNIT($,.RADIAN.)
);
#1041=(
NAMED_UNIT(*)
SI_UNIT($,.STERADIAN.)
SOLID_ANGLE_UNIT()
);
#1042=SHAPE_DEFINITION_REPRESENTATION(#1043,#1044);
#1043=PRODUCT_DEFINITION_SHAPE('',$,#1046);
#1044=SHAPE_REPRESENTATION('',(#310),#1036);
#1045=PRODUCT_DEFINITION_CONTEXT('part definition',#1050,'design');
#1046=PRODUCT_DEFINITION('l_flap2','l_flap2',#1047,#1045);
#1047=PRODUCT_DEFINITION_FORMATION('',$,#1052);
#1048=PRODUCT_RELATED_PRODUCT_CATEGORY('l_flap2','l_flap2',(#1052));
#1049=APPLICATION_PROTOCOL_DEFINITION('international standard',
'automotive_design',2009,#1050);
#1050=APPLICATION_CONTEXT(
'Core Data for Automotive Mechanical Design Process');
#1051=PRODUCT_CONTEXT('part definition',#1050,'mechanical');
#1052=PRODUCT('l_flap2','l_flap2',$,(#1051));
#1053=PRESENTATION_STYLE_ASSIGNMENT((#1055));
#1054=PRESENTATION_STYLE_ASSIGNMENT((#1056));
#1055=SURFACE_STYLE_USAGE(.BOTH.,#1057);
#1056=SURFACE_STYLE_USAGE(.BOTH.,#1058);
#1057=SURFACE_SIDE_STYLE('',(#1059));
#1058=SURFACE_SIDE_STYLE('',(#1060));
#1059=SURFACE_STYLE_FILL_AREA(#1061);
#1060=SURFACE_STYLE_FILL_AREA(#1062);
#1061=FILL_AREA_STYLE('Steel - Satin',(#1063));
#1062=FILL_AREA_STYLE('Paint - Enamel Glossy (Yellow)',(#1064));
#1063=FILL_AREA_STYLE_COLOUR('Steel - Satin',#1065);
#1064=FILL_AREA_STYLE_COLOUR('Paint - Enamel Glossy (Yellow)',#1066);
#1065=COLOUR_RGB('Steel - Satin',0.627450980392157,0.627450980392157,0.627450980392157);
#1066=COLOUR_RGB('Paint - Enamel Glossy (Yellow)',0.909803921568627,0.67843137254902,
0.137254901960784);
ENDSEC;
END-ISO-10303-21;
