ISO-10303-21;
HEADER;
/* Generated by software containing ST-Developer
 * from STEP Tools, Inc. (www.steptools.com) 
 */

FILE_DESCRIPTION(
/* description */ (''),
/* implementation_level */ '2;1');

FILE_NAME(
/* name */ 'C1.step',
/* time_stamp */ '2026-07-02T23:32:50-07:00',
/* author */ (''),
/* organization */ (''),
/* preprocessor_version */ 'ST-DEVELOPER v20.1',
/* originating_system */ 'Autodesk Translation Framework v15.8.0.0',
/* authorisation */ '');

FILE_SCHEMA (('AUTOMOTIVE_DESIGN { 1 0 10303 214 3 1 1 }'));
ENDSEC;

DATA;
#10=MECHANICAL_DESIGN_GEOMETRIC_PRESENTATION_REPRESENTATION('',(#13),#475);
#11=SHAPE_REPRESENTATION_RELATIONSHIP('SRR','None',#482,#12);
#12=ADVANCED_BREP_SHAPE_REPRESENTATION('',(#14),#474);
#13=STYLED_ITEM('',(#492),#14);
#14=MANIFOLD_SOLID_BREP('C1',#171);
#15=LINE('',#319,#19);
#16=LINE('',#441,#20);
#17=LINE('',#448,#21);
#18=LINE('',#470,#22);
#19=VECTOR('',#193,10.);
#20=VECTOR('',#194,10.);
#21=VECTOR('',#197,10.);
#22=VECTOR('',#200,10.);
#23=B_SPLINE_SURFACE_WITH_KNOTS('',3,3,((#247,#248,#249,#250),(#251,#252,
#253,#254),(#255,#256,#257,#258),(#259,#260,#261,#262)),.UNSPECIFIED.,.F.,
 .F.,.F.,(4,4),(4,4),(0.108300675910663,1.),(0.159907039576637,0.370391756809895),
 .UNSPECIFIED.);
#24=B_SPLINE_SURFACE_WITH_KNOTS('',3,1,((#286,#287),(#288,#289),(#290,#291),
(#292,#293),(#294,#295),(#296,#297),(#298,#299),(#300,#301),(#302,#303),
(#304,#305),(#306,#307),(#308,#309)),.UNSPECIFIED.,.F.,.F.,.F.,(4,2,2,2,
2,4),(2,2),(-15.8238784647869,-11.8255865560315,-7.83627433721037,-5.98128178669816,
-4.11192512384652,0.),(0.,0.3),.UNSPECIFIED.);
#25=B_SPLINE_SURFACE_WITH_KNOTS('',3,3,((#320,#321,#322,#323),(#324,#325,
#326,#327),(#328,#329,#330,#331),(#332,#333,#334,#335)),.UNSPECIFIED.,.F.,
 .F.,.F.,(4,4),(4,4),(0.108300675910663,1.),(0.159907039576637,0.370391756809895),
 .UNSPECIFIED.);
#26=B_SPLINE_SURFACE_WITH_KNOTS('',3,3,((#350,#351,#352,#353),(#354,#355,
#356,#357),(#358,#359,#360,#361),(#362,#363,#364,#365)),.UNSPECIFIED.,.F.,
 .F.,.F.,(4,4),(4,4),(0.108300792829558,1.),(0.159907039576637,0.370391756809931),
 .UNSPECIFIED.);
#27=B_SPLINE_SURFACE_WITH_KNOTS('',3,1,((#383,#384),(#385,#386),(#387,#388),
(#389,#390),(#391,#392),(#393,#394),(#395,#396),(#397,#398),(#399,#400),
(#401,#402),(#403,#404),(#405,#406),(#407,#408),(#409,#410),(#411,#412),
(#413,#414),(#415,#416),(#417,#418),(#419,#420),(#421,#422),(#423,#424),
(#425,#426),(#427,#428),(#429,#430),(#431,#432)),.UNSPECIFIED.,.F.,.F.,
 .F.,(4,3,3,3,3,3,3,3,4),(2,2),(-12.5557534702862,-11.1166767222862,-9.96075821292983,
-9.94521527208248,-9.81462883621717,-9.6902305390348,-5.01635338074762,
-1.98045762710186,0.),(0.,0.3),.UNSPECIFIED.);
#28=B_SPLINE_SURFACE_WITH_KNOTS('',3,3,((#449,#450,#451,#452),(#453,#454,
#455,#456),(#457,#458,#459,#460),(#461,#462,#463,#464)),.UNSPECIFIED.,.F.,
 .F.,.F.,(4,4),(4,4),(0.108300792829558,1.),(0.159907039576637,0.370391756809931),
 .UNSPECIFIED.);
#29=FACE_OUTER_BOUND('',#39,.T.);
#30=FACE_OUTER_BOUND('',#40,.T.);
#31=FACE_OUTER_BOUND('',#41,.T.);
#32=FACE_OUTER_BOUND('',#42,.T.);
#33=FACE_OUTER_BOUND('',#43,.T.);
#34=FACE_OUTER_BOUND('',#44,.T.);
#35=FACE_OUTER_BOUND('',#45,.T.);
#36=FACE_OUTER_BOUND('',#46,.T.);
#37=FACE_OUTER_BOUND('',#47,.T.);
#38=FACE_OUTER_BOUND('',#48,.T.);
#39=EDGE_LOOP('',(#109,#110,#111,#112,#113,#114));
#40=EDGE_LOOP('',(#115,#116,#117,#118,#119));
#41=EDGE_LOOP('',(#120,#121,#122,#123));
#42=EDGE_LOOP('',(#124,#125,#126,#127,#128));
#43=EDGE_LOOP('',(#129,#130,#131,#132,#133));
#44=EDGE_LOOP('',(#134,#135,#136,#137));
#45=EDGE_LOOP('',(#138,#139,#140,#141));
#46=EDGE_LOOP('',(#142,#143,#144,#145,#146));
#47=EDGE_LOOP('',(#147,#148,#149,#150,#151,#152));
#48=EDGE_LOOP('',(#153,#154,#155,#156));
#49=B_SPLINE_CURVE_WITH_KNOTS('',3,(#207,#208,#209,#210,#211,#212),
 .UNSPECIFIED.,.F.,.F.,(4,2,4),(-4.46572160531896,-2.23286080265948,-0.0166340008291108),
 .UNSPECIFIED.);
#50=B_SPLINE_CURVE_WITH_KNOTS('',3,(#214,#215,#216,#217,#218,#219),
 .UNSPECIFIED.,.F.,.F.,(4,2,4),(-4.44908760449365,-2.23299554236834,0.),
 .UNSPECIFIED.);
#51=B_SPLINE_CURVE_WITH_KNOTS('',3,(#221,#222,#223,#224,#225,#226),
 .UNSPECIFIED.,.F.,.F.,(4,2,4),(-0.3,-0.15,0.),.UNSPECIFIED.);
#52=B_SPLINE_CURVE_WITH_KNOTS('',3,(#228,#229,#230,#231,#232,#233),
 .UNSPECIFIED.,.F.,.F.,(4,2,4),(-4.46599108473668,-2.23299554236834,-0.0169034802430272),
 .UNSPECIFIED.);
#53=B_SPLINE_CURVE_WITH_KNOTS('',3,(#235,#236,#237,#238,#239,#240),
 .UNSPECIFIED.,.F.,.F.,(4,2,4),(-4.44908760448985,-2.23286080265948,0.),
 .UNSPECIFIED.);
#54=B_SPLINE_CURVE_WITH_KNOTS('',3,(#241,#242,#243,#244,#245,#246),
 .UNSPECIFIED.,.F.,.F.,(4,2,4),(-0.3,-0.15,0.),.UNSPECIFIED.);
#55=B_SPLINE_CURVE_WITH_KNOTS('',3,(#264,#265,#266,#267,#268,#269,#270,
#271),.UNSPECIFIED.,.F.,.F.,(4,2,2,4),(-6.21253684738669,-5.98128178669816,
-4.11192512384652,0.),.UNSPECIFIED.);
#56=B_SPLINE_CURVE_WITH_KNOTS('',3,(#273,#274,#275,#276),.UNSPECIFIED.,
 .F.,.F.,(4,4),(-4.4236438896534,-0.050282054597079),.UNSPECIFIED.);
#57=B_SPLINE_CURVE_WITH_KNOTS('',3,(#278,#279,#280,#281),.UNSPECIFIED.,
 .F.,.F.,(4,4),(-0.487388048444817,0.),.UNSPECIFIED.);
#58=B_SPLINE_CURVE_WITH_KNOTS('',3,(#282,#283,#284,#285),.UNSPECIFIED.,
 .F.,.F.,(4,4),(0.159907039576648,0.370391756809931),.UNSPECIFIED.);
#59=B_SPLINE_CURVE_WITH_KNOTS('',3,(#311,#312,#313,#314,#315,#316,#317,
#318),.UNSPECIFIED.,.F.,.F.,(4,2,2,4),(-6.21253684738668,-5.98128178669816,
-4.11192512384652,0.),.UNSPECIFIED.);
#60=B_SPLINE_CURVE_WITH_KNOTS('',3,(#337,#338,#339,#340),.UNSPECIFIED.,
 .F.,.F.,(4,4),(0.159907039576648,0.370391756809931),.UNSPECIFIED.);
#61=B_SPLINE_CURVE_WITH_KNOTS('',3,(#342,#343,#344,#345),.UNSPECIFIED.,
 .F.,.F.,(4,4),(-0.487388048444817,0.),.UNSPECIFIED.);
#62=B_SPLINE_CURVE_WITH_KNOTS('',3,(#346,#347,#348,#349),.UNSPECIFIED.,
 .F.,.F.,(4,4),(-4.4236438896534,-0.050282054597079),.UNSPECIFIED.);
#63=B_SPLINE_CURVE_WITH_KNOTS('',3,(#367,#368,#369,#370,#371,#372,#373),
 .UNSPECIFIED.,.F.,.F.,(4,3,4),(-12.5557534702862,-11.1166767222862,-10.1874002906677),
 .UNSPECIFIED.);
#64=B_SPLINE_CURVE_WITH_KNOTS('',3,(#375,#376,#377,#378),.UNSPECIFIED.,
 .F.,.F.,(4,4),(-4.42354243858239,-0.0501806035263082),.UNSPECIFIED.);
#65=B_SPLINE_CURVE_WITH_KNOTS('',3,(#379,#380,#381,#382),.UNSPECIFIED.,
 .F.,.F.,(4,4),(-0.537388048444817,-0.0499999999999997),.UNSPECIFIED.);
#66=B_SPLINE_CURVE_WITH_KNOTS('',3,(#434,#435,#436,#437,#438,#439,#440),
 .UNSPECIFIED.,.F.,.F.,(4,3,4),(-12.5557534702862,-11.1166767222862,-10.1874002906677),
 .UNSPECIFIED.);
#67=B_SPLINE_CURVE_WITH_KNOTS('',3,(#444,#445,#446,#447),.UNSPECIFIED.,
 .F.,.F.,(4,4),(-4.42354243858239,-0.0501806035263082),.UNSPECIFIED.);
#68=B_SPLINE_CURVE_WITH_KNOTS('',3,(#465,#466,#467,#468),.UNSPECIFIED.,
 .F.,.F.,(4,4),(-0.537388048444817,-0.0499999999999997),.UNSPECIFIED.);
#69=VERTEX_POINT('',#205);
#70=VERTEX_POINT('',#206);
#71=VERTEX_POINT('',#213);
#72=VERTEX_POINT('',#220);
#73=VERTEX_POINT('',#227);
#74=VERTEX_POINT('',#234);
#75=VERTEX_POINT('',#263);
#76=VERTEX_POINT('',#272);
#77=VERTEX_POINT('',#277);
#78=VERTEX_POINT('',#310);
#79=VERTEX_POINT('',#336);
#80=VERTEX_POINT('',#341);
#81=VERTEX_POINT('',#366);
#82=VERTEX_POINT('',#374);
#83=VERTEX_POINT('',#433);
#84=VERTEX_POINT('',#443);
#85=EDGE_CURVE('',#69,#70,#49,.T.);
#86=EDGE_CURVE('',#71,#69,#50,.T.);
#87=EDGE_CURVE('',#72,#71,#51,.T.);
#88=EDGE_CURVE('',#73,#72,#52,.T.);
#89=EDGE_CURVE('',#74,#73,#53,.T.);
#90=EDGE_CURVE('',#70,#74,#54,.T.);
#91=EDGE_CURVE('',#72,#75,#55,.T.);
#92=EDGE_CURVE('',#75,#76,#56,.T.);
#93=EDGE_CURVE('',#76,#77,#57,.T.);
#94=EDGE_CURVE('',#77,#73,#58,.T.);
#95=EDGE_CURVE('',#71,#78,#59,.T.);
#96=EDGE_CURVE('',#78,#75,#15,.T.);
#97=EDGE_CURVE('',#79,#69,#60,.T.);
#98=EDGE_CURVE('',#80,#79,#61,.T.);
#99=EDGE_CURVE('',#78,#80,#62,.T.);
#100=EDGE_CURVE('',#81,#70,#63,.T.);
#101=EDGE_CURVE('',#82,#81,#64,.T.);
#102=EDGE_CURVE('',#79,#82,#65,.T.);
#103=EDGE_CURVE('',#83,#74,#66,.T.);
#104=EDGE_CURVE('',#81,#83,#16,.T.);
#105=EDGE_CURVE('',#84,#83,#67,.T.);
#106=EDGE_CURVE('',#82,#84,#17,.T.);
#107=EDGE_CURVE('',#77,#84,#68,.T.);
#108=EDGE_CURVE('',#80,#76,#18,.T.);
#109=ORIENTED_EDGE('',*,*,#85,.F.);
#110=ORIENTED_EDGE('',*,*,#86,.F.);
#111=ORIENTED_EDGE('',*,*,#87,.F.);
#112=ORIENTED_EDGE('',*,*,#88,.F.);
#113=ORIENTED_EDGE('',*,*,#89,.F.);
#114=ORIENTED_EDGE('',*,*,#90,.F.);
#115=ORIENTED_EDGE('',*,*,#88,.T.);
#116=ORIENTED_EDGE('',*,*,#91,.T.);
#117=ORIENTED_EDGE('',*,*,#92,.T.);
#118=ORIENTED_EDGE('',*,*,#93,.T.);
#119=ORIENTED_EDGE('',*,*,#94,.T.);
#120=ORIENTED_EDGE('',*,*,#87,.T.);
#121=ORIENTED_EDGE('',*,*,#95,.T.);
#122=ORIENTED_EDGE('',*,*,#96,.T.);
#123=ORIENTED_EDGE('',*,*,#91,.F.);
#124=ORIENTED_EDGE('',*,*,#86,.T.);
#125=ORIENTED_EDGE('',*,*,#97,.F.);
#126=ORIENTED_EDGE('',*,*,#98,.F.);
#127=ORIENTED_EDGE('',*,*,#99,.F.);
#128=ORIENTED_EDGE('',*,*,#95,.F.);
#129=ORIENTED_EDGE('',*,*,#85,.T.);
#130=ORIENTED_EDGE('',*,*,#100,.F.);
#131=ORIENTED_EDGE('',*,*,#101,.F.);
#132=ORIENTED_EDGE('',*,*,#102,.F.);
#133=ORIENTED_EDGE('',*,*,#97,.T.);
#134=ORIENTED_EDGE('',*,*,#90,.T.);
#135=ORIENTED_EDGE('',*,*,#103,.F.);
#136=ORIENTED_EDGE('',*,*,#104,.F.);
#137=ORIENTED_EDGE('',*,*,#100,.T.);
#138=ORIENTED_EDGE('',*,*,#101,.T.);
#139=ORIENTED_EDGE('',*,*,#104,.T.);
#140=ORIENTED_EDGE('',*,*,#105,.F.);
#141=ORIENTED_EDGE('',*,*,#106,.F.);
#142=ORIENTED_EDGE('',*,*,#89,.T.);
#143=ORIENTED_EDGE('',*,*,#94,.F.);
#144=ORIENTED_EDGE('',*,*,#107,.T.);
#145=ORIENTED_EDGE('',*,*,#105,.T.);
#146=ORIENTED_EDGE('',*,*,#103,.T.);
#147=ORIENTED_EDGE('',*,*,#98,.T.);
#148=ORIENTED_EDGE('',*,*,#102,.T.);
#149=ORIENTED_EDGE('',*,*,#106,.T.);
#150=ORIENTED_EDGE('',*,*,#107,.F.);
#151=ORIENTED_EDGE('',*,*,#93,.F.);
#152=ORIENTED_EDGE('',*,*,#108,.F.);
#153=ORIENTED_EDGE('',*,*,#99,.T.);
#154=ORIENTED_EDGE('',*,*,#108,.T.);
#155=ORIENTED_EDGE('',*,*,#92,.F.);
#156=ORIENTED_EDGE('',*,*,#96,.F.);
#157=PLANE('',#185);
#158=PLANE('',#186);
#159=PLANE('',#187);
#160=PLANE('',#188);
#161=ADVANCED_FACE('',(#29),#157,.F.);
#162=ADVANCED_FACE('',(#30),#23,.T.);
#163=ADVANCED_FACE('',(#31),#24,.T.);
#164=ADVANCED_FACE('',(#32),#25,.F.);
#165=ADVANCED_FACE('',(#33),#26,.T.);
#166=ADVANCED_FACE('',(#34),#27,.T.);
#167=ADVANCED_FACE('',(#35),#158,.T.);
#168=ADVANCED_FACE('',(#36),#28,.F.);
#169=ADVANCED_FACE('',(#37),#159,.T.);
#170=ADVANCED_FACE('',(#38),#160,.T.);
#171=CLOSED_SHELL('',(#161,#162,#163,#164,#165,#166,#167,#168,#169,#170));
#172=DERIVED_UNIT_ELEMENT(#174,1.);
#173=DERIVED_UNIT_ELEMENT(#477,-3.);
#174=(
MASS_UNIT()
NAMED_UNIT(*)
SI_UNIT(.KILO.,.GRAM.)
);
#175=DERIVED_UNIT((#172,#173));
#176=MEASURE_REPRESENTATION_ITEM('density measure',
POSITIVE_RATIO_MEASURE(7850.),#175);
#177=PROPERTY_DEFINITION_REPRESENTATION(#182,#179);
#178=PROPERTY_DEFINITION_REPRESENTATION(#183,#180);
#179=REPRESENTATION('material name',(#181),#474);
#180=REPRESENTATION('density',(#176),#474);
#181=DESCRIPTIVE_REPRESENTATION_ITEM('Steel','Steel');
#182=PROPERTY_DEFINITION('material property','material name',#484);
#183=PROPERTY_DEFINITION('material property','density of part',#484);
#184=AXIS2_PLACEMENT_3D('',#203,#189,#190);
#185=AXIS2_PLACEMENT_3D('',#204,#191,#192);
#186=AXIS2_PLACEMENT_3D('',#442,#195,#196);
#187=AXIS2_PLACEMENT_3D('',#469,#198,#199);
#188=AXIS2_PLACEMENT_3D('',#471,#201,#202);
#189=DIRECTION('axis',(0.,0.,1.));
#190=DIRECTION('refdir',(1.,0.,0.));
#191=DIRECTION('center_axis',(0.,-1.,0.));
#192=DIRECTION('ref_axis',(0.,0.,-1.));
#193=DIRECTION('',(0.,0.,-1.));
#194=DIRECTION('',(0.,0.,-1.));
#195=DIRECTION('center_axis',(-0.573576436351833,-0.819152044288441,0.));
#196=DIRECTION('ref_axis',(-0.814568473966654,0.570366985860597,0.105639493845501));
#197=DIRECTION('',(0.,0.,-1.));
#198=DIRECTION('center_axis',(0.,-1.,0.));
#199=DIRECTION('ref_axis',(-1.,0.,0.));
#200=DIRECTION('',(0.,0.,-1.));
#201=DIRECTION('center_axis',(0.57357643635183,-0.819152044288443,0.));
#202=DIRECTION('ref_axis',(-0.816196579542812,-0.571506997658021,-0.0848698719836967));
#203=CARTESIAN_POINT('',(0.,0.,0.));
#204=CARTESIAN_POINT('Origin',(0.,-88.,9.29211077326054));
#205=CARTESIAN_POINT('',(-7.17862436700716E-16,-88.,39.8300985008707));
#206=CARTESIAN_POINT('',(-44.4908760448985,-88.0000000005193,39.8300985008097));
#207=CARTESIAN_POINT('Ctrl Pts',(-8.12721668839211E-16,-88.0000000000001,
39.8300985008707));
#208=CARTESIAN_POINT('Ctrl Pts',(-7.44286934219826,-88.0000000000001,39.8300985008707));
#209=CARTESIAN_POINT('Ctrl Pts',(-14.8857386843965,-88.0000000000001,39.8300985008707));
#210=CARTESIAN_POINT('Ctrl Pts',(-29.7160306993627,-88.0000000000001,39.8300985008707));
#211=CARTESIAN_POINT('Ctrl Pts',(-37.1034533721306,-88.0000000005193,39.8300985008097));
#212=CARTESIAN_POINT('Ctrl Pts',(-44.4908760448985,-88.0000000005193,39.8300985008097));
#213=CARTESIAN_POINT('',(44.4908760449365,-88.,39.8300985008707));
#214=CARTESIAN_POINT('Ctrl Pts',(44.4908760449365,-88.,39.8300985008707));
#215=CARTESIAN_POINT('Ctrl Pts',(37.1039025045188,-88.,39.8300985008707));
#216=CARTESIAN_POINT('Ctrl Pts',(29.7169289641011,-88.,39.8300985008707));
#217=CARTESIAN_POINT('Ctrl Pts',(14.8866369491223,-88.,39.8300985008707));
#218=CARTESIAN_POINT('Ctrl Pts',(7.44331847456114,-88.,39.8300985008707));
#219=CARTESIAN_POINT('Ctrl Pts',(8.12721668839201E-16,-88.,39.8300985008707));
#220=CARTESIAN_POINT('',(44.4908760449365,-88.,36.8300985008707));
#221=CARTESIAN_POINT('Ctrl Pts',(44.4908760449365,-88.,36.8300985008707));
#222=CARTESIAN_POINT('Ctrl Pts',(44.4908760449365,-88.,37.3300985008707));
#223=CARTESIAN_POINT('Ctrl Pts',(44.4908760449365,-88.,37.8300985008707));
#224=CARTESIAN_POINT('Ctrl Pts',(44.4908760449365,-88.,38.8300985008707));
#225=CARTESIAN_POINT('Ctrl Pts',(44.4908760449365,-88.,39.3300985008707));
#226=CARTESIAN_POINT('Ctrl Pts',(44.4908760449365,-88.,39.8300985008707));
#227=CARTESIAN_POINT('',(-7.17862436700716E-16,-88.,36.8300985008707));
#228=CARTESIAN_POINT('Ctrl Pts',(8.12721668839201E-16,-88.,36.8300985008707));
#229=CARTESIAN_POINT('Ctrl Pts',(7.44331847456114,-88.,36.8300985008707));
#230=CARTESIAN_POINT('Ctrl Pts',(14.8866369491223,-88.,36.8300985008707));
#231=CARTESIAN_POINT('Ctrl Pts',(29.7169289641011,-88.,36.8300985008707));
#232=CARTESIAN_POINT('Ctrl Pts',(37.1039025045188,-88.,36.8300985008707));
#233=CARTESIAN_POINT('Ctrl Pts',(44.4908760449365,-88.,36.8300985008707));
#234=CARTESIAN_POINT('',(-44.4908760448985,-88.0000000005193,36.8300985008097));
#235=CARTESIAN_POINT('Ctrl Pts',(-44.4908760448985,-88.0000000005193,36.8300985008097));
#236=CARTESIAN_POINT('Ctrl Pts',(-37.1034533721306,-88.0000000005193,36.8300985008097));
#237=CARTESIAN_POINT('Ctrl Pts',(-29.7160306993627,-88.0000000000001,36.8300985008707));
#238=CARTESIAN_POINT('Ctrl Pts',(-14.8857386843965,-88.0000000000001,36.8300985008707));
#239=CARTESIAN_POINT('Ctrl Pts',(-7.44286934219826,-88.0000000000001,36.8300985008707));
#240=CARTESIAN_POINT('Ctrl Pts',(-8.12721668839211E-16,-88.0000000000001,
36.8300985008707));
#241=CARTESIAN_POINT('Ctrl Pts',(-44.4908760449365,-88.,39.8300985008707));
#242=CARTESIAN_POINT('Ctrl Pts',(-44.4908760449365,-88.,39.3300985008707));
#243=CARTESIAN_POINT('Ctrl Pts',(-44.4908760449365,-88.,38.8300985008707));
#244=CARTESIAN_POINT('Ctrl Pts',(-44.4908760449365,-88.,37.8300985008707));
#245=CARTESIAN_POINT('Ctrl Pts',(-44.4908760449365,-88.,37.3300985008707));
#246=CARTESIAN_POINT('Ctrl Pts',(-44.4908760449365,-88.,36.8300985008707));
#247=CARTESIAN_POINT('Ctrl Pts',(38.6929764773395,-174.6,26.2827641279235));
#248=CARTESIAN_POINT('Ctrl Pts',(41.6156091708839,-145.830765347197,31.6112061001721));
#249=CARTESIAN_POINT('Ctrl Pts',(43.5482443047062,-116.96409868053,35.1269842244879));
#250=CARTESIAN_POINT('Ctrl Pts',(44.4908818788062,-88.,36.8300985008707));
#251=CARTESIAN_POINT('Ctrl Pts',(25.7953176515597,-174.6,26.2827641279235));
#252=CARTESIAN_POINT('Ctrl Pts',(27.743739447256,-145.830765347197,31.6112061001721));
#253=CARTESIAN_POINT('Ctrl Pts',(29.0321628698041,-116.96409868053,35.1269842244879));
#254=CARTESIAN_POINT('Ctrl Pts',(29.6605879192041,-88.,36.8300985008707));
#255=CARTESIAN_POINT('Ctrl Pts',(12.8976588257799,-174.6,26.2827641279235));
#256=CARTESIAN_POINT('Ctrl Pts',(13.871869723628,-145.830765347197,31.6112061001722));
#257=CARTESIAN_POINT('Ctrl Pts',(14.5160814349021,-116.964098680531,35.1269842244879));
#258=CARTESIAN_POINT('Ctrl Pts',(14.8302939596021,-88.,36.8300985008707));
#259=CARTESIAN_POINT('Ctrl Pts',(1.19698221875428E-14,-174.6,26.2827641279235));
#260=CARTESIAN_POINT('Ctrl Pts',(1.22414851166283E-14,-145.830765347197,
31.6112061001722));
#261=CARTESIAN_POINT('Ctrl Pts',(8.52245161039372E-15,-116.96409868053,
35.1269842244879));
#262=CARTESIAN_POINT('Ctrl Pts',(8.12721668839193E-16,-88.,36.8300985008707));
#263=CARTESIAN_POINT('',(40.5334178355088,-149.630923137666,30.4485948593972));
#264=CARTESIAN_POINT('Ctrl Pts',(44.4913591575684,-87.999997550154,36.8297496360239));
#265=CARTESIAN_POINT('Ctrl Pts',(44.4626427353722,-88.7732637108084,36.7845526219162));
#266=CARTESIAN_POINT('Ctrl Pts',(44.4334525867237,-89.5440830938852,36.7380094879952));
#267=CARTESIAN_POINT('Ctrl Pts',(44.1629840680023,-96.5274253189845,36.3040370801807));
#268=CARTESIAN_POINT('Ctrl Pts',(43.8710770038739,-102.733285557825,35.8346235969102));
#269=CARTESIAN_POINT('Ctrl Pts',(42.7738722077873,-122.562090837875,34.0674859877332));
#270=CARTESIAN_POINT('Ctrl Pts',(41.7740526758104,-136.12883711142,32.4536802166303));
#271=CARTESIAN_POINT('Ctrl Pts',(40.5334178355088,-149.630923137666,30.4485948593972));
#272=CARTESIAN_POINT('',(4.87388048444819,-174.6,26.2827641279235));
#273=CARTESIAN_POINT('Ctrl Pts',(40.5334178355088,-149.630923137666,30.4485948593972));
#274=CARTESIAN_POINT('Ctrl Pts',(28.6350379919045,-157.962258396657,29.2113757880974));
#275=CARTESIAN_POINT('Ctrl Pts',(16.7485260157852,-166.285283685373,27.8227593322745));
#276=CARTESIAN_POINT('Ctrl Pts',(4.87388048444819,-174.6,26.2827641279235));
#277=CARTESIAN_POINT('',(0.,-174.6,26.2827641279235));
#278=CARTESIAN_POINT('Ctrl Pts',(4.87388048444819,-174.6,26.2827641279235));
#279=CARTESIAN_POINT('Ctrl Pts',(3.24925365629879,-174.6,26.2827641279235));
#280=CARTESIAN_POINT('Ctrl Pts',(1.6246268281494,-174.6,26.2827641279235));
#281=CARTESIAN_POINT('Ctrl Pts',(1.19698221875428E-14,-174.6,26.2827641279235));
#282=CARTESIAN_POINT('Ctrl Pts',(-9.28747087821844E-15,-174.599999999996,
26.2827641279243));
#283=CARTESIAN_POINT('Ctrl Pts',(-1.03699682660374E-14,-145.830765347189,
31.6112061001734));
#284=CARTESIAN_POINT('Ctrl Pts',(-7.51343211886363E-15,-116.964098680519,
35.1269842244892));
#285=CARTESIAN_POINT('Ctrl Pts',(-7.17862436697199E-16,-87.999999999985,
36.8300985008716));
#286=CARTESIAN_POINT('Ctrl Pts',(44.7819780336295,14.6523365413869,37.3901683273458));
#287=CARTESIAN_POINT('Ctrl Pts',(44.7819780336295,14.6523365413869,34.3901683273458));
#288=CARTESIAN_POINT('Ctrl Pts',(45.7624885994171,0.39013209778644,38.469527959049));
#289=CARTESIAN_POINT('Ctrl Pts',(45.7624885994171,0.39013209778644,35.469527959049));
#290=CARTESIAN_POINT('Ctrl Pts',(46.0685293209851,-13.9543876447822,39.4362220519454));
#291=CARTESIAN_POINT('Ctrl Pts',(46.0685293209851,-13.9543876447822,36.4362220519454));
#292=CARTESIAN_POINT('Ctrl Pts',(45.9573249059463,-42.5784407647966,40.6492302658366));
#293=CARTESIAN_POINT('Ctrl Pts',(45.9573249059463,-42.5784407647966,37.6492302658366));
#294=CARTESIAN_POINT('Ctrl Pts',(45.5406318900409,-56.9160297050184,40.9004703766613));
#295=CARTESIAN_POINT('Ctrl Pts',(45.5406318900409,-56.9160297050184,37.9004703766613));
#296=CARTESIAN_POINT('Ctrl Pts',(44.8436864491087,-77.8488233457523,40.3773811985672));
#297=CARTESIAN_POINT('Ctrl Pts',(44.8436864491087,-77.8488233457523,37.3773811985672));
#298=CARTESIAN_POINT('Ctrl Pts',(44.6425201972409,-84.1460771472875,40.0734628515183));
#299=CARTESIAN_POINT('Ctrl Pts',(44.6425201972409,-84.1460771472875,37.0734628515183));
#300=CARTESIAN_POINT('Ctrl Pts',(44.1629840680023,-96.5274253189845,39.3040370801807));
#301=CARTESIAN_POINT('Ctrl Pts',(44.1629840680023,-96.5274253189845,36.3040370801807));
#302=CARTESIAN_POINT('Ctrl Pts',(43.8710770038739,-102.733285557825,38.8346235969102));
#303=CARTESIAN_POINT('Ctrl Pts',(43.8710770038739,-102.733285557825,35.8346235969102));
#304=CARTESIAN_POINT('Ctrl Pts',(42.7738722077873,-122.562090837875,37.0674859877332));
#305=CARTESIAN_POINT('Ctrl Pts',(42.7738722077873,-122.562090837875,34.0674859877332));
#306=CARTESIAN_POINT('Ctrl Pts',(41.7740526758104,-136.12883711142,35.4536802166303));
#307=CARTESIAN_POINT('Ctrl Pts',(41.7740526758104,-136.12883711142,32.4536802166303));
#308=CARTESIAN_POINT('Ctrl Pts',(40.5334178355088,-149.630923137666,33.4485948593972));
#309=CARTESIAN_POINT('Ctrl Pts',(40.5334178355088,-149.630923137666,30.4485948593972));
#310=CARTESIAN_POINT('',(40.5334178355088,-149.630923137666,33.4485948593972));
#311=CARTESIAN_POINT('Ctrl Pts',(44.4913591575684,-87.999997550154,39.8297496360239));
#312=CARTESIAN_POINT('Ctrl Pts',(44.4626427353722,-88.7732637108084,39.7845526219162));
#313=CARTESIAN_POINT('Ctrl Pts',(44.4334525867237,-89.5440830938852,39.7380094879952));
#314=CARTESIAN_POINT('Ctrl Pts',(44.1629840680023,-96.5274253189845,39.3040370801807));
#315=CARTESIAN_POINT('Ctrl Pts',(43.8710770038739,-102.733285557825,38.8346235969102));
#316=CARTESIAN_POINT('Ctrl Pts',(42.7738722077873,-122.562090837875,37.0674859877332));
#317=CARTESIAN_POINT('Ctrl Pts',(41.7740526758104,-136.12883711142,35.4536802166303));
#318=CARTESIAN_POINT('Ctrl Pts',(40.5334178355088,-149.630923137666,33.4485948593972));
#319=CARTESIAN_POINT('',(40.5334178355088,-149.630923137666,33.4485948593972));
#320=CARTESIAN_POINT('Ctrl Pts',(38.6929764773395,-174.6,29.2827641279235));
#321=CARTESIAN_POINT('Ctrl Pts',(41.6156091708839,-145.830765347197,34.6112061001721));
#322=CARTESIAN_POINT('Ctrl Pts',(43.5482443047062,-116.96409868053,38.1269842244879));
#323=CARTESIAN_POINT('Ctrl Pts',(44.4908818788062,-88.,39.8300985008707));
#324=CARTESIAN_POINT('Ctrl Pts',(25.7953176515597,-174.6,29.2827641279235));
#325=CARTESIAN_POINT('Ctrl Pts',(27.743739447256,-145.830765347197,34.6112061001721));
#326=CARTESIAN_POINT('Ctrl Pts',(29.0321628698041,-116.96409868053,38.1269842244879));
#327=CARTESIAN_POINT('Ctrl Pts',(29.6605879192041,-88.,39.8300985008707));
#328=CARTESIAN_POINT('Ctrl Pts',(12.8976588257799,-174.6,29.2827641279235));
#329=CARTESIAN_POINT('Ctrl Pts',(13.871869723628,-145.830765347197,34.6112061001722));
#330=CARTESIAN_POINT('Ctrl Pts',(14.5160814349021,-116.96409868053,38.1269842244879));
#331=CARTESIAN_POINT('Ctrl Pts',(14.8302939596021,-88.,39.8300985008707));
#332=CARTESIAN_POINT('Ctrl Pts',(1.19698221875428E-14,-174.6,29.2827641279235));
#333=CARTESIAN_POINT('Ctrl Pts',(1.22414851166283E-14,-145.830765347197,
34.6112061001722));
#334=CARTESIAN_POINT('Ctrl Pts',(8.52245161039372E-15,-116.96409868053,
38.1269842244879));
#335=CARTESIAN_POINT('Ctrl Pts',(8.12721668839201E-16,-88.,39.8300985008707));
#336=CARTESIAN_POINT('',(0.,-174.6,29.2827641279235));
#337=CARTESIAN_POINT('Ctrl Pts',(-9.28747087821844E-15,-174.599999999996,
29.2827641279243));
#338=CARTESIAN_POINT('Ctrl Pts',(-1.03699682660374E-14,-145.830765347189,
34.6112061001734));
#339=CARTESIAN_POINT('Ctrl Pts',(-7.51343211886363E-15,-116.964098680519,
38.1269842244892));
#340=CARTESIAN_POINT('Ctrl Pts',(-7.17862436697199E-16,-87.999999999985,
39.8300985008716));
#341=CARTESIAN_POINT('',(4.87388048444819,-174.6,29.2827641279235));
#342=CARTESIAN_POINT('Ctrl Pts',(4.87388048444819,-174.6,29.2827641279235));
#343=CARTESIAN_POINT('Ctrl Pts',(3.24925365629879,-174.6,29.2827641279235));
#344=CARTESIAN_POINT('Ctrl Pts',(1.6246268281494,-174.6,29.2827641279235));
#345=CARTESIAN_POINT('Ctrl Pts',(1.19698221875428E-14,-174.6,29.2827641279235));
#346=CARTESIAN_POINT('Ctrl Pts',(40.5334178355088,-149.630923137666,33.4485948593972));
#347=CARTESIAN_POINT('Ctrl Pts',(28.6350379919045,-157.962258396657,32.2113757880974));
#348=CARTESIAN_POINT('Ctrl Pts',(16.7485260157852,-166.285283685373,30.8227593322745));
#349=CARTESIAN_POINT('Ctrl Pts',(4.87388048444819,-174.6,29.2827641279235));
#350=CARTESIAN_POINT('Ctrl Pts',(-38.6929714039477,-174.6,29.2827641279235));
#351=CARTESIAN_POINT('Ctrl Pts',(-41.6156037142794,-145.830765347192,34.6112061001731));
#352=CARTESIAN_POINT('Ctrl Pts',(-43.5482385946963,-116.96409868052,38.1269842244891));
#353=CARTESIAN_POINT('Ctrl Pts',(-44.4908760451982,-87.999999999985,39.8300985008716));
#354=CARTESIAN_POINT('Ctrl Pts',(-25.7953142692985,-174.6,29.2827641279235));
#355=CARTESIAN_POINT('Ctrl Pts',(-27.7437358095196,-145.830765347192,34.6112061001731));
#356=CARTESIAN_POINT('Ctrl Pts',(-29.0321590631308,-116.96409868052,38.1269842244891));
#357=CARTESIAN_POINT('Ctrl Pts',(-29.6605840301321,-87.999999999985,39.8300985008716));
#358=CARTESIAN_POINT('Ctrl Pts',(-12.8976571346493,-174.6,29.2827641279235));
#359=CARTESIAN_POINT('Ctrl Pts',(-13.8718679047598,-145.830765347192,34.6112061001731));
#360=CARTESIAN_POINT('Ctrl Pts',(-14.5160795315654,-116.96409868052,38.1269842244891));
#361=CARTESIAN_POINT('Ctrl Pts',(-14.8302920150661,-87.999999999985,39.8300985008716));
#362=CARTESIAN_POINT('Ctrl Pts',(-1.19698221875428E-14,-174.6,29.2827641279235));
#363=CARTESIAN_POINT('Ctrl Pts',(-1.22414851166283E-14,-145.830765347192,
34.6112061001731));
#364=CARTESIAN_POINT('Ctrl Pts',(-8.52245161039243E-15,-116.96409868052,
38.1269842244891));
#365=CARTESIAN_POINT('Ctrl Pts',(-8.12721668835204E-16,-87.999999999985,
39.8300985008716));
#366=CARTESIAN_POINT('',(-40.5334178355088,-149.630923137666,33.4485948593972));
#367=CARTESIAN_POINT('Ctrl Pts',(-40.5334178355088,-149.630923137666,33.4485948593972));
#368=CARTESIAN_POINT('Ctrl Pts',(-42.0694424301352,-132.914049210416,35.9310823109721));
#369=CARTESIAN_POINT('Ctrl Pts',(-43.0498484589213,-118.014687104619,37.512311936877));
#370=CARTESIAN_POINT('Ctrl Pts',(-43.670166716259,-106.30865565841,38.5109978802263));
#371=CARTESIAN_POINT('Ctrl Pts',(-44.0707340504527,-98.7495458709257,39.1558942077037));
#372=CARTESIAN_POINT('Ctrl Pts',(-44.3258577707351,-92.5230765982606,39.5655284807651));
#373=CARTESIAN_POINT('Ctrl Pts',(-44.4911641470353,-88.0000341104548,39.8305665259009));
#374=CARTESIAN_POINT('',(-4.87388048444818,-174.6,29.2827641279235));
#375=CARTESIAN_POINT('Ctrl Pts',(-4.87388048444818,-174.6,29.2827641279235));
#376=CARTESIAN_POINT('Ctrl Pts',(-16.7485260157852,-166.285283685373,30.8227593322758));
#377=CARTESIAN_POINT('Ctrl Pts',(-28.6350379919043,-157.962258396657,32.2113757880961));
#378=CARTESIAN_POINT('Ctrl Pts',(-40.5334178355088,-149.630923137666,33.4485948593972));
#379=CARTESIAN_POINT('Ctrl Pts',(-1.19698221875428E-14,-174.6,29.2827641279235));
#380=CARTESIAN_POINT('Ctrl Pts',(-1.6246268281494,-174.6,29.2827641279235));
#381=CARTESIAN_POINT('Ctrl Pts',(-3.24925365629879,-174.6,29.2827641279235));
#382=CARTESIAN_POINT('Ctrl Pts',(-4.87388048444818,-174.6,29.2827641279235));
#383=CARTESIAN_POINT('Ctrl Pts',(-40.5334178355088,-149.630923137666,33.4485948593972));
#384=CARTESIAN_POINT('Ctrl Pts',(-40.5334178355088,-149.630923137666,30.4485948593972));
#385=CARTESIAN_POINT('Ctrl Pts',(-42.0694424301352,-132.914049210416,35.9310823109721));
#386=CARTESIAN_POINT('Ctrl Pts',(-42.0694424301352,-132.914049210416,32.9310823109721));
#387=CARTESIAN_POINT('Ctrl Pts',(-43.0498484589213,-118.014687104619,37.512311936877));
#388=CARTESIAN_POINT('Ctrl Pts',(-43.0498484589213,-118.014687104619,34.512311936877));
#389=CARTESIAN_POINT('Ctrl Pts',(-43.670166716259,-106.30865565841,38.5109978802263));
#390=CARTESIAN_POINT('Ctrl Pts',(-43.670166716259,-106.30865565841,35.5109978802263));
#391=CARTESIAN_POINT('Ctrl Pts',(-44.1684287834801,-96.9059476801271,39.3131785620808));
#392=CARTESIAN_POINT('Ctrl Pts',(-44.1684287834801,-96.9059476801271,36.3131785620808));
#393=CARTESIAN_POINT('Ctrl Pts',(-44.441651094943,-89.5651872009697,39.7513465943514));
#394=CARTESIAN_POINT('Ctrl Pts',(-44.441651094943,-89.5651872009697,36.7513465943514));
#395=CARTESIAN_POINT('Ctrl Pts',(-44.5968935485512,-85.,40.));
#396=CARTESIAN_POINT('Ctrl Pts',(-44.5968935485512,-85.,37.));
#397=CARTESIAN_POINT('Ctrl Pts',(-44.5989810004381,-84.9386146739174,40.0033434927672));
#398=CARTESIAN_POINT('Ctrl Pts',(-44.5989810004381,-84.9386146739174,37.0033434927672));
#399=CARTESIAN_POINT('Ctrl Pts',(-44.6010463750108,-84.877730853855,40.0066467555126));
#400=CARTESIAN_POINT('Ctrl Pts',(-44.6010463750108,-84.877730853855,37.0066467555126));
#401=CARTESIAN_POINT('Ctrl Pts',(-44.6030898579173,-84.8173502852878,40.0099103442371));
#402=CARTESIAN_POINT('Ctrl Pts',(-44.6030898579173,-84.8173502852878,37.0099103442371));
#403=CARTESIAN_POINT('Ctrl Pts',(-44.6202584975026,-84.3100535438183,40.0373298926898));
#404=CARTESIAN_POINT('Ctrl Pts',(-44.6202584975026,-84.3100535438183,37.0373298926898));
#405=CARTESIAN_POINT('Ctrl Pts',(-44.6362686567394,-83.8382937914267,40.0619522465972));
#406=CARTESIAN_POINT('Ctrl Pts',(-44.6362686567394,-83.8382937914267,37.0619522465972));
#407=CARTESIAN_POINT('Ctrl Pts',(-44.6510591412321,-83.4030976423477,40.0840803706063));
#408=CARTESIAN_POINT('Ctrl Pts',(-44.6510591412321,-83.4030976423477,37.0840803706063));
#409=CARTESIAN_POINT('Ctrl Pts',(-44.665148744591,-82.9885242639795,40.1051599025526));
#410=CARTESIAN_POINT('Ctrl Pts',(-44.665148744591,-82.9885242639795,37.1051599025526));
#411=CARTESIAN_POINT('Ctrl Pts',(-44.679211802468,-82.5753686857261,40.1255892916479));
#412=CARTESIAN_POINT('Ctrl Pts',(-44.679211802468,-82.5753686857261,37.1255892916479));
#413=CARTESIAN_POINT('Ctrl Pts',(-44.693314912906,-82.1614535403745,40.1454858909202));
#414=CARTESIAN_POINT('Ctrl Pts',(-44.693314912906,-82.1614535403745,37.1454858909202));
#415=CARTESIAN_POINT('Ctrl Pts',(-45.2231952025072,-66.6098858168074,40.8930384135273));
#416=CARTESIAN_POINT('Ctrl Pts',(-45.2231952025072,-66.6098858168074,37.8930384135273));
#417=CARTESIAN_POINT('Ctrl Pts',(-45.7740859902146,-51.0147757087808,40.8388827775554));
#418=CARTESIAN_POINT('Ctrl Pts',(-45.7740859902146,-51.0147757087808,37.8388827775554));
#419=CARTESIAN_POINT('Ctrl Pts',(-45.9564409755546,-35.4319825318391,40.3155180987983));
#420=CARTESIAN_POINT('Ctrl Pts',(-45.9564409755546,-35.4319825318391,37.3155180987983));
#421=CARTESIAN_POINT('Ctrl Pts',(-46.074888830922,-25.3102497533178,39.9755689405219));
#422=CARTESIAN_POINT('Ctrl Pts',(-46.074888830922,-25.3102497533178,36.9755689405219));
#423=CARTESIAN_POINT('Ctrl Pts',(-46.0383341075947,-15.1966756673496,39.4371211136319));
#424=CARTESIAN_POINT('Ctrl Pts',(-46.0383341075947,-15.1966756673496,36.4371211136319));
#425=CARTESIAN_POINT('Ctrl Pts',(-45.7378840201618,-5.09154146116419,38.7854536305053));
#426=CARTESIAN_POINT('Ctrl Pts',(-45.7378840201618,-5.09154146116419,35.7854536305053));
#427=CARTESIAN_POINT('Ctrl Pts',(-45.5418862931301,1.50051298849693,38.3603402728603));
#428=CARTESIAN_POINT('Ctrl Pts',(-45.5418862931301,1.50051298849693,35.3603402728603));
#429=CARTESIAN_POINT('Ctrl Pts',(-45.2334717221451,8.0850485229945,37.887178842435));
#430=CARTESIAN_POINT('Ctrl Pts',(-45.2334717221451,8.0850485229945,34.887178842435));
#431=CARTESIAN_POINT('Ctrl Pts',(-44.7819780336295,14.6523365413869,37.3901683273458));
#432=CARTESIAN_POINT('Ctrl Pts',(-44.7819780336295,14.6523365413869,34.3901683273458));
#433=CARTESIAN_POINT('',(-40.5334178355088,-149.630923137666,30.4485948593972));
#434=CARTESIAN_POINT('Ctrl Pts',(-40.5334178355088,-149.630923137666,30.4485948593972));
#435=CARTESIAN_POINT('Ctrl Pts',(-42.0694424301352,-132.914049210416,32.9310823109721));
#436=CARTESIAN_POINT('Ctrl Pts',(-43.0498484589213,-118.014687104619,34.512311936877));
#437=CARTESIAN_POINT('Ctrl Pts',(-43.670166716259,-106.30865565841,35.5109978802263));
#438=CARTESIAN_POINT('Ctrl Pts',(-44.0707340504527,-98.7495458709258,36.1558942077037));
#439=CARTESIAN_POINT('Ctrl Pts',(-44.3258577707351,-92.5230765982606,36.5655284807651));
#440=CARTESIAN_POINT('Ctrl Pts',(-44.4911641470353,-88.0000341104549,36.8305665259009));
#441=CARTESIAN_POINT('',(-40.5334178355088,-149.630923137666,33.4485948593972));
#442=CARTESIAN_POINT('Origin',(-4.87388048444818,-174.6,29.2827641279235));
#443=CARTESIAN_POINT('',(-4.87388048444818,-174.6,26.2827641279235));
#444=CARTESIAN_POINT('Ctrl Pts',(-4.87388048444818,-174.6,26.2827641279235));
#445=CARTESIAN_POINT('Ctrl Pts',(-16.7485260157852,-166.285283685373,27.8227593322758));
#446=CARTESIAN_POINT('Ctrl Pts',(-28.6350379919043,-157.962258396657,29.2113757880961));
#447=CARTESIAN_POINT('Ctrl Pts',(-40.5334178355088,-149.630923137666,30.4485948593972));
#448=CARTESIAN_POINT('',(-4.87388048444818,-174.6,29.2827641279235));
#449=CARTESIAN_POINT('Ctrl Pts',(-38.6929714039477,-174.6,26.2827641279235));
#450=CARTESIAN_POINT('Ctrl Pts',(-41.6156037142794,-145.830765347192,31.6112061001731));
#451=CARTESIAN_POINT('Ctrl Pts',(-43.5482385946963,-116.96409868052,35.1269842244891));
#452=CARTESIAN_POINT('Ctrl Pts',(-44.4908760451982,-87.999999999985,36.8300985008716));
#453=CARTESIAN_POINT('Ctrl Pts',(-25.7953142692985,-174.6,26.2827641279235));
#454=CARTESIAN_POINT('Ctrl Pts',(-27.7437358095196,-145.830765347192,31.6112061001731));
#455=CARTESIAN_POINT('Ctrl Pts',(-29.0321590631308,-116.964098680521,35.1269842244891));
#456=CARTESIAN_POINT('Ctrl Pts',(-29.6605840301321,-87.999999999985,36.8300985008716));
#457=CARTESIAN_POINT('Ctrl Pts',(-12.8976571346493,-174.6,26.2827641279235));
#458=CARTESIAN_POINT('Ctrl Pts',(-13.8718679047598,-145.830765347192,31.6112061001731));
#459=CARTESIAN_POINT('Ctrl Pts',(-14.5160795315654,-116.96409868052,35.1269842244891));
#460=CARTESIAN_POINT('Ctrl Pts',(-14.8302920150661,-87.999999999985,36.8300985008716));
#461=CARTESIAN_POINT('Ctrl Pts',(-1.19698221875428E-14,-174.6,26.2827641279235));
#462=CARTESIAN_POINT('Ctrl Pts',(-1.22414851166283E-14,-145.830765347192,
31.6112061001731));
#463=CARTESIAN_POINT('Ctrl Pts',(-8.52245161039243E-15,-116.96409868052,
35.1269842244891));
#464=CARTESIAN_POINT('Ctrl Pts',(-8.12721668835204E-16,-87.999999999985,
36.8300985008716));
#465=CARTESIAN_POINT('Ctrl Pts',(-1.19698221875428E-14,-174.6,26.2827641279235));
#466=CARTESIAN_POINT('Ctrl Pts',(-1.6246268281494,-174.6,26.2827641279235));
#467=CARTESIAN_POINT('Ctrl Pts',(-3.24925365629879,-174.6,26.2827641279235));
#468=CARTESIAN_POINT('Ctrl Pts',(-4.87388048444818,-174.6,26.2827641279235));
#469=CARTESIAN_POINT('Origin',(4.87388048444819,-174.6,29.2827641279235));
#470=CARTESIAN_POINT('',(4.87388048444819,-174.6,29.2827641279235));
#471=CARTESIAN_POINT('Origin',(40.5334178355088,-149.630923137666,33.4485948593972));
#472=UNCERTAINTY_MEASURE_WITH_UNIT(LENGTH_MEASURE(0.01),#476,
'DISTANCE_ACCURACY_VALUE',
'Maximum model space distance between geometric entities at asserted c
onnectivities');
#473=UNCERTAINTY_MEASURE_WITH_UNIT(LENGTH_MEASURE(0.01),#476,
'DISTANCE_ACCURACY_VALUE',
'Maximum model space distance between geometric entities at asserted c
onnectivities');
#474=(
GEOMETRIC_REPRESENTATION_CONTEXT(3)
GLOBAL_UNCERTAINTY_ASSIGNED_CONTEXT((#472))
GLOBAL_UNIT_ASSIGNED_CONTEXT((#476,#478,#479))
REPRESENTATION_CONTEXT('','3D')
);
#475=(
GEOMETRIC_REPRESENTATION_CONTEXT(3)
GLOBAL_UNCERTAINTY_ASSIGNED_CONTEXT((#473))
GLOBAL_UNIT_ASSIGNED_CONTEXT((#476,#478,#479))
REPRESENTATION_CONTEXT('','3D')
);
#476=(
LENGTH_UNIT()
NAMED_UNIT(*)
SI_UNIT(.MILLI.,.METRE.)
);
#477=(
LENGTH_UNIT()
NAMED_UNIT(*)
SI_UNIT($,.METRE.)
);
#478=(
NAMED_UNIT(*)
PLANE_ANGLE_UNIT()
SI_UNIT($,.RADIAN.)
);
#479=(
NAMED_UNIT(*)
SI_UNIT($,.STERADIAN.)
SOLID_ANGLE_UNIT()
);
#480=SHAPE_DEFINITION_REPRESENTATION(#481,#482);
#481=PRODUCT_DEFINITION_SHAPE('',$,#484);
#482=SHAPE_REPRESENTATION('',(#184),#474);
#483=PRODUCT_DEFINITION_CONTEXT('part definition',#488,'design');
#484=PRODUCT_DEFINITION('C1','C1',#485,#483);
#485=PRODUCT_DEFINITION_FORMATION('',$,#490);
#486=PRODUCT_RELATED_PRODUCT_CATEGORY('C1','C1',(#490));
#487=APPLICATION_PROTOCOL_DEFINITION('international standard',
'automotive_design',2009,#488);
#488=APPLICATION_CONTEXT(
'Core Data for Automotive Mechanical Design Process');
#489=PRODUCT_CONTEXT('part definition',#488,'mechanical');
#490=PRODUCT('C1','C1',$,(#489));
#491=PRESENTATION_STYLE_ASSIGNMENT((#493));
#492=PRESENTATION_STYLE_ASSIGNMENT((#494));
#493=SURFACE_STYLE_USAGE(.BOTH.,#495);
#494=SURFACE_STYLE_USAGE(.BOTH.,#496);
#495=SURFACE_SIDE_STYLE('',(#497));
#496=SURFACE_SIDE_STYLE('',(#498));
#497=SURFACE_STYLE_FILL_AREA(#499);
#498=SURFACE_STYLE_FILL_AREA(#500);
#499=FILL_AREA_STYLE('Steel - Satin',(#501));
#500=FILL_AREA_STYLE('Paint - Enamel Glossy (Red)',(#502));
#501=FILL_AREA_STYLE_COLOUR('Steel - Satin',#503);
#502=FILL_AREA_STYLE_COLOUR('Paint - Enamel Glossy (Red)',#504);
#503=COLOUR_RGB('Steel - Satin',0.627450980392157,0.627450980392157,0.627450980392157);
#504=COLOUR_RGB('Paint - Enamel Glossy (Red)',0.768627450980392,0.207843137254902,
0.152941176470588);
ENDSEC;
END-ISO-10303-21;
