ISO-10303-21;
HEADER;
/* Generated by software containing ST-Developer
 * from STEP Tools, Inc. (www.steptools.com) 
 */

FILE_DESCRIPTION(
/* description */ (''),
/* implementation_level */ '2;1');

FILE_NAME(
/* name */ 'C2.step',
/* time_stamp */ '2026-07-02T23:32:56-07:00',
/* author */ (''),
/* organization */ (''),
/* preprocessor_version */ 'ST-DEVELOPER v20.1',
/* originating_system */ 'Autodesk Translation Framework v15.8.0.0',
/* authorisation */ '');

FILE_SCHEMA (('AUTOMOTIVE_DESIGN { 1 0 10303 214 3 1 1 }'));
ENDSEC;

DATA;
#10=MECHANICAL_DESIGN_GEOMETRIC_PRESENTATION_REPRESENTATION('',(#13),#1268);
#11=SHAPE_REPRESENTATION_RELATIONSHIP('SRR','None',#1275,#12);
#12=ADVANCED_BREP_SHAPE_REPRESENTATION('',(#14),#1267);
#13=STYLED_ITEM('',(#1285),#14);
#14=MANIFOLD_SOLID_BREP('C2',#448);
#15=FACE_BOUND('',#106,.T.);
#16=FACE_BOUND('',#110,.T.);
#17=CIRCLE('',#467,1.5);
#18=CIRCLE('',#468,1.5);
#19=CIRCLE('',#469,4.);
#20=CIRCLE('',#470,2.00000000000001);
#21=CIRCLE('',#472,2.);
#22=CIRCLE('',#473,2.);
#23=CIRCLE('',#476,2.);
#24=CIRCLE('',#478,2.);
#25=CYLINDRICAL_SURFACE('',#466,1.5);
#26=CYLINDRICAL_SURFACE('',#475,2.);
#27=CYLINDRICAL_SURFACE('',#480,2.);
#28=LINE('',#618,#43);
#29=LINE('',#625,#44);
#30=LINE('',#640,#45);
#31=LINE('',#695,#46);
#32=LINE('',#766,#47);
#33=LINE('',#768,#48);
#34=LINE('',#770,#49);
#35=LINE('',#771,#50);
#36=LINE('',#776,#51);
#37=LINE('',#1069,#52);
#38=LINE('',#1071,#53);
#39=LINE('',#1075,#54);
#40=LINE('',#1076,#55);
#41=LINE('',#1082,#56);
#42=LINE('',#1084,#57);
#43=VECTOR('',#486,10.);
#44=VECTOR('',#487,10.);
#45=VECTOR('',#490,10.);
#46=VECTOR('',#493,10.);
#47=VECTOR('',#496,10.);
#48=VECTOR('',#497,10.);
#49=VECTOR('',#498,10.);
#50=VECTOR('',#499,10.);
#51=VECTOR('',#504,1.5);
#52=VECTOR('',#515,10.);
#53=VECTOR('',#516,10.);
#54=VECTOR('',#521,10.);
#55=VECTOR('',#522,10.);
#56=VECTOR('',#531,10.);
#57=VECTOR('',#534,10.);
#58=PLANE('',#462);
#59=PLANE('',#463);
#60=PLANE('',#464);
#61=PLANE('',#465);
#62=PLANE('',#471);
#63=PLANE('',#474);
#64=PLANE('',#477);
#65=PLANE('',#479);
#66=PLANE('',#481);
#67=FACE_OUTER_BOUND('',#91,.T.);
#68=FACE_OUTER_BOUND('',#92,.T.);
#69=FACE_OUTER_BOUND('',#93,.T.);
#70=FACE_OUTER_BOUND('',#94,.T.);
#71=FACE_OUTER_BOUND('',#95,.T.);
#72=FACE_OUTER_BOUND('',#96,.T.);
#73=FACE_OUTER_BOUND('',#97,.T.);
#74=FACE_OUTER_BOUND('',#98,.T.);
#75=FACE_OUTER_BOUND('',#99,.T.);
#76=FACE_OUTER_BOUND('',#100,.T.);
#77=FACE_OUTER_BOUND('',#101,.T.);
#78=FACE_OUTER_BOUND('',#102,.T.);
#79=FACE_OUTER_BOUND('',#103,.T.);
#80=FACE_OUTER_BOUND('',#104,.T.);
#81=FACE_OUTER_BOUND('',#105,.T.);
#82=FACE_OUTER_BOUND('',#107,.T.);
#83=FACE_OUTER_BOUND('',#108,.T.);
#84=FACE_OUTER_BOUND('',#109,.T.);
#85=FACE_OUTER_BOUND('',#111,.T.);
#86=FACE_OUTER_BOUND('',#112,.T.);
#87=FACE_OUTER_BOUND('',#113,.T.);
#88=FACE_OUTER_BOUND('',#114,.T.);
#89=FACE_OUTER_BOUND('',#115,.T.);
#90=FACE_OUTER_BOUND('',#116,.T.);
#91=EDGE_LOOP('',(#276,#277,#278,#279,#280));
#92=EDGE_LOOP('',(#281,#282,#283,#284,#285,#286));
#93=EDGE_LOOP('',(#287,#288,#289,#290));
#94=EDGE_LOOP('',(#291,#292,#293,#294));
#95=EDGE_LOOP('',(#295,#296,#297,#298));
#96=EDGE_LOOP('',(#299,#300,#301,#302,#303,#304,#305,#306,#307));
#97=EDGE_LOOP('',(#308,#309,#310,#311));
#98=EDGE_LOOP('',(#312,#313,#314,#315));
#99=EDGE_LOOP('',(#316,#317,#318,#319,#320));
#100=EDGE_LOOP('',(#321,#322,#323,#324,#325,#326));
#101=EDGE_LOOP('',(#327,#328,#329,#330,#331));
#102=EDGE_LOOP('',(#332,#333,#334,#335,#336));
#103=EDGE_LOOP('',(#337,#338,#339,#340,#341,#342));
#104=EDGE_LOOP('',(#343,#344,#345,#346,#347));
#105=EDGE_LOOP('',(#348,#349,#350,#351,#352,#353,#354,#355));
#106=EDGE_LOOP('',(#356));
#107=EDGE_LOOP('',(#357,#358,#359,#360,#361,#362,#363,#364,#365));
#108=EDGE_LOOP('',(#366,#367,#368,#369));
#109=EDGE_LOOP('',(#370,#371,#372,#373,#374,#375,#376,#377));
#110=EDGE_LOOP('',(#378));
#111=EDGE_LOOP('',(#379,#380,#381,#382,#383));
#112=EDGE_LOOP('',(#384,#385,#386,#387));
#113=EDGE_LOOP('',(#388,#389,#390,#391,#392,#393,#394,#395,#396));
#114=EDGE_LOOP('',(#397,#398,#399,#400));
#115=EDGE_LOOP('',(#401,#402,#403,#404,#405));
#116=EDGE_LOOP('',(#406,#407,#408,#409,#410,#411));
#117=B_SPLINE_CURVE_WITH_KNOTS('',3,(#574,#575,#576,#577,#578,#579),
 .UNSPECIFIED.,.F.,.F.,(4,2,4),(-4.46599108473668,-2.23299554236834,-0.0169034802430272),
 .UNSPECIFIED.);
#118=B_SPLINE_CURVE_WITH_KNOTS('',3,(#581,#582,#583,#584,#585,#586,#587,
#588),.UNSPECIFIED.,.F.,.F.,(4,2,2,4),(0.370391756809895,0.37765800319119,
0.690924119680174,0.70215785058148),.UNSPECIFIED.);
#119=B_SPLINE_CURVE_WITH_KNOTS('',3,(#590,#591,#592,#593),.UNSPECIFIED.,
 .F.,.F.,(4,4),(-1.03343145750508,-0.0499999999999992),.UNSPECIFIED.);
#120=B_SPLINE_CURVE_WITH_KNOTS('',3,(#595,#596,#597,#598,#599,#600,#601,
#602),.UNSPECIFIED.,.F.,.F.,(4,2,2,4),(-5.83494872042026,-3.84401883204197,
-2.5948177467355,-0.0500776911293416),.UNSPECIFIED.);
#121=B_SPLINE_CURVE_WITH_KNOTS('',3,(#603,#604,#605,#606,#607,#608,#609,
#610),.UNSPECIFIED.,.F.,.F.,(4,2,2,4),(-15.8238784647869,-11.8255865560315,
-7.83627433721037,-6.2125368473867),.UNSPECIFIED.);
#122=B_SPLINE_CURVE_WITH_KNOTS('',3,(#614,#615,#616,#617),.UNSPECIFIED.,
 .F.,.F.,(4,4),(-1.03343145750508,-0.0499999999999992),.UNSPECIFIED.);
#123=B_SPLINE_CURVE_WITH_KNOTS('',3,(#620,#621,#622,#623),.UNSPECIFIED.,
 .F.,.F.,(4,4),(-0.983431457505082,0.),.UNSPECIFIED.);
#124=B_SPLINE_CURVE_WITH_KNOTS('',3,(#626,#627,#628,#629),.UNSPECIFIED.,
 .F.,.F.,(4,4),(-0.983431457505082,0.),.UNSPECIFIED.);
#125=B_SPLINE_CURVE_WITH_KNOTS('',3,(#632,#633,#634,#635,#636,#637,#638,
#639),.UNSPECIFIED.,.F.,.F.,(4,2,2,4),(-5.83494872042026,-3.84401883204197,
-2.5948177467355,-0.0500776911293416),.UNSPECIFIED.);
#126=B_SPLINE_CURVE_WITH_KNOTS('',3,(#666,#667,#668,#669,#670,#671),
 .UNSPECIFIED.,.F.,.F.,(4,2,4),(-0.3,-0.15,0.),.UNSPECIFIED.);
#127=B_SPLINE_CURVE_WITH_KNOTS('',3,(#672,#673,#674,#675,#676,#677,#678,
#679),.UNSPECIFIED.,.F.,.F.,(4,2,2,4),(-15.8238784647869,-11.8255865560315,
-7.83627433721037,-6.2125368473867),.UNSPECIFIED.);
#128=B_SPLINE_CURVE_WITH_KNOTS('',3,(#682,#683,#684,#685,#686,#687),
 .UNSPECIFIED.,.F.,.F.,(4,2,4),(-3.77190741466975,-1.33997553502865,-0.0517267708667985),
 .UNSPECIFIED.);
#129=B_SPLINE_CURVE_WITH_KNOTS('',3,(#689,#690,#691,#692,#693,#694),
 .UNSPECIFIED.,.F.,.F.,(4,2,4),(-3.77190741466975,-1.33997553502865,-0.0517267708667985),
 .UNSPECIFIED.);
#130=B_SPLINE_CURVE_WITH_KNOTS('',3,(#729,#730,#731,#732,#733,#734),
 .UNSPECIFIED.,.F.,.F.,(4,2,4),(-4.44908760449365,-2.23299554236834,0.),
 .UNSPECIFIED.);
#131=B_SPLINE_CURVE_WITH_KNOTS('',3,(#736,#737,#738,#739,#740,#741),
 .UNSPECIFIED.,.F.,.F.,(4,2,4),(0.657928526768699,0.690924119680174,0.70215785058148),
 .UNSPECIFIED.);
#132=B_SPLINE_CURVE_WITH_KNOTS('',3,(#743,#744,#745,#746),.UNSPECIFIED.,
 .F.,.F.,(4,4),(-0.359999999999994,-5.78625480479144E-16),.UNSPECIFIED.);
#133=B_SPLINE_CURVE_WITH_KNOTS('',3,(#748,#749,#750,#751),.UNSPECIFIED.,
 .F.,.F.,(4,4),(18.9945465684082,20.727204189959),.UNSPECIFIED.);
#134=B_SPLINE_CURVE_WITH_KNOTS('',3,(#753,#754,#755,#756),.UNSPECIFIED.,
 .F.,.F.,(4,4),(-4.49575041929952,-4.13575041929952),.UNSPECIFIED.);
#135=B_SPLINE_CURVE_WITH_KNOTS('',3,(#757,#758,#759,#760,#761,#762),
 .UNSPECIFIED.,.F.,.F.,(4,2,4),(0.370391756809895,0.37765800319119,0.616149293275082),
 .UNSPECIFIED.);
#136=B_SPLINE_CURVE_WITH_KNOTS('',3,(#799,#800,#801,#802),.UNSPECIFIED.,
 .F.,.F.,(4,4),(-0.36,-2.9785232194076E-15),.UNSPECIFIED.);
#137=B_SPLINE_CURVE_WITH_KNOTS('',3,(#806,#807,#808,#809),.UNSPECIFIED.,
 .F.,.F.,(4,4),(2.9785232194076E-15,0.16),.UNSPECIFIED.);
#138=B_SPLINE_CURVE_WITH_KNOTS('',3,(#811,#812,#813,#814),.UNSPECIFIED.,
 .F.,.F.,(4,4),(0.,0.0189697719756931),.UNSPECIFIED.);
#139=B_SPLINE_CURVE_WITH_KNOTS('',3,(#815,#816,#817,#818,#819,#820,#821,
#822,#823,#824,#825,#826,#827,#828,#829,#830,#831,#832,#833,#834,#835,#836,
#837,#838,#839,#840,#841,#842,#843,#844,#845,#846,#847,#848,#849,#850,#851,
#852,#853,#854,#855,#856,#857,#858,#859,#860),.UNSPECIFIED.,.F.,.F.,(4,
3,3,3,3,3,3,3,3,3,3,3,3,3,3,4),(-0.00109469424002937,0.,0.0455312560323673,
0.0901968868556646,0.127890207997068,0.168393033967653,0.208626215723213,
0.248859397478774,0.287037787975954,0.2955162274377,0.332429042817189,0.370687375231348,
0.387450098144791,0.424111587527166,0.461320224361872,0.495238470308528),
 .UNSPECIFIED.);
#140=B_SPLINE_CURVE_WITH_KNOTS('',3,(#882,#883,#884,#885,#886,#887,#888,
#889,#890,#891,#892,#893),.UNSPECIFIED.,.F.,.F.,(4,2,2,2,2,4),(-0.385921572556722,
-0.324321757666627,-0.250190541533689,-0.148473004623374,0.,0.000894318983661229),
 .UNSPECIFIED.);
#141=B_SPLINE_CURVE_WITH_KNOTS('',3,(#895,#896,#897,#898),.UNSPECIFIED.,
 .F.,.F.,(4,4),(0.299508205049876,0.315441462533693),.UNSPECIFIED.);
#142=B_SPLINE_CURVE_WITH_KNOTS('',3,(#900,#901,#902,#903),.UNSPECIFIED.,
 .F.,.F.,(4,4),(-20.5265703186,-19.3411265923773),.UNSPECIFIED.);
#143=B_SPLINE_CURVE_WITH_KNOTS('',3,(#905,#906,#907,#908),.UNSPECIFIED.,
 .F.,.F.,(4,4),(19.3406094927233,19.3411140494891),.UNSPECIFIED.);
#144=B_SPLINE_CURVE_WITH_KNOTS('',3,(#909,#910,#911,#912,#913,#914,#915,
#916,#917,#918,#919,#920),.UNSPECIFIED.,.F.,.F.,(4,2,2,2,2,4),(-0.426106575152477,
-0.425166770104336,-0.315371853267374,-0.211518694319303,-0.092537306358882,
0.),.UNSPECIFIED.);
#145=B_SPLINE_CURVE_WITH_KNOTS('',3,(#944,#945,#946,#947),.UNSPECIFIED.,
 .F.,.F.,(4,4),(5.78625480479144E-16,0.159999999999994),.UNSPECIFIED.);
#146=B_SPLINE_CURVE_WITH_KNOTS('',3,(#948,#949,#950,#951),.UNSPECIFIED.,
 .F.,.F.,(4,4),(0.159999999999994,0.160629606092577),.UNSPECIFIED.);
#147=B_SPLINE_CURVE_WITH_KNOTS('',3,(#973,#974,#975,#976),.UNSPECIFIED.,
 .F.,.F.,(4,4),(4.20099028651188,4.36099028651189),.UNSPECIFIED.);
#148=B_SPLINE_CURVE_WITH_KNOTS('',3,(#978,#979,#980,#981),.UNSPECIFIED.,
 .F.,.F.,(4,4),(-4.36099028651189,-4.00099028651188),.UNSPECIFIED.);
#149=B_SPLINE_CURVE_WITH_KNOTS('',3,(#983,#984,#985,#986,#987,#988,#989,
#990,#991,#992,#993,#994),.UNSPECIFIED.,.F.,.F.,(4,2,2,2,2,4),(0.,0.0571610107604457,
0.125950425965982,0.220338326842469,0.358112556037417,0.358942431535591),
 .UNSPECIFIED.);
#150=B_SPLINE_CURVE_WITH_KNOTS('',3,(#995,#996,#997,#998),.UNSPECIFIED.,
 .F.,.F.,(4,4),(-4.20099028651188,-4.2003606804193),.UNSPECIFIED.);
#151=B_SPLINE_CURVE_WITH_KNOTS('',3,(#1021,#1022,#1023,#1024),
 .UNSPECIFIED.,.F.,.F.,(4,4),(-3.20818460398433,-2.02274087687827),
 .UNSPECIFIED.);
#152=B_SPLINE_CURVE_WITH_KNOTS('',3,(#1025,#1026,#1027,#1028),
 .UNSPECIFIED.,.F.,.F.,(4,4),(0.,0.0159496955145541),.UNSPECIFIED.);
#153=B_SPLINE_CURVE_WITH_KNOTS('',3,(#1029,#1030,#1031,#1032),
 .UNSPECIFIED.,.F.,.F.,(4,4),(1.82210700549572,3.55476462837229),
 .UNSPECIFIED.);
#154=B_SPLINE_CURVE_WITH_KNOTS('',3,(#1033,#1034,#1035,#1036),
 .UNSPECIFIED.,.F.,.F.,(4,4),(-3.2087017035866,-3.20819714682007),
 .UNSPECIFIED.);
#155=B_SPLINE_CURVE_WITH_KNOTS('',3,(#1058,#1059,#1060,#1061),
 .UNSPECIFIED.,.F.,.F.,(4,4),(4.33575041929952,4.49575041929952),
 .UNSPECIFIED.);
#156=B_SPLINE_CURVE_WITH_KNOTS('',3,(#1062,#1063,#1064,#1065),
 .UNSPECIFIED.,.F.,.F.,(4,4),(0.419819652971152,0.438787322508535),
 .UNSPECIFIED.);
#157=B_SPLINE_CURVE_WITH_KNOTS('',3,(#1119,#1120,#1121,#1122,#1123,#1124),
 .UNSPECIFIED.,.F.,.F.,(4,2,4),(-4.46572160531896,-2.23286080265948,-0.0166340008291108),
 .UNSPECIFIED.);
#158=B_SPLINE_CURVE_WITH_KNOTS('',3,(#1125,#1126,#1127,#1128,#1129,#1130,
#1131,#1132,#1133,#1134,#1135,#1136,#1137,#1138,#1139,#1140,#1141,#1142,
#1143,#1144,#1145,#1146),.UNSPECIFIED.,.F.,.F.,(4,3,3,3,3,3,3,4),(-10.1874002907031,
-9.96075821292983,-9.94521527208248,-9.81462883621717,-9.6902305390348,
-5.01635338074762,-1.98045762710186,0.),.UNSPECIFIED.);
#159=B_SPLINE_CURVE_WITH_KNOTS('',3,(#1198,#1199,#1200,#1201,#1202,#1203),
 .UNSPECIFIED.,.F.,.F.,(4,2,4),(-0.3,-0.15,0.),.UNSPECIFIED.);
#160=B_SPLINE_CURVE_WITH_KNOTS('',3,(#1204,#1205,#1206,#1207,#1208,#1209,
#1210,#1211,#1212,#1213,#1214,#1215,#1216,#1217,#1218,#1219,#1220,#1221,
#1222,#1223,#1224,#1225),.UNSPECIFIED.,.F.,.F.,(4,3,3,3,3,3,3,4),(-10.1874002907031,
-9.96075821292983,-9.94521527208248,-9.81462883621717,-9.6902305390348,
-5.01635338074762,-1.98045762710186,0.),.UNSPECIFIED.);
#161=B_SPLINE_CURVE_WITH_KNOTS('',3,(#1258,#1259,#1260,#1261,#1262,#1263),
 .UNSPECIFIED.,.F.,.F.,(4,2,4),(-4.44908760448985,-2.23286080265948,0.),
 .UNSPECIFIED.);
#162=VERTEX_POINT('',#572);
#163=VERTEX_POINT('',#573);
#164=VERTEX_POINT('',#580);
#165=VERTEX_POINT('',#589);
#166=VERTEX_POINT('',#594);
#167=VERTEX_POINT('',#612);
#168=VERTEX_POINT('',#613);
#169=VERTEX_POINT('',#619);
#170=VERTEX_POINT('',#624);
#171=VERTEX_POINT('',#631);
#172=VERTEX_POINT('',#665);
#173=VERTEX_POINT('',#681);
#174=VERTEX_POINT('',#688);
#175=VERTEX_POINT('',#728);
#176=VERTEX_POINT('',#735);
#177=VERTEX_POINT('',#742);
#178=VERTEX_POINT('',#747);
#179=VERTEX_POINT('',#752);
#180=VERTEX_POINT('',#764);
#181=VERTEX_POINT('',#765);
#182=VERTEX_POINT('',#767);
#183=VERTEX_POINT('',#769);
#184=VERTEX_POINT('',#773);
#185=VERTEX_POINT('',#775);
#186=VERTEX_POINT('',#798);
#187=VERTEX_POINT('',#803);
#188=VERTEX_POINT('',#805);
#189=VERTEX_POINT('',#810);
#190=VERTEX_POINT('',#881);
#191=VERTEX_POINT('',#894);
#192=VERTEX_POINT('',#899);
#193=VERTEX_POINT('',#904);
#194=VERTEX_POINT('',#941);
#195=VERTEX_POINT('',#943);
#196=VERTEX_POINT('',#972);
#197=VERTEX_POINT('',#977);
#198=VERTEX_POINT('',#982);
#199=VERTEX_POINT('',#1019);
#200=VERTEX_POINT('',#1020);
#201=VERTEX_POINT('',#1057);
#202=VERTEX_POINT('',#1067);
#203=VERTEX_POINT('',#1070);
#204=VERTEX_POINT('',#1074);
#205=VERTEX_POINT('',#1080);
#206=VERTEX_POINT('',#1118);
#207=VERTEX_POINT('',#1197);
#208=EDGE_CURVE('',#162,#163,#117,.T.);
#209=EDGE_CURVE('',#162,#164,#118,.T.);
#210=EDGE_CURVE('',#164,#165,#119,.T.);
#211=EDGE_CURVE('',#165,#166,#120,.T.);
#212=EDGE_CURVE('',#166,#163,#121,.T.);
#213=EDGE_CURVE('',#167,#168,#122,.T.);
#214=EDGE_CURVE('',#168,#165,#28,.T.);
#215=EDGE_CURVE('',#169,#164,#123,.T.);
#216=EDGE_CURVE('',#170,#169,#29,.T.);
#217=EDGE_CURVE('',#170,#167,#124,.T.);
#218=EDGE_CURVE('',#168,#171,#125,.T.);
#219=EDGE_CURVE('',#171,#166,#30,.T.);
#220=EDGE_CURVE('',#163,#172,#126,.T.);
#221=EDGE_CURVE('',#171,#172,#127,.T.);
#222=EDGE_CURVE('',#173,#170,#128,.T.);
#223=EDGE_CURVE('',#174,#169,#129,.T.);
#224=EDGE_CURVE('',#173,#174,#31,.T.);
#225=EDGE_CURVE('',#172,#175,#130,.T.);
#226=EDGE_CURVE('',#176,#167,#131,.T.);
#227=EDGE_CURVE('',#177,#176,#132,.T.);
#228=EDGE_CURVE('',#178,#177,#133,.T.);
#229=EDGE_CURVE('',#179,#178,#134,.T.);
#230=EDGE_CURVE('',#175,#179,#135,.T.);
#231=EDGE_CURVE('',#180,#181,#32,.T.);
#232=EDGE_CURVE('',#182,#180,#33,.T.);
#233=EDGE_CURVE('',#183,#182,#34,.T.);
#234=EDGE_CURVE('',#181,#183,#35,.T.);
#235=EDGE_CURVE('',#184,#184,#17,.T.);
#236=EDGE_CURVE('',#184,#185,#36,.T.);
#237=EDGE_CURVE('',#185,#185,#18,.T.);
#238=EDGE_CURVE('',#186,#179,#136,.T.);
#239=EDGE_CURVE('',#187,#179,#19,.T.);
#240=EDGE_CURVE('',#187,#188,#137,.T.);
#241=EDGE_CURVE('',#188,#189,#138,.T.);
#242=EDGE_CURVE('',#186,#189,#139,.T.);
#243=EDGE_CURVE('',#190,#177,#140,.T.);
#244=EDGE_CURVE('',#190,#191,#141,.T.);
#245=EDGE_CURVE('',#191,#192,#142,.T.);
#246=EDGE_CURVE('',#193,#192,#143,.T.);
#247=EDGE_CURVE('',#178,#193,#144,.T.);
#248=EDGE_CURVE('',#194,#176,#20,.T.);
#249=EDGE_CURVE('',#194,#195,#145,.T.);
#250=EDGE_CURVE('',#195,#190,#146,.T.);
#251=EDGE_CURVE('',#196,#194,#147,.T.);
#252=EDGE_CURVE('',#176,#197,#148,.T.);
#253=EDGE_CURVE('',#198,#197,#149,.T.);
#254=EDGE_CURVE('',#196,#198,#150,.T.);
#255=EDGE_CURVE('',#199,#200,#151,.T.);
#256=EDGE_CURVE('',#200,#198,#152,.T.);
#257=EDGE_CURVE('',#197,#186,#153,.T.);
#258=EDGE_CURVE('',#189,#199,#154,.T.);
#259=EDGE_CURVE('',#201,#187,#155,.T.);
#260=EDGE_CURVE('',#193,#201,#156,.T.);
#261=EDGE_CURVE('',#202,#180,#21,.T.);
#262=EDGE_CURVE('',#202,#201,#37,.T.);
#263=EDGE_CURVE('',#191,#203,#38,.T.);
#264=EDGE_CURVE('',#182,#203,#22,.T.);
#265=EDGE_CURVE('',#203,#204,#39,.T.);
#266=EDGE_CURVE('',#204,#200,#40,.T.);
#267=EDGE_CURVE('',#204,#183,#23,.T.);
#268=EDGE_CURVE('',#181,#205,#24,.T.);
#269=EDGE_CURVE('',#188,#205,#41,.T.);
#270=EDGE_CURVE('',#205,#202,#42,.T.);
#271=EDGE_CURVE('',#175,#206,#157,.T.);
#272=EDGE_CURVE('',#206,#173,#158,.T.);
#273=EDGE_CURVE('',#206,#207,#159,.T.);
#274=EDGE_CURVE('',#207,#174,#160,.T.);
#275=EDGE_CURVE('',#207,#162,#161,.T.);
#276=ORIENTED_EDGE('',*,*,#208,.F.);
#277=ORIENTED_EDGE('',*,*,#209,.T.);
#278=ORIENTED_EDGE('',*,*,#210,.T.);
#279=ORIENTED_EDGE('',*,*,#211,.T.);
#280=ORIENTED_EDGE('',*,*,#212,.T.);
#281=ORIENTED_EDGE('',*,*,#213,.T.);
#282=ORIENTED_EDGE('',*,*,#214,.T.);
#283=ORIENTED_EDGE('',*,*,#210,.F.);
#284=ORIENTED_EDGE('',*,*,#215,.F.);
#285=ORIENTED_EDGE('',*,*,#216,.F.);
#286=ORIENTED_EDGE('',*,*,#217,.T.);
#287=ORIENTED_EDGE('',*,*,#218,.T.);
#288=ORIENTED_EDGE('',*,*,#219,.T.);
#289=ORIENTED_EDGE('',*,*,#211,.F.);
#290=ORIENTED_EDGE('',*,*,#214,.F.);
#291=ORIENTED_EDGE('',*,*,#220,.F.);
#292=ORIENTED_EDGE('',*,*,#212,.F.);
#293=ORIENTED_EDGE('',*,*,#219,.F.);
#294=ORIENTED_EDGE('',*,*,#221,.T.);
#295=ORIENTED_EDGE('',*,*,#222,.T.);
#296=ORIENTED_EDGE('',*,*,#216,.T.);
#297=ORIENTED_EDGE('',*,*,#223,.F.);
#298=ORIENTED_EDGE('',*,*,#224,.F.);
#299=ORIENTED_EDGE('',*,*,#225,.F.);
#300=ORIENTED_EDGE('',*,*,#221,.F.);
#301=ORIENTED_EDGE('',*,*,#218,.F.);
#302=ORIENTED_EDGE('',*,*,#213,.F.);
#303=ORIENTED_EDGE('',*,*,#226,.F.);
#304=ORIENTED_EDGE('',*,*,#227,.F.);
#305=ORIENTED_EDGE('',*,*,#228,.F.);
#306=ORIENTED_EDGE('',*,*,#229,.F.);
#307=ORIENTED_EDGE('',*,*,#230,.F.);
#308=ORIENTED_EDGE('',*,*,#231,.F.);
#309=ORIENTED_EDGE('',*,*,#232,.F.);
#310=ORIENTED_EDGE('',*,*,#233,.F.);
#311=ORIENTED_EDGE('',*,*,#234,.F.);
#312=ORIENTED_EDGE('',*,*,#235,.F.);
#313=ORIENTED_EDGE('',*,*,#236,.T.);
#314=ORIENTED_EDGE('',*,*,#237,.F.);
#315=ORIENTED_EDGE('',*,*,#236,.F.);
#316=ORIENTED_EDGE('',*,*,#238,.T.);
#317=ORIENTED_EDGE('',*,*,#239,.F.);
#318=ORIENTED_EDGE('',*,*,#240,.T.);
#319=ORIENTED_EDGE('',*,*,#241,.T.);
#320=ORIENTED_EDGE('',*,*,#242,.F.);
#321=ORIENTED_EDGE('',*,*,#228,.T.);
#322=ORIENTED_EDGE('',*,*,#243,.F.);
#323=ORIENTED_EDGE('',*,*,#244,.T.);
#324=ORIENTED_EDGE('',*,*,#245,.T.);
#325=ORIENTED_EDGE('',*,*,#246,.F.);
#326=ORIENTED_EDGE('',*,*,#247,.F.);
#327=ORIENTED_EDGE('',*,*,#227,.T.);
#328=ORIENTED_EDGE('',*,*,#248,.F.);
#329=ORIENTED_EDGE('',*,*,#249,.T.);
#330=ORIENTED_EDGE('',*,*,#250,.T.);
#331=ORIENTED_EDGE('',*,*,#243,.T.);
#332=ORIENTED_EDGE('',*,*,#251,.T.);
#333=ORIENTED_EDGE('',*,*,#248,.T.);
#334=ORIENTED_EDGE('',*,*,#252,.T.);
#335=ORIENTED_EDGE('',*,*,#253,.F.);
#336=ORIENTED_EDGE('',*,*,#254,.F.);
#337=ORIENTED_EDGE('',*,*,#255,.T.);
#338=ORIENTED_EDGE('',*,*,#256,.T.);
#339=ORIENTED_EDGE('',*,*,#253,.T.);
#340=ORIENTED_EDGE('',*,*,#257,.T.);
#341=ORIENTED_EDGE('',*,*,#242,.T.);
#342=ORIENTED_EDGE('',*,*,#258,.T.);
#343=ORIENTED_EDGE('',*,*,#259,.T.);
#344=ORIENTED_EDGE('',*,*,#239,.T.);
#345=ORIENTED_EDGE('',*,*,#229,.T.);
#346=ORIENTED_EDGE('',*,*,#247,.T.);
#347=ORIENTED_EDGE('',*,*,#260,.T.);
#348=ORIENTED_EDGE('',*,*,#261,.F.);
#349=ORIENTED_EDGE('',*,*,#262,.T.);
#350=ORIENTED_EDGE('',*,*,#260,.F.);
#351=ORIENTED_EDGE('',*,*,#246,.T.);
#352=ORIENTED_EDGE('',*,*,#245,.F.);
#353=ORIENTED_EDGE('',*,*,#263,.T.);
#354=ORIENTED_EDGE('',*,*,#264,.F.);
#355=ORIENTED_EDGE('',*,*,#232,.T.);
#356=ORIENTED_EDGE('',*,*,#235,.T.);
#357=ORIENTED_EDGE('',*,*,#265,.F.);
#358=ORIENTED_EDGE('',*,*,#263,.F.);
#359=ORIENTED_EDGE('',*,*,#244,.F.);
#360=ORIENTED_EDGE('',*,*,#250,.F.);
#361=ORIENTED_EDGE('',*,*,#249,.F.);
#362=ORIENTED_EDGE('',*,*,#251,.F.);
#363=ORIENTED_EDGE('',*,*,#254,.T.);
#364=ORIENTED_EDGE('',*,*,#256,.F.);
#365=ORIENTED_EDGE('',*,*,#266,.F.);
#366=ORIENTED_EDGE('',*,*,#264,.T.);
#367=ORIENTED_EDGE('',*,*,#265,.T.);
#368=ORIENTED_EDGE('',*,*,#267,.T.);
#369=ORIENTED_EDGE('',*,*,#233,.T.);
#370=ORIENTED_EDGE('',*,*,#268,.F.);
#371=ORIENTED_EDGE('',*,*,#234,.T.);
#372=ORIENTED_EDGE('',*,*,#267,.F.);
#373=ORIENTED_EDGE('',*,*,#266,.T.);
#374=ORIENTED_EDGE('',*,*,#255,.F.);
#375=ORIENTED_EDGE('',*,*,#258,.F.);
#376=ORIENTED_EDGE('',*,*,#241,.F.);
#377=ORIENTED_EDGE('',*,*,#269,.T.);
#378=ORIENTED_EDGE('',*,*,#237,.T.);
#379=ORIENTED_EDGE('',*,*,#270,.F.);
#380=ORIENTED_EDGE('',*,*,#269,.F.);
#381=ORIENTED_EDGE('',*,*,#240,.F.);
#382=ORIENTED_EDGE('',*,*,#259,.F.);
#383=ORIENTED_EDGE('',*,*,#262,.F.);
#384=ORIENTED_EDGE('',*,*,#261,.T.);
#385=ORIENTED_EDGE('',*,*,#231,.T.);
#386=ORIENTED_EDGE('',*,*,#268,.T.);
#387=ORIENTED_EDGE('',*,*,#270,.T.);
#388=ORIENTED_EDGE('',*,*,#271,.F.);
#389=ORIENTED_EDGE('',*,*,#230,.T.);
#390=ORIENTED_EDGE('',*,*,#238,.F.);
#391=ORIENTED_EDGE('',*,*,#257,.F.);
#392=ORIENTED_EDGE('',*,*,#252,.F.);
#393=ORIENTED_EDGE('',*,*,#226,.T.);
#394=ORIENTED_EDGE('',*,*,#217,.F.);
#395=ORIENTED_EDGE('',*,*,#222,.F.);
#396=ORIENTED_EDGE('',*,*,#272,.F.);
#397=ORIENTED_EDGE('',*,*,#273,.F.);
#398=ORIENTED_EDGE('',*,*,#272,.T.);
#399=ORIENTED_EDGE('',*,*,#224,.T.);
#400=ORIENTED_EDGE('',*,*,#274,.F.);
#401=ORIENTED_EDGE('',*,*,#275,.F.);
#402=ORIENTED_EDGE('',*,*,#274,.T.);
#403=ORIENTED_EDGE('',*,*,#223,.T.);
#404=ORIENTED_EDGE('',*,*,#215,.T.);
#405=ORIENTED_EDGE('',*,*,#209,.F.);
#406=ORIENTED_EDGE('',*,*,#271,.T.);
#407=ORIENTED_EDGE('',*,*,#273,.T.);
#408=ORIENTED_EDGE('',*,*,#275,.T.);
#409=ORIENTED_EDGE('',*,*,#208,.T.);
#410=ORIENTED_EDGE('',*,*,#220,.T.);
#411=ORIENTED_EDGE('',*,*,#225,.T.);
#412=B_SPLINE_SURFACE_WITH_KNOTS('',3,3,((#540,#541,#542,#543,#544,#545,
#546,#547),(#548,#549,#550,#551,#552,#553,#554,#555),(#556,#557,#558,#559,
#560,#561,#562,#563),(#564,#565,#566,#567,#568,#569,#570,#571)),
 .UNSPECIFIED.,.F.,.F.,.F.,(4,4),(4,2,2,4),(0.104912947669457,1.),(0.370391440025506,
0.37765800319119,0.690924119680174,0.70215785058148),.UNSPECIFIED.);
#413=B_SPLINE_SURFACE_WITH_KNOTS('',3,1,((#641,#642),(#643,#644),(#645,
#646),(#647,#648),(#649,#650),(#651,#652),(#653,#654),(#655,#656),(#657,
#658),(#659,#660),(#661,#662),(#663,#664)),.UNSPECIFIED.,.F.,.F.,.F.,(4,
2,2,2,2,4),(2,2),(-15.8238784647869,-11.8255865560315,-7.83627433721037,
-5.98128178669816,-4.11192512384652,0.),(0.,0.3),.UNSPECIFIED.);
#414=B_SPLINE_SURFACE_WITH_KNOTS('',3,3,((#696,#697,#698,#699,#700,#701,
#702,#703),(#704,#705,#706,#707,#708,#709,#710,#711),(#712,#713,#714,#715,
#716,#717,#718,#719),(#720,#721,#722,#723,#724,#725,#726,#727)),
 .UNSPECIFIED.,.F.,.F.,.F.,(4,4),(4,2,2,4),(0.104912947669457,1.),(0.370391440025506,
0.37765800319119,0.690924119680174,0.70215785058148),.UNSPECIFIED.);
#415=B_SPLINE_SURFACE_WITH_KNOTS('',3,3,((#778,#779,#780,#781),(#782,#783,
#784,#785),(#786,#787,#788,#789),(#790,#791,#792,#793),(#794,#795,#796,
#797)),.UNSPECIFIED.,.F.,.F.,.F.,(4,1,4),(4,4),(0.,0.571428571428571,1.),
(2.9785232194076E-15,0.36),.UNSPECIFIED.);
#416=B_SPLINE_SURFACE_WITH_KNOTS('',3,3,((#861,#862,#863,#864),(#865,#866,
#867,#868),(#869,#870,#871,#872),(#873,#874,#875,#876),(#877,#878,#879,
#880)),.UNSPECIFIED.,.F.,.F.,.F.,(4,1,4),(4,4),(0.,0.571428571428571,1.),
(-20.727204189959,-18.9945465684082),.UNSPECIFIED.);
#417=B_SPLINE_SURFACE_WITH_KNOTS('',3,3,((#921,#922,#923,#924),(#925,#926,
#927,#928),(#929,#930,#931,#932),(#933,#934,#935,#936),(#937,#938,#939,
#940)),.UNSPECIFIED.,.F.,.F.,.F.,(4,1,4),(4,4),(0.,0.571428571428571,1.),
(5.78625480479144E-16,0.359999999999994),.UNSPECIFIED.);
#418=B_SPLINE_SURFACE_WITH_KNOTS('',3,3,((#952,#953,#954,#955),(#956,#957,
#958,#959),(#960,#961,#962,#963),(#964,#965,#966,#967),(#968,#969,#970,
#971)),.UNSPECIFIED.,.F.,.F.,.F.,(4,1,4),(4,4),(0.,0.571428571428571,1.),
(4.00099028651188,4.36099028651189),.UNSPECIFIED.);
#419=B_SPLINE_SURFACE_WITH_KNOTS('',3,3,((#999,#1000,#1001,#1002),(#1003,
#1004,#1005,#1006),(#1007,#1008,#1009,#1010),(#1011,#1012,#1013,#1014),
(#1015,#1016,#1017,#1018)),.UNSPECIFIED.,.F.,.F.,.F.,(4,1,4),(4,4),(0.,
0.571428571428571,1.),(-3.55476462837229,-1.82210700549572),
 .UNSPECIFIED.);
#420=B_SPLINE_SURFACE_WITH_KNOTS('',3,3,((#1037,#1038,#1039,#1040),(#1041,
#1042,#1043,#1044),(#1045,#1046,#1047,#1048),(#1049,#1050,#1051,#1052),
(#1053,#1054,#1055,#1056)),.UNSPECIFIED.,.F.,.F.,.F.,(4,1,4),(4,4),(0.,
0.571428571428571,1.),(4.13575041929952,4.49575041929952),.UNSPECIFIED.);
#421=B_SPLINE_SURFACE_WITH_KNOTS('',3,3,((#1086,#1087,#1088,#1089,#1090,
#1091,#1092,#1093),(#1094,#1095,#1096,#1097,#1098,#1099,#1100,#1101),(#1102,
#1103,#1104,#1105,#1106,#1107,#1108,#1109),(#1110,#1111,#1112,#1113,#1114,
#1115,#1116,#1117)),.UNSPECIFIED.,.F.,.F.,.F.,(4,4),(4,2,2,4),(0.10496695752597,
1.),(0.370391756807373,0.37765800319119,0.690924119680174,0.70215785058148),
 .UNSPECIFIED.);
#422=B_SPLINE_SURFACE_WITH_KNOTS('',3,1,((#1147,#1148),(#1149,#1150),(#1151,
#1152),(#1153,#1154),(#1155,#1156),(#1157,#1158),(#1159,#1160),(#1161,#1162),
(#1163,#1164),(#1165,#1166),(#1167,#1168),(#1169,#1170),(#1171,#1172),(#1173,
#1174),(#1175,#1176),(#1177,#1178),(#1179,#1180),(#1181,#1182),(#1183,#1184),
(#1185,#1186),(#1187,#1188),(#1189,#1190),(#1191,#1192),(#1193,#1194),(#1195,
#1196)),.UNSPECIFIED.,.F.,.F.,.F.,(4,3,3,3,3,3,3,3,4),(2,2),(-12.5557534702862,
-11.1166767222862,-9.96075821292983,-9.94521527208248,-9.81462883621717,
-9.6902305390348,-5.01635338074762,-1.98045762710186,0.),(0.,0.3),
 .UNSPECIFIED.);
#423=B_SPLINE_SURFACE_WITH_KNOTS('',3,3,((#1226,#1227,#1228,#1229,#1230,
#1231,#1232,#1233),(#1234,#1235,#1236,#1237,#1238,#1239,#1240,#1241),(#1242,
#1243,#1244,#1245,#1246,#1247,#1248,#1249),(#1250,#1251,#1252,#1253,#1254,
#1255,#1256,#1257)),.UNSPECIFIED.,.F.,.F.,.F.,(4,4),(4,2,2,4),(0.10496695752597,
1.),(0.370391756807373,0.37765800319119,0.690924119680174,0.70215785058148),
 .UNSPECIFIED.);
#424=ADVANCED_FACE('',(#67),#412,.T.);
#425=ADVANCED_FACE('',(#68),#58,.T.);
#426=ADVANCED_FACE('',(#69),#59,.T.);
#427=ADVANCED_FACE('',(#70),#413,.T.);
#428=ADVANCED_FACE('',(#71),#60,.T.);
#429=ADVANCED_FACE('',(#72),#414,.F.);
#430=ADVANCED_FACE('',(#73),#61,.T.);
#431=ADVANCED_FACE('',(#74),#25,.F.);
#432=ADVANCED_FACE('',(#75),#415,.T.);
#433=ADVANCED_FACE('',(#76),#416,.T.);
#434=ADVANCED_FACE('',(#77),#417,.T.);
#435=ADVANCED_FACE('',(#78),#418,.T.);
#436=ADVANCED_FACE('',(#79),#419,.T.);
#437=ADVANCED_FACE('',(#80),#420,.T.);
#438=ADVANCED_FACE('',(#81,#15),#62,.T.);
#439=ADVANCED_FACE('',(#82),#63,.T.);
#440=ADVANCED_FACE('',(#83),#26,.T.);
#441=ADVANCED_FACE('',(#84,#16),#64,.F.);
#442=ADVANCED_FACE('',(#85),#65,.T.);
#443=ADVANCED_FACE('',(#86),#27,.T.);
#444=ADVANCED_FACE('',(#87),#421,.T.);
#445=ADVANCED_FACE('',(#88),#422,.T.);
#446=ADVANCED_FACE('',(#89),#423,.F.);
#447=ADVANCED_FACE('',(#90),#66,.T.);
#448=CLOSED_SHELL('',(#424,#425,#426,#427,#428,#429,#430,#431,#432,#433,
#434,#435,#436,#437,#438,#439,#440,#441,#442,#443,#444,#445,#446,#447));
#449=DERIVED_UNIT_ELEMENT(#451,1.);
#450=DERIVED_UNIT_ELEMENT(#1270,-3.);
#451=(
MASS_UNIT()
NAMED_UNIT(*)
SI_UNIT(.KILO.,.GRAM.)
);
#452=DERIVED_UNIT((#449,#450));
#453=MEASURE_REPRESENTATION_ITEM('density measure',
POSITIVE_RATIO_MEASURE(7850.),#452);
#454=PROPERTY_DEFINITION_REPRESENTATION(#459,#456);
#455=PROPERTY_DEFINITION_REPRESENTATION(#460,#457);
#456=REPRESENTATION('material name',(#458),#1267);
#457=REPRESENTATION('density',(#453),#1267);
#458=DESCRIPTIVE_REPRESENTATION_ITEM('Steel','Steel');
#459=PROPERTY_DEFINITION('material property','material name',#1277);
#460=PROPERTY_DEFINITION('material property','density of part',#1277);
#461=AXIS2_PLACEMENT_3D('',#539,#482,#483);
#462=AXIS2_PLACEMENT_3D('',#611,#484,#485);
#463=AXIS2_PLACEMENT_3D('',#630,#488,#489);
#464=AXIS2_PLACEMENT_3D('',#680,#491,#492);
#465=AXIS2_PLACEMENT_3D('',#763,#494,#495);
#466=AXIS2_PLACEMENT_3D('',#772,#500,#501);
#467=AXIS2_PLACEMENT_3D('',#774,#502,#503);
#468=AXIS2_PLACEMENT_3D('',#777,#505,#506);
#469=AXIS2_PLACEMENT_3D('',#804,#507,#508);
#470=AXIS2_PLACEMENT_3D('',#942,#509,#510);
#471=AXIS2_PLACEMENT_3D('',#1066,#511,#512);
#472=AXIS2_PLACEMENT_3D('',#1068,#513,#514);
#473=AXIS2_PLACEMENT_3D('',#1072,#517,#518);
#474=AXIS2_PLACEMENT_3D('',#1073,#519,#520);
#475=AXIS2_PLACEMENT_3D('',#1077,#523,#524);
#476=AXIS2_PLACEMENT_3D('',#1078,#525,#526);
#477=AXIS2_PLACEMENT_3D('',#1079,#527,#528);
#478=AXIS2_PLACEMENT_3D('',#1081,#529,#530);
#479=AXIS2_PLACEMENT_3D('',#1083,#532,#533);
#480=AXIS2_PLACEMENT_3D('',#1085,#535,#536);
#481=AXIS2_PLACEMENT_3D('',#1264,#537,#538);
#482=DIRECTION('axis',(0.,0.,1.));
#483=DIRECTION('refdir',(1.,0.,0.));
#484=DIRECTION('center_axis',(0.,1.,0.));
#485=DIRECTION('ref_axis',(1.,0.,0.));
#486=DIRECTION('',(0.,0.,-1.));
#487=DIRECTION('',(0.,0.,-1.));
#488=DIRECTION('center_axis',(0.707106781186548,0.707106781186547,0.));
#489=DIRECTION('ref_axis',(0.7059232369094,-0.705923236909401,0.0578339621909866));
#490=DIRECTION('',(0.,0.,-1.));
#491=DIRECTION('center_axis',(-0.707106781186548,0.707106781186547,0.));
#492=DIRECTION('ref_axis',(0.706096476214639,0.706096476214641,-0.0534371832578855));
#493=DIRECTION('',(0.,0.,-1.));
#494=DIRECTION('center_axis',(0.,0.,1.));
#495=DIRECTION('ref_axis',(0.,-1.,0.));
#496=DIRECTION('',(-1.,0.,0.));
#497=DIRECTION('',(0.,-1.,0.));
#498=DIRECTION('',(1.,0.,0.));
#499=DIRECTION('',(0.,1.,0.));
#500=DIRECTION('center_axis',(1.,0.,0.));
#501=DIRECTION('ref_axis',(0.,1.,0.));
#502=DIRECTION('center_axis',(-1.,0.,0.));
#503=DIRECTION('ref_axis',(0.,1.,0.));
#504=DIRECTION('',(-1.,0.,0.));
#505=DIRECTION('center_axis',(1.,0.,0.));
#506=DIRECTION('ref_axis',(0.,1.,0.));
#507=DIRECTION('center_axis',(-1.,-8.34627959471738E-15,-1.35456036914798E-14));
#508=DIRECTION('ref_axis',(0.,0.851362956637509,-0.524577083053997));
#509=DIRECTION('center_axis',(1.,0.,-2.58041228960885E-15));
#510=DIRECTION('ref_axis',(0.,-1.,0.));
#511=DIRECTION('center_axis',(1.,0.,0.));
#512=DIRECTION('ref_axis',(0.,1.,0.));
#513=DIRECTION('center_axis',(-1.,0.,0.));
#514=DIRECTION('ref_axis',(0.,-0.487556620786755,0.873091370663461));
#515=DIRECTION('',(0.,-0.524577083053997,-0.851362956637508));
#516=DIRECTION('',(0.,0.,1.));
#517=DIRECTION('center_axis',(-1.,0.,0.));
#518=DIRECTION('ref_axis',(0.,0.707106781186549,0.707106781186546));
#519=DIRECTION('center_axis',(0.,1.,0.));
#520=DIRECTION('ref_axis',(0.,0.,1.));
#521=DIRECTION('',(-1.,0.,0.));
#522=DIRECTION('',(0.,0.,-1.));
#523=DIRECTION('center_axis',(1.,0.,0.));
#524=DIRECTION('ref_axis',(0.,0.707106781186549,0.707106781186546));
#525=DIRECTION('center_axis',(1.,0.,0.));
#526=DIRECTION('ref_axis',(0.,0.707106781186549,0.707106781186546));
#527=DIRECTION('center_axis',(1.,0.,0.));
#528=DIRECTION('ref_axis',(0.,1.,0.));
#529=DIRECTION('center_axis',(1.,0.,0.));
#530=DIRECTION('ref_axis',(0.,-0.487556620786755,0.873091370663461));
#531=DIRECTION('',(0.,0.524577083053997,0.851362956637508));
#532=DIRECTION('center_axis',(0.,-0.851362956637509,0.524577083053997));
#533=DIRECTION('ref_axis',(0.,-0.524577083053997,-0.851362956637508));
#534=DIRECTION('',(1.,0.,0.));
#535=DIRECTION('center_axis',(1.,0.,0.));
#536=DIRECTION('ref_axis',(0.,-0.487556620786755,0.873091370663461));
#537=DIRECTION('center_axis',(0.,-1.,0.));
#538=DIRECTION('ref_axis',(0.,0.,-1.));
#539=CARTESIAN_POINT('',(0.,0.,0.));
#540=CARTESIAN_POINT('Ctrl Pts',(44.6599065751161,-88.0001307749231,36.8300908111788));
#541=CARTESIAN_POINT('Ctrl Pts',(44.6925729876448,-87.0002033063895,36.8888876078214));
#542=CARTESIAN_POINT('Ctrl Pts',(44.7240550014485,-86.0001597147484,36.9455240040952));
#543=CARTESIAN_POINT('Ctrl Pts',(46.0605018920728,-41.8824845302924,39.3484945069439));
#544=CARTESIAN_POINT('Ctrl Pts',(47.6891603642986,2.22126527834321,35.3786764879026));
#545=CARTESIAN_POINT('Ctrl Pts',(41.8675556457344,46.5340465146614,31.8788405752494));
#546=CARTESIAN_POINT('Ctrl Pts',(41.659943782045,48.0673798479947,31.7554796061525));
#547=CARTESIAN_POINT('Ctrl Pts',(41.4462558684671,49.6,31.6299170927095));
#548=CARTESIAN_POINT('Ctrl Pts',(29.7732710500774,-88.0001307749231,36.8300908111788));
#549=CARTESIAN_POINT('Ctrl Pts',(29.7950486584299,-87.0002033063895,36.8888876078214));
#550=CARTESIAN_POINT('Ctrl Pts',(29.8160366676323,-86.0001597147484,36.9455240040952));
#551=CARTESIAN_POINT('Ctrl Pts',(30.7070012613819,-41.8824845302924,39.3484945069439));
#552=CARTESIAN_POINT('Ctrl Pts',(31.792773576199,2.22126527834321,35.3786764879026));
#553=CARTESIAN_POINT('Ctrl Pts',(27.9117037638229,46.5340465146614,31.8788405752494));
#554=CARTESIAN_POINT('Ctrl Pts',(27.7732958546966,48.0673798479947,31.7554796061525));
#555=CARTESIAN_POINT('Ctrl Pts',(27.6308372456447,49.6,31.6299170927095));
#556=CARTESIAN_POINT('Ctrl Pts',(14.8866355250387,-88.0001307749231,36.8300908111788));
#557=CARTESIAN_POINT('Ctrl Pts',(14.897524329215,-87.0002033063895,36.8888876078214));
#558=CARTESIAN_POINT('Ctrl Pts',(14.9080183338162,-86.0001597147484,36.9455240040952));
#559=CARTESIAN_POINT('Ctrl Pts',(15.3535006306909,-41.8824845302924,39.3484945069438));
#560=CARTESIAN_POINT('Ctrl Pts',(15.8963867880995,2.22126527834321,35.3786764879026));
#561=CARTESIAN_POINT('Ctrl Pts',(13.9558518819114,46.5340465146614,31.8788405752494));
#562=CARTESIAN_POINT('Ctrl Pts',(13.8866479273483,48.0673798479947,31.7554796061525));
#563=CARTESIAN_POINT('Ctrl Pts',(13.8154186228223,49.6,31.6299170927095));
#564=CARTESIAN_POINT('Ctrl Pts',(8.12756478779972E-16,-88.0001307749231,
36.8300908111788));
#565=CARTESIAN_POINT('Ctrl Pts',(5.46593913346269E-16,-87.0002033063895,
36.8888876078215));
#566=CARTESIAN_POINT('Ctrl Pts',(2.75675087086277E-16,-86.0001597147484,
36.9455240040952));
#567=CARTESIAN_POINT('Ctrl Pts',(-1.18845266978638E-14,-41.8824845302924,
39.3484945069438));
#568=CARTESIAN_POINT('Ctrl Pts',(-6.16982190953479E-14,2.22126527834321,
35.3786764879026));
#569=CARTESIAN_POINT('Ctrl Pts',(-6.2189496723438E-14,46.5340465146614,
31.8788405752494));
#570=CARTESIAN_POINT('Ctrl Pts',(-6.21804638918434E-14,48.0673798479947,
31.7554796061525));
#571=CARTESIAN_POINT('Ctrl Pts',(-6.21453908842249E-14,49.6,31.6299170927095));
#572=CARTESIAN_POINT('',(-7.17862436700716E-16,-88.,36.8300985008707));
#573=CARTESIAN_POINT('',(44.4908760449365,-88.,36.8300985008707));
#574=CARTESIAN_POINT('Ctrl Pts',(8.12721668839201E-16,-88.,36.8300985008707));
#575=CARTESIAN_POINT('Ctrl Pts',(7.44331847456114,-88.,36.8300985008707));
#576=CARTESIAN_POINT('Ctrl Pts',(14.8866369491223,-88.,36.8300985008707));
#577=CARTESIAN_POINT('Ctrl Pts',(29.7169289641011,-88.,36.8300985008707));
#578=CARTESIAN_POINT('Ctrl Pts',(37.1039025045188,-88.,36.8300985008707));
#579=CARTESIAN_POINT('Ctrl Pts',(44.4908760449365,-88.,36.8300985008707));
#580=CARTESIAN_POINT('',(0.,49.6,31.6299170927095));
#581=CARTESIAN_POINT('Ctrl Pts',(-7.17862436700716E-16,-88.,36.8300985008707));
#582=CARTESIAN_POINT('Ctrl Pts',(-4.83269235536634E-16,-87.0001161129829,
36.8888925459224));
#583=CARTESIAN_POINT('Ctrl Pts',(-2.43981756636392E-16,-86.0001161129829,
36.9455263789655));
#584=CARTESIAN_POINT('Ctrl Pts',(1.05186658124325E-14,-41.8824845302924,
39.3484945069439));
#585=CARTESIAN_POINT('Ctrl Pts',(5.79924922499223E-14,2.22126527834329,
35.3786764879025));
#586=CARTESIAN_POINT('Ctrl Pts',(5.77222415802723E-14,46.5340465146614,
31.8788405752494));
#587=CARTESIAN_POINT('Ctrl Pts',(5.76878039002627E-14,48.0673798479947,
31.7554796061525));
#588=CARTESIAN_POINT('Ctrl Pts',(5.76282842404794E-14,49.6,31.6299170927095));
#589=CARTESIAN_POINT('',(9.83431457505076,49.6,31.6299170927095));
#590=CARTESIAN_POINT('Ctrl Pts',(-6.21453908842249E-14,49.6,31.6299170927095));
#591=CARTESIAN_POINT('Ctrl Pts',(3.27810485835021,49.6,31.6299170927095));
#592=CARTESIAN_POINT('Ctrl Pts',(6.55620971670048,49.6,31.6299170927095));
#593=CARTESIAN_POINT('Ctrl Pts',(9.83431457505076,49.6,31.6299170927095));
#594=CARTESIAN_POINT('',(44.781978033627,14.6523365414237,34.390168327343));
#595=CARTESIAN_POINT('Ctrl Pts',(9.83431457505076,49.6,31.6299170927095));
#596=CARTESIAN_POINT('Ctrl Pts',(12.6765491317403,46.7577654433104,31.8627719943404));
#597=CARTESIAN_POINT('Ctrl Pts',(13.2901560356981,46.1441585393663,31.9082250505796));
#598=CARTESIAN_POINT('Ctrl Pts',(20.9258764705791,38.5084381044852,32.5151707866876));
#599=CARTESIAN_POINT('Ctrl Pts',(23.87178775761,35.5625268229121,32.7507489685513));
#600=CARTESIAN_POINT('Ctrl Pts',(32.8436586634016,26.5906559171204,33.4658828164638));
#601=CARTESIAN_POINT('Ctrl Pts',(38.7940268153802,20.6402877596705,33.9370018587832));
#602=CARTESIAN_POINT('Ctrl Pts',(44.781978033627,14.6523365414237,34.390168327343));
#603=CARTESIAN_POINT('Ctrl Pts',(44.7819780336295,14.6523365413869,34.3901683273458));
#604=CARTESIAN_POINT('Ctrl Pts',(45.7624885994171,0.39013209778644,35.469527959049));
#605=CARTESIAN_POINT('Ctrl Pts',(46.0685293209851,-13.9543876447822,36.4362220519454));
#606=CARTESIAN_POINT('Ctrl Pts',(45.9573249059463,-42.5784407647966,37.6492302658366));
#607=CARTESIAN_POINT('Ctrl Pts',(45.5406318900409,-56.9160297050184,37.9004703766613));
#608=CARTESIAN_POINT('Ctrl Pts',(44.8712640937731,-77.020527311437,37.3980794722542));
#609=CARTESIAN_POINT('Ctrl Pts',(44.6929890425738,-82.5705758072166,37.1470965776058));
#610=CARTESIAN_POINT('Ctrl Pts',(44.4913591575684,-87.9999975501539,36.8297496360239));
#611=CARTESIAN_POINT('Origin',(-6.21453908842249E-14,49.6,34.6299170927095));
#612=CARTESIAN_POINT('',(0.,49.6,34.6299170927095));
#613=CARTESIAN_POINT('',(9.83431457505076,49.6,34.6299170927095));
#614=CARTESIAN_POINT('Ctrl Pts',(-6.21453908842249E-14,49.6,34.6299170927095));
#615=CARTESIAN_POINT('Ctrl Pts',(3.27810485835021,49.6,34.6299170927095));
#616=CARTESIAN_POINT('Ctrl Pts',(6.55620971670048,49.6,34.6299170927095));
#617=CARTESIAN_POINT('Ctrl Pts',(9.83431457505076,49.6,34.6299170927095));
#618=CARTESIAN_POINT('',(9.83431457505076,49.6,34.6299170927095));
#619=CARTESIAN_POINT('',(-9.83431457505076,49.6,31.6299170927095));
#620=CARTESIAN_POINT('Ctrl Pts',(-9.83431457505076,49.6,31.6299170927095));
#621=CARTESIAN_POINT('Ctrl Pts',(-6.55620971670049,49.6,31.6299170927095));
#622=CARTESIAN_POINT('Ctrl Pts',(-3.27810485835021,49.6,31.6299170927095));
#623=CARTESIAN_POINT('Ctrl Pts',(6.21453908842249E-14,49.6,31.6299170927095));
#624=CARTESIAN_POINT('',(-9.83431457505076,49.6,34.6299170927095));
#625=CARTESIAN_POINT('',(-9.83431457505076,49.6,34.6299170927095));
#626=CARTESIAN_POINT('Ctrl Pts',(-9.83431457505076,49.6,34.6299170927095));
#627=CARTESIAN_POINT('Ctrl Pts',(-6.55620971670049,49.6,34.6299170927095));
#628=CARTESIAN_POINT('Ctrl Pts',(-3.27810485835021,49.6,34.6299170927095));
#629=CARTESIAN_POINT('Ctrl Pts',(6.21453908842249E-14,49.6,34.6299170927095));
#630=CARTESIAN_POINT('Origin',(9.83431457505076,49.6,34.6299170927095));
#631=CARTESIAN_POINT('',(44.781978033627,14.6523365414237,37.390168327343));
#632=CARTESIAN_POINT('Ctrl Pts',(9.83431457505076,49.6,34.6299170927095));
#633=CARTESIAN_POINT('Ctrl Pts',(12.6765491317403,46.7577654433104,34.8627719943404));
#634=CARTESIAN_POINT('Ctrl Pts',(13.2901560356981,46.1441585393663,34.9082250505796));
#635=CARTESIAN_POINT('Ctrl Pts',(20.9258764705791,38.5084381044852,35.5151707866876));
#636=CARTESIAN_POINT('Ctrl Pts',(23.87178775761,35.5625268229121,35.7507489685513));
#637=CARTESIAN_POINT('Ctrl Pts',(32.8436586634016,26.5906559171204,36.4658828164638));
#638=CARTESIAN_POINT('Ctrl Pts',(38.7940268153802,20.6402877596705,36.9370018587832));
#639=CARTESIAN_POINT('Ctrl Pts',(44.781978033627,14.6523365414237,37.390168327343));
#640=CARTESIAN_POINT('',(44.781978033627,14.6523365414237,37.390168327343));
#641=CARTESIAN_POINT('Ctrl Pts',(44.7819780336295,14.6523365413869,37.3901683273458));
#642=CARTESIAN_POINT('Ctrl Pts',(44.7819780336295,14.6523365413869,34.3901683273458));
#643=CARTESIAN_POINT('Ctrl Pts',(45.7624885994171,0.39013209778644,38.469527959049));
#644=CARTESIAN_POINT('Ctrl Pts',(45.7624885994171,0.39013209778644,35.469527959049));
#645=CARTESIAN_POINT('Ctrl Pts',(46.0685293209851,-13.9543876447822,39.4362220519454));
#646=CARTESIAN_POINT('Ctrl Pts',(46.0685293209851,-13.9543876447822,36.4362220519454));
#647=CARTESIAN_POINT('Ctrl Pts',(45.9573249059463,-42.5784407647966,40.6492302658366));
#648=CARTESIAN_POINT('Ctrl Pts',(45.9573249059463,-42.5784407647966,37.6492302658366));
#649=CARTESIAN_POINT('Ctrl Pts',(45.5406318900409,-56.9160297050184,40.9004703766613));
#650=CARTESIAN_POINT('Ctrl Pts',(45.5406318900409,-56.9160297050184,37.9004703766613));
#651=CARTESIAN_POINT('Ctrl Pts',(44.8436864491087,-77.8488233457523,40.3773811985672));
#652=CARTESIAN_POINT('Ctrl Pts',(44.8436864491087,-77.8488233457523,37.3773811985672));
#653=CARTESIAN_POINT('Ctrl Pts',(44.6425201972409,-84.1460771472875,40.0734628515183));
#654=CARTESIAN_POINT('Ctrl Pts',(44.6425201972409,-84.1460771472875,37.0734628515183));
#655=CARTESIAN_POINT('Ctrl Pts',(44.1629840680023,-96.5274253189845,39.3040370801807));
#656=CARTESIAN_POINT('Ctrl Pts',(44.1629840680023,-96.5274253189845,36.3040370801807));
#657=CARTESIAN_POINT('Ctrl Pts',(43.8710770038739,-102.733285557825,38.8346235969102));
#658=CARTESIAN_POINT('Ctrl Pts',(43.8710770038739,-102.733285557825,35.8346235969102));
#659=CARTESIAN_POINT('Ctrl Pts',(42.7738722077873,-122.562090837875,37.0674859877332));
#660=CARTESIAN_POINT('Ctrl Pts',(42.7738722077873,-122.562090837875,34.0674859877332));
#661=CARTESIAN_POINT('Ctrl Pts',(41.7740526758104,-136.12883711142,35.4536802166303));
#662=CARTESIAN_POINT('Ctrl Pts',(41.7740526758104,-136.12883711142,32.4536802166303));
#663=CARTESIAN_POINT('Ctrl Pts',(40.5334178355088,-149.630923137666,33.4485948593972));
#664=CARTESIAN_POINT('Ctrl Pts',(40.5334178355088,-149.630923137666,30.4485948593972));
#665=CARTESIAN_POINT('',(44.4908760449365,-88.,39.8300985008707));
#666=CARTESIAN_POINT('Ctrl Pts',(44.4908760449365,-88.,36.8300985008707));
#667=CARTESIAN_POINT('Ctrl Pts',(44.4908760449365,-88.,37.3300985008707));
#668=CARTESIAN_POINT('Ctrl Pts',(44.4908760449365,-88.,37.8300985008707));
#669=CARTESIAN_POINT('Ctrl Pts',(44.4908760449365,-88.,38.8300985008707));
#670=CARTESIAN_POINT('Ctrl Pts',(44.4908760449365,-88.,39.3300985008707));
#671=CARTESIAN_POINT('Ctrl Pts',(44.4908760449365,-88.,39.8300985008707));
#672=CARTESIAN_POINT('Ctrl Pts',(44.7819780336295,14.6523365413869,37.3901683273458));
#673=CARTESIAN_POINT('Ctrl Pts',(45.7624885994171,0.39013209778644,38.469527959049));
#674=CARTESIAN_POINT('Ctrl Pts',(46.0685293209851,-13.9543876447822,39.4362220519454));
#675=CARTESIAN_POINT('Ctrl Pts',(45.9573249059463,-42.5784407647966,40.6492302658366));
#676=CARTESIAN_POINT('Ctrl Pts',(45.5406318900409,-56.9160297050184,40.9004703766613));
#677=CARTESIAN_POINT('Ctrl Pts',(44.8712640937731,-77.020527311437,40.3980794722542));
#678=CARTESIAN_POINT('Ctrl Pts',(44.6929890425738,-82.5705758072166,40.1470965776058));
#679=CARTESIAN_POINT('Ctrl Pts',(44.4913591575684,-87.9999975501539,39.8297496360239));
#680=CARTESIAN_POINT('Origin',(-44.781978033627,14.6523365414237,37.390168327343));
#681=CARTESIAN_POINT('',(-44.781978033627,14.6523365414237,37.390168327343));
#682=CARTESIAN_POINT('Ctrl Pts',(-44.781978033627,14.6523365414237,37.390168327343));
#683=CARTESIAN_POINT('Ctrl Pts',(-35.8280205758259,23.6062939992248,36.7125353385468));
#684=CARTESIAN_POINT('Ctrl Pts',(-26.8387749701133,32.5955396049375,35.9851732875677));
#685=CARTESIAN_POINT('Ctrl Pts',(-13.2901929565303,46.1441216185204,34.9082280430474));
#686=CARTESIAN_POINT('Ctrl Pts',(-12.6765171906823,46.7577973843684,34.8627693775148));
#687=CARTESIAN_POINT('Ctrl Pts',(-9.83431457505076,49.6,34.6299170927095));
#688=CARTESIAN_POINT('',(-44.781978033627,14.6523365414237,34.390168327343));
#689=CARTESIAN_POINT('Ctrl Pts',(-44.781978033627,14.6523365414237,34.390168327343));
#690=CARTESIAN_POINT('Ctrl Pts',(-35.8280205758259,23.6062939992248,33.7125353385468));
#691=CARTESIAN_POINT('Ctrl Pts',(-26.8387749701133,32.5955396049375,32.9851732875677));
#692=CARTESIAN_POINT('Ctrl Pts',(-13.2901929565303,46.1441216185204,31.9082280430474));
#693=CARTESIAN_POINT('Ctrl Pts',(-12.6765171906823,46.7577973843684,31.8627693775148));
#694=CARTESIAN_POINT('Ctrl Pts',(-9.83431457505076,49.6,31.6299170927095));
#695=CARTESIAN_POINT('',(-44.781978033627,14.6523365414237,37.390168327343));
#696=CARTESIAN_POINT('Ctrl Pts',(44.6599065751161,-88.0001307749231,39.8300908111788));
#697=CARTESIAN_POINT('Ctrl Pts',(44.6925729876448,-87.0002033063895,39.8888876078214));
#698=CARTESIAN_POINT('Ctrl Pts',(44.7240550014485,-86.0001597147484,39.9455240040952));
#699=CARTESIAN_POINT('Ctrl Pts',(46.0605018920728,-41.8824845302926,42.348494506944));
#700=CARTESIAN_POINT('Ctrl Pts',(47.6891603642985,2.22126527834328,38.3786764879024));
#701=CARTESIAN_POINT('Ctrl Pts',(41.8675556457344,46.5340465146614,34.8788405752494));
#702=CARTESIAN_POINT('Ctrl Pts',(41.659943782045,48.0673798479947,34.7554796061525));
#703=CARTESIAN_POINT('Ctrl Pts',(41.4462558684671,49.6,34.6299170927095));
#704=CARTESIAN_POINT('Ctrl Pts',(29.7732710500774,-88.0001307749231,39.8300908111788));
#705=CARTESIAN_POINT('Ctrl Pts',(29.7950486584299,-87.0002033063895,39.8888876078214));
#706=CARTESIAN_POINT('Ctrl Pts',(29.8160366676324,-86.0001597147484,39.9455240040952));
#707=CARTESIAN_POINT('Ctrl Pts',(30.7070012613819,-41.8824845302926,42.348494506944));
#708=CARTESIAN_POINT('Ctrl Pts',(31.7927735761989,2.22126527834328,38.3786764879024));
#709=CARTESIAN_POINT('Ctrl Pts',(27.9117037638229,46.5340465146614,34.8788405752494));
#710=CARTESIAN_POINT('Ctrl Pts',(27.7732958546966,48.0673798479947,34.7554796061525));
#711=CARTESIAN_POINT('Ctrl Pts',(27.6308372456447,49.6,34.6299170927095));
#712=CARTESIAN_POINT('Ctrl Pts',(14.8866355250387,-88.0001307749231,39.8300908111788));
#713=CARTESIAN_POINT('Ctrl Pts',(14.897524329215,-87.0002033063895,39.8888876078214));
#714=CARTESIAN_POINT('Ctrl Pts',(14.9080183338162,-86.0001597147484,39.9455240040952));
#715=CARTESIAN_POINT('Ctrl Pts',(15.3535006306909,-41.8824845302926,42.3484945069438));
#716=CARTESIAN_POINT('Ctrl Pts',(15.8963867880995,2.22126527834328,38.3786764879025));
#717=CARTESIAN_POINT('Ctrl Pts',(13.9558518819114,46.5340465146614,34.8788405752494));
#718=CARTESIAN_POINT('Ctrl Pts',(13.8866479273483,48.0673798479947,34.7554796061525));
#719=CARTESIAN_POINT('Ctrl Pts',(13.8154186228223,49.6,34.6299170927095));
#720=CARTESIAN_POINT('Ctrl Pts',(8.12756478779972E-16,-88.0001307749231,
39.8300908111788));
#721=CARTESIAN_POINT('Ctrl Pts',(5.46593913346269E-16,-87.0002033063895,
39.8888876078215));
#722=CARTESIAN_POINT('Ctrl Pts',(2.75675087086278E-16,-86.0001597147484,
39.9455240040952));
#723=CARTESIAN_POINT('Ctrl Pts',(-1.18845266978638E-14,-41.8824845302926,
42.3484945069438));
#724=CARTESIAN_POINT('Ctrl Pts',(-6.16982190953478E-14,2.22126527834328,
38.3786764879025));
#725=CARTESIAN_POINT('Ctrl Pts',(-6.2189496723438E-14,46.5340465146614,
34.8788405752494));
#726=CARTESIAN_POINT('Ctrl Pts',(-6.21804638918434E-14,48.0673798479947,
34.7554796061525));
#727=CARTESIAN_POINT('Ctrl Pts',(-6.21453908842249E-14,49.6,34.6299170927095));
#728=CARTESIAN_POINT('',(-7.17862436700716E-16,-88.,39.8300985008707));
#729=CARTESIAN_POINT('Ctrl Pts',(44.4908760449365,-88.,39.8300985008707));
#730=CARTESIAN_POINT('Ctrl Pts',(37.1039025045188,-88.,39.8300985008707));
#731=CARTESIAN_POINT('Ctrl Pts',(29.7169289641011,-88.,39.8300985008707));
#732=CARTESIAN_POINT('Ctrl Pts',(14.8866369491223,-88.,39.8300985008707));
#733=CARTESIAN_POINT('Ctrl Pts',(7.44331847456114,-88.,39.8300985008707));
#734=CARTESIAN_POINT('Ctrl Pts',(8.12721668839201E-16,-88.,39.8300985008707));
#735=CARTESIAN_POINT('',(6.14688407350616E-14,31.4412473569476,36.0792050113877));
#736=CARTESIAN_POINT('Ctrl Pts',(5.63242999926139E-14,31.4412473569476,
36.0792050113877));
#737=CARTESIAN_POINT('Ctrl Pts',(5.72569910263713E-14,35.9737307241542,
35.718294380912));
#738=CARTESIAN_POINT('Ctrl Pts',(5.77590767420596E-14,40.4942151677186,
35.3558681520487));
#739=CARTESIAN_POINT('Ctrl Pts',(5.77222415802723E-14,46.5340465146614,
34.8788405752494));
#740=CARTESIAN_POINT('Ctrl Pts',(5.76878039002627E-14,48.0673798479947,
34.7554796061525));
#741=CARTESIAN_POINT('Ctrl Pts',(5.76282842404794E-14,49.6,34.6299170927095));
#742=CARTESIAN_POINT('',(3.6,31.4412473569476,36.0792050113877));
#743=CARTESIAN_POINT('Ctrl Pts',(3.6,31.4412473569476,36.0792050113877));
#744=CARTESIAN_POINT('Ctrl Pts',(2.40000000000002,31.4412473569476,36.0792050113877));
#745=CARTESIAN_POINT('Ctrl Pts',(1.20000000000004,31.4412473569476,36.0792050113877));
#746=CARTESIAN_POINT('Ctrl Pts',(6.66133814775094E-14,31.4412473569476,
36.0792050113877));
#747=CARTESIAN_POINT('',(3.6,14.1718377086942,37.4264871426856));
#748=CARTESIAN_POINT('Ctrl Pts',(3.6,14.1718377086942,37.4264871426856));
#749=CARTESIAN_POINT('Ctrl Pts',(3.6,19.9308303382041,36.991735736617));
#750=CARTESIAN_POINT('Ctrl Pts',(3.6,25.6848533704112,36.5375726687252));
#751=CARTESIAN_POINT('Ctrl Pts',(3.6,31.4412473569476,36.0792050113877));
#752=CARTESIAN_POINT('',(-3.41024006573633E-15,14.1718377086942,37.4264871426856));
#753=CARTESIAN_POINT('Ctrl Pts',(-5.77315972805081E-14,14.1718377086942,
37.4264871426856));
#754=CARTESIAN_POINT('Ctrl Pts',(1.19999999999996,14.1718377086942,37.4264871426856));
#755=CARTESIAN_POINT('Ctrl Pts',(2.39999999999998,14.1718377086942,37.4264871426856));
#756=CARTESIAN_POINT('Ctrl Pts',(3.6,14.1718377086942,37.4264871426856));
#757=CARTESIAN_POINT('Ctrl Pts',(-7.17862436700716E-16,-88.,39.8300985008707));
#758=CARTESIAN_POINT('Ctrl Pts',(-4.83269235536634E-16,-87.0001161129829,
39.8888925459224));
#759=CARTESIAN_POINT('Ctrl Pts',(-2.43981756636393E-16,-86.0001161129829,
39.9455263789655));
#760=CARTESIAN_POINT('Ctrl Pts',(8.00792057463569E-15,-52.1743883288944,
41.7879223294029));
#761=CARTESIAN_POINT('Ctrl Pts',(3.74345502996122E-14,-18.7771686305934,
39.9138365379894));
#762=CARTESIAN_POINT('Ctrl Pts',(5.09111171490355E-14,14.1718377086942,
37.4264871426856));
#763=CARTESIAN_POINT('Origin',(0.,29.6,50.2256637377961));
#764=CARTESIAN_POINT('',(1.6,25.7168513105708,50.2256637377961));
#765=CARTESIAN_POINT('',(-1.6,25.7168513105708,50.2256637377961));
#766=CARTESIAN_POINT('',(0.,25.7168513105708,50.2256637377961));
#767=CARTESIAN_POINT('',(1.6,27.6,50.2256637377961));
#768=CARTESIAN_POINT('',(1.6,24.6,50.2256637377961));
#769=CARTESIAN_POINT('',(-1.6,27.6,50.2256637377961));
#770=CARTESIAN_POINT('',(0.,27.6,50.2256637377961));
#771=CARTESIAN_POINT('',(-1.6,24.6,50.2256637377961));
#772=CARTESIAN_POINT('Origin',(0.,26.6,46.2256637377961));
#773=CARTESIAN_POINT('',(1.6,25.1,46.2256637377961));
#774=CARTESIAN_POINT('Origin',(1.6,26.6,46.2256637377961));
#775=CARTESIAN_POINT('',(-1.6,25.1,46.2256637377961));
#776=CARTESIAN_POINT('',(0.,25.1,46.2256637377961));
#777=CARTESIAN_POINT('Origin',(-1.6,26.6,46.2256637377961));
#778=CARTESIAN_POINT('Ctrl Pts',(-3.33066907387547E-14,14.1718377086942,
37.4264871426856));
#779=CARTESIAN_POINT('Ctrl Pts',(-1.20000000000002,14.1718377086942,37.4264871426856));
#780=CARTESIAN_POINT('Ctrl Pts',(-2.40000000000001,14.1718377086942,37.4264871426856));
#781=CARTESIAN_POINT('Ctrl Pts',(-3.60000000000001,14.1718377086942,37.4264871426856));
#782=CARTESIAN_POINT('Ctrl Pts',(-3.33971023822717E-14,15.002940330721,
37.3637464766077));
#783=CARTESIAN_POINT('Ctrl Pts',(-1.20000000000002,15.002940330721,37.3637464766077));
#784=CARTESIAN_POINT('Ctrl Pts',(-2.40000000000001,15.002940330721,37.3637464766077));
#785=CARTESIAN_POINT('Ctrl Pts',(-3.60000000000001,15.002940330721,37.3637464766077));
#786=CARTESIAN_POINT('Ctrl Pts',(-3.32931196460707E-14,16.4891395434786,
37.7245057374634));
#787=CARTESIAN_POINT('Ctrl Pts',(-1.20000000000002,16.4891395434786,37.7245057374634));
#788=CARTESIAN_POINT('Ctrl Pts',(-2.40000000000002,16.4891395434786,37.7245057374634));
#789=CARTESIAN_POINT('Ctrl Pts',(-3.60000000000001,16.4891395434786,37.7245057374634));
#790=CARTESIAN_POINT('Ctrl Pts',(-3.27680925468167E-14,17.5504828433889,
38.7846420782557));
#791=CARTESIAN_POINT('Ctrl Pts',(-1.20000000000002,17.5504828433889,38.7846420782557));
#792=CARTESIAN_POINT('Ctrl Pts',(-2.40000000000001,17.5504828433889,38.7846420782557));
#793=CARTESIAN_POINT('Ctrl Pts',(-3.6,17.5504828433889,38.7846420782557));
#794=CARTESIAN_POINT('Ctrl Pts',(-3.24909291293291E-14,17.8783962789515,
39.3168295508697));
#795=CARTESIAN_POINT('Ctrl Pts',(-1.20000000000002,17.8783962789515,39.3168295508697));
#796=CARTESIAN_POINT('Ctrl Pts',(-2.40000000000001,17.8783962789515,39.3168295508697));
#797=CARTESIAN_POINT('Ctrl Pts',(-3.6,17.8783962789515,39.3168295508697));
#798=CARTESIAN_POINT('',(-3.6,14.1718377086942,37.4264871426856));
#799=CARTESIAN_POINT('Ctrl Pts',(-3.60000000000001,14.1718377086942,37.4264871426856));
#800=CARTESIAN_POINT('Ctrl Pts',(-2.40000000000001,14.1718377086942,37.4264871426856));
#801=CARTESIAN_POINT('Ctrl Pts',(-1.20000000000002,14.1718377086942,37.4264871426856));
#802=CARTESIAN_POINT('Ctrl Pts',(-3.33066907387547E-14,14.1718377086942,
37.4264871426856));
#803=CARTESIAN_POINT('',(-5.99520433297585E-14,17.8783962789515,39.3168295508697));
#804=CARTESIAN_POINT('Origin',(-5.99520433297585E-14,14.4729444524014,41.4151378830857));
#805=CARTESIAN_POINT('',(-1.6,17.8783962789515,39.3168295508697));
#806=CARTESIAN_POINT('Ctrl Pts',(-3.24909291293291E-14,17.8783962789515,
39.3168295508697));
#807=CARTESIAN_POINT('Ctrl Pts',(-0.533333333333355,17.8783962789515,39.3168295508697));
#808=CARTESIAN_POINT('Ctrl Pts',(-1.06666666666668,17.8783962789515,39.3168295508697));
#809=CARTESIAN_POINT('Ctrl Pts',(-1.6,17.8783962789515,39.3168295508697));
#810=CARTESIAN_POINT('',(-1.6,17.7752072258425,39.1579137969247));
#811=CARTESIAN_POINT('Ctrl Pts',(-1.6,17.8783962789515,39.3168295508697));
#812=CARTESIAN_POINT('Ctrl Pts',(-1.6,17.8452611101004,39.2630527919662));
#813=CARTESIAN_POINT('Ctrl Pts',(-1.6,17.8108297002804,39.2100708760376));
#814=CARTESIAN_POINT('Ctrl Pts',(-1.6,17.7751525175011,39.1579360256149));
#815=CARTESIAN_POINT('Ctrl Pts',(-3.6,14.1718377086942,37.4264871426856));
#816=CARTESIAN_POINT('Ctrl Pts',(-3.59789215409081,14.1748078555502,37.4262629236937));
#817=CARTESIAN_POINT('Ctrl Pts',(-3.59578430744933,14.177778235612,37.4260421387487));
#818=CARTESIAN_POINT('Ctrl Pts',(-3.59367646798579,14.1807488435713,37.4258247858793));
#819=CARTESIAN_POINT('Ctrl Pts',(-3.50600579723588,14.3043043594584,37.4167844997566));
#820=CARTESIAN_POINT('Ctrl Pts',(-3.41816119457949,14.428487458996,37.4136603683584));
#821=CARTESIAN_POINT('Ctrl Pts',(-3.33074686702539,14.55292164771,37.4164027919248));
#822=CARTESIAN_POINT('Ctrl Pts',(-3.24499443180984,14.674990134706,37.4190930774396));
#823=CARTESIAN_POINT('Ctrl Pts',(-3.15965606672036,14.7973009490756,37.4274292642154));
#824=CARTESIAN_POINT('Ctrl Pts',(-3.0753021688215,14.9194797369292,37.441410059851));
#825=CARTESIAN_POINT('Ctrl Pts',(-3.00411592328051,15.022586403114,37.4532084518135));
#826=CARTESIAN_POINT('Ctrl Pts',(-2.93363078281677,15.1255989667624,37.4690275583378));
#827=CARTESIAN_POINT('Ctrl Pts',(-2.86418955474461,15.2282760911273,37.4888905058456));
#828=CARTESIAN_POINT('Ctrl Pts',(-2.78957246368915,15.3386063452249,37.5102339556082));
#829=CARTESIAN_POINT('Ctrl Pts',(-2.71584928177269,15.4489631195558,37.5363266800182));
#830=CARTESIAN_POINT('Ctrl Pts',(-2.64364535010158,15.5589713010706,37.5673182150752));
#831=CARTESIAN_POINT('Ctrl Pts',(-2.57192211013557,15.6682471122127,37.5981034265499));
#832=CARTESIAN_POINT('Ctrl Pts',(-2.50169795918414,15.7771793966529,37.6337225107475));
#833=CARTESIAN_POINT('Ctrl Pts',(-2.4335858318466,15.8853509874974,37.6743398317405));
#834=CARTESIAN_POINT('Ctrl Pts',(-2.36547370450906,15.993522578342,37.7149571527336));
#835=CARTESIAN_POINT('Ctrl Pts',(-2.29947360078541,16.1009340084909,37.7605727671188));
#836=CARTESIAN_POINT('Ctrl Pts',(-2.23619845527498,16.207111094456,37.8113679637958));
#837=CARTESIAN_POINT('Ctrl Pts',(-2.17615490145565,16.3078654984814,37.8595689454108));
#838=CARTESIAN_POINT('Ctrl Pts',(-2.11974366120716,16.4056047393359,37.9115234426559));
#839=CARTESIAN_POINT('Ctrl Pts',(-2.06722419218243,16.5001835280273,37.9669625247376));
#840=CARTESIAN_POINT('Ctrl Pts',(-2.0555609677015,16.5211870466105,37.9792741202534));
#841=CARTESIAN_POINT('Ctrl Pts',(-2.04408967368676,16.5420347787958,37.9917577543332));
#842=CARTESIAN_POINT('Ctrl Pts',(-2.03281315172816,16.5627252553918,38.0044108008303));
#843=CARTESIAN_POINT('Ctrl Pts',(-1.98371824752339,16.6528059531603,38.0594987178276));
#844=CARTESIAN_POINT('Ctrl Pts',(-1.93831523663649,16.7399057429096,38.1177935492372));
#845=CARTESIAN_POINT('Ctrl Pts',(-1.89683862031076,16.8239897197056,38.178948442065));
#846=CARTESIAN_POINT('Ctrl Pts',(-1.85385013085282,16.911138659766,38.2423325051472));
#847=CARTESIAN_POINT('Ctrl Pts',(-1.81507949664044,16.995048265804,38.3087890908616));
#848=CARTESIAN_POINT('Ctrl Pts',(-1.78078780858058,17.0756791402095,38.3779882411557));
#849=CARTESIAN_POINT('Ctrl Pts',(-1.7657630537387,17.1110072091722,38.4083075496312));
#850=CARTESIAN_POINT('Ctrl Pts',(-1.75159812950513,17.145705815972,38.4391540477232));
#851=CARTESIAN_POINT('Ctrl Pts',(-1.73831499663839,17.1797713513707,38.4705030749111));
#852=CARTESIAN_POINT('Ctrl Pts',(-1.70926366428187,17.2542755515996,38.539066042475));
#853=CARTESIAN_POINT('Ctrl Pts',(-1.68397353846298,17.3268308271443,38.6110319576495));
#854=CARTESIAN_POINT('Ctrl Pts',(-1.66324685878603,17.3969905820926,38.6861977868875));
#855=CARTESIAN_POINT('Ctrl Pts',(-1.64221084770515,17.468197423011,38.7624854143029));
#856=CARTESIAN_POINT('Ctrl Pts',(-1.62587551178028,17.5369361690582,38.8420689546075));
#857=CARTESIAN_POINT('Ctrl Pts',(-1.61507954796204,17.602755955068,38.9246844728126));
#858=CARTESIAN_POINT('Ctrl Pts',(-1.60523828025732,17.6627552423291,38.9999942316178));
#859=CARTESIAN_POINT('Ctrl Pts',(-1.6,17.7203288922921,39.0778225952026));
#860=CARTESIAN_POINT('Ctrl Pts',(-1.6,17.7751525175011,39.1579360256149));
#861=CARTESIAN_POINT('Ctrl Pts',(3.6,31.4412473569476,36.0792050113877));
#862=CARTESIAN_POINT('Ctrl Pts',(3.6,25.6848533704112,36.5375726687252));
#863=CARTESIAN_POINT('Ctrl Pts',(3.6,19.9308303382041,36.991735736617));
#864=CARTESIAN_POINT('Ctrl Pts',(3.6,14.1718377086942,37.4264871426856));
#865=CARTESIAN_POINT('Ctrl Pts',(3.00160139931623,31.4412473569476,36.0792050113877));
#866=CARTESIAN_POINT('Ctrl Pts',(3.00160139931623,25.6848563442701,36.5375724319241));
#867=CARTESIAN_POINT('Ctrl Pts',(3.00160139931623,19.9308155807839,36.9917368506676));
#868=CARTESIAN_POINT('Ctrl Pts',(3.00160139931623,14.1718377086942,37.4264871426856));
#869=CARTESIAN_POINT('Ctrl Pts',(1.96544607029416,31.4810889584685,36.5795543526584));
#870=CARTESIAN_POINT('Ctrl Pts',(1.96544607029416,25.7244646000412,37.0379403539495));
#871=CARTESIAN_POINT('Ctrl Pts',(1.96544607029416,19.9697573900197,37.4921583734918));
#872=CARTESIAN_POINT('Ctrl Pts',(1.96544607029416,14.2096215674929,37.9269960802043));
#873=CARTESIAN_POINT('Ctrl Pts',(1.60000000000001,31.5643759902035,37.6255115901756));
#874=CARTESIAN_POINT('Ctrl Pts',(1.60000000000001,25.8072722129087,38.0839357664254));
#875=CARTESIAN_POINT('Ctrl Pts',(1.6,20.051121864351,38.5382696423648));
#876=CARTESIAN_POINT('Ctrl Pts',(1.6,14.2886069829058,38.9732869463222));
#877=CARTESIAN_POINT('Ctrl Pts',(1.60000000000001,31.6,38.0728944551888));
#878=CARTESIAN_POINT('Ctrl Pts',(1.60000000000001,25.842691521819,38.5313349312725));
#879=CARTESIAN_POINT('Ctrl Pts',(1.6,20.0859217657135,38.9857185250142));
#880=CARTESIAN_POINT('Ctrl Pts',(1.6,14.3223910805478,39.4208125128857));
#881=CARTESIAN_POINT('',(1.60629606092583,29.6,38.0728944551888));
#882=CARTESIAN_POINT('Ctrl Pts',(1.60629606092583,29.6,38.0728944551888));
#883=CARTESIAN_POINT('Ctrl Pts',(1.6213556751698,29.6,37.8829538249075));
#884=CARTESIAN_POINT('Ctrl Pts',(1.66287351597998,29.6270188781198,37.6990213703392));
#885=CARTESIAN_POINT('Ctrl Pts',(1.80135702108363,29.7355737560217,37.317322079916));
#886=CARTESIAN_POINT('Ctrl Pts',(1.90569440277784,29.8253395664241,37.130064318511));
#887=CARTESIAN_POINT('Ctrl Pts',(2.19247877969672,30.0822210296008,36.7430272550524));
#888=CARTESIAN_POINT('Ctrl Pts',(2.38978481266738,30.2658679480072,36.5637181403493));
#889=CARTESIAN_POINT('Ctrl Pts',(2.9002502163963,30.7512212645545,36.2284079894958));
#890=CARTESIAN_POINT('Ctrl Pts',(3.24370869820548,31.0861971068093,36.108596762828));
#891=CARTESIAN_POINT('Ctrl Pts',(3.5957839710994,31.4370452291688,36.0795429594156));
#892=CARTESIAN_POINT('Ctrl Pts',(3.59789198622941,31.4391461614437,36.079372324477));
#893=CARTESIAN_POINT('Ctrl Pts',(3.6,31.4412473569476,36.0792050113877));
#894=CARTESIAN_POINT('',(1.6,29.6,38.231964397584));
#895=CARTESIAN_POINT('Ctrl Pts',(1.60647620119571,29.6000219189114,38.072854369523));
#896=CARTESIAN_POINT('Ctrl Pts',(1.60217894533361,29.6000239896601,38.1257672257716));
#897=CARTESIAN_POINT('Ctrl Pts',(1.60000000000001,29.6000250701265,38.1788445509265));
#898=CARTESIAN_POINT('Ctrl Pts',(1.60000000000001,29.6000251659329,38.2319615743607));
#899=CARTESIAN_POINT('',(1.6,17.7802404697493,39.1575274718558));
#900=CARTESIAN_POINT('Ctrl Pts',(1.60000000000001,29.599999934936,38.2319635784404));
#901=CARTESIAN_POINT('Ctrl Pts',(1.6,25.66100283609,38.5448352532257));
#902=CARTESIAN_POINT('Ctrl Pts',(1.6,21.7218622445941,38.8549822433082));
#903=CARTESIAN_POINT('Ctrl Pts',(1.6,17.7802403641172,39.1575260956613));
#904=CARTESIAN_POINT('',(1.6,17.7752072258425,39.1579137969247));
#905=CARTESIAN_POINT('Ctrl Pts',(1.6,17.7752071204677,39.157912423998));
#906=CARTESIAN_POINT('Ctrl Pts',(1.6,17.7768848688019,39.1577836492635));
#907=CARTESIAN_POINT('Ctrl Pts',(1.6,17.7785626166864,39.157654873151));
#908=CARTESIAN_POINT('Ctrl Pts',(1.6,17.7802403641213,39.157526095661));
#909=CARTESIAN_POINT('Ctrl Pts',(3.6,14.1718377086942,37.4264871426856));
#910=CARTESIAN_POINT('Ctrl Pts',(3.59789215409048,14.1748078555507,37.4262629236937));
#911=CARTESIAN_POINT('Ctrl Pts',(3.59578430744964,14.1777782542039,37.4260420221774));
#912=CARTESIAN_POINT('Ctrl Pts',(3.34742320606489,14.5278014171056,37.4004047256407));
#913=CARTESIAN_POINT('Ctrl Pts',(3.09979768989324,14.8801550652616,37.4201279079178));
#914=CARTESIAN_POINT('Ctrl Pts',(2.64133179580654,15.558235503578,37.5505799584317));
#915=CARTESIAN_POINT('Ctrl Pts',(2.42644796408189,15.8882027702706,37.6571530098501));
#916=CARTESIAN_POINT('Ctrl Pts',(2.01823541162854,16.5729026735558,37.9866136068769));
#917=CARTESIAN_POINT('Ctrl Pts',(1.8481371717438,16.8985173866395,38.2115407449587));
#918=CARTESIAN_POINT('Ctrl Pts',(1.65290123204095,17.3993163795327,38.6719779380249));
#919=CARTESIAN_POINT('Ctrl Pts',(1.6,17.6011426951911,38.9032617119718));
#920=CARTESIAN_POINT('Ctrl Pts',(1.6,17.7752072258425,39.1579137969247));
#921=CARTESIAN_POINT('Ctrl Pts',(6.66133814775094E-14,31.4412473569476,
36.0792050113877));
#922=CARTESIAN_POINT('Ctrl Pts',(1.20000000000004,31.4412473569476,36.0792050113877));
#923=CARTESIAN_POINT('Ctrl Pts',(2.40000000000002,31.4412473569476,36.0792050113877));
#924=CARTESIAN_POINT('Ctrl Pts',(3.6,31.4412473569476,36.0792050113877));
#925=CARTESIAN_POINT('Ctrl Pts',(6.66223361590167E-14,30.874911801199,36.1243009347319));
#926=CARTESIAN_POINT('Ctrl Pts',(1.20000000000004,30.874911801199,36.1243009347319));
#927=CARTESIAN_POINT('Ctrl Pts',(2.40000000000002,30.874911801199,36.1243009347319));
#928=CARTESIAN_POINT('Ctrl Pts',(3.6,30.874911801199,36.1243009347319));
#929=CARTESIAN_POINT('Ctrl Pts',(6.66378725177862E-14,29.928019810933,36.6508711388514));
#930=CARTESIAN_POINT('Ctrl Pts',(1.20000000000005,29.928019810933,36.6508711388514));
#931=CARTESIAN_POINT('Ctrl Pts',(2.40000000000002,29.928019810933,36.6508711388514));
#932=CARTESIAN_POINT('Ctrl Pts',(3.6,29.928019810933,36.6508711388514));
#933=CARTESIAN_POINT('Ctrl Pts',(6.66442723760167E-14,29.6,37.6467983366262));
#934=CARTESIAN_POINT('Ctrl Pts',(1.20000000000004,29.6,37.6467983366262));
#935=CARTESIAN_POINT('Ctrl Pts',(2.40000000000002,29.6,37.6467983366262));
#936=CARTESIAN_POINT('Ctrl Pts',(3.6,29.6,37.6467983366262));
#937=CARTESIAN_POINT('Ctrl Pts',(6.66448054682756E-14,29.6,38.0728944551888));
#938=CARTESIAN_POINT('Ctrl Pts',(1.20000000000005,29.6,38.0728944551888));
#939=CARTESIAN_POINT('Ctrl Pts',(2.40000000000002,29.6,38.0728944551888));
#940=CARTESIAN_POINT('Ctrl Pts',(3.6,29.6,38.0728944551888));
#941=CARTESIAN_POINT('',(6.66133814775094E-14,29.6,38.0728944551888));
#942=CARTESIAN_POINT('Origin',(6.66133814775094E-14,31.6,38.0728944551888));
#943=CARTESIAN_POINT('',(1.6,29.6,38.0728944551888));
#944=CARTESIAN_POINT('Ctrl Pts',(6.66448054682756E-14,29.6,38.0728944551888));
#945=CARTESIAN_POINT('Ctrl Pts',(0.533333333333379,29.6,38.0728944551888));
#946=CARTESIAN_POINT('Ctrl Pts',(1.06666666666669,29.6,38.0728944551888));
#947=CARTESIAN_POINT('Ctrl Pts',(1.6,29.6,38.0728944551888));
#948=CARTESIAN_POINT('Ctrl Pts',(1.6,29.6,38.0728944551888));
#949=CARTESIAN_POINT('Ctrl Pts',(1.60209868697528,29.6,38.0728944551888));
#950=CARTESIAN_POINT('Ctrl Pts',(1.60419737395056,29.6,38.0728944551888));
#951=CARTESIAN_POINT('Ctrl Pts',(1.60629606092583,29.6,38.0728944551888));
#952=CARTESIAN_POINT('Ctrl Pts',(-3.6,31.4412473569476,36.0792050113877));
#953=CARTESIAN_POINT('Ctrl Pts',(-2.39999999999998,31.4412473569476,36.0792050113877));
#954=CARTESIAN_POINT('Ctrl Pts',(-1.19999999999995,31.4412473569476,36.0792050113877));
#955=CARTESIAN_POINT('Ctrl Pts',(6.66133814775094E-14,31.4412473569476,
36.0792050113877));
#956=CARTESIAN_POINT('Ctrl Pts',(-3.6,30.874911801199,36.1243009347319));
#957=CARTESIAN_POINT('Ctrl Pts',(-2.39999999999998,30.874911801199,36.1243009347319));
#958=CARTESIAN_POINT('Ctrl Pts',(-1.19999999999995,30.874911801199,36.1243009347319));
#959=CARTESIAN_POINT('Ctrl Pts',(6.66044267960021E-14,30.874911801199,36.1243009347319));
#960=CARTESIAN_POINT('Ctrl Pts',(-3.6,29.928019810933,36.6508711388514));
#961=CARTESIAN_POINT('Ctrl Pts',(-2.39999999999998,29.928019810933,36.6508711388514));
#962=CARTESIAN_POINT('Ctrl Pts',(-1.19999999999996,29.928019810933,36.6508711388514));
#963=CARTESIAN_POINT('Ctrl Pts',(6.65888904372326E-14,29.928019810933,36.6508711388514));
#964=CARTESIAN_POINT('Ctrl Pts',(-3.6,29.6,37.6467983366262));
#965=CARTESIAN_POINT('Ctrl Pts',(-2.39999999999998,29.6,37.6467983366262));
#966=CARTESIAN_POINT('Ctrl Pts',(-1.19999999999995,29.6,37.6467983366262));
#967=CARTESIAN_POINT('Ctrl Pts',(6.65824905790021E-14,29.6,37.6467983366262));
#968=CARTESIAN_POINT('Ctrl Pts',(-3.6,29.6,38.0728944551888));
#969=CARTESIAN_POINT('Ctrl Pts',(-2.39999999999998,29.6,38.0728944551888));
#970=CARTESIAN_POINT('Ctrl Pts',(-1.19999999999996,29.6,38.0728944551888));
#971=CARTESIAN_POINT('Ctrl Pts',(6.65819574867432E-14,29.6,38.0728944551888));
#972=CARTESIAN_POINT('',(-1.6,29.6,38.0728944551888));
#973=CARTESIAN_POINT('Ctrl Pts',(-1.6,29.6,38.0728944551888));
#974=CARTESIAN_POINT('Ctrl Pts',(-1.06666666666664,29.6,38.0728944551888));
#975=CARTESIAN_POINT('Ctrl Pts',(-0.533333333333288,29.6,38.0728944551888));
#976=CARTESIAN_POINT('Ctrl Pts',(6.65819574867432E-14,29.6,38.0728944551888));
#977=CARTESIAN_POINT('',(-3.6,31.4412473569476,36.0792050113877));
#978=CARTESIAN_POINT('Ctrl Pts',(6.66133814775094E-14,31.4412473569476,
36.0792050113877));
#979=CARTESIAN_POINT('Ctrl Pts',(-1.19999999999995,31.4412473569476,36.0792050113877));
#980=CARTESIAN_POINT('Ctrl Pts',(-2.39999999999998,31.4412473569476,36.0792050113877));
#981=CARTESIAN_POINT('Ctrl Pts',(-3.6,31.4412473569476,36.0792050113877));
#982=CARTESIAN_POINT('',(-1.60629606092584,29.6,38.0728944551888));
#983=CARTESIAN_POINT('Ctrl Pts',(-1.60629606092583,29.6,38.0728944551888));
#984=CARTESIAN_POINT('Ctrl Pts',(-1.62135567516979,29.6,37.8829538249075));
#985=CARTESIAN_POINT('Ctrl Pts',(-1.66287351597996,29.6270188781197,37.6990213703392));
#986=CARTESIAN_POINT('Ctrl Pts',(-1.80135702108363,29.7355737560217,37.317322079916));
#987=CARTESIAN_POINT('Ctrl Pts',(-1.90569440277786,29.8253395664241,37.130064318511));
#988=CARTESIAN_POINT('Ctrl Pts',(-2.19247877969671,30.0822210296008,36.7430272550524));
#989=CARTESIAN_POINT('Ctrl Pts',(-2.38978481266736,30.2658679480072,36.5637181403493));
#990=CARTESIAN_POINT('Ctrl Pts',(-2.90025021640068,30.7512212645586,36.2284079894929));
#991=CARTESIAN_POINT('Ctrl Pts',(-3.24370869821272,31.0861971068125,36.1085967628279));
#992=CARTESIAN_POINT('Ctrl Pts',(-3.59578397109912,31.4370452291686,36.0795429594156));
#993=CARTESIAN_POINT('Ctrl Pts',(-3.59789198622861,31.4391461614429,36.079372324477));
#994=CARTESIAN_POINT('Ctrl Pts',(-3.6,31.4412473569476,36.0792050113877));
#995=CARTESIAN_POINT('Ctrl Pts',(-1.6,29.6,38.0728944551888));
#996=CARTESIAN_POINT('Ctrl Pts',(-1.60209868697528,29.6,38.0728944551888));
#997=CARTESIAN_POINT('Ctrl Pts',(-1.60419737395056,29.6,38.0728944551888));
#998=CARTESIAN_POINT('Ctrl Pts',(-1.60629606092584,29.6,38.0728944551888));
#999=CARTESIAN_POINT('Ctrl Pts',(-3.6,14.1718377086942,37.4264871426856));
#1000=CARTESIAN_POINT('Ctrl Pts',(-3.6,19.9308303353136,36.9917357368352));
#1001=CARTESIAN_POINT('Ctrl Pts',(-3.6,25.6848533660181,36.537572669075));
#1002=CARTESIAN_POINT('Ctrl Pts',(-3.6,31.4412473569476,36.0792050113877));
#1003=CARTESIAN_POINT('Ctrl Pts',(-3.00160139931623,14.1718377086942,37.4264871426856));
#1004=CARTESIAN_POINT('Ctrl Pts',(-3.00160139931623,19.9308155778934,36.9917368508858));
#1005=CARTESIAN_POINT('Ctrl Pts',(-3.00160139931623,25.6848563398771,36.5375724322739));
#1006=CARTESIAN_POINT('Ctrl Pts',(-3.00160139931623,31.4412473569476,36.0792050113877));
#1007=CARTESIAN_POINT('Ctrl Pts',(-1.96544607029416,14.2096215674929,37.9269960802043));
#1008=CARTESIAN_POINT('Ctrl Pts',(-1.96544607029416,19.9697573871285,37.4921583737101));
#1009=CARTESIAN_POINT('Ctrl Pts',(-1.96544607029416,25.7244645956479,37.0379403542993));
#1010=CARTESIAN_POINT('Ctrl Pts',(-1.96544607029416,31.4810889584685,36.5795543526584));
#1011=CARTESIAN_POINT('Ctrl Pts',(-1.60000000000001,14.2886069829058,38.9732869463222));
#1012=CARTESIAN_POINT('Ctrl Pts',(-1.60000000000001,20.0511218614587,38.5382696425832));
#1013=CARTESIAN_POINT('Ctrl Pts',(-1.6,25.8072722085151,38.0839357667753));
#1014=CARTESIAN_POINT('Ctrl Pts',(-1.6,31.5643759902035,37.6255115901756));
#1015=CARTESIAN_POINT('Ctrl Pts',(-1.60000000000001,14.3223910805478,39.4208125128856));
#1016=CARTESIAN_POINT('Ctrl Pts',(-1.60000000000001,20.0859217628206,38.9857185252326));
#1017=CARTESIAN_POINT('Ctrl Pts',(-1.6,25.8426915174252,38.5313349316224));
#1018=CARTESIAN_POINT('Ctrl Pts',(-1.6,31.6,38.0728944551888));
#1019=CARTESIAN_POINT('',(-1.6,17.7802404697493,39.1575274718558));
#1020=CARTESIAN_POINT('',(-1.6,29.6,38.231964397584));
#1021=CARTESIAN_POINT('Ctrl Pts',(-1.60000000000001,17.7802403641172,39.1575260956611));
#1022=CARTESIAN_POINT('Ctrl Pts',(-1.60000000000001,21.7218622430398,38.8549822434269));
#1023=CARTESIAN_POINT('Ctrl Pts',(-1.6,25.6610028340551,38.5448352533866));
#1024=CARTESIAN_POINT('Ctrl Pts',(-1.6,29.599999934936,38.2319635784403));
#1025=CARTESIAN_POINT('Ctrl Pts',(-1.6,29.6000251661648,38.2319615743421));
#1026=CARTESIAN_POINT('Ctrl Pts',(-1.6,29.6000250702706,38.1787964147893));
#1027=CARTESIAN_POINT('Ctrl Pts',(-1.60218285038744,29.6000239799466,38.1257191427889));
#1028=CARTESIAN_POINT('Ctrl Pts',(-1.60647620119571,29.6000219191404,38.0728543695046));
#1029=CARTESIAN_POINT('Ctrl Pts',(-3.6,31.4412473569476,36.0792050113877));
#1030=CARTESIAN_POINT('Ctrl Pts',(-3.6,25.6848533660181,36.537572669075));
#1031=CARTESIAN_POINT('Ctrl Pts',(-3.6,19.9308303353136,36.9917357368352));
#1032=CARTESIAN_POINT('Ctrl Pts',(-3.6,14.1718377086942,37.4264871426856));
#1033=CARTESIAN_POINT('Ctrl Pts',(-1.60000000000001,17.7752071204677,39.1579124239978));
#1034=CARTESIAN_POINT('Ctrl Pts',(-1.60000000000001,17.7768848688019,39.1577836492633));
#1035=CARTESIAN_POINT('Ctrl Pts',(-1.60000000000001,17.7785626166864,39.1576548731508));
#1036=CARTESIAN_POINT('Ctrl Pts',(-1.60000000000001,17.7802403641213,39.1575260956608));
#1037=CARTESIAN_POINT('Ctrl Pts',(3.6,14.1718377086942,37.4264871426856));
#1038=CARTESIAN_POINT('Ctrl Pts',(2.39999999999998,14.1718377086942,37.4264871426856));
#1039=CARTESIAN_POINT('Ctrl Pts',(1.19999999999996,14.1718377086942,37.4264871426856));
#1040=CARTESIAN_POINT('Ctrl Pts',(-5.77315972805081E-14,14.1718377086942,
37.4264871426856));
#1041=CARTESIAN_POINT('Ctrl Pts',(3.6,15.002940330721,37.3637464766077));
#1042=CARTESIAN_POINT('Ctrl Pts',(2.39999999999998,15.002940330721,37.3637464766077));
#1043=CARTESIAN_POINT('Ctrl Pts',(1.19999999999996,15.002940330721,37.3637464766077));
#1044=CARTESIAN_POINT('Ctrl Pts',(-5.76411856369912E-14,15.002940330721,
37.3637464766077));
#1045=CARTESIAN_POINT('Ctrl Pts',(3.6,16.4891395434786,37.7245057374634));
#1046=CARTESIAN_POINT('Ctrl Pts',(2.39999999999998,16.4891395434786,37.7245057374634));
#1047=CARTESIAN_POINT('Ctrl Pts',(1.19999999999996,16.4891395434786,37.7245057374634));
#1048=CARTESIAN_POINT('Ctrl Pts',(-5.77451683731922E-14,16.4891395434786,
37.7245057374634));
#1049=CARTESIAN_POINT('Ctrl Pts',(3.6,17.5504828433889,38.7846420782557));
#1050=CARTESIAN_POINT('Ctrl Pts',(2.39999999999998,17.5504828433889,38.7846420782557));
#1051=CARTESIAN_POINT('Ctrl Pts',(1.19999999999996,17.5504828433889,38.7846420782557));
#1052=CARTESIAN_POINT('Ctrl Pts',(-5.82701954724462E-14,17.5504828433889,
38.7846420782557));
#1053=CARTESIAN_POINT('Ctrl Pts',(3.6,17.8783962789515,39.3168295508697));
#1054=CARTESIAN_POINT('Ctrl Pts',(2.39999999999998,17.8783962789515,39.3168295508697));
#1055=CARTESIAN_POINT('Ctrl Pts',(1.19999999999996,17.8783962789515,39.3168295508697));
#1056=CARTESIAN_POINT('Ctrl Pts',(-5.85473588899337E-14,17.8783962789515,
39.3168295508697));
#1057=CARTESIAN_POINT('',(1.6,17.8783962789515,39.3168295508697));
#1058=CARTESIAN_POINT('Ctrl Pts',(1.6,17.8783962789515,39.3168295508697));
#1059=CARTESIAN_POINT('Ctrl Pts',(1.06666666666665,17.8783962789515,39.3168295508697));
#1060=CARTESIAN_POINT('Ctrl Pts',(0.533333333333293,17.8783962789515,39.3168295508697));
#1061=CARTESIAN_POINT('Ctrl Pts',(-5.85473588899337E-14,17.8783962789515,
39.3168295508697));
#1062=CARTESIAN_POINT('Ctrl Pts',(1.6,17.7751525175011,39.1579360256149));
#1063=CARTESIAN_POINT('Ctrl Pts',(1.6,17.8108297002804,39.2100708760376));
#1064=CARTESIAN_POINT('Ctrl Pts',(1.6,17.8452611101004,39.2630527919662));
#1065=CARTESIAN_POINT('Ctrl Pts',(1.6,17.8783962789515,39.3168295508697));
#1066=CARTESIAN_POINT('Origin',(1.6,22.7868694453411,42.6758553439484));
#1067=CARTESIAN_POINT('',(1.6,24.0141253972958,49.2748179039041));
#1068=CARTESIAN_POINT('Origin',(1.6,25.7168513105708,48.2256637377961));
#1069=CARTESIAN_POINT('',(1.6,16.6,37.2420548972265));
#1070=CARTESIAN_POINT('',(1.6,29.6,48.2256637377961));
#1071=CARTESIAN_POINT('',(1.6,29.6,36.2256637377961));
#1072=CARTESIAN_POINT('Origin',(1.6,27.6,48.2256637377961));
#1073=CARTESIAN_POINT('Origin',(0.,29.6,35.1260469501008));
#1074=CARTESIAN_POINT('',(-1.6,29.6,48.2256637377961));
#1075=CARTESIAN_POINT('',(0.,29.6,48.2256637377961));
#1076=CARTESIAN_POINT('',(-1.6,29.6,36.2256637377961));
#1077=CARTESIAN_POINT('Origin',(0.,27.6,48.2256637377961));
#1078=CARTESIAN_POINT('Origin',(-1.6,27.6,48.2256637377961));
#1079=CARTESIAN_POINT('Origin',(-1.6,22.7868694453411,42.6758553439484));
#1080=CARTESIAN_POINT('',(-1.6,24.0141253972958,49.2748179039041));
#1081=CARTESIAN_POINT('Origin',(-1.6,25.7168513105708,48.2256637377961));
#1082=CARTESIAN_POINT('',(-1.6,16.6,37.2420548972265));
#1083=CARTESIAN_POINT('Origin',(0.,24.6,50.2256637377961));
#1084=CARTESIAN_POINT('',(0.,24.0141253972958,49.2748179039041));
#1085=CARTESIAN_POINT('Origin',(0.,25.7168513105708,48.2256637377961));
#1086=CARTESIAN_POINT('Ctrl Pts',(-44.6572160531556,-88.0000000010408,39.8300985008095));
#1087=CARTESIAN_POINT('Ctrl Pts',(-44.6898789673376,-87.0001161136769,39.8888925458831));
#1088=CARTESIAN_POINT('Ctrl Pts',(-44.7213576575196,-86.0001161133299,39.9455263789466));
#1089=CARTESIAN_POINT('Ctrl Pts',(-46.0577225857565,-41.8824845302924,42.3484945069438));
#1090=CARTESIAN_POINT('Ctrl Pts',(-47.6862827841775,2.22126527834332,38.3786764879026));
#1091=CARTESIAN_POINT('Ctrl Pts',(-41.8650293432177,46.5340465146614,34.8788405752494));
#1092=CARTESIAN_POINT('Ctrl Pts',(-41.6574300068986,48.0673798479947,34.7554796061525));
#1093=CARTESIAN_POINT('Ctrl Pts',(-41.443754987322,49.6,34.6299170927095));
#1094=CARTESIAN_POINT('Ctrl Pts',(-29.7714773687704,-88.0000000010408,39.8300985008095));
#1095=CARTESIAN_POINT('Ctrl Pts',(-29.7932526448917,-87.0001161136769,39.8888925458831));
#1096=CARTESIAN_POINT('Ctrl Pts',(-29.8142384383464,-86.0001161133299,39.9455263789466));
#1097=CARTESIAN_POINT('Ctrl Pts',(-30.7051483905043,-41.8824845302924,42.3484945069438));
#1098=CARTESIAN_POINT('Ctrl Pts',(-31.7908551894516,2.22126527834332,38.3786764879026));
#1099=CARTESIAN_POINT('Ctrl Pts',(-27.9100195621451,46.5340465146614,34.8788405752494));
#1100=CARTESIAN_POINT('Ctrl Pts',(-27.771620004599,48.0673798479947,34.7554796061525));
#1101=CARTESIAN_POINT('Ctrl Pts',(-27.629169991548,49.6,34.6299170927095));
#1102=CARTESIAN_POINT('Ctrl Pts',(-14.8857386843852,-88.0000000010408,39.8300985008095));
#1103=CARTESIAN_POINT('Ctrl Pts',(-14.8966263224459,-87.0001161136769,39.8888925458831));
#1104=CARTESIAN_POINT('Ctrl Pts',(-14.9071192191732,-86.0001161133299,39.9455263789466));
#1105=CARTESIAN_POINT('Ctrl Pts',(-15.3525741952522,-41.8824845302924,42.3484945069438));
#1106=CARTESIAN_POINT('Ctrl Pts',(-15.8954275947258,2.22126527834332,38.3786764879026));
#1107=CARTESIAN_POINT('Ctrl Pts',(-13.9550097810725,46.5340465146614,34.8788405752494));
#1108=CARTESIAN_POINT('Ctrl Pts',(-13.8858100022995,48.0673798479947,34.7554796061525));
#1109=CARTESIAN_POINT('Ctrl Pts',(-13.8145849957739,49.6,34.6299170927095));
#1110=CARTESIAN_POINT('Ctrl Pts',(-8.1272166911625E-16,-88.0000000010408,
39.8300985008095));
#1111=CARTESIAN_POINT('Ctrl Pts',(-5.46570292219621E-16,-87.0001161136769,
39.8888925458831));
#1112=CARTESIAN_POINT('Ctrl Pts',(-2.75663069180872E-16,-86.0001161133299,
39.9455263789466));
#1113=CARTESIAN_POINT('Ctrl Pts',(1.18845266978638E-14,-41.8824845302924,
42.3484945069438));
#1114=CARTESIAN_POINT('Ctrl Pts',(6.1698219095348E-14,2.22126527834332,
38.3786764879026));
#1115=CARTESIAN_POINT('Ctrl Pts',(6.2189496723438E-14,46.5340465146614,
34.8788405752494));
#1116=CARTESIAN_POINT('Ctrl Pts',(6.21804638918434E-14,48.0673798479947,
34.7554796061525));
#1117=CARTESIAN_POINT('Ctrl Pts',(6.21453908842249E-14,49.6,34.6299170927095));
#1118=CARTESIAN_POINT('',(-44.4908760448985,-88.0000000005193,39.8300985008097));
#1119=CARTESIAN_POINT('Ctrl Pts',(-8.12721668839211E-16,-88.0000000000001,
39.8300985008707));
#1120=CARTESIAN_POINT('Ctrl Pts',(-7.44286934219826,-88.0000000000001,39.8300985008707));
#1121=CARTESIAN_POINT('Ctrl Pts',(-14.8857386843965,-88.0000000000001,39.8300985008707));
#1122=CARTESIAN_POINT('Ctrl Pts',(-29.7160306993627,-88.0000000000001,39.8300985008707));
#1123=CARTESIAN_POINT('Ctrl Pts',(-37.1034533721306,-88.0000000005193,39.8300985008097));
#1124=CARTESIAN_POINT('Ctrl Pts',(-44.4908760448985,-88.0000000005193,39.8300985008097));
#1125=CARTESIAN_POINT('Ctrl Pts',(-44.4911641470163,-88.0000341109729,39.8305665258705));
#1126=CARTESIAN_POINT('Ctrl Pts',(-44.5314808701362,-86.896905146928,39.8952068968056));
#1127=CARTESIAN_POINT('Ctrl Pts',(-44.5664550081527,-85.8951007396084,39.9512462824624));
#1128=CARTESIAN_POINT('Ctrl Pts',(-44.5968935485512,-85.,40.));
#1129=CARTESIAN_POINT('Ctrl Pts',(-44.5989810004381,-84.9386146739174,40.0033434927672));
#1130=CARTESIAN_POINT('Ctrl Pts',(-44.6010463750108,-84.877730853855,40.0066467555126));
#1131=CARTESIAN_POINT('Ctrl Pts',(-44.6030898579173,-84.8173502852878,40.0099103442371));
#1132=CARTESIAN_POINT('Ctrl Pts',(-44.6202584975026,-84.3100535438183,40.0373298926898));
#1133=CARTESIAN_POINT('Ctrl Pts',(-44.6362686567394,-83.8382937914267,40.0619522465972));
#1134=CARTESIAN_POINT('Ctrl Pts',(-44.6510591412321,-83.4030976423477,40.0840803706063));
#1135=CARTESIAN_POINT('Ctrl Pts',(-44.665148744591,-82.9885242639795,40.1051599025526));
#1136=CARTESIAN_POINT('Ctrl Pts',(-44.679211802468,-82.5753686857261,40.1255892916479));
#1137=CARTESIAN_POINT('Ctrl Pts',(-44.693314912906,-82.1614535403745,40.1454858909202));
#1138=CARTESIAN_POINT('Ctrl Pts',(-45.2231952025072,-66.6098858168074,40.8930384135273));
#1139=CARTESIAN_POINT('Ctrl Pts',(-45.7740859902146,-51.0147757087808,40.8388827775554));
#1140=CARTESIAN_POINT('Ctrl Pts',(-45.9564409755546,-35.4319825318391,40.3155180987983));
#1141=CARTESIAN_POINT('Ctrl Pts',(-46.074888830922,-25.3102497533178,39.9755689405219));
#1142=CARTESIAN_POINT('Ctrl Pts',(-46.0383341075947,-15.1966756673496,39.4371211136319));
#1143=CARTESIAN_POINT('Ctrl Pts',(-45.7378840201618,-5.09154146116419,38.7854536305053));
#1144=CARTESIAN_POINT('Ctrl Pts',(-45.5418862931301,1.50051298849693,38.3603402728603));
#1145=CARTESIAN_POINT('Ctrl Pts',(-45.2334717221451,8.0850485229945,37.887178842435));
#1146=CARTESIAN_POINT('Ctrl Pts',(-44.7819780336295,14.6523365413869,37.3901683273458));
#1147=CARTESIAN_POINT('Ctrl Pts',(-40.5334178355088,-149.630923137666,33.4485948593972));
#1148=CARTESIAN_POINT('Ctrl Pts',(-40.5334178355088,-149.630923137666,30.4485948593972));
#1149=CARTESIAN_POINT('Ctrl Pts',(-42.0694424301352,-132.914049210416,35.9310823109721));
#1150=CARTESIAN_POINT('Ctrl Pts',(-42.0694424301352,-132.914049210416,32.9310823109721));
#1151=CARTESIAN_POINT('Ctrl Pts',(-43.0498484589213,-118.014687104619,37.512311936877));
#1152=CARTESIAN_POINT('Ctrl Pts',(-43.0498484589213,-118.014687104619,34.512311936877));
#1153=CARTESIAN_POINT('Ctrl Pts',(-43.670166716259,-106.30865565841,38.5109978802263));
#1154=CARTESIAN_POINT('Ctrl Pts',(-43.670166716259,-106.30865565841,35.5109978802263));
#1155=CARTESIAN_POINT('Ctrl Pts',(-44.1684287834801,-96.9059476801271,39.3131785620808));
#1156=CARTESIAN_POINT('Ctrl Pts',(-44.1684287834801,-96.9059476801271,36.3131785620808));
#1157=CARTESIAN_POINT('Ctrl Pts',(-44.441651094943,-89.5651872009697,39.7513465943514));
#1158=CARTESIAN_POINT('Ctrl Pts',(-44.441651094943,-89.5651872009697,36.7513465943514));
#1159=CARTESIAN_POINT('Ctrl Pts',(-44.5968935485512,-85.,40.));
#1160=CARTESIAN_POINT('Ctrl Pts',(-44.5968935485512,-85.,37.));
#1161=CARTESIAN_POINT('Ctrl Pts',(-44.5989810004381,-84.9386146739174,40.0033434927672));
#1162=CARTESIAN_POINT('Ctrl Pts',(-44.5989810004381,-84.9386146739174,37.0033434927672));
#1163=CARTESIAN_POINT('Ctrl Pts',(-44.6010463750108,-84.877730853855,40.0066467555126));
#1164=CARTESIAN_POINT('Ctrl Pts',(-44.6010463750108,-84.877730853855,37.0066467555126));
#1165=CARTESIAN_POINT('Ctrl Pts',(-44.6030898579173,-84.8173502852878,40.0099103442371));
#1166=CARTESIAN_POINT('Ctrl Pts',(-44.6030898579173,-84.8173502852878,37.0099103442371));
#1167=CARTESIAN_POINT('Ctrl Pts',(-44.6202584975026,-84.3100535438183,40.0373298926898));
#1168=CARTESIAN_POINT('Ctrl Pts',(-44.6202584975026,-84.3100535438183,37.0373298926898));
#1169=CARTESIAN_POINT('Ctrl Pts',(-44.6362686567394,-83.8382937914267,40.0619522465972));
#1170=CARTESIAN_POINT('Ctrl Pts',(-44.6362686567394,-83.8382937914267,37.0619522465972));
#1171=CARTESIAN_POINT('Ctrl Pts',(-44.6510591412321,-83.4030976423477,40.0840803706063));
#1172=CARTESIAN_POINT('Ctrl Pts',(-44.6510591412321,-83.4030976423477,37.0840803706063));
#1173=CARTESIAN_POINT('Ctrl Pts',(-44.665148744591,-82.9885242639795,40.1051599025526));
#1174=CARTESIAN_POINT('Ctrl Pts',(-44.665148744591,-82.9885242639795,37.1051599025526));
#1175=CARTESIAN_POINT('Ctrl Pts',(-44.679211802468,-82.5753686857261,40.1255892916479));
#1176=CARTESIAN_POINT('Ctrl Pts',(-44.679211802468,-82.5753686857261,37.1255892916479));
#1177=CARTESIAN_POINT('Ctrl Pts',(-44.693314912906,-82.1614535403745,40.1454858909202));
#1178=CARTESIAN_POINT('Ctrl Pts',(-44.693314912906,-82.1614535403745,37.1454858909202));
#1179=CARTESIAN_POINT('Ctrl Pts',(-45.2231952025072,-66.6098858168074,40.8930384135273));
#1180=CARTESIAN_POINT('Ctrl Pts',(-45.2231952025072,-66.6098858168074,37.8930384135273));
#1181=CARTESIAN_POINT('Ctrl Pts',(-45.7740859902146,-51.0147757087808,40.8388827775554));
#1182=CARTESIAN_POINT('Ctrl Pts',(-45.7740859902146,-51.0147757087808,37.8388827775554));
#1183=CARTESIAN_POINT('Ctrl Pts',(-45.9564409755546,-35.4319825318391,40.3155180987983));
#1184=CARTESIAN_POINT('Ctrl Pts',(-45.9564409755546,-35.4319825318391,37.3155180987983));
#1185=CARTESIAN_POINT('Ctrl Pts',(-46.074888830922,-25.3102497533178,39.9755689405219));
#1186=CARTESIAN_POINT('Ctrl Pts',(-46.074888830922,-25.3102497533178,36.9755689405219));
#1187=CARTESIAN_POINT('Ctrl Pts',(-46.0383341075947,-15.1966756673496,39.4371211136319));
#1188=CARTESIAN_POINT('Ctrl Pts',(-46.0383341075947,-15.1966756673496,36.4371211136319));
#1189=CARTESIAN_POINT('Ctrl Pts',(-45.7378840201618,-5.09154146116419,38.7854536305053));
#1190=CARTESIAN_POINT('Ctrl Pts',(-45.7378840201618,-5.09154146116419,35.7854536305053));
#1191=CARTESIAN_POINT('Ctrl Pts',(-45.5418862931301,1.50051298849693,38.3603402728603));
#1192=CARTESIAN_POINT('Ctrl Pts',(-45.5418862931301,1.50051298849693,35.3603402728603));
#1193=CARTESIAN_POINT('Ctrl Pts',(-45.2334717221451,8.0850485229945,37.887178842435));
#1194=CARTESIAN_POINT('Ctrl Pts',(-45.2334717221451,8.0850485229945,34.887178842435));
#1195=CARTESIAN_POINT('Ctrl Pts',(-44.7819780336295,14.6523365413869,37.3901683273458));
#1196=CARTESIAN_POINT('Ctrl Pts',(-44.7819780336295,14.6523365413869,34.3901683273458));
#1197=CARTESIAN_POINT('',(-44.4908760448985,-88.0000000005193,36.8300985008097));
#1198=CARTESIAN_POINT('Ctrl Pts',(-44.4908760449365,-88.,39.8300985008707));
#1199=CARTESIAN_POINT('Ctrl Pts',(-44.4908760449365,-88.,39.3300985008707));
#1200=CARTESIAN_POINT('Ctrl Pts',(-44.4908760449365,-88.,38.8300985008707));
#1201=CARTESIAN_POINT('Ctrl Pts',(-44.4908760449365,-88.,37.8300985008707));
#1202=CARTESIAN_POINT('Ctrl Pts',(-44.4908760449365,-88.,37.3300985008707));
#1203=CARTESIAN_POINT('Ctrl Pts',(-44.4908760449365,-88.,36.8300985008707));
#1204=CARTESIAN_POINT('Ctrl Pts',(-44.4911641470163,-88.0000341109729,36.8305665258705));
#1205=CARTESIAN_POINT('Ctrl Pts',(-44.5314808701362,-86.896905146928,36.8952068968056));
#1206=CARTESIAN_POINT('Ctrl Pts',(-44.5664550081527,-85.8951007396084,36.9512462824624));
#1207=CARTESIAN_POINT('Ctrl Pts',(-44.5968935485512,-85.,37.));
#1208=CARTESIAN_POINT('Ctrl Pts',(-44.5989810004381,-84.9386146739174,37.0033434927672));
#1209=CARTESIAN_POINT('Ctrl Pts',(-44.6010463750108,-84.877730853855,37.0066467555126));
#1210=CARTESIAN_POINT('Ctrl Pts',(-44.6030898579173,-84.8173502852878,37.0099103442371));
#1211=CARTESIAN_POINT('Ctrl Pts',(-44.6202584975026,-84.3100535438183,37.0373298926898));
#1212=CARTESIAN_POINT('Ctrl Pts',(-44.6362686567394,-83.8382937914267,37.0619522465972));
#1213=CARTESIAN_POINT('Ctrl Pts',(-44.6510591412321,-83.4030976423477,37.0840803706063));
#1214=CARTESIAN_POINT('Ctrl Pts',(-44.665148744591,-82.9885242639795,37.1051599025526));
#1215=CARTESIAN_POINT('Ctrl Pts',(-44.679211802468,-82.5753686857261,37.1255892916479));
#1216=CARTESIAN_POINT('Ctrl Pts',(-44.693314912906,-82.1614535403745,37.1454858909202));
#1217=CARTESIAN_POINT('Ctrl Pts',(-45.2231952025072,-66.6098858168074,37.8930384135273));
#1218=CARTESIAN_POINT('Ctrl Pts',(-45.7740859902146,-51.0147757087808,37.8388827775554));
#1219=CARTESIAN_POINT('Ctrl Pts',(-45.9564409755546,-35.4319825318391,37.3155180987983));
#1220=CARTESIAN_POINT('Ctrl Pts',(-46.074888830922,-25.3102497533178,36.9755689405219));
#1221=CARTESIAN_POINT('Ctrl Pts',(-46.0383341075947,-15.1966756673496,36.4371211136319));
#1222=CARTESIAN_POINT('Ctrl Pts',(-45.7378840201618,-5.09154146116419,35.7854536305053));
#1223=CARTESIAN_POINT('Ctrl Pts',(-45.5418862931301,1.50051298849693,35.3603402728603));
#1224=CARTESIAN_POINT('Ctrl Pts',(-45.2334717221451,8.0850485229945,34.887178842435));
#1225=CARTESIAN_POINT('Ctrl Pts',(-44.7819780336295,14.6523365413869,34.3901683273458));
#1226=CARTESIAN_POINT('Ctrl Pts',(-44.6572160531556,-88.0000000010408,36.8300985008095));
#1227=CARTESIAN_POINT('Ctrl Pts',(-44.6898789673376,-87.0001161136768,36.8888925458831));
#1228=CARTESIAN_POINT('Ctrl Pts',(-44.7213576575196,-86.0001161133299,36.9455263789466));
#1229=CARTESIAN_POINT('Ctrl Pts',(-46.0577225857565,-41.8824845302924,39.3484945069439));
#1230=CARTESIAN_POINT('Ctrl Pts',(-47.6862827841774,2.22126527834322,35.3786764879026));
#1231=CARTESIAN_POINT('Ctrl Pts',(-41.8650293432177,46.5340465146614,31.8788405752494));
#1232=CARTESIAN_POINT('Ctrl Pts',(-41.6574300068986,48.0673798479947,31.7554796061525));
#1233=CARTESIAN_POINT('Ctrl Pts',(-41.443754987322,49.6,31.6299170927095));
#1234=CARTESIAN_POINT('Ctrl Pts',(-29.7714773687704,-88.0000000010408,36.8300985008095));
#1235=CARTESIAN_POINT('Ctrl Pts',(-29.7932526448917,-87.0001161136768,36.8888925458831));
#1236=CARTESIAN_POINT('Ctrl Pts',(-29.8142384383464,-86.0001161133299,36.9455263789466));
#1237=CARTESIAN_POINT('Ctrl Pts',(-30.7051483905043,-41.8824845302924,39.3484945069439));
#1238=CARTESIAN_POINT('Ctrl Pts',(-31.7908551894516,2.22126527834322,35.3786764879026));
#1239=CARTESIAN_POINT('Ctrl Pts',(-27.9100195621451,46.5340465146614,31.8788405752494));
#1240=CARTESIAN_POINT('Ctrl Pts',(-27.771620004599,48.0673798479947,31.7554796061525));
#1241=CARTESIAN_POINT('Ctrl Pts',(-27.629169991548,49.6,31.6299170927095));
#1242=CARTESIAN_POINT('Ctrl Pts',(-14.8857386843852,-88.0000000010408,36.8300985008095));
#1243=CARTESIAN_POINT('Ctrl Pts',(-14.8966263224459,-87.0001161136768,36.8888925458831));
#1244=CARTESIAN_POINT('Ctrl Pts',(-14.9071192191732,-86.0001161133299,36.9455263789466));
#1245=CARTESIAN_POINT('Ctrl Pts',(-15.3525741952522,-41.8824845302924,39.3484945069439));
#1246=CARTESIAN_POINT('Ctrl Pts',(-15.8954275947258,2.22126527834322,35.3786764879025));
#1247=CARTESIAN_POINT('Ctrl Pts',(-13.9550097810725,46.5340465146614,31.8788405752494));
#1248=CARTESIAN_POINT('Ctrl Pts',(-13.8858100022995,48.0673798479947,31.7554796061525));
#1249=CARTESIAN_POINT('Ctrl Pts',(-13.8145849957739,49.6,31.6299170927095));
#1250=CARTESIAN_POINT('Ctrl Pts',(-8.12721669116241E-16,-88.0000000010408,
36.8300985008095));
#1251=CARTESIAN_POINT('Ctrl Pts',(-5.46570292219615E-16,-87.0001161136768,
36.8888925458831));
#1252=CARTESIAN_POINT('Ctrl Pts',(-2.75663069180867E-16,-86.0001161133299,
36.9455263789466));
#1253=CARTESIAN_POINT('Ctrl Pts',(1.18845266978638E-14,-41.8824845302924,
39.3484945069439));
#1254=CARTESIAN_POINT('Ctrl Pts',(6.16982190953478E-14,2.22126527834322,
35.3786764879026));
#1255=CARTESIAN_POINT('Ctrl Pts',(6.2189496723438E-14,46.5340465146614,
31.8788405752494));
#1256=CARTESIAN_POINT('Ctrl Pts',(6.21804638918434E-14,48.0673798479947,
31.7554796061525));
#1257=CARTESIAN_POINT('Ctrl Pts',(6.21453908842249E-14,49.6,31.6299170927095));
#1258=CARTESIAN_POINT('Ctrl Pts',(-44.4908760448985,-88.0000000005193,36.8300985008097));
#1259=CARTESIAN_POINT('Ctrl Pts',(-37.1034533721306,-88.0000000005193,36.8300985008097));
#1260=CARTESIAN_POINT('Ctrl Pts',(-29.7160306993627,-88.0000000000001,36.8300985008707));
#1261=CARTESIAN_POINT('Ctrl Pts',(-14.8857386843965,-88.0000000000001,36.8300985008707));
#1262=CARTESIAN_POINT('Ctrl Pts',(-7.44286934219826,-88.0000000000001,36.8300985008707));
#1263=CARTESIAN_POINT('Ctrl Pts',(-8.12721668839211E-16,-88.0000000000001,
36.8300985008707));
#1264=CARTESIAN_POINT('Origin',(0.,-88.,9.29211077326054));
#1265=UNCERTAINTY_MEASURE_WITH_UNIT(LENGTH_MEASURE(0.01),#1269,
'DISTANCE_ACCURACY_VALUE',
'Maximum model space distance between geometric entities at asserted c
onnectivities');
#1266=UNCERTAINTY_MEASURE_WITH_UNIT(LENGTH_MEASURE(0.01),#1269,
'DISTANCE_ACCURACY_VALUE',
'Maximum model space distance between geometric entities at asserted c
onnectivities');
#1267=(
GEOMETRIC_REPRESENTATION_CONTEXT(3)
GLOBAL_UNCERTAINTY_ASSIGNED_CONTEXT((#1265))
GLOBAL_UNIT_ASSIGNED_CONTEXT((#1269,#1271,#1272))
REPRESENTATION_CONTEXT('','3D')
);
#1268=(
GEOMETRIC_REPRESENTATION_CONTEXT(3)
GLOBAL_UNCERTAINTY_ASSIGNED_CONTEXT((#1266))
GLOBAL_UNIT_ASSIGNED_CONTEXT((#1269,#1271,#1272))
REPRESENTATION_CONTEXT('','3D')
);
#1269=(
LENGTH_UNIT()
NAMED_UNIT(*)
SI_UNIT(.MILLI.,.METRE.)
);
#1270=(
LENGTH_UNIT()
NAMED_UNIT(*)
SI_UNIT($,.METRE.)
);
#1271=(
NAMED_UNIT(*)
PLANE_ANGLE_UNIT()
SI_UNIT($,.RADIAN.)
);
#1272=(
NAMED_UNIT(*)
SI_UNIT($,.STERADIAN.)
SOLID_ANGLE_UNIT()
);
#1273=SHAPE_DEFINITION_REPRESENTATION(#1274,#1275);
#1274=PRODUCT_DEFINITION_SHAPE('',$,#1277);
#1275=SHAPE_REPRESENTATION('',(#461),#1267);
#1276=PRODUCT_DEFINITION_CONTEXT('part definition',#1281,'design');
#1277=PRODUCT_DEFINITION('C2','C2',#1278,#1276);
#1278=PRODUCT_DEFINITION_FORMATION('',$,#1283);
#1279=PRODUCT_RELATED_PRODUCT_CATEGORY('C2','C2',(#1283));
#1280=APPLICATION_PROTOCOL_DEFINITION('international standard',
'automotive_design',2009,#1281);
#1281=APPLICATION_CONTEXT(
'Core Data for Automotive Mechanical Design Process');
#1282=PRODUCT_CONTEXT('part definition',#1281,'mechanical');
#1283=PRODUCT('C2','C2',$,(#1282));
#1284=PRESENTATION_STYLE_ASSIGNMENT((#1286));
#1285=PRESENTATION_STYLE_ASSIGNMENT((#1287));
#1286=SURFACE_STYLE_USAGE(.BOTH.,#1288);
#1287=SURFACE_STYLE_USAGE(.BOTH.,#1289);
#1288=SURFACE_SIDE_STYLE('',(#1290));
#1289=SURFACE_SIDE_STYLE('',(#1291));
#1290=SURFACE_STYLE_FILL_AREA(#1292);
#1291=SURFACE_STYLE_FILL_AREA(#1293);
#1292=FILL_AREA_STYLE('Steel - Satin',(#1294));
#1293=FILL_AREA_STYLE('Paint - Enamel Glossy (Red)',(#1295));
#1294=FILL_AREA_STYLE_COLOUR('Steel - Satin',#1296);
#1295=FILL_AREA_STYLE_COLOUR('Paint - Enamel Glossy (Red)',#1297);
#1296=COLOUR_RGB('Steel - Satin',0.627450980392157,0.627450980392157,0.627450980392157);
#1297=COLOUR_RGB('Paint - Enamel Glossy (Red)',0.768627450980392,0.207843137254902,
0.152941176470588);
ENDSEC;
END-ISO-10303-21;
