ISO-10303-21;
HEADER;
/* Generated by software containing ST-Developer
 * from STEP Tools, Inc. (www.steptools.com) 
 */

FILE_DESCRIPTION(
/* description */ (''),
/* implementation_level */ '2;1');

FILE_NAME(
/* name */ 'Front plate.step',
/* time_stamp */ '2026-08-30T15:31:44-07:00',
/* author */ (''),
/* organization */ (''),
/* preprocessor_version */ 'ST-DEVELOPER v20.1',
/* originating_system */ 'Autodesk Translation Framework v15.8.0.0',
/* authorisation */ '');

FILE_SCHEMA (('AUTOMOTIVE_DESIGN { 1 0 10303 214 3 1 1 }'));
ENDSEC;

DATA;
#10=MECHANICAL_DESIGN_GEOMETRIC_PRESENTATION_REPRESENTATION('',(#13),#323);
#11=SHAPE_REPRESENTATION_RELATIONSHIP('SRR','None',#330,#12);
#12=ADVANCED_BREP_SHAPE_REPRESENTATION('',(#14),#322);
#13=STYLED_ITEM('',(#340),#14);
#14=MANIFOLD_SOLID_BREP('Front plate',#183);
#15=ELLIPSE('',#199,3.24717660087665,3.);
#16=ELLIPSE('',#200,3.24717660087665,3.);
#17=ELLIPSE('',#202,3.24717660087772,3.);
#18=ELLIPSE('',#204,3.2471766008767,3.);
#19=ELLIPSE('',#206,3.24717660087766,3.);
#20=ELLIPSE('',#208,3.24717660087767,3.);
#21=ELLIPSE('',#210,3.24717660087669,3.);
#22=ELLIPSE('',#212,3.24717660087772,3.);
#23=CYLINDRICAL_SURFACE('',#198,3.);
#24=CYLINDRICAL_SURFACE('',#201,3.);
#25=CYLINDRICAL_SURFACE('',#203,3.);
#26=CYLINDRICAL_SURFACE('',#205,3.);
#27=CYLINDRICAL_SURFACE('',#207,3.);
#28=CYLINDRICAL_SURFACE('',#209,3.);
#29=CYLINDRICAL_SURFACE('',#211,3.);
#30=CYLINDRICAL_SURFACE('',#213,3.);
#31=FACE_OUTER_BOUND('',#41,.T.);
#32=FACE_OUTER_BOUND('',#42,.T.);
#33=FACE_OUTER_BOUND('',#43,.T.);
#34=FACE_OUTER_BOUND('',#44,.T.);
#35=FACE_OUTER_BOUND('',#45,.T.);
#36=FACE_OUTER_BOUND('',#46,.T.);
#37=FACE_OUTER_BOUND('',#47,.T.);
#38=FACE_OUTER_BOUND('',#48,.T.);
#39=FACE_OUTER_BOUND('',#49,.T.);
#40=FACE_OUTER_BOUND('',#50,.T.);
#41=EDGE_LOOP('',(#123,#124,#125,#126,#127,#128,#129,#130));
#42=EDGE_LOOP('',(#131,#132,#133,#134));
#43=EDGE_LOOP('',(#135,#136,#137,#138));
#44=EDGE_LOOP('',(#139,#140,#141,#142));
#45=EDGE_LOOP('',(#143,#144,#145,#146));
#46=EDGE_LOOP('',(#147,#148,#149,#150));
#47=EDGE_LOOP('',(#151,#152,#153,#154));
#48=EDGE_LOOP('',(#155,#156,#157,#158));
#49=EDGE_LOOP('',(#159,#160,#161,#162));
#50=EDGE_LOOP('',(#163,#164,#165,#166,#167,#168,#169,#170));
#51=LINE('',#273,#67);
#52=LINE('',#275,#68);
#53=LINE('',#277,#69);
#54=LINE('',#279,#70);
#55=LINE('',#281,#71);
#56=LINE('',#283,#72);
#57=LINE('',#285,#73);
#58=LINE('',#286,#74);
#59=LINE('',#290,#75);
#60=LINE('',#295,#76);
#61=LINE('',#299,#77);
#62=LINE('',#303,#78);
#63=LINE('',#307,#79);
#64=LINE('',#311,#80);
#65=LINE('',#315,#81);
#66=LINE('',#318,#82);
#67=VECTOR('',#219,10.);
#68=VECTOR('',#220,10.);
#69=VECTOR('',#221,10.);
#70=VECTOR('',#222,10.);
#71=VECTOR('',#223,10.);
#72=VECTOR('',#224,10.);
#73=VECTOR('',#225,10.);
#74=VECTOR('',#226,10.);
#75=VECTOR('',#229,10.);
#76=VECTOR('',#236,10.);
#77=VECTOR('',#241,10.);
#78=VECTOR('',#246,10.);
#79=VECTOR('',#251,10.);
#80=VECTOR('',#256,10.);
#81=VECTOR('',#261,10.);
#82=VECTOR('',#266,10.);
#83=VERTEX_POINT('',#271);
#84=VERTEX_POINT('',#272);
#85=VERTEX_POINT('',#274);
#86=VERTEX_POINT('',#276);
#87=VERTEX_POINT('',#278);
#88=VERTEX_POINT('',#280);
#89=VERTEX_POINT('',#282);
#90=VERTEX_POINT('',#284);
#91=VERTEX_POINT('',#288);
#92=VERTEX_POINT('',#289);
#93=VERTEX_POINT('',#294);
#94=VERTEX_POINT('',#298);
#95=VERTEX_POINT('',#302);
#96=VERTEX_POINT('',#306);
#97=VERTEX_POINT('',#310);
#98=VERTEX_POINT('',#314);
#99=EDGE_CURVE('',#83,#84,#51,.T.);
#100=EDGE_CURVE('',#84,#85,#52,.T.);
#101=EDGE_CURVE('',#85,#86,#53,.T.);
#102=EDGE_CURVE('',#87,#86,#54,.T.);
#103=EDGE_CURVE('',#88,#87,#55,.T.);
#104=EDGE_CURVE('',#89,#88,#56,.T.);
#105=EDGE_CURVE('',#90,#89,#57,.T.);
#106=EDGE_CURVE('',#90,#83,#58,.T.);
#107=EDGE_CURVE('',#91,#92,#59,.T.);
#108=EDGE_CURVE('',#92,#83,#15,.T.);
#109=EDGE_CURVE('',#91,#90,#16,.T.);
#110=EDGE_CURVE('',#92,#93,#60,.T.);
#111=EDGE_CURVE('',#93,#84,#17,.T.);
#112=EDGE_CURVE('',#93,#94,#61,.T.);
#113=EDGE_CURVE('',#94,#85,#18,.T.);
#114=EDGE_CURVE('',#94,#95,#62,.T.);
#115=EDGE_CURVE('',#95,#86,#19,.T.);
#116=EDGE_CURVE('',#95,#96,#63,.T.);
#117=EDGE_CURVE('',#96,#87,#20,.T.);
#118=EDGE_CURVE('',#96,#97,#64,.T.);
#119=EDGE_CURVE('',#97,#88,#21,.T.);
#120=EDGE_CURVE('',#97,#98,#65,.T.);
#121=EDGE_CURVE('',#98,#89,#22,.T.);
#122=EDGE_CURVE('',#98,#91,#66,.T.);
#123=ORIENTED_EDGE('',*,*,#99,.T.);
#124=ORIENTED_EDGE('',*,*,#100,.T.);
#125=ORIENTED_EDGE('',*,*,#101,.T.);
#126=ORIENTED_EDGE('',*,*,#102,.F.);
#127=ORIENTED_EDGE('',*,*,#103,.F.);
#128=ORIENTED_EDGE('',*,*,#104,.F.);
#129=ORIENTED_EDGE('',*,*,#105,.F.);
#130=ORIENTED_EDGE('',*,*,#106,.T.);
#131=ORIENTED_EDGE('',*,*,#107,.T.);
#132=ORIENTED_EDGE('',*,*,#108,.T.);
#133=ORIENTED_EDGE('',*,*,#106,.F.);
#134=ORIENTED_EDGE('',*,*,#109,.F.);
#135=ORIENTED_EDGE('',*,*,#110,.T.);
#136=ORIENTED_EDGE('',*,*,#111,.T.);
#137=ORIENTED_EDGE('',*,*,#99,.F.);
#138=ORIENTED_EDGE('',*,*,#108,.F.);
#139=ORIENTED_EDGE('',*,*,#112,.T.);
#140=ORIENTED_EDGE('',*,*,#113,.T.);
#141=ORIENTED_EDGE('',*,*,#100,.F.);
#142=ORIENTED_EDGE('',*,*,#111,.F.);
#143=ORIENTED_EDGE('',*,*,#114,.T.);
#144=ORIENTED_EDGE('',*,*,#115,.T.);
#145=ORIENTED_EDGE('',*,*,#101,.F.);
#146=ORIENTED_EDGE('',*,*,#113,.F.);
#147=ORIENTED_EDGE('',*,*,#116,.T.);
#148=ORIENTED_EDGE('',*,*,#117,.T.);
#149=ORIENTED_EDGE('',*,*,#102,.T.);
#150=ORIENTED_EDGE('',*,*,#115,.F.);
#151=ORIENTED_EDGE('',*,*,#103,.T.);
#152=ORIENTED_EDGE('',*,*,#117,.F.);
#153=ORIENTED_EDGE('',*,*,#118,.T.);
#154=ORIENTED_EDGE('',*,*,#119,.T.);
#155=ORIENTED_EDGE('',*,*,#104,.T.);
#156=ORIENTED_EDGE('',*,*,#119,.F.);
#157=ORIENTED_EDGE('',*,*,#120,.T.);
#158=ORIENTED_EDGE('',*,*,#121,.T.);
#159=ORIENTED_EDGE('',*,*,#105,.T.);
#160=ORIENTED_EDGE('',*,*,#121,.F.);
#161=ORIENTED_EDGE('',*,*,#122,.T.);
#162=ORIENTED_EDGE('',*,*,#109,.T.);
#163=ORIENTED_EDGE('',*,*,#107,.F.);
#164=ORIENTED_EDGE('',*,*,#122,.F.);
#165=ORIENTED_EDGE('',*,*,#120,.F.);
#166=ORIENTED_EDGE('',*,*,#118,.F.);
#167=ORIENTED_EDGE('',*,*,#116,.F.);
#168=ORIENTED_EDGE('',*,*,#114,.F.);
#169=ORIENTED_EDGE('',*,*,#112,.F.);
#170=ORIENTED_EDGE('',*,*,#110,.F.);
#171=PLANE('',#197);
#172=PLANE('',#214);
#173=ADVANCED_FACE('',(#31),#171,.F.);
#174=ADVANCED_FACE('',(#32),#23,.T.);
#175=ADVANCED_FACE('',(#33),#24,.T.);
#176=ADVANCED_FACE('',(#34),#25,.T.);
#177=ADVANCED_FACE('',(#35),#26,.T.);
#178=ADVANCED_FACE('',(#36),#27,.T.);
#179=ADVANCED_FACE('',(#37),#28,.T.);
#180=ADVANCED_FACE('',(#38),#29,.T.);
#181=ADVANCED_FACE('',(#39),#30,.T.);
#182=ADVANCED_FACE('',(#40),#172,.T.);
#183=CLOSED_SHELL('',(#173,#174,#175,#176,#177,#178,#179,#180,#181,#182));
#184=DERIVED_UNIT_ELEMENT(#186,1.);
#185=DERIVED_UNIT_ELEMENT(#325,-3.);
#186=(
MASS_UNIT()
NAMED_UNIT(*)
SI_UNIT(.KILO.,.GRAM.)
);
#187=DERIVED_UNIT((#184,#185));
#188=MEASURE_REPRESENTATION_ITEM('density measure',
POSITIVE_RATIO_MEASURE(7850.),#187);
#189=PROPERTY_DEFINITION_REPRESENTATION(#194,#191);
#190=PROPERTY_DEFINITION_REPRESENTATION(#195,#192);
#191=REPRESENTATION('material name',(#193),#322);
#192=REPRESENTATION('density',(#188),#322);
#193=DESCRIPTIVE_REPRESENTATION_ITEM('Steel','Steel');
#194=PROPERTY_DEFINITION('material property','material name',#332);
#195=PROPERTY_DEFINITION('material property','density of part',#332);
#196=AXIS2_PLACEMENT_3D('',#269,#215,#216);
#197=AXIS2_PLACEMENT_3D('',#270,#217,#218);
#198=AXIS2_PLACEMENT_3D('',#287,#227,#228);
#199=AXIS2_PLACEMENT_3D('',#291,#230,#231);
#200=AXIS2_PLACEMENT_3D('',#292,#232,#233);
#201=AXIS2_PLACEMENT_3D('',#293,#234,#235);
#202=AXIS2_PLACEMENT_3D('',#296,#237,#238);
#203=AXIS2_PLACEMENT_3D('',#297,#239,#240);
#204=AXIS2_PLACEMENT_3D('',#300,#242,#243);
#205=AXIS2_PLACEMENT_3D('',#301,#244,#245);
#206=AXIS2_PLACEMENT_3D('',#304,#247,#248);
#207=AXIS2_PLACEMENT_3D('',#305,#249,#250);
#208=AXIS2_PLACEMENT_3D('',#308,#252,#253);
#209=AXIS2_PLACEMENT_3D('',#309,#254,#255);
#210=AXIS2_PLACEMENT_3D('',#312,#257,#258);
#211=AXIS2_PLACEMENT_3D('',#313,#259,#260);
#212=AXIS2_PLACEMENT_3D('',#316,#262,#263);
#213=AXIS2_PLACEMENT_3D('',#317,#264,#265);
#214=AXIS2_PLACEMENT_3D('',#319,#267,#268);
#215=DIRECTION('axis',(0.,0.,1.));
#216=DIRECTION('refdir',(1.,0.,0.));
#217=DIRECTION('center_axis',(0.,-1.,0.));
#218=DIRECTION('ref_axis',(0.,0.,-1.));
#219=DIRECTION('',(-0.707106781187109,0.,0.707106781185986));
#220=DIRECTION('',(5.55111512312547E-16,0.,1.));
#221=DIRECTION('',(0.707106781186036,0.,0.707106781187059));
#222=DIRECTION('',(-1.,0.,2.61228946970625E-16));
#223=DIRECTION('',(-0.707106781186036,0.,0.707106781187059));
#224=DIRECTION('',(-5.55111512312547E-16,0.,1.));
#225=DIRECTION('',(0.707106781187109,0.,0.707106781185986));
#226=DIRECTION('',(-1.,0.,0.));
#227=DIRECTION('center_axis',(1.,0.,0.));
#228=DIRECTION('ref_axis',(0.,-0.707106781186544,-0.707106781186551));
#229=DIRECTION('',(-1.,0.,0.));
#230=DIRECTION('center_axis',(0.923879532511439,1.65085907713476E-15,-0.382683432364723));
#231=DIRECTION('ref_axis',(-0.382683432364723,3.98552637358996E-15,-0.923879532511439));
#232=DIRECTION('center_axis',(0.923879532511439,0.,0.382683432364723));
#233=DIRECTION('ref_axis',(0.382683432364723,0.,-0.923879532511439));
#234=DIRECTION('center_axis',(0.707106781187109,0.,-0.707106781185986));
#235=DIRECTION('ref_axis',(-0.499999999999606,-0.707106781186544,-0.500000000000399));
#236=DIRECTION('',(-0.707106781187109,0.,0.707106781185986));
#237=DIRECTION('center_axis',(0.382683432365455,0.,-0.923879532511135));
#238=DIRECTION('ref_axis',(-0.923879532511135,0.,-0.382683432365455));
#239=DIRECTION('center_axis',(-5.55111512312547E-16,0.,-1.));
#240=DIRECTION('ref_axis',(-0.707106781186551,-0.707106781186544,2.61682076447297E-16));
#241=DIRECTION('',(5.55111512312547E-16,0.,1.));
#242=DIRECTION('center_axis',(-0.382683432364756,3.41904109658036E-16,-0.923879532511425));
#243=DIRECTION('ref_axis',(-0.923879532511425,8.25429538568371E-16,0.382683432364756));
#244=DIRECTION('center_axis',(-0.707106781186036,0.,-0.707106781187059));
#245=DIRECTION('ref_axis',(-0.500000000000363,-0.707106781186544,0.499999999999641));
#246=DIRECTION('',(0.707106781186036,0.,0.707106781187059));
#247=DIRECTION('center_axis',(-0.923879532511145,0.,-0.382683432365432));
#248=DIRECTION('ref_axis',(-0.382683432365432,0.,0.923879532511145));
#249=DIRECTION('center_axis',(-1.,0.,2.61228946970625E-16));
#250=DIRECTION('ref_axis',(0.,-0.707106781186544,0.707106781186551));
#251=DIRECTION('',(1.,0.,-2.61228946970625E-16));
#252=DIRECTION('center_axis',(-0.923879532511149,-2.83242638503117E-16,
0.382683432365423));
#253=DIRECTION('ref_axis',(0.382683432365423,-6.83808219315868E-16,0.923879532511149));
#254=DIRECTION('center_axis',(-0.707106781186036,0.,0.707106781187059));
#255=DIRECTION('ref_axis',(0.500000000000365,-0.707106781186544,0.49999999999964));
#256=DIRECTION('',(0.707106781186036,0.,-0.707106781187059));
#257=DIRECTION('center_axis',(-0.382683432364757,-3.41904109658036E-16,
0.923879532511425));
#258=DIRECTION('ref_axis',(0.923879532511424,-8.25429538568378E-16,0.382683432364757));
#259=DIRECTION('center_axis',(-5.55111512312547E-16,0.,1.));
#260=DIRECTION('ref_axis',(0.707106781186551,-0.707106781186544,2.61682076447297E-16));
#261=DIRECTION('',(5.55111512312547E-16,0.,-1.));
#262=DIRECTION('center_axis',(0.382683432365457,-6.83808219315857E-16,0.923879532511135));
#263=DIRECTION('ref_axis',(0.923879532511135,-1.65085907713268E-15,-0.382683432365457));
#264=DIRECTION('center_axis',(0.707106781187109,0.,0.707106781185986));
#265=DIRECTION('ref_axis',(0.499999999999606,-0.707106781186544,-0.500000000000399));
#266=DIRECTION('',(-0.707106781187109,0.,-0.707106781185986));
#267=DIRECTION('center_axis',(0.,-1.,0.));
#268=DIRECTION('ref_axis',(0.,0.,-1.));
#269=CARTESIAN_POINT('',(0.,0.,0.));
#270=CARTESIAN_POINT('Origin',(0.,-240.,4.97936169425601));
#271=CARTESIAN_POINT('',(-33.9999999999999,-240.,-14.));
#272=CARTESIAN_POINT('',(-39.9999999999999,-240.,-8.00000000000953));
#273=CARTESIAN_POINT('',(-33.9999999999999,-240.,-14.));
#274=CARTESIAN_POINT('',(-39.9999999999999,-240.,7.99999999999138));
#275=CARTESIAN_POINT('',(-39.9999999999999,-240.,-8.00000000000953));
#276=CARTESIAN_POINT('',(-34.,-240.,14.));
#277=CARTESIAN_POINT('',(-39.9999999999999,-240.,7.99999999999138));
#278=CARTESIAN_POINT('',(34.,-240.,14.));
#279=CARTESIAN_POINT('',(34.,-240.,14.));
#280=CARTESIAN_POINT('',(39.9999999999999,-240.,7.99999999999138));
#281=CARTESIAN_POINT('',(39.9999999999999,-240.,7.99999999999138));
#282=CARTESIAN_POINT('',(39.9999999999999,-240.,-8.00000000000953));
#283=CARTESIAN_POINT('',(39.9999999999999,-240.,-8.00000000000953));
#284=CARTESIAN_POINT('',(33.9999999999999,-240.,-14.));
#285=CARTESIAN_POINT('',(33.9999999999999,-240.,-14.));
#286=CARTESIAN_POINT('',(5.87830463590729E-14,-240.,-14.));
#287=CARTESIAN_POINT('Origin',(-17.,-240.,-11.));
#288=CARTESIAN_POINT('',(32.7573593128821,-243.,-11.));
#289=CARTESIAN_POINT('',(-32.757359312882,-243.,-11.));
#290=CARTESIAN_POINT('',(-17.,-243.,-11.));
#291=CARTESIAN_POINT('Origin',(-32.7573593128821,-240.,-11.));
#292=CARTESIAN_POINT('Origin',(32.7573593128821,-240.,-11.));
#293=CARTESIAN_POINT('Origin',(-29.8786796564285,-240.,-13.878679656449));
#294=CARTESIAN_POINT('',(-36.9999999999999,-243.,-6.75735931288885));
#295=CARTESIAN_POINT('',(-29.8786796564285,-243.,-13.878679656449));
#296=CARTESIAN_POINT('Origin',(-36.9999999999999,-240.,-6.75735931288885));
#297=CARTESIAN_POINT('Origin',(-36.9999999999999,-240.,3.9999999999957));
#298=CARTESIAN_POINT('',(-36.9999999999999,-243.,6.75735931287337));
#299=CARTESIAN_POINT('',(-36.9999999999999,-243.,3.9999999999957));
#300=CARTESIAN_POINT('Origin',(-36.9999999999999,-240.,6.75735931287337));
#301=CARTESIAN_POINT('Origin',(-26.8786796564511,-240.,16.8786796564368));
#302=CARTESIAN_POINT('',(-32.7573593128794,-243.,11.));
#303=CARTESIAN_POINT('',(-26.8786796564511,-243.,16.8786796564368));
#304=CARTESIAN_POINT('Origin',(-32.7573593128794,-240.,11.));
#305=CARTESIAN_POINT('Origin',(17.,-240.,11.));
#306=CARTESIAN_POINT('',(32.7573593128794,-243.,11.));
#307=CARTESIAN_POINT('',(17.,-243.,11.));
#308=CARTESIAN_POINT('Origin',(32.7573593128794,-240.,11.));
#309=CARTESIAN_POINT('Origin',(29.8786796564511,-240.,13.8786796564325));
#310=CARTESIAN_POINT('',(36.9999999999999,-243.,6.75735931287337));
#311=CARTESIAN_POINT('',(29.8786796564511,-243.,13.8786796564325));
#312=CARTESIAN_POINT('Origin',(36.9999999999999,-240.,6.75735931287337));
#313=CARTESIAN_POINT('Origin',(36.9999999999999,-240.,-4.00000000000475));
#314=CARTESIAN_POINT('',(36.9999999999999,-243.,-6.75735931288885));
#315=CARTESIAN_POINT('',(36.9999999999999,-243.,-4.00000000000475));
#316=CARTESIAN_POINT('Origin',(36.9999999999999,-240.,-6.75735931288885));
#317=CARTESIAN_POINT('Origin',(26.8786796564285,-240.,-16.8786796564442));
#318=CARTESIAN_POINT('',(26.8786796564285,-243.,-16.8786796564442));
#319=CARTESIAN_POINT('Origin',(0.,-243.,4.44089209850063E-15));
#320=UNCERTAINTY_MEASURE_WITH_UNIT(LENGTH_MEASURE(0.01),#324,
'DISTANCE_ACCURACY_VALUE',
'Maximum model space distance between geometric entities at asserted c
onnectivities');
#321=UNCERTAINTY_MEASURE_WITH_UNIT(LENGTH_MEASURE(0.01),#324,
'DISTANCE_ACCURACY_VALUE',
'Maximum model space distance between geometric entities at asserted c
onnectivities');
#322=(
GEOMETRIC_REPRESENTATION_CONTEXT(3)
GLOBAL_UNCERTAINTY_ASSIGNED_CONTEXT((#320))
GLOBAL_UNIT_ASSIGNED_CONTEXT((#324,#326,#327))
REPRESENTATION_CONTEXT('','3D')
);
#323=(
GEOMETRIC_REPRESENTATION_CONTEXT(3)
GLOBAL_UNCERTAINTY_ASSIGNED_CONTEXT((#321))
GLOBAL_UNIT_ASSIGNED_CONTEXT((#324,#326,#327))
REPRESENTATION_CONTEXT('','3D')
);
#324=(
LENGTH_UNIT()
NAMED_UNIT(*)
SI_UNIT(.MILLI.,.METRE.)
);
#325=(
LENGTH_UNIT()
NAMED_UNIT(*)
SI_UNIT($,.METRE.)
);
#326=(
NAMED_UNIT(*)
PLANE_ANGLE_UNIT()
SI_UNIT($,.RADIAN.)
);
#327=(
NAMED_UNIT(*)
SI_UNIT($,.STERADIAN.)
SOLID_ANGLE_UNIT()
);
#328=SHAPE_DEFINITION_REPRESENTATION(#329,#330);
#329=PRODUCT_DEFINITION_SHAPE('',$,#332);
#330=SHAPE_REPRESENTATION('',(#196),#322);
#331=PRODUCT_DEFINITION_CONTEXT('part definition',#336,'design');
#332=PRODUCT_DEFINITION('Front plate','Front plate',#333,#331);
#333=PRODUCT_DEFINITION_FORMATION('',$,#338);
#334=PRODUCT_RELATED_PRODUCT_CATEGORY('Front plate','Front plate',(#338));
#335=APPLICATION_PROTOCOL_DEFINITION('international standard',
'automotive_design',2009,#336);
#336=APPLICATION_CONTEXT(
'Core Data for Automotive Mechanical Design Process');
#337=PRODUCT_CONTEXT('part definition',#336,'mechanical');
#338=PRODUCT('Front plate','Front plate',$,(#337));
#339=PRESENTATION_STYLE_ASSIGNMENT((#341));
#340=PRESENTATION_STYLE_ASSIGNMENT((#342));
#341=SURFACE_STYLE_USAGE(.BOTH.,#343);
#342=SURFACE_STYLE_USAGE(.BOTH.,#344);
#343=SURFACE_SIDE_STYLE('',(#345));
#344=SURFACE_SIDE_STYLE('',(#346));
#345=SURFACE_STYLE_FILL_AREA(#347);
#346=SURFACE_STYLE_FILL_AREA(#348);
#347=FILL_AREA_STYLE('Steel - Satin',(#349));
#348=FILL_AREA_STYLE('PLA (White)',(#350));
#349=FILL_AREA_STYLE_COLOUR('Steel - Satin',#351);
#350=FILL_AREA_STYLE_COLOUR('PLA (White)',#352);
#351=COLOUR_RGB('Steel - Satin',0.627450980392157,0.627450980392157,0.627450980392157);
#352=COLOUR_RGB('PLA (White)',0.964705882352941,0.964705882352941,0.952941176470588);
ENDSEC;
END-ISO-10303-21;
